<?xml version="1.0" standalone="no"?>
<!DOCTYPE svg PUBLIC "-//W3C//DTD SVG 1.1//EN" "http://www.w3.org/Graphics/SVG/1.1/DTD/svg11.dtd" >
<svg xmlns="http://www.w3.org/2000/svg" xmlns:xlink="http://www.w3.org/1999/xlink" version="1.1">
<metadata>
Created by FontForge 20201107 at Sun Dec  5 06:11:01 2021
 By 
Copyright (c) 2021 by Khurasan. All rights reserved.
</metadata>
<defs>
<font id="Pulang" horiz-adv-x="563" >
  <font-face 
    font-family="Pulang"
    font-weight="400"
    font-stretch="normal"
    units-per-em="1000"
    panose-1="0 0 0 0 0 0 0 0 0 0"
    ascent="800"
    descent="-200"
    x-height="513.5"
    cap-height="810"
    bbox="-310.222 -245.469 872.667 1058.09"
    underline-thickness="50"
    underline-position="-100"
    unicode-range="U+000D-2122"
  />
<missing-glyph horiz-adv-x="501" 
d="M411 -200h-318v1003h318v-1003zM168 119v-113h166v113h-166zM301 39h-100v47h100v-47zM234 292v-56h34v23h33v-47h-100v80h-33v-113h166v113h-100zM301 415v-66h-133v-34h166v100h-33zM168 475v-33h66v-37h-66v-33h100v70h66v33h-166zM234 536h-33v36h33v-36zM168 606
v-104h166v34h-66v70h-100zM169 736v-33h65v-37h-66v-34h166v34h-66v37h66v33h-165zM168 -17v-34h70l-70 -47v-33h166v33h-102l70 47h32v34h-166z" />
    <glyph glyph-name=".notdef" horiz-adv-x="501" 
d="M411 -200h-318v1003h318v-1003zM168 119v-113h166v113h-166zM301 39h-100v47h100v-47zM234 292v-56h34v23h33v-47h-100v80h-33v-113h166v113h-100zM301 415v-66h-133v-34h166v100h-33zM168 475v-33h66v-37h-66v-33h100v70h66v33h-166zM234 536h-33v36h33v-36zM168 606
v-104h166v34h-66v70h-100zM169 736v-33h65v-37h-66v-34h166v34h-66v37h66v33h-165zM168 -17v-34h70l-70 -47v-33h166v33h-102l70 47h32v34h-166z" />
    <glyph glyph-name=".null" horiz-adv-x="0" 
 />
    <glyph glyph-name="nonmarkingreturn" unicode="&#xd;" horiz-adv-x="346" 
 />
    <glyph glyph-name="NULL" horiz-adv-x="0" 
 />
    <glyph glyph-name="NULL" horiz-adv-x="0" 
 />
    <glyph glyph-name="space" unicode=" " horiz-adv-x="346" 
 />
    <glyph glyph-name="exclam" unicode="!" horiz-adv-x="216" 
d="M103 799q29 0 50 -20.5t20 -49.5q-1 -38 -1 -97t0.5 -122.5t1.5 -122.5t1 -97q0 -29 -20 -49t-49 -20t-49.5 20t-20.5 49q0 38 -1 97t-1.5 122.5t-0.5 122.5t1 97q1 29 20.5 49.5t48.5 20.5zM110 157q28 0 48 -20q21 -20 21 -49q0 -31 -21 -50q-20 -20 -48 -20h-3
q-29 0 -49 20q-21 21 -21 50q0 28 21 49q20 20 49 20h3z" />
    <glyph glyph-name="quotedbl" unicode="&#x22;" horiz-adv-x="363" 
d="M45 704q0 23 16.5 35t37 13.5t39.5 -8.5t24 -32q6 -21 5 -50.5t-7 -57.5t-16 -51t-23 -32q-12 -8 -25 -8t-24 7t-18.5 19t-8.5 28q-2 37 -1.5 68t1.5 69zM202 704q0 23 16.5 35t37 13.5t39.5 -8.5t24 -32q6 -21 5 -50.5t-7 -57.5t-16 -51t-23 -32q-12 -8 -25 -8t-24 7
t-18.5 19t-8.5 28q-2 37 -1.5 68t1.5 69z" />
    <glyph glyph-name="numbersign" unicode="#" horiz-adv-x="833" 
d="M721 491q33 0 49 -21.5t16 -47t-16 -47t-49 -21.5h-36.5t-34.5 -1q-7 -12 -12.5 -23.5t-11.5 -23.5q6 0 11.5 -0.5t10.5 -0.5q29 -1 48.5 -20t19.5 -48q0 -27 -19.5 -48t-48.5 -20q-20 1 -40.5 1h-40.5q-9 -23 -17.5 -47.5t-16.5 -47.5q-9 -27 -32.5 -41.5t-50.5 -6.5
q-26 7 -41 32t-7 52q9 28 21 57q-12 -1 -24 -1.5t-23 -1.5q-37 -1 -75 -6q-3 0 -5 -0.5t-4 -0.5q-9 -26 -18 -51t-17 -51t-32 -40.5t-51 -7.5q-26 8 -41 33t-7 51q3 10 6.5 19t6.5 20q-4 -2 -7.5 -2.5t-7.5 -2.5q-27 -7 -51.5 7.5t-31.5 40.5q-8 27 6.5 51t40.5 32
t53.5 13.5t54.5 10.5q4 10 7.5 19.5t7.5 17.5q-20 -2 -41 -4.5t-42 -4.5q-14 -1 -26 5t-21 15.5t-14.5 22.5t-5.5 25q0 31 20 47.5t47 20.5q38 4 76.5 8t76.5 9q11 20 23 40.5t24 40.5q14 23 41 30.5t52 -7.5q23 -13 30.5 -39.5t-4.5 -49.5q29 3 58.5 5t58.5 4
q12 23 24.5 46.5t23.5 46.5q6 12 17 20t24 11t26.5 1.5t25.5 -8.5q26 -14 32 -41t-7 -52q-3 -5 -5.5 -9.5t-6.5 -9.5h3zM478 307q5 9 9 19t9 20q-66 -5 -128 -12q-4 -8 -8.5 -16.5t-7.5 -16.5q63 4 126 6z" />
    <glyph glyph-name="dollar" unicode="$" horiz-adv-x="419" 
d="M295 370q20 -20 39.5 -43t31.5 -49q15 -32 16 -64.5t-9.5 -61t-32.5 -52t-54 -36.5l-17 -7v-51q0 -33 -17.5 -49.5t-38 -16.5t-37.5 16.5t-17 49.5v27q-20 -1 -39 -0.5t-38 3.5q-29 4 -49.5 21t-20.5 47q0 13 5.5 26t15 23.5t22.5 16t27 3.5q9 0 22 -0.5t28 -0.5
t30.5 0.5t29.5 2.5q32 5 40 18t2 28.5t-20.5 32.5t-28.5 31q-26 25 -49 53.5t-37 60t-16 66t14 71.5q10 25 29 47.5t45 40.5q1 19 1 35.5v32.5q0 33 17 49.5t37.5 16.5t37.5 -16.5t17 -49.5v-24q26 3 49 -1q14 -3 25 -11.5t17.5 -20.5t8 -26t-1.5 -27q-7 -26 -27.5 -38
t-44.5 -13q-17 -1 -36 -7.5t-32 -17.5q-20 -16 -18 -34.5t14.5 -36.5t30 -35t29.5 -30z" />
    <glyph glyph-name="percent" unicode="%" horiz-adv-x="564" 
d="M340 664q14 33 42.5 40t53.5 -4t39 -36.5t-1 -58.5q-29 -65 -62.5 -138.5t-68.5 -148.5t-69 -148.5t-62 -138.5q-15 -32 -43 -39t-53.5 4t-39.5 36.5t1 58.5q28 65 62 138t69.5 148t69 148.5t62.5 138.5zM26 581q0 38 26.5 62t69.5 24q42 0 67 -25.5t25 -61.5t-25 -61
t-66 -25q-44 -1 -70.5 25t-26.5 62zM326 131q0 38 26.5 62t69.5 24q42 0 67 -25.5t25 -61.5t-25 -61t-66 -25q-44 -1 -70.5 25t-26.5 62z" />
    <glyph glyph-name="ampersand" unicode="&#x26;" horiz-adv-x="690" 
d="M583 175q16 -3 31.5 -11t27 -20t16 -28t-1.5 -34q-7 -26 -31.5 -40.5t-51.5 -6.5q-20 6 -40 14.5t-40 18.5q-39 -32 -85 -53.5t-96 -28.5q-56 -8 -110 0.5t-99 47.5t-59.5 91.5t-5 107t38.5 104t71 81.5q-11 29 -16.5 59.5t-1.5 61.5q8 76 53.5 129.5t117.5 80.5
q42 16 85 18.5t85 -14.5q21 -9 37.5 -26.5t26.5 -38.5t12 -44.5t-6 -45.5q-13 -38 -37.5 -67t-55 -53.5t-63 -46t-62.5 -44.5q10 -13 28 -33.5t38.5 -42t41.5 -39.5t36 -27q15 33 17 69.5t-15 72.5q-11 26 -6 51.5t31 41.5q11 6 24.5 8t27 -1t24.5 -11t17 -20
q30 -70 31 -142.5t-35 -138.5zM337 560q37 33 46 57t-11 24q-21 0 -42 -12t-37.5 -32t-25.5 -46t-6 -53q16 15 36.5 30.5t39.5 31.5zM202 127q18 -12 40.5 -14t45 2.5t44 13.5t38.5 19q-40 32 -77.5 68.5t-72.5 81.5q-21 -13 -34 -36t-16.5 -48.5t4 -49.5t28.5 -37z" />
    <glyph glyph-name="quotesingle" unicode="'" horiz-adv-x="209" 
d="M45 704q0 23 16.5 35t37 13.5t39.5 -8.5t24 -32q6 -21 5 -50.5t-7 -57.5t-16 -51t-23 -32q-12 -8 -25 -8t-24 7t-18.5 19t-8.5 28q-2 37 -1.5 68t1.5 69z" />
    <glyph glyph-name="parenleft" unicode="(" horiz-adv-x="436" 
d="M346 102q23 0 38 -11t22 -27.5t6.5 -35.5t-9 -35.5t-24 -28t-38.5 -11.5q-66 0 -122.5 30t-99.5 80q-41 47 -62.5 103.5t-26.5 117t6.5 122.5t36.5 119.5t61.5 109.5t83.5 92q33 29 75 49q28 12 55.5 7t42.5 -34q7 -12 9 -27t-2 -29t-12.5 -26.5t-22.5 -18.5
q-40 -17 -74 -49.5t-59 -74.5q-20 -35 -34.5 -77.5t-19 -86.5t2 -88t29.5 -81q22 -38 56.5 -63.5t81.5 -25.5z" />
    <glyph glyph-name="parenright" unicode=")" horiz-adv-x="436" 
d="M86 102q47 0 81.5 25.5t56.5 63.5q22 37 29 81t2.5 88t-19 86.5t-34.5 77.5q-25 42 -59 74.5t-74 49.5q-14 6 -22.5 18.5t-12.5 26.5t-2 29t9 27q15 29 42.5 34t55.5 -7q42 -20 75 -49q46 -40 83 -92t62 -109.5t36.5 -119.5t7 -122.5t-26.5 -117t-63 -103.5
q-43 -50 -99.5 -80t-122.5 -30q-23 0 -38.5 11.5t-24 28t-9 35.5t6.5 35.5t22 27.5t38 11z" />
    <glyph glyph-name="asterisk" unicode="*" horiz-adv-x="486" 
d="M430 529q15 -13 13 -28.5t-12.5 -26.5t-27 -13.5t-30.5 10.5q-40 36 -82 63v-98q0 -20 -12.5 -30t-28 -10t-28 10t-12.5 30v88q-22 -18 -42 -38.5t-39 -41.5q-13 -15 -28.5 -13.5t-26 12t-13 27t10.5 31.5q23 29 48.5 54t54.5 48q-25 12 -50.5 19t-51.5 8q-20 0 -29.5 13
t-9.5 28.5t9.5 28t29.5 12.5q35 -1 69.5 -11t67.5 -25v72q0 19 12.5 29t28 10t28 -10t12.5 -29v-66q45 28 89 47q15 7 31 4t25 -19q8 -13 4.5 -31t-19.5 -25q-49 -22 -95 -49q27 -18 53 -38.5t51 -41.5z" />
    <glyph glyph-name="plus" unicode="+" horiz-adv-x="468" 
d="M231 467q24 0 40 -18.5t16 -43.5v-82q20 -1 39 -1h39q26 0 44 -17t18 -40t-18 -39.5t-44 -16.5h-41t-41 1q-1 -20 -1 -38.5v-38.5q0 -26 -17 -44t-40 -18t-39.5 18t-16.5 44v40.5t1 40.5h-77q-25 -1 -43.5 16.5t-18.5 40.5q0 24 18.5 40t43.5 16h81v78q-1 25 16.5 43.5
t40.5 18.5z" />
    <glyph glyph-name="comma" unicode="," horiz-adv-x="191" 
d="M132 174q16 -10 20 -39t-0.5 -61t-16 -60.5t-27.5 -38.5q-12 -7 -25 -7t-24.5 6t-19 17t-8.5 26q-2 33 -1.5 61t1.5 63q0 16 11 26.5t26.5 14.5t33 2t30.5 -10z" />
    <glyph glyph-name="hyphen" unicode="-" horiz-adv-x="468" 
d="M31 271q0 24 18.5 40t43.5 16q69 2 136 -1t136 -4q26 0 44 -17t18 -40t-18 -39.5t-44 -16.5q-69 1 -136 4t-136 1q-25 -1 -43.5 16.5t-18.5 40.5z" />
    <glyph glyph-name="period" unicode="." horiz-adv-x="193" 
d="M31 89q0 25 17.5 41t46.5 16q28 0 45 -17t17 -41t-17 -40.5t-44 -16.5q-29 -1 -47 16.5t-18 41.5z" />
    <glyph glyph-name="slash" unicode="/" horiz-adv-x="520" 
d="M354 778q14 33 42.5 40t53.5 -4t39 -36.5t-1 -58.5q-19 -43 -45 -99t-55 -118t-60 -127t-60 -127t-55 -118t-45 -99q-15 -32 -43 -39t-53.5 4t-39.5 36.5t1 58.5q19 43 45 99t55 117.5t60.5 127t60.5 127t55 117.5t45 99z" />
    <glyph glyph-name="zero" unicode="0" horiz-adv-x="467" 
d="M44 482q5 37 15 79.5t30 79t52 61.5t82 27q26 1 52.5 -7.5t50.5 -26.5t44.5 -46t35.5 -67q18 -48 25.5 -102t6 -109.5t-11 -111t-26.5 -104.5q-9 -27 -22 -54.5t-31 -51.5t-41.5 -42t-53.5 -25q-40 -10 -71 -3.5t-54 25t-39.5 46t-26.5 60.5q-28 86 -28.5 180.5
t11.5 191.5zM181 190q11 -52 28.5 -65t37.5 19q15 25 27 64t19 84t8.5 92t-3.5 89q-7 59 -23.5 85t-35 22.5t-35 -35.5t-24.5 -88q-10 -65 -9.5 -132t10.5 -135z" />
    <glyph glyph-name="one" unicode="1" horiz-adv-x="331" 
d="M200 763q12 6 26 7.5t27 -1t24 -10t17 -20.5q10 -22 13.5 -44t2.5 -44.5t-5.5 -45t-9.5 -44.5q-14 -61 -22 -123t-14 -125.5t-11.5 -127.5t-13.5 -130q-3 -29 -20.5 -49.5t-49.5 -20.5q-12 0 -25 5.5t-23 15t-16 22.5t-4 27q13 109 22 218t26 221q-15 -22 -42.5 -27.5
t-49.5 7.5q-13 8 -23 21t-14.5 27.5t-2 27t14.5 20.5q20 13 40 40t40.5 57t43.5 57t49 39z" />
    <glyph glyph-name="two" unicode="2" horiz-adv-x="492" 
d="M394 154q29 1 47.5 -16.5t21 -41t-13 -46.5t-55.5 -33q-21 -5 -48.5 -9t-57.5 -7t-60 -4.5t-55 -2.5q-27 -1 -49 1.5t-40.5 12t-32.5 26.5t-24 44q-11 31 -3 63t26 62t41 56.5t42 47.5q16 18 37 40.5t42 48t39.5 53.5t29.5 59q18 43 11 67.5t-28 31.5t-50 -3t-55 -36
q-14 -25 -41.5 -32.5t-52.5 7.5q-25 14 -32.5 42t7.5 52q16 27 42 47.5t56 34.5t62.5 20.5t62.5 6.5q27 0 53.5 -7t49 -21t39 -35.5t22.5 -49.5q10 -55 -2.5 -109t-39 -105t-63 -98.5t-74.5 -90.5q-21 -23 -41.5 -47.5t-37.5 -51.5q24 0 51.5 3t56 7t58 8t59.5 5z" />
    <glyph glyph-name="three" unicode="3" horiz-adv-x="522" 
d="M332 382q45 -18 81.5 -48t57 -68.5t22 -84.5t-23.5 -95q-18 -37 -48.5 -61t-67 -37t-77.5 -16t-81 2t-75.5 17t-62.5 29q-24 15 -31.5 44.5t6.5 54.5q15 26 42.5 33t52.5 -7q15 -11 33 -18t38 -11t40.5 -5t38.5 0q26 2 45 16t25.5 33t-0.5 39.5t-34 36.5q-17 10 -37 16
t-38 10q-15 5 -30 9t-32 9q-15 5 -27 16.5t-18.5 26.5t-6.5 32t11 32q10 15 24 28.5t30 26t31.5 24.5t29.5 23q41 34 57.5 58.5t15.5 39t-16.5 20t-38 1.5t-48 -16.5t-47.5 -34.5q-9 -11 -22 -16.5t-27 -5t-27 6t-23 15.5q-11 11 -16 24.5t-5 27.5t5 27.5t16 23.5
q50 47 111 67t117.5 16.5t102 -27.5t64.5 -64t5 -93.5t-77 -116.5q-16 -16 -32 -30.5t-33 -29.5z" />
    <glyph glyph-name="four" unicode="4" horiz-adv-x="507" 
d="M384 541q16 34 41 41.5t46.5 -2.5t33 -31.5t1.5 -46.5q-21 -51 -35 -111t-23 -122.5t-12.5 -125t-3.5 -119.5q0 -33 -22 -49.5t-48 -16.5t-47.5 16.5t-21.5 49.5q0 45 4.5 89.5t10.5 89.5l-34 -2t-34 -3q-26 -2 -51 -5t-51 -2q-23 1 -49 6.5t-41 25.5q-19 23 -24.5 50
t5.5 56q19 51 48 96t59.5 90t59.5 91t48 99q10 26 33 41t52 7q13 -4 24 -12.5t18 -20t9 -25t-2 -26.5q-17 -47 -40.5 -89.5t-50 -83.5t-53.5 -81.5t-51 -83.5q37 2 73.5 5.5t74.5 5.5q8 54 19 101.5t34 97.5z" />
    <glyph glyph-name="five" unicode="5" horiz-adv-x="535" 
d="M341 485q38 -9 69 -30.5t52 -52t31 -69t6 -80.5q-10 -88 -59 -150.5t-126 -95.5q-33 -14 -69.5 -20t-73 -3t-71.5 15t-65 34q-24 17 -31.5 44.5t6.5 55.5q7 12 18 21t24.5 13t27 2.5t25.5 -9.5q25 -18 55.5 -24.5t61.5 -2.5t59 19t49 41q20 25 27 51.5t-0.5 48.5
t-29.5 37t-59 16q-40 1 -81.5 -9t-66.5 -18q-17 -5 -33 -1t-28 14t-19.5 25t-8.5 33q-2 35 0.5 69t7 67t8.5 66t6 67q2 27 18 47t42 24q10 2 16 1q113 -15 230 0q14 2 26.5 -4t22 -16.5t15 -24.5t5.5 -27q0 -33 -20 -51.5t-49 -23.5q-45 -5 -88 -6t-88 1l-6 -48t-5 -47
q42 7 84.5 8.5t84.5 -7.5z" />
    <glyph glyph-name="six" unicode="6" horiz-adv-x="514" 
d="M239 492q57 -6 108.5 -34.5t86.5 -72.5t47 -99.5t-10 -114.5q-18 -49 -52 -87.5t-76.5 -63t-90.5 -31.5t-94 7q-35 10 -61.5 31.5t-44 50.5t-26.5 64.5t-9 73.5q0 58 15 126.5t40.5 137t60 131.5t72.5 109q20 25 50.5 23.5t50.5 -23.5q23 -23 22 -55t-22 -55
q-20 -26 -38 -59t-29 -59zM164 209q3 -41 27 -54t52.5 -7t54 27.5t32.5 50.5q6 30 -7.5 51t-36.5 34t-51 19.5t-52 8.5q-2 -11 -5.5 -26t-7 -32.5t-5.5 -36t-1 -35.5z" />
    <glyph glyph-name="seven" unicode="7" horiz-adv-x="484" 
d="M71 716q29 10 69.5 20t84 13.5t86.5 -0.5t77 -20.5t54.5 -48t19.5 -82.5q-2 -50 -18.5 -95t-38.5 -89q14 -3 25 -13t17.5 -23t8 -27.5t-1.5 -27.5q-8 -32 -34 -46t-55 -8q-4 1 -7 1q-5 1 -14 1h-7q-8 -19 -16.5 -38t-16.5 -38q-18 -41 -34 -81t-29 -83
q-9 -31 -33.5 -46.5t-53.5 -7.5q-14 4 -25 14t-18 22.5t-9.5 27.5t2.5 29q14 47 31.5 93.5t37.5 91.5q-8 -1 -15 -1.5t-15 -0.5q-14 -1 -27 5.5t-22.5 17t-15 24.5t-5.5 29q0 32 20.5 52.5t49.5 22.5q26 2 51 5t50 5q12 27 27.5 54.5t27.5 56.5q10 30 4.5 46.5t-21 23.5
t-38 6.5t-47 -5.5t-48 -12t-40.5 -13q-14 -5 -28 -2.5t-26 10.5t-21 20t-13 26q-8 30 7 55.5t43 35.5z" />
    <glyph glyph-name="eight" unicode="8" horiz-adv-x="532" 
d="M177 727q31 15 67 23.5t72 7t70 -15.5t61 -44q35 -38 47.5 -83.5t9 -93.5t-19.5 -96.5t-38 -93.5q38 -45 51 -101.5t-13 -116.5q-16 -34 -42 -61t-57.5 -45t-66.5 -27.5t-69 -9.5q-53 0 -92 19t-65.5 50.5t-40 73t-14.5 86t10 89.5t34 85q-23 23 -38 52.5t-19 66.5
q-3 39 9 75.5t33.5 67t50.5 54t60 38.5zM326 414q10 18 21 47t14 58.5t-5.5 55.5t-36.5 38q-20 8 -42.5 3t-43 -17.5t-35.5 -31.5t-19 -38q-2 -10 -0.5 -20.5t8 -20.5t20 -20t35.5 -20q20 -9 41.5 -17t42.5 -17zM205 297q-8 -11 -14.5 -28.5t-10.5 -37.5q-6 -35 7.5 -62.5
t37 -40.5t51.5 -9t49 31q9 11 12 25t-0.5 28t-14.5 27.5t-29 23.5q-21 11 -42.5 22.5t-44.5 20.5q-3 -2 -1 0z" />
    <glyph glyph-name="nine" unicode="9" horiz-adv-x="532" 
d="M441 702q19 0 34 -8.5t24.5 -22.5t13.5 -32.5t1 -37.5q-9 -71 -18 -135t-14.5 -128t-6 -130t7.5 -140q1 -17 -5 -31.5t-16.5 -25.5t-24.5 -17t-27 -6q-32 0 -50.5 23t-21.5 57q-5 50 -7.5 98t-2.5 99q-29 -19 -61.5 -29t-64.5 -9q-39 1 -69.5 16.5t-52 41.5t-35 59.5
t-18 69.5t-0.5 73t17 69q30 78 93 125.5t148 58.5q38 5 78 0t71 -31zM312 446q23 39 27 74t-8.5 54t-41.5 15.5t-73 -41.5q-29 -25 -38 -51.5t-5 -49t19.5 -38t35.5 -18.5t42.5 9.5t41.5 45.5z" />
    <glyph glyph-name="colon" unicode=":" horiz-adv-x="193" 
d="M31 169q0 25 17.5 41t46.5 16q28 0 45 -17t17 -41t-17 -40.5t-44 -16.5q-29 -1 -47 16.5t-18 41.5zM31 410q0 25 17.5 41t46.5 16q28 0 45 -17t17 -41t-17 -40.5t-44 -16.5q-29 -1 -47 16.5t-18 41.5z" />
    <glyph glyph-name="semicolon" unicode=";" horiz-adv-x="193" 
d="M31 410q0 25 17.5 41t46.5 16q28 0 45 -17t17 -41t-17 -40.5t-44 -16.5q-29 -1 -47 16.5t-18 41.5zM131 236q15 -11 19.5 -43t0 -67.5t-16 -67t-27.5 -42.5q-12 -8 -25 -8t-24 7t-18.5 19t-8.5 28q-2 37 -1.5 68t1.5 69q0 18 11 29.5t26.5 16t32.5 2.5t30 -11z" />
    <glyph glyph-name="less" unicode="&#x3c;" horiz-adv-x="373" 
d="M298 266q27 -8 41 -32.5t6 -53.5q-3 -13 -11.5 -23.5t-20 -17.5t-25 -9t-26.5 3q-32 9 -62.5 21.5t-58.5 28.5q-29 16 -59 37.5t-46 52.5q-19 38 -10.5 78.5t40.5 70.5q14 13 34 25.5t40.5 24t40 22t31.5 19.5q23 17 50.5 19t47.5 -19q20 -19 20 -49t-20 -49
q-20 -18 -42.5 -31t-45.5 -26q-19 -12 -33 -17.5t-17 -10.5t8.5 -12.5t43.5 -22.5q18 -8 36.5 -14.5t37.5 -14.5z" />
    <glyph glyph-name="equal" unicode="=" horiz-adv-x="471" 
d="M31 374q0 24 18.5 40t43.5 16q69 2 136 -1t136 -4q26 0 44 -17t18 -40t-18 -39.5t-44 -16.5q-69 1 -136 4t-136 1q-25 -1 -43.5 16.5t-18.5 40.5zM31 220q0 24 18.5 40t43.5 16q69 2 136 -1t136 -4q26 0 44 -17t18 -40t-18 -39.5t-44 -16.5q-69 1 -136 4t-136 1
q-25 -1 -43.5 16.5t-18.5 40.5z" />
    <glyph glyph-name="greater" unicode="&#x3e;" horiz-adv-x="373" 
d="M71 266q19 8 37.5 14.5t36.5 14.5q32 15 43.5 22.5t8.5 12.5t-17 10.5t-33 17.5q-23 13 -45.5 26t-42.5 31q-20 19 -20 49t20 49q20 21 47.5 19t50.5 -19q12 -9 31.5 -19.5t40 -22t40.5 -24t34 -25.5q32 -30 40.5 -70.5t-10.5 -78.5q-16 -31 -46 -52.5t-59 -37.5
q-28 -16 -58.5 -28.5t-62.5 -21.5q-13 -5 -26.5 -3t-25 9t-20 17.5t-11.5 23.5q-8 29 6 53.5t41 32.5z" />
    <glyph glyph-name="question" unicode="?" horiz-adv-x="603" 
d="M81 780q51 10 116 14t129 -5t120 -35t89 -77q31 -48 33 -100t-23 -98q-18 -32 -43 -53t-54 -36t-61 -27.5t-65 -28.5q-16 -8 -31.5 -17t-26.5 -21t-17 -26t-4 -30q2 -14 -3.5 -26.5t-15.5 -21.5t-22.5 -14.5t-25.5 -5.5q-29 0 -47 20t-21 48q-5 37 5.5 69.5t31.5 59.5
t50.5 48t63.5 35q32 14 64.5 26.5t67.5 31.5q25 15 34.5 34t5.5 37t-20 34t-41 26q-27 10 -58.5 15t-65 5.5t-67 -3t-62.5 -9.5q-27 -5 -51 7t-32 41q-3 12 -1.5 25.5t8 25.5t16.5 20.5t24 11.5zM185 127q33 0 49 -21t16 -46.5t-16 -46.5t-49 -21t-49 21t-16 46.5t16 46.5
t49 21z" />
    <glyph glyph-name="at" unicode="@" horiz-adv-x="851" 
d="M155 619q41 39 97 66t117.5 40t125 10t121 -24t103.5 -61t74 -101q19 -42 24.5 -82.5t-0.5 -85.5q-5 -35 -20.5 -70.5t-42.5 -59.5q-31 -26 -73 -38.5t-82 1.5q-29 13 -55 35q-18 -21 -40.5 -38t-49.5 -28q-29 -13 -63.5 -16t-66.5 5.5t-57 29.5t-35 57q-12 43 -1.5 79.5
t36 66t62 51t78 33.5t83 15t76.5 -5q19 -5 32 -21t19 -36.5t5 -42t-9 -37.5q3 -14 12.5 -21t21 -7.5t22.5 6t18 18.5q8 11 11.5 27.5t3.5 33.5q0 50 -25 91q-32 53 -86 77.5t-115 26t-121.5 -18.5t-104.5 -57q-36 -30 -57.5 -73t-27.5 -91t3.5 -96.5t35.5 -88.5
q35 -55 90 -80.5t117 -27.5t125.5 16.5t116.5 50.5q22 14 47.5 6t38.5 -29q13 -23 5.5 -46.5t-28.5 -37.5q-46 -30 -98.5 -50.5t-107.5 -29t-111 -5.5t-108 20.5t-98 50t-81 81.5q-41 56 -59 124t-13 137t33.5 134t81.5 116zM355 308q7 -13 21 -15t29.5 3.5t30.5 16.5
t25 23.5t13.5 24.5t-4.5 20q-10 9 -31.5 4t-42.5 -17.5t-34.5 -29.5t-6.5 -30z" />
    <glyph glyph-name="A" unicode="A" horiz-adv-x="550" 
d="M457 680q19 -65 32 -150t17 -174.5t-2.5 -176.5t-26.5 -156q-8 -29 -34.5 -44t-55.5 -7q-15 4 -26.5 13t-18.5 21.5t-9 27t2 29.5q7 23 11.5 45.5t7.5 45.5q-42 -11 -86 -11.5t-86 10.5q-1 -21 -1 -42.5t-1 -42.5q-1 -31 -22 -52.5t-52 -21.5q-15 0 -28.5 6t-23.5 16
t-16 23.5t-6 28.5q2 66 3 132t6 132q5 78 15 156.5t35 153.5q12 34 29 70.5t41 67t55.5 51.5t72.5 23q36 2 63.5 -14t48 -42t34 -57.5t22.5 -60.5zM187 307q19 -11 41 -15.5t45 -3t45 8t42 17.5q-1 60 -6.5 133.5t-23.5 145.5q-20 79 -47.5 82.5t-53.5 -81.5
q-7 -21 -15.5 -59.5t-15 -81t-10 -82.5t-1.5 -64z" />
    <glyph glyph-name="B" unicode="B" horiz-adv-x="608" 
d="M551 496q-23 -35 -52 -60t-64 -45q31 -20 59.5 -44.5t48 -54t28 -64t1.5 -74.5q-11 -59 -48.5 -92.5t-88.5 -46.5t-109 -6.5t-109 26.5q-8 -13 -22.5 -20.5t-32.5 -7.5q-23 0 -46.5 15t-30.5 40q-25 85 -35 170.5t-12 170.5t-1 170t-1 170q-1 31 16.5 53.5t49.5 22.5
q14 0 28.5 -6t26.5 -16.5t20 -24.5t8 -29q0 -1 0.5 -2t0.5 -2q24 36 63 61.5t83.5 35t90.5 1.5t85 -38q36 -27 54.5 -66t23 -81t-5 -83.5t-29.5 -72.5zM196 196q52 -35 92 -47.5t67.5 -10t42 18t15.5 37t-12 45.5t-39.5 45t-68 35t-97.5 15q0 -26 -1.5 -59.5t-1.5 -77.5
l2 -1h1zM327 517q52 29 75.5 61.5t25.5 60t-13.5 46.5t-41 21t-56.5 -16.5t-61 -65.5q-22 -35 -37.5 -77t-23.5 -79q30 7 64.5 19.5t67.5 29.5z" />
    <glyph glyph-name="C" unicode="C" horiz-adv-x="639" 
d="M479 211q23 21 54 22t54 -22q22 -22 23 -55t-23 -55q-38 -35 -82.5 -60t-92.5 -36t-98 -6t-98 31q-58 31 -98.5 80.5t-62.5 109t-26.5 125.5t9 129.5t45 121.5t80.5 102q39 35 84.5 57.5t94 30t97.5 -1.5t96 -37q22 -12 30.5 -30.5t7 -37.5t-11.5 -37t-25.5 -28.5
t-36 -12.5t-41.5 11q-48 24 -96 20t-93 -46q-28 -26 -49 -68.5t-31 -90.5t-7.5 -97t21 -88.5t54 -64.5t91.5 -25q38 0 70 17t61 42z" />
    <glyph glyph-name="D" unicode="D" horiz-adv-x="615" 
d="M187 785q93 23 176 -9.5t141 -110.5q43 -60 62 -136.5t13 -155t-38.5 -150.5t-93.5 -122q-31 -24 -64.5 -42t-69.5 -28q-42 -12 -85.5 -18.5t-86.5 2.5q-40 8 -63.5 32t-35.5 56t-13.5 68.5t1.5 71.5q12 120 27 237.5t15 237.5q0 25 11.5 42.5t29 25.5t37.5 8t37 -9z
M184 167q39 0 75 11.5t66.5 33t53.5 52t35 69.5q9 31 12 64.5t-1.5 66.5t-17 63.5t-32.5 54.5q-25 31 -62.5 45.5t-90.5 4.5q-6 -103 -20 -205t-21 -206q-1 -13 -1.5 -26t1.5 -26v-2h3z" />
    <glyph glyph-name="E" unicode="E" horiz-adv-x="495" 
d="M353 279q28 14 57 7.5t46 -36.5q7 -14 9 -30t-2 -32t-12.5 -29.5t-22.5 -20.5q-31 -17 -62 -44t-64 -49.5t-68 -33.5t-74 5q-45 19 -71 60.5t-39.5 93t-17 106t-3.5 98.5q-1 42 1 84.5t3 84.5q1 38 1 80t13 79q38 103 136 113q25 3 50.5 -0.5t50.5 -10.5t49 -16l48 -18
q29 -11 45 -38.5t7 -61.5q-4 -15 -13 -28t-22 -21t-27.5 -10.5t-29.5 3.5q-20 7 -41 14.5t-42 14.5q-12 3 -25 6.5t-24 2.5t-18 -8.5t-7 -25.5v-58.5t-3 -61.5q28 5 55 7t56 3q24 0 40 -12t24 -30t8 -39t-8 -39.5t-24 -31t-40 -12.5q-33 0 -58.5 -2t-53.5 -10q3 -53 8.5 -82
t19 -38t38 2t65.5 39q11 8 21 14t21 12z" />
    <glyph glyph-name="F" unicode="F" horiz-adv-x="429" 
d="M226 840q59 1 112.5 -27t95.5 -69q11 -11 16.5 -25t5.5 -29.5t-6 -30t-16 -25.5q-23 -23 -53 -22.5t-52 22.5q-56 56 -96.5 42t-52.5 -85q-5 -29 -7 -64.5t0 -73.5q32 2 64.5 4t58.5 7q31 5 57.5 -8.5t34.5 -46.5q4 -14 2 -29.5t-9 -29.5t-18 -24t-26 -13q-38 -5 -74 -8
t-73 -6q10 -54 22.5 -108.5t27.5 -108.5q8 -30 -7.5 -58t-44.5 -36q-30 -9 -57 6.5t-35 46.5q-23 81 -40 162t-26 165q-8 77 -6.5 157t22.5 155q9 33 25.5 61.5t39.5 50.5t51.5 34.5t63.5 13.5z" />
    <glyph glyph-name="G" unicode="G" horiz-adv-x="608" 
d="M422 571q52 -1 87.5 -28.5t50.5 -79.5q12 -41 15 -84.5t-2 -87t-18 -85t-34 -77.5q-21 -38 -51.5 -71t-69.5 -51q-49 -21 -99.5 -18.5t-97.5 30.5q-38 22 -67.5 54.5t-51 71t-34.5 81.5t-19 87q-6 43 -6 88t6.5 90t21.5 87t40 79q27 40 70.5 74t93 52t101 15.5
t95.5 -33.5q13 -9 22 -21t12.5 -26t2 -29t-9.5 -30q-8 -13 -20 -22t-26 -13.5t-29 -3t-28 10.5q-19 14 -40.5 15.5t-42.5 -7t-40 -26t-34 -41.5q-29 -48 -39.5 -109.5t-4.5 -116.5q6 -59 25.5 -103.5t45.5 -71t55.5 -32.5t55 12.5t43.5 63t22 119.5q1 21 -1 42t-4 41
q-26 -5 -52.5 -8.5t-54.5 -7.5q-30 -5 -56.5 7.5t-35.5 47.5q-4 13 -2 29t9 29.5t18.5 23.5t26.5 12q38 7 75.5 14.5t75.5 6.5z" />
    <glyph glyph-name="H" unicode="H" horiz-adv-x="537" 
d="M481 824q31 -9 46.5 -36t7.5 -57q-42 -169 -50 -344t15 -355q5 -31 -8 -57.5t-45 -36.5q-14 -4 -29.5 -1.5t-29 9.5t-23.5 19t-12 27q-11 75 -16.5 150.5t-4.5 152.5q-35 0 -71.5 -1.5t-72.5 -9.5q3 -51 7.5 -101t9.5 -101q1 -15 -5 -29t-17 -24.5t-25.5 -16.5t-28.5 -6
q-33 0 -52.5 22.5t-22.5 53.5q-9 83 -15.5 167t-8 168t5.5 167.5t25 166.5q7 30 35.5 45.5t57.5 7.5q31 -8 45.5 -35.5t7.5 -58.5q-10 -41 -14 -73t-7 -74q-2 -32 -3 -62.5t-1 -62.5q38 5 77.5 7t77.5 2q7 82 19.5 163t32.5 161q3 15 12.5 26.5t22 19t27.5 9.5t30 -2z" />
    <glyph glyph-name="I" unicode="I" horiz-adv-x="235" 
d="M47 739q0 36 23 53.5t50.5 17.5t50.5 -17.5t23 -53.5q0 -71 -2.5 -156.5t-5.5 -174.5t-5.5 -174.5t-2.5 -156.5q0 -36 -23.5 -53.5t-51 -17.5t-50.5 17.5t-23 53.5q0 71 2.5 156.5t6 174.5t6 174.5t2.5 156.5z" />
    <glyph glyph-name="J" unicode="J" horiz-adv-x="537" 
d="M376 811q13 4 28 2t28.5 -9t23 -18t11.5 -26q7 -46 14.5 -106t12.5 -126t5 -135t-8.5 -133.5t-28.5 -121t-54 -97.5q-28 -32 -66 -54t-82 -23q-44 -2 -85.5 18t-67.5 54q-47 60 -62 129.5t-15 143.5q0 36 22.5 53.5t50.5 17.5t51 -17.5t23 -53.5q0 -20 1.5 -50.5t9 -60.5
t23 -53t42.5 -28q23 -3 40 13.5t29 43.5t19 61.5t11 67.5t5 61t1 43q0 32 -3.5 73t-9 84t-11 84t-10.5 73q-5 29 7.5 55.5t44.5 34.5z" />
    <glyph glyph-name="K" unicode="K" horiz-adv-x="656" 
d="M272 370q87 -56 173 -111.5t161 -128.5q22 -22 22 -52.5t-22 -52.5q-21 -21 -51.5 -21t-52.5 21q-68 68 -150.5 120t-165.5 105q-2 -48 -4.5 -96t-5.5 -96q-2 -30 -22 -52t-52 -22q-14 0 -28 6t-24.5 16t-16.5 23.5t-5 28.5q11 157 15.5 312t4.5 312q0 36 23 53.5
t50.5 17.5t50.5 -17.5t23 -53.5v-93t-1 -93q68 54 135.5 105t128.5 114q21 22 52 21.5t52 -21.5q22 -22 21.5 -52.5t-21.5 -52.5q-67 -69 -142.5 -124.5t-147.5 -115.5z" />
    <glyph glyph-name="L" unicode="L" horiz-adv-x="433" 
d="M330 157q30 -2 51.5 -22t21.5 -52q0 -14 -6 -28t-15.5 -24.5t-23 -16.5t-28.5 -5q-26 2 -54 -0.5t-55 -3t-53.5 4.5t-49.5 22q-27 20 -44 45t-26 53.5t-12 59.5t-3 63q3 138 8.5 274.5t22.5 273.5q4 30 22.5 52t51.5 22q13 0 27 -6t25 -16t17 -23.5t4 -28.5
q-15 -130 -20 -258.5t-9 -259.5q-2 -56 3.5 -81.5t22 -34.5t46 -8t76.5 -2z" />
    <glyph glyph-name="M" unicode="M" horiz-adv-x="784" 
d="M663 790q32 -14 53 -44.5t31 -63.5t13.5 -67.5t3 -69.5t-4 -70t-7.5 -69q-13 -98 -27 -195t-28 -195q-2 -15 -11.5 -26.5t-23 -18t-28.5 -8.5t-28 2q-32 8 -44 34.5t-7 55.5q15 113 34 226.5t26 231.5q1 20 1.5 41t-0.5 39t-4 32t-9 21q-30 -30 -53.5 -66t-44 -75.5
t-38 -81t-35.5 -82.5q-16 -38 -38.5 -58t-46.5 -21.5t-47 17t-41 57.5q-19 49 -38 95.5t-39 94.5q-2 -11 -2.5 -38t1 -64.5t5 -82t9 -90t13 -89t17.5 -77.5q4 -15 2 -29.5t-9 -26.5t-18.5 -21.5t-26.5 -13.5q-29 -8 -56 7.5t-35 44.5q-11 39 -21 88.5t-17.5 104t-12 111
t-5 111t4 104t14.5 89.5q4 17 12.5 36t20.5 35t27.5 28t35.5 15q23 4 42.5 -1t35.5 -16.5t28.5 -28t22.5 -35.5q42 -87 78 -177q15 35 33 72t40.5 72.5t50 67.5t61.5 56q29 21 63 24t67 -12z" />
    <glyph glyph-name="N" unicode="N" horiz-adv-x="674" 
d="M487 735q0 39 23.5 58t51.5 19t52 -19.5t24 -57.5q0 -97 3.5 -192t-1.5 -192q-2 -30 -3.5 -62.5t-6.5 -65.5t-14.5 -63.5t-25.5 -55.5q-22 -33 -53 -51t-70 -10q-38 9 -65.5 39t-49.5 61q-53 81 -89 171.5t-70 183.5q-1 -34 -1.5 -89t0 -118t2 -126.5t6.5 -114.5
q3 -32 -8.5 -59.5t-43.5 -38.5q-14 -4 -29 -1.5t-28.5 10t-23 20t-11.5 28.5q-5 33 -8.5 81.5t-5.5 103.5t-3 114t-1.5 114.5t-1.5 104t-2 82.5q-1 32 8.5 62t26.5 53t40 36.5t49.5 12.5t54 -19.5t54.5 -59.5q16 -25 28.5 -52.5t23.5 -55.5q36 -88 70.5 -177.5t86.5 -176.5
q14 72 16 147.5t0 152.5q-1 51 -3 101.5t-2 101.5z" />
    <glyph glyph-name="O" unicode="O" horiz-adv-x="613" 
d="M30 352q-3 45 0.5 100t15.5 110.5t34.5 106t59.5 85.5q38 37 85.5 53t96 9.5t95 -36t83.5 -82.5q37 -50 54.5 -112.5t20.5 -122.5q2 -67 -9 -132.5t-36 -125.5q-21 -51 -56 -97.5t-85 -69.5q-31 -14 -65 -20.5t-68 -2.5t-66 19.5t-58 44.5q-51 55 -73.5 127.5
t-28.5 145.5zM197 355q5 -90 30.5 -136t57.5 -47t64.5 43t52.5 135q6 27 7.5 72.5t-6 93t-25 87t-48.5 54.5q-18 9 -36 4t-34.5 -22.5t-30 -46.5t-21.5 -69q-8 -41 -11.5 -83t0.5 -85z" />
    <glyph glyph-name="P" unicode="P" horiz-adv-x="604" 
d="M394 856q49 -5 85.5 -29.5t59.5 -60t33.5 -78.5t7.5 -85q-9 -157 -92.5 -263t-239.5 -166q6 -30 11.5 -60.5t10.5 -62.5q5 -28 -7 -52t-44 -32q-23 -6 -47.5 2.5t-36.5 28.5q-25 53 -44 142t-32 194t-20 214.5t-8 203.5q0 32 21 49t47.5 18t49.5 -13t28 -44
q20 22 44.5 41t52 31.5t58 18.5t62.5 3zM434 609q0 46 -15.5 71t-38.5 31.5t-49.5 -4.5t-48.5 -38q-29 -35 -44 -77t-19.5 -88.5t-2 -95.5t7.5 -97q9 5 18.5 9t20.5 10q34 16 65 47t54.5 69t37.5 80.5t14 82.5z" />
    <glyph glyph-name="Q" unicode="Q" horiz-adv-x="609" 
d="M487 246q23 -33 44.5 -67.5t39.5 -69.5q7 -15 9 -30.5t-1 -30.5t-12 -27.5t-22 -20.5t-28 -10t-29.5 1.5t-27 13t-19.5 23.5q-11 22 -23.5 43t-25.5 41q-36 -33 -80 -52q-37 -15 -76 -12.5t-74 19.5q-53 24 -84 78t-42.5 124t-5.5 147.5t26 149.5t51.5 130.5t72.5 89.5
q13 10 28 11.5t29.5 -3t26.5 -14t20 -22.5q15 -29 8 -56.5t-29 -47.5q-22 -24 -40.5 -61t-31 -81.5t-17.5 -91.5t-1 -90q2 -26 11.5 -58t26 -51.5t40 -18t54.5 42.5q0 2 2 2q-12 22 -23.5 44.5t-20.5 46.5t-14.5 48t-4.5 49q1 33 22.5 56t53.5 23q15 0 29 -6t24.5 -17
t16.5 -25.5t5 -30.5v-5q19 60 18.5 121.5t-11.5 130.5q-26 -12 -54 -3.5t-44 34.5q-17 31 -7.5 59.5t33.5 47.5t57 26t62 -4q26 -11 47.5 -29t33.5 -45q23 -47 30 -99t7 -104q0 -82 -21.5 -162t-58.5 -157z" />
    <glyph glyph-name="R" unicode="R" horiz-adv-x="556" 
d="M272 374q26 -21 54.5 -41t58.5 -41t60.5 -45t60.5 -52q11 -11 16 -24.5t5 -28t-5.5 -28t-15.5 -23.5q-23 -23 -52.5 -21.5t-52.5 21.5q-26 23 -52 44.5t-53 41.5q-26 19 -49.5 36.5t-45.5 34.5q5 -44 9 -87t8 -87q1 -15 -5 -28.5t-16.5 -23.5t-24.5 -16t-28 -6
q-32 0 -52 22t-22 52q-8 99 -18.5 196.5t-21.5 196.5q-5 45 -9.5 90.5t-5.5 91.5q-1 29 3 58.5t21 53.5q28 40 71.5 52.5t90.5 13.5q49 2 99.5 -10.5t91.5 -41.5q38 -27 66 -65t32 -86q3 -35 -13 -68t-42 -56q-71 -70 -163 -126zM271 670q-13 3 -30.5 6t-34.5 1.5
t-29.5 -9.5t-15.5 -28q-2 -12 0 -30t5.5 -39.5t6.5 -45t5 -45.5q9 7 30.5 21t44.5 31.5t43 37.5t27.5 39t-3.5 35t-49 26z" />
    <glyph glyph-name="S" unicode="S" horiz-adv-x="489" 
d="M319 650q-22 0 -46 -13t-44.5 -33t-34 -44t-13.5 -47q0 -26 14.5 -53t47.5 -54q27 -22 56 -41t61 -43q20 -15 38 -33t31.5 -38t21.5 -42.5t8 -46.5q-2 -43 -25 -80.5t-63 -55.5q-33 -14 -68 -18t-70.5 -2t-71 9.5t-69.5 15.5q-15 4 -26 13.5t-18 22.5t-9 27.5t2 28.5
q7 31 34 45.5t56 7.5q56 -15 94.5 -19.5t51 4t-5 30.5t-73.5 61q-38 23 -73.5 55.5t-61 72t-36 85t1.5 93.5q12 46 41 88.5t68 76t86 54t95 22.5q31 1 52.5 -21.5t21.5 -53.5t-21.5 -51.5t-52.5 -22.5z" />
    <glyph glyph-name="T" unicode="T" horiz-adv-x="523" 
d="M427 819q36 0 53.5 -23t17.5 -51t-17.5 -51t-53.5 -23h-84v-623q0 -36 -23 -54t-50.5 -18t-50.5 18t-23 54v627q-32 3 -62.5 7t-60.5 11q-15 3 -26 12.5t-18 22.5t-9.5 27.5t1.5 28.5q8 30 35 44.5t56 7.5q74 -12 149 -14.5t166 -2.5z" />
    <glyph glyph-name="U" unicode="U" 
d="M529 702q4 -32 7 -65t4 -65q2 -56 -2 -124.5t-19 -137t-43 -131t-74 -107.5q-39 -37 -82.5 -54t-86.5 -13t-82 30t-68 76q-36 63 -47 138t-9 146q2 88 14.5 174t28.5 173q3 15 12.5 27t23 19t29 9t29.5 -2q32 -9 45.5 -36t7.5 -57q-14 -70 -24.5 -144t-13.5 -156
q-2 -81 9 -131.5t29.5 -74t42 -20.5t46.5 29.5t42.5 75t29.5 117.5q11 75 10 150.5t-12 153.5q-2 15 4.5 29t17.5 24t25.5 16t28.5 6q35 0 53.5 -22t23.5 -53z" />
    <glyph glyph-name="V" unicode="V" horiz-adv-x="545" 
d="M472 802q29 -8 44 -35t7 -56q-16 -65 -29 -133.5t-27 -138t-30 -140t-38 -140.5q-8 -23 -19.5 -51t-28.5 -52t-41 -38.5t-56 -10.5q-23 2 -43.5 11.5t-37.5 27.5q-31 32 -50.5 71.5t-33.5 81.5t-23.5 84t-16.5 85q-13 88 -19 176t-6 177q0 36 23 53.5t51 17.5t51 -17.5
t23 -53.5q0 -135 16.5 -266.5t64.5 -267.5q9 27 16 54.5t14 56.5q26 113 47.5 226.5t50.5 225.5q8 29 35 44.5t56 7.5z" />
    <glyph glyph-name="W" unicode="W" horiz-adv-x="776" 
d="M666 717q21 -72 38.5 -143t28.5 -144q10 -69 14 -142t-17 -141q-10 -34 -29 -64t-44.5 -52t-57.5 -34t-69 -9q-35 3 -64 16.5t-51.5 35.5t-39 50.5t-26.5 61.5q-11 -21 -24.5 -46t-31 -47.5t-39 -40t-48.5 -23.5q-32 -9 -65 1t-55 38q-32 43 -46.5 96t-15.5 111.5
t9 119.5t26 120.5t35.5 114t37.5 100.5q12 29 35.5 46.5t55.5 7.5q13 -3 25.5 -13t20 -23.5t10 -28.5t-3.5 -30q-7 -17 -13 -34.5t-12 -34.5q-15 -41 -27.5 -82.5t-23.5 -83.5q-5 -21 -10 -48.5t-9 -56t-5.5 -54.5t0 -42.5t8 -20.5t18.5 11q21 24 37 56t28.5 66.5t23 70
t20.5 66.5q8 24 26.5 40.5t44.5 16.5q24 0 45.5 -16.5t26.5 -40.5q6 -35 9 -73t7 -76q8 -92 31.5 -127t47 -24.5t39 60t7.5 126.5q-8 80 -27 158.5t-44 162.5q-5 15 -2.5 30.5t10 29t19 23t25.5 13.5q30 9 56 -7t35 -47z" />
    <glyph glyph-name="X" unicode="X" horiz-adv-x="524" 
d="M486 724q21 -22 21 -52.5t-21 -52.5q-54 -54 -94.5 -116t-75.5 -132q2 -4 2 -5q4 -9 8 -19t9 -18q11 -18 27 -42t34 -49t36 -47t34 -36q23 -20 33 -46.5t-7 -54.5q-7 -12 -19 -21t-26 -13t-28.5 -2.5t-26.5 10.5q-49 35 -87 79.5t-68 95.5l-36 -80t-38 -79
q-7 -14 -19 -22.5t-26 -11.5t-29 -1.5t-27 9.5q-27 16 -33.5 45t7.5 56q32 63 60.5 128t59.5 129q-31 83 -50.5 167.5t-30.5 172.5q-3 22 6 37.5t24.5 24t35 9.5t36.5 -6.5t29.5 -23.5t15.5 -42q7 -52 16 -95.5t15 -60.5q28 45 59.5 86t69.5 79q21 21 52 21t52 -21z" />
    <glyph glyph-name="Y" unicode="Y" horiz-adv-x="621" 
d="M568 750q28 -17 33.5 -45t-6.5 -56q-37 -80 -74 -158t-67 -159q-31 -81 -52.5 -163.5t-23.5 -165.5q-1 -30 -21.5 -52t-51.5 -22q-30 0 -52.5 21.5t-21.5 52.5q2 57 11 113t23 111q-24 -7 -49 -7.5t-51 7.5q-41 13 -67 40t-41.5 61.5t-21.5 73.5t-6 77q0 67 10 134
t27 132q4 15 13.5 26t22 18t27 9.5t28.5 -1.5q29 -8 44.5 -35t7.5 -56q-6 -21 -13.5 -64t-12 -90t-3.5 -90t13.5 -65.5t39 -16t71.5 58.5q25 29 45.5 61t39.5 67t38 74t40 83q7 13 19 21.5t26 12t29 1.5t27 -9z" />
    <glyph glyph-name="Z" unicode="Z" horiz-adv-x="587" 
d="M549 687q-52 -67 -102 -128.5t-96.5 -123.5t-88.5 -129t-78 -145q74 0 146.5 5.5t146.5 5.5q24 0 40 -12t24 -30t8 -39t-8 -39t-24 -30.5t-40 -12.5q-41 0 -82 -3t-82.5 -5.5t-82.5 -3.5t-82 3q-16 1 -33 5t-32 11.5t-27.5 19.5t-19.5 30q-8 21 -10 42t1 41.5t9.5 41
t14.5 40.5q25 61 57.5 118t69.5 110.5t76.5 104.5t80.5 101q-40 -10 -81.5 -16t-86.5 -14q-31 -7 -57.5 7.5t-34.5 48.5q-4 15 -2 31t9 30t18 25t26 14q48 10 97 19.5t98 15.5t98 6t98 -9q18 -4 32 -20.5t19 -35.5q6 -23 0.5 -42.5t-19.5 -37.5z" />
    <glyph glyph-name="bracketleft" unicode="[" horiz-adv-x="386" 
d="M291 678q-29 0 -48 2t-31 -2t-18.5 -19t-12.5 -49q-5 -38 -8 -89.5t-4.5 -106t-2 -108t-1.5 -94.5q0 -29 6.5 -44t20 -20.5t33.5 -2.5t47 9q27 7 52 -6.5t33 -42.5q4 -14 2 -27.5t-9 -25t-17.5 -20t-24.5 -12.5q-30 -8 -65.5 -14t-70 -4t-64.5 16.5t-47 48.5
q-19 38 -25 80.5t-8 83.5t-0.5 80.5t3.5 79.5q2 27 2.5 69t2.5 87.5t6.5 87t14.5 66.5q13 31 32 58t51 41q37 16 74.5 16h76.5q29 -1 49.5 -21t20.5 -49q0 -28 -20.5 -48t-49.5 -20z" />
    <glyph glyph-name="backslash" unicode="\" horiz-adv-x="520" 
d="M167 778q19 -43 45 -99t55 -117.5t60.5 -127t60.5 -127t55 -117.5t45 -99q15 -33 1 -58.5t-39.5 -36.5t-53.5 -4t-43 39q-19 43 -45 99t-55 118t-60 127t-60 127t-55 118t-45 99q-15 33 -1 58.5t39 36.5t53.5 4t42.5 -40z" />
    <glyph glyph-name="bracketright" unicode="]" horiz-adv-x="386" 
d="M107 678q-29 0 -48.5 20t-18.5 48q2 29 23 49t50 21h76.5t73.5 -16q31 -14 49.5 -41t29.5 -58q9 -25 12.5 -66.5t3.5 -87t-1.5 -87.5t-0.5 -69q1 -40 0.5 -79.5t-3.5 -80.5q-4 -41 -11.5 -83.5t-27.5 -80.5q-19 -34 -49 -48.5t-65 -16.5t-70.5 4t-64.5 14q-28 8 -41 33
t-5 52q9 29 34.5 42.5t52.5 6.5q27 -6 47 -9t33.5 2.5t20.5 20.5t8 44q1 41 2.5 94.5t2 108t-0.5 106t-4 89.5q-5 34 -11 49t-18 19t-31 2t-48 -2z" />
    <glyph glyph-name="asciicircum" unicode="^" horiz-adv-x="448" 
d="M358 598q12 -32 23 -65t29 -62q7 -12 8 -25.5t-3 -26.5t-12.5 -24t-20.5 -18q-26 -14 -52 -6t-40 31q-15 26 -25.5 55.5t-21.5 58.5q-7 14 -12 26.5t-12 25.5v-1q-19 -41 -33.5 -84t-36.5 -85q-7 -12 -18.5 -20t-24.5 -11t-26.5 -1.5t-23.5 7.5q-25 14 -29.5 41t8.5 52
q4 8 14.5 32t21.5 50.5t20 50t11 30.5q8 26 22.5 48.5t34.5 37.5t44 19.5t50 -5.5q21 -8 37 -22t28 -31.5t21.5 -37.5t18.5 -40z" />
    <glyph glyph-name="underscore" unicode="_" horiz-adv-x="468" 
d="M31 62q0 24 18.5 40t43.5 16q69 2 136 -1t136 -4q26 0 44 -17t18 -40t-18 -39.5t-44 -16.5q-69 1 -136 4t-136 1q-25 -1 -43.5 16.5t-18.5 40.5z" />
    <glyph glyph-name="grave" unicode="`" horiz-adv-x="237" 
d="M33 674q-12 11 -10.5 24t10.5 22t23 11t26 -9q25 -22 51.5 -39t55.5 -34q14 -8 16 -22t-5 -25t-19.5 -16.5t-27.5 3.5q-32 18 -62 39t-58 46z" />
    <glyph glyph-name="a" unicode="a" horiz-adv-x="571" 
d="M476 586q32 -8 44.5 -34.5t7.5 -56.5q-7 -43 -14 -86.5t-10 -86.5t0.5 -86t18.5 -85q5 -14 2.5 -28.5t-10 -27.5t-19 -22t-25.5 -13q-30 -8 -55 7.5t-35 44.5q-3 8 -6 17t-5 18q-53 -62 -104.5 -81.5t-95 -8t-75.5 48.5t-47 87q-13 45 -7.5 94.5t25.5 95.5t53.5 86
t75 66.5t89.5 36t99 -4.5q10 -4 14 -6q14 17 36.5 24t42.5 1zM194 318q-18 -46 -14.5 -71.5t20 -30t41 11.5t48.5 54q17 23 31.5 48t23.5 49q10 26 7 40t-14 17.5t-27.5 -1t-33.5 -14.5q-24 -16 -46.5 -43.5t-35.5 -59.5z" />
    <glyph glyph-name="b" unicode="b" horiz-adv-x="488" 
d="M381 531q44 -32 60.5 -77.5t11.5 -93.5q-6 -49 -28.5 -91.5t-57 -73.5t-79.5 -48t-96 -14q2 -13 4 -25t4 -23q5 -29 -7 -52.5t-41 -31.5q-13 -4 -27 -2t-26 8t-21 16.5t-11 23.5q-33 182 -33 366t33 364q2 14 11 24.5t21 17t26 8.5t27 -1q29 -8 41 -33t7 -52
q-11 -57 -17.5 -117.5t-8.5 -122.5q22 18 47.5 31.5t52.5 19t54.5 1.5t52.5 -22zM241 389q-28 -30 -37 -53t-5.5 -38t17 -20.5t30 -0.5t34 21.5t29.5 46.5q10 26 9 44t-11 25.5t-27 2t-39 -27.5z" />
    <glyph glyph-name="c" unicode="c" horiz-adv-x="478" 
d="M344 265q11 9 25 10t27 -3t24.5 -12.5t18.5 -19.5q15 -27 6 -52.5t-32 -42.5q-24 -18 -52.5 -32.5t-59.5 -22t-63 -7t-62 10.5q-57 19 -97 63t-49 105q-11 70 10.5 140.5t72.5 122.5q26 28 59.5 45.5t69.5 21.5t73 -6.5t70 -38.5q21 -19 19.5 -49t-19.5 -50
q-21 -20 -49 -19t-50 19q-14 11 -29.5 8.5t-31.5 -16.5q-13 -11 -24 -28.5t-18.5 -38.5t-11.5 -43t-2 -42q3 -37 22.5 -51t46 -13t55.5 13t51 28z" />
    <glyph glyph-name="d" unicode="d" horiz-adv-x="522" 
d="M435 846q13 0 26 -5.5t23 -15t15.5 -22t4.5 -26.5q-8 -89 -19.5 -180.5t-17.5 -182.5t-3 -181.5t25 -178.5q7 -26 -6.5 -51.5t-41.5 -32.5q-14 -4 -27.5 -2t-25 8.5t-20.5 17t-12 24.5q-9 35 -15 71t-10 72q-30 -23 -68 -35.5t-76.5 -10.5t-73 20.5t-56.5 57.5
q-26 45 -29 102.5t15.5 111.5t57.5 97t96 58q39 10 75.5 4.5t68.5 -23.5q6 59 13 117.5t12 116.5q2 29 20 49t49 20zM294 330q13 35 1.5 59t-33 31t-47 -5.5t-41.5 -51.5q-6 -15 -8 -31.5t0 -30.5t10 -25t22 -15q12 -3 25.5 -0.5t26.5 11.5t24.5 23.5t19.5 34.5z" />
    <glyph glyph-name="e" unicode="e" horiz-adv-x="463" 
d="M283 200q20 19 47.5 20t48.5 -20q10 -10 15 -23t5.5 -26.5t-4.5 -26.5t-16 -22q-18 -16 -39.5 -29t-44.5 -20.5t-47 -8.5t-49 7q-41 14 -73.5 44t-52.5 68q-30 57 -38.5 122.5t6.5 126t55 110t106 74.5q45 17 92 7t82 -38.5t51 -72t-1 -93.5q-13 -40 -39 -68.5t-59 -45.5
t-71.5 -22.5t-77.5 0.5h1q3 -14 13.5 -32t24.5 -30.5t31 -15t34 14.5zM313 464q-8 18 -21.5 24.5t-28.5 3.5t-30 -12.5t-25.5 -22.5t-15 -28t1.5 -27q6 -11 19 -15.5t28.5 -3.5t31 8t27 17.5t16 24.5t-2.5 31z" />
    <glyph glyph-name="f" unicode="f" horiz-adv-x="518" 
d="M379 610q-19 17 -34 19.5t-27 -5t-21 -22.5t-15 -33q-11 -35 -16 -71t-6 -77q38 0 77.5 -1.5t79.5 -3.5q28 -2 48 -21t20 -49q0 -14 -5.5 -26.5t-14.5 -22t-21.5 -15t-26.5 -4.5q-38 2 -76 3l-76 2q5 -52 13 -103.5t17 -110.5q5 -27 -7 -51.5t-41 -32.5q-13 -3 -27 -1.5
t-26.5 8t-21.5 17t-11 24.5q-10 61 -19.5 123t-15.5 126q-10 -1 -19.5 -1h-19.5q-15 0 -27.5 5t-22 14.5t-15 22.5t-5.5 27q0 29 20.5 48.5t49.5 20.5q8 1 16.5 1h17.5q1 43 6.5 91t19.5 93t40.5 83.5t70.5 62.5q31 16 63 20.5t62 -2t56 -24.5t46 -48q8 -12 9.5 -25.5
t-2 -27t-12 -24.5t-20.5 -18q-21 -12 -42.5 -9t-38.5 18z" />
    <glyph glyph-name="g" unicode="g" horiz-adv-x="643" 
d="M565 508q4 -64 13.5 -127t17.5 -128q4 -39 8.5 -82t3 -86.5t-11.5 -85t-33 -75.5q-39 -58 -96 -85.5t-121.5 -34.5t-131.5 0.5t-127 19.5q-15 3 -26 12.5t-18 22t-9 27.5t2 29q8 31 34.5 44.5t56.5 7.5q34 -8 75.5 -16.5t82 -7.5t77 16.5t61.5 54.5q16 26 25.5 58.5
t12 68t-1.5 71.5t-14 69q-23 -26 -54 -56t-67 -53.5t-76.5 -34t-80.5 2.5q-39 12 -65.5 38t-41.5 60t-19 72.5t2 74.5q6 39 21.5 75.5t38.5 69t51.5 60.5t59.5 51q56 40 120 56.5t129 1.5q14 8 33 8q26 0 44 -15.5t27 -38.5q13 -35 11 -72t-13 -73zM288 329q43 43 76 91.5
t53 108.5q4 13 1 20t-11 9t-19 1t-21 -4q-47 -14 -89 -48t-67 -79q-17 -32 -22 -66.5t4 -54.5t32.5 -18.5t62.5 40.5z" />
    <glyph glyph-name="h" unicode="h" horiz-adv-x="457" 
d="M420 146q5 -27 -7.5 -51t-41.5 -32q-12 -3 -27 -1.5t-28 8t-21.5 17t-8.5 25.5q2 122 -15 176.5t-39 50.5t-41.5 -62.5t-21.5 -162.5q0 -19 -10.5 -31.5t-25.5 -18t-33 -4t-33 9t-25 22t-10 35.5q0 73 4 146.5t7.5 146.5t5.5 146t-1 145q-1 14 4.5 27t15.5 22.5t22.5 15
t26.5 5.5q29 0 48 -20.5t20 -49.5q3 -60 2 -120.5t-3 -121.5q2 2 4 2.5t4 2.5q32 14 64 14t64 -17q29 -16 48.5 -43.5t29.5 -59.5t13 -66t5 -66q1 -15 1 -30t1 -29q1 -6 1 -12t1 -12v-7v0z" />
    <glyph glyph-name="i" unicode="i" horiz-adv-x="230" 
d="M100 61q-29 0 -48.5 20.5t-20.5 49.5q-1 38 2 76t7 76.5t8 76.5t4 76q0 29 20.5 49t49.5 20t49 -20t20 -49q0 -38 -4 -76t-8 -76.5t-7 -76.5t-2 -76q1 -29 -20 -49.5t-50 -20.5zM156 570q-29 0 -49 20q-21 21 -21 49q0 29 21 50q20 20 49 20h3q28 0 48 -20q21 -20 21 -50
q0 -14 -5 -26.5t-16 -22.5q-20 -20 -48 -20h-3z" />
    <glyph glyph-name="j" unicode="j" horiz-adv-x="251" 
d="M141 496q27 0 48.5 -20.5t20.5 -48.5q-1 -64 -2.5 -138t-11 -148t-32.5 -144t-66 -125q-32 -42 -78.5 -74.5t-99.5 -40.5q-72 -10 -127 20.5t-94 88.5q-8 12 -9 25.5t2.5 26.5t11.5 24.5t20 18.5q26 15 52.5 6.5t42.5 -31.5q13 -20 30 -30t35 -11.5t36.5 4t33.5 16.5
q39 26 61 71t33.5 97t15 105.5t4.5 96.5q2 35 2.5 71t1.5 71q1 28 20.5 48.5t48.5 20.5zM135 549q-33 0 -50 21.5t-17 47.5t17 47.5t50 21.5t50 -21.5t17 -47.5t-17 -47.5t-50 -21.5z" />
    <glyph glyph-name="k" unicode="k" horiz-adv-x="482" 
d="M406 394q-38 -14 -75.5 -27t-75.5 -29q39 -23 74 -53.5t75 -56.5q24 -16 32 -43t-7 -52q-7 -12 -18 -20t-24 -12t-26.5 -2.5t-25.5 9.5q-42 28 -83 61t-86 64q0 -35 2 -68t6 -68q1 -14 -4.5 -26.5t-16 -22t-23.5 -15t-26 -5.5q-30 0 -48 20t-21 49q-9 79 -8 159
t5.5 159.5t10 159.5t5.5 160q0 33 21.5 50t47.5 17t47.5 -17t21.5 -50q0 -72 -4 -142.5t-9 -142.5q28 16 60 29q34 14 68 25t68 24q13 5 27 2.5t26 -9.5t20.5 -18t12.5 -24q8 -29 -7 -52t-42 -33z" />
    <glyph glyph-name="l" unicode="l" horiz-adv-x="253" 
d="M314 -68q29 -7 44.5 -34.5t7.5 -56.5q-8 -30 -35 -44t-56 -7q-65 15 -113.5 60t-74.5 105q-26 61 -38.5 125.5t-16 130.5t0.5 132t11 131q12 112 32 223.5t49 220.5q4 15 13 26t21.5 18t27 9.5t29.5 -1.5q29 -8 44 -35t7 -56q-7 -27 -19.5 -79t-25.5 -120t-25 -146
t-17.5 -157t-3.5 -153.5t16.5 -135t44 -102t77.5 -54.5z" />
    <glyph glyph-name="m" unicode="m" horiz-adv-x="675" 
d="M363 548q28 31 61.5 40.5t66.5 1.5t62 -32t49 -59q24 -43 31 -96t4.5 -108.5t-11 -108.5t-16.5 -95q-3 -14 -12 -24.5t-21 -17t-26 -8.5t-26 1q-30 8 -41.5 32.5t-7.5 53.5q4 26 10.5 64t11 78t4.5 77.5t-10 62.5q-6 17 -16.5 24.5t-22 4.5t-23 -17t-18.5 -40
q-12 -35 -15 -75.5t-8 -76.5q-4 -23 -25.5 -37.5t-42.5 -14.5t-41 14.5t-25 37.5q-4 17 -5.5 46t-7.5 55q-12 49 -25.5 65t-24 8t-17.5 -36t-7 -67q0 -41 3.5 -83t16.5 -87q8 -28 -6.5 -53t-41.5 -33q-13 -3 -26.5 -1t-25.5 8.5t-20.5 17t-12.5 24.5q-14 55 -20 114t-4 116
q1 31 6 64t16.5 63t31 54.5t50.5 39.5q33 15 60 16t49.5 -9.5t41 -30t32.5 -44.5q9 19 20 37t25 34z" />
    <glyph glyph-name="n" unicode="n" horiz-adv-x="754" 
d="M656 561q19 -57 27 -113.5t12 -113.5t8 -115t15 -117q5 -30 -9 -56.5t-43 -34.5t-56 7.5t-35 44.5q-12 45 -14.5 93t-6.5 95q-6 80 -14 143t-23 98t-38.5 35.5t-59.5 -45.5q-45 -57 -72.5 -120t-48.5 -133q-13 -48 -28.5 -95t-41.5 -89q-13 -21 -33 -29.5t-40 -5.5
t-37 16.5t-25 36.5q-18 52 -31 110t-19.5 119t-5.5 121.5t12 116.5q3 15 12.5 26t22.5 18t27.5 9t28.5 -2q31 -8 44 -34.5t7 -55.5q0 -31 -3 -61.5t-2 -64.5q15 25 30.5 59t33.5 70.5t39 73t46.5 66t56 50t68.5 26.5q37 5 67.5 -4t55 -29t43 -50t30.5 -66z" />
    <glyph glyph-name="o" unicode="o" horiz-adv-x="499" 
d="M43 362q21 54 60.5 89.5t86.5 51t96 11t89 -30.5t65.5 -73t26.5 -117q1 -58 -30.5 -110t-84.5 -82q-30 -17 -64.5 -24.5t-69 -4.5t-67 16t-59.5 37q-24 21 -39 50t-21 60.5t-3.5 64t14.5 62.5zM294 227q14 11 24.5 29t14 37.5t-1.5 38.5t-21 32q-21 19 -54 20.5
t-59 -20.5q-14 -11 -24 -28t-13 -35.5t2 -37.5t19 -34q10 -12 24.5 -17.5t30 -5t31 6t27.5 14.5z" />
    <glyph glyph-name="p" unicode="p" horiz-adv-x="516" 
d="M163 528q29 34 63.5 50.5t69 17t67 -13.5t57.5 -39.5t40 -62t14 -80.5q-1 -35 -12.5 -67.5t-31.5 -59.5t-48 -47t-62 -29q-34 -8 -67.5 -5.5t-64.5 17.5q-2 -67 -6.5 -133t-11.5 -132q-3 -29 -21 -49t-48 -20q-13 0 -26 5.5t-23.5 15t-16.5 22t-4 26.5q8 79 14 159t4 161
q-1 80 -9 151.5t-28 147.5q-4 13 -2 26.5t9 25.5t17.5 20.5t24.5 12.5q27 7 52 -7t33 -42q5 -18 9 -35.5t8 -35.5zM245 444q-24 -19 -30 -38t0 -35.5t20 -28t31.5 -14.5t34.5 5t29 30q9 17 9.5 38.5t-13.5 38.5t-38 18t-43 -14z" />
    <glyph glyph-name="q" unicode="q" horiz-adv-x="530" 
d="M471 641q27 -8 41 -33t7 -51q-43 -160 -55.5 -321t-12.5 -326q0 -33 -21.5 -50t-48 -17t-48 17t-21.5 50q0 72 2.5 143t7.5 143q-56 -46 -110.5 -52.5t-96.5 18t-65.5 75.5t-17.5 121q4 46 21.5 89t47.5 76q27 30 62 46t72 17.5t72.5 -11t63.5 -39.5q3 14 6.5 28.5
t7.5 28.5q8 27 33 41.5t53 6.5zM211 439q-12 -11 -21.5 -27t-14.5 -34.5t-6.5 -37.5t3.5 -35q5 -19 19.5 -25.5t33.5 0.5t35 25.5t25 41t9 47t-12 44.5q-11 19 -31.5 18.5t-39.5 -17.5z" />
    <glyph glyph-name="r" unicode="r" horiz-adv-x="516" 
d="M409 507q33 -37 49 -80.5t20 -92.5q1 -14 -4.5 -26.5t-15.5 -22t-22.5 -15t-25.5 -5.5q-31 0 -49.5 20.5t-20.5 48.5q0 61 -21.5 84t-47.5 15t-49 -42.5t-26 -88.5q-2 -43 -2.5 -91t8.5 -108q5 -28 -7 -52t-41 -32q-27 -7 -52.5 6.5t-32.5 40.5q-29 125 -25 247t25 250
q2 13 11 23.5t21 17t26 8.5t27 -2q26 -7 38 -26.5t11 -43.5q18 10 33 14q47 14 94 1.5t79 -48.5z" />
    <glyph glyph-name="s" unicode="s" horiz-adv-x="419" 
d="M295 320q20 -20 39.5 -43t31.5 -49q15 -32 16 -64.5t-9.5 -61t-32.5 -52t-54 -36.5q-47 -21 -100 -28t-104 0q-29 4 -49.5 21t-20.5 47q0 13 5.5 26t15 23.5t22.5 16t27 3.5q9 0 22 -0.5t28 -0.5t30.5 0.5t29.5 2.5q32 5 40 18t2 28.5t-20.5 32.5t-28.5 31
q-26 25 -49 53.5t-37 60t-16 66t14 71.5q12 29 37 55.5t57 45.5t68 27.5t71 2.5q14 -3 25 -11.5t17.5 -20.5t8 -26t-1.5 -27q-7 -26 -27.5 -38t-44.5 -13q-17 -1 -36 -7.5t-32 -17.5q-20 -16 -18 -34.5t14.5 -36.5t30 -35t29.5 -30z" />
    <glyph glyph-name="t" unicode="t" horiz-adv-x="524" 
d="M369 140q19 21 48.5 20.5t49.5 -20.5t19.5 -48t-19.5 -49q-53 -57 -111 -66t-108 27q-42 30 -65.5 75t-34.5 97.5t-13.5 108.5t-1.5 108q-11 0 -21 -0.5t-21 -1.5q-14 -1 -27 4.5t-22.5 15.5t-15 23t-5.5 27q0 30 20.5 48.5t49.5 20.5q13 1 25 1.5t25 0.5q5 60 11 118.5
t11 118.5q2 28 21 48t49 20q13 0 26 -5.5t23 -14.5t15.5 -21.5t4.5 -26.5q-5 -59 -11 -116.5t-11 -116.5q11 0 26.5 0.5t32 1t32 1t26.5 0.5q34 0 50.5 -21.5t16.5 -48t-16.5 -48t-50.5 -21.5q-12 0 -28.5 -0.5t-34 -1t-34 -1t-28.5 -0.5q-3 -31 -2.5 -76.5t11.5 -97.5
l9 -36t16.5 -42.5t26 -24t36.5 19.5z" />
    <glyph glyph-name="u" unicode="u" 
d="M505 235q-3 -46 0 -88t21 -86q14 -28 7.5 -56.5t-33.5 -44.5q-12 -7 -27 -9t-29.5 1.5t-26.5 11.5t-18 22q-21 43 -31 87.5t-12 91.5q-26 -31 -56.5 -56t-68.5 -39q-29 -11 -61.5 -8.5t-58.5 19.5q-37 23 -55 56.5t-24 75.5q-4 34 0 69t13 69.5t22 68t27 63.5
q6 14 18.5 22.5t26.5 12t29 1.5t27 -9q28 -17 33.5 -45t-7.5 -56q-2 -6 -3 -8q-32 -65 -40 -111t4.5 -62t43.5 5t77 90q21 32 40 74t36 77q13 25 35.5 32.5t45 0.5t39.5 -26t18 -45q1 -51 -4 -100.5t-8 -100.5z" />
    <glyph glyph-name="v" unicode="v" horiz-adv-x="457" 
d="M386 634q30 -8 43.5 -36t8.5 -60q-5 -27 -10 -60t-12 -69.5t-15.5 -75t-19.5 -75.5q-8 -32 -19 -62t-28 -58q-15 -26 -39 -50t-54 -28q-42 -6 -73.5 9t-53.5 43t-36 64t-21 74q-14 69 -19 138.5t-5 138.5q0 38 23 57t51 19t51 -19t23 -57q0 -73 6 -145t28 -150v1
q16 35 26 74t19 84q10 48 17 94.5t18 93.5q7 31 34.5 47t56.5 8z" />
    <glyph glyph-name="w" unicode="w" horiz-adv-x="713" 
d="M594 547q26 -43 45.5 -91t30.5 -97q6 -29 9.5 -59.5t0.5 -60t-13.5 -57.5t-30.5 -53q-23 -26 -54 -40t-64 -16t-66 9t-58 34q-17 15 -31 36q-15 -26 -37.5 -52t-50 -45.5t-60 -29.5t-67.5 -2q-37 7 -61.5 32t-38.5 60t-19 77t-4 85t6 82.5t12 70.5q17 72 41.5 142.5
t50.5 139.5q11 27 33.5 42t51.5 7q13 -4 24 -12.5t18 -20.5t9.5 -26t-2.5 -27q-23 -60 -45 -120.5t-38 -123.5q-22 -88 -22.5 -149.5t16.5 -80t48.5 15.5t73.5 138q8 21 24.5 35.5t41.5 14.5q22 0 42 -14t25 -36q4 -16 9 -41q13 -54 33.5 -73.5t37 -11t23 40.5t-9.5 82
q-18 65 -53 125q-15 25 -7.5 53t30.5 42q26 14 53.5 6.5t42.5 -31.5z" />
    <glyph glyph-name="x" unicode="x" horiz-adv-x="493" 
d="M430 444q-23 -16 -43 -33t-43 -40q-3 -3 -6 -6.5t-6 -6.5q28 -40 54.5 -81t50.5 -83q14 -26 7 -53.5t-32 -42.5q-25 -14 -53 -6.5t-42 31.5q-35 62 -78 124q-53 -77 -92 -163q-6 -13 -17 -21t-24.5 -11t-27.5 -1t-25 9q-27 15 -32 41t7 52q25 57 57 111t71 105
q-45 64 -88 133q-8 12 -9.5 26t2.5 27t12 24t20 18q24 15 52 7.5t43 -32.5t31 -49.5t32 -47.5q53 50 110 88q12 8 25.5 9.5t26.5 -2t24.5 -12t18.5 -20.5q15 -26 6.5 -52t-32.5 -42z" />
    <glyph glyph-name="y" unicode="y" horiz-adv-x="525" 
d="M458 638q29 -8 42 -32.5t7 -53.5q-39 -177 -65 -352t-40 -355q-2 -28 -21 -48.5t-49 -20.5q-13 0 -26 5.5t-23 15t-15.5 22t-4.5 26.5q7 85 16 167.5t21 164.5q-21 -17 -44 -29.5t-47.5 -17t-49.5 0t-50 21.5q-27 19 -42.5 46t-23.5 57.5t-9 63t1 63.5q4 54 13 107
t23 107q8 28 33 42.5t53 6.5q27 -8 41 -33.5t7 -52.5q-7 -26 -12.5 -51.5t-10.5 -51.5q-12 -71 -4.5 -113t28 -47.5t51 29t64.5 117.5q14 32 26 71.5t26 76.5q10 26 33 41t52 7z" />
    <glyph glyph-name="z" unicode="z" horiz-adv-x="472" 
d="M403 425q-27 -33 -56.5 -64t-60 -61.5t-60.5 -63t-57 -69.5q50 0 98 10t100 15q14 1 26.5 -4.5t22 -16t15 -23.5t5.5 -26q0 -30 -21 -45.5t-48 -22.5q-43 -11 -94 -18.5t-106 -5.5q-19 1 -39.5 4t-39.5 10.5t-34.5 19.5t-24.5 30q-17 35 -9.5 71t27.5 68q24 39 56.5 72
t66 65.5t65.5 66.5t56 74q-31 0 -59 -10.5t-57 -21.5q-26 -13 -53 -7t-42 31q-7 12 -8.5 25.5t1.5 27t11 25t20 18.5q35 17 73 29t76 17q64 10 109 -5.5t66 -47.5t16 -76t-41 -91z" />
    <glyph glyph-name="braceleft" unicode="{" horiz-adv-x="413" 
d="M284 122q14 4 28 2t26 -9.5t21.5 -19t13.5 -26.5q8 -30 -7 -57t-44 -35q-34 -10 -73 -12t-72 18q-21 14 -34 33t-19.5 40.5t-7.5 45.5t1 48q2 16 2.5 31.5t-3.5 28.5t-14.5 22.5t-29.5 14.5q-23 5 -37 28t-14 45q0 42 34 65q18 13 29.5 22t18 20.5t9.5 28.5t3 46
q0 33 2.5 70t10.5 73t23 69.5t41 59.5q16 17 39.5 26.5t48 10t47.5 -8t38 -27.5q20 -23 21.5 -53t-21.5 -53q-14 -14 -25 -17t-20.5 -2t-18.5 3t-19 -1q-12 -4 -17 -18.5t-6.5 -36t-1 -48.5t-0.5 -56q0 -42 -7.5 -81.5t-31.5 -77.5q5 -4 8 -8.5t6 -9.5q9 -14 14.5 -29.5
t9.5 -32.5q3 -14 1.5 -38t-0.5 -46.5t6 -37.5t21 -10z" />
    <glyph glyph-name="bar" unicode="|" horiz-adv-x="235" 
d="M47 666q0 36 23 53.5t50.5 17.5t50.5 -17.5t23 -53.5q0 -71 -2.5 -156.5t-5.5 -174.5t-5.5 -174.5t-2.5 -156.5q0 -36 -23.5 -53.5t-51 -17.5t-50.5 17.5t-23 53.5q0 71 2.5 156.5t6 174.5t6 174.5t2.5 156.5z" />
    <glyph glyph-name="braceright" unicode="}" horiz-adv-x="413" 
d="M127 122q16 -5 21 10t6 37.5t-0.5 46.5t1.5 38q4 17 9.5 32.5t14.5 29.5q3 5 6 9.5t8 8.5q-24 38 -31.5 77.5t-7.5 81.5q-1 29 -0.5 56t-1 48.5t-6.5 36t-17 18.5q-10 3 -19 1t-18.5 -3t-20.5 2t-25 17q-23 23 -21.5 53t21.5 53q15 19 38 27.5t47.5 8t47.5 -10t40 -26.5
q25 -26 40.5 -59.5t23.5 -69.5t10.5 -73t2.5 -70q0 -29 3 -46t9.5 -28.5t18 -20.5t29.5 -22q34 -23 34 -65q0 -22 -14 -45t-37 -28q-20 -5 -30 -14.5t-14 -22.5t-3.5 -28.5t2.5 -31.5q2 -24 1 -48t-7.5 -45.5t-19.5 -40.5t-34 -33q-33 -20 -72 -18t-73 12q-29 8 -44 35
t-7 57q4 15 13.5 26.5t21.5 19t26 9.5t28 -2z" />
    <glyph glyph-name="asciitilde" unicode="~" horiz-adv-x="583" 
d="M476 454q13 0 26 -5.5t23 -15t15.5 -22.5t4.5 -27q-3 -48 -26 -94.5t-67 -72.5q-22 -13 -46.5 -18t-49 -2t-47 13.5t-40.5 30.5q-14 15 -25.5 32t-21.5 34q-7 13 -13 23t-12 13t-11 -4.5t-9 -30.5q-6 -24 -23 -41t-43 -17q-13 0 -26.5 5.5t-23.5 15t-16 22.5t-4 27
q3 28 13 55t26.5 50t38.5 41t50 27q25 9 48.5 5.5t43 -14.5t35 -29.5t26.5 -39.5q4 -8 10.5 -20t14 -23.5t15.5 -20t16 -9t15.5 9.5t12.5 36q3 15 9 28q9 17 24.5 27.5t36.5 10.5z" />
    <glyph glyph-name="exclamdown" unicode="&#xa1;" horiz-adv-x="216" 
d="M103 -93q-29 0 -48.5 20.5t-20.5 49.5q-1 38 -1 97t0.5 122.5t1.5 122.5t1 97q0 29 20.5 49t49.5 20t49 -20t20 -49q0 -38 -1 -97t-1.5 -122.5t-0.5 -122.5t1 -97q1 -29 -20 -49.5t-50 -20.5zM107 549q-29 0 -49 20q-21 21 -21 49q0 29 21 50q20 20 49 20h3q28 0 48 -20
q21 -20 21 -50q0 -14 -5 -26.5t-16 -22.5q-20 -20 -48 -20h-3z" />
    <glyph glyph-name="cent" unicode="&#xa2;" horiz-adv-x="478" 
d="M344 265q11 9 25 10t27 -3t24.5 -12.5t18.5 -19.5q15 -27 6 -52.5t-32 -42.5q-26 -20 -57 -34.5t-65 -21.5v-88q0 -36 -23.5 -53.5t-51 -17.5t-50.5 17.5t-23 53.5v51t1 55q-45 23 -75.5 63t-38.5 92q-11 70 10.5 140.5t72.5 122.5q19 21 46 38q1 26 1 51.5v48.5
q0 36 23 53.5t50.5 17.5t50.5 -17.5t23 -53.5v-36.5t-1 -38.5q40 -10 79 -41q21 -19 19.5 -49t-19.5 -50q-21 -20 -49 -19t-50 19q-14 11 -29.5 8.5t-31.5 -16.5q-13 -11 -24 -28.5t-18.5 -38.5t-11.5 -43t-2 -42q3 -37 22.5 -51t46 -13t55.5 13t51 28z" />
    <glyph glyph-name="sterling" unicode="&#xa3;" horiz-adv-x="719" 
d="M659 232q26 -14 31 -39.5t-6 -49.5q-29 -60 -77 -93t-104.5 -43.5t-117 0t-114.5 37.5q-11 6 -19.5 8t-18.5 0.5t-23 -8t-32 -17.5q-31 -16 -68 -27q-27 -7 -51.5 6.5t-31.5 39.5q-7 20 1.5 41.5t29.5 31.5q22 9 43 22t37.5 31.5t27 42t10.5 52.5h-28t-30 -1
q-14 -1 -26 4.5t-21 14.5t-14 21t-5 25q0 28 19.5 45.5t46.5 19.5q16 0 30.5 0.5t28.5 1.5q0 63 14.5 125.5t56.5 116.5q30 38 70.5 63.5t84 33t87.5 -5t83 -51.5q20 -20 20 -46.5t-20 -45.5q-19 -18 -47.5 -19t-47.5 19q-21 21 -46 20t-47.5 -15.5t-39.5 -38.5t-23 -48
q-7 -31 -6.5 -60.5t-1.5 -46.5h60.5t60.5 1q28 2 48 -18.5t20 -46.5q0 -27 -20 -44.5t-48 -19.5q-30 -2 -60.5 -2.5t-60.5 -0.5q-2 -23 -5 -47t-11 -48q17 -2 37.5 -13t43.5 -21q25 -13 52.5 -13t53 9.5t47 28.5t35.5 44q6 12 17 19.5t24 10.5t26.5 1.5t24.5 -7.5z" />
    <glyph glyph-name="yen" unicode="&#xa5;" horiz-adv-x="621" 
d="M184 147q-26 0 -39.5 9.5t-13.5 21.5t13 21.5t40 9.5h64l8 28q-23 -5 -47.5 -6t-47.5 6q-39 11 -64.5 34.5t-40.5 53.5t-21 64.5t-6 66.5q0 59 10 117t26 115q8 26 34 39t54 7q28 -8 42.5 -31t6.5 -49q-6 -19 -13 -56t-11.5 -78t-3 -78t13.5 -56.5t37 -14t69 50.5
q24 25 44 52.5t38.5 58.5t36.5 65t38 72q7 12 18.5 19t25 10t27.5 1.5t26 -8.5q27 -14 32.5 -38.5t-5.5 -48.5q-36 -69 -71.5 -137.5t-64.5 -139.5q-13 -30 -24.5 -60.5t-20.5 -60.5h36q25 0 38.5 -10t14.5 -21.5t-12 -21.5t-41 -10h-51q-4 -13 -5 -22q14 -1 28 -1h28
q26 0 39.5 -9.5t14 -21.5t-13 -21.5t-40.5 -9.5h-32t-32 1v-17q-1 -27 -21 -46t-50 -19q-29 0 -51 19t-21 46v9.5t1 9.5h-40q-26 0 -39.5 9.5t-13.5 21.5t13 21.5t40 9.5h46l4 23h-50v0z" />
    <glyph glyph-name="dieresis" unicode="&#xa8;" horiz-adv-x="220" 
d="M65 709q17 0 25.5 -11t8.5 -23.5t-8.5 -23.5t-25.5 -11t-25 11t-8 23.5t8 23.5t25 11zM153 640q-17 0 -25 11t-8 23.5t8 23.5t25 11t25.5 -11t8.5 -23.5t-8.5 -23.5t-25.5 -11z" />
    <glyph glyph-name="plusminus" unicode="&#xb1;" horiz-adv-x="468" 
d="M231 547q24 0 40 -18.5t16 -43.5v-82q20 -1 39 -1h39q26 0 44 -17t18 -40t-18 -39.5t-44 -16.5h-41t-41 1q-1 -20 -1 -38.5v-38.5q0 -26 -17 -44t-40 -18t-39.5 18t-16.5 44v40.5t1 40.5h-77q-25 -1 -43.5 16.5t-18.5 40.5q0 24 18.5 40t43.5 16h81v78q-1 25 16.5 43.5
t40.5 18.5zM31 76q0 24 18.5 40t43.5 16q69 2 136 -1t136 -4q26 0 44 -17t18 -40t-18 -39.5t-44 -16.5q-69 1 -136 4t-136 1q-25 -1 -43.5 16.5t-18.5 40.5z" />
    <glyph glyph-name="acute" unicode="&#xb4;" horiz-adv-x="245" 
d="M78 574q-15 -8 -28 -3t-19.5 16.5t-5 25t16.5 21.5q35 20 61.5 50t51.5 62q9 11 24.5 10t25.5 -10q11 -11 9.5 -25t-9.5 -25q-28 -35 -58 -67.5t-69 -54.5z" />
    <glyph glyph-name="cedilla" unicode="&#xb8;" horiz-adv-x="203" 
d="M143 175q20 -11 28.5 -32.5t-0.5 -42.5q-7 -15 -22 -24.5t-33 -15t-36.5 -7t-32.5 -1.5q-14 1 -20.5 10t-6.5 19t6.5 18.5t20.5 7.5h13t23 1t22.5 3.5t12.5 7.5q2 4 -6 6.5t-19 3.5q-13 0 -24.5 2.5t-21.5 19.5q-7 11 -8 22.5t1.5 22.5t7.5 21.5t10 20.5q7 12 18 15
t21 -1t14.5 -13t-1.5 -21q-11 -18 -11.5 -24.5t5 -8.5t16 -3t23.5 -7z" />
    <glyph glyph-name="questiondown" unicode="&#xbf;" horiz-adv-x="603" 
d="M522 -44q-51 -10 -116 -14t-129 5t-120 35t-89 77q-31 48 -33 100t23 98q18 32 43 53t54 36t61 27.5t65 28.5q16 7 31.5 16.5t26.5 21.5t17 25.5t4 30.5q-2 14 3.5 26.5t15.5 21.5t22.5 14.5t25.5 5.5q29 0 47 -20t21 -48q4 -37 -6 -69.5t-31 -59.5t-50.5 -48t-63.5 -35
q-32 -14 -64.5 -26.5t-67.5 -31.5q-26 -15 -35 -34t-5 -37t20 -34t41 -26q27 -11 58.5 -15.5t65 -5t67 3t62.5 9.5q27 5 51 -7t32 -41q3 -12 1.5 -25.5t-8 -25.5t-17 -20.5t-23.5 -11.5zM418 609q-33 0 -49 21t-16 46.5t16 46.5t49 21t49 -21t16 -46.5t-16 -46.5t-49 -21z
" />
    <glyph glyph-name="Agrave" unicode="&#xc0;" horiz-adv-x="550" 
d="M457 680q19 -65 32 -150t17 -174.5t-2.5 -176.5t-26.5 -156q-8 -29 -34.5 -44t-55.5 -7q-15 4 -26.5 13t-18.5 21.5t-9 27t2 29.5q7 23 11.5 45.5t7.5 45.5q-42 -11 -86 -11.5t-86 10.5q-1 -21 -1 -42.5t-1 -42.5q-1 -31 -22 -52.5t-52 -21.5q-15 0 -28.5 6t-23.5 16
t-16 23.5t-6 28.5q2 66 3 132t6 132q5 78 15 156.5t35 153.5q12 34 29 70.5t41 67t55.5 51.5t72.5 23q36 2 63.5 -14t48 -42t34 -57.5t22.5 -60.5zM187 307q19 -11 41 -15.5t45 -3t45 8t42 17.5q-1 60 -6.5 133.5t-23.5 145.5q-20 79 -47.5 82.5t-53.5 -81.5
q-7 -21 -15.5 -59.5t-15 -81t-10 -82.5t-1.5 -64zM209 963q-12 11 -10.5 24t10.5 22t23 11t26 -9q25 -22 51.5 -39t55.5 -34q14 -8 16 -22t-5 -25t-19.5 -16.5t-27.5 3.5q-32 18 -62 39t-58 46z" />
    <glyph glyph-name="Aacute" unicode="&#xc1;" horiz-adv-x="550" 
d="M457 680q19 -65 32 -150t17 -174.5t-2.5 -176.5t-26.5 -156q-8 -29 -34.5 -44t-55.5 -7q-15 4 -26.5 13t-18.5 21.5t-9 27t2 29.5q7 23 11.5 45.5t7.5 45.5q-42 -11 -86 -11.5t-86 10.5q-1 -21 -1 -42.5t-1 -42.5q-1 -31 -22 -52.5t-52 -21.5q-15 0 -28.5 6t-23.5 16
t-16 23.5t-6 28.5q2 66 3 132t6 132q5 78 15 156.5t35 153.5q12 34 29 70.5t41 67t55.5 51.5t72.5 23q36 2 63.5 -14t48 -42t34 -57.5t22.5 -60.5zM187 307q19 -11 41 -15.5t45 -3t45 8t42 17.5q-1 60 -6.5 133.5t-23.5 145.5q-20 79 -47.5 82.5t-53.5 -81.5
q-7 -21 -15.5 -59.5t-15 -81t-10 -82.5t-1.5 -64zM239 870q-15 -8 -28 -3t-19.5 16.5t-5 25t16.5 21.5q35 20 61.5 50t51.5 62q9 11 24.5 10t25.5 -10q11 -11 9.5 -25t-9.5 -25q-28 -35 -58 -67.5t-69 -54.5z" />
    <glyph glyph-name="Acircumflex" unicode="&#xc2;" horiz-adv-x="550" 
d="M457 680q19 -65 32 -150t17 -174.5t-2.5 -176.5t-26.5 -156q-8 -29 -34.5 -44t-55.5 -7q-15 4 -26.5 13t-18.5 21.5t-9 27t2 29.5q7 23 11.5 45.5t7.5 45.5q-42 -11 -86 -11.5t-86 10.5q-1 -21 -1 -42.5t-1 -42.5q-1 -31 -22 -52.5t-52 -21.5q-15 0 -28.5 6t-23.5 16
t-16 23.5t-6 28.5q2 66 3 132t6 132q5 78 15 156.5t35 153.5q12 34 29 70.5t41 67t55.5 51.5t72.5 23q36 2 63.5 -14t48 -42t34 -57.5t22.5 -60.5zM187 307q19 -11 41 -15.5t45 -3t45 8t42 17.5q-1 60 -6.5 133.5t-23.5 145.5q-20 79 -47.5 82.5t-53.5 -81.5
q-7 -21 -15.5 -59.5t-15 -81t-10 -82.5t-1.5 -64zM259 882q-10 -14 -24 -15.5t-25 5t-15.5 19t4.5 26.5q11 16 21 33t21 31t24 29.5t30 20.5q21 5 36 -6t24 -28q19 -36 37 -71q7 -15 1 -28t-17.5 -20t-24 -4.5t-19.5 17.5q-5 11 -10.5 22t-10.5 22q-2 4 -4 7.5t-4 7.5
q-4 -5 -7.5 -10.5t-6.5 -10.5q-8 -12 -15 -24t-15 -23z" />
    <glyph glyph-name="Atilde" unicode="&#xc3;" horiz-adv-x="550" 
d="M457 680q19 -65 32 -150t17 -174.5t-2.5 -176.5t-26.5 -156q-8 -29 -34.5 -44t-55.5 -7q-15 4 -26.5 13t-18.5 21.5t-9 27t2 29.5q7 23 11.5 45.5t7.5 45.5q-42 -11 -86 -11.5t-86 10.5q-1 -21 -1 -42.5t-1 -42.5q-1 -31 -22 -52.5t-52 -21.5q-15 0 -28.5 6t-23.5 16
t-16 23.5t-6 28.5q2 66 3 132t6 132q5 78 15 156.5t35 153.5q12 34 29 70.5t41 67t55.5 51.5t72.5 23q36 2 63.5 -14t48 -42t34 -57.5t22.5 -60.5zM187 307q19 -11 41 -15.5t45 -3t45 8t42 17.5q-1 60 -6.5 133.5t-23.5 145.5q-20 79 -47.5 82.5t-53.5 -81.5
q-7 -21 -15.5 -59.5t-15 -81t-10 -82.5t-1.5 -64zM240 918q-4 -17 -16.5 -22t-25 -1.5t-21 14.5t-3.5 28q6 21 21 41.5t34.5 31t40 7t37.5 -29.5q8 -13 16 -24t15 -14t12.5 3.5t10.5 29.5q4 16 16 21.5t25 2t21.5 -15t4.5 -27.5q-4 -17 -13.5 -35t-24 -31.5t-32.5 -19.5
t-39 0t-36 20.5t-24 33.5q-8 14 -11 8t-8 -21z" />
    <glyph glyph-name="Adieresis" unicode="&#xc4;" horiz-adv-x="550" 
d="M457 680q19 -65 32 -150t17 -174.5t-2.5 -176.5t-26.5 -156q-8 -29 -34.5 -44t-55.5 -7q-15 4 -26.5 13t-18.5 21.5t-9 27t2 29.5q7 23 11.5 45.5t7.5 45.5q-42 -11 -86 -11.5t-86 10.5q-1 -21 -1 -42.5t-1 -42.5q-1 -31 -22 -52.5t-52 -21.5q-15 0 -28.5 6t-23.5 16
t-16 23.5t-6 28.5q2 66 3 132t6 132q5 78 15 156.5t35 153.5q12 34 29 70.5t41 67t55.5 51.5t72.5 23q36 2 63.5 -14t48 -42t34 -57.5t22.5 -60.5zM187 307q19 -11 41 -15.5t45 -3t45 8t42 17.5q-1 60 -6.5 133.5t-23.5 145.5q-20 79 -47.5 82.5t-53.5 -81.5
q-7 -21 -15.5 -59.5t-15 -81t-10 -82.5t-1.5 -64zM251 957q17 0 25.5 -11t8.5 -23.5t-8.5 -23.5t-25.5 -11t-25 11t-8 23.5t8 23.5t25 11zM339 888q-17 0 -25 11t-8 23.5t8 23.5t25 11t25.5 -11t8.5 -23.5t-8.5 -23.5t-25.5 -11z" />
    <glyph glyph-name="Aring" unicode="&#xc5;" horiz-adv-x="550" 
d="M457 680q19 -65 32 -150t17 -174.5t-2.5 -176.5t-26.5 -156q-8 -29 -34.5 -44t-55.5 -7q-15 4 -26.5 13t-18.5 21.5t-9 27t2 29.5q7 23 11.5 45.5t7.5 45.5q-42 -11 -86 -11.5t-86 10.5q-1 -21 -1 -42.5t-1 -42.5q-1 -31 -22 -52.5t-52 -21.5q-15 0 -28.5 6t-23.5 16
t-16 23.5t-6 28.5q2 66 3 132t6 132q5 78 15 156.5t35 153.5q12 34 29 70.5t41 67t55.5 51.5t72.5 23q36 2 63.5 -14t48 -42t34 -57.5t22.5 -60.5zM187 307q19 -11 41 -15.5t45 -3t45 8t42 17.5q-1 60 -6.5 133.5t-23.5 145.5q-20 79 -47.5 82.5t-53.5 -81.5
q-7 -21 -15.5 -59.5t-15 -81t-10 -82.5t-1.5 -64zM211 966q0 31 14.5 52t35.5 31t45 9t43.5 -12.5t30.5 -33.5t7 -55q-3 -17 -11.5 -31.5t-21.5 -25t-28.5 -16.5t-32.5 -5q-36 2 -59 27t-23 60zM305 1001q-13 0 -21 -10.5t-9.5 -23t4 -24t20.5 -12.5q14 -2 21.5 8.5t8.5 24
t-5 25t-19 12.5z" />
    <glyph glyph-name="AE" unicode="&#xc6;" horiz-adv-x="829" 
d="M687 279q28 14 57 7.5t46 -36.5q7 -14 9 -30t-2 -32t-12.5 -29.5t-22.5 -20.5q-31 -17 -62 -44t-64 -49.5t-68 -33.5t-74 5q-8 3 -17 8v-1q-8 -29 -34.5 -44t-55.5 -7q-15 4 -26.5 13t-18.5 21.5t-9 27t2 29.5q7 23 11.5 45.5t7.5 45.5q-42 -11 -86 -11.5t-86 10.5
l-2 -85q-1 -31 -22 -52.5t-52 -21.5q-15 0 -28.5 6t-23.5 16t-16 23.5t-6 28.5q2 66 3 132t6 132q5 78 15 156.5t35 153.5q12 34 29 70.5t41 67t55.5 51.5t72.5 23q45 2 77 -23.5t54 -62.5q37 41 97 47q25 3 50.5 -0.5t50.5 -10.5t49 -16l48 -18q29 -11 45 -38.5t7 -61.5
q-4 -15 -13 -28t-22 -21t-27.5 -10.5t-29.5 3.5q-20 7 -41 14.5t-42 14.5q-12 3 -25 6.5t-24 2.5t-18 -8.5t-7 -25.5v-58.5t-3 -61.5q28 5 55 7t56 3q24 0 40 -12t24 -30t8 -39t-8 -39.5t-24 -31t-40 -12.5q-33 0 -58.5 -2t-53.5 -10q3 -53 8.5 -82t19 -38t38 2t65.5 39
q11 8 21 14t21 12zM187 307q19 -11 41 -15.5t45 -3t45 8t42 17.5q-1 60 -6.5 133.5t-23.5 145.5q-20 79 -47.5 82.5t-53.5 -81.5q-7 -21 -15.5 -59.5t-15 -81t-10 -82.5t-1.5 -64z" />
    <glyph glyph-name="Ccedilla" unicode="&#xc7;" horiz-adv-x="639" 
d="M395 -24q20 -11 28.5 -32.5t-0.5 -42.5q-7 -15 -22 -24.5t-33 -15t-36.5 -7t-32.5 -1.5q-14 1 -20.5 10t-6.5 19t6.5 18.5t20.5 7.5h13t23 1t22.5 3.5t12.5 7.5q2 4 -6 6.5t-19 3.5q-13 0 -24.5 2.5t-21.5 19.5q-8 13 -8.5 25.5t2.5 24.5q-41 8 -77 28q-58 31 -98.5 80.5
t-62.5 109t-26.5 125.5t9 129.5t45 121.5t80.5 102q39 35 84.5 57.5t94 30t97.5 -1.5t96 -37q22 -12 30.5 -30.5t7 -37.5t-11.5 -37t-25.5 -28.5t-36 -12.5t-41.5 11q-48 24 -96 20t-93 -46q-28 -26 -49 -68.5t-31 -90.5t-7.5 -97t21 -88.5t54 -64.5t91.5 -25q38 0 70 17
t61 42q23 21 54 22t54 -22q22 -22 23 -55t-23 -55q-51 -46 -111 -74t-125 -30q-2 -6 1 -8.5t9 -3.5l15 -2.5t19 -6.5z" />
    <glyph glyph-name="Egrave" unicode="&#xc8;" horiz-adv-x="495" 
d="M353 279q28 14 57 7.5t46 -36.5q7 -14 9 -30t-2 -32t-12.5 -29.5t-22.5 -20.5q-31 -17 -62 -44t-64 -49.5t-68 -33.5t-74 5q-45 19 -71 60.5t-39.5 93t-17 106t-3.5 98.5q-1 42 1 84.5t3 84.5q1 38 1 80t13 79q38 103 136 113q25 3 50.5 -0.5t50.5 -10.5t49 -16l48 -18
q29 -11 45 -38.5t7 -61.5q-4 -15 -13 -28t-22 -21t-27.5 -10.5t-29.5 3.5q-20 7 -41 14.5t-42 14.5q-12 3 -25 6.5t-24 2.5t-18 -8.5t-7 -25.5v-58.5t-3 -61.5q28 5 55 7t56 3q24 0 40 -12t24 -30t8 -39t-8 -39.5t-24 -31t-40 -12.5q-33 0 -58.5 -2t-53.5 -10q3 -53 8.5 -82
t19 -38t38 2t65.5 39q11 8 21 14t21 12zM173 922q-12 11 -10.5 24t10.5 22t23 11t26 -9q25 -22 51.5 -39t55.5 -34q14 -8 16 -22t-5 -25t-19.5 -16.5t-27.5 3.5q-32 18 -62 39t-58 46z" />
    <glyph glyph-name="Eacute" unicode="&#xc9;" horiz-adv-x="495" 
d="M353 279q28 14 57 7.5t46 -36.5q7 -14 9 -30t-2 -32t-12.5 -29.5t-22.5 -20.5q-31 -17 -62 -44t-64 -49.5t-68 -33.5t-74 5q-45 19 -71 60.5t-39.5 93t-17 106t-3.5 98.5q-1 42 1 84.5t3 84.5q1 38 1 80t13 79q38 103 136 113q25 3 50.5 -0.5t50.5 -10.5t49 -16l48 -18
q29 -11 45 -38.5t7 -61.5q-4 -15 -13 -28t-22 -21t-27.5 -10.5t-29.5 3.5q-20 7 -41 14.5t-42 14.5q-12 3 -25 6.5t-24 2.5t-18 -8.5t-7 -25.5v-58.5t-3 -61.5q28 5 55 7t56 3q24 0 40 -12t24 -30t8 -39t-8 -39.5t-24 -31t-40 -12.5q-33 0 -58.5 -2t-53.5 -10q3 -53 8.5 -82
t19 -38t38 2t65.5 39q11 8 21 14t21 12zM178 836q-15 -8 -28 -3t-19.5 16.5t-5 25t16.5 21.5q35 20 61.5 50t51.5 62q9 11 24.5 10t25.5 -10q11 -11 9.5 -25t-9.5 -25q-28 -35 -58 -67.5t-69 -54.5z" />
    <glyph glyph-name="Ecircumflex" unicode="&#xca;" horiz-adv-x="495" 
d="M353 279q28 14 57 7.5t46 -36.5q7 -14 9 -30t-2 -32t-12.5 -29.5t-22.5 -20.5q-31 -17 -62 -44t-64 -49.5t-68 -33.5t-74 5q-45 19 -71 60.5t-39.5 93t-17 106t-3.5 98.5q-1 42 1 84.5t3 84.5q1 38 1 80t13 79q38 103 136 113q25 3 50.5 -0.5t50.5 -10.5t49 -16l48 -18
q29 -11 45 -38.5t7 -61.5q-4 -15 -13 -28t-22 -21t-27.5 -10.5t-29.5 3.5q-20 7 -41 14.5t-42 14.5q-12 3 -25 6.5t-24 2.5t-18 -8.5t-7 -25.5v-58.5t-3 -61.5q28 5 55 7t56 3q24 0 40 -12t24 -30t8 -39t-8 -39.5t-24 -31t-40 -12.5q-33 0 -58.5 -2t-53.5 -10q3 -53 8.5 -82
t19 -38t38 2t65.5 39q11 8 21 14t21 12zM191 856q-10 -14 -24 -15.5t-25 5t-15.5 19t4.5 26.5q11 16 21 33t21 31t24 29.5t30 20.5q21 5 36 -6t24 -28q19 -36 37 -71q7 -15 1 -28t-17.5 -20t-24 -4.5t-19.5 17.5q-5 11 -10.5 22t-10.5 22q-2 4 -4 7.5t-4 7.5
q-4 -5 -7.5 -10.5t-6.5 -10.5q-8 -12 -15 -24t-15 -23z" />
    <glyph glyph-name="Edieresis" unicode="&#xcb;" horiz-adv-x="495" 
d="M353 279q28 14 57 7.5t46 -36.5q7 -14 9 -30t-2 -32t-12.5 -29.5t-22.5 -20.5q-31 -17 -62 -44t-64 -49.5t-68 -33.5t-74 5q-45 19 -71 60.5t-39.5 93t-17 106t-3.5 98.5q-1 42 1 84.5t3 84.5q1 38 1 80t13 79q38 103 136 113q25 3 50.5 -0.5t50.5 -10.5t49 -16l48 -18
q29 -11 45 -38.5t7 -61.5q-4 -15 -13 -28t-22 -21t-27.5 -10.5t-29.5 3.5q-20 7 -41 14.5t-42 14.5q-12 3 -25 6.5t-24 2.5t-18 -8.5t-7 -25.5v-58.5t-3 -61.5q28 5 55 7t56 3q24 0 40 -12t24 -30t8 -39t-8 -39.5t-24 -31t-40 -12.5q-33 0 -58.5 -2t-53.5 -10q3 -53 8.5 -82
t19 -38t38 2t65.5 39q11 8 21 14t21 12zM203 909q17 0 25.5 -11t8.5 -23.5t-8.5 -23.5t-25.5 -11t-25 11t-8 23.5t8 23.5t25 11zM291 840q-17 0 -25 11t-8 23.5t8 23.5t25 11t25.5 -11t8.5 -23.5t-8.5 -23.5t-25.5 -11z" />
    <glyph glyph-name="Igrave" unicode="&#xcc;" horiz-adv-x="235" 
d="M47 739q0 36 23 53.5t50.5 17.5t50.5 -17.5t23 -53.5q0 -71 -2.5 -156.5t-5.5 -174.5t-5.5 -174.5t-2.5 -156.5q0 -36 -23.5 -53.5t-51 -17.5t-50.5 17.5t-23 53.5q0 71 2.5 156.5t6 174.5t6 174.5t2.5 156.5zM58 922q-12 11 -10.5 24t10.5 22t23 11t26 -9
q25 -22 51.5 -39t55.5 -34q14 -8 16 -22t-5 -25t-19.5 -16.5t-27.5 3.5q-32 18 -62 39t-58 46z" />
    <glyph glyph-name="Iacute" unicode="&#xcd;" horiz-adv-x="235" 
d="M47 739q0 36 23 53.5t50.5 17.5t50.5 -17.5t23 -53.5q0 -71 -2.5 -156.5t-5.5 -174.5t-5.5 -174.5t-2.5 -156.5q0 -36 -23.5 -53.5t-51 -17.5t-50.5 17.5t-23 53.5q0 71 2.5 156.5t6 174.5t6 174.5t2.5 156.5zM67 839q-15 -8 -28 -3t-19.5 16.5t-5 25t16.5 21.5
q35 20 61.5 50t51.5 62q9 11 24.5 10t25.5 -10q11 -11 9.5 -25t-9.5 -25q-28 -35 -58 -67.5t-69 -54.5z" />
    <glyph glyph-name="Icircumflex" unicode="&#xce;" horiz-adv-x="235" 
d="M47 739q0 36 23 53.5t50.5 17.5t50.5 -17.5t23 -53.5q0 -71 -2.5 -156.5t-5.5 -174.5t-5.5 -174.5t-2.5 -156.5q0 -36 -23.5 -53.5t-51 -17.5t-50.5 17.5t-23 53.5q0 71 2.5 156.5t6 174.5t6 174.5t2.5 156.5zM90 839q-10 -14 -24 -15.5t-25 5t-15.5 19t4.5 26.5
q11 16 21 33t21 31t24 29.5t30 20.5q21 5 36 -6t24 -28q19 -36 37 -71q7 -15 1 -28t-17.5 -20t-24 -4.5t-19.5 17.5q-5 11 -10.5 22t-10.5 22q-2 4 -4 7.5t-4 7.5q-4 -5 -7.5 -10.5t-6.5 -10.5q-8 -12 -15 -24t-15 -23z" />
    <glyph glyph-name="Idieresis" unicode="&#xcf;" horiz-adv-x="235" 
d="M47 739q0 36 23 53.5t50.5 17.5t50.5 -17.5t23 -53.5q0 -71 -2.5 -156.5t-5.5 -174.5t-5.5 -174.5t-2.5 -156.5q0 -36 -23.5 -53.5t-51 -17.5t-50.5 17.5t-23 53.5q0 71 2.5 156.5t6 174.5t6 174.5t2.5 156.5zM73 909q17 0 25.5 -11t8.5 -23.5t-8.5 -23.5t-25.5 -11
t-25 11t-8 23.5t8 23.5t25 11zM161 840q-17 0 -25 11t-8 23.5t8 23.5t25 11t25.5 -11t8.5 -23.5t-8.5 -23.5t-25.5 -11z" />
    <glyph glyph-name="Eth" unicode="&#xd0;" horiz-adv-x="615" 
d="M18 412q0 21 10.5 36t26.5 19q7 63 12 125.5t5 125.5q0 25 11.5 42.5t29 25.5t37.5 8t37 -9q93 23 176 -9.5t141 -110.5q43 -60 62 -136.5t13 -155t-38.5 -150.5t-93.5 -122q-31 -24 -64.5 -42t-69.5 -28q-42 -12 -85.5 -18.5t-86.5 2.5q-40 8 -63.5 32t-35.5 56
t-13.5 68.5t1.5 71.5q3 29 6 58.5t7 58.5q-11 8 -18 21.5t-7 30.5zM184 167q39 0 75 11.5t66.5 33t53.5 52t35 69.5q9 31 12 64.5t-1.5 66.5t-17 63.5t-32.5 54.5q-25 31 -62.5 45.5t-90.5 4.5q-3 -42 -7 -83.5t-9 -83.5q16 -1 32 -1.5t32 -0.5q20 0 33.5 -17t13.5 -41
q0 -23 -13.5 -39.5t-33.5 -16.5t-39 0.5t-38 1.5q-7 -63 -12 -130q-1 -13 -1.5 -26t1.5 -26v-2h3z" />
    <glyph glyph-name="Ntilde" unicode="&#xd1;" horiz-adv-x="674" 
d="M487 735q0 39 23.5 58t51.5 19t52 -19.5t24 -57.5q0 -97 3.5 -192t-1.5 -192q-2 -30 -3.5 -62.5t-6.5 -65.5t-14.5 -63.5t-25.5 -55.5q-22 -33 -53 -51t-70 -10q-38 9 -65.5 39t-49.5 61q-53 81 -89 171.5t-70 183.5q-1 -34 -1.5 -89t0 -118t2 -126.5t6.5 -114.5
q3 -32 -8.5 -59.5t-43.5 -38.5q-14 -4 -29 -1.5t-28.5 10t-23 20t-11.5 28.5q-5 33 -8.5 81.5t-5.5 103.5t-3 114t-1.5 114.5t-1.5 104t-2 82.5q-1 32 8.5 62t26.5 53t40 36.5t49.5 12.5t54 -19.5t54.5 -59.5q16 -25 28.5 -52.5t23.5 -55.5q36 -88 70.5 -177.5t86.5 -176.5
q14 72 16 147.5t0 152.5q-1 51 -3 101.5t-2 101.5zM277 832q-4 -17 -16.5 -22t-25 -1.5t-21 14.5t-3.5 28q6 21 21 41.5t34.5 31t40 7t37.5 -29.5q8 -13 16 -24t15 -14t12.5 3.5t10.5 29.5q4 16 16 21.5t25 2t21.5 -15t4.5 -27.5q-4 -17 -13.5 -35t-24 -31.5t-32.5 -19.5
t-39 0t-36 20.5t-24 33.5q-8 14 -11 8t-8 -21z" />
    <glyph glyph-name="Ograve" unicode="&#xd2;" horiz-adv-x="613" 
d="M30 352q-3 45 0.5 100t15.5 110.5t34.5 106t59.5 85.5q38 37 85.5 53t96 9.5t95 -36t83.5 -82.5q37 -50 54.5 -112.5t20.5 -122.5q2 -67 -9 -132.5t-36 -125.5q-21 -51 -56 -97.5t-85 -69.5q-31 -14 -65 -20.5t-68 -2.5t-66 19.5t-58 44.5q-51 55 -73.5 127.5
t-28.5 145.5zM197 355q5 -90 30.5 -136t57.5 -47t64.5 43t52.5 135q6 27 7.5 72.5t-6 93t-25 87t-48.5 54.5q-18 9 -36 4t-34.5 -22.5t-30 -46.5t-21.5 -69q-8 -41 -11.5 -83t0.5 -85zM239 935q-12 11 -10.5 24t10.5 22t23 11t26 -9q25 -22 51.5 -39t55.5 -34q14 -8 16 -22
t-5 -25t-19.5 -16.5t-27.5 3.5q-32 18 -62 39t-58 46z" />
    <glyph glyph-name="Oacute" unicode="&#xd3;" horiz-adv-x="613" 
d="M30 352q-3 45 0.5 100t15.5 110.5t34.5 106t59.5 85.5q38 37 85.5 53t96 9.5t95 -36t83.5 -82.5q37 -50 54.5 -112.5t20.5 -122.5q2 -67 -9 -132.5t-36 -125.5q-21 -51 -56 -97.5t-85 -69.5q-31 -14 -65 -20.5t-68 -2.5t-66 19.5t-58 44.5q-51 55 -73.5 127.5
t-28.5 145.5zM197 355q5 -90 30.5 -136t57.5 -47t64.5 43t52.5 135q6 27 7.5 72.5t-6 93t-25 87t-48.5 54.5q-18 9 -36 4t-34.5 -22.5t-30 -46.5t-21.5 -69q-8 -41 -11.5 -83t0.5 -85zM262 845q-15 -8 -28 -3t-19.5 16.5t-5 25t16.5 21.5q35 20 61.5 50t51.5 62
q9 11 24.5 10t25.5 -10q11 -11 9.5 -25t-9.5 -25q-28 -35 -58 -67.5t-69 -54.5z" />
    <glyph glyph-name="Ocircumflex" unicode="&#xd4;" horiz-adv-x="613" 
d="M30 352q-3 45 0.5 100t15.5 110.5t34.5 106t59.5 85.5q38 37 85.5 53t96 9.5t95 -36t83.5 -82.5q37 -50 54.5 -112.5t20.5 -122.5q2 -67 -9 -132.5t-36 -125.5q-21 -51 -56 -97.5t-85 -69.5q-31 -14 -65 -20.5t-68 -2.5t-66 19.5t-58 44.5q-51 55 -73.5 127.5
t-28.5 145.5zM197 355q5 -90 30.5 -136t57.5 -47t64.5 43t52.5 135q6 27 7.5 72.5t-6 93t-25 87t-48.5 54.5q-18 9 -36 4t-34.5 -22.5t-30 -46.5t-21.5 -69q-8 -41 -11.5 -83t0.5 -85zM278 862q-10 -14 -24 -15.5t-25 5t-15.5 19t4.5 26.5q11 16 21 33t21 31t24 29.5
t30 20.5q21 5 36 -6t24 -28q19 -36 37 -71q7 -15 1 -28t-17.5 -20t-24 -4.5t-19.5 17.5q-5 11 -10.5 22t-10.5 22q-2 4 -4 7.5t-4 7.5q-4 -5 -7.5 -10.5t-6.5 -10.5q-8 -12 -15 -24t-15 -23z" />
    <glyph glyph-name="Otilde" unicode="&#xd5;" horiz-adv-x="613" 
d="M30 352q-3 45 0.5 100t15.5 110.5t34.5 106t59.5 85.5q38 37 85.5 53t96 9.5t95 -36t83.5 -82.5q37 -50 54.5 -112.5t20.5 -122.5q2 -67 -9 -132.5t-36 -125.5q-21 -51 -56 -97.5t-85 -69.5q-31 -14 -65 -20.5t-68 -2.5t-66 19.5t-58 44.5q-51 55 -73.5 127.5
t-28.5 145.5zM197 355q5 -90 30.5 -136t57.5 -47t64.5 43t52.5 135q6 27 7.5 72.5t-6 93t-25 87t-48.5 54.5q-18 9 -36 4t-34.5 -22.5t-30 -46.5t-21.5 -69q-8 -41 -11.5 -83t0.5 -85zM253 894q-4 -17 -16.5 -22t-25 -1.5t-21 14.5t-3.5 28q6 21 21 41.5t34.5 31t40 7
t37.5 -29.5q8 -13 16 -24t15 -14t12.5 3.5t10.5 29.5q4 16 16 21.5t25 2t21.5 -15t4.5 -27.5q-4 -17 -13.5 -35t-24 -31.5t-32.5 -19.5t-39 0t-36 20.5t-24 33.5q-8 14 -11 8t-8 -21z" />
    <glyph glyph-name="Odieresis" unicode="&#xd6;" horiz-adv-x="613" 
d="M30 352q-3 45 0.5 100t15.5 110.5t34.5 106t59.5 85.5q38 37 85.5 53t96 9.5t95 -36t83.5 -82.5q37 -50 54.5 -112.5t20.5 -122.5q2 -67 -9 -132.5t-36 -125.5q-21 -51 -56 -97.5t-85 -69.5q-31 -14 -65 -20.5t-68 -2.5t-66 19.5t-58 44.5q-51 55 -73.5 127.5
t-28.5 145.5zM197 355q5 -90 30.5 -136t57.5 -47t64.5 43t52.5 135q6 27 7.5 72.5t-6 93t-25 87t-48.5 54.5q-18 9 -36 4t-34.5 -22.5t-30 -46.5t-21.5 -69q-8 -41 -11.5 -83t0.5 -85zM262 909q17 0 25.5 -11t8.5 -23.5t-8.5 -23.5t-25.5 -11t-25 11t-8 23.5t8 23.5t25 11z
M350 840q-17 0 -25 11t-8 23.5t8 23.5t25 11t25.5 -11t8.5 -23.5t-8.5 -23.5t-25.5 -11z" />
    <glyph glyph-name="multiply" unicode="&#xd7;" horiz-adv-x="394" 
d="M331 408q17 -17 15.5 -42t-19.5 -42l-58 -58q14 -14 27.5 -28t27.5 -28q18 -18 19 -42.5t-16 -41.5t-41 -15.5t-42 19.5l-29 29t-29 30q-14 -14 -27.5 -27t-27.5 -27q-18 -18 -42.5 -19t-41.5 16t-15.5 41t19.5 42q14 14 29 28.5t29 28.5l-54 54q-18 17 -19.5 42.5
t15.5 41.5q17 17 42 15.5t42 -19.5l57 -57l55 55q17 18 42.5 19.5t41.5 -15.5z" />
    <glyph glyph-name="Oslash" unicode="&#xd8;" horiz-adv-x="613" 
d="M30 352q-3 45 0.5 100t15.5 110.5t34.5 106t59.5 85.5q28 28 62 43.5t70 19.5t72.5 -5t70.5 -31q16 26 37.5 32t38.5 -3.5t24 -32t-7 -53.5l-10 -23q0 -1 2 -3q37 -50 54.5 -112.5t20.5 -122.5q2 -67 -9 -132.5t-36 -125.5q-21 -51 -56 -97.5t-85 -69.5
q-47 -22 -100 -24.5t-101 22.5q-15 -32 -38 -41.5t-42 -1t-27.5 31.5t6.5 56q4 8 7.5 16.5t7.5 18.5q-35 51 -51 112.5t-21 123.5zM197 355q0 -8 0.5 -15.5t1.5 -15.5l152 319q-5 5 -10.5 8t-10.5 6q-18 9 -36 4t-34.5 -22.5t-30 -46.5t-21.5 -69q-8 -41 -11.5 -83t0.5 -85z
M402 350q5 25 6.5 65.5t-3.5 85.5q-37 -79 -76 -161t-74 -156q37 -29 79.5 12t67.5 154z" />
    <glyph glyph-name="Ugrave" unicode="&#xd9;" 
d="M529 702q4 -32 7 -65t4 -65q2 -56 -2 -124.5t-19 -137t-43 -131t-74 -107.5q-39 -37 -82.5 -54t-86.5 -13t-82 30t-68 76q-36 63 -47 138t-9 146q2 88 14.5 174t28.5 173q3 15 12.5 27t23 19t29 9t29.5 -2q32 -9 45.5 -36t7.5 -57q-14 -70 -24.5 -144t-13.5 -156
q-2 -81 9 -131.5t29.5 -74t42 -20.5t46.5 29.5t42.5 75t29.5 117.5q11 75 10 150.5t-12 153.5q-2 15 4.5 29t17.5 24t25.5 16t28.5 6q35 0 53.5 -22t23.5 -53zM201 874q-12 11 -10.5 24t10.5 22t23 11t26 -9q25 -22 51.5 -39t55.5 -34q14 -8 16 -22t-5 -25t-19.5 -16.5
t-27.5 3.5q-32 18 -62 39t-58 46z" />
    <glyph glyph-name="Uacute" unicode="&#xda;" 
d="M529 702q4 -32 7 -65t4 -65q2 -56 -2 -124.5t-19 -137t-43 -131t-74 -107.5q-39 -37 -82.5 -54t-86.5 -13t-82 30t-68 76q-36 63 -47 138t-9 146q2 88 14.5 174t28.5 173q3 15 12.5 27t23 19t29 9t29.5 -2q32 -9 45.5 -36t7.5 -57q-14 -70 -24.5 -144t-13.5 -156
q-2 -81 9 -131.5t29.5 -74t42 -20.5t46.5 29.5t42.5 75t29.5 117.5q11 75 10 150.5t-12 153.5q-2 15 4.5 29t17.5 24t25.5 16t28.5 6q35 0 53.5 -22t23.5 -53zM299 779q-15 -8 -28 -3t-19.5 16.5t-5 25t16.5 21.5q35 20 61.5 50t51.5 62q9 11 24.5 10t25.5 -10
q11 -11 9.5 -25t-9.5 -25q-28 -35 -58 -67.5t-69 -54.5z" />
    <glyph glyph-name="Ucircumflex" unicode="&#xdb;" 
d="M529 702q4 -32 7 -65t4 -65q2 -56 -2 -124.5t-19 -137t-43 -131t-74 -107.5q-39 -37 -82.5 -54t-86.5 -13t-82 30t-68 76q-36 63 -47 138t-9 146q2 88 14.5 174t28.5 173q3 15 12.5 27t23 19t29 9t29.5 -2q32 -9 45.5 -36t7.5 -57q-14 -70 -24.5 -144t-13.5 -156
q-2 -81 9 -131.5t29.5 -74t42 -20.5t46.5 29.5t42.5 75t29.5 117.5q11 75 10 150.5t-12 153.5q-2 15 4.5 29t17.5 24t25.5 16t28.5 6q35 0 53.5 -22t23.5 -53zM276 816q-10 -14 -24 -15.5t-25 5t-15.5 19t4.5 26.5q11 16 21 33t21 31t24 29.5t30 20.5q21 5 36 -6t24 -28
q19 -36 37 -71q7 -15 1 -28t-17.5 -20t-24 -4.5t-19.5 17.5q-5 11 -10.5 22t-10.5 22q-2 4 -4 7.5t-4 7.5q-4 -5 -7.5 -10.5t-6.5 -10.5q-8 -12 -15 -24t-15 -23z" />
    <glyph glyph-name="Udieresis" unicode="&#xdc;" 
d="M529 702q4 -32 7 -65t4 -65q2 -56 -2 -124.5t-19 -137t-43 -131t-74 -107.5q-39 -37 -82.5 -54t-86.5 -13t-82 30t-68 76q-36 63 -47 138t-9 146q2 88 14.5 174t28.5 173q3 15 12.5 27t23 19t29 9t29.5 -2q32 -9 45.5 -36t7.5 -57q-14 -70 -24.5 -144t-13.5 -156
q-2 -81 9 -131.5t29.5 -74t42 -20.5t46.5 29.5t42.5 75t29.5 117.5q11 75 10 150.5t-12 153.5q-2 15 4.5 29t17.5 24t25.5 16t28.5 6q35 0 53.5 -22t23.5 -53zM260 891q17 0 25.5 -11t8.5 -23.5t-8.5 -23.5t-25.5 -11t-25 11t-8 23.5t8 23.5t25 11zM348 822q-17 0 -25 11
t-8 23.5t8 23.5t25 11t25.5 -11t8.5 -23.5t-8.5 -23.5t-25.5 -11z" />
    <glyph glyph-name="Yacute" unicode="&#xdd;" horiz-adv-x="621" 
d="M568 750q28 -17 33.5 -45t-6.5 -56q-37 -80 -74 -158t-67 -159q-31 -81 -52.5 -163.5t-23.5 -165.5q-1 -30 -21.5 -52t-51.5 -22q-30 0 -52.5 21.5t-21.5 52.5q2 57 11 113t23 111q-24 -7 -49 -7.5t-51 7.5q-41 13 -67 40t-41.5 61.5t-21.5 73.5t-6 77q0 67 10 134
t27 132q4 15 13.5 26t22 18t27 9.5t28.5 -1.5q29 -8 44.5 -35t7.5 -56q-6 -21 -13.5 -64t-12 -90t-3.5 -90t13.5 -65.5t39 -16t71.5 58.5q25 29 45.5 61t39.5 67t38 74t40 83q7 13 19 21.5t26 12t29 1.5t27 -9zM344 769q-15 -8 -28 -3t-19.5 16.5t-5 25t16.5 21.5
q35 20 61.5 50t51.5 62q9 11 24.5 10t25.5 -10q11 -11 9.5 -25t-9.5 -25q-28 -35 -58 -67.5t-69 -54.5z" />
    <glyph glyph-name="germandbls" unicode="&#xdf;" horiz-adv-x="537" 
d="M412 488q-18 -27 -29.5 -44t-14.5 -32t5 -31.5t29 -41.5q17 -20 35 -39.5t33 -41t25 -45t12 -49.5q1 -37 -20 -66t-53 -47.5t-70.5 -26.5t-72.5 -2q-30 4 -46.5 27.5t-18 49t13 44.5t46.5 15q39 -5 52.5 1t10 20t-19.5 33.5t-35 42.5q-17 20 -31 41t-23 43.5t-11.5 47
t5.5 51.5q7 25 19.5 48.5t26.5 45t28.5 43t27.5 44.5q6 10 13 28t9 36t-4 32t-26 17q-12 1 -25 -8.5t-25.5 -24t-23 -31t-17.5 -29.5q-25 -44 -40.5 -93.5t-21.5 -100.5q-24 -207 24 -406q6 -28 -7.5 -52.5t-40.5 -32.5q-26 -7 -51.5 7t-32.5 41q-23 103 -32 208.5t2 210.5
q4 48 19 111t40.5 125t62 114t84.5 77q27 14 59.5 19.5t62.5 -5.5q34 -13 64 -38.5t47 -59.5q17 -36 19 -75.5t-13 -77.5q-13 -33 -31.5 -63.5t-38.5 -59.5z" />
    <glyph glyph-name="agrave" unicode="&#xe0;" horiz-adv-x="571" 
d="M476 586q32 -8 44.5 -34.5t7.5 -56.5q-7 -43 -14 -86.5t-10 -86.5t0.5 -86t18.5 -85q5 -14 2.5 -28.5t-10 -27.5t-19 -22t-25.5 -13q-30 -8 -55 7.5t-35 44.5q-3 8 -6 17t-5 18q-53 -62 -104.5 -81.5t-95 -8t-75.5 48.5t-47 87q-13 45 -7.5 94.5t25.5 95.5t53.5 86
t75 66.5t89.5 36t99 -4.5q10 -4 14 -6q14 17 36.5 24t42.5 1zM194 318q-18 -46 -14.5 -71.5t20 -30t41 11.5t48.5 54q17 23 31.5 48t23.5 49q10 26 7 40t-14 17.5t-27.5 -1t-33.5 -14.5q-24 -16 -46.5 -43.5t-35.5 -59.5zM267 706q-12 11 -10.5 24t10.5 22t23 11t26 -9
q25 -22 51.5 -39t55.5 -34q14 -8 16 -22t-5 -25t-19.5 -16.5t-27.5 3.5q-32 18 -62 39t-58 46z" />
    <glyph glyph-name="aacute" unicode="&#xe1;" horiz-adv-x="571" 
d="M476 586q32 -8 44.5 -34.5t7.5 -56.5q-7 -43 -14 -86.5t-10 -86.5t0.5 -86t18.5 -85q5 -14 2.5 -28.5t-10 -27.5t-19 -22t-25.5 -13q-30 -8 -55 7.5t-35 44.5q-3 8 -6 17t-5 18q-53 -62 -104.5 -81.5t-95 -8t-75.5 48.5t-47 87q-13 45 -7.5 94.5t25.5 95.5t53.5 86
t75 66.5t89.5 36t99 -4.5q10 -4 14 -6q14 17 36.5 24t42.5 1zM194 318q-18 -46 -14.5 -71.5t20 -30t41 11.5t48.5 54q17 23 31.5 48t23.5 49q10 26 7 40t-14 17.5t-27.5 -1t-33.5 -14.5q-24 -16 -46.5 -43.5t-35.5 -59.5zM290 610q-15 -8 -28 -3t-19.5 16.5t-5 25t16.5 21.5
q35 20 61.5 50t51.5 62q9 11 24.5 10t25.5 -10q11 -11 9.5 -25t-9.5 -25q-28 -35 -58 -67.5t-69 -54.5z" />
    <glyph glyph-name="acircumflex" unicode="&#xe2;" horiz-adv-x="571" 
d="M476 586q32 -8 44.5 -34.5t7.5 -56.5q-7 -43 -14 -86.5t-10 -86.5t0.5 -86t18.5 -85q5 -14 2.5 -28.5t-10 -27.5t-19 -22t-25.5 -13q-30 -8 -55 7.5t-35 44.5q-3 8 -6 17t-5 18q-53 -62 -104.5 -81.5t-95 -8t-75.5 48.5t-47 87q-13 45 -7.5 94.5t25.5 95.5t53.5 86
t75 66.5t89.5 36t99 -4.5q10 -4 14 -6q14 17 36.5 24t42.5 1zM194 318q-18 -46 -14.5 -71.5t20 -30t41 11.5t48.5 54q17 23 31.5 48t23.5 49q10 26 7 40t-14 17.5t-27.5 -1t-33.5 -14.5q-24 -16 -46.5 -43.5t-35.5 -59.5zM295 633q-10 -14 -24 -15.5t-25 5t-15.5 19
t4.5 26.5q11 16 21 33t21 31t24 29.5t30 20.5q21 5 36 -6t24 -28q19 -36 37 -71q7 -15 1 -28t-17.5 -20t-24 -4.5t-19.5 17.5q-5 11 -10.5 22t-10.5 22q-2 4 -4 7.5t-4 7.5q-4 -5 -7.5 -10.5t-6.5 -10.5q-8 -12 -15 -24t-15 -23z" />
    <glyph glyph-name="atilde" unicode="&#xe3;" horiz-adv-x="571" 
d="M476 586q32 -8 44.5 -34.5t7.5 -56.5q-7 -43 -14 -86.5t-10 -86.5t0.5 -86t18.5 -85q5 -14 2.5 -28.5t-10 -27.5t-19 -22t-25.5 -13q-30 -8 -55 7.5t-35 44.5q-3 8 -6 17t-5 18q-53 -62 -104.5 -81.5t-95 -8t-75.5 48.5t-47 87q-13 45 -7.5 94.5t25.5 95.5t53.5 86
t75 66.5t89.5 36t99 -4.5q10 -4 14 -6q14 17 36.5 24t42.5 1zM194 318q-18 -46 -14.5 -71.5t20 -30t41 11.5t48.5 54q17 23 31.5 48t23.5 49q10 26 7 40t-14 17.5t-27.5 -1t-33.5 -14.5q-24 -16 -46.5 -43.5t-35.5 -59.5zM225 632q-4 -17 -16.5 -22t-25 -1.5t-21 14.5
t-3.5 28q6 21 21 41.5t34.5 31t40 7t37.5 -29.5q8 -13 16 -24t15 -14t12.5 3.5t10.5 29.5q4 16 16 21.5t25 2t21.5 -15t4.5 -27.5q-4 -17 -13.5 -35t-24 -31.5t-32.5 -19.5t-39 0t-36 20.5t-24 33.5q-8 14 -11 8t-8 -21z" />
    <glyph glyph-name="adieresis" unicode="&#xe4;" horiz-adv-x="571" 
d="M476 586q32 -8 44.5 -34.5t7.5 -56.5q-7 -43 -14 -86.5t-10 -86.5t0.5 -86t18.5 -85q5 -14 2.5 -28.5t-10 -27.5t-19 -22t-25.5 -13q-30 -8 -55 7.5t-35 44.5q-3 8 -6 17t-5 18q-53 -62 -104.5 -81.5t-95 -8t-75.5 48.5t-47 87q-13 45 -7.5 94.5t25.5 95.5t53.5 86
t75 66.5t89.5 36t99 -4.5q10 -4 14 -6q14 17 36.5 24t42.5 1zM194 318q-18 -46 -14.5 -71.5t20 -30t41 11.5t48.5 54q17 23 31.5 48t23.5 49q10 26 7 40t-14 17.5t-27.5 -1t-33.5 -14.5q-24 -16 -46.5 -43.5t-35.5 -59.5zM301 707q17 0 25.5 -11t8.5 -23.5t-8.5 -23.5
t-25.5 -11t-25 11t-8 23.5t8 23.5t25 11zM389 638q-17 0 -25 11t-8 23.5t8 23.5t25 11t25.5 -11t8.5 -23.5t-8.5 -23.5t-25.5 -11z" />
    <glyph glyph-name="aring" unicode="&#xe5;" horiz-adv-x="571" 
d="M476 586q32 -8 44.5 -34.5t7.5 -56.5q-7 -43 -14 -86.5t-10 -86.5t0.5 -86t18.5 -85q5 -14 2.5 -28.5t-10 -27.5t-19 -22t-25.5 -13q-30 -8 -55 7.5t-35 44.5q-3 8 -6 17t-5 18q-53 -62 -104.5 -81.5t-95 -8t-75.5 48.5t-47 87q-13 45 -7.5 94.5t25.5 95.5t53.5 86
t75 66.5t89.5 36t99 -4.5q10 -4 14 -6q14 17 36.5 24t42.5 1zM194 318q-18 -46 -14.5 -71.5t20 -30t41 11.5t48.5 54q17 23 31.5 48t23.5 49q10 26 7 40t-14 17.5t-27.5 -1t-33.5 -14.5q-24 -16 -46.5 -43.5t-35.5 -59.5zM252 698q0 31 14.5 52t35.5 31t45 9t43.5 -12.5
t30.5 -33.5t7 -55q-3 -17 -11.5 -31.5t-21.5 -25t-28.5 -16.5t-32.5 -5q-36 2 -59 27t-23 60zM346 733q-13 0 -21 -10.5t-9.5 -23t4 -24t20.5 -12.5q14 -2 21.5 8.5t8.5 24t-5 25t-19 12.5z" />
    <glyph glyph-name="ae" unicode="&#xe6;" horiz-adv-x="900" 
d="M479 586q25 -7 38 -25t15 -41q42 51 107 76q45 17 92 7t82 -38.5t51 -72t-1 -93.5q-13 -40 -39 -68.5t-59 -45.5t-71.5 -22.5t-76.5 0.5q3 -14 13.5 -32t24.5 -30.5t31 -15t34 14.5q20 19 47.5 20t48.5 -20q10 -10 15 -23t5.5 -26.5t-4.5 -26.5t-16 -22
q-18 -16 -39.5 -29t-44.5 -20.5t-47 -8.5t-49 7q-32 11 -59.5 32.5t-47.5 49.5q1 -25 -15.5 -46t-39.5 -27q-30 -8 -55 7.5t-35 44.5q-3 8 -6 17t-5 18q-53 -62 -104.5 -81.5t-95 -8t-75.5 48.5t-47 87q-13 45 -7.5 94.5t25.5 95.5t53.5 86t75 66.5t89.5 36t99 -4.5l14 -6
q14 17 36.5 24t42.5 1zM197 318q-18 -46 -14.5 -71.5t20 -30t41 11.5t48.5 54q17 23 31.5 48t23.5 49q10 26 7 40t-14 17.5t-27.5 -1t-33.5 -14.5q-24 -16 -46.5 -43.5t-35.5 -59.5zM750 464q-8 18 -21.5 24.5t-28.5 3.5t-30 -12.5t-25.5 -22.5t-15 -28t1.5 -27
q6 -11 19 -15.5t28.5 -3.5t31 8t27 17.5t16 24.5t-2.5 31z" />
    <glyph glyph-name="ccedilla" unicode="&#xe7;" horiz-adv-x="478" 
d="M293 55q20 -11 28.5 -32.5t-0.5 -42.5q-7 -15 -22 -24.5t-33 -15t-36.5 -7t-32.5 -1.5q-14 1 -20.5 10t-6.5 19t6.5 18.5t20.5 7.5h13t23 1t22.5 3.5t12.5 7.5q2 4 -6 6.5t-19 3.5q-13 0 -24.5 2.5t-21.5 19.5q-9 14 -8.5 29t5.5 29q-5 1 -9 2t-9 3q-57 19 -97 63
t-49 105q-11 70 10.5 140.5t72.5 122.5q26 28 59.5 45.5t69.5 21.5t73 -6.5t70 -38.5q21 -19 19.5 -49t-19.5 -50q-21 -20 -49 -19t-50 19q-14 11 -29.5 8.5t-31.5 -16.5q-13 -11 -24 -28.5t-18.5 -38.5t-11.5 -43t-2 -42q3 -37 22.5 -51t46 -13t55.5 13t51 28q11 9 25 10
t27 -3t24.5 -12.5t18.5 -19.5q15 -27 6 -52.5t-32 -42.5q-34 -26 -75.5 -42.5t-85.5 -18.5q-5 -11 -3.5 -14.5t7.5 -5t16 -2.5t21 -7z" />
    <glyph glyph-name="egrave" unicode="&#xe8;" horiz-adv-x="463" 
d="M283 200q20 19 47.5 20t48.5 -20q10 -10 15 -23t5.5 -26.5t-4.5 -26.5t-16 -22q-18 -16 -39.5 -29t-44.5 -20.5t-47 -8.5t-49 7q-41 14 -73.5 44t-52.5 68q-30 57 -38.5 122.5t6.5 126t55 110t106 74.5q45 17 92 7t82 -38.5t51 -72t-1 -93.5q-13 -40 -39 -68.5t-59 -45.5
t-71.5 -22.5t-77.5 0.5h1q3 -14 13.5 -32t24.5 -30.5t31 -15t34 14.5zM313 464q-8 18 -21.5 24.5t-28.5 3.5t-30 -12.5t-25.5 -22.5t-15 -28t1.5 -27q6 -11 19 -15.5t28.5 -3.5t31 8t27 17.5t16 24.5t-2.5 31zM191 721q-12 11 -10.5 24t10.5 22t23 11t26 -9q25 -22 51.5 -39
t55.5 -34q14 -8 16 -22t-5 -25t-19.5 -16.5t-27.5 3.5q-32 18 -62 39t-58 46z" />
    <glyph glyph-name="eacute" unicode="&#xe9;" horiz-adv-x="463" 
d="M283 200q20 19 47.5 20t48.5 -20q10 -10 15 -23t5.5 -26.5t-4.5 -26.5t-16 -22q-18 -16 -39.5 -29t-44.5 -20.5t-47 -8.5t-49 7q-41 14 -73.5 44t-52.5 68q-30 57 -38.5 122.5t6.5 126t55 110t106 74.5q45 17 92 7t82 -38.5t51 -72t-1 -93.5q-13 -40 -39 -68.5t-59 -45.5
t-71.5 -22.5t-77.5 0.5h1q3 -14 13.5 -32t24.5 -30.5t31 -15t34 14.5zM313 464q-8 18 -21.5 24.5t-28.5 3.5t-30 -12.5t-25.5 -22.5t-15 -28t1.5 -27q6 -11 19 -15.5t28.5 -3.5t31 8t27 17.5t16 24.5t-2.5 31zM207 632q-15 -8 -28 -3t-19.5 16.5t-5 25t16.5 21.5
q35 20 61.5 50t51.5 62q9 11 24.5 10t25.5 -10q11 -11 9.5 -25t-9.5 -25q-28 -35 -58 -67.5t-69 -54.5z" />
    <glyph glyph-name="ecircumflex" unicode="&#xea;" horiz-adv-x="463" 
d="M283 200q20 19 47.5 20t48.5 -20q10 -10 15 -23t5.5 -26.5t-4.5 -26.5t-16 -22q-18 -16 -39.5 -29t-44.5 -20.5t-47 -8.5t-49 7q-41 14 -73.5 44t-52.5 68q-30 57 -38.5 122.5t6.5 126t55 110t106 74.5q45 17 92 7t82 -38.5t51 -72t-1 -93.5q-13 -40 -39 -68.5t-59 -45.5
t-71.5 -22.5t-77.5 0.5h1q3 -14 13.5 -32t24.5 -30.5t31 -15t34 14.5zM313 464q-8 18 -21.5 24.5t-28.5 3.5t-30 -12.5t-25.5 -22.5t-15 -28t1.5 -27q6 -11 19 -15.5t28.5 -3.5t31 8t27 17.5t16 24.5t-2.5 31zM222 638q-10 -14 -24 -15.5t-25 5t-15.5 19t4.5 26.5
q11 16 21 33t21 31t24 29.5t30 20.5q21 5 36 -6t24 -28q19 -36 37 -71q7 -15 1 -28t-17.5 -20t-24 -4.5t-19.5 17.5q-5 11 -10.5 22t-10.5 22q-2 4 -4 7.5t-4 7.5q-4 -5 -7.5 -10.5t-6.5 -10.5q-8 -12 -15 -24t-15 -23z" />
    <glyph glyph-name="edieresis" unicode="&#xeb;" horiz-adv-x="463" 
d="M283 200q20 19 47.5 20t48.5 -20q10 -10 15 -23t5.5 -26.5t-4.5 -26.5t-16 -22q-18 -16 -39.5 -29t-44.5 -20.5t-47 -8.5t-49 7q-41 14 -73.5 44t-52.5 68q-30 57 -38.5 122.5t6.5 126t55 110t106 74.5q45 17 92 7t82 -38.5t51 -72t-1 -93.5q-13 -40 -39 -68.5t-59 -45.5
t-71.5 -22.5t-77.5 0.5h1q3 -14 13.5 -32t24.5 -30.5t31 -15t34 14.5zM313 464q-8 18 -21.5 24.5t-28.5 3.5t-30 -12.5t-25.5 -22.5t-15 -28t1.5 -27q6 -11 19 -15.5t28.5 -3.5t31 8t27 17.5t16 24.5t-2.5 31zM211 714q17 0 25.5 -11t8.5 -23.5t-8.5 -23.5t-25.5 -11t-25 11
t-8 23.5t8 23.5t25 11zM299 645q-17 0 -25 11t-8 23.5t8 23.5t25 11t25.5 -11t8.5 -23.5t-8.5 -23.5t-25.5 -11z" />
    <glyph glyph-name="igrave" unicode="&#xec;" horiz-adv-x="230" 
d="M100 61q-29 0 -48.5 20.5t-20.5 49.5q-1 38 2 86.5t7 99.5t7.5 99.5t3.5 86.5q0 29 20.5 49t49.5 20t49 -20t20 -49q0 -38 -3.5 -86.5t-7.5 -99.5t-7 -99.5t-2 -86.5q1 -29 -20 -49.5t-50 -20.5zM66 685q-12 11 -10.5 24t10.5 22t23 11t26 -9q25 -22 51.5 -39t55.5 -34
q14 -8 16 -22t-5 -25t-19.5 -16.5t-27.5 3.5q-32 18 -62 39t-58 46z" />
    <glyph glyph-name="iacute" unicode="&#xed;" horiz-adv-x="230" 
d="M100 61q-29 0 -48.5 20.5t-20.5 49.5q-1 38 2 86.5t7 99.5t7.5 99.5t3.5 86.5q0 29 20.5 49t49.5 20t49 -20t20 -49q0 -38 -3.5 -86.5t-7.5 -99.5t-7 -99.5t-2 -86.5q1 -29 -20 -49.5t-50 -20.5zM108 606q-15 -8 -28 -3t-19.5 16.5t-5 25t16.5 21.5q35 20 61.5 50
t51.5 62q9 11 24.5 10t25.5 -10q11 -11 9.5 -25t-9.5 -25q-28 -35 -58 -67.5t-69 -54.5z" />
    <glyph glyph-name="icircumflex" unicode="&#xee;" horiz-adv-x="230" 
d="M100 61q-29 0 -48.5 20.5t-20.5 49.5q-1 38 2 86.5t7 99.5t7.5 99.5t3.5 86.5q0 29 20.5 49t49.5 20t49 -20t20 -49q0 -38 -3.5 -86.5t-7.5 -99.5t-7 -99.5t-2 -86.5q1 -29 -20 -49.5t-50 -20.5zM101 614q-10 -14 -24 -15.5t-25 5t-15.5 19t4.5 26.5q11 16 21 33t21 31
t24 29.5t30 20.5q21 5 36 -6t24 -28q19 -36 37 -71q7 -15 1 -28t-17.5 -20t-24 -4.5t-19.5 17.5q-5 11 -10.5 22t-10.5 22q-2 4 -4 7.5t-4 7.5q-4 -5 -7.5 -10.5t-6.5 -10.5q-8 -12 -15 -24t-15 -23z" />
    <glyph glyph-name="idieresis" unicode="&#xef;" horiz-adv-x="230" 
d="M100 61q-29 0 -48.5 20.5t-20.5 49.5q-1 38 2 86.5t7 99.5t7.5 99.5t3.5 86.5q0 29 20.5 49t49.5 20t49 -20t20 -49q0 -38 -3.5 -86.5t-7.5 -99.5t-7 -99.5t-2 -86.5q1 -29 -20 -49.5t-50 -20.5zM70 709q17 0 25.5 -11t8.5 -23.5t-8.5 -23.5t-25.5 -11t-25 11t-8 23.5
t8 23.5t25 11zM158 640q-17 0 -25 11t-8 23.5t8 23.5t25 11t25.5 -11t8.5 -23.5t-8.5 -23.5t-25.5 -11z" />
    <glyph glyph-name="eth" unicode="&#xf0;" horiz-adv-x="514" 
d="M109 487q-13 20 -6 43.5t27 37.5q17 11 33.5 22t33.5 22q-20 23 -20.5 54t22.5 54q20 22 50.5 23.5t50.5 -23.5l23 -31l38 24q21 14 45.5 10t37.5 -24t6.5 -43.5t-27.5 -37.5q-11 -7 -21 -13t-20 -13q23 -45 42.5 -94t33.5 -98t22 -96t8 -88q0 -38 -9 -73.5t-26.5 -64.5
t-44 -50.5t-61.5 -31.5q-47 -14 -94.5 -7t-90 31.5t-76.5 63t-52 87.5q-18 46 -14 90.5t24 83t53 69.5t74 51q-17 -5 -34.5 1t-27.5 21zM341 209q1 17 -1 35.5t-5.5 36t-7 32.5t-5.5 26q-24 -2 -52 -8.5t-51 -19.5t-36.5 -34t-7.5 -51q7 -29 32.5 -50.5t54 -27.5t52.5 7
t27 54zM255 515q-16 -10 -31.5 -20t-31.5 -21l-1 -1q34 14 75 19z" />
    <glyph glyph-name="ntilde" unicode="&#xf1;" horiz-adv-x="754" 
d="M656 561q19 -57 27 -113.5t12 -113.5t8 -115t15 -117q5 -30 -9 -56.5t-43 -34.5t-56 7.5t-35 44.5q-12 45 -14.5 93t-6.5 95q-6 80 -14 143t-23 98t-38.5 35.5t-59.5 -45.5q-45 -57 -72.5 -120t-48.5 -133q-13 -48 -28.5 -95t-41.5 -89q-13 -21 -33 -29.5t-40 -5.5
t-37 16.5t-25 36.5q-18 52 -31 110t-19.5 119t-5.5 121.5t12 116.5q3 15 12.5 26t22.5 18t27.5 9t28.5 -2q31 -8 44 -34.5t7 -55.5q0 -31 -3 -61.5t-2 -64.5q15 25 30.5 59t33.5 70.5t39 73t46.5 66t56 50t68.5 26.5q37 5 67.5 -4t55 -29t43 -50t30.5 -66zM163 675
q-4 -17 -16.5 -22t-25 -1.5t-21 14.5t-3.5 28q6 21 21 41.5t34.5 31t40 7t37.5 -29.5q8 -13 16 -24t15 -14t12.5 3.5t10.5 29.5q4 16 16 21.5t25 2t21.5 -15t4.5 -27.5q-4 -17 -13.5 -35t-24 -31.5t-32.5 -19.5t-39 0t-36 20.5t-24 33.5q-8 14 -11 8t-8 -21z" />
    <glyph glyph-name="ograve" unicode="&#xf2;" horiz-adv-x="499" 
d="M43 362q21 54 60.5 89.5t86.5 51t96 11t89 -30.5t65.5 -73t26.5 -117q1 -58 -30.5 -110t-84.5 -82q-30 -17 -64.5 -24.5t-69 -4.5t-67 16t-59.5 37q-24 21 -39 50t-21 60.5t-3.5 64t14.5 62.5zM294 227q14 11 24.5 29t14 37.5t-1.5 38.5t-21 32q-21 19 -54 20.5
t-59 -20.5q-14 -11 -24 -28t-13 -35.5t2 -37.5t19 -34q10 -12 24.5 -17.5t30 -5t31 6t27.5 14.5zM192 644q-12 11 -10.5 24t10.5 22t23 11t26 -9q25 -22 51.5 -39t55.5 -34q14 -8 16 -22t-5 -25t-19.5 -16.5t-27.5 3.5q-32 18 -62 39t-58 46z" />
    <glyph glyph-name="oacute" unicode="&#xf3;" horiz-adv-x="499" 
d="M43 362q21 54 60.5 89.5t86.5 51t96 11t89 -30.5t65.5 -73t26.5 -117q1 -58 -30.5 -110t-84.5 -82q-30 -17 -64.5 -24.5t-69 -4.5t-67 16t-59.5 37q-24 21 -39 50t-21 60.5t-3.5 64t14.5 62.5zM294 227q14 11 24.5 29t14 37.5t-1.5 38.5t-21 32q-21 19 -54 20.5
t-59 -20.5q-14 -11 -24 -28t-13 -35.5t2 -37.5t19 -34q10 -12 24.5 -17.5t30 -5t31 6t27.5 14.5zM221 544q-15 -8 -28 -3t-19.5 16.5t-5 25t16.5 21.5q35 20 61.5 50t51.5 62q9 11 24.5 10t25.5 -10q11 -11 9.5 -25t-9.5 -25q-28 -35 -58 -67.5t-69 -54.5z" />
    <glyph glyph-name="ocircumflex" unicode="&#xf4;" horiz-adv-x="499" 
d="M43 362q21 54 60.5 89.5t86.5 51t96 11t89 -30.5t65.5 -73t26.5 -117q1 -58 -30.5 -110t-84.5 -82q-30 -17 -64.5 -24.5t-69 -4.5t-67 16t-59.5 37q-24 21 -39 50t-21 60.5t-3.5 64t14.5 62.5zM294 227q14 11 24.5 29t14 37.5t-1.5 38.5t-21 32q-21 19 -54 20.5
t-59 -20.5q-14 -11 -24 -28t-13 -35.5t2 -37.5t19 -34q10 -12 24.5 -17.5t30 -5t31 6t27.5 14.5zM229 566q-10 -14 -24 -15.5t-25 5t-15.5 19t4.5 26.5q11 16 21 33t21 31t24 29.5t30 20.5q21 5 36 -6t24 -28q19 -36 37 -71q7 -15 1 -28t-17.5 -20t-24 -4.5t-19.5 17.5
q-5 11 -10.5 22t-10.5 22q-2 4 -4 7.5t-4 7.5q-4 -5 -7.5 -10.5t-6.5 -10.5q-8 -12 -15 -24t-15 -23z" />
    <glyph glyph-name="otilde" unicode="&#xf5;" horiz-adv-x="499" 
d="M43 362q21 54 60.5 89.5t86.5 51t96 11t89 -30.5t65.5 -73t26.5 -117q1 -58 -30.5 -110t-84.5 -82q-30 -17 -64.5 -24.5t-69 -4.5t-67 16t-59.5 37q-24 21 -39 50t-21 60.5t-3.5 64t14.5 62.5zM294 227q14 11 24.5 29t14 37.5t-1.5 38.5t-21 32q-21 19 -54 20.5
t-59 -20.5q-14 -11 -24 -28t-13 -35.5t2 -37.5t19 -34q10 -12 24.5 -17.5t30 -5t31 6t27.5 14.5zM202 604q-4 -17 -16.5 -22t-25 -1.5t-21 14.5t-3.5 28q6 21 21 41.5t34.5 31t40 7t37.5 -29.5q8 -13 16 -24t15 -14t12.5 3.5t10.5 29.5q4 16 16 21.5t25 2t21.5 -15
t4.5 -27.5q-4 -17 -13.5 -35t-24 -31.5t-32.5 -19.5t-39 0t-36 20.5t-24 33.5q-8 14 -11 8t-8 -21z" />
    <glyph glyph-name="odieresis" unicode="&#xf6;" horiz-adv-x="499" 
d="M43 362q21 54 60.5 89.5t86.5 51t96 11t89 -30.5t65.5 -73t26.5 -117q1 -58 -30.5 -110t-84.5 -82q-30 -17 -64.5 -24.5t-69 -4.5t-67 16t-59.5 37q-24 21 -39 50t-21 60.5t-3.5 64t14.5 62.5zM294 227q14 11 24.5 29t14 37.5t-1.5 38.5t-21 32q-21 19 -54 20.5
t-59 -20.5q-14 -11 -24 -28t-13 -35.5t2 -37.5t19 -34q10 -12 24.5 -17.5t30 -5t31 6t27.5 14.5zM207 630q17 0 25.5 -11t8.5 -23.5t-8.5 -23.5t-25.5 -11t-25 11t-8 23.5t8 23.5t25 11zM295 561q-17 0 -25 11t-8 23.5t8 23.5t25 11t25.5 -11t8.5 -23.5t-8.5 -23.5
t-25.5 -11z" />
    <glyph glyph-name="divide" unicode="&#xf7;" horiz-adv-x="468" 
d="M31 271q0 24 18.5 40t43.5 16q69 2 136 -1t136 -4q26 0 44 -17t18 -40t-18 -39.5t-44 -16.5q-69 1 -136 4t-136 1q-25 -1 -43.5 16.5t-18.5 40.5zM162 120q0 25 17.5 41t46.5 16q28 0 45 -17t17 -41t-17 -40.5t-44 -16.5q-29 -1 -47 16.5t-18 41.5zM165 414q0 25 17.5 41
t46.5 16q28 0 45 -17t17 -41t-17 -40.5t-44 -16.5q-29 -1 -47 16.5t-18 41.5z" />
    <glyph glyph-name="oslash" unicode="&#xf8;" horiz-adv-x="499" 
d="M317 541q10 23 25.5 29.5t28.5 1t19 -22t-4 -38.5l-12 -28q41 -26 66.5 -73t26.5 -117q1 -58 -30.5 -110t-84.5 -82q-38 -22 -82.5 -28t-86.5 4l-19 -43q-10 -23 -26 -29t-29 -0.5t-19 21.5t4 39l19 43q-5 4 -10.5 8t-10.5 9q-24 21 -39 50t-21 60.5t-3.5 64t14.5 62.5
q17 43 45.5 74.5t64 50t74.5 25t76 -0.5l7.5 15t6.5 15zM294 227q13 10 23.5 26.5t14 35.5t0 37.5t-16.5 32.5l-71 -152q29 3 50 20zM197 364q-14 -11 -23 -26t-13 -32.5t-1 -35.5t14 -33l70 147q-26 -2 -47 -20z" />
    <glyph glyph-name="ugrave" unicode="&#xf9;" 
d="M505 235q-3 -46 0 -88t21 -86q14 -28 7.5 -56.5t-33.5 -44.5q-12 -7 -27 -9t-29.5 1.5t-26.5 11.5t-18 22q-21 43 -31 87.5t-12 91.5q-26 -31 -56.5 -56t-68.5 -39q-29 -11 -61.5 -8.5t-58.5 19.5q-37 23 -55 56.5t-24 75.5q-4 34 0 69t13 69.5t22 68t27 63.5
q6 14 18.5 22.5t26.5 12t29 1.5t27 -9q28 -17 33.5 -45t-7.5 -56q-2 -6 -3 -8q-32 -65 -40 -111t4.5 -62t43.5 5t77 90q21 32 40 74t36 77q13 25 35.5 32.5t45 0.5t39.5 -26t18 -45q1 -51 -4 -100.5t-8 -100.5zM227 622q-12 11 -10.5 24t10.5 22t23 11t26 -9
q25 -22 51.5 -39t55.5 -34q14 -8 16 -22t-5 -25t-19.5 -16.5t-27.5 3.5q-32 18 -62 39t-58 46z" />
    <glyph glyph-name="uacute" unicode="&#xfa;" 
d="M505 235q-3 -46 0 -88t21 -86q14 -28 7.5 -56.5t-33.5 -44.5q-12 -7 -27 -9t-29.5 1.5t-26.5 11.5t-18 22q-21 43 -31 87.5t-12 91.5q-26 -31 -56.5 -56t-68.5 -39q-29 -11 -61.5 -8.5t-58.5 19.5q-37 23 -55 56.5t-24 75.5q-4 34 0 69t13 69.5t22 68t27 63.5
q6 14 18.5 22.5t26.5 12t29 1.5t27 -9q28 -17 33.5 -45t-7.5 -56q-2 -6 -3 -8q-32 -65 -40 -111t4.5 -62t43.5 5t77 90q21 32 40 74t36 77q13 25 35.5 32.5t45 0.5t39.5 -26t18 -45q1 -51 -4 -100.5t-8 -100.5zM301 527q-15 -8 -28 -3t-19.5 16.5t-5 25t16.5 21.5
q35 20 61.5 50t51.5 62q9 11 24.5 10t25.5 -10q11 -11 9.5 -25t-9.5 -25q-28 -35 -58 -67.5t-69 -54.5z" />
    <glyph glyph-name="ucircumflex" unicode="&#xfb;" 
d="M505 235q-3 -46 0 -88t21 -86q14 -28 7.5 -56.5t-33.5 -44.5q-12 -7 -27 -9t-29.5 1.5t-26.5 11.5t-18 22q-21 43 -31 87.5t-12 91.5q-26 -31 -56.5 -56t-68.5 -39q-29 -11 -61.5 -8.5t-58.5 19.5q-37 23 -55 56.5t-24 75.5q-4 34 0 69t13 69.5t22 68t27 63.5
q6 14 18.5 22.5t26.5 12t29 1.5t27 -9q28 -17 33.5 -45t-7.5 -56q-2 -6 -3 -8q-32 -65 -40 -111t4.5 -62t43.5 5t77 90q21 32 40 74t36 77q13 25 35.5 32.5t45 0.5t39.5 -26t18 -45q1 -51 -4 -100.5t-8 -100.5zM248 593q-10 -14 -24 -15.5t-25 5t-15.5 19t4.5 26.5
q11 16 21 33t21 31t24 29.5t30 20.5q21 5 36 -6t24 -28q19 -36 37 -71q7 -15 1 -28t-17.5 -20t-24 -4.5t-19.5 17.5q-5 11 -10.5 22t-10.5 22q-2 4 -4 7.5t-4 7.5q-4 -5 -7.5 -10.5t-6.5 -10.5q-8 -12 -15 -24t-15 -23z" />
    <glyph glyph-name="udieresis" unicode="&#xfc;" 
d="M505 235q-3 -46 0 -88t21 -86q14 -28 7.5 -56.5t-33.5 -44.5q-12 -7 -27 -9t-29.5 1.5t-26.5 11.5t-18 22q-21 43 -31 87.5t-12 91.5q-26 -31 -56.5 -56t-68.5 -39q-29 -11 -61.5 -8.5t-58.5 19.5q-37 23 -55 56.5t-24 75.5q-4 34 0 69t13 69.5t22 68t27 63.5
q6 14 18.5 22.5t26.5 12t29 1.5t27 -9q28 -17 33.5 -45t-7.5 -56q-2 -6 -3 -8q-32 -65 -40 -111t4.5 -62t43.5 5t77 90q21 32 40 74t36 77q13 25 35.5 32.5t45 0.5t39.5 -26t18 -45q1 -51 -4 -100.5t-8 -100.5zM272 630q17 0 25.5 -11t8.5 -23.5t-8.5 -23.5t-25.5 -11
t-25 11t-8 23.5t8 23.5t25 11zM360 561q-17 0 -25 11t-8 23.5t8 23.5t25 11t25.5 -11t8.5 -23.5t-8.5 -23.5t-25.5 -11z" />
    <glyph glyph-name="yacute" unicode="&#xfd;" horiz-adv-x="525" 
d="M458 638q29 -8 42 -32.5t7 -53.5q-39 -177 -65 -352t-40 -355q-2 -28 -21 -48.5t-49 -20.5q-13 0 -26 5.5t-23 15t-15.5 22t-4.5 26.5q7 85 16 167.5t21 164.5q-21 -17 -44 -29.5t-47.5 -17t-49.5 0t-50 21.5q-27 19 -42.5 46t-23.5 57.5t-9 63t1 63.5q4 54 13 107
t23 107q8 28 33 42.5t53 6.5q27 -8 41 -33.5t7 -52.5q-7 -26 -12.5 -51.5t-10.5 -51.5q-12 -71 -4.5 -113t28 -47.5t51 29t64.5 117.5q14 32 26 71.5t26 76.5q10 26 33 41t52 7zM285 672q-15 -8 -28 -3t-19.5 16.5t-5 25t16.5 21.5q35 20 61.5 50t51.5 62q9 11 24.5 10
t25.5 -10q11 -11 9.5 -25t-9.5 -25q-28 -35 -58 -67.5t-69 -54.5z" />
    <glyph glyph-name="ydieresis" unicode="&#xff;" horiz-adv-x="525" 
d="M458 638q29 -8 42 -32.5t7 -53.5q-39 -177 -65 -352t-40 -355q-2 -28 -21 -48.5t-49 -20.5q-13 0 -26 5.5t-23 15t-15.5 22t-4.5 26.5q7 85 16 167.5t21 164.5q-21 -17 -44 -29.5t-47.5 -17t-49.5 0t-50 21.5q-27 19 -42.5 46t-23.5 57.5t-9 63t1 63.5q4 54 13 107
t23 107q8 28 33 42.5t53 6.5q27 -8 41 -33.5t7 -52.5q-7 -26 -12.5 -51.5t-10.5 -51.5q-12 -71 -4.5 -113t28 -47.5t51 29t64.5 117.5q14 32 26 71.5t26 76.5q10 26 33 41t52 7zM257 746q17 0 25.5 -11t8.5 -23.5t-8.5 -23.5t-25.5 -11t-25 11t-8 23.5t8 23.5t25 11z
M345 677q-17 0 -25 11t-8 23.5t8 23.5t25 11t25.5 -11t8.5 -23.5t-8.5 -23.5t-25.5 -11z" />
    <glyph glyph-name="dotlessi" unicode="&#x131;" horiz-adv-x="230" 
d="M100 61q-29 0 -48.5 20.5t-20.5 49.5q-1 38 2 86.5t7 99.5t7.5 99.5t3.5 86.5q0 29 20.5 49t49.5 20t49 -20t20 -49q0 -38 -3.5 -86.5t-7.5 -99.5t-7 -99.5t-2 -86.5q1 -29 -20 -49.5t-50 -20.5z" />
    <glyph glyph-name="OE" unicode="&#x152;" horiz-adv-x="902" 
d="M34 352q-3 45 0.5 100t15.5 110.5t34.5 106t59.5 85.5q34 33 75.5 49.5t85 14.5t86.5 -21.5t80 -58.5q39 68 119 77q25 3 50.5 -0.5t50.5 -10.5t49 -16l48 -18q29 -11 45 -38.5t7 -61.5q-4 -15 -13 -28t-22 -21t-27.5 -10.5t-29.5 3.5q-20 7 -41 14.5t-42 14.5
q-12 3 -25 6.5t-24 2.5t-18 -8.5t-7 -25.5v-58.5t-3 -61.5q28 5 55 7t56 3q24 0 40 -12t24 -30t8 -39t-8 -39.5t-24 -31t-40 -12.5q-33 0 -58.5 -2t-53.5 -10q3 -53 8.5 -82t19 -38t38 2t65.5 39q11 8 21 14t21 12q28 14 57 7.5t46 -36.5q7 -14 9 -30t-2 -32t-12.5 -29.5
t-22.5 -20.5q-31 -17 -62 -44t-64 -49.5t-68 -33.5t-74 5q-31 13 -53 36.5t-36 54.5q-18 -22 -39 -40t-46 -29q-31 -14 -65 -20.5t-68 -2.5t-66 19.5t-58 44.5q-51 55 -73.5 127.5t-28.5 145.5zM201 355q5 -90 30.5 -136t57.5 -47t64.5 43t52.5 135q6 27 7.5 72.5t-6 93
t-25 87t-48.5 54.5q-18 9 -36 4t-34.5 -22.5t-30 -46.5t-21.5 -69q-8 -41 -11.5 -83t0.5 -85z" />
    <glyph glyph-name="oe" unicode="&#x153;" horiz-adv-x="796" 
d="M48 362q22 57 64.5 93t92.5 50.5t101 6t90 -40.5q20 42 54.5 74t84.5 51q45 17 92 7t82 -38.5t51 -72t-1 -93.5q-13 -40 -39 -68.5t-59 -45.5t-71.5 -22.5t-76.5 0.5q3 -14 13.5 -32t24.5 -30.5t31 -15t34 14.5q20 19 47.5 20t48.5 -20q10 -10 15 -23t5.5 -26.5
t-4.5 -26.5t-16 -22q-18 -16 -39.5 -29t-44.5 -20.5t-47 -8.5t-49 7q-37 13 -67 38t-50 58q-13 -14 -27 -25.5t-31 -20.5q-30 -17 -64.5 -24.5t-69 -4.5t-67 16t-59.5 37q-24 21 -39 50t-21 60.5t-3.5 64t14.5 62.5zM299 227q14 11 24.5 29t14 37.5t-1.5 38.5t-21 32
q-21 19 -54 20.5t-59 -20.5q-14 -11 -24 -28t-13 -35.5t2 -37.5t19 -34q10 -12 24.5 -17.5t30 -5t31 6t27.5 14.5zM646 464q-8 18 -21.5 24.5t-28.5 3.5t-30 -12.5t-25.5 -22.5t-15 -28t1.5 -27q6 -11 19 -15.5t28.5 -3.5t31 8t27 17.5t16 24.5t-2.5 31z" />
    <glyph glyph-name="Ydieresis" unicode="&#x178;" horiz-adv-x="621" 
d="M568 750q28 -17 33.5 -45t-6.5 -56q-37 -80 -74 -158t-67 -159q-31 -81 -52.5 -163.5t-23.5 -165.5q-1 -30 -21.5 -52t-51.5 -22q-30 0 -52.5 21.5t-21.5 52.5q2 57 11 113t23 111q-24 -7 -49 -7.5t-51 7.5q-41 13 -67 40t-41.5 61.5t-21.5 73.5t-6 77q0 67 10 134
t27 132q4 15 13.5 26t22 18t27 9.5t28.5 -1.5q29 -8 44.5 -35t7.5 -56q-6 -21 -13.5 -64t-12 -90t-3.5 -90t13.5 -65.5t39 -16t71.5 58.5q25 29 45.5 61t39.5 67t38 74t40 83q7 13 19 21.5t26 12t29 1.5t27 -9zM299 871q17 0 25.5 -11t8.5 -23.5t-8.5 -23.5t-25.5 -11
t-25 11t-8 23.5t8 23.5t25 11zM387 802q-17 0 -25 11t-8 23.5t8 23.5t25 11t25.5 -11t8.5 -23.5t-8.5 -23.5t-25.5 -11z" />
    <glyph glyph-name="circumflex" unicode="&#x2c6;" horiz-adv-x="247" 
d="M87 593q-10 -14 -24 -15.5t-25 5t-15.5 19t4.5 26.5q11 16 21 33t21 31t24 29.5t30 20.5q21 5 36 -6t24 -28q19 -36 37 -71q7 -15 1 -28t-17.5 -20t-24 -4.5t-19.5 17.5q-5 11 -10.5 22t-10.5 22q-2 4 -4 7.5t-4 7.5q-4 -5 -7.5 -10.5t-6.5 -10.5q-8 -12 -15 -24t-15 -23
z" />
    <glyph glyph-name="ring" unicode="&#x2da;" horiz-adv-x="237" 
d="M29 659q0 31 14.5 52t35.5 31t45 9t43.5 -12.5t30.5 -33.5t7 -55q-3 -17 -11.5 -31.5t-21.5 -25t-28.5 -16.5t-32.5 -5q-36 2 -59 27t-23 60zM123 694q-13 0 -21 -10.5t-9.5 -23t4 -24t20.5 -12.5q14 -2 21.5 8.5t8.5 24t-5 25t-19 12.5z" />
    <glyph glyph-name="tilde" unicode="&#x2dc;" horiz-adv-x="308" 
d="M95 632q-4 -17 -16.5 -22t-25 -1.5t-21 14.5t-3.5 28q6 21 21 41.5t34.5 31t40 7t37.5 -29.5q8 -13 16 -24t15 -14t12.5 3.5t10.5 29.5q4 16 16 21.5t25 2t21.5 -15t4.5 -27.5q-4 -17 -13.5 -35t-24 -31.5t-32.5 -19.5t-39 0t-36 20.5t-24 33.5q-8 14 -11 8t-8 -21z" />
    <glyph glyph-name="quoteleft" unicode="&#x2018;" horiz-adv-x="209" 
d="M45 704q0 23 16.5 35t37 13.5t39.5 -8.5t24 -32q6 -21 5 -50.5t-7 -57.5t-16 -51t-23 -32q-12 -8 -25 -8t-24 7t-18.5 19t-8.5 28q-2 37 -1.5 68t1.5 69z" />
    <glyph glyph-name="quoteright" unicode="&#x2019;" horiz-adv-x="209" 
d="M45 704q0 23 16.5 35t37 13.5t39.5 -8.5t24 -32q6 -21 5 -50.5t-7 -57.5t-16 -51t-23 -32q-12 -8 -25 -8t-24 7t-18.5 19t-8.5 28q-2 37 -1.5 68t1.5 69z" />
    <glyph glyph-name="quotesinglbase" unicode="&#x201a;" horiz-adv-x="191" 
d="M132 174q16 -10 20 -39t-0.5 -61t-16 -60.5t-27.5 -38.5q-12 -7 -25 -7t-24.5 6t-19 17t-8.5 26q-2 33 -1.5 61t1.5 63q0 16 11 26.5t26.5 14.5t33 2t30.5 -10z" />
    <glyph glyph-name="quotedblleft" unicode="&#x201c;" horiz-adv-x="363" 
d="M45 704q0 23 16.5 35t37 13.5t39.5 -8.5t24 -32q6 -21 5 -50.5t-7 -57.5t-16 -51t-23 -32q-12 -8 -25 -8t-24 7t-18.5 19t-8.5 28q-2 37 -1.5 68t1.5 69zM202 704q0 23 16.5 35t37 13.5t39.5 -8.5t24 -32q6 -21 5 -50.5t-7 -57.5t-16 -51t-23 -32q-12 -8 -25 -8t-24 7
t-18.5 19t-8.5 28q-2 37 -1.5 68t1.5 69z" />
    <glyph glyph-name="quotedblright" unicode="&#x201d;" horiz-adv-x="363" 
d="M45 704q0 23 16.5 35t37 13.5t39.5 -8.5t24 -32q6 -21 5 -50.5t-7 -57.5t-16 -51t-23 -32q-12 -8 -25 -8t-24 7t-18.5 19t-8.5 28q-2 37 -1.5 68t1.5 69zM202 704q0 23 16.5 35t37 13.5t39.5 -8.5t24 -32q6 -21 5 -50.5t-7 -57.5t-16 -51t-23 -32q-12 -8 -25 -8t-24 7
t-18.5 19t-8.5 28q-2 37 -1.5 68t1.5 69z" />
    <glyph glyph-name="quotedblbase" unicode="&#x201e;" horiz-adv-x="332" 
d="M132 174q16 -10 20 -39t-0.5 -61t-16 -60.5t-27.5 -38.5q-12 -7 -25 -7t-24.5 6t-19 17t-8.5 26q-2 33 -1.5 61t1.5 63q0 16 11 26.5t26.5 14.5t33 2t30.5 -10zM285 174q16 -10 20 -39t-0.5 -61t-16 -60.5t-27.5 -38.5q-12 -7 -25 -7t-24.5 6t-19 17t-8.5 26
q-2 33 -1.5 61t1.5 63q0 16 11 26.5t26.5 14.5t33 2t30.5 -10z" />
    <glyph glyph-name="ellipsis" unicode="&#x2026;" horiz-adv-x="579" 
d="M31 89q0 25 17.5 41t46.5 16q28 0 45 -17t17 -41t-17 -40.5t-44 -16.5q-29 -1 -47 16.5t-18 41.5zM224 89q0 25 17.5 41t46.5 16q28 0 45 -17t17 -41t-17 -40.5t-44 -16.5q-29 -1 -47 16.5t-18 41.5zM417 89q0 25 17.5 41t46.5 16q28 0 45 -17t17 -41t-17 -40.5
t-44 -16.5q-29 -1 -47 16.5t-18 41.5z" />
    <glyph glyph-name="perthousand" unicode="&#x2030;" horiz-adv-x="779" 
d="M340 664q14 33 42.5 40t53.5 -4t39 -36.5t-1 -58.5q-29 -65 -62.5 -138.5t-68.5 -148.5t-69 -148.5t-62 -138.5q-15 -32 -43 -39t-53.5 4t-39.5 36.5t1 58.5q28 65 62 138t69.5 148t69 148.5t62.5 138.5zM26 581q0 38 26.5 62t69.5 24q42 0 67 -25.5t25 -61.5t-25 -61
t-66 -25q-44 -1 -70.5 25t-26.5 62zM326 131q0 38 26.5 62t69.5 24q42 0 67 -25.5t25 -61.5t-25 -61t-66 -25q-44 -1 -70.5 25t-26.5 62zM545 131q0 38 26.5 62t69.5 24q42 0 67 -25.5t25 -61.5t-25 -61t-66 -25q-44 -1 -70.5 25t-26.5 62z" />
    <glyph glyph-name="Euro" unicode="&#x20ac;" horiz-adv-x="686" 
d="M28 415q0 23 18.5 38.5t43.5 15.5h5q16 51 44.5 95.5t70.5 80.5q39 34 84.5 55.5t94 28.5t97.5 -1.5t96 -35.5q22 -12 30.5 -29.5t7 -36t-11.5 -35.5t-25.5 -27.5t-36 -12t-41.5 10.5q-48 23 -96 19t-93 -44q-31 -28 -52 -71q25 -1 49 -1.5t49 -0.5q26 0 44 -16t18 -39
t-18 -38.5t-44 -15.5q-33 0 -65.5 1t-65.5 2q-2 -10 -2 -19.5t-1 -19.5q34 -1 67 -2t67 -1q26 0 44 -16t18 -39t-18 -38.5t-44 -15.5q-29 0 -57.5 1t-57.5 2q18 -40 54 -65t94 -25q38 0 70 16.5t61 39.5q11 10 25 15.5t28.5 6t28.5 -5t26 -16.5q11 -10 17 -24t6 -28.5
t-5.5 -28.5t-17.5 -24q-38 -34 -82.5 -58t-92.5 -35t-98 -6t-98 30q-66 33 -108.5 88.5t-62.5 121.5h-2q-25 -1 -43.5 15.5t-18.5 39.5q0 20 13 33.5t33 18.5v21t1 21q-20 5 -33.5 19.5t-13.5 34.5z" />
    <glyph glyph-name="trademark" unicode="&#x2122;" horiz-adv-x="535" 
d="M177 733q16 3 27 -5.5t14 -20.5t-2 -23.5t-21 -14.5q-8 -2 -16 -3l-16 -2q0 -21 -2.5 -42.5t-1.5 -43.5q1 -17 -9 -25t-22.5 -8t-23.5 8t-12 25q-1 20 1 41.5t3 43.5q-7 -1 -13 -1.5t-13 -1.5q-14 -2 -24 9.5t-10 24.5q0 15 10 23.5t24 9.5q26 4 53.5 2.5t53.5 3.5z
M476 587q2 -14 -3.5 -26t-19.5 -16q-13 -4 -26.5 2.5t-14.5 20.5q-3 14 -3.5 28t-1.5 28q-11 -10 -23.5 -15.5t-28.5 -6.5q-16 0 -28 5.5t-22 13.5q-1 -12 -1.5 -23.5t-0.5 -23.5q0 -17 -10.5 -25t-23 -8t-23 8t-10.5 25q0 36 3 72.5t12 73.5q3 11 11 17t17.5 7t18.5 -3
t15 -14q16 -24 24.5 -38t16.5 -15.5t19.5 11.5t33.5 42q6 8 15.5 12.5t19.5 4t17.5 -6t9.5 -17.5q5 -33 3.5 -66.5t3.5 -66.5z" />
    </font>
</defs>
</svg>
