<?xml version="1.0" standalone="no"?>
<!DOCTYPE svg PUBLIC "-//W3C//DTD SVG 1.1//EN" "http://www.w3.org/Graphics/SVG/1.1/DTD/svg11.dtd" >
<svg xmlns="http://www.w3.org/2000/svg" xmlns:xlink="http://www.w3.org/1999/xlink" version="1.1">
<metadata>
Created by FontForge 20201107 at Wed Nov 10 18:28:37 2021
 By www-data
(c) 2014 - 2021 Adobe Systems Incorporated (http://www.adobe.com/), with Reserved Font Name `Source'.
</metadata>
<defs>
<font id="SourceSerif4Roman-Regular" horiz-adv-x="0" >
  <font-face 
    font-family="Source Serif 4"
    font-weight="400"
    font-stretch="normal"
    units-per-em="1000"
    panose-1="2 4 6 3 5 4 5 2 2 4"
    ascent="800"
    descent="-200"
    x-height="475"
    cap-height="670"
    bbox="-240 -321 2236 1003"
    underline-thickness="50"
    underline-position="-75"
    unicode-range="U+0021-1F16B"
  />
<missing-glyph horiz-adv-x="640" 
d="M80 0l418 670h62l-418 -670h-62zM560 0h-62l-418 670h62zM141 51h358v568h-358v-568zM80 0v670h480v-670h-480z" />
    <glyph glyph-name="uniFB00" unicode="ff" horiz-adv-x="658" 
d="M36 0v36l112 20h24l121 -20v-36h-257zM114 0q1 35 1.5 70l1 70t0.5 70v212h-83v44l114 15l-31 -16l1 6q5 55 12.5 95.5t23 71.5t40.5 56q32 32 66.5 44t68.5 12q36 0 62.5 -12.5t34.5 -41.5q-1 -19 -17.5 -32.5t-43.5 -13.5q-19 0 -36.5 8.5t-35.5 23.5l-47 36v9h72v-6
q-22 -4 -37.5 -10t-29.5 -20q-19 -19 -31.5 -53.5t-17 -84.5t-0.5 -118v-225q0 -35 0.5 -70l1 -70t1.5 -70h-91zM159 422v53h297v-53h-297zM340 0v36l112 20h24l122 -20v-36h-258zM418 0q1 35 1.5 70l1 70t0.5 70v212h-83v44l114 15l-31 -16l1 6q5 55 13 96t24 73t45 59
q30 29 63 40t67 11q35 0 62 -12.5t34 -41.5q-1 -19 -17 -32.5t-44 -13.5q-19 0 -36 8t-36 23l-47 37v9h72v-6q-28 -4 -46.5 -15t-35.5 -37q-10 -16 -18 -36t-12.5 -47t-5.5 -64t2 -87v-225q0 -35 0.5 -70l1 -70t1.5 -70h-91zM463 422v53h179v-53h-179z" />
    <glyph glyph-name="uniFB01" unicode="fi" horiz-adv-x="607" 
d="M36 0v36l112 20h23l112 -20v-36h-247zM114 0q1 35 1.5 70l1 70t0.5 70v212h-83v44l114 15l-31 -16q5 62 14 102.5t25.5 69.5t42.5 55q19 19 45 32t56 19.5t60 6.5q66 0 110.5 -27.5t45.5 -73.5q-4 -16 -17 -27.5t-33 -11.5q-19 0 -34.5 11t-29.5 30l-50 71v8h24v-17
q-41 0 -74.5 -14t-56.5 -37q-19 -19 -30 -49.5t-14 -74t1 -103.5v-225q0 -35 0.5 -70l1 -70t1.5 -70h-91zM344 0v36l109 20h23l100 -20v-36h-232zM417 0q1 23 1.5 60.5t1 78t0.5 71.5v51q0 35 -0.5 61.5t-1 50.5t-1.5 49h-258v53h258l76 13l15 -10l-3 -136v-132
q0 -31 0.5 -71.5t1 -78t1.5 -60.5h-91z" />
    <glyph glyph-name="uniFB02" unicode="fl" horiz-adv-x="612" 
d="M36 0v36l112 20h24l121 -20v-36h-257zM114 0q1 35 1.5 70l1 70t0.5 70v212h-83v44l114 15l-31 -16q5 57 13 97t23 70t42 57q23 23 49.5 36.5t54.5 19t55 5.5q44 0 81.5 -14t45.5 -43q-1 -18 -16 -31t-38 -13q-25 0 -54 13.5t-58 36.5l-28 24v7h60v-10
q-35 -10 -57.5 -22.5t-42.5 -33.5q-21 -21 -32 -53t-14 -75.5t1 -100.5v-225q0 -35 0.5 -70l1 -70t1.5 -70h-91zM159 422v53h179v-53h-179zM340 0v36l111 20h24l112 -20v-36h-247zM418 0q1 35 1.5 70l1 70t0.5 70v500l74 30l14 -8l-4 -143v-379q0 -35 0.5 -70l1 -70t1.5 -70
h-90z" />
    <glyph glyph-name="uniFB03" unicode="ffi" horiz-adv-x="911" 
d="M36 0v36l112 20h24l121 -20v-36h-257zM114 0q1 35 1.5 70l1 70t0.5 70v212h-83v44l114 15l-31 -16l1 6q5 55 12.5 95.5t23 71.5t40.5 56q32 32 66.5 44t68.5 12q36 0 62.5 -12.5t34.5 -41.5q-1 -19 -17.5 -32.5t-43.5 -13.5q-19 0 -36.5 8.5t-35.5 23.5l-47 36v9h72v-6
q-22 -4 -37.5 -10t-29.5 -20q-19 -19 -31.5 -53.5t-17 -84.5t-0.5 -118v-225q0 -35 0.5 -70l1 -70t1.5 -70h-91zM159 422v53h297v-53h-297zM340 0v36l112 20h23l112 -20v-36h-247zM418 0q1 35 1.5 70l1 70t0.5 70v212h-83v44l114 15l-31 -16q5 62 14 102.5t25.5 69.5
t42.5 55q19 19 45 32t56 19.5t60 6.5q66 0 110.5 -27.5t45.5 -73.5q-4 -16 -17 -27.5t-33 -11.5q-19 0 -34.5 11t-29.5 30l-50 71v8h24v-17q-41 0 -74.5 -14t-56.5 -37q-19 -19 -30 -49.5t-14 -74t1 -103.5v-225q0 -35 0.5 -70l1 -70t1.5 -70h-91zM648 0v36l109 20h23
l100 -20v-36h-232zM721 0q1 23 1.5 60.5t1 78t0.5 71.5v51q0 35 -0.5 61.5t-1 50.5t-1.5 49h-258v53h258l76 13l15 -10l-3 -136v-132q0 -31 0.5 -71.5t1 -78t1.5 -60.5h-91z" />
    <glyph glyph-name="uniFB04" unicode="ffl" horiz-adv-x="916" 
d="M36 0v36l112 20h24l121 -20v-36h-257zM114 0q1 35 1.5 70l1 70t0.5 70v212h-83v44l114 15l-31 -16l1 6q5 55 12.5 95.5t23 71.5t40.5 56q32 32 66.5 44t68.5 12q36 0 62.5 -12.5t34.5 -41.5q-1 -19 -17.5 -32.5t-43.5 -13.5q-19 0 -36.5 8.5t-35.5 23.5l-47 36v9h72v-6
q-22 -4 -37.5 -10t-29.5 -20q-19 -19 -31.5 -53.5t-17 -84.5t-0.5 -118v-225q0 -35 0.5 -70l1 -70t1.5 -70h-91zM159 422v53h297v-53h-297zM340 0v36l112 20h24l121 -20v-36h-257zM418 0q1 35 1.5 70l1 70t0.5 70v212h-83v44l114 15l-31 -16q5 57 13 97t23 70t42 57
q23 23 49.5 36.5t54.5 19t55 5.5q44 0 81.5 -14t45.5 -43q-1 -18 -16 -31t-38 -13q-25 0 -54 13.5t-58 36.5l-28 24v7h60v-10q-35 -10 -57.5 -22.5t-42.5 -33.5q-21 -21 -32 -53t-14 -75.5t1 -100.5v-225q0 -35 0.5 -70l1 -70t1.5 -70h-91zM463 422v53h179v-53h-179zM644 0
v36l111 20h24l112 -20v-36h-247zM722 0q1 35 1.5 70l1 70t0.5 70v500l74 30l14 -8l-4 -143v-379q0 -35 0.5 -70l1 -70t1.5 -70h-90z" />
    <glyph glyph-name="f_j.liga" unicode="fj" horiz-adv-x="590" 
d="M36 0v36l112 20h23l112 -20v-36h-247zM114 0q1 35 1.5 70l1 70t0.5 70v212h-83v44l114 15l-31 -16q5 62 14 102.5t25.5 69.5t42.5 55q19 19 45 32t56 19.5t60 6.5q66 0 110.5 -27.5t45.5 -73.5q-4 -16 -17 -27.5t-33 -11.5q-19 0 -34.5 11t-29.5 30l-50 71v8h24v-17
q-41 0 -74.5 -14t-56.5 -37q-19 -19 -30 -49.5t-14 -74t1 -103.5v-225q0 -35 0.5 -70l1 -70t1.5 -70h-91zM319 -250q-30 0 -49.5 9t-29 22.5t-10.5 26.5q7 21 22 31t37 10q20 0 38 -7.5t37 -22.5l45 -34v-9h-40v13q11 5 19 14t15 26q8 21 12.5 56.5t6.5 88.5t2 128v155
q0 28 -0.5 58.5t-1 58.5t-1.5 48h-262v53h258l76 13l15 -10l-3 -136v-242q0 -81 -4.5 -137t-17.5 -93.5t-40 -64.5q-26 -26 -53 -40.5t-71 -14.5z" />
    <glyph glyph-name="f_t.liga" unicode="ft" horiz-adv-x="644" 
d="M454 422v53h178v-53h-178zM524 -13q-52 0 -83 28t-31 86q0 19 0.5 37.5t0.5 47.5v236h-93v53h134l-40 -27l32 163h59l-6 -156l-1 -20v-323q0 -38 15 -55.5t40 -17.5q17 0 33 7t35 20l23 -26q-12 -17 -30 -29t-40 -18t-48 -6zM36 0v36l112 20h24l122 -20v-36h-258zM114 0
q1 35 1.5 70l1 70t0.5 70v212h-83v44l114 15l-31 -16l1 6q5 55 13 96t24 73t45 59q30 29 63 40t67 11q35 0 62 -12.5t34 -41.5q-1 -19 -17 -32.5t-44 -13.5q-19 0 -36 8t-36 23l-47 37v9h72v-6q-28 -4 -46.5 -15t-35.5 -37q-10 -16 -18 -36t-12.5 -47t-5.5 -64t2 -87v-225
q0 -35 0.5 -70l1 -70t1.5 -70h-91zM159 422v53h179v-53h-179z" />
    <glyph glyph-name="f_f_j.liga" unicode="ffj" horiz-adv-x="894" 
d="M36 0v36l112 20h24l121 -20v-36h-257zM114 0q1 35 1.5 70l1 70t0.5 70v212h-83v44l114 15l-31 -16l1 6q5 55 12.5 95.5t23 71.5t40.5 56q32 32 66.5 44t68.5 12q36 0 62.5 -12.5t34.5 -41.5q-1 -19 -17.5 -32.5t-43.5 -13.5q-19 0 -36.5 8.5t-35.5 23.5l-47 36v9h72v-6
q-22 -4 -37.5 -10t-29.5 -20q-19 -19 -31.5 -53.5t-17 -84.5t-0.5 -118v-225q0 -35 0.5 -70l1 -70t1.5 -70h-91zM159 422v53h297v-53h-297zM340 0v36l112 20h23l112 -20v-36h-247zM418 0q1 35 1.5 70l1 70t0.5 70v212h-83v44l114 15l-31 -16q5 62 14 102.5t25.5 69.5
t42.5 55q19 19 45 32t56 19.5t60 6.5q66 0 110.5 -27.5t45.5 -73.5q-4 -16 -17 -27.5t-33 -11.5q-19 0 -34.5 11t-29.5 30l-50 71v8h24v-17q-41 0 -74.5 -14t-56.5 -37q-19 -19 -30 -49.5t-14 -74t1 -103.5v-225q0 -35 0.5 -70l1 -70t1.5 -70h-91zM623 -250q-30 0 -49.5 9
t-29 22.5t-10.5 26.5q7 21 22 31t37 10q20 0 38 -7.5t37 -22.5l45 -34v-9h-40v13q11 5 19 14t15 26q8 21 12.5 56.5t6.5 88.5t2 128v155q0 28 -0.5 58.5t-1 58.5t-1.5 48h-262v53h258l76 13l15 -10l-3 -136v-242q0 -81 -4 -137t-17.5 -93.5t-40.5 -64.5q-26 -26 -53 -40.5
t-71 -14.5z" />
    <glyph glyph-name="f_f_t.liga" unicode="fft" horiz-adv-x="948" 
d="M36 0v36l112 20h24l121 -20v-36h-257zM114 0q1 35 1.5 70l1 70t0.5 70v212h-83v44l114 15l-31 -16l1 6q5 55 12.5 95.5t23 71.5t40.5 56q32 32 66.5 44t68.5 12q36 0 62.5 -12.5t34.5 -41.5q-1 -19 -17.5 -32.5t-43.5 -13.5q-19 0 -36.5 8.5t-35.5 23.5l-47 36v9h72v-6
q-22 -4 -37.5 -10t-29.5 -20q-19 -19 -31.5 -53.5t-17 -84.5t-0.5 -118v-225q0 -35 0.5 -70l1 -70t1.5 -70h-91zM159 422v53h297v-53h-297zM340 0v36l112 20h24l122 -20v-36h-258zM418 0q1 35 1.5 70l1 70t0.5 70v212h-83v44l114 15l-31 -16l1 6q5 55 13 96t24 73t45 59
q30 29 63 40t67 11q35 0 62 -12.5t34 -41.5q-1 -19 -17 -32.5t-44 -13.5q-19 0 -36 8t-36 23l-47 37v9h72v-6q-28 -4 -46.5 -15t-35.5 -37q-10 -16 -18 -36t-12.5 -47t-5.5 -64t2 -87v-225q0 -35 0.5 -70l1 -70t1.5 -70h-91zM463 422v53h179v-53h-179zM758 422v53h178v-53
h-178zM828 -13q-52 0 -83 28t-31 86q0 19 0.5 37.5t0.5 47.5v236h-93v53h134l-40 -27l32 163h59l-6 -156l-1 -20v-323q0 -38 15 -55.5t40 -17.5q17 0 33 7t35 20l23 -26q-12 -17 -30 -29t-40 -18t-48 -6z" />
    <glyph glyph-name=".notdef" horiz-adv-x="640" 
d="M80 0l418 670h62l-418 -670h-62zM560 0h-62l-418 670h62zM141 51h358v568h-358v-568zM80 0v670h480v-670h-480z" />
    <glyph glyph-name=".null" 
 />
    <glyph glyph-name="nonmarkingreturn" horiz-adv-x="333" 
 />
    <glyph glyph-name="uni00A0" unicode="&#xa0;" horiz-adv-x="233" 
 />
    <glyph glyph-name="uni00A0" unicode=" " horiz-adv-x="233" 
 />
    <glyph glyph-name="exclam" unicode="!" horiz-adv-x="289" 
d="M145 -13q-27 0 -46 19.5t-19 45.5t19 45.5t46 19.5t45.5 -19.5t18.5 -45.5t-18.5 -45.5t-45.5 -19.5zM145 685q26 0 41.5 -15t15.5 -48q0 -14 -2 -38.5t-5.5 -58.5t-8 -77.5t-9.5 -95.5l-14 -137h-37l-13 137q-6 52 -10.5 95.5t-8 77.5t-5.5 58.5t-2 38.5q0 33 15.5 48
t42.5 15z" />
    <glyph glyph-name="quotedbl" unicode="&#x22;" horiz-adv-x="356" 
d="M92 737q24 0 37.5 -15t13.5 -48q0 -15 -2.5 -39t-6.5 -50.5t-7.5 -49.5t-5.5 -35l-11 -71h-37l-11 71q-2 12 -5.5 35t-7.5 49.5t-6.5 50.5t-2.5 39q0 33 14 48t38 15zM264 737q24 0 37.5 -15t13.5 -48q0 -15 -2.5 -39t-6.5 -50.5t-7.5 -49.5t-5.5 -35l-11 -71h-37l-11 71
q-2 12 -5.5 35t-7.5 49.5t-6.5 50.5t-2.5 39q0 33 14 48t38 15z" />
    <glyph glyph-name="numbersign" unicode="#" horiz-adv-x="526" 
d="M88 0l100 650h47l-100 -650h-47zM25 261h445v-81h-445v81zM502 391h-445v82h445v-82zM293 0l100 650h47l-100 -650h-47z" />
    <glyph glyph-name="dollar" unicode="$" horiz-adv-x="500" 
d="M244 -13q-54 0 -97 18.5t-68.5 51.5t-27.5 76q7 16 18.5 24t27.5 8q13 0 24 -5.5t20 -20t15 -41.5l16 -76l-54 37q23 -9 45.5 -14.5t43.5 -7.5t41 -2q41 0 71.5 13.5t47 39.5t16.5 62q0 32 -12.5 53.5t-39 37.5t-69.5 31l-36 13q-53 19 -90.5 44.5t-57.5 62t-20 86.5
q0 51 25.5 92t71 65.5t103.5 24.5q51 0 92 -18.5t66.5 -51t28.5 -75.5q-5 -16 -17.5 -24t-26.5 -8q-11 0 -23 5.5t-21.5 20.5t-15.5 41l-17 75l53 -36q-21 9 -40 13.5t-36 6.5t-32 2q-55 0 -93 -27.5t-38 -83.5q0 -47 29 -76t82 -46l38 -13q68 -23 106.5 -52.5t54.5 -65
t16 -76.5q0 -54 -26.5 -95.5t-75.5 -65t-118 -23.5zM238 -115v437h42v-437h-42zM240 322v428h41v-428h-41z" />
    <glyph glyph-name="percent" unicode="%" horiz-adv-x="880" 
d="M186 265q-36 0 -68 21.5t-52.5 67.5t-20.5 118q0 73 20.5 119t52.5 67.5t68 21.5t67.5 -21.5t51.5 -67.5t20 -119q0 -72 -20 -118t-51.5 -67.5t-67.5 -21.5zM186 298q18 0 33 13.5t24 51.5t9 109q0 72 -9 109.5t-24 51t-33 13.5q-17 0 -33 -13.5t-25.5 -51t-9.5 -109.5
q0 -71 9.5 -109t25.5 -51.5t33 -13.5zM223 -25l-31 25l465 669l31 -25zM696 -9q-36 0 -68 21.5t-52.5 67.5t-20.5 118q0 73 20.5 119t52.5 67.5t68 21.5t67.5 -21.5t51.5 -67.5t20 -119q0 -72 -20 -118t-51.5 -67.5t-67.5 -21.5zM696 24q18 0 33 13.5t24 51.5t9 109
q0 72 -9 109.5t-24 51t-33 13.5q-17 0 -33 -13.5t-25.5 -51t-9.5 -109.5q0 -71 9.5 -109t25.5 -51.5t33 -13.5z" />
    <glyph glyph-name="ampersand" unicode="&#x26;" horiz-adv-x="720" 
d="M238 -13q-62 0 -110 24.5t-74.5 66t-26.5 91.5q0 49 20 89.5t60 73t99 57.5v5l20 -33q-44 -21 -68.5 -49t-34 -58t-9.5 -58q0 -36 17.5 -69.5t51.5 -54.5t82 -21q53 0 99.5 21.5t73.5 58.5l36 -25h-6q-21 -31 -52 -58.5t-75 -44t-103 -16.5zM477 115l-38 20h6
q28 39 49 81t38 93.5t30 118.5h48q-15 -72 -34.5 -127t-43.5 -99.5t-55 -86.5zM567 373l-95 16v40h203v-40l-88 -16h-20zM594 -13q-26 0 -46.5 4.5t-37 14.5t-33.5 27q-49 54 -88.5 98t-77.5 88q-29 35 -51.5 61.5t-42.5 50.5t-43 50q-25 29 -40 56t-22 53.5t-7 52.5
q0 44 21.5 76t58.5 49t84 17q74 0 113 -36t39 -92q0 -55 -41.5 -98t-130.5 -89v-4l-17 32q53 35 88 73t35 85q0 44 -25 69t-62 25q-38 0 -64.5 -26.5t-26.5 -66.5q0 -18 3.5 -35.5t13.5 -36.5t28 -42q19 -23 37 -44t40 -45.5t54 -59.5q30 -32 57 -61.5t55 -59.5t59.5 -63.5
t70.5 -75.5l-51 24l130 -17l-4 -44q-22 -5 -39 -7.5t-37 -2.5z" />
    <glyph glyph-name="quotesingle" unicode="'" horiz-adv-x="183" 
d="M92 737q24 0 37.5 -15t13.5 -48q0 -15 -2.5 -39t-6.5 -50.5t-7.5 -49.5t-5.5 -35l-11 -71h-37l-11 71q-2 12 -5.5 35t-7.5 49.5t-6.5 50.5t-2.5 39q0 33 14 48t38 15z" />
    <glyph glyph-name="parenleft" unicode="(" horiz-adv-x="339" 
d="M160 278q0 -80 14 -149.5t47.5 -141t92.5 -156.5l-26 -23q-70 66 -116.5 140t-69 156.5t-22.5 173.5q0 92 22.5 174t69 156t116.5 140l26 -23q-59 -85 -92.5 -156.5t-47.5 -141t-14 -149.5z" />
    <glyph glyph-name="parenright" unicode=")" horiz-adv-x="339" 
d="M179 278q0 80 -14 149.5t-47.5 141t-92.5 156.5l26 23q70 -66 116.5 -140t69 -156.5t22.5 -173.5q0 -92 -22.5 -174t-69 -156t-116.5 -140l-26 23q59 85 92.5 156.5t47.5 141t14 149.5z" />
    <glyph glyph-name="asterisk" unicode="*" horiz-adv-x="439" 
d="M210 539l-12 68q-5 34 -9 62t-4 42q0 19 9.5 27.5t25.5 8.5q15 0 25.5 -8.5t10.5 -27.5q0 -13 -4.5 -41.5t-10.5 -62.5l-11 -68h-20zM217 529l-68 11q-34 5 -62 10t-42 9q-18 6 -23 18t0 26q5 15 16.5 22t28.5 2q13 -4 39 -17t56 -29l61 -32zM228 533l-31 -61
q-15 -31 -28.5 -56.5t-21.5 -36.5q-11 -15 -24 -16t-25 8q-13 9 -16.5 21.5t8.5 28.5q8 11 28 31.5t45 44.5l49 48zM228 545l49 -48q24 -24 44 -45t28 -32q11 -15 8 -27.5t-15 -21.5q-13 -9 -26 -8.5t-25 15.5q-7 12 -20 37.5t-29 56.5l-30 61zM217 549l60 32
q31 16 56.5 28.5t38.5 16.5q19 6 30.5 -1t15.5 -22q5 -15 -0.5 -27t-23.5 -18q-13 -4 -41.5 -8.5t-61.5 -9.5l-68 -11z" />
    <glyph glyph-name="plus" unicode="+" horiz-adv-x="530" 
d="M235 77v500h61v-500h-61zM502 301h-473v57h473v-57z" />
    <glyph glyph-name="comma" unicode="," horiz-adv-x="300" 
d="M60 -177l-15 37q37 17 61 36t38 44t21 60l13 -37l-53 32q-23 14 -33.5 29t-10.5 34q0 28 16.5 47.5t50.5 19.5q16 0 31 -6t30 -22q5 -16 6.5 -34t1.5 -35q0 -50 -21.5 -90.5t-57 -69.5t-78.5 -45z" />
    <glyph glyph-name="uni2010" unicode="&#x2010;" horiz-adv-x="312" 
d="M40 215v65h232v-65h-232z" />
    <glyph glyph-name="uni2010" unicode="&#xad;" horiz-adv-x="312" 
d="M40 215v65h232v-65h-232z" />
    <glyph glyph-name="uni2010" unicode="-" horiz-adv-x="312" 
d="M40 215v65h232v-65h-232z" />
    <glyph glyph-name="period" unicode="." horiz-adv-x="300" 
d="M150 -13q-30 0 -50.5 21t-20.5 50q0 30 20.5 51t50.5 21t50.5 -21t20.5 -51q0 -29 -20.5 -50t-50.5 -21z" />
    <glyph glyph-name="slash" unicode="/" horiz-adv-x="330" 
d="M2 -160l267 870h59l-267 -870h-59z" />
    <glyph glyph-name="zero" unicode="0" horiz-adv-x="500" 
d="M251 -13q-53 0 -101.5 32.5t-78.5 106t-30 196.5q0 124 30 198t78.5 107t101.5 33t100.5 -33t78 -107t30.5 -198q0 -123 -30.5 -196.5t-78 -106t-100.5 -32.5zM251 32q23 0 43.5 13t37 45.5t26 88.5t9.5 143t-9.5 144t-26 89.5t-37 46t-43.5 13.5t-44.5 -13t-38 -45.5
t-26 -89.5t-9.5 -145q0 -87 9.5 -143.5t26 -88.5t38 -45t44.5 -13z" />
    <glyph glyph-name="one" unicode="1" horiz-adv-x="500" 
d="M74 0v36l143 24h84l144 -24v-36h-371zM214 0q1 35 1.5 70t1 70.5t0.5 70.5v361l-132 -11v41l206 53l14 -10l-4 -143v-291q0 -35 0.5 -70.5t1 -70.5t1.5 -70h-90z" />
    <glyph glyph-name="two" unicode="2" horiz-adv-x="500" 
d="M49 0v65q40 39 77.5 77.5t69.5 72.5q50 53 82 98.5t47.5 87t15.5 80.5q0 62 -32.5 98t-87.5 36q-18 0 -45.5 -4.5t-55.5 -17.5l57 36l-24 -88q-6 -24 -14.5 -39.5t-19 -22.5t-24.5 -7q-16 0 -29.5 9t-21.5 24q6 53 35 87.5t73 51t94 16.5q65 0 105.5 -21.5t60 -60
t19.5 -88.5q0 -44 -17.5 -85.5t-60.5 -93.5t-120 -126q-16 -16 -36.5 -36t-44 -41.5t-48.5 -44.5l12 43v-24h344v-82h-411z" />
    <glyph glyph-name="three" unicode="3" horiz-adv-x="500" 
d="M236 -13q-73 0 -125.5 33.5t-66.5 108.5q9 17 22 25t29 8q26 0 37.5 -17t21.5 -55l20 -77l-40 36q26 -10 49 -13.5t40 -3.5q49 0 82 17t49.5 49.5t16.5 77.5q0 44 -17 75t-51 47.5t-85 16.5h-48v50h40q45 0 77 16t49 46.5t17 72.5q0 37 -14 62.5t-41.5 39t-66.5 13.5
q-16 0 -37.5 -3t-47.5 -11l44 28l-18 -68q-8 -31 -20 -46.5t-38 -15.5q-16 0 -29 8t-19 27q9 42 34.5 70t63.5 42t84 14q59 0 102 -20t66.5 -55t23.5 -82q0 -41 -20.5 -76.5t-58.5 -60.5t-92 -36v17q65 -6 107.5 -28.5t63 -58t20.5 -82.5q0 -54 -28 -97t-78 -68.5
t-118 -25.5z" />
    <glyph glyph-name="four" unicode="4" horiz-adv-x="500" 
d="M296 -15v199v19v367h-16l44 21l-129 -195l-129 -195l11 44v-19h407v-63h-460v53l297 440h58v-671h-83z" />
    <glyph glyph-name="five" unicode="5" horiz-adv-x="500" 
d="M225 -13q-76 0 -123.5 35.5t-63.5 105.5q7 17 20.5 25.5t30.5 8.5q23 0 35.5 -14t22.5 -54l19 -73l-39 31q26 -11 48 -15.5t43 -4.5q49 0 82.5 20t50.5 55.5t17 83.5q0 50 -19 84.5t-54 52t-83 17.5q-22 0 -45.5 -3t-46.5 -8l-28 8l21 305h327v-82h-307l27 47l-17 -254
l-44 15q36 18 69.5 25.5t70.5 7.5q65 0 114.5 -23.5t77 -69t27.5 -112.5q0 -64 -29 -112t-81.5 -75t-122.5 -27z" />
    <glyph glyph-name="six" unicode="6" horiz-adv-x="500" 
d="M256 -13q-67 0 -115.5 33t-74.5 95t-26 147q0 75 25.5 142.5t74.5 121t120 89t163 45.5l6 -32q-81 -21 -138 -57t-92 -84.5t-51.5 -108t-16.5 -128.5q0 -76 15.5 -124t43 -71t64.5 -23q34 0 59.5 19.5t40 56.5t14.5 89q0 70 -31.5 104.5t-83.5 34.5q-34 0 -69 -13
t-67 -45l-21 14h5q36 50 82.5 77.5t99.5 27.5q55 0 93.5 -26t59.5 -70.5t21 -101.5q0 -48 -17 -87t-45.5 -67t-64.5 -43t-74 -15z" />
    <glyph glyph-name="seven" unicode="7" horiz-adv-x="500" 
d="M143 0l-10 10l278 585v-44l-6 14h-354v82h413v-51l-238 -596h-83z" />
    <glyph glyph-name="eight" unicode="8" horiz-adv-x="500" 
d="M251 -13q-60 0 -107 18t-73.5 54.5t-26.5 89.5q0 39 18.5 70t54 57t87.5 50v6l42 -20q-39 -22 -65.5 -44t-40 -49t-13.5 -64q0 -35 16 -63.5t44.5 -44.5t65.5 -16q53 0 85.5 35t32.5 85q0 29 -14 52.5t-48 47t-93 50.5q-53 25 -86 55t-48.5 64.5t-15.5 72.5q0 53 25 90
t67.5 57t94.5 20q53 0 91.5 -19.5t59.5 -54.5t21 -80q0 -25 -12.5 -55t-44 -60t-88.5 -59v-6l-37 20q60 41 83.5 76.5t23.5 81.5q0 30 -11.5 55.5t-33.5 40.5t-54 15q-28 0 -52.5 -12.5t-39 -34.5t-14.5 -53q0 -27 12 -53.5t43 -52.5t88 -53q56 -26 93 -54t55.5 -62.5
t18.5 -81.5q0 -50 -27 -89t-73 -60.5t-104 -21.5z" />
    <glyph glyph-name="nine" unicode="9" horiz-adv-x="500" 
d="M86 -15l-10 38q80 26 134 60t87.5 77.5t48 98t14.5 123.5q0 81 -15.5 132.5t-42.5 76t-64 24.5q-32 0 -59.5 -17.5t-44 -51.5t-16.5 -85t17.5 -83t47.5 -47t67 -15q43 0 75.5 17t61.5 52l24 -7h-6q-28 -61 -74 -91.5t-108 -30.5q-53 0 -97.5 23.5t-70.5 67.5t-26 105
q0 47 15.5 85t44 65.5t67.5 42.5t86 15q66 0 112.5 -32t71 -90.5t24.5 -138.5q0 -72 -20.5 -137t-64 -119.5t-112.5 -94.5t-167 -63z" />
    <glyph glyph-name="colon" unicode=":" horiz-adv-x="300" 
d="M150 -13q-30 0 -50.5 21t-20.5 50q0 30 20.5 51t50.5 21t50.5 -21t20.5 -51q0 -29 -20.5 -50t-50.5 -21zM150 322q-30 0 -50.5 21t-20.5 50q0 30 20.5 51t50.5 21t50.5 -21t20.5 -51q0 -29 -20.5 -50t-50.5 -21z" />
    <glyph glyph-name="semicolon" unicode=";" horiz-adv-x="300" 
d="M60 -177l-15 37q37 17 61 36t38 44t21 60l13 -37l-53 32q-23 14 -33.5 29t-10.5 34q0 28 16.5 47.5t50.5 19.5q16 0 31 -6t30 -22q5 -16 6.5 -34t1.5 -35q0 -50 -21.5 -90.5t-57 -69.5t-78.5 -45zM150 322q-30 0 -50.5 21t-20.5 50q0 30 20.5 51t50.5 21t50.5 -21
t20.5 -51q0 -29 -20.5 -50t-50.5 -21z" />
    <glyph glyph-name="less" unicode="&#x3c;" horiz-adv-x="530" 
d="M57 306v47l387 225l30 -54l-359 -201v13l359 -201l-30 -54z" />
    <glyph glyph-name="equal" unicode="=" horiz-adv-x="530" 
d="M502 201h-473v57h473v-57zM502 401h-473v57h473v-57z" />
    <glyph glyph-name="greater" unicode="&#x3e;" horiz-adv-x="530" 
d="M474 353v-47l-387 -225l-30 54l359 201v-13l-359 201l30 54z" />
    <glyph glyph-name="question" unicode="?" horiz-adv-x="416" 
d="M149 -13q-27 0 -45.5 19.5t-18.5 45.5t18.5 45.5t45.5 19.5t46 -19.5t19 -45.5t-19 -45.5t-46 -19.5zM350 461q0 -46 -24.5 -77.5t-75.5 -48.5l-34 -12q-31 -10 -39 -20t-8 -35v-55h-39l-12 42q-9 29 -12.5 45t-3.5 25q0 23 18 38t62 28l57 18q27 9 41.5 27t14.5 43
q0 36 -24.5 71.5t-54.5 63.5l107 -71l-185 33q-44 8 -58 21.5t-14 32.5q0 23 14 35.5t41 19.5q32 -3 71 -20t75 -46.5t59.5 -69.5t23.5 -88z" />
    <glyph glyph-name="at" unicode="@" horiz-adv-x="835" 
d="M339 47q-27 0 -52 13.5t-40.5 42t-15.5 74.5q0 44 13.5 87.5t36.5 81.5t53 67t63.5 45.5t67.5 16.5q28 0 52 -13t49 -48l-30 -47q-19 35 -38.5 48t-40.5 13q-24 0 -51.5 -15.5t-51 -45t-38.5 -71t-15 -94.5q0 -48 17 -72t52 -24q27 0 57.5 18t83.5 69l8 -15h-2
q-27 -36 -55.5 -66t-58.5 -47.5t-64 -17.5zM584 47q-33 0 -56.5 12t-36.5 33t-15 46l-4 15l56 295l52 26l19 -16l-57 -286q-5 -25 0 -42.5t18.5 -26.5t35.5 -9q26 0 51.5 13.5t46.5 42t34 74t13 109.5q0 91 -35.5 154.5t-97 97.5t-139.5 34q-82 0 -150.5 -33t-118 -90
t-76.5 -130t-27 -153q0 -82 26 -143.5t70.5 -102.5t102.5 -61t122 -20q46 0 83.5 7.5t70.5 23.5l13 -30q-43 -22 -93.5 -32t-94.5 -10q-75 0 -140.5 22.5t-115 68t-77.5 112.5t-28 156q0 77 21.5 145.5t61.5 125.5t95 98.5t121 64t140 22.5q102 0 174.5 -43t111.5 -118.5
t39 -174.5q0 -72 -21 -124.5t-54.5 -86.5t-70.5 -50t-70 -16z" />
    <glyph glyph-name="A" unicode="A" horiz-adv-x="664" 
d="M5 0v41l100 15h20l109 -15v-41h-229zM71 0l231 675h63l230 -675h-98l-198 591h20l-5 -15l-196 -576h-47zM177 217v47h286v-47h-286zM381 0v41l126 15h22l124 -15v-41h-272z" />
    <glyph glyph-name="B" unicode="B" horiz-adv-x="629" 
d="M44 0v41l131 15h10v-56h-141zM135 0q2 51 2.5 102t0.5 103.5v104.5v49v104t-0.5 104t-2.5 103h101q-1 -50 -2 -102t-1 -104v-105v-34v-114t1 -107l2 -104h-101zM185 0v47h111q96 0 143 35t47 101q0 70 -47 105t-151 35h-103v46h100q61 0 99 14t56 43t18 74q0 46 -17 73
t-51.5 39t-85.5 12h-119v46h149q70 0 118.5 -21t74 -57.5t25.5 -84.5q0 -39 -19 -73.5t-60 -58.5t-109 -32v9q79 -6 127.5 -30t71.5 -59.5t23 -79.5q0 -34 -15 -66.5t-46.5 -59t-82.5 -42t-123 -15.5h-134zM44 629v41h141v-56h-10z" />
    <glyph glyph-name="C" unicode="C" horiz-adv-x="631" 
d="M386 -15q-76 0 -138 25.5t-107 72t-69.5 111t-24.5 141.5q0 76 25.5 140t71 111t107 73t134.5 26q41 0 92 -9.5t101 -38.5l4 -145h-62l-25 148l62 -14v-60q-42 39 -82.5 54t-76.5 15q-67 0 -122 -34.5t-87.5 -101t-32.5 -164.5t30 -165t83.5 -101t121.5 -34
q43 0 88.5 14.5t87.5 49.5v-55l-62 -14l25 148h62l-4 -145q-46 -25 -97.5 -36.5t-104.5 -11.5z" />
    <glyph glyph-name="D" unicode="D" horiz-adv-x="710" 
d="M44 0v41l131 15h10v-56h-141zM135 0q2 51 2.5 102.5t0.5 106.5v113v37v104t-0.5 104t-2.5 103h101q-1 -50 -2 -102t-1 -104v-105v-37v-111.5t1 -106.5l2 -104h-101zM185 0v47h129q77 0 130.5 34t81.5 98t28 155q0 141 -61 215.5t-170 74.5h-138v46h154q96 0 169 -39
t114 -113.5t41 -183.5q0 -108 -45 -182.5t-122.5 -113t-175.5 -38.5h-135zM44 629v41h141v-56h-10z" />
    <glyph glyph-name="E" unicode="E" horiz-adv-x="603" 
d="M44 0v41l131 15h10v-56h-141zM135 0q2 51 2.5 102t0.5 103.5v104.5v49v104t-0.5 104t-2.5 103h101q-1 -50 -2 -102t-1 -104v-105v-37v-111.5t1 -106.5l2 -104h-101zM185 0v50h335l-35 -30l27 158h57l-7 -178h-377zM185 318v47h226v-47h-226zM394 224l-15 111v20l15 105
h46v-236h-46zM44 629v41h141v-56h-10zM492 493l-27 157l35 -30h-315v50h357l7 -177h-57z" />
    <glyph glyph-name="F" unicode="F" horiz-adv-x="579" 
d="M44 0v41l131 15h22l131 -15v-41h-284zM135 0q2 51 2.5 102t0.5 103.5v104.5v49v104t-0.5 104t-2.5 103h101q-1 -50 -2 -102t-1 -104v-105v-37v-111.5t1 -106.5l2 -104h-101zM185 318v47h234v-47h-234zM402 214l-15 111v30l15 105h46v-246h-46zM44 629v41h141v-56h-10z
M492 493l-27 157l35 -30h-315v50h357l7 -177h-57z" />
    <glyph glyph-name="G" unicode="G" horiz-adv-x="682" 
d="M384 -15q-75 0 -137 26t-107 73t-69 111t-24 140q0 75 24.5 139t69.5 111.5t108 73.5t139 26q41 0 76 -5t66 -15.5t59 -26.5l4 -146h-62l-26 149l63 -20v-57q-40 38 -82 54.5t-89 16.5q-69 0 -123.5 -35t-86 -102t-31.5 -163t30 -162.5t85.5 -101.5t131.5 -35
q43 0 77.5 10t76.5 31l-47 -48v59q0 57 -0.5 115t-2.5 115h100q-1 -56 -2 -113.5t-1 -116.5v-44q-52 -27 -105 -43t-115 -16zM404 278v40h263v-40l-111 -11h-22z" />
    <glyph glyph-name="H" unicode="H" horiz-adv-x="788" 
d="M44 0v41l131 15h20l131 -15v-41h-282zM135 0q2 51 2.5 102t0.5 103.5v104.5v49v104t-0.5 104t-2.5 103h101q-1 -50 -2 -102t-1 -104v-105v-30v-116.5t1 -108t2 -104.5h-101zM185 319v47h418v-47h-418zM462 0v41l131 15h21l130 -15v-41h-282zM553 0q2 51 2.5 103t0.5 108
v118v30v104t-0.5 104t-2.5 103h100q-1 -50 -2 -102t-1 -104v-105v-49v-103t1 -103.5t2 -103.5h-100zM44 629v41h282v-41l-131 -15h-20zM462 629v41h282v-41l-130 -15h-21z" />
    <glyph glyph-name="I" unicode="I" horiz-adv-x="371" 
d="M44 0v41l131 15h21l131 -15v-41h-283zM135 0q2 51 2.5 102t0.5 103.5v104.5v49v104t-0.5 104t-2.5 103h101q-1 -50 -2 -102t-1 -104v-105v-49v-103t1 -103.5t2 -103.5h-101zM44 629v41h283v-41l-131 -15h-21z" />
    <glyph glyph-name="J" unicode="J" horiz-adv-x="374" 
d="M70 -133q-29 0 -54.5 10.5t-32.5 38.5q5 28 21 38.5t39 10.5q20 0 37 -6.5t38 -22.5l34 -26v-8h-27v4q9 15 15.5 32t10 41.5t5 59t1.5 83.5v36v34t-0.5 50.5t-1 85t-1.5 136.5t-2 206h97q-2 -76 -2.5 -153.5t-0.5 -156.5v-145q0 -65 -2 -110.5t-8.5 -78t-17.5 -56
t-29 -45.5q-25 -31 -54.5 -44.5t-64.5 -13.5zM47 629v41h293v-41l-131 -15h-21z" />
    <glyph glyph-name="K" unicode="K" horiz-adv-x="667" 
d="M135 0q2 51 2.5 102t0.5 103.5v104.5v49v104t-0.5 104t-2.5 103h97q-1 -50 -2 -102t-1 -104v-105v-74v-85.5t1 -97t2 -102.5h-97zM44 0v41l131 15h21l130 -15v-41h-282zM44 629v41h282v-41l-130 -15h-21zM405 0v41l121 15h15l121 -15v-41h-257zM417 629v41h230v-41
l-111 -15l-20 -4zM184 175l-4 66h4l27 33l323 396h61zM514 0l-198 371l55 65l242 -436h-99z" />
    <glyph glyph-name="L" unicode="L" horiz-adv-x="596" 
d="M44 0v41l131 15h10v-56h-141zM135 0q2 52 2.5 103.5t0.5 103v102.5v50v105t-0.5 104t-2.5 102h101q-1 -51 -2 -103t-1 -104v-104v-69v-90t1 -98.5t2 -101.5h-101zM185 0v50h307l-36 -29l35 167h61l-10 -188h-357zM44 629v41h283v-41l-131 -15h-21z" />
    <glyph glyph-name="M" unicode="M" horiz-adv-x="902" 
d="M39 0v41l105 15h21l98 -15v-41h-224zM49 629v41h123v-56h-12zM129 0v670h43l9 -301v-369h-52zM404 0l-259 638h-6v32h85l241 -594h-34l8 21l221 573h48v-32h-8l-13 -33l-233 -605h-50zM585 0v41l120 15h22l130 -15v-41h-272zM668 0q2 51 2.5 102t0.5 103v104v361h95
q-1 -50 -2 -102t-1 -104v-105v-49v-103t1 -103.5t2 -103.5h-98zM716 614v56h141v-41l-130 -15h-11z" />
    <glyph glyph-name="N" unicode="N" horiz-adv-x="735" 
d="M39 0v41l105 15h21l116 -15v-41h-242zM124 0v647h51v-312v-335h-51zM454 629v41h241v-41l-100 -15h-20zM575 -7l-409 578h-2l-34 50l-86 8v41h165l367 -522l-17 -5v192v335h51v-677h-35z" />
    <glyph glyph-name="O" unicode="O" horiz-adv-x="707" 
d="M354 -15q-58 0 -113 22.5t-99 66.5t-69.5 109.5t-25.5 151.5q0 82 26 147t69.5 110t98.5 69t113 24t112.5 -22.5t98 -67t69.5 -109.5t26 -151q0 -82 -25.5 -147t-69 -110.5t-98.5 -69t-113 -23.5zM354 35q52 0 89.5 25.5t61 68t34.5 96t11 110.5q0 56 -11 109.5
t-34.5 96.5t-61 68.5t-89.5 25.5t-89.5 -25.5t-61.5 -68.5t-35.5 -96.5t-11.5 -109.5q0 -57 11.5 -110.5t35.5 -96t61.5 -68t89.5 -25.5z" />
    <glyph glyph-name="P" unicode="P" horiz-adv-x="589" 
d="M44 0v41l131 15h22l131 -15v-41h-284zM135 0q2 51 2.5 102t0.5 103.5v104.5v49v104t-0.5 104t-2.5 103h101q-1 -50 -2 -102t-1 -104v-105v-61v-99.5t1 -97.5t2 -101h-101zM185 264v47h114q61 0 98 20t54 56t17 83q0 73 -41.5 113.5t-131.5 40.5h-110v46h128
q85 0 141 -25.5t84.5 -70.5t28.5 -104q0 -56 -28 -103t-89.5 -75t-164.5 -28h-100zM44 629v41h141v-56h-10z" />
    <glyph glyph-name="Q" unicode="Q" horiz-adv-x="707" 
d="M500 -216q-63 0 -107.5 29t-67.5 77.5t-23 104.5v22h94q-3 -57 12.5 -96.5t48 -60t77.5 -20.5q15 0 34.5 2.5t43.5 9.5l11 -36q-25 -16 -58.5 -24t-64.5 -8zM354 -15q-58 0 -113 22.5t-99 66.5t-69.5 109.5t-25.5 151.5q0 82 26 147t69.5 110t98.5 69t113 24t112.5 -22.5
t98 -67t69.5 -109.5t26 -151q0 -82 -25.5 -147t-69 -110.5t-98.5 -69t-113 -23.5zM354 35q52 0 89.5 25.5t61 68t34.5 96t11 110.5q0 56 -11 109.5t-34.5 96.5t-61 68.5t-89.5 25.5t-89.5 -25.5t-61.5 -68.5t-35.5 -96.5t-11.5 -109.5q0 -57 11.5 -110.5t35.5 -96t61.5 -68
t89.5 -25.5z" />
    <glyph glyph-name="R" unicode="R" horiz-adv-x="651" 
d="M44 0v41l131 15h21l131 -15v-41h-283zM135 0q2 51 2.5 102t0.5 103.5v104.5v49v104t-0.5 104t-2.5 103h101q-1 -52 -2 -103.5t-1 -104.5v-112v-30v-110t1 -106l2 -104h-101zM562 -10q-47 0 -70.5 14t-32.5 50l-40 160q-9 41 -26 61.5t-43.5 27.5t-67.5 7h-96v45h124
q54 0 89 18t52 49.5t17 71.5q0 63 -35 96.5t-112 33.5h-136v46h139q115 0 179 -46t64 -129q0 -42 -22 -80t-66.5 -63t-111.5 -31v8q30 -2 54 -10t42 -23.5t31 -39.5t23 -58l48 -166l-34 21l106 -12v-41q-10 -3 -21.5 -5t-24.5 -3.5t-29 -1.5zM44 629v41h141v-56h-10z" />
    <glyph glyph-name="S" unicode="S" horiz-adv-x="512" 
d="M235 -15q-56 0 -108 15.5t-87 37.5l6 140h62l26 -154l-66 28v48q31 -22 55.5 -36.5t49.5 -21.5t59 -7q47 0 82 14t54 41.5t19 65.5q0 32 -13 54t-40 39t-70 33l-39 16q-51 20 -90 47.5t-60.5 65.5t-21.5 89q0 58 29.5 99t80.5 63.5t115 22.5q50 0 91 -14t73 -38l-6 -131
h-61l-28 151l65 -33v-50q-37 36 -68.5 50.5t-71.5 14.5q-38 0 -68.5 -13t-48.5 -38t-18 -62q0 -31 13.5 -54.5t38.5 -41.5t61 -32l40 -15q66 -25 106 -54.5t58 -65.5t18 -84q0 -59 -30.5 -101.5t-83.5 -65.5t-123 -23z" />
    <glyph glyph-name="T" unicode="T" horiz-adv-x="604" 
d="M151 0v41l140 15h22l140 -15v-41h-302zM252 0q2 51 2.5 102t0.5 103.5v104.5v49v104t-0.5 104t-2.5 103h100q-1 -50 -2 -102t-1 -104v-105v-49v-103t1 -103.5t2 -103.5h-100zM20 492l8 178h548l8 -178h-58l-31 178l46 -50h-478l46 50l-31 -178h-58z" />
    <glyph glyph-name="U" unicode="U" horiz-adv-x="727" 
d="M367 -15q-72 0 -127 28t-85.5 87t-30.5 152v108v103.5t-0.5 103.5t-2.5 103h100q-1 -50 -2 -101.5t-1 -103.5v-105v-79q0 -85 20.5 -134.5t57.5 -70t88 -20.5q57 0 95 23.5t57 77t19 141.5v372h51v-396q0 -105 -31 -168.5t-85 -92t-123 -28.5zM39 629v41h283v-41
l-131 -15h-21zM453 629v41h240v-41l-110 -14h-20z" />
    <glyph glyph-name="V" unicode="V" horiz-adv-x="674" 
d="M323 -7l-251 677h101l197 -563h-20l5 15l186 548h55l-229 -677h-44zM15 629v41h273v-45l-122 -11h-21zM434 625v45h231v-41l-110 -15h-20z" />
    <glyph glyph-name="W" unicode="W" horiz-adv-x="962" 
d="M278 -7l-195 677h98l145 -542h-18l5 16l175 526h36l175 -546h-17l4 16l146 530h51l-183 -677h-43l-183 549h19l-5 -15l-167 -534h-43zM15 629v41h272v-41l-121 -15h-21zM370 629v41h272v-41l-122 -15h-22zM726 629v41h227v-41l-103 -15h-20z" />
    <glyph glyph-name="X" unicode="X" horiz-adv-x="648" 
d="M10 0v41l109 14h20l100 -14v-41h-229zM70 0l233 354l40 -26h-7l-16 -25l-192 -303h-58zM356 0v41l130 15h22l131 -15v-41h-283zM354 346l-38 27h5l11 17l174 280h57zM479 0l-403 670h105l403 -670h-105zM19 629v41h281v-41l-130 -15h-22zM388 629v41h229v-41l-109 -14
h-20z" />
    <glyph glyph-name="Y" unicode="Y" horiz-adv-x="633" 
d="M167 0v41l140 15h21l141 -15v-41h-302zM268 0q1 33 1.5 67.5t1 71.5t0.5 77.5v84.5h94v-84t0.5 -77t1 -72t1.5 -68h-100zM288 224l-219 446h109l180 -392h-34l8 16l177 376h52l-215 -446h-58zM25 629v41h272v-41l-130 -15h-21zM394 629v41h229v-41l-99 -15h-20z" />
    <glyph glyph-name="Z" unicode="Z" horiz-adv-x="551" 
d="M20 0v36l394 609l-10 -40v15h-158h-158l36 29l-33 -157h-61l8 178h471v-35l-393 -610l10 37v-12h172h175l-36 -29l33 157h61l-8 -178h-503z" />
    <glyph glyph-name="bracketleft" unicode="[" horiz-adv-x="320" 
d="M100 -159q2 52 2.5 104.5t0.5 106v106.5v240v106t-0.5 106t-2.5 105h79q-1 -51 -2 -104t-1 -106v-107v-240v-105t1 -106l2 -106h-79zM139 -159v56h20l132 -15v-41h-152zM139 659v56h152v-41l-132 -15h-20z" />
    <glyph glyph-name="backslash" unicode="\" horiz-adv-x="330" 
d="M328 -160h-59l-267 870h59z" />
    <glyph glyph-name="bracketright" unicode="]" horiz-adv-x="320" 
d="M220 715q-2 -52 -2.5 -104.5t-0.5 -106v-106.5v-240v-106t0.5 -106t2.5 -105h-79q1 51 2 104t1 106v107v240v105t-1 106l-2 106h79zM181 715v-56h-20l-132 15v41h152zM181 -103v-56h-152v41l132 15h20z" />
    <glyph glyph-name="asciicircum" unicode="^" horiz-adv-x="531" 
d="M88 242l147 239h64l147 -239l-45 -34l-151 240h34l-151 -240z" />
    <glyph glyph-name="underscore" unicode="_" horiz-adv-x="512" 
d="M40 -69v65h432v-65h-432z" />
    <glyph glyph-name="grave" unicode="`" horiz-adv-x="400" 
d="M256 576l-26 -19q-20 18 -40.5 36t-40 36t-40.5 36q-21 20 -27.5 32.5t-6.5 22.5q0 20 11.5 29t26.5 9q14 0 27 -9t27 -32q16 -24 31 -47.5t29.5 -46.5t28.5 -47z" />
    <glyph glyph-name="a" unicode="a" horiz-adv-x="509" 
d="M179 -13q-55 0 -94.5 31.5t-39.5 93.5q0 29 12.5 55t48.5 49.5t105 43.5q26 8 52 15.5t51.5 15t51.5 14.5v-36q-34 -10 -67 -21l-66 -22q-45 -14 -66 -31.5t-27 -35t-6 -33.5q0 -39 23 -56t57 -17q17 0 32.5 5.5t39.5 21t64 45.5l14 -50h-30q-30 -30 -53.5 -49.5t-47 -29
t-54.5 -9.5zM416 -10q-42 0 -67 27.5t-25 73.5v5v225q0 49 -9.5 75t-30.5 36t-54 10q-17 0 -39 -3.5t-51 -14.5l42 32l-25 -85q-7 -23 -19.5 -35.5t-32.5 -12.5q-21 0 -33 11t-14 30q14 57 66.5 90.5t128.5 33.5q53 0 87 -17.5t51 -55.5t17 -101v-213q0 -32 10 -45.5
t26 -13.5q13 0 22 6t17 16l20 -22q-18 -29 -39.5 -40.5t-47.5 -11.5z" />
    <glyph glyph-name="b" unicode="b" horiz-adv-x="577" 
d="M30 0v36l75 13q1 25 1 54t0.5 57t0.5 50v439l-82 10v36l153 45l14 -8l-4 -143v-190l3 -13v-305v-2l-11 -89zM326 -13q-28 0 -55.5 9t-54.5 32t-52 65h-14l9 42q38 -49 77 -70t74 -21q36 0 66 20.5t48 63t18 106.5q0 96 -35.5 146.5t-91.5 50.5q-18 0 -41 -7.5
t-51.5 -26.5t-64.5 -55l-9 41h16q28 37 56.5 60t58.5 34t62 11q53 0 96 -29t68.5 -84t25.5 -133q0 -77 -27 -134.5t-73.5 -89t-105.5 -31.5z" />
    <glyph glyph-name="c" unicode="c" horiz-adv-x="488" 
d="M272 -13q-71 0 -122 29.5t-78 84.5t-27 131q0 81 32.5 138t85.5 87.5t113 30.5q45 0 83 -17t63 -46.5t31 -66.5q-4 -19 -15.5 -28.5t-30.5 -9.5q-25 0 -37.5 13.5t-17.5 34.5l-24 87l48 -38q-25 14 -50 19.5t-46 5.5q-42 0 -75.5 -22.5t-52.5 -67t-19 -110.5
q0 -67 22 -109t58.5 -61.5t81.5 -19.5q25 0 48.5 5.5t46.5 20t45 40.5l22 -18q-19 -36 -44.5 -61t-59.5 -38.5t-81 -13.5z" />
    <glyph glyph-name="d" unicode="d" horiz-adv-x="567" 
d="M249 -13q-61 0 -107 31t-71.5 86.5t-25.5 128.5q0 77 28 134t76 89t109 32q26 0 50 -7.5t47.5 -25t46.5 -48.5h15l-10 -48q-43 42 -74 57t-60 15q-37 0 -68.5 -20.5t-50.5 -64t-19 -111.5q0 -65 18 -107.5t49.5 -63t71.5 -20.5q38 0 67.5 18.5t63.5 62.5l9 -47h-12
q-18 -29 -40.5 -49.5t-50 -31t-62.5 -10.5zM396 -10l-10 101v2v293l3 13v250l-85 10v36l156 45l14 -8l-4 -143v-541l81 -12v-36z" />
    <glyph glyph-name="e" unicode="e" horiz-adv-x="510" 
d="M277 -13q-70 0 -122.5 29t-81 84t-28.5 132t31 134.5t83.5 89.5t114.5 32q53 0 95 -23t67 -65.5t25 -103.5q0 -17 -2 -31.5t-5 -24.5h-370v42h229q41 0 53 15t12 37q0 35 -12.5 59t-36 36.5t-55.5 12.5q-34 0 -66.5 -19.5t-53.5 -62.5t-21 -116q0 -62 20 -105t57.5 -65
t89.5 -22q47 0 82.5 15.5t65.5 49.5l21 -17q-20 -34 -45.5 -59.5t-60.5 -39.5t-86 -14z" />
    <glyph glyph-name="f" unicode="f" horiz-adv-x="354" 
d="M36 0v36l112 20h24l122 -20v-36h-258zM114 0q1 35 1.5 70l1 70t0.5 70v212h-83v44l114 15l-31 -16l1 6q5 55 13 96t24 73t45 59q30 29 63 40t67 11q35 0 62 -12.5t34 -41.5q-1 -19 -17 -32.5t-44 -13.5q-19 0 -36 8t-36 23l-47 37v9h72v-6q-28 -4 -46.5 -15t-35.5 -37
q-10 -16 -18 -36t-12.5 -47t-5.5 -64t2 -87v-225q0 -35 0.5 -70l1 -70t1.5 -70h-91zM159 422v53h179v-53h-179z" />
    <glyph glyph-name="g" unicode="g" horiz-adv-x="518" 
d="M232 -240q-68 0 -111.5 15.5t-64 43.5t-20.5 63q0 25 12 46t41 41.5t79 40.5l6 -6q-20 -19 -32.5 -36t-18 -33.5t-5.5 -36.5q0 -32 16 -52.5t45 -29.5t68 -9q55 0 92.5 13.5t56.5 36.5t19 51q0 34 -23 56t-77 22h-117q-13 0 -27 1t-26 3v3q-38 8 -57.5 28t-19.5 52
q0 25 18 53.5t62 67.5v11l34 -15q-22 -23 -32 -40.5t-10 -34.5q0 -28 17 -41t53 -13h119q55 0 90.5 -15t53 -43.5t17.5 -68.5q0 -33 -16.5 -64t-48.5 -56t-80.5 -39.5t-112.5 -14.5zM239 160q-52 0 -93 18.5t-64 55t-23 90.5q0 53 23.5 89.5t64.5 55.5t93 19q30 0 55.5 -6
t47 -17.5t37.5 -28.5l2 -2q18 -20 28 -47.5t10 -62.5q0 -52 -23.5 -89t-64.5 -56t-93 -19zM237 200q32 0 55 16.5t35 45t12 65.5q0 36 -11.5 63t-33.5 42t-53 15t-54 -16t-35 -43.5t-12 -64.5q0 -36 11.5 -64t33 -43.5t52.5 -15.5zM343 415v27h6l131 46l15 -10v-63h-152z
" />
    <glyph glyph-name="h" unicode="h" horiz-adv-x="601" 
d="M30 0v36l109 20h23l100 -20v-36h-232zM104 0q1 23 1.5 60.5t1 78t0.5 71.5v439l-82 10v36l153 45l14 -8l-4 -143v-211l3 -13v-155q0 -31 0.5 -71.5t1 -78t1.5 -60.5h-90zM339 0v36l109 20h23l100 -20v-36h-232zM411 0q1 23 1.5 60t1 77.5t0.5 72.5v85q0 69 -19 95t-63 26
q-24 0 -47 -7t-47 -22t-52 -41l-19 38h11q25 30 57 53.5t67 37t69 13.5q65 0 96.5 -43.5t31.5 -141.5v-93q0 -32 0.5 -72.5t1 -77.5t1.5 -60h-91z" />
    <glyph glyph-name="i" unicode="i" horiz-adv-x="298" 
d="M35 0v36l109 20h23l100 -20v-36h-232zM108 0q1 23 1.5 60.5t1 78t0.5 71.5v47q0 41 -0.5 68.5t-2.5 57.5l-79 9v35l155 61l15 -10l-3 -136v-132q0 -31 0.5 -71.5t1 -78t1.5 -60.5h-91zM148 589q-28 0 -47.5 18t-19.5 46t19.5 46t47.5 18t47.5 -18t19.5 -46t-19.5 -46
t-47.5 -18z" />
    <glyph glyph-name="j" unicode="j" horiz-adv-x="277" 
d="M6 -250q-30 0 -49.5 9t-29 22.5t-10.5 26.5q7 21 22 31t37 10q20 0 38 -7.5t37 -22.5l45 -34v-5h-40v9q11 5 19 14t15 26q8 21 12.5 56.5t6.5 88.5t2 128v155q0 41 -0.5 68.5t-2.5 57.5l-79 9v35l151 61l15 -10l-3 -136v-242q0 -81 -4 -137t-17.5 -93.5t-40.5 -64.5
q-26 -26 -53 -40.5t-71 -14.5zM148 589q-28 0 -47.5 18t-19.5 46t19.5 46t47.5 18q29 0 48 -18t19 -46t-19 -46t-48 -18z" />
    <glyph glyph-name="k" unicode="k" horiz-adv-x="547" 
d="M25 0v36l112 20h23l113 -20v-36h-248zM104 0q1 26 1.5 52t1 52.5t0.5 53v52.5v439l-82 10v36l156 45l14 -8l-4 -143v-379v-52.5t0.5 -53t1 -52.5t1.5 -52h-90zM149 137v62h3l132 138l133 138h62zM411 0l-165 266l60 60l175 -278l66 -12v-36h-136zM288 436v39h233v-39
l-111 -17l-30 -6z" />
    <glyph glyph-name="l" unicode="l" horiz-adv-x="298" 
d="M25 0v36l112 20h23l113 -20v-36h-248zM104 0q1 35 1.5 70l1 70t0.5 70v439l-82 10v36l156 45l14 -8l-4 -143v-379q0 -35 0.5 -70l1 -70t1.5 -70h-90z" />
    <glyph glyph-name="m" unicode="m" horiz-adv-x="901" 
d="M40 0v36l109 20h23l100 -20v-36h-232zM113 0q1 23 1.5 60.5t1 78t0.5 71.5v48q0 28 -0.5 48.5t-1 38.5t-1.5 38l-79 9v35l140 61l15 -10l12 -116v-2v-150q0 -31 0.5 -71.5t1 -78t1.5 -60.5h-91zM340 0v36l109 20h23l100 -20v-36h-232zM413 0q1 23 1.5 60t1 77.5t0.5 72.5
v85q0 68 -19 94.5t-63 26.5q-24 0 -46.5 -7t-46 -22.5t-50.5 -39.5l-16 34h9q24 31 54.5 55t65 38t68.5 14q65 0 96.5 -43.5t31.5 -141.5v-93q0 -32 0.5 -72.5t1 -77.5t1.5 -60h-90zM640 0v36l109 20h23l100 -20v-36h-232zM713 0q1 23 1.5 60t1 77.5t0.5 72.5v87
q0 70 -20 94.5t-64 24.5q-22 0 -44 -6.5t-45.5 -21.5t-51.5 -41l-20 32h8q27 36 58 60.5t65.5 36.5t69.5 12q61 0 94.5 -41t33.5 -134v-103q0 -32 0.5 -72.5t1 -77.5t1.5 -60h-90z" />
    <glyph glyph-name="n" unicode="n" horiz-adv-x="606" 
d="M40 0v36l109 20h23l100 -20v-36h-232zM113 0q1 23 1.5 60.5t1 78t0.5 71.5v48q0 28 -0.5 48.5t-1 38.5t-1.5 38l-79 9v35l140 61l15 -10l12 -116v-1v-151q0 -31 0.5 -71.5t1 -78t1.5 -60.5h-91zM344 0v36l109 20h23l100 -20v-36h-232zM417 0q1 23 1.5 60t1 77.5t0.5 72.5
v85q0 69 -19.5 95t-63.5 26q-24 0 -47 -7t-47 -22t-52 -40l-13 38h8q25 30 56.5 53t66 36.5t67.5 13.5q65 0 96.5 -43.5t31.5 -141.5v-93q0 -32 0.5 -72.5t1 -77.5t1.5 -60h-90z" />
    <glyph glyph-name="o" unicode="o" horiz-adv-x="549" 
d="M274 -13q-58 0 -110.5 27.5t-85.5 83t-33 137.5q0 83 33 139.5t85.5 85t110.5 28.5t110.5 -28.5t86 -85t33.5 -139.5q0 -82 -33.5 -137.5t-86 -83t-110.5 -27.5zM274 32q43 0 73 23t46 68t16 112q0 68 -16 114t-46 69.5t-73 23.5t-73 -23.5t-45.5 -69.5t-15.5 -114
q0 -67 15.5 -112t45.5 -68t73 -23z" />
    <glyph glyph-name="p" unicode="p" horiz-adv-x="583" 
d="M35 -240v36l112 20h24l121 -20v-36h-257zM114 -240q1 36 1.5 71t1 70.5t0.5 70.5v286q0 28 -0.5 48.5t-1 38.5t-1.5 38l-79 9v35l140 61l15 -10l8 -85l4 -3v-312l-3 -6v-99q0 -34 0.5 -70t1 -71.5t1.5 -71.5h-88zM332 -13q-27 0 -53.5 8.5t-52.5 29.5t-50 58h-20l9 53
q38 -49 74 -70.5t73 -21.5q38 0 68.5 20t49 61.5t18.5 105.5q0 96 -35 148t-90 52q-19 0 -42.5 -8t-52 -27t-64.5 -54l-9 48h21q27 34 55 55.5t57 32t59 10.5q54 0 97 -30t68.5 -85.5t25.5 -133.5q0 -77 -27 -133.5t-73.5 -87.5t-105.5 -31z" />
    <glyph glyph-name="q" unicode="q" horiz-adv-x="557" 
d="M299 -240v36l121 20h24l112 -20v-36h-257zM249 -13q-61 0 -107 31t-71.5 86t-25.5 128q0 77 27.5 134.5t75.5 89.5t107 32q26 0 51.5 -8t50.5 -26.5t49 -50.5h12l-10 -44q-43 42 -74.5 57t-60.5 15q-37 0 -68.5 -21t-50.5 -64.5t-19 -111.5q0 -65 18 -107.5t49.5 -62.5
t71.5 -20q38 0 67.5 19t63.5 62l9 -42h-9q-21 -33 -44.5 -54.5t-51 -31.5t-60.5 -10zM390 -240q1 35 1.5 71t1 71.5t0.5 70.5v99l-3 14v328v2l71 72l16 -10l-3 -135v-370q0 -35 0.5 -70.5t1 -71.5t1.5 -71h-87z" />
    <glyph glyph-name="r" unicode="r" horiz-adv-x="423" 
d="M42 0v36l109 20h25l109 -20v-36h-243zM113 0q1 23 1.5 60.5t1 78t0.5 71.5v48q0 28 -0.5 48.5t-1 38.5t-1.5 38l-79 9v35l140 61l15 -10l12 -125v-2v-141q0 -31 0.5 -71.5t1 -78t1.5 -60.5h-91zM199 278l-15 68h11q16 45 40 76.5t52.5 48.5t56.5 17q23 0 43 -10t29 -27
q0 -35 -14.5 -54t-44.5 -19q-17 0 -32 6.5t-29 18.5l-27 24l49 9q-46 -24 -74 -62.5t-45 -95.5z" />
    <glyph glyph-name="s" unicode="s" horiz-adv-x="434" 
d="M200 -13q-42 0 -77 9.5t-72 28.5l-4 110h55l26 -119h-41v53q25 -19 53 -28t62 -9q38 0 63 9.5t37 27t12 39.5q0 32 -23 51.5t-70 35.5l-46 17q-36 14 -63.5 32t-42.5 43.5t-15 59.5q0 37 20 69t59 52t95 20q41 0 74.5 -10.5t65.5 -30.5l-4 -102h-52l-20 102h37v-43
q-24 19 -49.5 28.5t-52.5 9.5q-46 0 -69.5 -18.5t-23.5 -49.5q0 -33 20.5 -50t71.5 -36l31 -11q50 -18 80.5 -40.5t44 -48.5t13.5 -58q0 -38 -22 -70.5t-65 -52.5t-108 -20z" />
    <glyph glyph-name="t" unicode="t" horiz-adv-x="325" 
d="M134 422v53h179v-53h-179zM205 -13q-52 0 -83 28t-31 86q0 19 0.5 37.5t0.5 47.5v236h-83v44l124 15l-41 -33l32 163h60l-7 -156v-20v-323q0 -38 15 -55.5t40 -17.5q17 0 32.5 7t34.5 20l24 -26q-13 -17 -31 -29t-39.5 -18t-47.5 -6z" />
    <glyph glyph-name="u" unicode="u" horiz-adv-x="583" 
d="M223 -13q-61 0 -96 40.5t-34 139.5l3 264l21 -20l-92 20v36l147 14l10 -10l-5 -129v-166q0 -65 20 -91.5t60 -26.5q25 0 50.5 8.5t51 25.5t49.5 42l15 -43h-15q-27 -36 -58 -59t-63 -34t-64 -11zM410 -8l-13 117v2l3 306l-71 14v36l145 14l10 -10l-3 -129v-292l68 -14
v-36z" />
    <glyph glyph-name="v" unicode="v" horiz-adv-x="505" 
d="M236 -6l-202 481h100l153 -401h-21l5 15l135 386h55l-182 -481h-43zM0 436v39h242v-39l-120 -17h-25zM306 436v39h190v-39l-71 -17h-20z" />
    <glyph glyph-name="w" unicode="w" horiz-adv-x="764" 
d="M218 -6l-179 481h94l130 -386h-20l5 15l136 371h34l144 -385h-19l4 14l114 371h57l-164 -481h-37l-140 382h20l-5 -13l-137 -369h-37zM0 436v39h228v-39l-109 -17h-21zM291 436v39h221v-39l-95 -17h-21zM571 436v39h183v-39l-71 -17h-20z" />
    <glyph glyph-name="x" unicode="x" horiz-adv-x="526" 
d="M10 0v36l86 16h22l92 -16v-36h-200zM35 0l210 260l35 -25h-1l-91 -117l-91 -118h-62zM272 0v36l111 20h23l110 -20v-36h-244zM278 220l-34 29h3l87 113l88 113h63zM377 0l-146 212l-179 263h93l140 -203l190 -272h-98zM17 436v39h223v-39l-95 -17h-24zM316 436v39h187
v-39l-83 -16h-22z" />
    <glyph glyph-name="y" unicode="y" horiz-adv-x="512" 
d="M92 -250q-25 0 -46 8.5t-33.5 24t-12.5 34.5q5 22 24.5 33t42.5 11q20 0 37 -8.5t37 -29.5l31 -32l-39 -23l-27 23q33 17 57.5 43.5t42.5 59.5t30 68l16 46l3 7l90 249l76 211h55l-179 -472q-33 -88 -64.5 -144t-65.5 -82.5t-75 -26.5zM251 -53l-210 528h97l149 -403
l7 -20zM4 439v36h240v-37l-118 -14h-25zM317 439v36h195v-36l-71 -15h-20z" />
    <glyph glyph-name="z" unicode="z" horiz-adv-x="456" 
d="M29 0v35l304 421v-34l-9 10h-110h-130l37 29l-34 -140l-52 4l8 150h373v-36l-303 -421l10 45v-21h117h139l-37 -29l37 150h52l-10 -163h-392z" />
    <glyph glyph-name="braceleft" unicode="{" horiz-adv-x="344" 
d="M40 258v40q42 6 68.5 18t38.5 30.5t12 43.5q0 20 -6.5 43t-14.5 48.5t-14.5 53.5t-6.5 59q0 40 18 66.5t52.5 40.5t81.5 14h45v-40l-27 -3q-34 -4 -55.5 -12t-31.5 -24.5t-10 -45.5q0 -38 5.5 -73.5t11 -65.5t5.5 -50q0 -38 -14 -66.5t-44.5 -44.5t-78.5 -17v10
q48 -1 78.5 -17t44.5 -44t14 -67q0 -20 -5.5 -49.5t-11 -65.5t-5.5 -74q0 -29 10 -45.5t31.5 -24.5t55.5 -12l27 -3v-40h-45q-47 0 -81.5 14t-52.5 41t-18 66q0 31 6.5 59t14.5 53.5t14.5 48.5t6.5 43q0 25 -12 43.5t-38.5 31t-68.5 17.5z" />
    <glyph glyph-name="bar" unicode="|" horiz-adv-x="291" 
d="M116 -250v1000h59v-1000h-59z" />
    <glyph glyph-name="braceright" unicode="}" horiz-adv-x="344" 
d="M304 298v-40q-42 -6 -68.5 -18t-38.5 -30.5t-12 -43.5q0 -20 6.5 -43t14.5 -48.5t14.5 -53.5t6.5 -59q0 -40 -18 -66.5t-52.5 -40.5t-81.5 -14h-45v40l27 3q34 4 55.5 12t31.5 24.5t10 45.5q0 38 -5.5 73.5t-11 65.5t-5.5 50q0 38 14 66.5t44.5 44.5t78.5 17v-10
q-48 1 -78.5 17t-44.5 44t-14 67q0 20 5.5 49.5t11 65.5t5.5 74q0 29 -10 45.5t-31.5 24.5t-55.5 12l-27 3v40h45q47 0 81.5 -14t52.5 -41t18 -66q0 -31 -6.5 -59t-14.5 -53.5t-14.5 -48.5t-6.5 -43q0 -25 12 -43.5t38.5 -31t68.5 -17.5z" />
    <glyph glyph-name="asciitilde" unicode="~" horiz-adv-x="530" 
d="M285 367q23 -23 43.5 -32t39.5 -9q21 0 39 19.5t25 71.5l50 -8q-2 -46 -16.5 -77.5t-40.5 -47.5t-63 -16q-31 0 -58.5 13.5t-56.5 41.5q-24 24 -44 32.5t-40 8.5q-21 0 -38.5 -19t-24.5 -72l-51 8q3 46 17.5 77.5t40 47.5t62.5 16q32 0 59.5 -13t56.5 -42z" />
    <glyph glyph-name="exclamdown" unicode="&#xa1;" horiz-adv-x="289" 
d="M144 489q27 0 46 -19.5t19 -45.5t-19 -45.5t-46 -19.5t-45.5 19.5t-18.5 45.5t18.5 45.5t45.5 19.5zM144 -209q-26 0 -41.5 15t-15.5 48q0 14 2 38.5t5.5 58.5t8 77.5t9.5 95.5l14 137h37l13 -137q6 -52 10.5 -95.5t8 -77.5t5.5 -58.5t2 -38.5q0 -33 -15.5 -48t-42.5 -15
z" />
    <glyph glyph-name="cent" unicode="&#xa2;" horiz-adv-x="500" 
d="M289 -45h-41v706h41v-706zM277 524q-42 0 -75.5 -23.5t-52.5 -68.5t-19 -109q0 -63 19.5 -107t53.5 -67t79 -23q30 0 58 9t51.5 26.5t39.5 42.5l24 -13q-13 -41 -39 -70t-64 -44t-87 -15q-67 0 -117 31t-77.5 87.5t-27.5 133.5q0 79 33 136t86.5 88t114.5 31
q45 0 82.5 -17t62.5 -46.5t31 -67.5q-4 -19 -15.5 -28.5t-31.5 -9.5q-16 0 -28 8t-20.5 25t-15.5 44l-14 59l47 -37q-17 9 -34 14.5t-33 8t-31 2.5z" />
    <glyph glyph-name="sterling" unicode="&#xa3;" horiz-adv-x="500" 
d="M41 284v51h343v-51h-343zM35 0v52q36 20 61 51.5t38 69.5t13 77q0 35 -8.5 61t-20 49.5t-20 51t-8.5 63.5q0 53 24 94.5t66 66t97 24.5q46 0 85 -18.5t63.5 -51.5t26.5 -76q-6 -16 -18 -24t-28 -8q-14 0 -25.5 6t-19.5 21t-14 40l-17 76l57 -32q-29 13 -53.5 17.5
t-41.5 4.5q-46 0 -78 -31.5t-32 -103.5q0 -33 3.5 -59.5t8 -52t8 -52t3.5 -59.5q0 -50 -13 -87.5t-38 -64.5t-61 -46l24 45v-22h349v-82h-431z" />
    <glyph glyph-name="currency" unicode="&#xa4;" horiz-adv-x="502" 
d="M368 428l-18 18l28 47q20 34 33 46t26 12q15 0 26 -10.5t11 -25.5q0 -13 -12 -26t-46 -33zM143 329q0 -33 14.5 -58t39.5 -39.5t54 -14.5q30 0 54.5 14.5t39 39.5t14.5 58t-14.5 58t-39 39t-54.5 14q-29 0 -54 -14t-39.5 -39t-14.5 -58zM86 329q0 49 22.5 85.5t60.5 57
t82 20.5q45 0 82.5 -20.5t60 -57t22.5 -85.5t-22.5 -85.5t-60 -57t-82.5 -20.5q-44 0 -82 20.5t-60.5 57t-22.5 85.5zM152 446l-18 -18l-47 28q-34 20 -46 33t-12 26q0 15 10.5 25.5t25.5 10.5q14 0 27 -12t32 -46zM134 230l18 -18l-28 -48q-19 -34 -32 -46t-27 -12
q-15 0 -25.5 10.5t-10.5 26.5q0 14 12 26.5t46 32.5zM350 212l18 18l48 -28q34 -20 46 -32.5t12 -26.5q0 -15 -11 -26t-26 -11q-13 0 -26 12t-33 46z" />
    <glyph glyph-name="yen" unicode="&#xa5;" horiz-adv-x="500" 
d="M277 239h-51l-192 408h100l145 -336h-16l6 12l145 324h50zM105 593l-116 15v39h243v-39l-117 -15h-10zM240 54h21l136 -14v-40h-292v40zM210 192v119h80v-119q0 -32 0.5 -62.5t1 -62t1.5 -67.5h-86q1 35 1.5 66.5t1 62.5t0.5 63zM419 593l-100 15v39h192v-39l-86 -15h-6z
M50 148v50h407v-50h-407zM50 270v50h407v-50h-407z" />
    <glyph glyph-name="brokenbar" unicode="&#xa6;" horiz-adv-x="291" 
d="M116 -250v450h59v-450h-59zM175 320h-59v430h59v-430z" />
    <glyph glyph-name="section" unicode="&#xa7;" horiz-adv-x="491" 
d="M226 -109q-45 0 -81.5 16.5t-57 42.5t-19.5 55q9 20 20.5 27t27.5 7q22 0 37.5 -15.5t26.5 -44.5l25 -61l-23 19q11 -3 19 -3.5t17 -0.5q56 0 82 20.5t26 62.5q0 24 -10 42.5t-37 37.5t-78 41q-45 21 -80.5 42.5t-55.5 51.5t-20 74q0 34 14 62t42 47.5t70 29.5v13l17 -42
q-40 -10 -56 -32.5t-16 -54.5q0 -22 9.5 -38t36 -33t77.5 -42q15 -6 28.5 -13.5t27.5 -15t28 -15.5v-7q35 -22 55.5 -54t20.5 -77q0 -42 -18 -74t-56 -50t-99 -18zM263 685q46 0 82.5 -16.5t57.5 -43t19 -55.5q-10 -19 -20 -26t-26 -7q-22 0 -38 16t-27 45l-25 61l30 -22
q-13 4 -23.5 5.5t-21.5 1.5q-60 0 -83.5 -21.5t-23.5 -53.5q0 -24 10.5 -41.5t37.5 -35t78 -41.5t85.5 -46.5t52.5 -51t18 -70.5q0 -36 -16 -63.5t-44.5 -46t-68.5 -28.5v-11l-15 42q35 10 54 33.5t19 54.5q0 22 -12 39t-39.5 34t-73.5 37q-18 8 -34 16.5t-29.5 17
t-26.5 16.5v6q-38 26 -53.5 55t-15.5 68q0 35 16.5 65t54.5 48.5t101 18.5z" />
    <glyph glyph-name="dieresis" unicode="&#xa8;" horiz-adv-x="400" 
d="M95 596q-24 0 -41.5 16t-17.5 41q0 24 17.5 40.5t41.5 16.5q25 0 42.5 -16.5t17.5 -40.5q0 -25 -17.5 -41t-42.5 -16zM305 596q-25 0 -42.5 16t-17.5 41q0 24 17.5 40.5t42.5 16.5q24 0 41.5 -16.5t17.5 -40.5q0 -25 -17.5 -41t-41.5 -16z" />
    <glyph glyph-name="copyright" unicode="&#xa9;" horiz-adv-x="755" 
d="M378 -15q-73 0 -136 24t-110.5 70t-74.5 111t-27 147q0 81 27 145.5t74.5 110t110.5 69t136 23.5q72 0 135 -23.5t110.5 -69t74.5 -110t27 -145.5q0 -82 -27 -147t-74.5 -111t-110.5 -70t-135 -24zM378 25q63 0 117 21.5t94.5 62.5t63 98.5t22.5 129.5t-22.5 129t-63 97
t-94.5 61t-117 21t-117 -21t-94.5 -61t-63 -97t-22.5 -129t22.5 -130t63 -98.5t94.5 -62t117 -21.5zM394 134q-58 0 -102 26t-69 72t-25 105q0 44 14.5 81.5t41 65t62 43t77.5 15.5q32 0 58.5 -5.5t55.5 -22.5l2 -96h-43l-15 97l44 -49q-25 20 -49 28.5t-44 8.5
q-36 0 -66 -19t-47.5 -55.5t-17.5 -90.5q0 -53 16.5 -89.5t46 -55t68.5 -18.5q17 0 46 7t52 27l-44 -48l15 96h44l-3 -95q-27 -14 -56.5 -21t-61.5 -7z" />
    <glyph glyph-name="ordfeminine" unicode="&#xaa;" horiz-adv-x="351" 
d="M283 420q-33 0 -50 19.5t-17 52.5v2v148q0 46 -13.5 62t-48.5 16q-12 0 -27 -2t-35 -9l34 21l-13 -51q-6 -22 -16 -33t-25 -11t-24 8t-11 22q8 38 44.5 62t93.5 24q56 0 82.5 -27t26.5 -91v-143q0 -16 5 -23.5t15 -7.5q8 0 13.5 4t12.5 11l15 -13q-11 -23 -26.5 -32
t-35.5 -9zM118 418q-38 0 -64 21.5t-26 61.5q0 31 23 56.5t93 46.5q25 8 53 15t53 13v-25q-23 -6 -46.5 -12.5t-43.5 -13.5q-37 -13 -49.5 -30.5t-12.5 -36.5q0 -26 16 -37.5t35 -11.5q15 0 28.5 8t41.5 27l25 -1l-23 -24q-28 -28 -49.5 -42.5t-53.5 -14.5z" />
    <glyph glyph-name="guillemotleft" unicode="&#xab;" horiz-adv-x="487" 
d="M235 50l-205 176v53l205 176l24 -27l-167 -196v41l167 -196zM437 50l-205 176v53l205 176l24 -27l-167 -196v41l167 -196z" />
    <glyph glyph-name="logicalnot" unicode="&#xac;" horiz-adv-x="530" 
d="M29 343v57h473v-241h-62v205l18 -21h-429z" />
    <glyph glyph-name="registered" unicode="&#xae;" horiz-adv-x="459" 
d="M336 434v-15q-10 -2 -16 -3t-14 -1q-19 0 -27.5 5t-11.5 21l-9 43q-2 13 -11.5 18.5t-23.5 5.5h-36v17h35q22 0 31 12t9 28q0 19 -10 28.5t-30 9.5h-35v17h45q36 0 56 -14t20 -37q0 -20 -19.5 -38.5t-69.5 -18.5l15 7q28 0 47 -10t23 -31l10 -52l-25 13zM181 439h8l48 -5
v-15h-100v15zM181 599l-44 5v16h50v-21h-6zM65 516q0 -51 22.5 -89t60 -58.5t81.5 -20.5q45 0 82.5 20.5t60 58.5t22.5 89t-22.5 88t-60 57t-82.5 20q-44 0 -81.5 -20t-60 -57t-22.5 -88zM166 419v201h43v-201h-43zM30 516q0 62 27.5 105.5t73 67t98.5 23.5q54 0 99.5 -23.5
t73 -67t27.5 -105.5q0 -61 -27.5 -106t-73 -69t-99.5 -24q-55 0 -100 24t-72 69t-27 106z" />
    <glyph glyph-name="macron" unicode="&#xaf;" horiz-adv-x="400" 
d="M80 596v63h240v-63h-240z" />
    <glyph glyph-name="degree" unicode="&#xb0;" horiz-adv-x="328" 
d="M164 464q36 0 60.5 26.5t24.5 65.5t-24.5 66.5t-60.5 27.5t-60.5 -27.5t-24.5 -66.5t24.5 -65.5t60.5 -26.5zM164 428q-34 0 -63 15.5t-46.5 44.5t-17.5 68t17.5 68t46.5 45t63 16q35 0 63.5 -16t46 -45t17.5 -68t-17.5 -68t-46 -44.5t-63.5 -15.5z" />
    <glyph glyph-name="plusminus" unicode="&#xb1;" horiz-adv-x="530" 
d="M235 98v460h61v-460h-61zM502 302h-473v58h473v-58zM502 0h-473v58h473v-58z" />
    <glyph glyph-name="uni00B2" unicode="&#xb2;" horiz-adv-x="370" 
d="M54 427v50l93 89q30 29 49.5 54.5t29 50.5t9.5 50q0 38 -20 58t-55 20q-13 0 -28.5 -2.5t-33.5 -10.5l40 28l-14 -56q-7 -29 -16 -39.5t-23 -10.5q-12 0 -21.5 6.5t-15.5 17.5q4 51 45 76t94 25q65 0 93 -32t28 -72q0 -29 -13.5 -55.5t-42 -57t-73.5 -72.5l-81 -74l20 39
v-12h205v-70h-269z" />
    <glyph glyph-name="uni00B3" unicode="&#xb3;" horiz-adv-x="370" 
d="M179 418q-58 0 -92 24.5t-42 70.5q5 15 15 20.5t20 5.5q14 0 24 -9.5t15 -38.5l12 -57l-26 27q15 -5 28.5 -7.5t26.5 -2.5q44 0 68 22.5t24 62.5q0 37 -22 58t-71 21h-30v40h25q41 0 61.5 18.5t20.5 53.5t-19.5 53.5t-53.5 18.5q-9 0 -21 -1.5t-29 -6.5l29 23l-10 -53
q-4 -22 -14.5 -32t-24.5 -10q-10 0 -19.5 5.5t-14.5 15.5q4 32 21.5 52.5t44.5 30.5t58 10q56 0 90 -27t34 -71q0 -43 -30.5 -73t-77.5 -30l-7 8q64 0 98.5 -28t34.5 -79q0 -41 -21 -66.5t-54.5 -37t-70.5 -11.5z" />
    <glyph glyph-name="acute" unicode="&#xb4;" horiz-adv-x="400" 
d="M140 576q14 24 28.5 47t29.5 46.5t31 47.5q14 23 27.5 32t26.5 9q14 0 26 -9t12 -29q0 -10 -6.5 -22.5t-27.5 -32.5l-40 -36l-40 -36t-41 -36z" />
    <glyph glyph-name="uni03BC" unicode="&#x3bc;" horiz-adv-x="569" 
d="M79 -180l21 282l-15 367l85 19l11 -10q-4 -74 -7.5 -130t-6.5 -98.5t-4.5 -77.5t-1.5 -68l-14 -20l27 -256l-83 -18zM471 -13q-44 0 -59.5 36.5t-17.5 100.5v3l-7 342l86 19l10 -10q-6 -75 -10.5 -128.5t-7.5 -91.5t-4.5 -67t-0.5 -55q2 -47 11 -63.5t34 -16.5
q10 0 21 2.5t20 6.5l9 -25q-12 -22 -33 -37.5t-51 -15.5zM261 -13q-34 0 -70.5 27t-53.5 80h-2l24 59q23 -54 53 -71.5t59 -17.5q27 0 49 9.5t41 35.5t37 74l20 -19h-2q-17 -62 -40 -101.5t-52 -57.5t-63 -18z" />
    <glyph glyph-name="uni03BC" unicode="&#xb5;" horiz-adv-x="569" 
d="M79 -180l21 282l-15 367l85 19l11 -10q-4 -74 -7.5 -130t-6.5 -98.5t-4.5 -77.5t-1.5 -68l-14 -20l27 -256l-83 -18zM471 -13q-44 0 -59.5 36.5t-17.5 100.5v3l-7 342l86 19l10 -10q-6 -75 -10.5 -128.5t-7.5 -91.5t-4.5 -67t-0.5 -55q2 -47 11 -63.5t34 -16.5
q10 0 21 2.5t20 6.5l9 -25q-12 -22 -33 -37.5t-51 -15.5zM261 -13q-34 0 -70.5 27t-53.5 80h-2l24 59q23 -54 53 -71.5t59 -17.5q27 0 49 9.5t41 35.5t37 74l20 -19h-2q-17 -62 -40 -101.5t-52 -57.5t-63 -18z" />
    <glyph glyph-name="paragraph" unicode="&#xb6;" horiz-adv-x="598" 
d="M316 149q-69 0 -123.5 19.5t-91.5 55t-56.5 83.5t-19.5 105q0 59 23 106.5t66 81.5t104 52t137 18h63v-46h-102v-475zM381 -129q2 51 2.5 102t0.5 103.5v104.5v489h79q-1 -50 -2 -102t-1 -104v-105v-178v-103t1 -103.5t2 -103.5h-82zM418 614v56h136v-41l-130 -15h-6z
" />
    <glyph glyph-name="periodcentered" unicode="&#xb7;" horiz-adv-x="300" 
d="M150 261q-30 0 -50.5 21t-20.5 50q0 30 20.5 51t50.5 21t50.5 -21t20.5 -51q0 -29 -20.5 -50t-50.5 -21z" />
    <glyph glyph-name="cedilla" unicode="&#xb8;" horiz-adv-x="400" 
d="M146 -86l13 89h37l-10 -80l-20 22q31 -2 56.5 -11.5t41.5 -27.5t16 -46q0 -34 -28.5 -57.5t-83.5 -23.5q-22 0 -37.5 3.5t-25.5 6.5l7 33q12 -2 23.5 -4t24.5 -2q29 0 43.5 12.5t14.5 33.5q0 23 -17.5 35t-54.5 17z" />
    <glyph glyph-name="uni00B9" unicode="&#xb9;" horiz-adv-x="370" 
d="M66 427v29l94 17h62l93 -17v-29h-249zM156 427v340l-77 -6v37l139 32l9 -6v-397h-71z" />
    <glyph glyph-name="ordmasculine" unicode="&#xba;" horiz-adv-x="377" 
d="M189 417q-42 0 -78.5 20t-59.5 57.5t-23 89.5q0 53 23 90t60 57t78 20t77.5 -20t59.5 -57t23 -90t-22.5 -90.5t-59 -57t-78.5 -19.5zM189 452q29 0 49 14t30.5 43.5t10.5 74.5t-10.5 74t-30.5 43.5t-49 14.5t-49.5 -14.5t-31 -43.5t-10.5 -74t10.5 -74.5t31 -43.5
t49.5 -14z" />
    <glyph glyph-name="guillemotright" unicode="&#xbb;" horiz-adv-x="487" 
d="M252 455l205 -176v-53l-205 -176l-24 27l167 196v-41l-167 196zM50 455l205 -176v-53l-205 -176l-24 27l167 196v-41l-167 196z" />
    <glyph glyph-name="onequarter" unicode="&#xbc;" horiz-adv-x="850" 
d="M66 274v29l94 17h62l93 -17v-29h-249zM156 274v340l-77 -6v37l139 32l9 -6v-397h-71zM223 -25l-31 25l465 669l31 -25zM682 0v122v18v205h-7l38 31l-81 -116l-81 -116l5 28v-14h255v-57h-299v46l188 256h47v-403h-65z" />
    <glyph glyph-name="onehalf" unicode="&#xbd;" horiz-adv-x="880" 
d="M66 274v29l94 17h62l93 -17v-29h-249zM156 274v340l-77 -6v37l139 32l9 -6v-397h-71zM223 -25l-31 25l465 669l31 -25zM564 0v50l93 89q30 29 49.5 54.5t29 50.5t9.5 50q0 38 -20 58t-55 20q-13 0 -28.5 -2.5t-33.5 -10.5l40 28l-14 -56q-7 -29 -16 -39.5t-23 -10.5
q-12 0 -21.5 6.5t-15.5 17.5q4 51 45 76t94 25q65 0 93 -32t28 -72q0 -29 -13.5 -55.5t-42 -57t-73.5 -72.5l-81 -74l20 39v-12h205v-70h-269z" />
    <glyph glyph-name="threequarters" unicode="&#xbe;" horiz-adv-x="850" 
d="M179 265q-58 0 -92 24.5t-42 70.5q5 15 15 20.5t20 5.5q14 0 24 -9.5t15 -38.5l12 -57l-26 27q15 -5 28.5 -7.5t26.5 -2.5q44 0 68 22.5t24 62.5q0 37 -22 58t-71 21h-30v40h25q41 0 61.5 18.5t20.5 53.5t-19.5 53.5t-53.5 18.5q-9 0 -21 -1.5t-29 -6.5l29 23l-10 -53
q-4 -22 -14.5 -32t-24.5 -10q-10 0 -19.5 5.5t-14.5 15.5q4 32 21.5 52.5t44.5 30.5t58 10q56 0 90 -27t34 -71q0 -43 -30.5 -73t-77.5 -30l-7 8q64 0 98.5 -28t34.5 -79q0 -41 -21 -66.5t-54.5 -37t-70.5 -11.5zM223 -25l-31 25l465 669l31 -25zM682 0v122v18v205h-7l38 31
l-81 -116l-81 -116l5 28v-14h255v-57h-299v46l188 256h47v-403h-65z" />
    <glyph glyph-name="questiondown" unicode="&#xbf;" horiz-adv-x="416" 
d="M267 489q27 0 45.5 -19.5t18.5 -45.5t-18.5 -45.5t-45.5 -19.5t-46 19.5t-19 45.5t19 45.5t46 19.5zM66 15q0 46 24.5 77.5t75.5 48.5l34 12q31 10 39 20t8 35v55h39l12 -42q9 -29 12.5 -45t3.5 -25q0 -23 -18 -38t-62 -28l-57 -18q-27 -9 -41.5 -27t-14.5 -43
q0 -36 24.5 -71.5t54.5 -63.5l-107 71l185 -33q44 -8 58 -21.5t14 -32.5q0 -23 -14 -35.5t-41 -19.5q-32 3 -71 20t-75 46.5t-59.5 69.5t-23.5 88z" />
    <glyph glyph-name="Agrave" unicode="&#xc0;" horiz-adv-x="664" 
d="M5 0v41l100 15h20l109 -15v-41h-229zM71 0l231 675h63l230 -675h-98l-198 591h20l-5 -15l-196 -576h-47zM177 217v47h286v-47h-286zM381 0v41l126 15h22l124 -15v-41h-272zM398 746l-18 -25q-32 17 -63.5 34t-62.5 33q-28 16 -39 29.5t-11 26.5q0 15 11 24.5t27 9.5
q13 0 27 -8.5t35 -29.5q25 -23 48.5 -46.5t45.5 -47.5z" />
    <glyph glyph-name="Aacute" unicode="&#xc1;" horiz-adv-x="664" 
d="M5 0v41l100 15h20l109 -15v-41h-229zM71 0l231 675h63l230 -675h-98l-198 591h20l-5 -15l-196 -576h-47zM177 217v47h286v-47h-286zM381 0v41l126 15h22l124 -15v-41h-272zM264 746q23 25 46.5 48.5t47.5 45.5q21 21 35 29.5t27 8.5q16 0 27 -9.5t11 -24.5
q0 -13 -10.5 -26t-39.5 -29q-31 -17 -62.5 -34t-63.5 -34z" />
    <glyph glyph-name="Acircumflex" unicode="&#xc2;" horiz-adv-x="664" 
d="M5 0v41l100 15h20l109 -15v-41h-229zM71 0l231 675h63l230 -675h-98l-198 591h20l-5 -15l-196 -576h-47zM177 217v47h286v-47h-286zM381 0v41l126 15h22l124 -15v-41h-272zM348 857l131 -115l-19 -25l-171 98h84l-171 -98l-19 25l131 115h34z" />
    <glyph glyph-name="Atilde" unicode="&#xc3;" horiz-adv-x="664" 
d="M5 0v41l100 15h20l109 -15v-41h-229zM71 0l231 675h63l230 -675h-98l-198 591h20l-5 -15l-196 -576h-47zM177 217v47h286v-47h-286zM381 0v41l126 15h22l124 -15v-41h-272zM151 735q9 59 34 94t71 35q27 0 46 -10.5t38 -26.5q17 -13 34 -29t39 -16q25 0 41 21.5t27 58.5
l30 -10q-10 -58 -34 -93t-70 -35q-28 0 -46.5 10t-35.5 23q-19 16 -36 32t-40 16q-24 0 -40.5 -21t-27.5 -58z" />
    <glyph glyph-name="Adieresis" unicode="&#xc4;" horiz-adv-x="664" 
d="M5 0v41l100 15h20l109 -15v-41h-229zM71 0l231 675h63l230 -675h-98l-198 591h20l-5 -15l-196 -576h-47zM177 217v47h286v-47h-286zM381 0v41l126 15h22l124 -15v-41h-272zM219 745q-23 0 -40.5 15.5t-17.5 39.5t17.5 39.5t40.5 15.5q24 0 40.5 -15.5t16.5 -39.5
t-16.5 -39.5t-40.5 -15.5zM442 745q-24 0 -40.5 15.5t-16.5 39.5t16.5 39.5t40.5 15.5q23 0 40.5 -15.5t17.5 -39.5t-17.5 -39.5t-40.5 -15.5z" />
    <glyph glyph-name="Aring" unicode="&#xc5;" horiz-adv-x="664" 
d="M5 0v41l100 15h20l109 -15v-41h-229zM71 0l231 675h63l230 -675h-98l-198 591h20l-5 -15l-196 -576h-47zM177 217v47h286v-47h-286zM381 0v41l126 15h22l124 -15v-41h-272zM331 723q-37 0 -66.5 24t-29.5 68t29.5 68.5t66.5 24.5t66.5 -24t29.5 -69q0 -43 -29.5 -67.5
t-66.5 -24.5zM331 758q25 0 38.5 18t13.5 39q0 22 -13 39t-39 17q-25 0 -38.5 -17t-13.5 -39q0 -21 13.5 -39t38.5 -18z" />
    <glyph glyph-name="AE" unicode="&#xc6;" horiz-adv-x="920" 
d="M455 0q1 40 1.5 81.5t1 84.5t0.5 89v415h92q-1 -50 -2 -102t-1 -104v-105v-37v-111.5t1 -106.5l2 -104h-95zM5 0v41l110 15h20l99 -15v-41h-229zM712 224l-15 111v20l15 105h46v-236h-46zM808 493l-22 127h-284v50h357l7 -177h-58zM502 0v50h304l22 128h58l-7 -178h-377z
M318 629v41h184v-56h-78zM368 0v41l124 15h10v-56h-134zM60 0l363 670h55l-214 -398l-146 -272h-58zM234 249v46h268v-46h-268zM502 318v47h227v-47h-227z" />
    <glyph glyph-name="Ccedilla" unicode="&#xc7;" horiz-adv-x="631" 
d="M386 -15q-76 0 -138 25.5t-107 72t-69.5 111t-24.5 141.5q0 76 25.5 140t71 111t107 73t134.5 26q41 0 92 -9.5t101 -38.5l4 -145h-62l-25 148l62 -14v-60q-42 39 -82.5 54t-76.5 15q-67 0 -122 -34.5t-87.5 -101t-32.5 -164.5t30 -165t83.5 -101t121.5 -34
q43 0 88.5 14.5t87.5 49.5v-55l-62 -14l25 148h62l-4 -145q-46 -25 -97.5 -36.5t-104.5 -11.5zM360 -86l13 89h37l-10 -80l-20 22q31 -2 56.5 -11.5t41.5 -27.5t16 -46q0 -34 -28.5 -57.5t-83.5 -23.5q-22 0 -37.5 3.5t-25.5 6.5l7 33q12 -2 23.5 -4t24.5 -2q29 0 43.5 12.5
t14.5 33.5q0 23 -17.5 35t-54.5 17z" />
    <glyph glyph-name="Egrave" unicode="&#xc8;" horiz-adv-x="603" 
d="M44 0v41l131 15h10v-56h-141zM135 0q2 51 2.5 102t0.5 103.5v104.5v49v104t-0.5 104t-2.5 103h101q-1 -50 -2 -102t-1 -104v-105v-37v-111.5t1 -106.5l2 -104h-101zM185 0v50h335l-35 -30l27 158h57l-7 -178h-377zM185 318v47h226v-47h-226zM394 224l-15 111v20l15 105
h46v-236h-46zM44 629v41h141v-56h-10zM492 493l-27 157l35 -30h-315v50h357l7 -177h-57zM398 746l-18 -25q-32 17 -63.5 34t-62.5 33q-28 16 -39 29.5t-11 26.5q0 15 11 24.5t27 9.5q13 0 27 -8.5t35 -29.5q25 -23 48.5 -46.5t45.5 -47.5z" />
    <glyph glyph-name="Eacute" unicode="&#xc9;" horiz-adv-x="603" 
d="M44 0v41l131 15h10v-56h-141zM135 0q2 51 2.5 102t0.5 103.5v104.5v49v104t-0.5 104t-2.5 103h101q-1 -50 -2 -102t-1 -104v-105v-37v-111.5t1 -106.5l2 -104h-101zM185 0v50h335l-35 -30l27 158h57l-7 -178h-377zM185 318v47h226v-47h-226zM394 224l-15 111v20l15 105
h46v-236h-46zM44 629v41h141v-56h-10zM492 493l-27 157l35 -30h-315v50h357l7 -177h-57zM264 746q23 25 46.5 48.5t47.5 45.5q21 21 35 29.5t27 8.5q16 0 27 -9.5t11 -24.5q0 -13 -10.5 -26t-39.5 -29q-31 -17 -62.5 -34t-63.5 -34z" />
    <glyph glyph-name="Ecircumflex" unicode="&#xca;" horiz-adv-x="603" 
d="M44 0v41l131 15h10v-56h-141zM135 0q2 51 2.5 102t0.5 103.5v104.5v49v104t-0.5 104t-2.5 103h101q-1 -50 -2 -102t-1 -104v-105v-37v-111.5t1 -106.5l2 -104h-101zM185 0v50h335l-35 -30l27 158h57l-7 -178h-377zM185 318v47h226v-47h-226zM394 224l-15 111v20l15 105
h46v-236h-46zM44 629v41h141v-56h-10zM492 493l-27 157l35 -30h-315v50h357l7 -177h-57zM348 857l131 -115l-19 -25l-171 98h84l-171 -98l-19 25l131 115h34z" />
    <glyph glyph-name="Edieresis" unicode="&#xcb;" horiz-adv-x="603" 
d="M44 0v41l131 15h10v-56h-141zM135 0q2 51 2.5 102t0.5 103.5v104.5v49v104t-0.5 104t-2.5 103h101q-1 -50 -2 -102t-1 -104v-105v-37v-111.5t1 -106.5l2 -104h-101zM185 0v50h335l-35 -30l27 158h57l-7 -178h-377zM185 318v47h226v-47h-226zM394 224l-15 111v20l15 105
h46v-236h-46zM44 629v41h141v-56h-10zM492 493l-27 157l35 -30h-315v50h357l7 -177h-57zM219 745q-23 0 -40.5 15.5t-17.5 39.5t17.5 39.5t40.5 15.5q24 0 40.5 -15.5t16.5 -39.5t-16.5 -39.5t-40.5 -15.5zM442 745q-24 0 -40.5 15.5t-16.5 39.5t16.5 39.5t40.5 15.5
q23 0 40.5 -15.5t17.5 -39.5t-17.5 -39.5t-40.5 -15.5z" />
    <glyph glyph-name="Igrave" unicode="&#xcc;" horiz-adv-x="371" 
d="M44 0v41l131 15h21l131 -15v-41h-283zM135 0q2 51 2.5 102t0.5 103.5v104.5v49v104t-0.5 104t-2.5 103h101q-1 -50 -2 -102t-1 -104v-105v-49v-103t1 -103.5t2 -103.5h-101zM44 629v41h283v-41l-131 -15h-21zM253 746l-18 -25q-32 17 -63.5 34t-62.5 33q-28 16 -39 29.5
t-11 26.5q0 15 11 24.5t27 9.5q13 0 27 -8.5t35 -29.5q25 -23 48.5 -46.5t45.5 -47.5z" />
    <glyph glyph-name="Iacute" unicode="&#xcd;" horiz-adv-x="371" 
d="M44 0v41l131 15h21l131 -15v-41h-283zM135 0q2 51 2.5 102t0.5 103.5v104.5v49v104t-0.5 104t-2.5 103h101q-1 -50 -2 -102t-1 -104v-105v-49v-103t1 -103.5t2 -103.5h-101zM44 629v41h283v-41l-131 -15h-21zM119 746q23 25 46.5 48.5t47.5 45.5q21 21 35 29.5t27 8.5
q16 0 27 -9.5t11 -24.5q0 -13 -10.5 -26t-39.5 -29q-31 -17 -62.5 -34t-63.5 -34z" />
    <glyph glyph-name="Icircumflex" unicode="&#xce;" horiz-adv-x="371" 
d="M44 0v41l131 15h21l131 -15v-41h-283zM135 0q2 51 2.5 102t0.5 103.5v104.5v49v104t-0.5 104t-2.5 103h101q-1 -50 -2 -102t-1 -104v-105v-49v-103t1 -103.5t2 -103.5h-101zM44 629v41h283v-41l-131 -15h-21zM203 857l131 -115l-19 -25l-171 98h84l-171 -98l-19 25
l131 115h34z" />
    <glyph glyph-name="Idieresis" unicode="&#xcf;" horiz-adv-x="371" 
d="M92 745q-22 0 -39 15.5t-17 39.5t17 39.5t39 15.5q25 0 41 -15.5t16 -39.5t-16 -39.5t-41 -15.5zM279 745q-25 0 -41 15.5t-16 39.5t16 39.5t41 15.5q23 0 40 -15.5t17 -39.5t-17 -39.5t-40 -15.5zM44 0v41l131 15h21l131 -15v-41h-283zM135 0q2 51 2.5 102t0.5 103.5
v104.5v49v104t-0.5 104t-2.5 103h101q-1 -50 -2 -102t-1 -104v-105v-49v-103t1 -103.5t2 -103.5h-101zM44 629v41h283v-41l-131 -15h-21z" />
    <glyph glyph-name="Eth" unicode="&#xd0;" horiz-adv-x="710" 
d="M386 319h-342v47h342v-47zM44 0v41l131 15h10v-56h-141zM135 0q2 51 2.5 102.5t0.5 106.5v113v37v104t-0.5 104t-2.5 103h101q-1 -50 -2 -102t-1 -104v-105v-37v-111.5t1 -106.5l2 -104h-101zM185 0v47h129q77 0 130.5 34t81.5 98t28 155q0 141 -61 215.5t-170 74.5h-138
v46h154q96 0 169 -39t114 -113.5t41 -183.5q0 -108 -45 -182.5t-122.5 -113t-175.5 -38.5h-135zM44 629v41h141v-56h-10z" />
    <glyph glyph-name="Ntilde" unicode="&#xd1;" horiz-adv-x="735" 
d="M39 0v41l105 15h21l116 -15v-41h-242zM124 0v647h51v-312v-335h-51zM454 629v41h241v-41l-100 -15h-20zM575 -7l-409 578h-2l-34 50l-86 8v41h165l367 -522l-17 -5v192v335h51v-677h-35zM191 735q9 59 34 94t71 35q27 0 46 -10.5t38 -26.5q17 -13 34 -29t39 -16
q25 0 41 21.5t27 58.5l30 -10q-10 -58 -34 -93t-70 -35q-28 0 -46.5 10t-35.5 23q-19 16 -36 32t-40 16q-24 0 -40.5 -21t-27.5 -58z" />
    <glyph glyph-name="Ograve" unicode="&#xd2;" horiz-adv-x="707" 
d="M354 -15q-58 0 -113 22.5t-99 66.5t-69.5 109.5t-25.5 151.5q0 82 26 147t69.5 110t98.5 69t113 24t112.5 -22.5t98 -67t69.5 -109.5t26 -151q0 -82 -25.5 -147t-69 -110.5t-98.5 -69t-113 -23.5zM354 35q52 0 89.5 25.5t61 68t34.5 96t11 110.5q0 56 -11 109.5
t-34.5 96.5t-61 68.5t-89.5 25.5t-89.5 -25.5t-61.5 -68.5t-35.5 -96.5t-11.5 -109.5q0 -57 11.5 -110.5t35.5 -96t61.5 -68t89.5 -25.5zM421 746l-18 -25q-32 17 -63.5 34t-62.5 33q-28 16 -39 29.5t-11 26.5q0 15 11 24.5t27 9.5q13 0 27 -8.5t35 -29.5q25 -23 48.5 -46.5
t45.5 -47.5z" />
    <glyph glyph-name="Oacute" unicode="&#xd3;" horiz-adv-x="707" 
d="M354 -15q-58 0 -113 22.5t-99 66.5t-69.5 109.5t-25.5 151.5q0 82 26 147t69.5 110t98.5 69t113 24t112.5 -22.5t98 -67t69.5 -109.5t26 -151q0 -82 -25.5 -147t-69 -110.5t-98.5 -69t-113 -23.5zM354 35q52 0 89.5 25.5t61 68t34.5 96t11 110.5q0 56 -11 109.5
t-34.5 96.5t-61 68.5t-89.5 25.5t-89.5 -25.5t-61.5 -68.5t-35.5 -96.5t-11.5 -109.5q0 -57 11.5 -110.5t35.5 -96t61.5 -68t89.5 -25.5zM287 746q23 25 46.5 48.5t47.5 45.5q21 21 35 29.5t27 8.5q16 0 27 -9.5t11 -24.5q0 -13 -10.5 -26t-39.5 -29q-31 -17 -62.5 -34
t-63.5 -34z" />
    <glyph glyph-name="Ocircumflex" unicode="&#xd4;" horiz-adv-x="707" 
d="M354 -15q-58 0 -113 22.5t-99 66.5t-69.5 109.5t-25.5 151.5q0 82 26 147t69.5 110t98.5 69t113 24t112.5 -22.5t98 -67t69.5 -109.5t26 -151q0 -82 -25.5 -147t-69 -110.5t-98.5 -69t-113 -23.5zM354 35q52 0 89.5 25.5t61 68t34.5 96t11 110.5q0 56 -11 109.5
t-34.5 96.5t-61 68.5t-89.5 25.5t-89.5 -25.5t-61.5 -68.5t-35.5 -96.5t-11.5 -109.5q0 -57 11.5 -110.5t35.5 -96t61.5 -68t89.5 -25.5zM371 857l131 -115l-19 -25l-171 98h84l-171 -98l-19 25l131 115h34z" />
    <glyph glyph-name="Otilde" unicode="&#xd5;" horiz-adv-x="707" 
d="M354 -15q-58 0 -113 22.5t-99 66.5t-69.5 109.5t-25.5 151.5q0 82 26 147t69.5 110t98.5 69t113 24t112.5 -22.5t98 -67t69.5 -109.5t26 -151q0 -82 -25.5 -147t-69 -110.5t-98.5 -69t-113 -23.5zM354 35q52 0 89.5 25.5t61 68t34.5 96t11 110.5q0 56 -11 109.5
t-34.5 96.5t-61 68.5t-89.5 25.5t-89.5 -25.5t-61.5 -68.5t-35.5 -96.5t-11.5 -109.5q0 -57 11.5 -110.5t35.5 -96t61.5 -68t89.5 -25.5zM174 735q9 59 34 94t71 35q27 0 46 -10.5t38 -26.5q17 -13 34 -29t39 -16q25 0 41 21.5t27 58.5l30 -10q-10 -58 -34 -93t-70 -35
q-28 0 -46.5 10t-35.5 23q-19 16 -36 32t-40 16q-24 0 -40.5 -21t-27.5 -58z" />
    <glyph glyph-name="Odieresis" unicode="&#xd6;" horiz-adv-x="707" 
d="M354 -15q-58 0 -113 22.5t-99 66.5t-69.5 109.5t-25.5 151.5q0 82 26 147t69.5 110t98.5 69t113 24t112.5 -22.5t98 -67t69.5 -109.5t26 -151q0 -82 -25.5 -147t-69 -110.5t-98.5 -69t-113 -23.5zM354 35q52 0 89.5 25.5t61 68t34.5 96t11 110.5q0 56 -11 109.5
t-34.5 96.5t-61 68.5t-89.5 25.5t-89.5 -25.5t-61.5 -68.5t-35.5 -96.5t-11.5 -109.5q0 -57 11.5 -110.5t35.5 -96t61.5 -68t89.5 -25.5zM242 745q-23 0 -40.5 15.5t-17.5 39.5t17.5 39.5t40.5 15.5q24 0 40.5 -15.5t16.5 -39.5t-16.5 -39.5t-40.5 -15.5zM465 745
q-24 0 -40.5 15.5t-16.5 39.5t16.5 39.5t40.5 15.5q23 0 40.5 -15.5t17.5 -39.5t-17.5 -39.5t-40.5 -15.5z" />
    <glyph glyph-name="multiply" unicode="&#xd7;" horiz-adv-x="530" 
d="M447 107l-404 404l41 41l404 -404zM488 511l-404 -404l-41 41l404 404z" />
    <glyph glyph-name="Oslash" unicode="&#xd8;" horiz-adv-x="707" 
d="M646 657l-551 -678l-43 34l552 678zM146 335q0 -57 12 -110.5t37 -96t64.5 -68t94.5 -25.5t94 25.5t64 68t36.5 96t11.5 110.5q0 56 -11.5 109.5t-36.5 96.5t-64 68.5t-94 25.5t-94.5 -25.5t-64.5 -68.5t-37 -96.5t-12 -109.5zM354 685q58 0 112.5 -22.5t98 -67
t69.5 -109.5t26 -151q0 -82 -25.5 -147t-69 -110.5t-98.5 -69t-113 -23.5t-113 22.5t-99 66.5t-69.5 109.5t-25.5 151.5q0 82 26 147t69.5 110t98.5 69t113 24z" />
    <glyph glyph-name="Ugrave" unicode="&#xd9;" horiz-adv-x="727" 
d="M367 -15q-72 0 -127 28t-85.5 87t-30.5 152v108v103.5t-0.5 103.5t-2.5 103h100q-1 -50 -2 -101.5t-1 -103.5v-105v-79q0 -85 20.5 -134.5t57.5 -70t88 -20.5q57 0 95 23.5t57 77t19 141.5v372h51v-396q0 -105 -31 -168.5t-85 -92t-123 -28.5zM39 629v41h283v-41
l-131 -15h-21zM453 629v41h240v-41l-110 -14h-20zM452 746l-18 -25q-32 17 -63.5 34t-62.5 33q-28 16 -39 29.5t-11 26.5q0 15 11 24.5t27 9.5q13 0 27 -8.5t35 -29.5q25 -23 48.5 -46.5t45.5 -47.5z" />
    <glyph glyph-name="Uacute" unicode="&#xda;" horiz-adv-x="727" 
d="M367 -15q-72 0 -127 28t-85.5 87t-30.5 152v108v103.5t-0.5 103.5t-2.5 103h100q-1 -50 -2 -101.5t-1 -103.5v-105v-79q0 -85 20.5 -134.5t57.5 -70t88 -20.5q57 0 95 23.5t57 77t19 141.5v372h51v-396q0 -105 -31 -168.5t-85 -92t-123 -28.5zM39 629v41h283v-41
l-131 -15h-21zM453 629v41h240v-41l-110 -14h-20zM318 746q23 25 46.5 48.5t47.5 45.5q21 21 35 29.5t27 8.5q16 0 27 -9.5t11 -24.5q0 -13 -10.5 -26t-39.5 -29q-31 -17 -62.5 -34t-63.5 -34z" />
    <glyph glyph-name="Ucircumflex" unicode="&#xdb;" horiz-adv-x="727" 
d="M367 -15q-72 0 -127 28t-85.5 87t-30.5 152v108v103.5t-0.5 103.5t-2.5 103h100q-1 -50 -2 -101.5t-1 -103.5v-105v-79q0 -85 20.5 -134.5t57.5 -70t88 -20.5q57 0 95 23.5t57 77t19 141.5v372h51v-396q0 -105 -31 -168.5t-85 -92t-123 -28.5zM39 629v41h283v-41
l-131 -15h-21zM453 629v41h240v-41l-110 -14h-20zM402 857l131 -115l-19 -25l-171 98h84l-171 -98l-19 25l131 115h34z" />
    <glyph glyph-name="Udieresis" unicode="&#xdc;" horiz-adv-x="727" 
d="M367 -15q-72 0 -127 28t-85.5 87t-30.5 152v108v103.5t-0.5 103.5t-2.5 103h100q-1 -50 -2 -101.5t-1 -103.5v-105v-79q0 -85 20.5 -134.5t57.5 -70t88 -20.5q57 0 95 23.5t57 77t19 141.5v372h51v-396q0 -105 -31 -168.5t-85 -92t-123 -28.5zM39 629v41h283v-41
l-131 -15h-21zM453 629v41h240v-41l-110 -14h-20zM273 745q-23 0 -40.5 15.5t-17.5 39.5t17.5 39.5t40.5 15.5q24 0 40.5 -15.5t16.5 -39.5t-16.5 -39.5t-40.5 -15.5zM496 745q-24 0 -40.5 15.5t-16.5 39.5t16.5 39.5t40.5 15.5q23 0 40.5 -15.5t17.5 -39.5t-17.5 -39.5
t-40.5 -15.5z" />
    <glyph glyph-name="Yacute" unicode="&#xdd;" horiz-adv-x="633" 
d="M167 0v41l140 15h21l141 -15v-41h-302zM268 0q1 33 1.5 67.5t1 71.5t0.5 77.5v84.5h94v-84t0.5 -77t1 -72t1.5 -68h-100zM288 224l-219 446h109l180 -392h-34l8 16l177 376h52l-215 -446h-58zM25 629v41h272v-41l-130 -15h-21zM394 629v41h229v-41l-99 -15h-20zM278 746
q23 25 46.5 48.5t47.5 45.5q21 21 35 29.5t27 8.5q16 0 27 -9.5t11 -24.5q0 -13 -10.5 -26t-39.5 -29q-31 -17 -62.5 -34t-63.5 -34z" />
    <glyph glyph-name="Thorn" unicode="&#xde;" horiz-adv-x="611" 
d="M186 154v47h131q88 0 129.5 41.5t41.5 105.5q0 68 -42 104.5t-132 36.5h-128v47h140q88 0 145.5 -24t86 -66.5t28.5 -99.5q0 -36 -12.5 -70t-44 -61.5t-87 -44t-141.5 -16.5h-115zM135 0q2 51 2.5 102t0.5 103.5v104.5v49v104t-0.5 104t-2.5 103h101q-1 -51 -2 -102.5
t-1 -103v-103.5v-51v-101.5t1 -105t2 -103.5h-101zM175 614l-131 15v41h288v-41l-131 -15h-26zM44 0v41l131 15h26l131 -15v-41h-288z" />
    <glyph glyph-name="germandbls" unicode="&#xdf;" horiz-adv-x="592" 
d="M25 0v36l112 20h12v-56h-124zM104 0q2 53 2.5 105.5t0.5 104.5v209q0 81 9 131.5t26 82.5t41 56q33 33 72.5 47t82.5 14q77 0 125.5 -39t48.5 -98q0 -27 -10 -51.5t-29.5 -46t-46.5 -41.5q-22 -16 -34.5 -31.5t-17.5 -30.5t-5 -31q0 -20 7.5 -34t25 -27t45.5 -30
q49 -30 75.5 -54t37.5 -48.5t11 -56.5q0 -43 -18.5 -75.5t-56 -50.5t-95.5 -18q-37 0 -71 7.5t-69 20.5l-4 119h49l32 -118l-51 49q36 -20 61.5 -26.5t47.5 -6.5q34 0 54.5 10t30 28t9.5 43q0 18 -6.5 33t-25 32.5t-55.5 39.5q-33 19 -56.5 37.5t-36.5 42.5t-13 59
q0 25 7 47t22 42.5t39 39.5q35 29 49.5 53.5t14.5 60.5q0 32 -11.5 55.5t-34.5 36.5t-60 13q-28 0 -49.5 -7.5t-39.5 -25.5q-14 -14 -24 -36.5t-14.5 -60t-4.5 -99.5v-266q0 -52 1 -104.5t2 -105.5h-90z" />
    <glyph glyph-name="agrave" unicode="&#xe0;" horiz-adv-x="509" 
d="M179 -13q-55 0 -94.5 31.5t-39.5 93.5q0 29 12.5 55t48.5 49.5t105 43.5q26 8 52 15.5t51.5 15t51.5 14.5v-36q-34 -10 -67 -21l-66 -22q-45 -14 -66 -31.5t-27 -35t-6 -33.5q0 -39 23 -56t57 -17q17 0 32.5 5.5t39.5 21t64 45.5l14 -50h-30q-30 -30 -53.5 -49.5t-47 -29
t-54.5 -9.5zM416 -10q-42 0 -67 27.5t-25 73.5v5v225q0 49 -9.5 75t-30.5 36t-54 10q-17 0 -39 -3.5t-51 -14.5l42 32l-25 -85q-7 -23 -19.5 -35.5t-32.5 -12.5q-21 0 -33 11t-14 30q14 57 66.5 90.5t128.5 33.5q53 0 87 -17.5t51 -55.5t17 -101v-213q0 -32 10 -45.5
t26 -13.5q13 0 22 6t17 16l20 -22q-18 -29 -39.5 -40.5t-47.5 -11.5zM306 576l-26 -19q-20 18 -40.5 36t-40 36t-40.5 36q-21 20 -27.5 32.5t-6.5 22.5q0 20 11.5 29t26.5 9q14 0 27 -9t27 -32q16 -24 31 -47.5t29.5 -46.5t28.5 -47z" />
    <glyph glyph-name="aacute" unicode="&#xe1;" horiz-adv-x="509" 
d="M179 -13q-55 0 -94.5 31.5t-39.5 93.5q0 29 12.5 55t48.5 49.5t105 43.5q26 8 52 15.5t51.5 15t51.5 14.5v-36q-34 -10 -67 -21l-66 -22q-45 -14 -66 -31.5t-27 -35t-6 -33.5q0 -39 23 -56t57 -17q17 0 32.5 5.5t39.5 21t64 45.5l14 -50h-30q-30 -30 -53.5 -49.5t-47 -29
t-54.5 -9.5zM416 -10q-42 0 -67 27.5t-25 73.5v5v225q0 49 -9.5 75t-30.5 36t-54 10q-17 0 -39 -3.5t-51 -14.5l42 32l-25 -85q-7 -23 -19.5 -35.5t-32.5 -12.5q-21 0 -33 11t-14 30q14 57 66.5 90.5t128.5 33.5q53 0 87 -17.5t51 -55.5t17 -101v-213q0 -32 10 -45.5
t26 -13.5q13 0 22 6t17 16l20 -22q-18 -29 -39.5 -40.5t-47.5 -11.5zM192 576q14 24 28.5 47t29.5 46.5t31 47.5q14 23 27.5 32t26.5 9q14 0 26 -9t12 -29q0 -10 -6.5 -22.5t-27.5 -32.5l-40 -36l-40 -36t-41 -36z" />
    <glyph glyph-name="acircumflex" unicode="&#xe2;" horiz-adv-x="509" 
d="M179 -13q-55 0 -94.5 31.5t-39.5 93.5q0 29 12.5 55t48.5 49.5t105 43.5q26 8 52 15.5t51.5 15t51.5 14.5v-36q-34 -10 -67 -21l-66 -22q-45 -14 -66 -31.5t-27 -35t-6 -33.5q0 -39 23 -56t57 -17q17 0 32.5 5.5t39.5 21t64 45.5l14 -50h-30q-30 -30 -53.5 -49.5t-47 -29
t-54.5 -9.5zM416 -10q-42 0 -67 27.5t-25 73.5v5v225q0 49 -9.5 75t-30.5 36t-54 10q-17 0 -39 -3.5t-51 -14.5l42 32l-25 -85q-7 -23 -19.5 -35.5t-32.5 -12.5q-21 0 -33 11t-14 30q14 57 66.5 90.5t128.5 33.5q53 0 87 -17.5t51 -55.5t17 -101v-213q0 -32 10 -45.5
t26 -13.5q13 0 22 6t17 16l20 -22q-18 -29 -39.5 -40.5t-47.5 -11.5zM377 546l-168 152h84l-168 -152l-23 22l132 176h34l132 -176z" />
    <glyph glyph-name="atilde" unicode="&#xe3;" horiz-adv-x="509" 
d="M179 -13q-55 0 -94.5 31.5t-39.5 93.5q0 29 12.5 55t48.5 49.5t105 43.5q26 8 52 15.5t51.5 15t51.5 14.5v-36q-34 -10 -67 -21l-66 -22q-45 -14 -66 -31.5t-27 -35t-6 -33.5q0 -39 23 -56t57 -17q17 0 32.5 5.5t39.5 21t64 45.5l14 -50h-30q-30 -30 -53.5 -49.5t-47 -29
t-54.5 -9.5zM416 -10q-42 0 -67 27.5t-25 73.5v5v225q0 49 -9.5 75t-30.5 36t-54 10q-17 0 -39 -3.5t-51 -14.5l42 32l-25 -85q-7 -23 -19.5 -35.5t-32.5 -12.5q-21 0 -33 11t-14 30q14 57 66.5 90.5t128.5 33.5q53 0 87 -17.5t51 -55.5t17 -101v-213q0 -32 10 -45.5
t26 -13.5q13 0 22 6t17 16l20 -22q-18 -29 -39.5 -40.5t-47.5 -11.5zM88 586q8 59 31 94t64 35q25 0 42 -10t31 -24q18 -17 33.5 -32.5t35.5 -15.5q23 0 37.5 21.5t24.5 58.5l27 -10q-9 -58 -31 -93t-64 -35q-25 0 -41.5 9.5t-31.5 23.5q-16 17 -32.5 32.5t-36.5 15.5
q-22 0 -36.5 -21t-25.5 -58z" />
    <glyph glyph-name="adieresis" unicode="&#xe4;" horiz-adv-x="509" 
d="M179 -13q-55 0 -94.5 31.5t-39.5 93.5q0 29 12.5 55t48.5 49.5t105 43.5q26 8 52 15.5t51.5 15t51.5 14.5v-36q-34 -10 -67 -21l-66 -22q-45 -14 -66 -31.5t-27 -35t-6 -33.5q0 -39 23 -56t57 -17q17 0 32.5 5.5t39.5 21t64 45.5l14 -50h-30q-30 -30 -53.5 -49.5t-47 -29
t-54.5 -9.5zM416 -10q-42 0 -67 27.5t-25 73.5v5v225q0 49 -9.5 75t-30.5 36t-54 10q-17 0 -39 -3.5t-51 -14.5l42 32l-25 -85q-7 -23 -19.5 -35.5t-32.5 -12.5q-21 0 -33 11t-14 30q14 57 66.5 90.5t128.5 33.5q53 0 87 -17.5t51 -55.5t17 -101v-213q0 -32 10 -45.5
t26 -13.5q13 0 22 6t17 16l20 -22q-18 -29 -39.5 -40.5t-47.5 -11.5zM146 596q-24 0 -41.5 16t-17.5 41q0 24 17.5 40.5t41.5 16.5q25 0 42.5 -16.5t17.5 -40.5q0 -25 -17.5 -41t-42.5 -16zM356 596q-25 0 -42.5 16t-17.5 41q0 24 17.5 40.5t42.5 16.5q24 0 41.5 -16.5
t17.5 -40.5q0 -25 -17.5 -41t-41.5 -16z" />
    <glyph glyph-name="aring" unicode="&#xe5;" horiz-adv-x="509" 
d="M179 -13q-55 0 -94.5 31.5t-39.5 93.5q0 29 12.5 55t48.5 49.5t105 43.5q26 8 52 15.5t51.5 15t51.5 14.5v-36q-34 -10 -67 -21l-66 -22q-45 -14 -66 -31.5t-27 -35t-6 -33.5q0 -39 23 -56t57 -17q17 0 32.5 5.5t39.5 21t64 45.5l14 -50h-30q-30 -30 -53.5 -49.5t-47 -29
t-54.5 -9.5zM416 -10q-42 0 -67 27.5t-25 73.5v5v225q0 49 -9.5 75t-30.5 36t-54 10q-17 0 -39 -3.5t-51 -14.5l42 32l-25 -85q-7 -23 -19.5 -35.5t-32.5 -12.5q-21 0 -33 11t-14 30q14 57 66.5 90.5t128.5 33.5q53 0 87 -17.5t51 -55.5t17 -101v-213q0 -32 10 -45.5
t26 -13.5q13 0 22 6t17 16l20 -22q-18 -29 -39.5 -40.5t-47.5 -11.5zM251 590q27 0 42 19.5t15 42.5t-14.5 42t-42.5 19q-27 0 -42 -19t-15 -42t14.5 -42.5t42.5 -19.5zM251 550q-40 0 -72.5 26.5t-32.5 75.5q0 47 32.5 74t72.5 27q41 0 73 -26t32 -75q0 -48 -32 -75
t-73 -27z" />
    <glyph glyph-name="ae" unicode="&#xe6;" horiz-adv-x="786" 
d="M179 -13q-55 0 -94.5 32.5t-39.5 94.5q0 29 13.5 53t49.5 47t103 47q21 8 47 16t53.5 15t52.5 11v-36q-34 -7 -71.5 -19t-60.5 -21q-43 -17 -64 -34t-27.5 -33t-6.5 -31q0 -39 24 -57.5t56 -18.5q20 0 37 5.5t40 20t60 42.5l21 -24h-2q-45 -45 -76.5 -68.5t-57.5 -32.5
t-57 -9zM554 -13q-70 0 -121.5 29t-80 84t-28.5 132v89q0 49 -10 75t-30 36t-51 10q-19 0 -41.5 -3.5t-51.5 -14.5l44 30l-25 -87q-7 -23 -20.5 -35.5t-33.5 -12.5q-21 0 -33 12t-14 31q10 38 36.5 66.5t67 44t91.5 15.5q64 0 106.5 -36.5t42.5 -120.5l-50 8
q26 68 79.5 108.5t119.5 40.5q53 0 95 -23t66.5 -65.5t24.5 -103.5q0 -17 -1.5 -31.5t-4.5 -24.5h-371v42h230q40 0 52 15t12 37q0 35 -12.5 59t-35.5 36.5t-55 12.5q-34 0 -67 -19.5t-54 -62.5t-21 -116q0 -62 20.5 -105t58 -65t89.5 -22q46 0 82 15.5t65 49.5l21 -17
q-30 -52 -72.5 -82.5t-118.5 -30.5z" />
    <glyph glyph-name="ccedilla" unicode="&#xe7;" horiz-adv-x="488" 
d="M272 -13q-71 0 -122 29.5t-78 84.5t-27 131q0 81 32.5 138t85.5 87.5t113 30.5q45 0 83 -17t63 -46.5t31 -66.5q-4 -19 -15.5 -28.5t-30.5 -9.5q-25 0 -37.5 13.5t-17.5 34.5l-24 87l48 -38q-25 14 -50 19.5t-46 5.5q-42 0 -75.5 -22.5t-52.5 -67t-19 -110.5
q0 -67 22 -109t58.5 -61.5t81.5 -19.5q25 0 48.5 5.5t46.5 20t45 40.5l22 -18q-19 -36 -44.5 -61t-59.5 -38.5t-81 -13.5zM249 -86l13 89h37l-10 -80l-20 22q31 -2 56.5 -11.5t41.5 -27.5t16 -46q0 -34 -28.5 -57.5t-83.5 -23.5q-22 0 -37.5 3.5t-25.5 6.5l7 33
q12 -2 23.5 -4t24.5 -2q29 0 43.5 12.5t14.5 33.5q0 23 -17.5 35t-54.5 17z" />
    <glyph glyph-name="egrave" unicode="&#xe8;" horiz-adv-x="510" 
d="M277 -13q-70 0 -122.5 29t-81 84t-28.5 132t31 134.5t83.5 89.5t114.5 32q53 0 95 -23t67 -65.5t25 -103.5q0 -17 -2 -31.5t-5 -24.5h-370v42h229q41 0 53 15t12 37q0 35 -12.5 59t-36 36.5t-55.5 12.5q-34 0 -66.5 -19.5t-53.5 -62.5t-21 -116q0 -62 20 -105t57.5 -65
t89.5 -22q47 0 82.5 15.5t65.5 49.5l21 -17q-20 -34 -45.5 -59.5t-60.5 -39.5t-86 -14zM330 576l-26 -19q-20 18 -40.5 36t-40 36t-40.5 36q-21 20 -27.5 32.5t-6.5 22.5q0 20 11.5 29t26.5 9q14 0 27 -9t27 -32q16 -24 31 -47.5t29.5 -46.5t28.5 -47z" />
    <glyph glyph-name="eacute" unicode="&#xe9;" horiz-adv-x="510" 
d="M277 -13q-70 0 -122.5 29t-81 84t-28.5 132t31 134.5t83.5 89.5t114.5 32q53 0 95 -23t67 -65.5t25 -103.5q0 -17 -2 -31.5t-5 -24.5h-370v42h229q41 0 53 15t12 37q0 35 -12.5 59t-36 36.5t-55.5 12.5q-34 0 -66.5 -19.5t-53.5 -62.5t-21 -116q0 -62 20 -105t57.5 -65
t89.5 -22q47 0 82.5 15.5t65.5 49.5l21 -17q-20 -34 -45.5 -59.5t-60.5 -39.5t-86 -14zM216 576q14 24 28.5 47t29.5 46.5t31 47.5q14 23 27.5 32t26.5 9q14 0 26 -9t12 -29q0 -10 -6.5 -22.5t-27.5 -32.5l-40 -36l-40 -36t-41 -36z" />
    <glyph glyph-name="ecircumflex" unicode="&#xea;" horiz-adv-x="510" 
d="M277 -13q-70 0 -122.5 29t-81 84t-28.5 132t31 134.5t83.5 89.5t114.5 32q53 0 95 -23t67 -65.5t25 -103.5q0 -17 -2 -31.5t-5 -24.5h-370v42h229q41 0 53 15t12 37q0 35 -12.5 59t-36 36.5t-55.5 12.5q-34 0 -66.5 -19.5t-53.5 -62.5t-21 -116q0 -62 20 -105t57.5 -65
t89.5 -22q47 0 82.5 15.5t65.5 49.5l21 -17q-20 -34 -45.5 -59.5t-60.5 -39.5t-86 -14zM401 546l-168 152h84l-168 -152l-23 22l132 176h34l132 -176z" />
    <glyph glyph-name="edieresis" unicode="&#xeb;" horiz-adv-x="510" 
d="M277 -13q-70 0 -122.5 29t-81 84t-28.5 132t31 134.5t83.5 89.5t114.5 32q53 0 95 -23t67 -65.5t25 -103.5q0 -17 -2 -31.5t-5 -24.5h-370v42h229q41 0 53 15t12 37q0 35 -12.5 59t-36 36.5t-55.5 12.5q-34 0 -66.5 -19.5t-53.5 -62.5t-21 -116q0 -62 20 -105t57.5 -65
t89.5 -22q47 0 82.5 15.5t65.5 49.5l21 -17q-20 -34 -45.5 -59.5t-60.5 -39.5t-86 -14zM170 596q-24 0 -41.5 16t-17.5 41q0 24 17.5 40.5t41.5 16.5q25 0 42.5 -16.5t17.5 -40.5q0 -25 -17.5 -41t-42.5 -16zM380 596q-25 0 -42.5 16t-17.5 41q0 24 17.5 40.5t42.5 16.5
q24 0 41.5 -16.5t17.5 -40.5q0 -25 -17.5 -41t-41.5 -16z" />
    <glyph glyph-name="igrave" unicode="&#xec;" horiz-adv-x="298" 
d="M35 0v36l109 20h23l100 -20v-36h-232zM108 0q1 23 1.5 60.5t1 78t0.5 71.5v47q0 41 -0.5 68.5t-2.5 57.5l-79 9v35l155 61l15 -10l-3 -136v-132q0 -31 0.5 -71.5t1 -78t1.5 -60.5h-91zM204 576l-26 -19q-20 18 -40.5 36t-40 36t-40.5 36q-21 20 -27.5 32.5t-6.5 22.5
q0 20 11.5 29t26.5 9q14 0 27 -9t27 -32q16 -24 31 -47.5t29.5 -46.5t28.5 -47z" />
    <glyph glyph-name="iacute" unicode="&#xed;" horiz-adv-x="298" 
d="M35 0v36l109 20h23l100 -20v-36h-232zM108 0q1 23 1.5 60.5t1 78t0.5 71.5v47q0 41 -0.5 68.5t-2.5 57.5l-79 9v35l155 61l15 -10l-3 -136v-132q0 -31 0.5 -71.5t1 -78t1.5 -60.5h-91zM90 576q14 24 28.5 47t29.5 46.5t31 47.5q14 23 27.5 32t26.5 9q14 0 26 -9t12 -29
q0 -10 -6.5 -22.5t-27.5 -32.5l-40 -36l-40 -36t-41 -36z" />
    <glyph glyph-name="icircumflex" unicode="&#xee;" horiz-adv-x="298" 
d="M35 0v36l109 20h23l100 -20v-36h-232zM108 0q1 23 1.5 60.5t1 78t0.5 71.5v47q0 41 -0.5 68.5t-2.5 57.5l-79 9v35l155 61l15 -10l-3 -136v-132q0 -31 0.5 -71.5t1 -78t1.5 -60.5h-91zM275 546l-168 152h84l-168 -152l-23 22l132 176h34l132 -176z" />
    <glyph glyph-name="idieresis" unicode="&#xef;" horiz-adv-x="298" 
d="M57 596q-25 0 -42 16t-17 41q0 24 17 40.5t42 16.5q24 0 42 -16.5t18 -40.5q0 -25 -18 -41t-42 -16zM246 596q-24 0 -42 16t-18 41q0 24 18 40.5t42 16.5q25 0 42 -16.5t17 -40.5q0 -25 -17 -41t-42 -16zM35 0v36l109 20h23l100 -20v-36h-232zM108 0q1 23 1.5 60.5t1 78
t0.5 71.5v47q0 41 -0.5 68.5t-2.5 57.5l-79 9v35l155 61l15 -10l-3 -136v-132q0 -31 0.5 -71.5t1 -78t1.5 -60.5h-91z" />
    <glyph glyph-name="eth" unicode="&#xf0;" horiz-adv-x="546" 
d="M262 -13q-42 0 -80.5 16t-69.5 47t-49 77.5t-18 106.5q0 78 32 131.5t82.5 81.5t106.5 28q37 0 67 -11t52.5 -32.5t34.5 -53.5l-14 -6q-14 63 -35 111.5t-51 88t-71.5 74.5t-97.5 71l20 33q70 -33 129 -77.5t103 -103t68 -130.5t24 -159q0 -68 -15.5 -122t-45.5 -92.5
t-73 -58.5t-99 -20zM271 32q47 0 77.5 25t45.5 72.5t15 113.5q0 63 -16.5 104t-47.5 61.5t-74 20.5t-72 -23t-44 -67.5t-15 -109.5q0 -64 15.5 -108t45 -66.5t70.5 -22.5zM157 524l-18 37l335 172l18 -37z" />
    <glyph glyph-name="ntilde" unicode="&#xf1;" horiz-adv-x="606" 
d="M40 0v36l109 20h23l100 -20v-36h-232zM113 0q1 23 1.5 60.5t1 78t0.5 71.5v48q0 28 -0.5 48.5t-1 38.5t-1.5 38l-79 9v35l140 61l15 -10l12 -116v-1v-151q0 -31 0.5 -71.5t1 -78t1.5 -60.5h-91zM344 0v36l109 20h23l100 -20v-36h-232zM417 0q1 23 1.5 60t1 77.5t0.5 72.5
v85q0 69 -19.5 95t-63.5 26q-24 0 -47 -7t-47 -22t-52 -40l-13 38h8q25 30 56.5 53t66 36.5t67.5 13.5q65 0 96.5 -43.5t31.5 -141.5v-93q0 -32 0.5 -72.5t1 -77.5t1.5 -60h-90zM144 586q8 59 31 94t64 35q25 0 42 -10t31 -24q18 -17 33.5 -32.5t35.5 -15.5q23 0 37.5 21.5
t24.5 58.5l27 -10q-9 -58 -31 -93t-64 -35q-25 0 -41.5 9.5t-31.5 23.5q-16 17 -32.5 32.5t-36.5 15.5q-22 0 -36.5 -21t-25.5 -58z" />
    <glyph glyph-name="ograve" unicode="&#xf2;" horiz-adv-x="549" 
d="M274 -13q-58 0 -110.5 27.5t-85.5 83t-33 137.5q0 83 33 139.5t85.5 85t110.5 28.5t110.5 -28.5t86 -85t33.5 -139.5q0 -82 -33.5 -137.5t-86 -83t-110.5 -27.5zM274 32q43 0 73 23t46 68t16 112q0 68 -16 114t-46 69.5t-73 23.5t-73 -23.5t-45.5 -69.5t-15.5 -114
q0 -67 15.5 -112t45.5 -68t73 -23zM330 576l-26 -19q-20 18 -40.5 36t-40 36t-40.5 36q-21 20 -27.5 32.5t-6.5 22.5q0 20 11.5 29t26.5 9q14 0 27 -9t27 -32q16 -24 31 -47.5t29.5 -46.5t28.5 -47z" />
    <glyph glyph-name="oacute" unicode="&#xf3;" horiz-adv-x="549" 
d="M274 -13q-58 0 -110.5 27.5t-85.5 83t-33 137.5q0 83 33 139.5t85.5 85t110.5 28.5t110.5 -28.5t86 -85t33.5 -139.5q0 -82 -33.5 -137.5t-86 -83t-110.5 -27.5zM274 32q43 0 73 23t46 68t16 112q0 68 -16 114t-46 69.5t-73 23.5t-73 -23.5t-45.5 -69.5t-15.5 -114
q0 -67 15.5 -112t45.5 -68t73 -23zM216 576q14 24 28.5 47t29.5 46.5t31 47.5q14 23 27.5 32t26.5 9q14 0 26 -9t12 -29q0 -10 -6.5 -22.5t-27.5 -32.5l-40 -36l-40 -36t-41 -36z" />
    <glyph glyph-name="ocircumflex" unicode="&#xf4;" horiz-adv-x="549" 
d="M274 -13q-58 0 -110.5 27.5t-85.5 83t-33 137.5q0 83 33 139.5t85.5 85t110.5 28.5t110.5 -28.5t86 -85t33.5 -139.5q0 -82 -33.5 -137.5t-86 -83t-110.5 -27.5zM274 32q43 0 73 23t46 68t16 112q0 68 -16 114t-46 69.5t-73 23.5t-73 -23.5t-45.5 -69.5t-15.5 -114
q0 -67 15.5 -112t45.5 -68t73 -23zM401 546l-168 152h84l-168 -152l-23 22l132 176h34l132 -176z" />
    <glyph glyph-name="otilde" unicode="&#xf5;" horiz-adv-x="549" 
d="M274 -13q-58 0 -110.5 27.5t-85.5 83t-33 137.5q0 83 33 139.5t85.5 85t110.5 28.5t110.5 -28.5t86 -85t33.5 -139.5q0 -82 -33.5 -137.5t-86 -83t-110.5 -27.5zM274 32q43 0 73 23t46 68t16 112q0 68 -16 114t-46 69.5t-73 23.5t-73 -23.5t-45.5 -69.5t-15.5 -114
q0 -67 15.5 -112t45.5 -68t73 -23zM112 586q8 59 31 94t64 35q25 0 42 -10t31 -24q18 -17 33.5 -32.5t35.5 -15.5q23 0 37.5 21.5t24.5 58.5l27 -10q-9 -58 -31 -93t-64 -35q-25 0 -41.5 9.5t-31.5 23.5q-16 17 -32.5 32.5t-36.5 15.5q-22 0 -36.5 -21t-25.5 -58z" />
    <glyph glyph-name="odieresis" unicode="&#xf6;" horiz-adv-x="549" 
d="M274 -13q-58 0 -110.5 27.5t-85.5 83t-33 137.5q0 83 33 139.5t85.5 85t110.5 28.5t110.5 -28.5t86 -85t33.5 -139.5q0 -82 -33.5 -137.5t-86 -83t-110.5 -27.5zM274 32q43 0 73 23t46 68t16 112q0 68 -16 114t-46 69.5t-73 23.5t-73 -23.5t-45.5 -69.5t-15.5 -114
q0 -67 15.5 -112t45.5 -68t73 -23zM170 596q-24 0 -41.5 16t-17.5 41q0 24 17.5 40.5t41.5 16.5q25 0 42.5 -16.5t17.5 -40.5q0 -25 -17.5 -41t-42.5 -16zM380 596q-25 0 -42.5 16t-17.5 41q0 24 17.5 40.5t42.5 16.5q24 0 41.5 -16.5t17.5 -40.5q0 -25 -17.5 -41t-41.5 -16
z" />
    <glyph glyph-name="divide" unicode="&#xf7;" horiz-adv-x="530" 
d="M265 68q-28 0 -48 18.5t-20 47.5q0 30 20 48t48 18q29 0 49 -18t20 -48q0 -29 -20 -47.5t-49 -18.5zM265 459q-28 0 -48 18.5t-20 47.5q0 30 20 48t48 18q29 0 49 -18t20 -48q0 -29 -20 -47.5t-49 -18.5zM502 301h-473v57h473v-57z" />
    <glyph glyph-name="oslash" unicode="&#xf8;" horiz-adv-x="549" 
d="M487 475l-400 -496l-33 26l401 496zM274 -13q-58 0 -110.5 27.5t-85.5 83t-33 137.5q0 83 33 139.5t85.5 85t110.5 28.5t110.5 -28.5t86 -85t33.5 -139.5q0 -82 -33.5 -137.5t-86 -83t-110.5 -27.5zM274 32q45 0 76 23t47.5 68t16.5 112q0 68 -16.5 114t-47.5 69.5
t-76 23.5t-76 -23.5t-47 -69.5t-16 -114q0 -67 16 -112t47 -68t76 -23z" />
    <glyph glyph-name="ugrave" unicode="&#xf9;" horiz-adv-x="583" 
d="M223 -13q-61 0 -96 40.5t-34 139.5l3 264l21 -20l-92 20v36l147 14l10 -10l-5 -129v-166q0 -65 20 -91.5t60 -26.5q25 0 50.5 8.5t51 25.5t49.5 42l15 -43h-15q-27 -36 -58 -59t-63 -34t-64 -11zM410 -8l-13 117v2l3 306l-71 14v36l145 14l10 -10l-3 -129v-292l68 -14
v-36zM338 576l-26 -19q-20 18 -40.5 36t-40 36t-40.5 36q-21 20 -27.5 32.5t-6.5 22.5q0 20 11.5 29t26.5 9q14 0 27 -9t27 -32q16 -24 31 -47.5t29.5 -46.5t28.5 -47z" />
    <glyph glyph-name="uacute" unicode="&#xfa;" horiz-adv-x="583" 
d="M223 -13q-61 0 -96 40.5t-34 139.5l3 264l21 -20l-92 20v36l147 14l10 -10l-5 -129v-166q0 -65 20 -91.5t60 -26.5q25 0 50.5 8.5t51 25.5t49.5 42l15 -43h-15q-27 -36 -58 -59t-63 -34t-64 -11zM410 -8l-13 117v2l3 306l-71 14v36l145 14l10 -10l-3 -129v-292l68 -14
v-36zM224 576q14 24 28.5 47t29.5 46.5t31 47.5q14 23 27.5 32t26.5 9q14 0 26 -9t12 -29q0 -10 -6.5 -22.5t-27.5 -32.5l-40 -36l-40 -36t-41 -36z" />
    <glyph glyph-name="ucircumflex" unicode="&#xfb;" horiz-adv-x="583" 
d="M223 -13q-61 0 -96 40.5t-34 139.5l3 264l21 -20l-92 20v36l147 14l10 -10l-5 -129v-166q0 -65 20 -91.5t60 -26.5q25 0 50.5 8.5t51 25.5t49.5 42l15 -43h-15q-27 -36 -58 -59t-63 -34t-64 -11zM410 -8l-13 117v2l3 306l-71 14v36l145 14l10 -10l-3 -129v-292l68 -14
v-36zM409 546l-168 152h84l-168 -152l-23 22l132 176h34l132 -176z" />
    <glyph glyph-name="udieresis" unicode="&#xfc;" horiz-adv-x="583" 
d="M223 -13q-61 0 -96 40.5t-34 139.5l3 264l21 -20l-92 20v36l147 14l10 -10l-5 -129v-166q0 -65 20 -91.5t60 -26.5q25 0 50.5 8.5t51 25.5t49.5 42l15 -43h-15q-27 -36 -58 -59t-63 -34t-64 -11zM410 -8l-13 117v2l3 306l-71 14v36l145 14l10 -10l-3 -129v-292l68 -14
v-36zM178 596q-24 0 -41.5 16t-17.5 41q0 24 17.5 40.5t41.5 16.5q25 0 42.5 -16.5t17.5 -40.5q0 -25 -17.5 -41t-42.5 -16zM388 596q-25 0 -42.5 16t-17.5 41q0 24 17.5 40.5t42.5 16.5q24 0 41.5 -16.5t17.5 -40.5q0 -25 -17.5 -41t-41.5 -16z" />
    <glyph glyph-name="yacute" unicode="&#xfd;" horiz-adv-x="512" 
d="M92 -250q-25 0 -46 8.5t-33.5 24t-12.5 34.5q5 22 24.5 33t42.5 11q20 0 37 -8.5t37 -29.5l31 -32l-39 -23l-27 23q33 17 57.5 43.5t42.5 59.5t30 68l16 46l3 7l90 249l76 211h55l-179 -472q-33 -88 -64.5 -144t-65.5 -82.5t-75 -26.5zM251 -53l-210 528h97l149 -403
l7 -20zM4 439v36h240v-37l-118 -14h-25zM317 439v36h195v-36l-71 -15h-20zM224 576q14 24 28.5 47t29.5 46.5t31 47.5q14 23 27.5 32t26.5 9q14 0 26 -9t12 -29q0 -10 -6.5 -22.5t-27.5 -32.5l-40 -36l-40 -36t-41 -36z" />
    <glyph glyph-name="thorn" unicode="&#xfe;" horiz-adv-x="554" 
d="M85 -240q1 36 1.5 71t1 70.5t0.5 70.5v677l-81 10v36l153 45l14 -8l-4 -143v-189l3 -13v-309l-3 -6v-100q0 -35 0.5 -70.5t1 -70.5t1.5 -71h-88zM303 -13q-31 0 -61.5 11.5t-59.5 40.5t-55 81h-2l11 16q38 -49 77 -70.5t74 -21.5q36 0 66 20.5t48 63t18 106.5
q0 96 -35.5 146.5t-91.5 50.5q-18 0 -41 -7.5t-51.5 -26.5t-64.5 -55l-11 18h2q29 45 60.5 73t64.5 41.5t68 13.5q53 0 96 -29t68.5 -84t25.5 -133q0 -77 -27 -134.5t-73.5 -89t-105.5 -31.5zM6 -240v36l112 20h24l121 -20v-36h-257z" />
    <glyph glyph-name="ydieresis" unicode="&#xff;" horiz-adv-x="512" 
d="M92 -250q-25 0 -46 8.5t-33.5 24t-12.5 34.5q5 22 24.5 33t42.5 11q20 0 37 -8.5t37 -29.5l31 -32l-39 -23l-27 23q33 17 57.5 43.5t42.5 59.5t30 68l16 46l3 7l90 249l76 211h55l-179 -472q-33 -88 -64.5 -144t-65.5 -82.5t-75 -26.5zM251 -53l-210 528h97l149 -403
l7 -20zM4 439v36h240v-37l-118 -14h-25zM317 439v36h195v-36l-71 -15h-20zM178 596q-24 0 -41.5 16t-17.5 41q0 24 17.5 40.5t41.5 16.5q25 0 42.5 -16.5t17.5 -40.5q0 -25 -17.5 -41t-42.5 -16zM388 596q-25 0 -42.5 16t-17.5 41q0 24 17.5 40.5t42.5 16.5q24 0 41.5 -16.5
t17.5 -40.5q0 -25 -17.5 -41t-41.5 -16z" />
    <glyph glyph-name="Amacron" unicode="&#x100;" horiz-adv-x="664" 
d="M5 0v41l100 15h20l109 -15v-41h-229zM71 0l231 675h63l230 -675h-98l-198 591h20l-5 -15l-196 -576h-47zM177 217v47h286v-47h-286zM381 0v41l126 15h22l124 -15v-41h-272zM191 759v63h280v-63h-280z" />
    <glyph glyph-name="amacron" unicode="&#x101;" horiz-adv-x="509" 
d="M179 -13q-55 0 -94.5 31.5t-39.5 93.5q0 29 12.5 55t48.5 49.5t105 43.5q26 8 52 15.5t51.5 15t51.5 14.5v-36q-34 -10 -67 -21l-66 -22q-45 -14 -66 -31.5t-27 -35t-6 -33.5q0 -39 23 -56t57 -17q17 0 32.5 5.5t39.5 21t64 45.5l14 -50h-30q-30 -30 -53.5 -49.5t-47 -29
t-54.5 -9.5zM416 -10q-42 0 -67 27.5t-25 73.5v5v225q0 49 -9.5 75t-30.5 36t-54 10q-17 0 -39 -3.5t-51 -14.5l42 32l-25 -85q-7 -23 -19.5 -35.5t-32.5 -12.5q-21 0 -33 11t-14 30q14 57 66.5 90.5t128.5 33.5q53 0 87 -17.5t51 -55.5t17 -101v-213q0 -32 10 -45.5
t26 -13.5q13 0 22 6t17 16l20 -22q-18 -29 -39.5 -40.5t-47.5 -11.5zM131 596v63h240v-63h-240z" />
    <glyph glyph-name="Abreve" unicode="&#x102;" horiz-adv-x="664" 
d="M5 0v41l100 15h20l109 -15v-41h-229zM71 0l231 675h63l230 -675h-98l-198 591h20l-5 -15l-196 -576h-47zM177 217v47h286v-47h-286zM381 0v41l126 15h22l124 -15v-41h-272zM187 859l31 11q11 -34 40 -55.5t73 -21.5q45 0 72.5 21.5t40.5 55.5l31 -11q-4 -30 -21 -59
t-47.5 -48.5t-75.5 -19.5t-75.5 19.5t-47 48.5t-21.5 59z" />
    <glyph glyph-name="abreve" unicode="&#x103;" horiz-adv-x="509" 
d="M179 -13q-55 0 -94.5 31.5t-39.5 93.5q0 29 12.5 55t48.5 49.5t105 43.5q26 8 52 15.5t51.5 15t51.5 14.5v-36q-34 -10 -67 -21l-66 -22q-45 -14 -66 -31.5t-27 -35t-6 -33.5q0 -39 23 -56t57 -17q17 0 32.5 5.5t39.5 21t64 45.5l14 -50h-30q-30 -30 -53.5 -49.5t-47 -29
t-54.5 -9.5zM416 -10q-42 0 -67 27.5t-25 73.5v5v225q0 49 -9.5 75t-30.5 36t-54 10q-17 0 -39 -3.5t-51 -14.5l42 32l-25 -85q-7 -23 -19.5 -35.5t-32.5 -12.5q-21 0 -33 11t-14 30q14 57 66.5 90.5t128.5 33.5q53 0 87 -17.5t51 -55.5t17 -101v-213q0 -32 10 -45.5
t26 -13.5q13 0 22 6t17 16l20 -22q-18 -29 -39.5 -40.5t-47.5 -11.5zM100 723l30 11q15 -39 43.5 -66t77.5 -27q50 0 78 27t43 66l30 -11q-3 -29 -14.5 -55.5t-30 -47.5t-45 -33t-61.5 -12q-34 0 -61 12t-45.5 33t-30 47.5t-14.5 55.5z" />
    <glyph glyph-name="Aogonek" unicode="&#x104;" horiz-adv-x="664" 
d="M5 0v41l100 15h20l109 -15v-41h-229zM71 0l231 675h63l230 -675h-98l-198 591h20l-5 -15l-196 -576h-47zM177 217v47h286v-47h-286zM381 0v41l126 15h22l124 -15v-41h-272zM526 -221q-37 0 -60.5 22.5t-23.5 60.5q0 32 13.5 61t36.5 52t51 37v1h29q-32 -20 -49 -51.5
t-17 -63.5q0 -29 16 -46t38 -17q12 0 24 3t25 10l13 -25q-19 -24 -42 -34t-54 -10z" />
    <glyph glyph-name="aogonek" unicode="&#x105;" horiz-adv-x="509" 
d="M179 -13q-55 0 -94.5 31.5t-39.5 93.5q0 29 12.5 55t48.5 49.5t105 43.5q26 8 52 15.5t51.5 15t51.5 14.5v-36q-34 -10 -67 -21l-66 -22q-45 -14 -66 -31.5t-27 -35t-6 -33.5q0 -39 23 -56t57 -17q17 0 32.5 5.5t39.5 21t64 45.5l14 -50h-30q-30 -30 -53.5 -49.5t-47 -29
t-54.5 -9.5zM403 -221q-37 0 -60.5 22.5t-23.5 60.5q0 45 33.5 79t76.5 55v-5q-3 0 -7 -0.5t-6 -0.5q-42 0 -67 27.5t-25 73.5v5v225q0 49 -9.5 75t-30.5 36t-54 10q-17 0 -39 -3.5t-51 -14.5l42 32l-25 -85q-7 -23 -19.5 -35.5t-32.5 -12.5q-21 0 -33 11t-14 30
q10 38 36.5 66t67 43t91.5 15q53 0 87 -17.5t51 -55.5t17 -101v-213q0 -32 10 -45.5t26 -13.5q10 0 19.5 6t19.5 16l20 -24q-12 -14 -21.5 -23t-25.5 -22q-18 -14 -34.5 -29t-27.5 -32.5t-11 -39.5q0 -26 16 -42.5t38 -16.5q12 0 24 3t25 10l13 -25q-19 -24 -42 -34t-54 -10
z" />
    <glyph glyph-name="Cacute" unicode="&#x106;" horiz-adv-x="631" 
d="M386 -15q-76 0 -138 25.5t-107 72t-69.5 111t-24.5 141.5q0 76 25.5 140t71 111t107 73t134.5 26q41 0 92 -9.5t101 -38.5l4 -145h-62l-25 148l62 -14v-60q-42 39 -82.5 54t-76.5 15q-67 0 -122 -34.5t-87.5 -101t-32.5 -164.5t30 -165t83.5 -101t121.5 -34
q43 0 88.5 14.5t87.5 49.5v-55l-62 -14l25 148h62l-4 -145q-46 -25 -97.5 -36.5t-104.5 -11.5zM318 746q23 25 46.5 48.5t47.5 45.5q21 21 35 29.5t27 8.5q16 0 27 -9.5t11 -24.5q0 -13 -10.5 -26t-39.5 -29q-31 -17 -62.5 -34t-63.5 -34z" />
    <glyph glyph-name="cacute" unicode="&#x107;" horiz-adv-x="488" 
d="M272 -13q-71 0 -122 29.5t-78 84.5t-27 131q0 81 32.5 138t85.5 87.5t113 30.5q45 0 83 -17t63 -46.5t31 -66.5q-4 -19 -15.5 -28.5t-30.5 -9.5q-25 0 -37.5 13.5t-17.5 34.5l-24 87l48 -38q-25 14 -50 19.5t-46 5.5q-42 0 -75.5 -22.5t-52.5 -67t-19 -110.5
q0 -67 22 -109t58.5 -61.5t81.5 -19.5q25 0 48.5 5.5t46.5 20t45 40.5l22 -18q-19 -36 -44.5 -61t-59.5 -38.5t-81 -13.5zM218 576q14 24 28.5 47t29.5 46.5t31 47.5q14 23 27.5 32t26.5 9q14 0 26 -9t12 -29q0 -10 -6.5 -22.5t-27.5 -32.5l-40 -36l-40 -36t-41 -36z" />
    <glyph glyph-name="Ccircumflex" unicode="&#x108;" horiz-adv-x="631" 
d="M386 -15q-76 0 -138 25.5t-107 72t-69.5 111t-24.5 141.5q0 76 25.5 140t71 111t107 73t134.5 26q41 0 92 -9.5t101 -38.5l4 -145h-62l-25 148l62 -14v-60q-42 39 -82.5 54t-76.5 15q-67 0 -122 -34.5t-87.5 -101t-32.5 -164.5t30 -165t83.5 -101t121.5 -34
q43 0 88.5 14.5t87.5 49.5v-55l-62 -14l25 148h62l-4 -145q-46 -25 -97.5 -36.5t-104.5 -11.5zM402 857l131 -115l-19 -25l-171 98h84l-171 -98l-19 25l131 115h34z" />
    <glyph glyph-name="ccircumflex" unicode="&#x109;" horiz-adv-x="488" 
d="M272 -13q-71 0 -122 29.5t-78 84.5t-27 131q0 81 32.5 138t85.5 87.5t113 30.5q45 0 83 -17t63 -46.5t31 -66.5q-4 -19 -15.5 -28.5t-30.5 -9.5q-25 0 -37.5 13.5t-17.5 34.5l-24 87l48 -38q-25 14 -50 19.5t-46 5.5q-42 0 -75.5 -22.5t-52.5 -67t-19 -110.5
q0 -67 22 -109t58.5 -61.5t81.5 -19.5q25 0 48.5 5.5t46.5 20t45 40.5l22 -18q-19 -36 -44.5 -61t-59.5 -38.5t-81 -13.5zM403 546l-168 152h84l-168 -152l-23 22l132 176h34l132 -176z" />
    <glyph glyph-name="Cdotaccent" unicode="&#x10a;" horiz-adv-x="631" 
d="M386 -15q-76 0 -138 25.5t-107 72t-69.5 111t-24.5 141.5q0 76 25.5 140t71 111t107 73t134.5 26q41 0 92 -9.5t101 -38.5l4 -145h-62l-25 148l62 -14v-60q-42 39 -82.5 54t-76.5 15q-67 0 -122 -34.5t-87.5 -101t-32.5 -164.5t30 -165t83.5 -101t121.5 -34
q43 0 88.5 14.5t87.5 49.5v-55l-62 -14l25 148h62l-4 -145q-46 -25 -97.5 -36.5t-104.5 -11.5zM385 737q-28 0 -47.5 18t-19.5 46q0 29 19.5 46.5t47.5 17.5q29 0 48 -17.5t19 -46.5q0 -28 -19 -46t-48 -18z" />
    <glyph glyph-name="cdotaccent" unicode="&#x10b;" horiz-adv-x="488" 
d="M272 -13q-71 0 -122 29.5t-78 84.5t-27 131q0 81 32.5 138t85.5 87.5t113 30.5q45 0 83 -17t63 -46.5t31 -66.5q-4 -19 -15.5 -28.5t-30.5 -9.5q-25 0 -37.5 13.5t-17.5 34.5l-24 87l48 -38q-25 14 -50 19.5t-46 5.5q-42 0 -75.5 -22.5t-52.5 -67t-19 -110.5
q0 -67 22 -109t58.5 -61.5t81.5 -19.5q25 0 48.5 5.5t46.5 20t45 40.5l22 -18q-19 -36 -44.5 -61t-59.5 -38.5t-81 -13.5zM277 589q-28 0 -47.5 18t-19.5 46t19.5 46t47.5 18q29 0 48 -18t19 -46t-19 -46t-48 -18z" />
    <glyph glyph-name="Ccaron" unicode="&#x10c;" horiz-adv-x="631" 
d="M386 -15q-76 0 -138 25.5t-107 72t-69.5 111t-24.5 141.5q0 76 25.5 140t71 111t107 73t134.5 26q41 0 92 -9.5t101 -38.5l4 -145h-62l-25 148l62 -14v-60q-42 39 -82.5 54t-76.5 15q-67 0 -122 -34.5t-87.5 -101t-32.5 -164.5t30 -165t83.5 -101t121.5 -34
q43 0 88.5 14.5t87.5 49.5v-55l-62 -14l25 148h62l-4 -145q-46 -25 -97.5 -36.5t-104.5 -11.5zM270 869l157 -116h-84l157 116l24 -21l-102 -118h-74l-102 118z" />
    <glyph glyph-name="ccaron" unicode="&#x10d;" horiz-adv-x="488" 
d="M272 -13q-71 0 -122 29.5t-78 84.5t-27 131q0 81 32.5 138t85.5 87.5t113 30.5q45 0 83 -17t63 -46.5t31 -66.5q-4 -19 -15.5 -28.5t-30.5 -9.5q-25 0 -37.5 13.5t-17.5 34.5l-24 87l48 -38q-25 14 -50 19.5t-46 5.5q-42 0 -75.5 -22.5t-52.5 -67t-19 -110.5
q0 -67 22 -109t58.5 -61.5t81.5 -19.5q25 0 48.5 5.5t46.5 20t45 40.5l22 -18q-19 -36 -44.5 -61t-59.5 -38.5t-81 -13.5zM162 739l157 -143h-84l157 143l24 -20l-102 -148h-74l-102 148z" />
    <glyph glyph-name="Dcaron" unicode="&#x10e;" horiz-adv-x="710" 
d="M44 0v41l131 15h10v-56h-141zM135 0q2 51 2.5 102.5t0.5 106.5v113v37v104t-0.5 104t-2.5 103h101q-1 -50 -2 -102t-1 -104v-105v-37v-111.5t1 -106.5l2 -104h-101zM185 0v47h129q77 0 130.5 34t81.5 98t28 155q0 141 -61 215.5t-170 74.5h-138v46h154q96 0 169 -39
t114 -113.5t41 -183.5q0 -108 -45 -182.5t-122.5 -113t-175.5 -38.5h-135zM44 629v41h141v-56h-10zM225 869l157 -116h-84l157 116l24 -21l-102 -118h-74l-102 118z" />
    <glyph glyph-name="dcaron" unicode="&#x10f;" horiz-adv-x="579" 
d="M608 750q20 0 28 -10t8 -27q0 -14 -5 -36t-13 -46.5t-16 -48.5l-19 -54h-32l3 209q12 7 23.5 10t22.5 3zM249 -13q-61 0 -107 31t-71.5 86.5t-25.5 128.5q0 77 28 134t76 89t109 32q26 0 50 -7.5t47.5 -25t46.5 -48.5h15l-10 -48q-43 42 -74 57t-60 15q-37 0 -68.5 -20.5
t-50.5 -64t-19 -111.5q0 -65 18 -107.5t49.5 -63t71.5 -20.5q38 0 67.5 18.5t63.5 62.5l9 -47h-12q-18 -29 -40.5 -49.5t-50 -31t-62.5 -10.5zM396 -10l-10 101v2v293l3 13v250l-85 10v36l156 45l14 -8l-4 -143v-541l81 -12v-36z" />
    <glyph glyph-name="Dcroat" unicode="&#x110;" horiz-adv-x="710" 
d="M386 319h-342v47h342v-47zM44 0v41l131 15h10v-56h-141zM135 0q2 51 2.5 102.5t0.5 106.5v113v37v104t-0.5 104t-2.5 103h101q-1 -50 -2 -102t-1 -104v-105v-37v-111.5t1 -106.5l2 -104h-101zM185 0v47h129q77 0 130.5 34t81.5 98t28 155q0 141 -61 215.5t-170 74.5h-138
v46h154q96 0 169 -39t114 -113.5t41 -183.5q0 -108 -45 -182.5t-122.5 -113t-175.5 -38.5h-135zM44 629v41h141v-56h-10z" />
    <glyph glyph-name="dcroat" unicode="&#x111;" horiz-adv-x="567" 
d="M204 543v46h348v-46h-348zM135 225q0 -62 18 -102t49.5 -59.5t71.5 -19.5q38 0 67.5 19t63.5 62h2l7 -26q-22 -39 -47 -63.5t-54 -36.5t-64 -12q-61 0 -107 30t-71.5 83t-25.5 123q0 74 27.5 130.5t75.5 89t107 32.5q33 0 60 -9.5t52 -32t50 -61.5h2l-12 -26
q-43 41 -74 56.5t-58 15.5q-38 0 -70 -21.5t-51 -64t-19 -107.5zM551 0l-155 -10l-10 101v2v290l3 13v258l-85 5v36l156 45l14 -8l-4 -153v-531l81 -12v-36z" />
    <glyph glyph-name="Emacron" unicode="&#x112;" horiz-adv-x="603" 
d="M44 0v41l131 15h10v-56h-141zM135 0q2 51 2.5 102t0.5 103.5v104.5v49v104t-0.5 104t-2.5 103h101q-1 -50 -2 -102t-1 -104v-105v-37v-111.5t1 -106.5l2 -104h-101zM185 0v50h335l-35 -30l27 158h57l-7 -178h-377zM185 318v47h226v-47h-226zM394 224l-15 111v20l15 105
h46v-236h-46zM44 629v41h141v-56h-10zM492 493l-27 157l35 -30h-315v50h357l7 -177h-57zM191 759v63h280v-63h-280z" />
    <glyph glyph-name="emacron" unicode="&#x113;" horiz-adv-x="510" 
d="M277 -13q-70 0 -122.5 29t-81 84t-28.5 132t31 134.5t83.5 89.5t114.5 32q53 0 95 -23t67 -65.5t25 -103.5q0 -17 -2 -31.5t-5 -24.5h-370v42h229q41 0 53 15t12 37q0 35 -12.5 59t-36 36.5t-55.5 12.5q-34 0 -66.5 -19.5t-53.5 -62.5t-21 -116q0 -62 20 -105t57.5 -65
t89.5 -22q47 0 82.5 15.5t65.5 49.5l21 -17q-20 -34 -45.5 -59.5t-60.5 -39.5t-86 -14zM155 596v63h240v-63h-240z" />
    <glyph glyph-name="Ebreve" unicode="&#x114;" horiz-adv-x="603" 
d="M44 0v41l131 15h10v-56h-141zM135 0q2 51 2.5 102t0.5 103.5v104.5v49v104t-0.5 104t-2.5 103h101q-1 -50 -2 -102t-1 -104v-105v-37v-111.5t1 -106.5l2 -104h-101zM185 0v50h335l-35 -30l27 158h57l-7 -178h-377zM185 318v47h226v-47h-226zM394 224l-15 111v20l15 105
h46v-236h-46zM44 629v41h141v-56h-10zM492 493l-27 157l35 -30h-315v50h357l7 -177h-57zM187 859l31 11q11 -34 40 -55.5t73 -21.5q45 0 72.5 21.5t40.5 55.5l31 -11q-4 -30 -21 -59t-47.5 -48.5t-75.5 -19.5t-75.5 19.5t-47 48.5t-21.5 59z" />
    <glyph glyph-name="ebreve" unicode="&#x115;" horiz-adv-x="510" 
d="M277 -13q-70 0 -122.5 29t-81 84t-28.5 132t31 134.5t83.5 89.5t114.5 32q53 0 95 -23t67 -65.5t25 -103.5q0 -17 -2 -31.5t-5 -24.5h-370v42h229q41 0 53 15t12 37q0 35 -12.5 59t-36 36.5t-55.5 12.5q-34 0 -66.5 -19.5t-53.5 -62.5t-21 -116q0 -62 20 -105t57.5 -65
t89.5 -22q47 0 82.5 15.5t65.5 49.5l21 -17q-20 -34 -45.5 -59.5t-60.5 -39.5t-86 -14zM124 723l30 11q15 -39 43.5 -66t77.5 -27q50 0 78 27t43 66l30 -11q-3 -29 -14.5 -55.5t-30 -47.5t-45 -33t-61.5 -12q-34 0 -61 12t-45.5 33t-30 47.5t-14.5 55.5z" />
    <glyph glyph-name="Edotaccent" unicode="&#x116;" horiz-adv-x="603" 
d="M44 0v41l131 15h10v-56h-141zM135 0q2 51 2.5 102t0.5 103.5v104.5v49v104t-0.5 104t-2.5 103h101q-1 -50 -2 -102t-1 -104v-105v-37v-111.5t1 -106.5l2 -104h-101zM185 0v50h335l-35 -30l27 158h57l-7 -178h-377zM185 318v47h226v-47h-226zM394 224l-15 111v20l15 105
h46v-236h-46zM44 629v41h141v-56h-10zM492 493l-27 157l35 -30h-315v50h357l7 -177h-57zM331 737q-28 0 -47.5 18t-19.5 46q0 29 19.5 46.5t47.5 17.5q29 0 48 -17.5t19 -46.5q0 -28 -19 -46t-48 -18z" />
    <glyph glyph-name="edotaccent" unicode="&#x117;" horiz-adv-x="510" 
d="M277 -13q-70 0 -122.5 29t-81 84t-28.5 132t31 134.5t83.5 89.5t114.5 32q53 0 95 -23t67 -65.5t25 -103.5q0 -17 -2 -31.5t-5 -24.5h-370v42h229q41 0 53 15t12 37q0 35 -12.5 59t-36 36.5t-55.5 12.5q-34 0 -66.5 -19.5t-53.5 -62.5t-21 -116q0 -62 20 -105t57.5 -65
t89.5 -22q47 0 82.5 15.5t65.5 49.5l21 -17q-20 -34 -45.5 -59.5t-60.5 -39.5t-86 -14zM275 589q-28 0 -47.5 18t-19.5 46t19.5 46t47.5 18q29 0 48 -18t19 -46t-19 -46t-48 -18z" />
    <glyph glyph-name="Eogonek" unicode="&#x118;" horiz-adv-x="603" 
d="M44 0v41l131 15h10v-56h-141zM135 0q2 51 2.5 102t0.5 103.5v104.5v49v104t-0.5 104t-2.5 103h101q-1 -50 -2 -102t-1 -104v-105v-37v-111.5t1 -106.5l2 -104h-101zM185 0v50h335l-35 -30l27 158h57l-7 -178h-377zM185 318v47h226v-47h-226zM394 224l-15 111v20l15 105
h46v-236h-46zM44 629v41h141v-56h-10zM492 493l-27 157l35 -30h-315v50h357l7 -177h-57zM457 -221q-37 0 -60.5 22.5t-23.5 60.5q0 32 13.5 61t36.5 52t51 37v1h29q-32 -20 -49 -51.5t-17 -63.5q0 -29 16 -46t38 -17q12 0 24 3t25 10l13 -25q-19 -24 -42 -34t-54 -10z" />
    <glyph glyph-name="eogonek" unicode="&#x119;" horiz-adv-x="510" 
d="M337 -221q-37 0 -60.5 22.5t-23.5 60.5q0 34 14 63.5t36.5 52.5t49.5 36v-16q-21 -5 -43 -8t-42 -3q-67 0 -117.5 29.5t-78 85.5t-27.5 134q0 75 31.5 132t83.5 88.5t114 31.5q53 0 95 -23t67 -66t25 -104q0 -16 -2 -30.5t-5 -24.5h-370v42h229q41 0 53 15t12 37
q0 35 -12.5 59t-36 36.5t-55.5 12.5q-33 0 -65.5 -19t-54 -62t-21.5 -117q0 -61 20.5 -104t58 -65.5t86.5 -22.5q47 0 78.5 19t59.5 51l24 -19q-14 -29 -31.5 -49t-45.5 -41q-20 -16 -35 -33.5t-23 -37.5t-8 -44q0 -29 16 -46t38 -17q12 0 24 3t25 10l13 -25
q-19 -24 -42 -34t-54 -10z" />
    <glyph glyph-name="Ecaron" unicode="&#x11a;" horiz-adv-x="603" 
d="M44 0v41l131 15h10v-56h-141zM135 0q2 51 2.5 102t0.5 103.5v104.5v49v104t-0.5 104t-2.5 103h101q-1 -50 -2 -102t-1 -104v-105v-37v-111.5t1 -106.5l2 -104h-101zM185 0v50h335l-35 -30l27 158h57l-7 -178h-377zM185 318v47h226v-47h-226zM394 224l-15 111v20l15 105
h46v-236h-46zM44 629v41h141v-56h-10zM492 493l-27 157l35 -30h-315v50h357l7 -177h-57zM216 869l157 -116h-84l157 116l24 -21l-102 -118h-74l-102 118z" />
    <glyph glyph-name="ecaron" unicode="&#x11b;" horiz-adv-x="510" 
d="M277 -13q-70 0 -122.5 29t-81 84t-28.5 132t31 134.5t83.5 89.5t114.5 32q53 0 95 -23t67 -65.5t25 -103.5q0 -17 -2 -31.5t-5 -24.5h-370v42h229q41 0 53 15t12 37q0 35 -12.5 59t-36 36.5t-55.5 12.5q-34 0 -66.5 -19.5t-53.5 -62.5t-21 -116q0 -62 20 -105t57.5 -65
t89.5 -22q47 0 82.5 15.5t65.5 49.5l21 -17q-20 -34 -45.5 -59.5t-60.5 -39.5t-86 -14zM160 739l157 -143h-84l157 143l24 -20l-102 -148h-74l-102 148z" />
    <glyph glyph-name="Gcircumflex" unicode="&#x11c;" horiz-adv-x="682" 
d="M384 -15q-75 0 -137 26t-107 73t-69 111t-24 140q0 75 24.5 139t69.5 111.5t108 73.5t139 26q41 0 76 -5t66 -15.5t59 -26.5l4 -146h-62l-26 149l63 -20v-57q-40 38 -82 54.5t-89 16.5q-69 0 -123.5 -35t-86 -102t-31.5 -163t30 -162.5t85.5 -101.5t131.5 -35
q43 0 77.5 10t76.5 31l-47 -48v59q0 57 -0.5 115t-2.5 115h100q-1 -56 -2 -113.5t-1 -116.5v-44q-52 -27 -105 -43t-115 -16zM404 278v40h263v-40l-111 -11h-22zM407 857l131 -115l-19 -25l-171 98h84l-171 -98l-19 25l131 115h34z" />
    <glyph glyph-name="gcircumflex" unicode="&#x11d;" horiz-adv-x="518" 
d="M232 -240q-68 0 -111.5 15.5t-64 43.5t-20.5 63q0 25 12 46t41 41.5t79 40.5l6 -6q-20 -19 -32.5 -36t-18 -33.5t-5.5 -36.5q0 -32 16 -52.5t45 -29.5t68 -9q55 0 92.5 13.5t56.5 36.5t19 51q0 34 -23 56t-77 22h-117q-13 0 -27 1t-26 3v3q-38 8 -57.5 28t-19.5 52
q0 25 18 53.5t62 67.5v11l34 -15q-22 -23 -32 -40.5t-10 -34.5q0 -28 17 -41t53 -13h119q55 0 90.5 -15t53 -43.5t17.5 -68.5q0 -33 -16.5 -64t-48.5 -56t-80.5 -39.5t-112.5 -14.5zM239 160q-52 0 -93 18.5t-64 55t-23 90.5q0 53 23.5 89.5t64.5 55.5t93 19q30 0 55.5 -6
t47 -17.5t37.5 -28.5l2 -2q18 -20 28 -47.5t10 -62.5q0 -52 -23.5 -89t-64.5 -56t-93 -19zM237 200q32 0 55 16.5t35 45t12 65.5q0 36 -11.5 63t-33.5 42t-53 15t-54 -16t-35 -43.5t-12 -64.5q0 -36 11.5 -64t33 -43.5t52.5 -15.5zM343 415v27h6l131 46l15 -10v-63h-152z
M396 546l-168 152h84l-168 -152l-23 22l132 176h34l132 -176z" />
    <glyph glyph-name="Gbreve" unicode="&#x11e;" horiz-adv-x="682" 
d="M384 -15q-75 0 -137 26t-107 73t-69 111t-24 140q0 75 24.5 139t69.5 111.5t108 73.5t139 26q41 0 76 -5t66 -15.5t59 -26.5l4 -146h-62l-26 149l63 -20v-57q-40 38 -82 54.5t-89 16.5q-69 0 -123.5 -35t-86 -102t-31.5 -163t30 -162.5t85.5 -101.5t131.5 -35
q43 0 77.5 10t76.5 31l-47 -48v59q0 57 -0.5 115t-2.5 115h100q-1 -56 -2 -113.5t-1 -116.5v-44q-52 -27 -105 -43t-115 -16zM404 278v40h263v-40l-111 -11h-22zM246 859l31 11q11 -34 40 -55.5t73 -21.5q45 0 72.5 21.5t40.5 55.5l31 -11q-4 -30 -21 -59t-47.5 -48.5
t-75.5 -19.5t-75.5 19.5t-47 48.5t-21.5 59z" />
    <glyph glyph-name="gbreve" unicode="&#x11f;" horiz-adv-x="518" 
d="M232 -240q-68 0 -111.5 15.5t-64 43.5t-20.5 63q0 25 12 46t41 41.5t79 40.5l6 -6q-20 -19 -32.5 -36t-18 -33.5t-5.5 -36.5q0 -32 16 -52.5t45 -29.5t68 -9q55 0 92.5 13.5t56.5 36.5t19 51q0 34 -23 56t-77 22h-117q-13 0 -27 1t-26 3v3q-38 8 -57.5 28t-19.5 52
q0 25 18 53.5t62 67.5v11l34 -15q-22 -23 -32 -40.5t-10 -34.5q0 -28 17 -41t53 -13h119q55 0 90.5 -15t53 -43.5t17.5 -68.5q0 -33 -16.5 -64t-48.5 -56t-80.5 -39.5t-112.5 -14.5zM239 160q-52 0 -93 18.5t-64 55t-23 90.5q0 53 23.5 89.5t64.5 55.5t93 19q30 0 55.5 -6
t47 -17.5t37.5 -28.5l2 -2q18 -20 28 -47.5t10 -62.5q0 -52 -23.5 -89t-64.5 -56t-93 -19zM237 200q32 0 55 16.5t35 45t12 65.5q0 36 -11.5 63t-33.5 42t-53 15t-54 -16t-35 -43.5t-12 -64.5q0 -36 11.5 -64t33 -43.5t52.5 -15.5zM343 415v27h6l131 46l15 -10v-63h-152z
M119 723l30 11q15 -39 43.5 -66t77.5 -27q50 0 78 27t43 66l30 -11q-3 -29 -14.5 -55.5t-30 -47.5t-45 -33t-61.5 -12q-34 0 -61 12t-45.5 33t-30 47.5t-14.5 55.5z" />
    <glyph glyph-name="Gdotaccent" unicode="&#x120;" horiz-adv-x="682" 
d="M384 -15q-75 0 -137 26t-107 73t-69 111t-24 140q0 75 24.5 139t69.5 111.5t108 73.5t139 26q41 0 76 -5t66 -15.5t59 -26.5l4 -146h-62l-26 149l63 -20v-57q-40 38 -82 54.5t-89 16.5q-69 0 -123.5 -35t-86 -102t-31.5 -163t30 -162.5t85.5 -101.5t131.5 -35
q43 0 77.5 10t76.5 31l-47 -48v59q0 57 -0.5 115t-2.5 115h100q-1 -56 -2 -113.5t-1 -116.5v-44q-52 -27 -105 -43t-115 -16zM404 278v40h263v-40l-111 -11h-22zM390 737q-28 0 -47.5 18t-19.5 46q0 29 19.5 46.5t47.5 17.5q29 0 48 -17.5t19 -46.5q0 -28 -19 -46t-48 -18z
" />
    <glyph glyph-name="gdotaccent" unicode="&#x121;" horiz-adv-x="518" 
d="M232 -240q-68 0 -111.5 15.5t-64 43.5t-20.5 63q0 25 12 46t41 41.5t79 40.5l6 -6q-20 -19 -32.5 -36t-18 -33.5t-5.5 -36.5q0 -32 16 -52.5t45 -29.5t68 -9q55 0 92.5 13.5t56.5 36.5t19 51q0 34 -23 56t-77 22h-117q-13 0 -27 1t-26 3v3q-38 8 -57.5 28t-19.5 52
q0 25 18 53.5t62 67.5v11l34 -15q-22 -23 -32 -40.5t-10 -34.5q0 -28 17 -41t53 -13h119q55 0 90.5 -15t53 -43.5t17.5 -68.5q0 -33 -16.5 -64t-48.5 -56t-80.5 -39.5t-112.5 -14.5zM239 160q-52 0 -93 18.5t-64 55t-23 90.5q0 53 23.5 89.5t64.5 55.5t93 19q30 0 55.5 -6
t47 -17.5t37.5 -28.5l2 -2q18 -20 28 -47.5t10 -62.5q0 -52 -23.5 -89t-64.5 -56t-93 -19zM237 200q32 0 55 16.5t35 45t12 65.5q0 36 -11.5 63t-33.5 42t-53 15t-54 -16t-35 -43.5t-12 -64.5q0 -36 11.5 -64t33 -43.5t52.5 -15.5zM343 415v27h6l131 46l15 -10v-63h-152z
M270 589q-28 0 -47.5 18t-19.5 46t19.5 46t47.5 18q29 0 48 -18t19 -46t-19 -46t-48 -18z" />
    <glyph glyph-name="uni0122" unicode="&#x122;" horiz-adv-x="682" 
d="M384 -15q-75 0 -137 26t-107 73t-69 111t-24 140q0 75 24.5 139t69.5 111.5t108 73.5t139 26q41 0 76 -5t66 -15.5t59 -26.5l4 -146h-62l-26 149l63 -20v-57q-40 38 -82 54.5t-89 16.5q-69 0 -123.5 -35t-86 -102t-31.5 -163t30 -162.5t85.5 -101.5t131.5 -35
q43 0 77.5 10t76.5 31l-47 -48v59q0 57 -0.5 115t-2.5 115h100q-1 -56 -2 -113.5t-1 -116.5v-44q-52 -27 -105 -43t-115 -16zM404 278v40h263v-40l-111 -11h-22zM452 -125q0 -31 -14.5 -55.5t-38.5 -42t-53 -27.5l-12 30q34 16 52.5 35.5t21.5 39.5l11 -29q-37 13 -53 34
t-16 37q0 22 11.5 37t36.5 15q12 0 24 -5t24 -17q4 -15 5 -27t1 -25z" />
    <glyph glyph-name="uni0123" unicode="&#x123;" horiz-adv-x="518" 
d="M211 645q0 31 14.5 55.5t39 42t52.5 27.5l12 -30q-34 -16 -52.5 -35.5t-21.5 -39.5l-11 29q38 -13 53.5 -34t15.5 -37q0 -22 -11.5 -37t-36.5 -15q-12 0 -24 5t-24 17q-4 15 -5 27t-1 25zM232 -240q-68 0 -111.5 15.5t-64 43.5t-20.5 63q0 25 12 46t41 41.5t79 40.5l6 -6
q-20 -19 -32.5 -36t-18 -33.5t-5.5 -36.5q0 -32 16 -52.5t45 -29.5t68 -9q55 0 92.5 13.5t56.5 36.5t19 51q0 34 -23 56t-77 22h-117q-13 0 -27 1t-26 3v3q-38 8 -57.5 28t-19.5 52q0 25 18 53.5t62 67.5v11l34 -15q-22 -23 -32 -40.5t-10 -34.5q0 -28 17 -41t53 -13h119
q55 0 90.5 -15t53 -43.5t17.5 -68.5q0 -33 -16.5 -64t-48.5 -56t-80.5 -39.5t-112.5 -14.5zM239 160q-52 0 -93 18.5t-64 55t-23 90.5q0 53 23.5 89.5t64.5 55.5t93 19q30 0 55.5 -6t47 -17.5t37.5 -28.5l2 -2q18 -20 28 -47.5t10 -62.5q0 -52 -23.5 -89t-64.5 -56t-93 -19z
M237 200q32 0 55 16.5t35 45t12 65.5q0 36 -11.5 63t-33.5 42t-53 15t-54 -16t-35 -43.5t-12 -64.5q0 -36 11.5 -64t33 -43.5t52.5 -15.5zM343 415v27h6l131 46l15 -10v-63h-152z" />
    <glyph glyph-name="Hcircumflex" unicode="&#x124;" horiz-adv-x="788" 
d="M44 0v41l131 15h20l131 -15v-41h-282zM135 0q2 51 2.5 102t0.5 103.5v104.5v49v104t-0.5 104t-2.5 103h101q-1 -50 -2 -102t-1 -104v-105v-30v-116.5t1 -108t2 -104.5h-101zM185 319v47h418v-47h-418zM462 0v41l131 15h21l130 -15v-41h-282zM553 0q2 51 2.5 103t0.5 108
v118v30v104t-0.5 104t-2.5 103h100q-1 -50 -2 -102t-1 -104v-105v-49v-103t1 -103.5t2 -103.5h-100zM44 629v41h282v-41l-131 -15h-20zM462 629v41h282v-41l-130 -15h-21zM411 857l131 -115l-19 -25l-171 98h84l-171 -98l-19 25l131 115h34z" />
    <glyph glyph-name="hcircumflex" unicode="&#x125;" horiz-adv-x="601" 
d="M30 0v36l109 20h23l100 -20v-36h-232zM104 0q1 23 1.5 60.5t1 78t0.5 71.5v439l-82 10v36l153 45l14 -8l-4 -143v-211l3 -13v-155q0 -31 0.5 -71.5t1 -78t1.5 -60.5h-90zM339 0v36l109 20h23l100 -20v-36h-232zM411 0q1 23 1.5 60t1 77.5t0.5 72.5v85q0 69 -19 95t-63 26
q-24 0 -47 -7t-47 -22t-52 -41l-19 38h11q25 30 57 53.5t67 37t69 13.5q65 0 96.5 -43.5t31.5 -141.5v-93q0 -32 0.5 -72.5t1 -77.5t1.5 -60h-91zM299 900l131 -115l-19 -25l-171 98h84l-171 -98l-19 25l131 115h34z" />
    <glyph glyph-name="Hbar" unicode="&#x126;" horiz-adv-x="789" 
d="M135 0q2 51 2.5 102t0.5 103.5v104.5v49v104t-0.5 104t-2.5 103h101q-1 -50 -2 -102t-1 -104v-104v-31v-116.5t1 -108t2 -104.5h-101zM553 0q2 51 2.5 103t0.5 108v118v31v103t-0.5 104t-2.5 103h100q-1 -50 -2 -102t-1 -104v-105v-49v-103t1 -103.5t2 -103.5h-100zM44 0
v41l131 15h20l131 -15v-41h-282zM44 629v41h282v-41l-131 -15h-20zM462 0v41l131 15h21l130 -15v-41h-282zM462 629v41h282v-41l-130 -15h-21zM30 466v47h729v-47h-729zM185 299v47h418v-47h-418z" />
    <glyph glyph-name="hbar" unicode="&#x127;" horiz-adv-x="601" 
d="M104 0q1 23 1.5 60.5t1 78t0.5 71.5v439l-82 10v36l153 45l14 -8l-4 -153v-224l3 -13v-132q0 -31 0.5 -71.5t1 -78t1.5 -60.5h-90zM30 0v36l109 20h23l100 -20v-36h-232zM339 0v36l109 20h23l100 -20v-36h-232zM25 538v46h347v-46h-347zM411 0q1 23 1.5 60t1 77.5
t0.5 72.5v62q0 68 -19 94.5t-63 26.5q-24 0 -47 -7t-47 -22t-52 -41l-22 47h22q25 28 55.5 49t64 33.5t65.5 12.5q65 0 96.5 -43.5t31.5 -141.5v-70q0 -32 0.5 -72.5t1 -77.5t1.5 -60h-91z" />
    <glyph glyph-name="Itilde" unicode="&#x128;" horiz-adv-x="371" 
d="M44 0v41l131 15h21l131 -15v-41h-283zM135 0q2 51 2.5 102t0.5 103.5v104.5v49v104t-0.5 104t-2.5 103h101q-1 -50 -2 -102t-1 -104v-105v-49v-103t1 -103.5t2 -103.5h-101zM44 629v41h283v-41l-131 -15h-21zM6 735q9 59 34 94t71 35q27 0 46 -10.5t38 -26.5
q17 -13 34 -29t39 -16q25 0 41 21.5t27 58.5l30 -10q-10 -58 -34 -93t-70 -35q-28 0 -46.5 10t-35.5 23q-19 16 -36 32t-40 16q-24 0 -40.5 -21t-27.5 -58z" />
    <glyph glyph-name="itilde" unicode="&#x129;" horiz-adv-x="298" 
d="M35 0v36l109 20h23l100 -20v-36h-232zM108 0q1 23 1.5 60.5t1 78t0.5 71.5v47q0 41 -0.5 68.5t-2.5 57.5l-79 9v35l155 61l15 -10l-3 -136v-132q0 -31 0.5 -71.5t1 -78t1.5 -60.5h-91zM-14 586q8 59 31 94t64 35q25 0 42 -10t31 -24q18 -17 33.5 -32.5t35.5 -15.5
q23 0 37.5 21.5t24.5 58.5l27 -10q-9 -58 -31 -93t-64 -35q-25 0 -41.5 9.5t-31.5 23.5q-16 17 -32.5 32.5t-36.5 15.5q-22 0 -36.5 -21t-25.5 -58z" />
    <glyph glyph-name="Imacron" unicode="&#x12a;" horiz-adv-x="371" 
d="M44 0v41l131 15h21l131 -15v-41h-283zM135 0q2 51 2.5 102t0.5 103.5v104.5v49v104t-0.5 104t-2.5 103h101q-1 -50 -2 -102t-1 -104v-105v-49v-103t1 -103.5t2 -103.5h-101zM44 629v41h283v-41l-131 -15h-21zM46 759v63h280v-63h-280z" />
    <glyph glyph-name="imacron" unicode="&#x12b;" horiz-adv-x="298" 
d="M35 0v36l109 20h23l100 -20v-36h-232zM108 0q1 23 1.5 60.5t1 78t0.5 71.5v47q0 41 -0.5 68.5t-2.5 57.5l-79 9v35l155 61l15 -10l-3 -136v-132q0 -31 0.5 -71.5t1 -78t1.5 -60.5h-91zM29 596v63h240v-63h-240z" />
    <glyph glyph-name="Iogonek" unicode="&#x12e;" horiz-adv-x="371" 
d="M44 0v41l131 15h21l131 -15v-41h-283zM135 0q2 51 2.5 102t0.5 103.5v104.5v49v104t-0.5 104t-2.5 103h101q-1 -50 -2 -102t-1 -104v-105v-49v-103t1 -103.5t2 -103.5h-101zM44 629v41h283v-41l-131 -15h-21zM212 -221q-37 0 -60.5 22.5t-23.5 60.5q0 32 13.5 61t36.5 52
t51 37v1h29q-32 -20 -49 -51.5t-17 -63.5q0 -29 16 -46t38 -17q12 0 24 3t25 10l13 -25q-19 -24 -42 -34t-54 -10z" />
    <glyph glyph-name="iogonek" unicode="&#x12f;" horiz-adv-x="298" 
d="M35 0v36l109 20h23l100 -20v-36h-232zM108 0q1 23 1.5 60.5t1 78t0.5 71.5v47q0 41 -0.5 68.5t-2.5 57.5l-79 9v35l155 61l15 -10l-3 -136v-132q0 -31 0.5 -71.5t1 -78t1.5 -60.5h-91zM148 589q-28 0 -47.5 18t-19.5 46t19.5 46t47.5 18t47.5 -18t19.5 -46t-19.5 -46
t-47.5 -18zM182 -221q-37 0 -60.5 22.5t-23.5 60.5q0 32 13.5 61t36.5 52t51 37v1h29q-32 -20 -49 -51.5t-17 -63.5q0 -29 16 -46t38 -17q12 0 24 3t25 10l13 -25q-19 -24 -42 -34t-54 -10z" />
    <glyph glyph-name="Idotaccent" unicode="&#x130;" horiz-adv-x="371" 
d="M44 0v41l131 15h21l131 -15v-41h-283zM135 0q2 51 2.5 102t0.5 103.5v104.5v49v104t-0.5 104t-2.5 103h101q-1 -50 -2 -102t-1 -104v-105v-49v-103t1 -103.5t2 -103.5h-101zM44 629v41h283v-41l-131 -15h-21zM186 737q-28 0 -47.5 18t-19.5 46q0 29 19.5 46.5t47.5 17.5
q29 0 48 -17.5t19 -46.5q0 -28 -19 -46t-48 -18z" />
    <glyph glyph-name="dotlessi" unicode="&#x131;" horiz-adv-x="298" 
d="M35 0v36l109 20h23l100 -20v-36h-232zM108 0q1 23 1.5 60.5t1 78t0.5 71.5v47q0 41 -0.5 68.5t-2.5 57.5l-79 9v35l155 61l15 -10l-3 -136v-132q0 -31 0.5 -71.5t1 -78t1.5 -60.5h-91z" />
    <glyph glyph-name="Jcircumflex" unicode="&#x134;" horiz-adv-x="374" 
d="M70 -133q-29 0 -54.5 10.5t-32.5 38.5q5 28 21 38.5t39 10.5q20 0 37 -6.5t38 -22.5l34 -26v-8h-27v4q9 15 15.5 32t10 41.5t5 59t1.5 83.5v36v34t-0.5 50.5t-1 85t-1.5 136.5t-2 206h97q-2 -76 -2.5 -153.5t-0.5 -156.5v-145q0 -65 -2 -110.5t-8.5 -78t-17.5 -56
t-29 -45.5q-25 -31 -54.5 -44.5t-64.5 -13.5zM47 629v41h293v-41l-131 -15h-21zM214 857l131 -115l-19 -25l-171 98h84l-171 -98l-19 25l131 115h34z" />
    <glyph glyph-name="jcircumflex" unicode="&#x135;" horiz-adv-x="277" 
d="M6 -250q-30 0 -49.5 9t-29 22.5t-10.5 26.5q7 21 22 31t37 10q20 0 38 -7.5t37 -22.5l45 -34v-9h-40v13q11 5 19 14t15 26q8 21 12.5 56.5t6.5 88.5t2 128v155q0 41 -0.5 68.5t-2.5 57.5l-79 9v35l151 61l15 -10l-3 -136v-242q0 -81 -4 -137t-17.5 -93.5t-40.5 -64.5
q-26 -26 -53 -40.5t-71 -14.5zM278 546l-168 152h84l-168 -152l-23 22l132 176h34l132 -176z" />
    <glyph glyph-name="uni0136" unicode="&#x136;" horiz-adv-x="667" 
d="M135 0q2 51 2.5 102t0.5 103.5v104.5v49v104t-0.5 104t-2.5 103h97q-1 -50 -2 -102t-1 -104v-105v-74v-85.5t1 -97t2 -102.5h-97zM44 0v41l131 15h21l130 -15v-41h-282zM44 629v41h282v-41l-130 -15h-21zM405 0v41l121 15h15l121 -15v-41h-257zM417 629v41h230v-41
l-111 -15l-20 -4zM184 175l-4 66h4l27 33l323 396h61zM514 0l-198 371l55 65l242 -436h-99zM413 -125q0 -31 -14.5 -55.5t-38.5 -42t-53 -27.5l-12 30q34 16 52.5 35.5t21.5 39.5l11 -29q-37 13 -53 34t-16 37q0 22 11.5 37t36.5 15q12 0 24 -5t24 -17q4 -15 5 -27t1 -25z
" />
    <glyph glyph-name="uni0137" unicode="&#x137;" horiz-adv-x="547" 
d="M25 0v36l112 20h23l113 -20v-36h-248zM104 0q1 26 1.5 52t1 52.5t0.5 53v52.5v439l-82 10v36l156 45l14 -8l-4 -143v-379v-52.5t0.5 -53t1 -52.5t1.5 -52h-90zM149 137v62h3l132 138l133 138h62zM411 0l-165 266l60 60l175 -278l66 -12v-36h-136zM288 436v39h233v-39
l-111 -17l-30 -6zM356 -125q0 -31 -14.5 -55.5t-38.5 -42t-53 -27.5l-12 30q34 16 52.5 35.5t21.5 39.5l11 -29q-37 13 -53 34t-16 37q0 22 11.5 37t36.5 15q12 0 24 -5t24 -17q4 -15 5 -27t1 -25z" />
    <glyph glyph-name="kgreenlandic" unicode="&#x138;" horiz-adv-x="547" 
d="M31 0v36l109 20h23l100 -20v-36h-232zM104 0q1 23 1.5 60.5t1 78t0.5 71.5v48q0 28 -0.5 48.5t-1 38.5t-1.5 38l-79 9v35l154 61l16 -10l-3 -136v-131q0 -31 0.5 -72t1 -78.5t1.5 -60.5h-91zM149 137v62h3l133 138l133 138h62zM411 0l-164 266l59 60l196 -310l-66 40
l111 -20v-36h-136zM391 412l-101 24v39h232v-39l-111 -17z" />
    <glyph glyph-name="Lacute" unicode="&#x139;" horiz-adv-x="596" 
d="M44 0v41l131 15h10v-56h-141zM135 0q2 52 2.5 103.5t0.5 103v102.5v50v105t-0.5 104t-2.5 102h101q-1 -51 -2 -103t-1 -104v-104v-69v-90t1 -98.5t2 -101.5h-101zM185 0v50h307l-36 -29l35 167h61l-10 -188h-357zM44 629v41h283v-41l-131 -15h-21zM123 746
q23 25 46.5 48.5t47.5 45.5q21 21 35 29.5t27 8.5q16 0 27 -9.5t11 -24.5q0 -13 -10.5 -26t-39.5 -29q-31 -17 -62.5 -34t-63.5 -34z" />
    <glyph glyph-name="lacute" unicode="&#x13a;" horiz-adv-x="298" 
d="M25 0v36l112 20h23l113 -20v-36h-248zM104 0q1 35 1.5 70l1 70t0.5 70v439l-82 10v36l156 45l14 -8l-4 -143v-379q0 -35 0.5 -70l1 -70t1.5 -70h-90zM93 787q23 25 46.5 48.5t47.5 45.5q21 21 35 29.5t27 8.5q16 0 27 -9.5t11 -24.5q0 -13 -10.5 -26t-39.5 -29
q-31 -17 -62.5 -34t-63.5 -34z" />
    <glyph glyph-name="uni013B" unicode="&#x13b;" horiz-adv-x="596" 
d="M44 0v41l131 15h10v-56h-141zM135 0q2 52 2.5 103.5t0.5 103v102.5v50v105t-0.5 104t-2.5 102h101q-1 -51 -2 -103t-1 -104v-104v-69v-90t1 -98.5t2 -101.5h-101zM185 0v50h307l-36 -29l35 167h61l-10 -188h-357zM44 629v41h283v-41l-131 -15h-21zM376 -125
q0 -31 -14.5 -55.5t-38.5 -42t-53 -27.5l-12 30q34 16 52.5 35.5t21.5 39.5l11 -29q-37 13 -53 34t-16 37q0 22 11.5 37t36.5 15q12 0 24 -5t24 -17q4 -15 5 -27t1 -25z" />
    <glyph glyph-name="uni013C" unicode="&#x13c;" horiz-adv-x="298" 
d="M25 0v36l112 20h23l113 -20v-36h-248zM104 0q1 35 1.5 70l1 70t0.5 70v439l-82 10v36l156 45l14 -8l-4 -143v-379q0 -35 0.5 -70l1 -70t1.5 -70h-90zM209 -125q0 -31 -14.5 -55.5t-38.5 -42t-53 -27.5l-12 30q34 16 52.5 35.5t21.5 39.5l11 -29q-37 13 -53 34t-16 37
q0 22 11.5 37t36.5 15q12 0 24 -5t24 -17q4 -15 5 -27t1 -25z" />
    <glyph glyph-name="Lcaron" unicode="&#x13d;" horiz-adv-x="596" 
d="M479 700q20 0 28 -10t8 -27q0 -14 -5 -36t-13 -46.5t-16 -48.5l-19 -54h-32l3 209q12 7 23.5 10t22.5 3zM44 0v41l131 15h10v-56h-141zM135 0q2 52 2.5 103.5t0.5 103v102.5v50v105t-0.5 104t-2.5 102h101q-1 -51 -2 -103t-1 -104v-104v-69v-90t1 -98.5t2 -101.5h-101z
M185 0v50h307l-36 -29l35 167h61l-10 -188h-357zM44 629v41h283v-41l-131 -15h-21z" />
    <glyph glyph-name="lcaron" unicode="&#x13e;" horiz-adv-x="300" 
d="M329 750q20 0 28 -10t8 -27q0 -14 -5 -36t-13 -46.5t-16 -48.5l-19 -54h-32l3 209q12 7 23.5 10t22.5 3zM25 0v36l112 20h23l113 -20v-36h-248zM104 0q1 35 1.5 70l1 70t0.5 70v439l-82 10v36l156 45l14 -8l-4 -143v-379q0 -35 0.5 -70l1 -70t1.5 -70h-90z" />
    <glyph glyph-name="Ldot" unicode="&#x13f;" horiz-adv-x="596" 
d="M44 0v41l131 15h10v-56h-141zM135 0q2 52 2.5 103.5t0.5 103v102.5v50v105t-0.5 104t-2.5 102h101q-1 -51 -2 -103t-1 -104v-104v-69v-90t1 -98.5t2 -101.5h-101zM185 0v50h307l-36 -29l35 167h61l-10 -188h-357zM44 629v41h283v-41l-131 -15h-21zM484 297
q-30 0 -50.5 21t-20.5 50q0 30 20.5 51t50.5 21t50.5 -21t20.5 -51q0 -29 -20.5 -50t-50.5 -21z" />
    <glyph glyph-name="ldot" unicode="&#x140;" horiz-adv-x="298" 
d="M25 0v36l112 20h23l113 -20v-36h-248zM104 0q1 35 1.5 70l1 70t0.5 70v439l-82 10v36l156 45l14 -8l-4 -143v-379q0 -35 0.5 -70l1 -70t1.5 -70h-90zM298 298q-30 0 -50.5 21t-20.5 50q0 30 20.5 51t50.5 21t50.5 -21t20.5 -51q0 -29 -20.5 -50t-50.5 -21z" />
    <glyph glyph-name="Lslash" unicode="&#x141;" horiz-adv-x="596" 
d="M396 460v-51l-209 -120v52zM185 345v-52l-141 -79v51zM44 0v41l131 15h10v-56h-141zM135 0q2 52 2.5 103.5t0.5 103v102.5v50v105t-0.5 104t-2.5 102h101q-1 -51 -2 -103t-1 -104v-104v-69v-90t1 -98.5t2 -101.5h-101zM185 0v50h307l-36 -29l35 167h61l-10 -188h-357z
M44 629v41h283v-41l-131 -15h-21z" />
    <glyph glyph-name="lslash" unicode="&#x142;" horiz-adv-x="298" 
d="M150 415v-50l-125 -65v50zM273 474v-50l-127 -66v49zM25 0v36l112 20h23l113 -20v-36h-248zM104 0q1 35 1.5 70l1 70t0.5 70v439l-82 10v36l156 45l14 -8l-4 -143v-379q0 -35 0.5 -70l1 -70t1.5 -70h-90z" />
    <glyph glyph-name="Nacute" unicode="&#x143;" horiz-adv-x="735" 
d="M39 0v41l105 15h21l116 -15v-41h-242zM124 0v647h51v-312v-335h-51zM454 629v41h241v-41l-100 -15h-20zM575 -7l-409 578h-2l-34 50l-86 8v41h165l367 -522l-17 -5v192v335h51v-677h-35zM304 746q23 25 46.5 48.5t47.5 45.5q21 21 35 29.5t27 8.5q16 0 27 -9.5t11 -24.5
q0 -13 -10.5 -26t-39.5 -29q-31 -17 -62.5 -34t-63.5 -34z" />
    <glyph glyph-name="nacute" unicode="&#x144;" horiz-adv-x="606" 
d="M40 0v36l109 20h23l100 -20v-36h-232zM113 0q1 23 1.5 60.5t1 78t0.5 71.5v48q0 28 -0.5 48.5t-1 38.5t-1.5 38l-79 9v35l140 61l15 -10l12 -116v-1v-151q0 -31 0.5 -71.5t1 -78t1.5 -60.5h-91zM344 0v36l109 20h23l100 -20v-36h-232zM417 0q1 23 1.5 60t1 77.5t0.5 72.5
v85q0 69 -19.5 95t-63.5 26q-24 0 -47 -7t-47 -22t-52 -40l-13 38h8q25 30 56.5 53t66 36.5t67.5 13.5q65 0 96.5 -43.5t31.5 -141.5v-93q0 -32 0.5 -72.5t1 -77.5t1.5 -60h-90zM248 576q14 24 28.5 47t29.5 46.5t31 47.5q14 23 27.5 32t26.5 9q14 0 26 -9t12 -29
q0 -10 -6.5 -22.5t-27.5 -32.5l-40 -36l-40 -36t-41 -36z" />
    <glyph glyph-name="uni0145" unicode="&#x145;" horiz-adv-x="735" 
d="M39 0v41l105 15h21l116 -15v-41h-242zM124 0v647h51v-312v-335h-51zM454 629v41h241v-41l-100 -15h-20zM575 -7l-409 578h-2l-34 50l-86 8v41h165l367 -522l-17 -5v192v335h51v-677h-35zM427 -125q0 -31 -14.5 -55.5t-38.5 -42t-53 -27.5l-12 30q34 16 52.5 35.5
t21.5 39.5l11 -29q-37 13 -53 34t-16 37q0 22 11.5 37t36.5 15q12 0 24 -5t24 -17q4 -15 5 -27t1 -25z" />
    <glyph glyph-name="uni0146" unicode="&#x146;" horiz-adv-x="606" 
d="M40 0v36l109 20h23l100 -20v-36h-232zM113 0q1 23 1.5 60.5t1 78t0.5 71.5v48q0 28 -0.5 48.5t-1 38.5t-1.5 38l-79 9v35l140 61l15 -10l12 -116v-1v-151q0 -31 0.5 -71.5t1 -78t1.5 -60.5h-91zM344 0v36l109 20h23l100 -20v-36h-232zM417 0q1 23 1.5 60t1 77.5t0.5 72.5
v85q0 69 -19.5 95t-63.5 26q-24 0 -47 -7t-47 -22t-52 -40l-13 38h8q25 30 56.5 53t66 36.5t67.5 13.5q65 0 96.5 -43.5t31.5 -141.5v-93q0 -32 0.5 -72.5t1 -77.5t1.5 -60h-90zM370 -125q0 -31 -14.5 -55.5t-38.5 -42t-53 -27.5l-12 30q34 16 52.5 35.5t21.5 39.5l11 -29
q-37 13 -53 34t-16 37q0 22 11.5 37t36.5 15q12 0 24 -5t24 -17q4 -15 5 -27t1 -25z" />
    <glyph glyph-name="Ncaron" unicode="&#x147;" horiz-adv-x="735" 
d="M39 0v41l105 15h21l116 -15v-41h-242zM124 0v647h51v-312v-335h-51zM454 629v41h241v-41l-100 -15h-20zM575 -7l-409 578h-2l-34 50l-86 8v41h165l367 -522l-17 -5v192v335h51v-677h-35zM256 869l157 -116h-84l157 116l24 -21l-102 -118h-74l-102 118z" />
    <glyph glyph-name="ncaron" unicode="&#x148;" horiz-adv-x="606" 
d="M40 0v36l109 20h23l100 -20v-36h-232zM113 0q1 23 1.5 60.5t1 78t0.5 71.5v48q0 28 -0.5 48.5t-1 38.5t-1.5 38l-79 9v35l140 61l15 -10l12 -116v-1v-151q0 -31 0.5 -71.5t1 -78t1.5 -60.5h-91zM344 0v36l109 20h23l100 -20v-36h-232zM417 0q1 23 1.5 60t1 77.5t0.5 72.5
v85q0 69 -19.5 95t-63.5 26q-24 0 -47 -7t-47 -22t-52 -40l-13 38h8q25 30 56.5 53t66 36.5t67.5 13.5q65 0 96.5 -43.5t31.5 -141.5v-93q0 -32 0.5 -72.5t1 -77.5t1.5 -60h-90zM192 739l157 -143h-84l157 143l24 -20l-102 -148h-74l-102 148z" />
    <glyph glyph-name="napostrophe" unicode="&#x149;" horiz-adv-x="778" 
d="M109 740q15 0 29.5 -6t28.5 -21q5 -16 6.5 -32.5t1.5 -32.5q0 -43 -19 -77t-51 -58.5t-70 -38.5l-14 35q31 15 52.5 30t34 34.5t18.5 47.5l12 -35l-50 30q-23 14 -32.5 28t-9.5 32q0 26 15.5 45t47.5 19zM212 0v36l109 20h23l100 -20v-36h-232zM285 0q1 23 1.5 60.5t1 78
t0.5 71.5v48q0 28 -0.5 48.5t-1 38.5t-1.5 38l-79 9v35l140 61l15 -10l12 -116v-1v-151q0 -31 0.5 -71.5t1 -78t1.5 -60.5h-91zM516 0v36l109 20h23l100 -20v-36h-232zM589 0q1 23 1.5 60t1 77.5t0.5 72.5v85q0 69 -19.5 95t-63.5 26q-24 0 -47 -7t-47 -22t-52 -40l-13 38h8
q25 30 56.5 53t66 36.5t67.5 13.5q65 0 96.5 -43.5t31.5 -141.5v-93q0 -32 0.5 -72.5t1 -77.5t1.5 -60h-90z" />
    <glyph glyph-name="Eng" unicode="&#x14a;" horiz-adv-x="735" 
d="M39 0v41l105 15h21l116 -15v-41h-242zM124 0v647h51v-312v-335h-51zM435 -133q-29 0 -54.5 10.5t-32.5 38.5q5 28 21 38.5t39 10.5q20 0 37 -6.5t38 -22.5l34 -26v-8h-28v4q26 28 42 55.5t23.5 65.5t7.5 95l-3 213v335h51v-455q0 -65 -2 -110.5t-8 -78t-17 -56t-29 -45.5
q-25 -31 -54.5 -44.5t-64.5 -13.5zM570 0l-406 571v0l-34 50l-86 8v41h164l381 -540h3v-130h-22zM575 614l-121 15v41h241v-41l-100 -15h-20z" />
    <glyph glyph-name="eng" unicode="&#x14b;" horiz-adv-x="606" 
d="M40 0v36l109 20h23l100 -20v-36h-232zM113 0q1 23 1.5 60.5t1 78t0.5 71.5v48q0 28 -0.5 48.5t-1 38.5t-1.5 38l-79 9v35l140 61l15 -10l12 -116v-1v-151q0 -31 0.5 -71.5t1 -78t1.5 -60.5h-91zM315 -250q-30 0 -50 9t-29.5 22.5t-9.5 26.5q6 21 21.5 31t37.5 10
q20 0 37.5 -7t37.5 -23l41 -32v-11h-36v14q10 4 18.5 12t14.5 24q9 23 14 58.5t6.5 89t1.5 128.5v193q0 69 -19.5 95t-63.5 26q-24 0 -47 -7t-47 -22t-52 -40l-15 27h2q25 33 57.5 59t69 40.5t71.5 14.5q65 0 96.5 -43.5t31.5 -141.5v-203q0 -61 -2.5 -107t-9.5 -81
t-20.5 -61t-34.5 -47q-23 -24 -50.5 -39t-71.5 -15z" />
    <glyph glyph-name="Omacron" unicode="&#x14c;" horiz-adv-x="707" 
d="M354 -15q-58 0 -113 22.5t-99 66.5t-69.5 109.5t-25.5 151.5q0 82 26 147t69.5 110t98.5 69t113 24t112.5 -22.5t98 -67t69.5 -109.5t26 -151q0 -82 -25.5 -147t-69 -110.5t-98.5 -69t-113 -23.5zM354 35q52 0 89.5 25.5t61 68t34.5 96t11 110.5q0 56 -11 109.5
t-34.5 96.5t-61 68.5t-89.5 25.5t-89.5 -25.5t-61.5 -68.5t-35.5 -96.5t-11.5 -109.5q0 -57 11.5 -110.5t35.5 -96t61.5 -68t89.5 -25.5zM214 759v63h280v-63h-280z" />
    <glyph glyph-name="omacron" unicode="&#x14d;" horiz-adv-x="549" 
d="M274 -13q-58 0 -110.5 27.5t-85.5 83t-33 137.5q0 83 33 139.5t85.5 85t110.5 28.5t110.5 -28.5t86 -85t33.5 -139.5q0 -82 -33.5 -137.5t-86 -83t-110.5 -27.5zM274 32q43 0 73 23t46 68t16 112q0 68 -16 114t-46 69.5t-73 23.5t-73 -23.5t-45.5 -69.5t-15.5 -114
q0 -67 15.5 -112t45.5 -68t73 -23zM155 596v63h240v-63h-240z" />
    <glyph glyph-name="Obreve" unicode="&#x14e;" horiz-adv-x="707" 
d="M354 -15q-58 0 -113 22.5t-99 66.5t-69.5 109.5t-25.5 151.5q0 82 26 147t69.5 110t98.5 69t113 24t112.5 -22.5t98 -67t69.5 -109.5t26 -151q0 -82 -25.5 -147t-69 -110.5t-98.5 -69t-113 -23.5zM354 35q52 0 89.5 25.5t61 68t34.5 96t11 110.5q0 56 -11 109.5
t-34.5 96.5t-61 68.5t-89.5 25.5t-89.5 -25.5t-61.5 -68.5t-35.5 -96.5t-11.5 -109.5q0 -57 11.5 -110.5t35.5 -96t61.5 -68t89.5 -25.5zM210 859l31 11q11 -34 40 -55.5t73 -21.5q45 0 72.5 21.5t40.5 55.5l31 -11q-4 -30 -21 -59t-47.5 -48.5t-75.5 -19.5t-75.5 19.5
t-47 48.5t-21.5 59z" />
    <glyph glyph-name="obreve" unicode="&#x14f;" horiz-adv-x="549" 
d="M274 -13q-58 0 -110.5 27.5t-85.5 83t-33 137.5q0 83 33 139.5t85.5 85t110.5 28.5t110.5 -28.5t86 -85t33.5 -139.5q0 -82 -33.5 -137.5t-86 -83t-110.5 -27.5zM274 32q43 0 73 23t46 68t16 112q0 68 -16 114t-46 69.5t-73 23.5t-73 -23.5t-45.5 -69.5t-15.5 -114
q0 -67 15.5 -112t45.5 -68t73 -23zM124 723l30 11q15 -39 43.5 -66t77.5 -27q50 0 78 27t43 66l30 -11q-3 -29 -14.5 -55.5t-30 -47.5t-45 -33t-61.5 -12q-34 0 -61 12t-45.5 33t-30 47.5t-14.5 55.5z" />
    <glyph glyph-name="Ohungarumlaut" unicode="&#x150;" horiz-adv-x="707" 
d="M354 -15q-58 0 -113 22.5t-99 66.5t-69.5 109.5t-25.5 151.5q0 82 26 147t69.5 110t98.5 69t113 24t112.5 -22.5t98 -67t69.5 -109.5t26 -151q0 -82 -25.5 -147t-69 -110.5t-98.5 -69t-113 -23.5zM354 35q52 0 89.5 25.5t61 68t34.5 96t11 110.5q0 56 -11 109.5
t-34.5 96.5t-61 68.5t-89.5 25.5t-89.5 -25.5t-61.5 -68.5t-35.5 -96.5t-11.5 -109.5q0 -57 11.5 -110.5t35.5 -96t61.5 -68t89.5 -25.5zM242 730l56 117q11 23 25.5 32.5t26.5 9.5q14 0 25 -9.5t11 -24.5q0 -9 -5 -20t-17 -24l-96 -99zM394 730l56 117q11 23 25.5 32.5
t27.5 9.5q14 0 24.5 -9.5t10.5 -24.5q0 -9 -5 -20t-17 -24l-96 -99z" />
    <glyph glyph-name="ohungarumlaut" unicode="&#x151;" horiz-adv-x="549" 
d="M274 -13q-58 0 -110.5 27.5t-85.5 83t-33 137.5q0 83 33 139.5t85.5 85t110.5 28.5t110.5 -28.5t86 -85t33.5 -139.5q0 -82 -33.5 -137.5t-86 -83t-110.5 -27.5zM274 32q43 0 73 23t46 68t16 112q0 68 -16 114t-46 69.5t-73 23.5t-73 -23.5t-45.5 -69.5t-15.5 -114
q0 -67 15.5 -112t45.5 -68t73 -23zM163 567l55 142q10 27 25 37t28 10q14 0 24.5 -10t10.5 -27q0 -7 -4 -20t-18 -31l-93 -117zM305 567l55 142q10 27 25 37t28 10q15 0 25.5 -10t10.5 -27q0 -7 -4.5 -20t-18.5 -31l-93 -117z" />
    <glyph glyph-name="OE" unicode="&#x152;" horiz-adv-x="938" 
d="M156 335q0 -58 12.5 -112t40.5 -96.5t72.5 -67t107.5 -24.5q36 0 61.5 5t59.5 21v-61q-40 -7 -72 -11t-56 -4q-69 0 -129.5 23t-106.5 68t-72.5 110t-26.5 149q0 83 26.5 148t72.5 110t106.5 68.5t129.5 23.5q23 0 55.5 -3.5t72.5 -11.5v-61q-34 16 -59.5 21t-60.5 5
q-64 0 -108.5 -24.5t-72 -67t-40.5 -96.5t-13 -112zM469 0q2 51 2.5 102t0.5 103.5v104.5v49v104t-0.5 104t-2.5 103h101q-1 -50 -2 -102t-1 -104v-105v-37v-111.5t1 -106.5l2 -104h-101zM727 224l-15 111v20l15 105h46v-236h-46zM520 318v47h224v-47h-224zM826 493l-22 127
h-284v50h356l7 -177h-57zM846 178h57l-7 -178h-376v50h304z" />
    <glyph glyph-name="oe" unicode="&#x153;" horiz-adv-x="872" 
d="M274 -13q-58 0 -110.5 28t-85.5 83.5t-33 137.5q0 83 33.5 139t86 84.5t109.5 28.5q40 0 80.5 -16.5t73 -47t48.5 -74.5l-37 1q19 43 48.5 73.5t67.5 47t82 16.5q53 0 95 -23t66.5 -65.5t24.5 -103.5q0 -17 -1.5 -31.5t-4.5 -24.5h-371v42h230q40 0 52 15t12 37
q0 35 -12.5 59t-35.5 36.5t-55 12.5q-34 0 -67 -19.5t-54 -62.5t-21 -116q0 -62 20.5 -105t58 -65t89.5 -22q46 0 82 15.5t65 49.5l21 -17q-20 -34 -45 -59.5t-60 -39.5t-86 -14q-53 0 -94 16.5t-70 48.5t-45 77l45 -1q-17 -45 -49.5 -76.5t-72 -48t-80.5 -16.5zM274 32
q44 0 74 22.5t45.5 67t15.5 111.5q0 68 -15.5 114.5t-45.5 70.5t-74 24q-43 0 -73 -23.5t-45.5 -69t-15.5 -113.5q0 -67 15.5 -112.5t45.5 -68.5t73 -23z" />
    <glyph glyph-name="Racute" unicode="&#x154;" horiz-adv-x="651" 
d="M44 0v41l131 15h21l131 -15v-41h-283zM135 0q2 51 2.5 102t0.5 103.5v104.5v49v104t-0.5 104t-2.5 103h101q-1 -52 -2 -103.5t-1 -104.5v-112v-30v-110t1 -106l2 -104h-101zM562 -10q-47 0 -70.5 14t-32.5 50l-40 160q-9 41 -26 61.5t-43.5 27.5t-67.5 7h-96v45h124
q54 0 89 18t52 49.5t17 71.5q0 63 -35 96.5t-112 33.5h-136v46h139q115 0 179 -46t64 -129q0 -42 -22 -80t-66.5 -63t-111.5 -31v8q30 -2 54 -10t42 -23.5t31 -39.5t23 -58l48 -166l-34 21l106 -12v-41q-10 -3 -21.5 -5t-24.5 -3.5t-29 -1.5zM44 629v41h141v-56h-10z
M256 746q23 25 46.5 48.5t47.5 45.5q21 21 35 29.5t27 8.5q16 0 27 -9.5t11 -24.5q0 -13 -10.5 -26t-39.5 -29q-31 -17 -62.5 -34t-63.5 -34z" />
    <glyph glyph-name="racute" unicode="&#x155;" horiz-adv-x="423" 
d="M42 0v36l109 20h25l109 -20v-36h-243zM113 0q1 23 1.5 60.5t1 78t0.5 71.5v48q0 28 -0.5 48.5t-1 38.5t-1.5 38l-79 9v35l140 61l15 -10l12 -125v-2v-141q0 -31 0.5 -71.5t1 -78t1.5 -60.5h-91zM199 278l-15 68h11q16 45 40 76.5t52.5 48.5t56.5 17q23 0 43 -10t29 -27
q0 -35 -14.5 -54t-44.5 -19q-17 0 -32 6.5t-29 18.5l-27 24l49 9q-46 -24 -74 -62.5t-45 -95.5zM187 576q14 24 28.5 47t29.5 46.5t31 47.5q14 23 27.5 32t26.5 9q14 0 26 -9t12 -29q0 -10 -6.5 -22.5t-27.5 -32.5l-40 -36l-40 -36t-41 -36z" />
    <glyph glyph-name="uni0156" unicode="&#x156;" horiz-adv-x="651" 
d="M44 0v41l131 15h21l131 -15v-41h-283zM135 0q2 51 2.5 102t0.5 103.5v104.5v49v104t-0.5 104t-2.5 103h101q-1 -52 -2 -103.5t-1 -104.5v-112v-30v-110t1 -106l2 -104h-101zM562 -10q-47 0 -70.5 14t-32.5 50l-40 160q-9 41 -26 61.5t-43.5 27.5t-67.5 7h-96v45h124
q54 0 89 18t52 49.5t17 71.5q0 63 -35 96.5t-112 33.5h-136v46h139q115 0 179 -46t64 -129q0 -42 -22 -80t-66.5 -63t-111.5 -31v8q30 -2 54 -10t42 -23.5t31 -39.5t23 -58l48 -166l-34 21l106 -12v-41q-10 -3 -21.5 -5t-24.5 -3.5t-29 -1.5zM44 629v41h141v-56h-10z
M411 -125q0 -31 -14.5 -55.5t-38.5 -42t-53 -27.5l-12 30q34 16 52.5 35.5t21.5 39.5l11 -29q-37 13 -53 34t-16 37q0 22 11.5 37t36.5 15q12 0 24 -5t24 -17q4 -15 5 -27t1 -25z" />
    <glyph glyph-name="uni0157" unicode="&#x157;" horiz-adv-x="423" 
d="M42 0v36l109 20h25l109 -20v-36h-243zM113 0q1 23 1.5 60.5t1 78t0.5 71.5v48q0 28 -0.5 48.5t-1 38.5t-1.5 38l-79 9v35l140 61l15 -10l12 -125v-2v-141q0 -31 0.5 -71.5t1 -78t1.5 -60.5h-91zM199 278l-15 68h11q16 45 40 76.5t52.5 48.5t56.5 17q23 0 43 -10t29 -27
q0 -35 -14.5 -54t-44.5 -19q-17 0 -32 6.5t-29 18.5l-27 24l49 9q-46 -24 -74 -62.5t-45 -95.5zM223 -125q0 -31 -14.5 -55.5t-38.5 -42t-53 -27.5l-12 30q34 16 52.5 35.5t21.5 39.5l11 -29q-37 13 -53 34t-16 37q0 22 11.5 37t36.5 15q12 0 24 -5t24 -17q4 -15 5 -27
t1 -25z" />
    <glyph glyph-name="Rcaron" unicode="&#x158;" horiz-adv-x="651" 
d="M44 0v41l131 15h21l131 -15v-41h-283zM135 0q2 51 2.5 102t0.5 103.5v104.5v49v104t-0.5 104t-2.5 103h101q-1 -52 -2 -103.5t-1 -104.5v-112v-30v-110t1 -106l2 -104h-101zM562 -10q-47 0 -70.5 14t-32.5 50l-40 160q-9 41 -26 61.5t-43.5 27.5t-67.5 7h-96v45h124
q54 0 89 18t52 49.5t17 71.5q0 63 -35 96.5t-112 33.5h-136v46h139q115 0 179 -46t64 -129q0 -42 -22 -80t-66.5 -63t-111.5 -31v8q30 -2 54 -10t42 -23.5t31 -39.5t23 -58l48 -166l-34 21l106 -12v-41q-10 -3 -21.5 -5t-24.5 -3.5t-29 -1.5zM44 629v41h141v-56h-10z
M208 869l157 -116h-84l157 116l24 -21l-102 -118h-74l-102 118z" />
    <glyph glyph-name="rcaron" unicode="&#x159;" horiz-adv-x="423" 
d="M42 0v36l109 20h25l109 -20v-36h-243zM113 0q1 23 1.5 60.5t1 78t0.5 71.5v48q0 28 -0.5 48.5t-1 38.5t-1.5 38l-79 9v35l140 61l15 -10l12 -125v-2v-141q0 -31 0.5 -71.5t1 -78t1.5 -60.5h-91zM199 278l-15 68h11q16 45 40 76.5t52.5 48.5t56.5 17q23 0 43 -10t29 -27
q0 -35 -14.5 -54t-44.5 -19q-17 0 -32 6.5t-29 18.5l-27 24l49 9q-46 -24 -74 -62.5t-45 -95.5zM131 739l157 -143h-84l157 143l24 -20l-102 -148h-74l-102 148z" />
    <glyph glyph-name="Sacute" unicode="&#x15a;" horiz-adv-x="512" 
d="M235 -15q-56 0 -108 15.5t-87 37.5l6 140h62l26 -154l-66 28v48q31 -22 55.5 -36.5t49.5 -21.5t59 -7q47 0 82 14t54 41.5t19 65.5q0 32 -13 54t-40 39t-70 33l-39 16q-51 20 -90 47.5t-60.5 65.5t-21.5 89q0 58 29.5 99t80.5 63.5t115 22.5q50 0 91 -14t73 -38l-6 -131
h-61l-28 151l65 -33v-50q-37 36 -68.5 50.5t-71.5 14.5q-38 0 -68.5 -13t-48.5 -38t-18 -62q0 -31 13.5 -54.5t38.5 -41.5t61 -32l40 -15q66 -25 106 -54.5t58 -65.5t18 -84q0 -59 -30.5 -101.5t-83.5 -65.5t-123 -23zM211 746q23 25 46.5 48.5t47.5 45.5q21 21 35 29.5
t27 8.5q16 0 27 -9.5t11 -24.5q0 -13 -10.5 -26t-39.5 -29q-31 -17 -62.5 -34t-63.5 -34z" />
    <glyph glyph-name="sacute" unicode="&#x15b;" horiz-adv-x="434" 
d="M200 -13q-42 0 -77 9.5t-72 28.5l-4 110h55l26 -119h-41v53q25 -19 53 -28t62 -9q38 0 63 9.5t37 27t12 39.5q0 32 -23 51.5t-70 35.5l-46 17q-36 14 -63.5 32t-42.5 43.5t-15 59.5q0 37 20 69t59 52t95 20q41 0 74.5 -10.5t65.5 -30.5l-4 -102h-52l-20 102h37v-43
q-24 19 -49.5 28.5t-52.5 9.5q-46 0 -69.5 -18.5t-23.5 -49.5q0 -33 20.5 -50t71.5 -36l31 -11q50 -18 80.5 -40.5t44 -48.5t13.5 -58q0 -38 -22 -70.5t-65 -52.5t-108 -20zM167 576q14 24 28.5 47t29.5 46.5t31 47.5q14 23 27.5 32t26.5 9q14 0 26 -9t12 -29
q0 -10 -6.5 -22.5t-27.5 -32.5l-40 -36l-40 -36t-41 -36z" />
    <glyph glyph-name="Scircumflex" unicode="&#x15c;" horiz-adv-x="512" 
d="M235 -15q-56 0 -108 15.5t-87 37.5l6 140h62l26 -154l-66 28v48q31 -22 55.5 -36.5t49.5 -21.5t59 -7q47 0 82 14t54 41.5t19 65.5q0 32 -13 54t-40 39t-70 33l-39 16q-51 20 -90 47.5t-60.5 65.5t-21.5 89q0 58 29.5 99t80.5 63.5t115 22.5q50 0 91 -14t73 -38l-6 -131
h-61l-28 151l65 -33v-50q-37 36 -68.5 50.5t-71.5 14.5q-38 0 -68.5 -13t-48.5 -38t-18 -62q0 -31 13.5 -54.5t38.5 -41.5t61 -32l40 -15q66 -25 106 -54.5t58 -65.5t18 -84q0 -59 -30.5 -101.5t-83.5 -65.5t-123 -23zM295 857l131 -115l-19 -25l-171 98h84l-171 -98l-19 25
l131 115h34z" />
    <glyph glyph-name="scircumflex" unicode="&#x15d;" horiz-adv-x="434" 
d="M200 -13q-42 0 -77 9.5t-72 28.5l-4 110h55l26 -119h-41v53q25 -19 53 -28t62 -9q38 0 63 9.5t37 27t12 39.5q0 32 -23 51.5t-70 35.5l-46 17q-36 14 -63.5 32t-42.5 43.5t-15 59.5q0 37 20 69t59 52t95 20q41 0 74.5 -10.5t65.5 -30.5l-4 -102h-52l-20 102h37v-43
q-24 19 -49.5 28.5t-52.5 9.5q-46 0 -69.5 -18.5t-23.5 -49.5q0 -33 20.5 -50t71.5 -36l31 -11q50 -18 80.5 -40.5t44 -48.5t13.5 -58q0 -38 -22 -70.5t-65 -52.5t-108 -20zM352 546l-168 152h84l-168 -152l-23 22l132 176h34l132 -176z" />
    <glyph glyph-name="Scedilla" unicode="&#x15e;" horiz-adv-x="512" 
d="M235 -15q-56 0 -108 15.5t-87 37.5l6 140h62l26 -154l-66 28v48q31 -22 55.5 -36.5t49.5 -21.5t59 -7q47 0 82 14t54 41.5t19 65.5q0 32 -13 54t-40 39t-70 33l-39 16q-51 20 -90 47.5t-60.5 65.5t-21.5 89q0 58 29.5 99t80.5 63.5t115 22.5q50 0 91 -14t73 -38l-6 -131
h-61l-28 151l65 -33v-50q-37 36 -68.5 50.5t-71.5 14.5q-38 0 -68.5 -13t-48.5 -38t-18 -62q0 -31 13.5 -54.5t38.5 -41.5t61 -32l40 -15q66 -25 106 -54.5t58 -65.5t18 -84q0 -59 -30.5 -101.5t-83.5 -65.5t-123 -23zM211 -86l13 89h37l-10 -80l-20 22q31 -2 56.5 -11.5
t41.5 -27.5t16 -46q0 -34 -28.5 -57.5t-83.5 -23.5q-22 0 -37.5 3.5t-25.5 6.5l7 33q12 -2 23.5 -4t24.5 -2q29 0 43.5 12.5t14.5 33.5q0 23 -17.5 35t-54.5 17z" />
    <glyph glyph-name="scedilla" unicode="&#x15f;" horiz-adv-x="434" 
d="M200 -13q-42 0 -77 9.5t-72 28.5l-4 110h55l26 -119h-41v53q25 -19 53 -28t62 -9q38 0 63 9.5t37 27t12 39.5q0 32 -23 51.5t-70 35.5l-46 17q-36 14 -63.5 32t-42.5 43.5t-15 59.5q0 37 20 69t59 52t95 20q41 0 74.5 -10.5t65.5 -30.5l-4 -102h-52l-20 102h37v-43
q-24 19 -49.5 28.5t-52.5 9.5q-46 0 -69.5 -18.5t-23.5 -49.5q0 -33 20.5 -50t71.5 -36l31 -11q50 -18 80.5 -40.5t44 -48.5t13.5 -58q0 -38 -22 -70.5t-65 -52.5t-108 -20zM185 -86l13 89h37l-10 -80l-20 22q31 -2 56.5 -11.5t41.5 -27.5t16 -46q0 -34 -28.5 -57.5
t-83.5 -23.5q-22 0 -37.5 3.5t-25.5 6.5l7 33q12 -2 23.5 -4t24.5 -2q29 0 43.5 12.5t14.5 33.5q0 23 -17.5 35t-54.5 17z" />
    <glyph glyph-name="Scaron" unicode="&#x160;" horiz-adv-x="512" 
d="M235 -15q-56 0 -108 15.5t-87 37.5l6 140h62l26 -154l-66 28v48q31 -22 55.5 -36.5t49.5 -21.5t59 -7q47 0 82 14t54 41.5t19 65.5q0 32 -13 54t-40 39t-70 33l-39 16q-51 20 -90 47.5t-60.5 65.5t-21.5 89q0 58 29.5 99t80.5 63.5t115 22.5q50 0 91 -14t73 -38l-6 -131
h-61l-28 151l65 -33v-50q-37 36 -68.5 50.5t-71.5 14.5q-38 0 -68.5 -13t-48.5 -38t-18 -62q0 -31 13.5 -54.5t38.5 -41.5t61 -32l40 -15q66 -25 106 -54.5t58 -65.5t18 -84q0 -59 -30.5 -101.5t-83.5 -65.5t-123 -23zM163 869l157 -116h-84l157 116l24 -21l-102 -118h-74
l-102 118z" />
    <glyph glyph-name="scaron" unicode="&#x161;" horiz-adv-x="434" 
d="M200 -13q-42 0 -77 9.5t-72 28.5l-4 110h55l26 -119h-41v53q25 -19 53 -28t62 -9q38 0 63 9.5t37 27t12 39.5q0 32 -23 51.5t-70 35.5l-46 17q-36 14 -63.5 32t-42.5 43.5t-15 59.5q0 37 20 69t59 52t95 20q41 0 74.5 -10.5t65.5 -30.5l-4 -102h-52l-20 102h37v-43
q-24 19 -49.5 28.5t-52.5 9.5q-46 0 -69.5 -18.5t-23.5 -49.5q0 -33 20.5 -50t71.5 -36l31 -11q50 -18 80.5 -40.5t44 -48.5t13.5 -58q0 -38 -22 -70.5t-65 -52.5t-108 -20zM111 739l157 -143h-84l157 143l24 -20l-102 -148h-74l-102 148z" />
    <glyph glyph-name="uni0162" unicode="&#x162;" horiz-adv-x="604" 
d="M151 0v41l140 15h22l140 -15v-41h-302zM252 0q2 51 2.5 102t0.5 103.5v104.5v49v104t-0.5 104t-2.5 103h100q-1 -50 -2 -102t-1 -104v-105v-49v-103t1 -103.5t2 -103.5h-100zM20 492l8 178h548l8 -178h-58l-31 178l46 -50h-478l46 50l-31 -178h-58zM276 -86l13 89h37
l-10 -80l-20 22q31 -2 56.5 -11.5t41.5 -27.5t16 -46q0 -34 -28.5 -57.5t-83.5 -23.5q-22 0 -37.5 3.5t-25.5 6.5l7 33q12 -2 23.5 -4t24.5 -2q29 0 43.5 12.5t14.5 33.5q0 23 -17.5 35t-54.5 17z" />
    <glyph glyph-name="uni0163" unicode="&#x163;" horiz-adv-x="325" 
d="M134 422v53h179v-53h-179zM205 -13q-52 0 -83 28t-31 86q0 19 0.5 37.5t0.5 47.5v236h-83v44l124 15l-41 -33l32 163h60l-7 -156v-20v-323q0 -38 15 -55.5t40 -17.5q17 0 32.5 7t34.5 20l24 -26q-13 -17 -31 -29t-39.5 -18t-47.5 -6zM178 -86l13 89h37l-10 -80l-20 22
q31 -2 56.5 -11.5t41.5 -27.5t16 -46q0 -34 -28.5 -57.5t-83.5 -23.5q-22 0 -37.5 3.5t-25.5 6.5l7 33q12 -2 23.5 -4t24.5 -2q29 0 43.5 12.5t14.5 33.5q0 23 -17.5 35t-54.5 17z" />
    <glyph glyph-name="Tcaron" unicode="&#x164;" horiz-adv-x="604" 
d="M151 0v41l140 15h22l140 -15v-41h-302zM252 0q2 51 2.5 102t0.5 103.5v104.5v49v104t-0.5 104t-2.5 103h100q-1 -50 -2 -102t-1 -104v-105v-49v-103t1 -103.5t2 -103.5h-100zM20 492l8 178h548l8 -178h-58l-31 178l46 -50h-478l46 50l-31 -178h-58zM187 869l157 -116h-84
l157 116l24 -21l-102 -118h-74l-102 118z" />
    <glyph glyph-name="tcaron" unicode="&#x165;" horiz-adv-x="325" 
d="M310 750q20 0 28 -10t8 -27q0 -14 -5 -36t-13 -46.5t-16 -48.5l-19 -54h-32l3 209q12 7 23.5 10t22.5 3zM134 422v53h179v-53h-179zM205 -13q-52 0 -83 28t-31 86q0 19 0.5 37.5t0.5 47.5v236h-83v44l124 15l-41 -33l32 163h60l-7 -156v-20v-323q0 -38 15 -55.5t40 -17.5
q17 0 32.5 7t34.5 20l24 -26q-13 -17 -31 -29t-39.5 -18t-47.5 -6z" />
    <glyph glyph-name="Utilde" unicode="&#x168;" horiz-adv-x="727" 
d="M367 -15q-72 0 -127 28t-85.5 87t-30.5 152v108v103.5t-0.5 103.5t-2.5 103h100q-1 -50 -2 -101.5t-1 -103.5v-105v-79q0 -85 20.5 -134.5t57.5 -70t88 -20.5q57 0 95 23.5t57 77t19 141.5v372h51v-396q0 -105 -31 -168.5t-85 -92t-123 -28.5zM39 629v41h283v-41
l-131 -15h-21zM453 629v41h240v-41l-110 -14h-20zM205 735q9 59 34 94t71 35q27 0 46 -10.5t38 -26.5q17 -13 34 -29t39 -16q25 0 41 21.5t27 58.5l30 -10q-10 -58 -34 -93t-70 -35q-28 0 -46.5 10t-35.5 23q-19 16 -36 32t-40 16q-24 0 -40.5 -21t-27.5 -58z" />
    <glyph glyph-name="utilde" unicode="&#x169;" horiz-adv-x="583" 
d="M223 -13q-61 0 -96 40.5t-34 139.5l3 264l21 -20l-92 20v36l147 14l10 -10l-5 -129v-166q0 -65 20 -91.5t60 -26.5q25 0 50.5 8.5t51 25.5t49.5 42l15 -43h-15q-27 -36 -58 -59t-63 -34t-64 -11zM410 -8l-13 117v2l3 306l-71 14v36l145 14l10 -10l-3 -129v-292l68 -14
v-36zM120 586q8 59 31 94t64 35q25 0 42 -10t31 -24q18 -17 33.5 -32.5t35.5 -15.5q23 0 37.5 21.5t24.5 58.5l27 -10q-9 -58 -31 -93t-64 -35q-25 0 -41.5 9.5t-31.5 23.5q-16 17 -32.5 32.5t-36.5 15.5q-22 0 -36.5 -21t-25.5 -58z" />
    <glyph glyph-name="Umacron" unicode="&#x16a;" horiz-adv-x="727" 
d="M367 -15q-72 0 -127 28t-85.5 87t-30.5 152v108v103.5t-0.5 103.5t-2.5 103h100q-1 -50 -2 -101.5t-1 -103.5v-105v-79q0 -85 20.5 -134.5t57.5 -70t88 -20.5q57 0 95 23.5t57 77t19 141.5v372h51v-396q0 -105 -31 -168.5t-85 -92t-123 -28.5zM39 629v41h283v-41
l-131 -15h-21zM453 629v41h240v-41l-110 -14h-20zM245 759v63h280v-63h-280z" />
    <glyph glyph-name="umacron" unicode="&#x16b;" horiz-adv-x="583" 
d="M223 -13q-61 0 -96 40.5t-34 139.5l3 264l21 -20l-92 20v36l147 14l10 -10l-5 -129v-166q0 -65 20 -91.5t60 -26.5q25 0 50.5 8.5t51 25.5t49.5 42l15 -43h-15q-27 -36 -58 -59t-63 -34t-64 -11zM410 -8l-13 117v2l3 306l-71 14v36l145 14l10 -10l-3 -129v-292l68 -14
v-36zM163 596v63h240v-63h-240z" />
    <glyph glyph-name="Ubreve" unicode="&#x16c;" horiz-adv-x="727" 
d="M367 -15q-72 0 -127 28t-85.5 87t-30.5 152v108v103.5t-0.5 103.5t-2.5 103h100q-1 -50 -2 -101.5t-1 -103.5v-105v-79q0 -85 20.5 -134.5t57.5 -70t88 -20.5q57 0 95 23.5t57 77t19 141.5v372h51v-396q0 -105 -31 -168.5t-85 -92t-123 -28.5zM39 629v41h283v-41
l-131 -15h-21zM453 629v41h240v-41l-110 -14h-20zM241 859l31 11q11 -34 40 -55.5t73 -21.5q45 0 72.5 21.5t40.5 55.5l31 -11q-4 -30 -21 -59t-47.5 -48.5t-75.5 -19.5t-75.5 19.5t-47 48.5t-21.5 59z" />
    <glyph glyph-name="ubreve" unicode="&#x16d;" horiz-adv-x="583" 
d="M223 -13q-61 0 -96 40.5t-34 139.5l3 264l21 -20l-92 20v36l147 14l10 -10l-5 -129v-166q0 -65 20 -91.5t60 -26.5q25 0 50.5 8.5t51 25.5t49.5 42l15 -43h-15q-27 -36 -58 -59t-63 -34t-64 -11zM410 -8l-13 117v2l3 306l-71 14v36l145 14l10 -10l-3 -129v-292l68 -14
v-36zM132 723l30 11q15 -39 43.5 -66t77.5 -27q50 0 78 27t43 66l30 -11q-3 -29 -14.5 -55.5t-30 -47.5t-45 -33t-61.5 -12q-34 0 -61 12t-45.5 33t-30 47.5t-14.5 55.5z" />
    <glyph glyph-name="Uring" unicode="&#x16e;" horiz-adv-x="727" 
d="M367 -15q-72 0 -127 28t-85.5 87t-30.5 152v108v103.5t-0.5 103.5t-2.5 103h100q-1 -50 -2 -101.5t-1 -103.5v-105v-79q0 -85 20.5 -134.5t57.5 -70t88 -20.5q57 0 95 23.5t57 77t19 141.5v372h51v-396q0 -105 -31 -168.5t-85 -92t-123 -28.5zM39 629v41h283v-41
l-131 -15h-21zM453 629v41h240v-41l-110 -14h-20zM385 723q-37 0 -66.5 24t-29.5 68t29.5 68.5t66.5 24.5t66.5 -24t29.5 -69q0 -43 -29.5 -67.5t-66.5 -24.5zM385 758q25 0 38.5 18t13.5 39q0 22 -13 39t-39 17q-25 0 -38.5 -17t-13.5 -39q0 -21 13.5 -39t38.5 -18z" />
    <glyph glyph-name="uring" unicode="&#x16f;" horiz-adv-x="583" 
d="M223 -13q-61 0 -96 40.5t-34 139.5l3 264l21 -20l-92 20v36l147 14l10 -10l-5 -129v-166q0 -65 20 -91.5t60 -26.5q25 0 50.5 8.5t51 25.5t49.5 42l15 -43h-15q-27 -36 -58 -59t-63 -34t-64 -11zM410 -8l-13 117v2l3 306l-71 14v36l145 14l10 -10l-3 -129v-292l68 -14
v-36zM283 590q27 0 42 19.5t15 42.5t-14.5 42t-42.5 19q-27 0 -42 -19t-15 -42t14.5 -42.5t42.5 -19.5zM283 550q-40 0 -72.5 26.5t-32.5 75.5q0 47 32.5 74t72.5 27q41 0 73 -26t32 -75q0 -48 -32 -75t-73 -27z" />
    <glyph glyph-name="Uhungarumlaut" unicode="&#x170;" horiz-adv-x="727" 
d="M367 -15q-72 0 -127 28t-85.5 87t-30.5 152v108v103.5t-0.5 103.5t-2.5 103h100q-1 -50 -2 -101.5t-1 -103.5v-105v-79q0 -85 20.5 -134.5t57.5 -70t88 -20.5q57 0 95 23.5t57 77t19 141.5v372h51v-396q0 -105 -31 -168.5t-85 -92t-123 -28.5zM39 629v41h283v-41
l-131 -15h-21zM453 629v41h240v-41l-110 -14h-20zM273 730l56 117q11 23 25.5 32.5t26.5 9.5q14 0 25 -9.5t11 -24.5q0 -9 -5 -20t-17 -24l-96 -99zM425 730l56 117q11 23 25.5 32.5t27.5 9.5q14 0 24.5 -9.5t10.5 -24.5q0 -9 -5 -20t-17 -24l-96 -99z" />
    <glyph glyph-name="uhungarumlaut" unicode="&#x171;" horiz-adv-x="583" 
d="M223 -13q-61 0 -96 40.5t-34 139.5l3 264l21 -20l-92 20v36l147 14l10 -10l-5 -129v-166q0 -65 20 -91.5t60 -26.5q25 0 50.5 8.5t51 25.5t49.5 42l15 -43h-15q-27 -36 -58 -59t-63 -34t-64 -11zM410 -8l-13 117v2l3 306l-71 14v36l145 14l10 -10l-3 -129v-292l68 -14
v-36zM171 567l55 142q10 27 25 37t28 10q14 0 24.5 -10t10.5 -27q0 -7 -4 -20t-18 -31l-93 -117zM313 567l55 142q10 27 25 37t28 10q15 0 25.5 -10t10.5 -27q0 -7 -4.5 -20t-18.5 -31l-93 -117z" />
    <glyph glyph-name="Uogonek" unicode="&#x172;" horiz-adv-x="727" 
d="M170 614l-131 15v41h283v-41l-131 -15h-21zM442 -221q-37 0 -60.5 22.5t-23.5 60.5q0 28 9 52t25.5 44.5t36.5 35.5v-4q-13 -2 -27 -3.5t-28 -1.5q-76 0 -132 28t-87 87t-31 152v108v104t-0.5 103.5t-2.5 102.5h100q-1 -51 -2 -102.5t-1 -103.5v-104v-79q0 -85 20 -134.5
t56.5 -70t85.5 -20.5q59 0 97.5 23.5t58 77t19.5 141.5v372h51v-396q0 -70 -14 -119.5t-38.5 -82t-57.5 -54.5q-25 -17 -41.5 -35.5t-24.5 -39.5t-8 -45q0 -29 16 -46t38 -17q12 0 24 3t25 10l13 -25q-19 -24 -42 -34t-54 -10zM570 615l-117 14v41h240v-41l-102 -14h-21z
" />
    <glyph glyph-name="uogonek" unicode="&#x173;" horiz-adv-x="583" 
d="M468 -221q-37 0 -60.5 22.5t-23.5 60.5q0 32 13.5 61t36.5 52t51 37v1h29q-32 -20 -49 -51.5t-17 -63.5q0 -29 16 -46t38 -17q12 0 24 3t25 10l13 -25q-19 -24 -42 -34t-54 -10zM223 -13q-61 0 -96 40.5t-34 139.5l3 264l21 -20l-92 20v36l147 14l10 -10l-5 -129v-166
q0 -65 20 -91.5t60 -26.5q25 0 50.5 8.5t51 25.5t49.5 42l15 -43h-15q-27 -36 -58 -59t-63 -34t-64 -11zM410 -8l-13 117v2l3 306l-71 14v36l145 14l10 -10l-3 -129v-292l68 -14v-36z" />
    <glyph glyph-name="Wcircumflex" unicode="&#x174;" horiz-adv-x="962" 
d="M278 -7l-195 677h98l145 -542h-18l5 16l175 526h36l175 -546h-17l4 16l146 530h51l-183 -677h-43l-183 549h19l-5 -15l-167 -534h-43zM15 629v41h272v-41l-121 -15h-21zM370 629v41h272v-41l-122 -15h-22zM726 629v41h227v-41l-103 -15h-20zM523 857l131 -115l-19 -25
l-171 98h84l-171 -98l-19 25l131 115h34z" />
    <glyph glyph-name="wcircumflex" unicode="&#x175;" horiz-adv-x="764" 
d="M218 -6l-179 481h94l130 -386h-20l5 15l136 371h34l144 -385h-19l4 14l114 371h57l-164 -481h-37l-140 382h20l-5 -13l-137 -369h-37zM0 436v39h228v-39l-109 -17h-21zM291 436v39h221v-39l-95 -17h-21zM571 436v39h183v-39l-71 -17h-20zM528 546l-168 152h84l-168 -152
l-23 22l132 176h34l132 -176z" />
    <glyph glyph-name="Ycircumflex" unicode="&#x176;" horiz-adv-x="633" 
d="M167 0v41l140 15h21l141 -15v-41h-302zM268 0q1 33 1.5 67.5t1 71.5t0.5 77.5v84.5h94v-84t0.5 -77t1 -72t1.5 -68h-100zM288 224l-219 446h109l180 -392h-34l8 16l177 376h52l-215 -446h-58zM25 629v41h272v-41l-130 -15h-21zM394 629v41h229v-41l-99 -15h-20zM362 857
l131 -115l-19 -25l-171 98h84l-171 -98l-19 25l131 115h34z" />
    <glyph glyph-name="ycircumflex" unicode="&#x177;" horiz-adv-x="512" 
d="M92 -250q-25 0 -46 8.5t-33.5 24t-12.5 34.5q5 22 24.5 33t42.5 11q20 0 37 -8.5t37 -29.5l31 -32l-39 -23l-27 23q33 17 57.5 43.5t42.5 59.5t30 68l16 46l3 7l90 249l76 211h55l-179 -472q-33 -88 -64.5 -144t-65.5 -82.5t-75 -26.5zM251 -53l-210 528h97l149 -403
l7 -20zM4 439v36h240v-37l-118 -14h-25zM317 439v36h195v-36l-71 -15h-20zM409 546l-168 152h84l-168 -152l-23 22l132 176h34l132 -176z" />
    <glyph glyph-name="Ydieresis" unicode="&#x178;" horiz-adv-x="633" 
d="M167 0v41l140 15h21l141 -15v-41h-302zM268 0q1 33 1.5 67.5t1 71.5t0.5 77.5v84.5h94v-84t0.5 -77t1 -72t1.5 -68h-100zM288 224l-219 446h109l180 -392h-34l8 16l177 376h52l-215 -446h-58zM25 629v41h272v-41l-130 -15h-21zM394 629v41h229v-41l-99 -15h-20zM233 745
q-23 0 -40.5 15.5t-17.5 39.5t17.5 39.5t40.5 15.5q24 0 40.5 -15.5t16.5 -39.5t-16.5 -39.5t-40.5 -15.5zM456 745q-24 0 -40.5 15.5t-16.5 39.5t16.5 39.5t40.5 15.5q23 0 40.5 -15.5t17.5 -39.5t-17.5 -39.5t-40.5 -15.5z" />
    <glyph glyph-name="Zacute" unicode="&#x179;" horiz-adv-x="551" 
d="M20 0v36l394 609l-10 -40v15h-158h-158l36 29l-33 -157h-61l8 178h471v-35l-393 -610l10 37v-12h172h175l-36 -29l33 157h61l-8 -178h-503zM199 746q23 25 46.5 48.5t47.5 45.5q21 21 35 29.5t27 8.5q16 0 27 -9.5t11 -24.5q0 -13 -10.5 -26t-39.5 -29q-31 -17 -62.5 -34
t-63.5 -34z" />
    <glyph glyph-name="zacute" unicode="&#x17a;" horiz-adv-x="456" 
d="M29 0v35l304 421v-34l-9 10h-110h-130l37 29l-34 -140l-52 4l8 150h373v-36l-303 -421l10 45v-21h117h139l-37 -29l37 150h52l-10 -163h-392zM170 576q14 24 28.5 47t29.5 46.5t31 47.5q14 23 27.5 32t26.5 9q14 0 26 -9t12 -29q0 -10 -6.5 -22.5t-27.5 -32.5l-40 -36
l-40 -36t-41 -36z" />
    <glyph glyph-name="Zdotaccent" unicode="&#x17b;" horiz-adv-x="551" 
d="M20 0v36l394 609l-10 -40v15h-158h-158l36 29l-33 -157h-61l8 178h471v-35l-393 -610l10 37v-12h172h175l-36 -29l33 157h61l-8 -178h-503zM266 737q-28 0 -47.5 18t-19.5 46q0 29 19.5 46.5t47.5 17.5q29 0 48 -17.5t19 -46.5q0 -28 -19 -46t-48 -18z" />
    <glyph glyph-name="zdotaccent" unicode="&#x17c;" horiz-adv-x="456" 
d="M29 0v35l304 421v-34l-9 10h-110h-130l37 29l-34 -140l-52 4l8 150h373v-36l-303 -421l10 45v-21h117h139l-37 -29l37 150h52l-10 -163h-392zM229 589q-28 0 -47.5 18t-19.5 46t19.5 46t47.5 18q29 0 48 -18t19 -46t-19 -46t-48 -18z" />
    <glyph glyph-name="Zcaron" unicode="&#x17d;" horiz-adv-x="551" 
d="M20 0v36l394 609l-10 -40v15h-158h-158l36 29l-33 -157h-61l8 178h471v-35l-393 -610l10 37v-12h172h175l-36 -29l33 157h61l-8 -178h-503zM151 869l157 -116h-84l157 116l24 -21l-102 -118h-74l-102 118z" />
    <glyph glyph-name="zcaron" unicode="&#x17e;" horiz-adv-x="456" 
d="M29 0v35l304 421v-34l-9 10h-110h-130l37 29l-34 -140l-52 4l8 150h373v-36l-303 -421l10 45v-21h117h139l-37 -29l37 150h52l-10 -163h-392zM114 739l157 -143h-84l157 143l24 -20l-102 -148h-74l-102 148z" />
    <glyph glyph-name="longs" unicode="&#x17f;" horiz-adv-x="344" 
d="M25 0v36l111 20h25l122 -20v-36h-258zM104 0q1 35 1.5 70l1 70t0.5 70v210q0 73 8.5 124.5t26.5 88.5t46 65q27 28 62 40t69 12q36 0 62.5 -13t33.5 -41q-1 -19 -17 -32.5t-43 -13.5q-19 0 -35.5 7.5t-36.5 23.5l-48 38v7h54v-6q-16 -4 -26 -10t-21 -17
q-21 -21 -32 -50.5t-15 -79t-4 -131.5v-222q0 -35 0.5 -70l1 -70t1.5 -70h-90z" />
    <glyph glyph-name="uni018F" unicode="&#x18f;" horiz-adv-x="657" 
d="M47 278q0 23 2 48.5t5 39.5h493l1 -47h-394q-3 -19 -4.5 -36t-1.5 -43q0 -40 13 -76.5t36.5 -65.5t57 -46t73.5 -17q56 0 96 31t61 96t21 167q0 103 -29.5 168.5t-77.5 96.5t-104 31t-103 -21.5t-82 -59.5l-28 30q38 50 96 80.5t137 30.5q61 0 114.5 -23t94 -67
t63.5 -108t23 -147q0 -82 -22 -147.5t-61 -112t-90 -71t-110 -24.5q-63 0 -114.5 19.5t-88.5 57t-57 92t-20 124.5z" />
    <glyph glyph-name="florin" unicode="&#x192;" horiz-adv-x="500" 
d="M81 -99q-27 0 -49 7t-36 19.5t-20 27.5q4 20 18 32.5t39 12.5q19 0 36 -7t34 -26l34 -35l-48 -5l13 5q23 9 38 22.5t25 29.5q14 23 20.5 54t10 75t8.5 105l12 137q5 65 14 112.5t25.5 82.5t42.5 61q25 25 57.5 37.5t64.5 12.5q28 0 49 -7t35 -19t19 -28
q-3 -20 -17.5 -32.5t-39.5 -12.5q-17 0 -34 7t-35 26l-32 34l50 5l-16 -4q-23 -9 -38 -22t-25 -30q-14 -23 -20.5 -53t-10 -72l-8.5 -102l-10 -117q-7 -74 -16 -127t-24.5 -90t-42.5 -64q-28 -28 -59.5 -40t-63.5 -12zM103 346v50h323v-50h-323z" />
    <glyph glyph-name="Ohorn" unicode="&#x1a0;" horiz-adv-x="707" 
d="M354 -15q-58 0 -113 22.5t-99 66.5t-69.5 109.5t-25.5 151.5q0 82 26 147t69.5 110t98.5 69t113 24t112.5 -22.5t98 -67t69.5 -109.5t26 -151q0 -82 -25.5 -147t-69 -110.5t-98.5 -69t-113 -23.5zM354 35q52 0 89.5 25.5t61 68t34.5 96t11 110.5q0 56 -11 109.5
t-34.5 96.5t-61 68.5t-89.5 25.5t-89.5 -25.5t-61.5 -68.5t-35.5 -96.5t-11.5 -109.5q0 -57 11.5 -110.5t35.5 -96t61.5 -68t89.5 -25.5zM529 575v27q34 5 49.5 23t15.5 50q0 22 -6 34.5t-12 23.5t-6 27q0 13 10 25t29 12q7 0 16 -2t19 -10q8 -14 11 -28t3 -30
q0 -43 -17 -76.5t-46 -53t-66 -22.5z" />
    <glyph glyph-name="ohorn" unicode="&#x1a1;" horiz-adv-x="549" 
d="M274 -13q-58 0 -110.5 27.5t-85.5 83t-33 137.5q0 83 33 139.5t85.5 85t110.5 28.5t110.5 -28.5t86 -85t33.5 -139.5q0 -82 -33.5 -137.5t-86 -83t-110.5 -27.5zM274 32q43 0 73 23t46 68t16 112q0 68 -16 114t-46 69.5t-73 23.5t-73 -23.5t-45.5 -69.5t-15.5 -114
q0 -67 15.5 -112t45.5 -68t73 -23zM395 385v27q34 5 49.5 23t15.5 50q0 22 -6 34.5t-12 23.5t-6 27q0 13 10 25t29 12q7 0 16 -2t19 -10q8 -14 11 -28t3 -30q0 -43 -17 -76.5t-46 -53t-66 -22.5z" />
    <glyph glyph-name="Uhorn" unicode="&#x1af;" horiz-adv-x="727" 
d="M367 -15q-72 0 -127 28t-85.5 87t-30.5 152v108v103.5t-0.5 103.5t-2.5 103h100q-1 -50 -2 -101.5t-1 -103.5v-105v-79q0 -85 20.5 -134.5t57.5 -70t88 -20.5q57 0 95 23.5t57 77t19 141.5v372h51v-396q0 -105 -31 -168.5t-85 -92t-123 -28.5zM591 618v52q45 0 62.5 3.5
t17.5 21.5q0 19 -6 33t-12 26t-6 26q0 12 10.5 24.5t28.5 12.5q8 0 16.5 -2t18.5 -10q7 -14 10.5 -29t3.5 -29q0 -63 -38.5 -93.5t-105.5 -35.5zM39 629v41h283v-41l-131 -15h-21zM453 629v41h130v-55h-20z" />
    <glyph glyph-name="uhorn" unicode="&#x1b0;" horiz-adv-x="583" 
d="M223 -13q-61 0 -96 40.5t-34 139.5l3 264l21 -20l-92 20v36l147 14l10 -10l-5 -129v-166q0 -65 20 -91.5t60 -26.5q25 0 50.5 8.5t51 25.5t49.5 42l15 -43h-15q-27 -36 -58 -59t-63 -34t-64 -11zM410 -8l-13 117v2l3 306l-71 14v36l108 10q34 3 49.5 18t15.5 43
q0 22 -6 34.5t-12 23.5t-6 27q0 13 10 25t29 12q7 0 16 -2t19 -10q8 -14 11 -28t3 -30q0 -40 -17 -71t-46 -48.5t-66 -20.5l47 21l-3 -129v-292l68 -14v-36z" />
    <glyph glyph-name="uni01CD" unicode="&#x1cd;" horiz-adv-x="664" 
d="M5 0v41l100 15h20l109 -15v-41h-229zM71 0l231 675h63l230 -675h-98l-198 591h20l-5 -15l-196 -576h-47zM177 217v47h286v-47h-286zM381 0v41l126 15h22l124 -15v-41h-272zM216 869l157 -116h-84l157 116l24 -21l-102 -118h-74l-102 118z" />
    <glyph glyph-name="uni01CE" unicode="&#x1ce;" horiz-adv-x="509" 
d="M179 -13q-55 0 -94.5 31.5t-39.5 93.5q0 29 12.5 55t48.5 49.5t105 43.5q26 8 52 15.5t51.5 15t51.5 14.5v-36q-34 -10 -67 -21l-66 -22q-45 -14 -66 -31.5t-27 -35t-6 -33.5q0 -39 23 -56t57 -17q17 0 32.5 5.5t39.5 21t64 45.5l14 -50h-30q-30 -30 -53.5 -49.5t-47 -29
t-54.5 -9.5zM416 -10q-42 0 -67 27.5t-25 73.5v5v225q0 49 -9.5 75t-30.5 36t-54 10q-17 0 -39 -3.5t-51 -14.5l42 32l-25 -85q-7 -23 -19.5 -35.5t-32.5 -12.5q-21 0 -33 11t-14 30q14 57 66.5 90.5t128.5 33.5q53 0 87 -17.5t51 -55.5t17 -101v-213q0 -32 10 -45.5
t26 -13.5q13 0 22 6t17 16l20 -22q-18 -29 -39.5 -40.5t-47.5 -11.5zM136 739l157 -143h-84l157 143l24 -20l-102 -148h-74l-102 148z" />
    <glyph glyph-name="uni01CF" unicode="&#x1cf;" horiz-adv-x="371" 
d="M44 0v41l131 15h21l131 -15v-41h-283zM135 0q2 51 2.5 102t0.5 103.5v104.5v49v104t-0.5 104t-2.5 103h101q-1 -50 -2 -102t-1 -104v-105v-49v-103t1 -103.5t2 -103.5h-101zM44 629v41h283v-41l-131 -15h-21zM71 869l157 -116h-84l157 116l24 -21l-102 -118h-74l-102 118
z" />
    <glyph glyph-name="uni01D0" unicode="&#x1d0;" horiz-adv-x="298" 
d="M35 0v36l109 20h23l100 -20v-36h-232zM108 0q1 23 1.5 60.5t1 78t0.5 71.5v47q0 41 -0.5 68.5t-2.5 57.5l-79 9v35l155 61l15 -10l-3 -136v-132q0 -31 0.5 -71.5t1 -78t1.5 -60.5h-91zM34 739l157 -143h-84l157 143l24 -20l-102 -148h-74l-102 148z" />
    <glyph glyph-name="uni01D1" unicode="&#x1d1;" horiz-adv-x="707" 
d="M354 -15q-58 0 -113 22.5t-99 66.5t-69.5 109.5t-25.5 151.5q0 82 26 147t69.5 110t98.5 69t113 24t112.5 -22.5t98 -67t69.5 -109.5t26 -151q0 -82 -25.5 -147t-69 -110.5t-98.5 -69t-113 -23.5zM354 35q52 0 89.5 25.5t61 68t34.5 96t11 110.5q0 56 -11 109.5
t-34.5 96.5t-61 68.5t-89.5 25.5t-89.5 -25.5t-61.5 -68.5t-35.5 -96.5t-11.5 -109.5q0 -57 11.5 -110.5t35.5 -96t61.5 -68t89.5 -25.5zM239 869l157 -116h-84l157 116l24 -21l-102 -118h-74l-102 118z" />
    <glyph glyph-name="uni01D2" unicode="&#x1d2;" horiz-adv-x="549" 
d="M274 -13q-58 0 -110.5 27.5t-85.5 83t-33 137.5q0 83 33 139.5t85.5 85t110.5 28.5t110.5 -28.5t86 -85t33.5 -139.5q0 -82 -33.5 -137.5t-86 -83t-110.5 -27.5zM274 32q43 0 73 23t46 68t16 112q0 68 -16 114t-46 69.5t-73 23.5t-73 -23.5t-45.5 -69.5t-15.5 -114
q0 -67 15.5 -112t45.5 -68t73 -23zM160 739l157 -143h-84l157 143l24 -20l-102 -148h-74l-102 148z" />
    <glyph glyph-name="uni01D3" unicode="&#x1d3;" horiz-adv-x="727" 
d="M367 -15q-72 0 -127 28t-85.5 87t-30.5 152v108v103.5t-0.5 103.5t-2.5 103h100q-1 -50 -2 -101.5t-1 -103.5v-105v-79q0 -85 20.5 -134.5t57.5 -70t88 -20.5q57 0 95 23.5t57 77t19 141.5v372h51v-396q0 -105 -31 -168.5t-85 -92t-123 -28.5zM39 629v41h283v-41
l-131 -15h-21zM453 629v41h240v-41l-110 -14h-20zM270 869l157 -116h-84l157 116l24 -21l-102 -118h-74l-102 118z" />
    <glyph glyph-name="uni01D4" unicode="&#x1d4;" horiz-adv-x="583" 
d="M223 -13q-61 0 -96 40.5t-34 139.5l3 264l21 -20l-92 20v36l147 14l10 -10l-5 -129v-166q0 -65 20 -91.5t60 -26.5q25 0 50.5 8.5t51 25.5t49.5 42l15 -43h-15q-27 -36 -58 -59t-63 -34t-64 -11zM410 -8l-13 117v2l3 306l-71 14v36l145 14l10 -10l-3 -129v-292l68 -14
v-36zM168 739l157 -143h-84l157 143l24 -20l-102 -148h-74l-102 148z" />
    <glyph glyph-name="uni01D5" unicode="&#x1d5;" horiz-adv-x="727" 
d="M367 -15q-72 0 -127 28t-85.5 87t-30.5 152v108v103.5t-0.5 103.5t-2.5 103h100q-1 -50 -2 -101.5t-1 -103.5v-105v-79q0 -85 20.5 -134.5t57.5 -70t88 -20.5q57 0 95 23.5t57 77t19 141.5v372h51v-396q0 -105 -31 -168.5t-85 -92t-123 -28.5zM39 629v41h283v-41
l-131 -15h-21zM453 629v41h240v-41l-110 -14h-20zM273 745q-23 0 -40.5 15.5t-17.5 39.5t17.5 39.5t40.5 15.5q24 0 40.5 -15.5t16.5 -39.5t-16.5 -39.5t-40.5 -15.5zM496 745q-24 0 -40.5 15.5t-16.5 39.5t16.5 39.5t40.5 15.5q23 0 40.5 -15.5t17.5 -39.5t-17.5 -39.5
t-40.5 -15.5zM245 913v63h280v-63h-280z" />
    <glyph glyph-name="uni01D6" unicode="&#x1d6;" horiz-adv-x="583" 
d="M223 -13q-61 0 -96 40.5t-34 139.5l3 264l21 -20l-92 20v36l147 14l10 -10l-5 -129v-166q0 -65 20 -91.5t60 -26.5q25 0 50.5 8.5t51 25.5t49.5 42l15 -43h-15q-27 -36 -58 -59t-63 -34t-64 -11zM410 -8l-13 117v2l3 306l-71 14v36l145 14l10 -10l-3 -129v-292l68 -14
v-36zM182 566q-23 0 -40 15.5t-17 39.5t17 39.5t40 15.5q24 0 41 -15.5t17 -39.5t-17 -39.5t-41 -15.5zM384 566q-24 0 -41 15.5t-17 39.5t17 39.5t41 15.5q23 0 40 -15.5t17 -39.5t-17 -39.5t-40 -15.5zM163 732v63h240v-63h-240z" />
    <glyph glyph-name="uni01D7" unicode="&#x1d7;" horiz-adv-x="727" 
d="M367 -15q-72 0 -127 28t-85.5 87t-30.5 152v108v103.5t-0.5 103.5t-2.5 103h100q-1 -50 -2 -101.5t-1 -103.5v-105v-79q0 -85 20.5 -134.5t57.5 -70t88 -20.5q57 0 95 23.5t57 77t19 141.5v372h51v-396q0 -105 -31 -168.5t-85 -92t-123 -28.5zM39 629v41h283v-41
l-131 -15h-21zM453 629v41h240v-41l-110 -14h-20zM273 745q-23 0 -40.5 15.5t-17.5 39.5t17.5 39.5t40.5 15.5q24 0 40.5 -15.5t16.5 -39.5t-16.5 -39.5t-40.5 -15.5zM373 849l-23 24l67 89q14 18 26.5 26t25.5 8q15 0 26 -9.5t11 -26.5q0 -8 -4 -17t-12 -18t-21 -17z
M496 745q-24 0 -40.5 15.5t-16.5 39.5t16.5 39.5t40.5 15.5q23 0 40.5 -15.5t17.5 -39.5t-17.5 -39.5t-40.5 -15.5z" />
    <glyph glyph-name="uni01D8" unicode="&#x1d8;" horiz-adv-x="583" 
d="M223 -13q-61 0 -96 40.5t-34 139.5l3 264l21 -20l-92 20v36l147 14l10 -10l-5 -129v-166q0 -65 20 -91.5t60 -26.5q25 0 50.5 8.5t51 25.5t49.5 42l15 -43h-15q-27 -36 -58 -59t-63 -34t-64 -11zM410 -8l-13 117v2l3 306l-71 14v36l145 14l10 -10l-3 -129v-292l68 -14
v-36zM182 566q-23 0 -40 15.5t-17 39.5t17 39.5t40 15.5q24 0 41 -15.5t17 -39.5t-17 -39.5t-41 -15.5zM257 690l49 97q12 24 25.5 35t28.5 11q14 0 25 -9.5t11 -27.5q0 -9 -3.5 -17.5t-10 -17t-16.5 -17.5l-83 -73zM384 566q-24 0 -41 15.5t-17 39.5t17 39.5t41 15.5
q23 0 40 -15.5t17 -39.5t-17 -39.5t-40 -15.5z" />
    <glyph glyph-name="uni01D9" unicode="&#x1d9;" horiz-adv-x="727" 
d="M367 -15q-72 0 -127 28t-85.5 87t-30.5 152v108v103.5t-0.5 103.5t-2.5 103h100q-1 -50 -2 -101.5t-1 -103.5v-105v-79q0 -85 20.5 -134.5t57.5 -70t88 -20.5q57 0 95 23.5t57 77t19 141.5v372h51v-396q0 -105 -31 -168.5t-85 -92t-123 -28.5zM39 629v41h283v-41
l-131 -15h-21zM453 629v41h240v-41l-110 -14h-20zM273 745q-23 0 -40.5 15.5t-17.5 39.5t17.5 39.5t40.5 15.5q24 0 40.5 -15.5t16.5 -39.5t-16.5 -39.5t-40.5 -15.5zM496 745q-24 0 -40.5 15.5t-16.5 39.5t16.5 39.5t40.5 15.5q23 0 40.5 -15.5t17.5 -39.5t-17.5 -39.5
t-40.5 -15.5zM270 1003l157 -116h-84l157 116l24 -21l-102 -118h-74l-102 118z" />
    <glyph glyph-name="uni01DA" unicode="&#x1da;" horiz-adv-x="583" 
d="M223 -13q-61 0 -96 40.5t-34 139.5l3 264l21 -20l-92 20v36l147 14l10 -10l-5 -129v-166q0 -65 20 -91.5t60 -26.5q25 0 50.5 8.5t51 25.5t49.5 42l15 -43h-15q-27 -36 -58 -59t-63 -34t-64 -11zM410 -8l-13 117v2l3 306l-71 14v36l145 14l10 -10l-3 -129v-292l68 -14
v-36zM182 566q-23 0 -40 15.5t-17 39.5t17 39.5t40 15.5q24 0 41 -15.5t17 -39.5t-17 -39.5t-41 -15.5zM384 566q-24 0 -41 15.5t-17 39.5t17 39.5t41 15.5q23 0 40 -15.5t17 -39.5t-17 -39.5t-40 -15.5zM168 841l157 -116h-84l157 116l24 -21l-102 -118h-74l-102 118z" />
    <glyph glyph-name="uni01DB" unicode="&#x1db;" horiz-adv-x="727" 
d="M367 -15q-72 0 -127 28t-85.5 87t-30.5 152v108v103.5t-0.5 103.5t-2.5 103h100q-1 -50 -2 -101.5t-1 -103.5v-105v-79q0 -85 20.5 -134.5t57.5 -70t88 -20.5q57 0 95 23.5t57 77t19 141.5v372h51v-396q0 -105 -31 -168.5t-85 -92t-123 -28.5zM39 629v41h283v-41
l-131 -15h-21zM453 629v41h240v-41l-110 -14h-20zM303 908q-12 8 -20.5 16.5t-12.5 17t-4 16.5q0 17 11 27.5t27 10.5q13 0 26 -8t26 -26l67 -89l-22 -23zM273 745q-23 0 -40.5 15.5t-17.5 39.5t17.5 39.5t40.5 15.5q24 0 40.5 -15.5t16.5 -39.5t-16.5 -39.5t-40.5 -15.5z
M496 745q-24 0 -40.5 15.5t-16.5 39.5t16.5 39.5t40.5 15.5q23 0 40.5 -15.5t17.5 -39.5t-17.5 -39.5t-40.5 -15.5z" />
    <glyph glyph-name="uni01DC" unicode="&#x1dc;" horiz-adv-x="583" 
d="M223 -13q-61 0 -96 40.5t-34 139.5l3 264l21 -20l-92 20v36l147 14l10 -10l-5 -129v-166q0 -65 20 -91.5t60 -26.5q25 0 50.5 8.5t51 25.5t49.5 42l15 -43h-15q-27 -36 -58 -59t-63 -34t-64 -11zM410 -8l-13 117v2l3 306l-71 14v36l145 14l10 -10l-3 -129v-292l68 -14
v-36zM182 566q-23 0 -40 15.5t-17 39.5t17 39.5t40 15.5q24 0 41 -15.5t17 -39.5t-17 -39.5t-41 -15.5zM285 671l-83 73q-10 9 -16.5 17.5t-10 17t-3.5 17.5q0 18 11.5 27.5t24.5 9.5q15 0 28.5 -11t25.5 -35l47 -95zM384 566q-24 0 -41 15.5t-17 39.5t17 39.5t41 15.5
q23 0 40 -15.5t17 -39.5t-17 -39.5t-40 -15.5z" />
    <glyph glyph-name="Gcaron" unicode="&#x1e6;" horiz-adv-x="682" 
d="M384 -15q-75 0 -137 26t-107 73t-69 111t-24 140q0 75 24.5 139t69.5 111.5t108 73.5t139 26q41 0 76 -5t66 -15.5t59 -26.5l4 -146h-62l-26 149l63 -20v-57q-40 38 -82 54.5t-89 16.5q-69 0 -123.5 -35t-86 -102t-31.5 -163t30 -162.5t85.5 -101.5t131.5 -35
q43 0 77.5 10t76.5 31l-47 -48v59q0 57 -0.5 115t-2.5 115h100q-1 -56 -2 -113.5t-1 -116.5v-44q-52 -27 -105 -43t-115 -16zM404 278v40h263v-40l-111 -11h-22zM275 869l157 -116h-84l157 116l24 -21l-102 -118h-74l-102 118z" />
    <glyph glyph-name="gcaron" unicode="&#x1e7;" horiz-adv-x="518" 
d="M232 -240q-68 0 -111.5 15.5t-64 43.5t-20.5 63q0 25 12 46t41 41.5t79 40.5l6 -6q-20 -19 -32.5 -36t-18 -33.5t-5.5 -36.5q0 -32 16 -52.5t45 -29.5t68 -9q55 0 92.5 13.5t56.5 36.5t19 51q0 34 -23 56t-77 22h-117q-13 0 -27 1t-26 3v3q-38 8 -57.5 28t-19.5 52
q0 25 18 53.5t62 67.5v11l34 -15q-22 -23 -32 -40.5t-10 -34.5q0 -28 17 -41t53 -13h119q55 0 90.5 -15t53 -43.5t17.5 -68.5q0 -33 -16.5 -64t-48.5 -56t-80.5 -39.5t-112.5 -14.5zM239 160q-52 0 -93 18.5t-64 55t-23 90.5q0 53 23.5 89.5t64.5 55.5t93 19q30 0 55.5 -6
t47 -17.5t37.5 -28.5l2 -2q18 -20 28 -47.5t10 -62.5q0 -52 -23.5 -89t-64.5 -56t-93 -19zM237 200q32 0 55 16.5t35 45t12 65.5q0 36 -11.5 63t-33.5 42t-53 15t-54 -16t-35 -43.5t-12 -64.5q0 -36 11.5 -64t33 -43.5t52.5 -15.5zM343 415v27h6l131 46l15 -10v-63h-152z
M155 739l157 -143h-84l157 143l24 -20l-102 -148h-74l-102 148z" />
    <glyph glyph-name="uni01F8" unicode="&#x1f8;" horiz-adv-x="735" 
d="M39 0v41l105 15h21l116 -15v-41h-242zM124 0v647h51v-312v-335h-51zM454 629v41h241v-41l-100 -15h-20zM575 -7l-409 578h-2l-34 50l-86 8v41h165l367 -522l-17 -5v192v335h51v-677h-35zM438 746l-18 -25q-32 17 -63.5 34t-62.5 33q-28 16 -39 29.5t-11 26.5
q0 15 11 24.5t27 9.5q13 0 27 -8.5t35 -29.5q25 -23 48.5 -46.5t45.5 -47.5z" />
    <glyph glyph-name="uni01F9" unicode="&#x1f9;" horiz-adv-x="606" 
d="M40 0v36l109 20h23l100 -20v-36h-232zM113 0q1 23 1.5 60.5t1 78t0.5 71.5v48q0 28 -0.5 48.5t-1 38.5t-1.5 38l-79 9v35l140 61l15 -10l12 -116v-1v-151q0 -31 0.5 -71.5t1 -78t1.5 -60.5h-91zM344 0v36l109 20h23l100 -20v-36h-232zM417 0q1 23 1.5 60t1 77.5t0.5 72.5
v85q0 69 -19.5 95t-63.5 26q-24 0 -47 -7t-47 -22t-52 -40l-13 38h8q25 30 56.5 53t66 36.5t67.5 13.5q65 0 96.5 -43.5t31.5 -141.5v-93q0 -32 0.5 -72.5t1 -77.5t1.5 -60h-90zM362 576l-26 -19q-20 18 -40.5 36t-40 36t-40.5 36q-21 20 -27.5 32.5t-6.5 22.5q0 20 11.5 29
t26.5 9q14 0 27 -9t27 -32q16 -24 31 -47.5t29.5 -46.5t28.5 -47z" />
    <glyph glyph-name="uni0218" unicode="&#x218;" horiz-adv-x="512" 
d="M235 -15q-56 0 -108 15.5t-87 37.5l6 140h62l26 -154l-66 28v48q31 -22 55.5 -36.5t49.5 -21.5t59 -7q47 0 82 14t54 41.5t19 65.5q0 32 -13 54t-40 39t-70 33l-39 16q-51 20 -90 47.5t-60.5 65.5t-21.5 89q0 58 29.5 99t80.5 63.5t115 22.5q50 0 91 -14t73 -38l-6 -131
h-61l-28 151l65 -33v-50q-37 36 -68.5 50.5t-71.5 14.5q-38 0 -68.5 -13t-48.5 -38t-18 -62q0 -31 13.5 -54.5t38.5 -41.5t61 -32l40 -15q66 -25 106 -54.5t58 -65.5t18 -84q0 -59 -30.5 -101.5t-83.5 -65.5t-123 -23zM300 -125q0 -31 -14.5 -55.5t-38.5 -42t-53 -27.5
l-12 30q34 16 52.5 35.5t21.5 39.5l11 -29q-37 13 -53 34t-16 37q0 22 11.5 37t36.5 15q12 0 24 -5t24 -17q4 -15 5 -27t1 -25z" />
    <glyph glyph-name="uni0219" unicode="&#x219;" horiz-adv-x="434" 
d="M200 -13q-42 0 -77 9.5t-72 28.5l-4 110h55l26 -119h-41v53q25 -19 53 -28t62 -9q38 0 63 9.5t37 27t12 39.5q0 32 -23 51.5t-70 35.5l-46 17q-36 14 -63.5 32t-42.5 43.5t-15 59.5q0 37 20 69t59 52t95 20q41 0 74.5 -10.5t65.5 -30.5l-4 -102h-52l-20 102h37v-43
q-24 19 -49.5 28.5t-52.5 9.5q-46 0 -69.5 -18.5t-23.5 -49.5q0 -33 20.5 -50t71.5 -36l31 -11q50 -18 80.5 -40.5t44 -48.5t13.5 -58q0 -38 -22 -70.5t-65 -52.5t-108 -20zM272 -125q0 -31 -14.5 -55.5t-38.5 -42t-53 -27.5l-12 30q34 16 52.5 35.5t21.5 39.5l11 -29
q-37 13 -53 34t-16 37q0 22 11.5 37t36.5 15q12 0 24 -5t24 -17q4 -15 5 -27t1 -25z" />
    <glyph glyph-name="uni021A" unicode="&#x21a;" horiz-adv-x="604" 
d="M151 0v41l140 15h22l140 -15v-41h-302zM252 0q2 51 2.5 102t0.5 103.5v104.5v49v104t-0.5 104t-2.5 103h100q-1 -50 -2 -102t-1 -104v-105v-49v-103t1 -103.5t2 -103.5h-100zM20 492l8 178h548l8 -178h-58l-31 178l46 -50h-478l46 50l-31 -178h-58zM361 -125
q0 -31 -14.5 -55.5t-38.5 -42t-53 -27.5l-12 30q34 16 52.5 35.5t21.5 39.5l11 -29q-37 13 -53 34t-16 37q0 22 11.5 37t36.5 15q12 0 24 -5t24 -17q4 -15 5 -27t1 -25z" />
    <glyph glyph-name="uni021B" unicode="&#x21b;" horiz-adv-x="325" 
d="M134 422v53h179v-53h-179zM205 -13q-52 0 -83 28t-31 86q0 19 0.5 37.5t0.5 47.5v236h-83v44l124 15l-41 -33l32 163h60l-7 -156v-20v-323q0 -38 15 -55.5t40 -17.5q17 0 32.5 7t34.5 20l24 -26q-13 -17 -31 -29t-39.5 -18t-47.5 -6zM263 -125q0 -31 -14.5 -55.5
t-38.5 -42t-53 -27.5l-12 30q34 16 52.5 35.5t21.5 39.5l11 -29q-37 13 -53 34t-16 37q0 22 11.5 37t36.5 15q12 0 24 -5t24 -17q4 -15 5 -27t1 -25z" />
    <glyph glyph-name="uni0237" unicode="&#x237;" horiz-adv-x="277" 
d="M6 -250q-30 0 -49.5 9t-29 22.5t-10.5 26.5q7 21 22 31t37 10q20 0 38 -7.5t37 -22.5l45 -34v-9h-40v13q11 5 19 14t15 26q8 21 12.5 56.5t6.5 88.5t2 128v155q0 41 -0.5 68.5t-2.5 57.5l-79 9v35l151 61l15 -10l-3 -136v-242q0 -81 -4 -137t-17.5 -93.5t-40.5 -64.5
q-26 -26 -53 -40.5t-71 -14.5z" />
    <glyph glyph-name="uni0251" unicode="&#x251;" horiz-adv-x="557" 
d="M244 -13q-58 0 -103 28t-70.5 81.5t-25.5 129.5q0 79 29 137.5t80.5 91.5t118.5 33q26 0 51 -9.5t49 -31.5t44 -60h2l-13 -26q-37 42 -65 56t-59 14q-40 0 -73.5 -20.5t-53.5 -64.5t-20 -114q0 -62 18.5 -104t50 -63t70.5 -21q37 0 66 18t63 60l11 -26h-2
q-21 -38 -46 -62t-55 -35.5t-67 -11.5zM390 93v320v3l71 72l16 -10l-3 -135v-242q0 -32 10 -45.5t26 -13.5q13 0 22 6t17 16l20 -22q-18 -29 -39 -40.5t-48 -11.5q-38 0 -59 24.5t-29 63.5z" />
    <glyph glyph-name="uni0259" unicode="&#x259;" horiz-adv-x="519" 
d="M250 -13q-60 0 -106 25t-71.5 74t-25.5 120q0 17 2 31.5t5 24.5h370v-42h-235q-24 0 -37 -6t-17.5 -17.5t-4.5 -28.5q0 -39 14.5 -70t41 -48.5t62.5 -17.5q34 0 65 19t50.5 63.5t19.5 119.5q0 57 -20 99.5t-55.5 66t-84.5 23.5q-41 0 -77 -19.5t-62 -50.5l-24 19
q18 34 45 60t63.5 41t81.5 15q67 0 117 -30t77.5 -87.5t27.5 -140.5q0 -71 -30 -126t-80.5 -86t-111.5 -31z" />
    <glyph glyph-name="uni0261" unicode="&#x261;" horiz-adv-x="560" 
d="M247 -250q-50 0 -89.5 15t-65.5 46.5t-35 80.5q10 17 22.5 25t29.5 8q25 0 36.5 -17.5t22.5 -55.5l20 -76l-40 37q24 -10 46.5 -13.5t56.5 -3.5q36 0 64.5 13.5t46.5 40.5q13 19 20 42t10 55t3 76v28.5t-1 30.5l-4 16v318h2l69 72l16 -10l-3 -135v-240q2 -87 -2 -141
t-19 -88.5t-46 -65.5q-29 -29 -71 -43.5t-89 -14.5zM244 -3q-58 0 -103 27.5t-70.5 79.5t-25.5 127q0 77 29 135t80.5 90t118.5 32q26 0 51 -9.5t49 -31.5t44 -60h2l-13 -26q-37 42 -65 56t-59 14q-40 0 -73.5 -20t-53.5 -62.5t-20 -110.5q0 -61 18.5 -102t50 -61.5
t70.5 -20.5q37 0 66 18t63 61l11 -26h-2q-21 -38 -46 -62.5t-55 -36t-67 -11.5z" />
    <glyph glyph-name="uni02B0" unicode="&#x2b0;" horiz-adv-x="412" 
d="M69 427v409l-53 6v28l111 30l10 -5v-224v-2v-242h-68zM279 427v195q0 41 -11.5 58t-40.5 17q-22 0 -45 -12.5t-52 -38.5l-17 40h22q18 23 37 37.5t40 21t43 6.5q45 0 68.5 -28t23.5 -87v-209h-68zM21 427v30l73 13h21l68 -13v-30h-162zM232 427v30l72 13h20l68 -13v-30
h-160z" />
    <glyph glyph-name="uni02B2" unicode="&#x2b2;" horiz-adv-x="193" 
d="M10 268q-36 0 -53 12.5t-20 28.5q5 17 16 26.5t28 9.5q15 0 28 -6.5t27 -21.5l21 -22v-13h-41v9q12 0 21.5 8.5t13.5 15.5q9 16 13.5 35t5.5 49t1 78v202l-53 6v24l110 41l11 -7v-267q0 -47 -4 -79t-13 -53.5t-25 -37.5q-19 -20 -40.5 -29t-46.5 -9zM104 811
q-20 0 -34 13t-14 33t14 32.5t34 12.5t34.5 -12.5t14.5 -32.5t-14.5 -33t-34.5 -13z" />
    <glyph glyph-name="uni02B3" unicode="&#x2b3;" horiz-adv-x="293" 
d="M75 427v249l-52 6v28l100 41l11 -6l9 -82v-1v-235h-68zM142 618l-31 26h24q17 49 46.5 78t60.5 29q14 0 28 -8t18 -30q0 -20 -12 -32t-31 -12q-11 0 -21.5 5.5t-21.5 17.5l-16 17l36 3q-31 -16 -50 -39t-30 -55zM29 427v30l73 13h23l74 -13v-30h-170z" />
    <glyph glyph-name="uni02B7" unicode="&#x2b7;" horiz-adv-x="527" 
d="M149 420l-123 319h73l89 -236h-19l5 13l90 223h30l98 -238h-21l4 13l80 225h40l-115 -319h-27l-100 248l19 1l-4 -11l-92 -238h-27zM0 708v31h159v-31l-74 -9h-18zM202 708v31h152v-31l-65 -9h-15zM395 708v31h126v-31l-48 -9h-15z" />
    <glyph glyph-name="uni02B8" unicode="&#x2b8;" horiz-adv-x="348" 
d="M61 271q-26 0 -45 12.5t-19 34.5q4 16 16.5 22.5t26.5 6.5q12 0 25 -4t29 -18l22 -24l-26 -12l-20 11q26 12 44 29t31.5 41.5t25.5 57.5l12 35l96 276h38l-118 -323q-18 -50 -39.5 -82.5t-45.5 -47.5t-53 -15zM-1 708v31h173v-31l-84 -12h-22zM211 708v31h133v-31l-51 -9
h-13zM169 388l-146 351h74l106 -258h2z" />
    <glyph glyph-name="quoteleft" unicode="&#x2018;" horiz-adv-x="212" 
d="M103 474q-15 0 -29.5 6t-28.5 21q-5 16 -6.5 32.5t-1.5 32.5q0 43 19 77t51 58.5t70 38.5l14 -35q-31 -15 -52.5 -30t-34 -34.5t-18.5 -47.5l-12 35l50 -30q23 -14 32.5 -28t9.5 -32q0 -26 -15.5 -45t-47.5 -19z" />
    <glyph glyph-name="quoteleft" unicode="&#x2bb;" horiz-adv-x="212" 
d="M103 474q-15 0 -29.5 6t-28.5 21q-5 16 -6.5 32.5t-1.5 32.5q0 43 19 77t51 58.5t70 38.5l14 -35q-31 -15 -52.5 -30t-34 -34.5t-18.5 -47.5l-12 35l50 -30q23 -14 32.5 -28t9.5 -32q0 -26 -15.5 -45t-47.5 -19z" />
    <glyph glyph-name="quoteright" unicode="&#x2019;" horiz-adv-x="212" 
d="M109 740q15 0 29.5 -6t28.5 -21q5 -16 6.5 -32.5t1.5 -32.5q0 -43 -19 -77t-51 -58.5t-70 -38.5l-14 35q31 15 52.5 30t34 34.5t18.5 47.5l12 -35l-50 30q-23 14 -32.5 28t-9.5 32q0 26 15.5 45t47.5 19z" />
    <glyph glyph-name="quoteright" unicode="&#x2bc;" horiz-adv-x="212" 
d="M109 740q15 0 29.5 -6t28.5 -21q5 -16 6.5 -32.5t1.5 -32.5q0 -43 -19 -77t-51 -58.5t-70 -38.5l-14 35q31 15 52.5 30t34 34.5t18.5 47.5l12 -35l-50 30q-23 14 -32.5 28t-9.5 32q0 26 15.5 45t47.5 19z" />
    <glyph glyph-name="uni02BE" unicode="&#x2be;" horiz-adv-x="196" 
d="M157 638q0 -47 -30 -73.5t-85 -26.5v39q30 0 46.5 19t16.5 42t-16 43t-47 20v39q55 0 85 -26.5t30 -75.5z" />
    <glyph glyph-name="uni02BF" unicode="&#x2bf;" horiz-adv-x="196" 
d="M39 640q0 47 30 73.5t85 26.5v-39q-30 0 -46.5 -19t-16.5 -42t16 -43t47 -20v-39q-55 0 -85 26.5t-30 75.5z" />
    <glyph glyph-name="circumflex" unicode="&#x2c6;" horiz-adv-x="318" 
d="M285 546l-168 152h84l-168 -152l-23 22l132 176h34l132 -176z" />
    <glyph glyph-name="caron" unicode="&#x2c7;" horiz-adv-x="400" 
d="M85 739l157 -143h-84l157 143l24 -20l-102 -148h-74l-102 148z" />
    <glyph glyph-name="uni02C8" unicode="&#x2c8;" horiz-adv-x="183" 
d="M62 541l-6 196h72l-6 -196h-60z" />
    <glyph glyph-name="uni02C9" unicode="&#x2c9;" horiz-adv-x="261" 
d="M11 596v63h240v-63h-240z" />
    <glyph glyph-name="uni02CA" unicode="&#x2ca;" horiz-adv-x="181" 
d="M0 576q14 24 28.5 47t29.5 46.5t31 47.5q14 23 27.5 32t26.5 9q14 0 26 -9t12 -29q0 -10 -6.5 -22.5t-27.5 -32.5l-40 -36l-40 -36t-41 -36z" />
    <glyph glyph-name="uni02CB" unicode="&#x2cb;" horiz-adv-x="181" 
d="M181 576l-26 -19q-20 18 -40.5 36t-40 36t-40.5 36q-21 20 -27.5 32.5t-6.5 22.5q0 20 11.5 29t26.5 9q14 0 27 -9t27 -32q16 -24 31 -47.5t29.5 -46.5t28.5 -47z" />
    <glyph glyph-name="uni02CC" unicode="&#x2cc;" horiz-adv-x="183" 
d="M56 -267l6 196h60l6 -196h-72z" />
    <glyph glyph-name="breve" unicode="&#x2d8;" horiz-adv-x="400" 
d="M49 723l30 11q15 -39 43.5 -66t77.5 -27q50 0 78 27t43 66l30 -11q-3 -29 -14.5 -55.5t-30 -47.5t-45 -33t-61.5 -12q-34 0 -61 12t-45.5 33t-30 47.5t-14.5 55.5z" />
    <glyph glyph-name="dotaccent" unicode="&#x2d9;" horiz-adv-x="400" 
d="M200 589q-28 0 -47.5 18t-19.5 46t19.5 46t47.5 18q29 0 48 -18t19 -46t-19 -46t-48 -18z" />
    <glyph glyph-name="ring" unicode="&#x2da;" horiz-adv-x="400" 
d="M200 590q27 0 42 19.5t15 42.5t-14.5 42t-42.5 19q-27 0 -42 -19t-15 -42t14.5 -42.5t42.5 -19.5zM200 550q-40 0 -72.5 26.5t-32.5 75.5q0 47 32.5 74t72.5 27q41 0 73 -26t32 -75q0 -48 -32 -75t-73 -27z" />
    <glyph glyph-name="ogonek" unicode="&#x2db;" horiz-adv-x="400" 
d="M182 -221q-37 0 -60.5 22.5t-23.5 60.5q0 32 13.5 61t36.5 52t51 37v1h29q-32 -20 -49 -51.5t-17 -63.5q0 -29 16 -46t38 -17q12 0 24 3t25 10l13 -25q-19 -24 -42 -34t-54 -10z" />
    <glyph glyph-name="tilde" unicode="&#x2dc;" horiz-adv-x="400" 
d="M39 586q8 59 31 94t64 35q25 0 42 -10t31 -24q18 -17 33.5 -32.5t35.5 -15.5q23 0 37.5 21.5t24.5 58.5l27 -10q-9 -58 -31 -93t-64 -35q-25 0 -41.5 9.5t-31.5 23.5q-16 17 -32.5 32.5t-36.5 15.5q-22 0 -36.5 -21t-25.5 -58z" />
    <glyph glyph-name="hungarumlaut" unicode="&#x2dd;" horiz-adv-x="400" 
d="M69 567l55 142q10 27 25 37t28 10q14 0 24.5 -10t10.5 -27q0 -7 -4 -20t-18 -31l-93 -117zM211 567l55 142q10 27 25 37t28 10q15 0 25.5 -10t10.5 -27q0 -7 -4.5 -20t-18.5 -31l-93 -117z" />
    <glyph glyph-name="uni02E1" unicode="&#x2e1;" horiz-adv-x="204" 
d="M18 427v30l74 13h21l75 -13v-30h-170zM69 427v409l-53 6v28l111 30l10 -5v-468h-68z" />
    <glyph glyph-name="uni02E2" unicode="&#x2e2;" horiz-adv-x="301" 
d="M140 417q-30 0 -54.5 7.5t-50.5 22.5l-2 74h40l17 -83l-34 17v28q26 -17 44 -24t44 -7q35 0 53 10.5t18 32.5q0 20 -15 32t-50 24l-31 11q-25 10 -43.5 23t-28.5 31t-10 40q0 41 32.5 68t89.5 27q28 0 51 -6.5t46 -18.5l-4 -70h-37l-15 74h27v-34q-15 8 -31.5 14t-36.5 6
q-31 0 -47 -10t-16 -30q0 -16 13.5 -27.5t50.5 -24.5l21 -7q51 -18 72 -43t21 -57q0 -42 -34.5 -71t-99.5 -29z" />
    <glyph glyph-name="uni02E3" unicode="&#x2e3;" horiz-adv-x="350" 
d="M7 427v30l57 10h16l59 -10v-30h-132zM10 708v31h150v-31l-62 -9h-19zM247 427l-100 140l-119 172h72l94 -129l128 -183h-75zM180 427v30l74 13h16l73 -13v-30h-163zM209 708v31h121v-31l-51 -9h-14zM26 427l137 182l21 -40h-16l-101 -142h-41zM183 566l-19 39h14l99 134
h42z" />
    <glyph glyph-name="gravecomb" unicode="&#x300;" 
d="M55 576l-26 -19q-20 18 -40.5 36t-40 36t-40.5 36q-21 20 -27.5 32.5t-6.5 22.5q0 20 11.5 29t26.5 9q14 0 27 -9t27 -32q16 -24 31 -47.5t29.5 -46.5t28.5 -47z" />
    <glyph glyph-name="acutecomb" unicode="&#x301;" 
d="M-59 576q14 24 28.5 47t29.5 46.5t31 47.5q14 23 27.5 32t26.5 9q14 0 26 -9t12 -29q0 -10 -6.5 -22.5t-27.5 -32.5l-40 -36l-40 -36t-41 -36z" />
    <glyph glyph-name="uni0302" unicode="&#x302;" 
d="M126 546l-168 152h84l-168 -152l-23 22l132 176h34l132 -176z" />
    <glyph glyph-name="tildecomb" unicode="&#x303;" 
d="M-163 586q8 59 31 94t64 35q25 0 42 -10t31 -24q18 -17 33.5 -32.5t35.5 -15.5q23 0 37.5 21.5t24.5 58.5l27 -10q-9 -58 -31 -93t-64 -35q-25 0 -41.5 9.5t-31.5 23.5q-16 17 -32.5 32.5t-36.5 15.5q-22 0 -36.5 -21t-25.5 -58z" />
    <glyph glyph-name="uni0304" unicode="&#x304;" 
d="M-120 596v63h240v-63h-240z" />
    <glyph glyph-name="uni0306" unicode="&#x306;" 
d="M-151 723l30 11q15 -39 43.5 -66t77.5 -27q50 0 78 27t43 66l30 -11q-3 -29 -14.5 -55.5t-30 -47.5t-45 -33t-61.5 -12q-34 0 -61 12t-45.5 33t-30 47.5t-14.5 55.5z" />
    <glyph glyph-name="uni0307" unicode="&#x307;" 
d="M0 589q-28 0 -47.5 18t-19.5 46t19.5 46t47.5 18q29 0 48 -18t19 -46t-19 -46t-48 -18z" />
    <glyph glyph-name="uni0308" unicode="&#x308;" 
d="M-105 596q-24 0 -41.5 16t-17.5 41q0 24 17.5 40.5t41.5 16.5q25 0 42.5 -16.5t17.5 -40.5q0 -25 -17.5 -41t-42.5 -16zM105 596q-25 0 -42.5 16t-17.5 41q0 24 17.5 40.5t42.5 16.5q24 0 41.5 -16.5t17.5 -40.5q0 -25 -17.5 -41t-41.5 -16z" />
    <glyph glyph-name="hookabovecomb" unicode="&#x309;" 
d="M-19 553l-9 31q29 6 41 18.5t12 29.5q0 21 -19 31t-64 17l10 67q61 -5 91.5 -30.5t30.5 -69.5q0 -38 -24.5 -63.5t-68.5 -30.5z" />
    <glyph glyph-name="uni030A" unicode="&#x30a;" 
d="M0 590q27 0 42 19.5t15 42.5t-14.5 42t-42.5 19q-27 0 -42 -19t-15 -42t14.5 -42.5t42.5 -19.5zM0 550q-40 0 -72.5 26.5t-32.5 75.5q0 47 32.5 74t72.5 27q41 0 73 -26t32 -75q0 -48 -32 -75t-73 -27z" />
    <glyph glyph-name="uni030B" unicode="&#x30b;" 
d="M-112 567l55 142q10 27 25 37t28 10q14 0 24.5 -10t10.5 -27q0 -7 -4 -20t-18 -31l-93 -117zM30 567l55 142q10 27 25 37t28 10q15 0 25.5 -10t10.5 -27q0 -7 -4.5 -20t-18.5 -31l-93 -117z" />
    <glyph glyph-name="uni030C" unicode="&#x30c;" 
d="M-115 739l157 -143h-84l157 143l24 -20l-102 -148h-74l-102 148z" />
    <glyph glyph-name="uni031B" unicode="&#x31b;" 
d="M0 475v27q34 5 49.5 23t15.5 50q0 22 -6 34.5t-12 23.5t-6 27q0 13 10 25t29 12q7 0 16 -2t19 -10q8 -14 11 -28t3 -30q0 -43 -17 -76.5t-46 -53t-66 -22.5z" />
    <glyph glyph-name="dotbelowcomb" unicode="&#x323;" 
d="M0 -203q-28 0 -47.5 18t-19.5 46t19.5 46t47.5 18q29 0 48 -18t19 -46t-19 -46t-48 -18z" />
    <glyph glyph-name="uni0324" unicode="&#x324;" 
d="M-105 -193q-24 0 -41.5 16t-17.5 41q0 24 17.5 40.5t41.5 16.5q25 0 42.5 -16.5t17.5 -40.5q0 -25 -17.5 -41t-42.5 -16zM105 -193q-25 0 -42.5 16t-17.5 41q0 24 17.5 40.5t42.5 16.5q24 0 41.5 -16.5t17.5 -40.5q0 -25 -17.5 -41t-41.5 -16z" />
    <glyph glyph-name="uni0326" unicode="&#x326;" 
d="M59 -125q0 -31 -14.5 -55.5t-38.5 -42t-53 -27.5l-12 30q34 16 52.5 35.5t21.5 39.5l11 -29q-37 13 -53 34t-16 37q0 22 11.5 37t36.5 15q12 0 24 -5t24 -17q4 -15 5 -27t1 -25z" />
    <glyph glyph-name="uni0327" unicode="&#x327;" 
d="M-26 -86l13 89h37l-10 -80l-20 22q31 -2 56.5 -11.5t41.5 -27.5t16 -46q0 -34 -28.5 -57.5t-83.5 -23.5q-22 0 -37.5 3.5t-25.5 6.5l7 33q12 -2 23.5 -4t24.5 -2q29 0 43.5 12.5t14.5 33.5q0 23 -17.5 35t-54.5 17z" />
    <glyph glyph-name="uni0328" unicode="&#x328;" 
d="M-13 -221q-37 0 -60.5 22.5t-23.5 60.5q0 32 13.5 61t36.5 52t51 37v1h29q-32 -20 -49 -51.5t-17 -63.5q0 -29 16 -46t38 -17q12 0 24 3t25 10l13 -25q-19 -24 -42 -34t-54 -10z" />
    <glyph glyph-name="uni0329" unicode="&#x329;" 
d="M-36 -267l6 196h60l6 -196h-72z" />
    <glyph glyph-name="uni032E" unicode="&#x32e;" 
d="M-151 -79l30 11q15 -39 43.5 -66t77.5 -27q50 0 78 27t43 66l30 -11q-3 -29 -14.5 -55.5t-30 -47.5t-45 -33t-61.5 -12q-34 0 -61 12t-45.5 33t-30 47.5t-14.5 55.5z" />
    <glyph glyph-name="uni0331" unicode="&#x331;" 
d="M-120 -176v63h240v-63h-240z" />
    <glyph glyph-name="uni0374" unicode="&#x374;" horiz-adv-x="249" 
d="M65 435l16 287q12 8 24 11.5t25 3.5q23 0 36.5 -15t13.5 -37q0 -18 -7 -46.5t-18.5 -63.5t-25.5 -75q-7 -17 -13 -35t-13 -36z" />
    <glyph glyph-name="uni0375" unicode="&#x375;" horiz-adv-x="249" 
d="M184 162l-16 -287q-12 -8 -24 -11.5t-25 -3.5q-23 0 -36.5 15t-13.5 37q0 18 7 46.5t18.5 63.5t25.5 75q7 17 13 35t13 36z" />
    <glyph glyph-name="uni037E" unicode="&#x37e;" horiz-adv-x="300" 
d="M60 -177l-15 37q37 17 61 36t38 44t21 60l13 -37l-53 32q-23 14 -33.5 29t-10.5 34q0 28 16.5 47.5t50.5 19.5q16 0 31 -6t30 -22q5 -16 6.5 -34t1.5 -35q0 -50 -21.5 -90.5t-57 -69.5t-78.5 -45zM150 322q-30 0 -50.5 21t-20.5 50q0 30 20.5 51t50.5 21t50.5 -21
t20.5 -51q0 -29 -20.5 -50t-50.5 -21z" />
    <glyph glyph-name="tonos" unicode="&#x384;" horiz-adv-x="363" 
d="M163 556l56 170q8 23 20 32t25 9q18 0 29.5 -10.5t11.5 -27.5q0 -13 -5 -23t-17 -29l-89 -135z" />
    <glyph glyph-name="dieresistonos" unicode="&#x385;" horiz-adv-x="400" 
d="M73 601q-22 0 -37.5 15t-15.5 37q0 23 15.5 37.5t37.5 14.5t38.5 -14.5t16.5 -37.5q0 -22 -16.5 -37t-38.5 -15zM187 557l-31 9l27 180q3 20 13 32.5t29 12.5q18 0 29.5 -10.5t11.5 -25.5q0 -7 -1 -13.5t-9 -24.5zM327 601q-22 0 -38 15t-16 37q0 23 16 37.5t38 14.5
t37.5 -14.5t15.5 -37.5q0 -22 -15.5 -37t-37.5 -15z" />
    <glyph glyph-name="Alphatonos" unicode="&#x386;" horiz-adv-x="664" 
d="M63 474l56 170q8 23 20 32t25 9q18 0 29.5 -10.5t11.5 -27.5q0 -13 -5 -23t-17 -29l-89 -135zM5 0v41l100 15h20l109 -15v-41h-229zM71 0l231 675h63l230 -675h-98l-198 591h20l-5 -15l-196 -576h-47zM177 217v47h286v-47h-286zM381 0v41l126 15h22l124 -15v-41h-272z
" />
    <glyph glyph-name="anoteleia" unicode="&#x387;" horiz-adv-x="300" 
d="M150 322q-30 0 -50.5 21t-20.5 50q0 30 20.5 51t50.5 21t50.5 -21t20.5 -51q0 -29 -20.5 -50t-50.5 -21z" />
    <glyph glyph-name="Epsilontonos" unicode="&#x388;" horiz-adv-x="728" 
d="M-12 474l56 170q8 23 20 32t25 9q18 0 29.5 -10.5t11.5 -27.5q0 -13 -5 -23t-17 -29l-89 -135zM169 0v41l131 15h10v-56h-141zM260 0q2 51 2.5 102t0.5 103.5v104.5v49v104t-0.5 104t-2.5 103h101q-1 -50 -2 -102t-1 -104v-105v-37v-111.5t1 -106.5l2 -104h-101zM310 0
v50h335l-35 -30l27 158h57l-7 -178h-377zM310 318v47h226v-47h-226zM519 224l-15 111v20l15 105h46v-236h-46zM169 629v41h141v-56h-10zM617 493l-27 157l35 -30h-315v50h357l7 -177h-57z" />
    <glyph glyph-name="Etatonos" unicode="&#x389;" horiz-adv-x="913" 
d="M-12 474l56 170q8 23 20 32t25 9q18 0 29.5 -10.5t11.5 -27.5q0 -13 -5 -23t-17 -29l-89 -135zM169 0v41l131 15h20l131 -15v-41h-282zM260 0q2 51 2.5 102t0.5 103.5v104.5v49v104t-0.5 104t-2.5 103h101q-1 -50 -2 -102t-1 -104v-105v-30v-116.5t1 -108t2 -104.5h-101z
M310 319v47h418v-47h-418zM587 0v41l131 15h21l130 -15v-41h-282zM678 0q2 51 2.5 103t0.5 108v118v30v104t-0.5 104t-2.5 103h100q-1 -50 -2 -102t-1 -104v-105v-49v-103t1 -103.5t2 -103.5h-100zM169 629v41h282v-41l-131 -15h-20zM587 629v41h282v-41l-130 -15h-21z" />
    <glyph glyph-name="Iotatonos" unicode="&#x38a;" horiz-adv-x="496" 
d="M-12 474l56 170q8 23 20 32t25 9q18 0 29.5 -10.5t11.5 -27.5q0 -13 -5 -23t-17 -29l-89 -135zM169 0v41l131 15h21l131 -15v-41h-283zM260 0q2 51 2.5 102t0.5 103.5v104.5v49v104t-0.5 104t-2.5 103h101q-1 -50 -2 -102t-1 -104v-105v-49v-103t1 -103.5t2 -103.5h-101z
M169 629v41h283v-41l-131 -15h-21z" />
    <glyph glyph-name="Omicrontonos" unicode="&#x38c;" horiz-adv-x="770" 
d="M-12 474l56 170q8 23 20 32t25 9q18 0 29.5 -10.5t11.5 -27.5q0 -13 -5 -23t-17 -29l-89 -135zM417 -15q-58 0 -113 22.5t-99 66.5t-69.5 109.5t-25.5 151.5q0 82 26 147t69.5 110t98.5 69t113 24t112.5 -22.5t98 -67t69.5 -109.5t26 -151q0 -82 -25.5 -147t-69 -110.5
t-98.5 -69t-113 -23.5zM417 35q52 0 89.5 25.5t61 68t34.5 96t11 110.5q0 56 -11 109.5t-34.5 96.5t-61 68.5t-89.5 25.5t-89.5 -25.5t-61.5 -68.5t-35.5 -96.5t-11.5 -109.5q0 -57 11.5 -110.5t35.5 -96t61.5 -68t89.5 -25.5z" />
    <glyph glyph-name="Upsilontonos" unicode="&#x38e;" horiz-adv-x="770" 
d="M-12 474l56 170q8 23 20 32t25 9q18 0 29.5 -10.5t11.5 -27.5q0 -13 -5 -23t-17 -29l-89 -135zM304 0v41l140 15h21l141 -15v-41h-302zM405 0q1 33 1.5 67.5t1 71.5t0.5 77.5v84.5h94v-84t0.5 -77t1 -72t1.5 -68h-100zM425 224l-219 446h109l180 -392h-34l8 16l177 376
h52l-215 -446h-58zM162 629v41h272v-41l-130 -15h-21zM531 629v41h229v-41l-99 -15h-20z" />
    <glyph glyph-name="Omegatonos" unicode="&#x38f;" horiz-adv-x="784" 
d="M-12 474l56 170q8 23 20 32t25 9q18 0 29.5 -10.5t11.5 -27.5q0 -13 -5 -23t-17 -29l-89 -135zM107 0l-20 171h56l38 -125l-39 29h214l-32 -30l3 49q-45 19 -83 46.5t-66 64t-44 81.5t-16 98q0 70 24 126t66 95t97 59.5t118 20.5q65 0 121 -21.5t97.5 -60.5t65 -92
t23.5 -116q0 -44 -13.5 -87.5t-40.5 -83t-66.5 -73t-91.5 -57.5l3 -49l-32 30h216l-39 -29l38 125h56l-20 -171h-265l-5 123q52 26 86 66t50.5 91t16.5 107q0 61 -13 107.5t-38.5 77.5t-63 47t-85.5 16q-49 0 -86 -17t-62 -49.5t-37 -78.5t-12 -103q0 -69 19 -119t53 -85
t79 -60l-5 -123h-265z" />
    <glyph glyph-name="iotadieresistonos" unicode="&#x390;" horiz-adv-x="287" 
d="M191 -13q-31 0 -50.5 14.5t-29 45t-10.5 78.5l-3 344l87 18l10 -10q-6 -75 -10 -128.5t-6.5 -91.5t-4 -67t-1.5 -54q0 -48 12.5 -64t35.5 -16q11 0 22 2.5t21 6.5l8 -25q-12 -22 -33 -37.5t-48 -15.5zM38 601q-22 0 -37.5 15t-15.5 37q0 23 15.5 37.5t37.5 14.5
t38.5 -14.5t16.5 -37.5q0 -22 -16.5 -37t-38.5 -15zM152 557l-31 9l27 180q3 20 13 32.5t29 12.5q18 0 29.5 -10.5t11.5 -25.5q0 -7 -1 -13.5t-9 -24.5zM292 601q-22 0 -38 15t-16 37q0 23 16 37.5t38 14.5t37.5 -14.5t15.5 -37.5q0 -22 -15.5 -37t-37.5 -15z" />
    <glyph glyph-name="Alpha" unicode="&#x391;" horiz-adv-x="664" 
d="M5 0v41l100 15h20l109 -15v-41h-229zM71 0l231 675h63l230 -675h-98l-198 591h20l-5 -15l-196 -576h-47zM177 217v47h286v-47h-286zM381 0v41l126 15h22l124 -15v-41h-272z" />
    <glyph glyph-name="Beta" unicode="&#x392;" horiz-adv-x="629" 
d="M44 0v41l131 15h10v-56h-141zM135 0q2 51 2.5 102t0.5 103.5v104.5v49v104t-0.5 104t-2.5 103h101q-1 -50 -2 -102t-1 -104v-105v-34v-114t1 -107l2 -104h-101zM185 0v47h111q96 0 143 35t47 101q0 70 -47 105t-151 35h-103v46h100q61 0 99 14t56 43t18 74q0 46 -17 73
t-51.5 39t-85.5 12h-119v46h149q70 0 118.5 -21t74 -57.5t25.5 -84.5q0 -39 -19 -73.5t-60 -58.5t-109 -32v9q79 -6 127.5 -30t71.5 -59.5t23 -79.5q0 -34 -15 -66.5t-46.5 -59t-82.5 -42t-123 -15.5h-134zM44 629v41h141v-56h-10z" />
    <glyph glyph-name="Gamma" unicode="&#x393;" horiz-adv-x="560" 
d="M135 0q2 51 2.5 102t0.5 103v104v50v104t-0.5 104t-2.5 103h101q-1 -50 -2 -102t-1 -104v-105v-50v-102.5t1 -103t2 -103.5h-101zM185 620v50h338l7 -199h-57l-36 199l51 -50h-303zM44 0v41l131 15h22l131 -15v-41h-284zM44 629v41h141v-56h-10z" />
    <glyph glyph-name="Delta" unicode="&#x2206;" horiz-adv-x="591" 
d="M26 0v42l237 633h63l236 -633v-42h-83l-220 596h22l-4 -11l-218 -585h-33zM49 0v81h474v-81h-474z" />
    <glyph glyph-name="Delta" unicode="&#x394;" horiz-adv-x="591" 
d="M26 0v42l237 633h63l236 -633v-42h-83l-220 596h22l-4 -11l-218 -585h-33zM49 0v81h474v-81h-474z" />
    <glyph glyph-name="Epsilon" unicode="&#x395;" horiz-adv-x="603" 
d="M44 0v41l131 15h10v-56h-141zM135 0q2 51 2.5 102t0.5 103.5v104.5v49v104t-0.5 104t-2.5 103h101q-1 -50 -2 -102t-1 -104v-105v-37v-111.5t1 -106.5l2 -104h-101zM185 0v50h335l-35 -30l27 158h57l-7 -178h-377zM185 318v47h226v-47h-226zM394 224l-15 111v20l15 105
h46v-236h-46zM44 629v41h141v-56h-10zM492 493l-27 157l35 -30h-315v50h357l7 -177h-57z" />
    <glyph glyph-name="Zeta" unicode="&#x396;" horiz-adv-x="551" 
d="M20 0v36l394 609l-10 -40v15h-158h-158l36 29l-33 -157h-61l8 178h471v-35l-393 -610l10 37v-12h172h175l-36 -29l33 157h61l-8 -178h-503z" />
    <glyph glyph-name="Eta" unicode="&#x397;" horiz-adv-x="788" 
d="M44 0v41l131 15h20l131 -15v-41h-282zM135 0q2 51 2.5 102t0.5 103.5v104.5v49v104t-0.5 104t-2.5 103h101q-1 -50 -2 -102t-1 -104v-105v-30v-116.5t1 -108t2 -104.5h-101zM185 319v47h418v-47h-418zM462 0v41l131 15h21l130 -15v-41h-282zM553 0q2 51 2.5 103t0.5 108
v118v30v104t-0.5 104t-2.5 103h100q-1 -50 -2 -102t-1 -104v-105v-49v-103t1 -103.5t2 -103.5h-100zM44 629v41h282v-41l-131 -15h-20zM462 629v41h282v-41l-130 -15h-21z" />
    <glyph glyph-name="Theta" unicode="&#x398;" horiz-adv-x="708" 
d="M219 247v178h45l15 -76v-20l-15 -82h-45zM444 247l-15 82v20l15 76h45v-178h-45zM354 -15q-58 0 -113 22.5t-99 66.5t-69.5 109.5t-25.5 151.5q0 82 26 147t69.5 110t98.5 69t113 24q59 0 113.5 -22.5t98 -67t69 -109.5t25.5 -151q0 -82 -25.5 -147t-69 -110.5t-98 -69
t-113.5 -23.5zM354 35q53 0 90.5 25.5t61 68t35 96t11.5 110.5q0 56 -11.5 109.5t-35 96.5t-61 68.5t-90.5 25.5q-52 0 -89.5 -25.5t-61.5 -68.5t-35.5 -96.5t-11.5 -109.5q0 -57 11.5 -110.5t35.5 -96t61.5 -68t89.5 -25.5zM239 312v47h230v-47h-230z" />
    <glyph glyph-name="Iota" unicode="&#x399;" horiz-adv-x="371" 
d="M44 0v41l131 15h21l131 -15v-41h-283zM135 0q2 51 2.5 102t0.5 103.5v104.5v49v104t-0.5 104t-2.5 103h101q-1 -50 -2 -102t-1 -104v-105v-49v-103t1 -103.5t2 -103.5h-101zM44 629v41h283v-41l-131 -15h-21z" />
    <glyph glyph-name="Kappa" unicode="&#x39a;" horiz-adv-x="667" 
d="M135 0q2 51 2.5 102t0.5 103.5v104.5v49v104t-0.5 104t-2.5 103h97q-1 -50 -2 -102t-1 -104v-105v-74v-85.5t1 -97t2 -102.5h-97zM44 0v41l131 15h21l130 -15v-41h-282zM44 629v41h282v-41l-130 -15h-21zM405 0v41l121 15h15l121 -15v-41h-257zM417 629v41h230v-41
l-111 -15l-20 -4zM184 175l-4 66h4l27 33l323 396h61zM514 0l-198 371l55 65l242 -436h-99z" />
    <glyph glyph-name="Lambda" unicode="&#x39b;" horiz-adv-x="664" 
d="M5 0v41l100 15h20l109 -15v-41h-229zM71 0l231 675h63l230 -675h-98l-198 591h20l-5 -15l-196 -576h-47zM381 0v41l126 15h22l124 -15v-41h-272z" />
    <glyph glyph-name="Mu" unicode="&#x39c;" horiz-adv-x="902" 
d="M39 0v41l105 15h21l98 -15v-41h-224zM49 629v41h123v-56h-12zM129 0v670h43l9 -301v-369h-52zM404 0l-259 638h-6v32h85l241 -594h-34l8 21l221 573h48v-32h-8l-13 -33l-233 -605h-50zM585 0v41l120 15h22l130 -15v-41h-272zM668 0q2 51 2.5 102t0.5 103v104v361h95
q-1 -50 -2 -102t-1 -104v-105v-49v-103t1 -103.5t2 -103.5h-98zM716 614v56h141v-41l-130 -15h-11z" />
    <glyph glyph-name="Nu" unicode="&#x39d;" horiz-adv-x="735" 
d="M39 0v41l105 15h21l116 -15v-41h-242zM124 0v647h51v-312v-335h-51zM454 629v41h241v-41l-100 -15h-20zM575 -7l-409 578h-2l-34 50l-86 8v41h165l367 -522l-17 -5v192v335h51v-677h-35z" />
    <glyph glyph-name="Xi" unicode="&#x39e;" horiz-adv-x="594" 
d="M44 0l-10 188h61l39 -188l-55 77h436l-56 -77l40 188h60l-10 -188h-505zM129 233v216h46l15 -97v-20l-15 -99h-46zM152 312v59h289v-59h-289zM419 233l-15 99v20l15 97h46v-216h-46zM46 491l8 179h485l8 -179h-56l-32 179l46 -77h-416l46 77l-32 -179h-57z" />
    <glyph glyph-name="Omicron" unicode="&#x39f;" horiz-adv-x="707" 
d="M354 -15q-58 0 -113 22.5t-99 66.5t-69.5 109.5t-25.5 151.5q0 82 26 147t69.5 110t98.5 69t113 24t112.5 -22.5t98 -67t69.5 -109.5t26 -151q0 -82 -25.5 -147t-69 -110.5t-98.5 -69t-113 -23.5zM354 35q52 0 89.5 25.5t61 68t34.5 96t11 110.5q0 56 -11 109.5
t-34.5 96.5t-61 68.5t-89.5 25.5t-89.5 -25.5t-61.5 -68.5t-35.5 -96.5t-11.5 -109.5q0 -57 11.5 -110.5t35.5 -96t61.5 -68t89.5 -25.5z" />
    <glyph glyph-name="Pi" unicode="&#x3a0;" horiz-adv-x="775" 
d="M135 0q2 51 2.5 102t0.5 103.5v104.5v49v104t-0.5 104t-2.5 103h101q-1 -50 -2 -102t-1 -104v-105v-49v-103t1 -103.5t2 -103.5h-101zM539 0q2 51 2.5 102t0.5 103.5v104.5v49v104t-0.5 104t-2.5 103h101q-1 -50 -2 -102t-1 -104v-105v-49v-103t1 -103.5t2 -103.5h-101z
M44 0v41l131 15h20l131 -15v-41h-282zM449 0v41l130 15h21l131 -15v-41h-282zM44 629v41h141v-56h-10zM590 614v56h141v-41l-131 -15h-10zM185 624v46h405v-46h-405z" />
    <glyph glyph-name="Rho" unicode="&#x3a1;" horiz-adv-x="589" 
d="M44 0v41l131 15h22l131 -15v-41h-284zM135 0q2 51 2.5 102t0.5 103.5v104.5v49v104t-0.5 104t-2.5 103h101q-1 -50 -2 -102t-1 -104v-105v-61v-99.5t1 -97.5t2 -101h-101zM185 264v47h114q61 0 98 20t54 56t17 83q0 73 -41.5 113.5t-131.5 40.5h-110v46h128
q85 0 141 -25.5t84.5 -70.5t28.5 -104q0 -56 -28 -103t-89.5 -75t-164.5 -28h-100zM44 629v41h141v-56h-10z" />
    <glyph glyph-name="Sigma" unicode="&#x3a3;" horiz-adv-x="558" 
d="M27 0v57l244 301v-54l-245 330v36h475l8 -179h-61l-38 179l56 -50h-168h-167v-17l-19 55l224 -303l-123 -155l-123 -155l13 63v-26h391l-55 -50l38 180h61l-9 -212h-502z" />
    <glyph glyph-name="Tau" unicode="&#x3a4;" horiz-adv-x="604" 
d="M151 0v41l140 15h22l140 -15v-41h-302zM252 0q2 51 2.5 102t0.5 103.5v104.5v49v104t-0.5 104t-2.5 103h100q-1 -50 -2 -102t-1 -104v-105v-49v-103t1 -103.5t2 -103.5h-100zM20 492l8 178h548l8 -178h-58l-31 178l46 -50h-478l46 50l-31 -178h-58z" />
    <glyph glyph-name="Upsilon" unicode="&#x3a5;" horiz-adv-x="633" 
d="M167 0v41l140 15h21l141 -15v-41h-302zM268 0q1 33 1.5 67.5t1 71.5t0.5 77.5v84.5h94v-84t0.5 -77t1 -72t1.5 -68h-100zM288 224l-219 446h109l180 -392h-34l8 16l177 376h52l-215 -446h-58zM25 629v41h272v-41l-130 -15h-21zM394 629v41h229v-41l-99 -15h-20z" />
    <glyph glyph-name="Phi" unicode="&#x3a6;" horiz-adv-x="742" 
d="M38 349q0 66 32.5 117.5t97.5 81t162 29.5h31v-47h-30q-65 0 -108.5 -22t-64.5 -62.5t-21 -95.5q0 -54 21 -97t64.5 -68t108.5 -25h30v-47h-31q-109 0 -173 33t-91.5 87t-27.5 116zM380 113v47h31q65 0 108 25t64.5 68t21.5 97q0 55 -21 95.5t-64 62.5t-109 22h-31v47h31
q102 0 166.5 -30.5t95 -82t30.5 -115.5q0 -62 -27 -116t-91 -87t-174 -33h-31zM326 0q2 76 2.5 158.5t0.5 161.5v49q0 80 -0.5 156t-2.5 155h90q-1 -79 -2 -154t-1 -155v-51q0 -75 1 -159.5t2 -160.5h-90zM230 640v40h281v-40l-125 -15h-26zM230 0v41l131 15h26l124 -15v-41
h-281z" />
    <glyph glyph-name="Chi" unicode="&#x3a7;" horiz-adv-x="648" 
d="M10 0v41l109 14h20l100 -14v-41h-229zM70 0l233 354l40 -26h-7l-16 -25l-192 -303h-58zM356 0v41l130 15h22l131 -15v-41h-283zM354 346l-38 27h5l11 17l174 280h57zM479 0l-403 670h105l403 -670h-105zM19 629v41h281v-41l-130 -15h-22zM388 629v41h229v-41l-109 -14
h-20z" />
    <glyph glyph-name="Psi" unicode="&#x3a8;" horiz-adv-x="770" 
d="M385 234q-78 0 -130 13.5t-84 45t-51 83.5t-31 130l-11 71q-3 23 -12 34.5t-30 14.5l-27 3v41h51q42 0 65 -11.5t34 -38t16 -70.5l5 -43q7 -61 17.5 -104.5t31.5 -70.5t58 -39.5t98 -12.5q60 0 97.5 12.5t58 39.5t31.5 70.5t18 104.5l5 43q5 44 15.5 70.5t34 38
t65.5 11.5h50v-41l-26 -3q-22 -3 -30.5 -14.5t-12.5 -34.5l-11 -71q-12 -78 -30.5 -130t-50.5 -83.5t-84 -45t-130 -13.5zM335 0q2 51 2.5 102t0.5 103.5v104.5v49v104t-0.5 104t-2.5 103h100q-1 -50 -2 -102t-1 -104v-105v-49v-103t1 -103.5t2 -103.5h-100zM244 0v41
l130 15h21l131 -15v-41h-282zM245 629v41h280v-41l-130 -15h-21z" />
    <glyph glyph-name="Omega" unicode="&#x2126;" horiz-adv-x="721" 
d="M44 0l-20 171h56l38 -125l-39 29h214l-32 -30l3 49q-45 19 -83 46.5t-66 64t-44 81.5t-16 98q0 70 24 126t66 95t97 59.5t118 20.5q65 0 121 -21.5t97.5 -60.5t65 -92t23.5 -116q0 -44 -13.5 -87.5t-40.5 -83t-66.5 -73t-91.5 -57.5l3 -49l-32 30h216l-39 -29l38 125h56
l-20 -171h-265l-5 123q52 26 86 66t50.5 91t16.5 107q0 61 -13 107.5t-38.5 77.5t-63 47t-85.5 16q-49 0 -86 -17t-62 -49.5t-37 -78.5t-12 -103q0 -69 19 -119t53 -85t79 -60l-5 -123h-265z" />
    <glyph glyph-name="Omega" unicode="&#x3a9;" horiz-adv-x="721" 
d="M44 0l-20 171h56l38 -125l-39 29h214l-32 -30l3 49q-45 19 -83 46.5t-66 64t-44 81.5t-16 98q0 70 24 126t66 95t97 59.5t118 20.5q65 0 121 -21.5t97.5 -60.5t65 -92t23.5 -116q0 -44 -13.5 -87.5t-40.5 -83t-66.5 -73t-91.5 -57.5l3 -49l-32 30h216l-39 -29l38 125h56
l-20 -171h-265l-5 123q52 26 86 66t50.5 91t16.5 107q0 61 -13 107.5t-38.5 77.5t-63 47t-85.5 16q-49 0 -86 -17t-62 -49.5t-37 -78.5t-12 -103q0 -69 19 -119t53 -85t79 -60l-5 -123h-265z" />
    <glyph glyph-name="Iotadieresis" unicode="&#x3aa;" horiz-adv-x="371" 
d="M92 745q-22 0 -39 15.5t-17 39.5t17 39.5t39 15.5q25 0 41 -15.5t16 -39.5t-16 -39.5t-41 -15.5zM279 745q-25 0 -41 15.5t-16 39.5t16 39.5t41 15.5q23 0 40 -15.5t17 -39.5t-17 -39.5t-40 -15.5zM44 0v41l131 15h21l131 -15v-41h-283zM135 0q2 51 2.5 102t0.5 103.5
v104.5v49v104t-0.5 104t-2.5 103h101q-1 -50 -2 -102t-1 -104v-105v-49v-103t1 -103.5t2 -103.5h-101zM44 629v41h283v-41l-131 -15h-21z" />
    <glyph glyph-name="Upsilondieresis" unicode="&#x3ab;" horiz-adv-x="633" 
d="M167 0v41l140 15h21l141 -15v-41h-302zM268 0q1 33 1.5 67.5t1 71.5t0.5 77.5v84.5h94v-84t0.5 -77t1 -72t1.5 -68h-100zM288 224l-219 446h109l180 -392h-34l8 16l177 376h52l-215 -446h-58zM25 629v41h272v-41l-130 -15h-21zM394 629v41h229v-41l-99 -15h-20zM233 745
q-23 0 -40.5 15.5t-17.5 39.5t17.5 39.5t40.5 15.5q24 0 40.5 -15.5t16.5 -39.5t-16.5 -39.5t-40.5 -15.5zM456 745q-24 0 -40.5 15.5t-16.5 39.5t16.5 39.5t40.5 15.5q23 0 40.5 -15.5t17.5 -39.5t-17.5 -39.5t-40.5 -15.5z" />
    <glyph glyph-name="alphatonos" unicode="&#x3ac;" horiz-adv-x="553" 
d="M236 -13q-55 0 -99.5 27.5t-71 82.5t-26.5 135t30.5 137.5t78 88t99.5 30.5q36 0 65 -13t51.5 -41.5t36.5 -76.5h20l-34 -65q-10 54 -32 87t-49.5 47.5t-56.5 14.5q-35 0 -62.5 -22t-43 -65t-15.5 -105q0 -71 16 -118.5t45 -71t67 -23.5q30 0 56 19.5t43 56t19 86.5
l7 177l7 93l78 18l15 -10q-8 -47 -14.5 -96.5t-11.5 -96t-7.5 -87t-2.5 -69.5q0 -40 10.5 -55.5t33.5 -15.5q10 0 21 2.5t21 6.5l9 -25q-12 -23 -34 -38t-48 -15q-21 0 -37.5 12.5t-27 45t-13.5 91.5l19 -1q-11 -52 -34.5 -84.5t-56 -48t-71.5 -15.5zM248 556l56 170
q8 23 20 32t25 9q18 0 29.5 -10.5t11.5 -27.5q0 -13 -5 -23t-17 -29l-89 -135z" />
    <glyph glyph-name="epsilontonos" unicode="&#x3ad;" horiz-adv-x="451" 
d="M226 -13q-53 0 -95.5 15t-66.5 44t-24 71q0 40 23.5 70.5t64.5 48.5t93 18v-12q-52 2 -88.5 18t-55.5 42t-19 58q0 37 20.5 65.5t64 45.5t112.5 17q36 0 66 -6t52.5 -17.5t34.5 -27.5q0 -19 -12 -34t-35 -15q-11 0 -21.5 3.5t-23 11t-29.5 19.5l-52 39h71l10 -17
q-17 4 -31 5.5t-29 1.5q-38 0 -65 -9.5t-41 -28t-14 -45.5q0 -26 14 -44.5t42 -28.5t70 -10q15 0 30 0.5t37 1.5v-66q-25 2 -36 2h-22q-43 0 -71 -7.5t-44 -20.5t-23 -28.5t-7 -32.5q0 -25 13.5 -44t40.5 -30t66 -11q37 0 76.5 8t85.5 36l16 -26q-24 -27 -56 -44.5
t-68 -26.5t-74 -9zM241 556l56 170q8 23 20 32t25 9q18 0 29.5 -10.5t11.5 -27.5q0 -13 -5 -23t-17 -29l-89 -135z" />
    <glyph glyph-name="etatonos" unicode="&#x3ae;" horiz-adv-x="550" 
d="M94 0l13 181l3 189q0 23 -7.5 35.5t-29.5 12.5q-10 0 -19.5 -1t-19.5 -3l-11 30q15 19 32 30.5t42 11.5q29 0 47.5 -15t27.5 -45.5t9 -79.5v-2l5 -344l-82 -10zM389 -180l13 191l10 293q1 40 -10 64.5t-32.5 36t-50.5 11.5q-28 0 -56 -15.5t-51 -40.5t-36 -54l-15 15h2
q11 51 41.5 88.5t68 58t70.5 20.5q40 0 68.5 -16.5t44.5 -54.5t17 -104l8 -485l-82 -18zM307 556l56 170q8 23 20 32t25 9q18 0 29.5 -10.5t11.5 -27.5q0 -13 -5 -23t-17 -29l-89 -135z" />
    <glyph glyph-name="iotatonos" unicode="&#x3af;" horiz-adv-x="287" 
d="M191 -13q-31 0 -50.5 14.5t-29 45t-10.5 78.5l-3 344l87 18l10 -10q-6 -75 -10 -128.5t-6.5 -91.5t-4 -67t-1.5 -54q0 -48 12.5 -64t35.5 -16q11 0 22 2.5t21 6.5l8 -25q-12 -22 -33 -37.5t-48 -15.5zM135 556l56 170q8 23 20 32t25 9q18 0 29.5 -10.5t11.5 -27.5
q0 -13 -5 -23t-17 -29l-89 -135z" />
    <glyph glyph-name="upsilondieresistonos" unicode="&#x3b0;" horiz-adv-x="524" 
d="M276 -13q-56 0 -96.5 19.5t-61.5 60.5t-21 108q0 32 2 66.5t4.5 65.5t2.5 54q0 28 -6.5 42t-32.5 14q-9 0 -18.5 -1t-17.5 -3l-12 30q14 19 36.5 30.5t51.5 11.5q32 0 49 -12.5t23.5 -31t6.5 -38.5q0 -40 -2.5 -77.5t-5.5 -72t-3 -67.5q0 -72 23.5 -108t87.5 -36
q41 0 73.5 21.5t51 62.5t18.5 99q0 18 -1.5 39.5t-3.5 49.5h18v-67q-31 65 -47.5 99.5t-22.5 53t-6 33.5q0 26 15 40.5t37 14.5q12 0 21 -3.5t16 -10.5q15 -43 19.5 -100.5t4.5 -120.5q0 -73 -16 -124t-44 -82t-65 -45.5t-78 -14.5zM168 601q-22 0 -37.5 15t-15.5 37
q0 23 15.5 37.5t37.5 14.5t38.5 -14.5t16.5 -37.5q0 -22 -16.5 -37t-38.5 -15zM282 557l-31 9l27 180q3 20 13 32.5t29 12.5q18 0 29.5 -10.5t11.5 -25.5q0 -7 -1 -13.5t-9 -24.5zM422 601q-22 0 -38 15t-16 37q0 23 16 37.5t38 14.5t37.5 -14.5t15.5 -37.5q0 -22 -15.5 -37
t-37.5 -15z" />
    <glyph glyph-name="alpha" unicode="&#x3b1;" horiz-adv-x="553" 
d="M236 -13q-55 0 -99.5 27.5t-71 82.5t-26.5 135t30.5 137.5t78 88t99.5 30.5q36 0 65 -13t51.5 -41.5t36.5 -76.5h20l-34 -65q-10 54 -32 87t-49.5 47.5t-56.5 14.5q-35 0 -62.5 -22t-43 -65t-15.5 -105q0 -71 16 -118.5t45 -71t67 -23.5q30 0 56 19.5t43 56t19 86.5
l7 177l7 93l78 18l15 -10q-8 -47 -14.5 -96.5t-11.5 -96t-7.5 -87t-2.5 -69.5q0 -40 10.5 -55.5t33.5 -15.5q10 0 21 2.5t21 6.5l9 -25q-12 -23 -34 -38t-48 -15q-21 0 -37.5 12.5t-27 45t-13.5 91.5l19 -1q-11 -52 -34.5 -84.5t-56 -48t-71.5 -15.5z" />
    <glyph glyph-name="beta" unicode="&#x3b2;" horiz-adv-x="563" 
d="M79 -180l6 192v484q0 56 16 101t44.5 77t67.5 49t85 17q50 0 90 -20t63.5 -57.5t23.5 -90.5q0 -38 -18 -79.5t-62 -73.5t-123 -44v20q58 0 103.5 -12.5t77 -37.5t48 -62.5t16.5 -85.5q0 -70 -32.5 -116.5t-81 -70t-98.5 -23.5q-57 0 -104 27t-77 86h-2l13 11
q35 -24 72 -40.5t83 -16.5q48 0 80 18.5t48 51.5t16 76q0 31 -10 59t-32.5 50t-61 34t-96.5 10l-12 55q57 9 94.5 30t56.5 53.5t19 76.5q0 57 -27.5 92t-77.5 35q-36 0 -63 -20.5t-42 -59.5t-15 -95v-439l-8 -15l16 -238l-81 -18z" />
    <glyph glyph-name="gamma" unicode="&#x3b3;" horiz-adv-x="491" 
d="M196 -180l25 251l-1 -86q-19 85 -45.5 164t-52.5 156q-14 41 -25 65t-23 34.5t-30 10.5q-7 0 -15 -1t-17 -3l-12 30q17 18 36 30t46 12q20 0 38 -8.5t36 -37.5t37 -89q11 -32 23 -74.5t26 -98t29 -127.5l8 -5l5 -215l-79 -18zM273 0l-22 40q24 44 42.5 81.5t34.5 73
t30.5 72.5t29.5 80l-9 -80q-6 50 -9.5 79.5t-5 46t-1.5 27.5q0 34 14 51t38 17q15 0 22.5 -3.5t13.5 -8.5q2 -8 3.5 -17.5t1.5 -26.5q0 -41 -16.5 -93.5t-43.5 -111t-59 -117t-64 -110.5z" />
    </font>
</defs>
</svg>
