<?xml version="1.0" standalone="no"?>
<!DOCTYPE svg PUBLIC "-//W3C//DTD SVG 1.1//EN" "http://www.w3.org/Graphics/SVG/1.1/DTD/svg11.dtd" >
<svg xmlns="http://www.w3.org/2000/svg" xmlns:xlink="http://www.w3.org/1999/xlink" version="1.1">
<metadata>
Created by FontForge 20201107 at Fri Mar 25 04:52:00 2022
 By www-data
Copyright 1993-2022 The Whisper Project Authors (https://github.com/googlefonts/whisper)
</metadata>
<defs>
<font id="Whisper-Regular" horiz-adv-x="0" >
  <font-face 
    font-family="Whisper"
    font-weight="400"
    font-stretch="normal"
    units-per-em="1000"
    panose-1="0 0 0 0 0 0 0 0 0 0"
    ascent="800"
    descent="-200"
    x-height="272"
    cap-height="591"
    bbox="-348 -407 1557 923"
    underline-thickness="50"
    underline-position="-125"
    unicode-range="U+000D-FB02"
  />
<missing-glyph horiz-adv-x="370" 
d="M50 534h270v-534h-270v534zM183 307l76 173h-153zM272 441l-74 -170l74 -167v337zM94 106l73 165l-73 168v-333zM263 53l-80 183l-80 -183h160z" />
    <glyph glyph-name="fi" unicode="fi" horiz-adv-x="415" 
d="M-17 -112q-8 0 -8 11q0 4 -4 16t-4 23q0 15 6 28q19 47 60 117t105 164q-10 0 -23 13q-14 14 -14 21q0 4 6 4l34 3q8 1 14.5 1t13.5 1q37 52 73 91t71 67q81 63 160 63q30 0 60 -14q5 -2 5 -6q0 -11 -34 -30q-28 25 -61 25q-40 0 -101 -46q-62 -46 -135 -149l171 -4
q2 0 2 -4q0 -5 -2 -13.5t-2 -10.5q-6 -18 -25 -45t-44 -59l-76 -98q11 5 34 14t58 21q17 7 31.5 11.5t25.5 8.5q23 8 31 9q2 -8 2 -11q0 -8 -6 -10l-55 -19q-12 -4 -22 -7.5t-18 -6.5q-71 -27 -103 -49q-44 -23 -53 -23q-2 0 -2 2t1 3l75 107q21 31 46 74t45 86
q-31 0 -48.5 -0.5t-29 -1t-26.5 -2.5q-31 -2 -47 -28q-50 -75 -87.5 -138.5t-63.5 -116.5q-17 -37 -17 -70q0 -8 -6.5 -15t-12.5 -7zM386 333q5 7 11 14t11 14t11 15t13 16q4 10 20 10q14 0 28 -6.5t14 -13.5q0 -3 -3 -5q-10 -7 -17.5 -12.5t-12.5 -9.5q-12 -9 -16 -10
q-7 -3 -59 -12z" />
    <glyph glyph-name="fl" unicode="fl" horiz-adv-x="386" 
d="M-17 -112q-8 0 -8 11q0 4 -4 16t-4 23q0 15 6 28q19 47 60 117t105 164q-10 0 -23 13q-14 14 -14 21q0 4 6 4l34 3q8 1 14.5 1t13.5 1q37 52 73 91t71 67q81 63 160 63q26 0 51 -10q8 10 17 21q4 7 45 22q38 16 52 16t14 -10q0 -9 -16 -9q-17 0 -63 -46
q-56 -54 -176 -212q-138 -181 -138 -226q0 -6 1 -7q4 -25 20 -25q6 0 8 1q43 19 73 34t49 26q0 -20 -5 -23q-8 -4 -15.5 -8t-15.5 -9q-7 -4 -15 -8.5t-16 -9.5q-41 -23 -74 -30q-13 -3 -33 11q-23 17 -26 44q19 54 90.5 157.5t195.5 256.5q-24 19 -53 19q-40 0 -101 -46
q-62 -46 -135 -149q34 0 69 -1t55 -5q14 -2 14 -9q0 -9 -19 -9q-30 0 -52.5 -1t-56.5 -3q-31 -2 -47 -28q-50 -75 -87.5 -138.5t-63.5 -116.5q-17 -37 -17 -70q0 -8 -6.5 -15t-12.5 -7z" />
    <glyph glyph-name="f_f" unicode="ff" horiz-adv-x="432" 
d="M-17 -112q-8 0 -8 11q0 4 -4 16t-4 23q0 15 6 28q19 47 60 117t105 164q-10 0 -23 13q-14 14 -14 21q0 4 6 4l34 3q8 1 14.5 1t13.5 1q37 52 73 91t71 67q81 63 160 63q30 0 60 -14q5 -2 5 -6q0 -11 -34 -30q-28 25 -61 25q-40 0 -101 -46q-62 -46 -135 -149h38
q26 0 52 -0.5t48 -1.5h9t8 1q37 52 73 91t71 67q81 63 160 63q30 0 60 -14q5 -2 5 -6q0 -11 -34 -30q-28 25 -61 25q-40 0 -101 -46q-62 -46 -135 -149h31q75 0 112 -6q14 -2 14 -9q0 -9 -19 -9q-30 0 -62 -1t-66 -3q-31 -2 -47 -28q-50 -75 -87.5 -138.5t-63.5 -116.5
q-17 -37 -17 -70q0 -8 -6.5 -15t-12.5 -7q-8 0 -8 11q0 4 -4 16t-4 23q0 15 6 28q19 47 60 117t105 164q-10 0 -23 13l-6 7q-20 -1 -41.5 -1.5t-43.5 -2.5q-31 -2 -47 -28q-50 -75 -87.5 -138.5t-63.5 -116.5q-17 -37 -17 -70q0 -8 -6.5 -15t-12.5 -7z" />
    <glyph glyph-name="f_f_i" unicode="ffi" horiz-adv-x="616" 
d="M-17 -112q-8 0 -8 11q0 4 -4 16t-4 23q0 15 6 28q19 47 60 117t105 164q-10 0 -23 13q-14 14 -14 21q0 4 6 4l34 3q8 1 14.5 1t13.5 1q37 52 73 91t71 67q81 63 160 63q30 0 60 -14q5 -2 5 -6q0 -11 -34 -30q-28 25 -61 25q-40 0 -101 -46q-62 -46 -135 -149h38
q26 0 52 -0.5t48 -1.5h9t8 1q37 52 73 91t71 67q81 63 160 63q30 0 60 -14q5 -2 5 -6q0 -11 -34 -30q-28 25 -61 25q-40 0 -101 -46q-62 -46 -135 -149h31q75 0 112 -6q14 -2 14 -9q0 -9 -19 -9q-30 0 -62 -1t-66 -3q-31 -2 -47 -28q-50 -75 -87.5 -138.5t-63.5 -116.5
q-17 -37 -17 -70q0 -8 -6.5 -15t-12.5 -7q-8 0 -8 11q0 4 -4 16t-4 23q0 15 6 28q19 47 60 117t105 164q-5 0 -11 3t-12 10l-6 7q-20 -1 -41.5 -1.5t-43.5 -2.5q-31 -2 -47 -28q-50 -75 -87.5 -138.5t-63.5 -116.5q-17 -37 -17 -70q0 -8 -6.5 -15t-12.5 -7zM600 333
q5 7 11 14t11 14t11 15t13 16q4 10 20 10q14 0 28 -6.5t14 -13.5q0 -3 -3 -5q-10 -7 -17.5 -12.5t-12.5 -9.5q-12 -9 -16 -10q-7 -3 -59 -12zM370 -5q-2 0 -2 2t1 3l75 107q21 31 38 63t23 59q0 5 12 11t18 8q27 13 42 13q8 0 6 -6q-10 -33 -62 -100l-76 -98q11 5 34 14
t58 21q17 7 31.5 11.5t25.5 8.5q23 8 31 9q2 -8 2 -11q0 -8 -6 -10l-55 -19q-12 -4 -22 -7.5t-18 -6.5q-71 -27 -103 -49q-44 -23 -53 -23z" />
    <glyph glyph-name="f_f_l" unicode="ffl" horiz-adv-x="589" 
d="M-17 -112q-8 0 -8 11q0 4 -4 16t-4 23q0 15 6 28q19 47 60 117t105 164q-10 0 -23 13q-14 14 -14 21q0 4 6 4l34 3q8 1 14.5 1t13.5 1q37 52 73 91t71 67q81 63 160 63q30 0 60 -14q5 -2 5 -6q0 -11 -34 -30q-28 25 -61 25q-40 0 -101 -46q-62 -46 -135 -149h38
q26 0 52 -0.5t48 -1.5h9t8 1q37 52 73 91t71 67q81 63 160 63q30 0 58 -13l20 24q4 7 45 22q38 16 52 16t14 -10q0 -9 -16 -9q-17 0 -63 -46q-56 -54 -176 -212q-138 -181 -138 -226q0 -10 5 -21t16 -11q6 0 23.5 7t38.5 17t40 20.5t28 16.5q0 -20 -5 -23q-8 -4 -15.5 -8
t-15.5 -9q-7 -4 -15 -8.5t-16 -9.5q-41 -23 -74 -30q-13 -3 -33 11q-23 17 -26 44q23 67 131 214h-6q-30 0 -62 -1t-66 -3q-31 -2 -47 -28q-50 -75 -87.5 -138.5t-63.5 -116.5q-17 -37 -17 -70q0 -8 -6.5 -15t-12.5 -7q-8 0 -8 11q0 4 -4 16t-4 23q0 15 6 28q19 47 60 117
t105 164q-5 0 -11 3t-12 10l-6 7q-20 -1 -41.5 -1.5t-43.5 -2.5q-31 -2 -47 -28q-50 -75 -87.5 -138.5t-63.5 -116.5q-17 -37 -17 -70q0 -8 -6.5 -15t-12.5 -7zM543 285q8 -1 11 -4q59 79 141 181q-27 24 -59 24q-40 0 -101 -46q-62 -46 -135 -149h31q75 0 112 -6z" />
    <glyph glyph-name=".notdef" horiz-adv-x="370" 
d="M50 534h270v-534h-270v534zM183 307l76 173h-153zM272 441l-74 -170l74 -167v337zM94 106l73 165l-73 168v-333zM263 53l-80 183l-80 -183h160z" />
    <glyph glyph-name=".null" 
 />
    <glyph glyph-name="nonmarkingreturn" horiz-adv-x="333" 
 />
    <glyph glyph-name="CR" unicode="&#xd;" horiz-adv-x="171" 
 />
    <glyph glyph-name="space" unicode=" " horiz-adv-x="171" 
 />
    <glyph glyph-name="exclam" unicode="!" horiz-adv-x="260" 
d="M143 143q-3 0 -3 4q-2 23 26 69q1 7 54 91q40 67 177 229q2 2 13.5 8t32.5 14q38 16 51 16q14 0 14 -10q0 -9 -16 -9q-17 0 -63 -46q-51 -50 -167 -197q-10 -12 -27.5 -38t-43.5 -68q-40 -63 -48 -63zM57 1q-27 0 -16 14q7 9 15.5 19.5t19.5 22.5q8 6 23 6q31 0 31 -12
q0 -3 -4 -6q-12 -8 -22 -17t-18 -18q-7 -9 -29 -9z" />
    <glyph glyph-name="quotedbl" unicode="&#x22;" horiz-adv-x="316" 
d="M300 331q-5 -2 -5 4q0 7 4 14q24 56 24 92q0 9 -4 20q-5 13 -5 15q0 9 10 15.5t21 6.5q15 0 21.5 -16.5t5.5 -31.5q-2 -26 -26 -59l-35 -49q-5 -9 -11 -11zM200 331q-5 -2 -5 4q0 7 4 14q24 56 24 92q0 9 -4 20q-5 13 -5 15q0 9 10 15.5t21 6.5q15 0 21.5 -16.5
t5.5 -31.5q-2 -26 -26 -59l-35 -49q-5 -9 -11 -11z" />
    <glyph glyph-name="numbersign" unicode="#" horiz-adv-x="798" 
d="M429 -73q-18 0 -14 19q15 53 42 113.5t67 127.5l-195 -21l-14.5 -29t-15.5 -32q-16 -34 -36 -72q-4 -9 -13 -9q-7 0 -12.5 5.5t-5.5 14.5q0 4 3.5 15t13.5 29q7 14 17.5 32.5t24.5 41.5l-165 -13h-2q-14 0 -14 15q0 14 13 15l186 13q9 16 22.5 38t31.5 51q-95 -1 -211 -6
h-2q-14 0 -14 16q0 12 14 14l231 4l95 139q4 7 9 7q10 0 10 -14q0 -8 -4 -12l-78 -120q16 1 36 1t43 1l109 3q29 45 49 78.5t33 55.5q6 11 13 11q5 0 5 -6q0 -4 -3 -10l-75 -129q154 7 191 31q2 18 11 18q11 0 11 -16q0 -11 -15 -22q-19 -11 -71.5 -20t-139.5 -14l-24 -40
l-23 -41q120 0 229 -15q11 -2 11 -8q0 -12 -20 -9q-42 6 -84.5 8.5t-86.5 2.5h-30t-30 -1q-80 -144 -109 -250q-3 -11 -14 -11zM346 195q16 2 36 4t44 3q24 2 52 3.5t60 3.5q8 14 15 25.5t14 21.5q11 19 20 34q-60 -3 -108 -5t-83 -3z" />
    <glyph glyph-name="dollar" unicode="$" horiz-adv-x="363" 
d="M88 -79q-4 0 -4 10q0 14 6 24q1 2 7 12.5t16 30.5l63 117h-28q-63 0 -71 6q-5 3 -5 8q0 12 33 12q59 0 131 21q4 1 4 6q0 11 -31 45t-31 50q0 59 58 102q58 41 128 53q5 11 12.5 20.5t15.5 18.5q14 16 26 30.5t17 14.5q4 0 4 -5t-5 -13q-18 -24 -35 -62q29 2 39 -15
q6 -9 6 -18q0 -21 -22 -21q-17 0 -32 17q-6 7 -24 7q-42 0 -89 -30q-54 -36 -54 -85q0 -22 39 -63q40 -40 40 -56q0 -27 -81 -39q-20 -34 -52 -82t-75 -111q-5 -5 -6 -5z" />
    <glyph glyph-name="percent" unicode="%" horiz-adv-x="576" 
d="M187 376q-27 0 -27 31q0 44 44 95q8 11 20 26t28 33q-2 0 -14 6q-10 3 -10 11q0 9 12 9q29 0 42 7q8 6 18 12t20 6q9 0 21 -7q4 -2 7.5 -4t7.5 -4q3 -1 5.5 -2.5t4.5 -2.5l179 5q14 0 14 -11q0 -9 -12 -11l-122 -7q1 -2 1 -9q0 -43 -90 -112q-64 -49 -122 -66
q-9 -2 -15.5 -3.5t-11.5 -1.5zM169 -26q-6 0 -6 9q0 133 164 339q56 70 122 139t144 138q4 4 12 4q10 0 19.5 -6t9.5 -13q0 -4 -3 -7q-91 -81 -158 -145t-112 -115q-174 -196 -174 -317q0 -10 -6.5 -18t-11.5 -8zM203 396q6 0 8 1q44 14 101 58q20 15 39 42q21 32 21 50
q0 9 -5 14q-13 1 -31 -1t-42 -7q-8 -6 -23 -21t-35 -39q-5 -5 -11 -14.5t-14 -23.5q-18 -33 -18 -48q0 -11 10 -11zM330 0q-26 0 -26 28q0 23 11.5 46.5t30.5 46.5l50 61q39 43 61 43q17 0 51 -15l22 -9q5 -2 10.5 -5t10.5 -5q1 -3 1.5 -5.5t0.5 -4.5q0 -24 -28 -61
q-25 -31 -52 -52q-31 -23 -60.5 -39.5t-56.5 -24.5q-12 -4 -26 -4zM352 25q45 13 101 55q21 18 39 40q23 29 23 45q0 8 -5 13q-4 0 -22 5.5t-26 5.5t-16 -3q-2 -2 -8 -7.5t-14 -14.5q-8 -10 -20 -23t-26 -30q-39 -48 -43 -75v-3q0 -14 17 -8z" />
    <glyph glyph-name="ampersand" unicode="&#x26;" horiz-adv-x="832" 
d="M674 -73q-88 0 -157 34.5t-108 98.5l-3 5q-58 -21 -117.5 -33.5t-114.5 -12.5q-74 0 -100 25.5t-21 62.5q12 90 324 284q11 40 26 80t34 80q6 16 39 16q23 0 15 -11q-16 -28 -28 -60t-22 -66l51 31l34 21q78 51 78 70q0 12 -29 14q-3 0 -7 1h-7.5t-11.5 1h-5
q-4 0 -9.5 -0.5t-11.5 -1.5q-1 0 -2 -0.5t-3 -0.5q-7 0 -7 7q0 16 17 19q3 1 8 1t12 1h17.5t22.5 -1q61 -1 61 -26q0 -41 -179 -149l-37 -22q-14 -64 -14 -125q0 -43 7 -83t22 -75q13 5 25 9.5t25 9.5q170 69 182 158q0 3 0.5 6t0.5 6q0 5 -1 10t-1 12q0 8 6.5 18.5
t10.5 10.5q3 0 3 -4q4 -15 4 -32v-8t-1 -8q-16 -112 -196 -194q-11 -5 -22.5 -10t-22.5 -10q38 -68 94 -100.5t132 -32.5q109 0 109 104q0 45 -29 88q-6 7 -3 14q4 7 11 0q44 -41 44 -88q0 -62 -53 -106q-46 -38 -92 -38zM203 70q94 0 188 25q-17 38 -25 77.5t-8 79.5
q0 26 3 52t8 52l-112 -67q-172 -112 -172 -171q0 -48 118 -48z" />
    <glyph glyph-name="quotesingle" unicode="'" horiz-adv-x="216" 
d="M200 331q-5 -2 -5 4q0 7 4 14q24 56 24 92q0 9 -4 20q-5 13 -5 15q0 9 10 15.5t21 6.5q15 0 21.5 -16.5t5.5 -31.5q-2 -26 -26 -59l-35 -49q-5 -9 -11 -11z" />
    <glyph glyph-name="parenleft" unicode="(" horiz-adv-x="382" 
d="M192 -193q-4 0 -6 6q-13 53 -19.5 105t-6.5 103q0 239 126 405q128 171 330 185h1q12 0 12 -20q0 -28 -17 -30q-195 -18 -314 -192q-108 -157 -108 -369q0 -41 4.5 -80.5t14.5 -77.5q3 -10 -4 -22.5t-13 -12.5z" />
    <glyph glyph-name="parenright" unicode=")" horiz-adv-x="450" 
d="M-98 -187q-12 0 -12 20q0 28 17 30q195 18 314 192q108 158 108 369q0 41 -4.5 81t-14.5 77q-3 10 4 22.5t14 12.5q4 0 5 -6q13 -53 19.5 -105t6.5 -103q0 -238 -126 -405q-128 -171 -330 -185h-1z" />
    <glyph glyph-name="asterisk" unicode="*" horiz-adv-x="322" 
d="M264 364q-8 0 -7 18q1 5 4 14t7 22q4 12 10 28t14 36l-56 -22q-31 -12 -46 -12q-10 0 -10 5q0 8 13 17q10 7 35 16q12 5 27.5 10t34.5 12q-17 12 -37.5 27.5t-43.5 34.5q-8 11 -8 17t6 6q15 0 46 -25l56 -43l3 8q1 2 2 4.5t2 5.5q11 29 30 75q10 17 11 4v-6q0 -12 -4 -24
l-25 -72l35 12q14 5 31.5 10.5t39.5 11.5q10 1 10 -3q0 -9 -27 -20l-77 -30l67 -52q11 -7 19 -18q6 -10 0 -10l-8 2l-100 66l-24 -70q-16 -55 -30 -55z" />
    <glyph glyph-name="plus" unicode="+" horiz-adv-x="429" 
d="M217 90q-1 0 -1.5 1l-0.5 1q0 7 9 30.5t20 50.5t19 45q-35 -2 -62 -3.5t-46 -1.5q-4 0 -14.5 10t-10.5 15q0 1 0.5 1.5l0.5 0.5q5 2 23 3.5t40.5 2.5t44 1.5t34.5 0.5h4q11 25 25 52.5t26 48t18 25.5q4 5 8 4q2 0 2 -5q0 -2 -2 -10q-6 -12 -14.5 -33t-17 -43.5
t-15.5 -38.5q27 -1 55.5 -2.5t50.5 -4t29 -6.5q7 0 7 -5q0 -4 -14 -6q-15 0 -41.5 -1t-53.5 -2t-42 -2h-3q-14 -38 -25.5 -67.5t-19.5 -48.5q-2 -4 -15 -9.5t-18 -3.5z" />
    <glyph glyph-name="comma" unicode="," horiz-adv-x="200" 
d="M28 -77q-4 0 -4 3q0 8 19 18q43 25 43 83q0 9 -4 20q-5 13 -5 16q0 8 10 14.5t21 6.5q15 0 22 -18q6 -13 4 -30q-4 -39 -92 -107q-7 -6 -14 -6z" />
    <glyph glyph-name="hyphen" unicode="-" horiz-adv-x="375" 
d="M142 213q-9 0 -9 6q0 14 23 29q44 3 82 3q33 0 63 -2t56 -6l28 -4q9 -1 9 -7q0 -7 -11 -7h-11h-9t-12 1q-55 1 -106.5 -2t-102.5 -11z" />
    <glyph glyph-name="period" unicode="." horiz-adv-x="200" 
d="M82 6q-35 0 -23 15q4 4 8 9l8 10t9 10.5t10 11.5q16 13 34 13q12 0 12 -10q0 -8 -7 -21q-11 -19 -19 -28.5t-32 -9.5z" />
    <glyph glyph-name="slash" unicode="/" horiz-adv-x="507" 
d="M34 -138q-7 0 -7 6q5 38 45 99q35 54 101.5 133t163.5 185l291 317q50 57 84 57q10 0 6 -7q-7 -8 -30 -32.5t-61 -64.5t-92 -96.5t-124 -129.5q-95 -99 -165.5 -183.5t-117.5 -155.5q-39 -61 -42 -92q-1 -10 -20 -23t-32 -13z" />
    <glyph glyph-name="zero" unicode="0" horiz-adv-x="502" 
d="M162 -25q-112 0 -112 102q0 21 8 55t23.5 64t37.5 58q-1 5 -1.5 9t-0.5 8q0 91 111 146q47 24 98.5 36.5t109.5 12.5q142 0 142 -113q0 -112 -125 -240q-60 -61 -142 -100q-85 -38 -149 -38zM170 -4q60 0 138 39q79 38 128 93q113 125 113 221q0 91 -116 86h-14
q9 -10 9 -20q0 -7 -6 -9q-55 -15 -125 -53q-95 -54 -146 -125q18 -19 18 -33q0 -7 -6 -7q-10 0 -24 20q-36 -56 -45 -89q-7 -22 -7 -47q0 -76 83 -76zM142 280q95 98 231 152q-45 -5 -82.5 -17t-68.5 -29q-74 -41 -80 -106z" />
    <glyph glyph-name="one" unicode="1" horiz-adv-x="270" 
d="M-13 -36q-26 0 -26 19q0 5 1 7q16 19 50 33q8 2 15.5 5t14.5 5l29 9q8 16 22 41.5t33 59.5t43 77.5t54 96.5q4 5 10 16q2 5 5.5 10t7.5 12q-18 -16 -78 -50q-4 -3 -7 -3q-4 0 -4 4q0 14 19 24q5 2 13 8t18 15q11 8 24.5 20t30.5 26q50 42 75 39q0 -7 -25 -41
q-34 -52 -60 -96q-23 -40 -56.5 -100.5t-78.5 -143.5q63 20 102 20h23q17 0 17 -12q0 -13 -17 -13h-23q-23 0 -63 -14q-8 -4 -16.5 -7t-16.5 -6q-17 -6 -32 -13q-49 -48 -104 -48z" />
    <glyph glyph-name="two" unicode="2" horiz-adv-x="392" 
d="M13 -14q-12 0 -12 10q0 34 123 127q44 33 92.5 66.5t103.5 67.5q103 63 103 117q0 26 -18 41t-48 15q-63 0 -127 -52q-1 -9 -39 -50q-6 -6 -11 -6q-11 0 -11 18q0 35 73 72q60 32 103 36q8 1 15 1.5t14 0.5q96 0 90 -81q-4 -55 -152 -147q-87 -52 -116 -75
q-59 -44 -106 -100q29 11 88 21q32 5 61 7.5t55 2.5q51 0 72 -10q19 -7 19 -33q0 -25 -33 -45q-7 -4 -14 -4q-10 0 -10 7q0 4 9 11q9 8 9 18q0 21 -20.5 28t-46.5 7q-39 0 -107 -18q-13 -4 -35.5 -11.5t-54.5 -20.5q-52 -21 -69 -21z" />
    <glyph glyph-name="three" unicode="3" horiz-adv-x="382" 
d="M-69 -97q-7 0 -7 7q0 11 19 15q60 14 119 38.5t120 58.5q161 90 161 176q0 29 -19.5 53t-49.5 27l-37 4q-41 -19 -72 -19q-17 0 -23.5 5t-6.5 15q0 18 30 25t64 5q88 37 88 68q0 29 -52 29q-37 0 -69 -12q-26 -11 -33 -19q-7 -10 -12 -10q-9 0 -9 11q0 7 6 14
q11 14 44 26q39 15 87 15q85 0 85 -50q0 -37 -76 -77q39 -8 63.5 -39t24.5 -70q0 -98 -175 -192q-125 -68 -262 -102q-6 -2 -8 -2z" />
    <glyph glyph-name="four" unicode="4" horiz-adv-x="458" 
d="M187 -49q-23 0 -23 24q0 4 0.5 7.5t1.5 8.5q7 28 27.5 69.5t54.5 98.5q-6 0 -118 -31q-97 -27 -111 -22q-6 2 -7 10q0 9 6 13q224 155 360 288q2 2 3 2q12 0 12 -12q0 -2 -1 -3q-29 -29 -66.5 -62.5t-83.5 -71.5l-141 -118l163 31q32 50 84 111q68 78 87 105q4 5 13.5 13
t24.5 18q32 20 43 20q20 0 -21 -26q-55 -37 -121 -129q-3 -4 -9 -12.5t-15 -22.5l-49 -75q125 12 137 12q25 0 47 -3q28 -4 28 -14q0 -9 -18 -6q-33 6 -71 6q-28 0 -61.5 -3t-71.5 -10l-43 -74q-32 -59 -32 -88q0 -21 9 -21q10 0 43 24q7 4 13 4q10 0 10 -5q0 -2 -2 -4
q-64 -52 -102 -52z" />
    <glyph glyph-name="five" unicode="5" horiz-adv-x="382" 
d="M-39 -43q-7 0 -7 7q0 11 19 15q62 16 122.5 40.5t118.5 56.5q144 82 158 163q1 6 1.5 11.5t0.5 10.5q0 69 -86 69q-56 0 -106 -22q-43 -18 -63 -18q-17 0 -17 11q0 14 18 23l3 1q14 18 25.5 35t21.5 33q35 57 45 57q5 -1 12.5 -1t16.5 -1l44 -3q23 -2 41.5 -3.5
t31.5 -1.5q44 0 82 11q7 1 8 -4q1 -7 -4 -8q-64 -18 -176 -18q-10 0 -21.5 0.5t-22.5 0.5q-22 -13 -49 -74q56 17 101 17q128 0 128 -103q0 -14 -3 -29q-15 -86 -173 -172q-125 -68 -262 -102q-6 -2 -8 -2z" />
    <glyph glyph-name="six" unicode="6" horiz-adv-x="450" 
d="M227 -8q-67 0 -94 40l-6 12q-48 33 -48 95q0 52 38.5 109t115.5 109q70 47 135.5 68t126.5 28q2 0 4.5 0.5t3.5 0.5q18 0 18 -12q0 -10 -21 -12q-133 -15 -258 -96q-132 -85 -132 -175q0 -15 4.5 -28.5t11.5 -26.5l3 -5q26 56 104 104t146 48q36 0 58 -13q30 -16 30 -45
q0 -55 -88 -113t-173 -58q-25 0 -46 6q22 -19 71 -19q16 0 32.5 1.5t33.5 5.5h4q8 0 8 -4q0 -12 -10 -13q-19 -4 -37 -5.5t-35 -1.5zM223 48q54 0 116 35q58 33 82 72q10 16 10 29q0 21 -22.5 31t-53.5 10q-34 0 -64 -9t-64 -35q-31 -24 -53 -52t-27 -53q28 -28 76 -28z" />
    <glyph glyph-name="seven" unicode="7" horiz-adv-x="419" 
d="M114 -45q-16 0 -15 7q12 51 63 132q26 40 50.5 73t49.5 59q53 56 101.5 100t93.5 78q-71 -10 -132 -14.5t-113 -4.5q-45 0 -45 -33q0 -2 0.5 -4.5t1.5 -5.5q2 -5 0 -14q-3 -10 -8 -10q-6 0 -14 17q-1 3 -1.5 6t-0.5 6q0 23 13 39q17 21 49 21q14 0 53 3q19 2 44.5 4
t56.5 4q134 11 145 17q5 3 10 3q20 0 20 -18q0 -14 -21 -20q-16 -5 -98 -69q-45 -35 -79.5 -66.5t-60.5 -57.5q-25 -26 -48.5 -57t-45.5 -68q-43 -72 -57 -122q-2 -5 -12 -5z" />
    <glyph glyph-name="eight" unicode="8" horiz-adv-x="442" 
d="M96 -14q-51 0 -51 33q0 21 23 56q50 74 183 174q-17 7 -40 35q-20 29 -17 45q11 63 84 99q62 32 139 32q31 0 55 -6q2 0 2 -2q0 -5 -8 -12t-13 -7q-25 3 -51 3q-149 0 -166 -99q-1 -4 -1 -10q0 -34 47 -55q246 189 389 245q2 1 5 1q6 0 6 -9q0 -2 -3 -4
q-97 -50 -193 -111.5t-190 -132.5q72 -43 72 -87q0 -17 -9 -38q-27 -65 -118 -111q-79 -39 -145 -39zM119 13q63 0 115 28q64 34 90 95q5 17 5 25q0 36 -63 78q-55 -43 -95.5 -84t-66.5 -79q-22 -31 -22 -46q0 -17 37 -17z" />
    <glyph glyph-name="nine" unicode="9" horiz-adv-x="428" 
d="M210 -28q-9 0 -13 4q-15 23 -15 51q0 98 162 257q-91 -48 -149 -48q-56 0 -56 49q0 28 24 62q21 30 47 47q113 74 246 74q15 0 29 -1.5t28 -3.5q5 -2 5 -6q0 -9 -7 -7q-14 2 -27.5 3.5t-27.5 1.5q-116 0 -222 -70q-10 -6 -20.5 -16.5t-22.5 -24.5q-26 -35 -26 -57
q0 -35 40 -35q79 0 267 158q11 8 28 8q14 0 19 -5q2 -2 2 -4q0 -5 -7 -9q-82 -63 -168 -153q-135 -144 -135 -226q0 -24 12 -42q1 -1 1 -1.5v-0.5q0 -4 -10 -5h-4z" />
    <glyph glyph-name="colon" unicode=":" horiz-adv-x="200" 
d="M152 212q-36 0 -24 15q7 9 15.5 19.5t19.5 21.5q17 14 34 14q12 0 12 -11q0 -8 -7 -21q-10 -19 -18.5 -28.5t-31.5 -9.5zM82 33q-35 0 -23 15l35 41q16 13 34 13q13 0 13 -11q0 -8 -7 -19.5t-20 -29.5q-7 -9 -32 -9z" />
    <glyph glyph-name="semicolon" unicode=";" horiz-adv-x="200" 
d="M152 212q-36 0 -24 15q7 9 15.5 19.5t19.5 21.5q17 14 34 14q12 0 12 -11q0 -8 -7 -21q-10 -19 -18.5 -28.5t-31.5 -9.5zM28 -77q-4 0 -4 3q0 8 19 18q42 26 42 83q0 16 -7 30l-2 6q0 8 10 14.5t21 6.5q15 0 22 -18q6 -14 5 -30q-3 -38 -92 -107q-7 -6 -14 -6z" />
    <glyph glyph-name="less" unicode="&#x3c;" horiz-adv-x="318" 
d="M267 36l-8 4q-19 26 -49.5 53.5t-71.5 56.5q-3 3 -3 6q0 15 52 85l66 90q8 11 19 11q7 0 7 -6q0 -16 -99 -153q97 -121 97 -134t-10 -13z" />
    <glyph glyph-name="equal" unicode="=" horiz-adv-x="392" 
d="M152 209q-4 0 -12 9.5t-8 13.5q0 1 0.5 1.5l0.5 0.5q18 6 109 6q113 0 132 -11q3 -1 3 -3q0 -6 -6 -6q-35 0 -109 -6l-64 -3q-13 -1 -24.5 -1.5t-21.5 -0.5zM152 106q-4 0 -12 9.5t-8 13.5q0 1 0.5 1.5l0.5 0.5q14 7 109 7q113 0 132 -12q3 0 3 -3q0 -5 -6 -5
q-35 0 -109 -6q-73 -6 -110 -6z" />
    <glyph glyph-name="greater" unicode="&#x3e;" horiz-adv-x="318" 
d="M151 29q-6 0 -6 6q0 17 99 153q-98 116 -98 134q0 13 11 13l8 -4q17 -22 47 -50t74 -60q3 -1 3 -6q0 -15 -52 -85l-33 -45q-8 -11 -17 -22.5t-17 -22.5t-19 -11z" />
    <glyph glyph-name="question" unicode="?" horiz-adv-x="470" 
d="M220 175q-5 0 -5 8q0 6 3 15q14 47 92 79l136 54q78 41 78 109q0 47 -31.5 78.5t-84.5 32.5q-69 2 -108 -19t-60 -77q-4 -9 -4 -28q0 -50 21 -59q6 -3 6 -8q0 -7 -13 -3q-17 7 -30 27t-13 45q0 15 4 26q20 63 83 94q48 23 100 23q51 0 89 -18.5t58 -51t16 -75.5
q-6 -64 -76 -101l-137 -53q-83 -32 -105 -80q-9 -18 -19 -18zM146 3q-27 0 -16 14q7 9 15.5 19.5t19.5 22.5q8 6 22 6q32 0 32 -12q0 -3 -4 -6q-12 -8 -22 -17t-18 -18q-7 -9 -29 -9z" />
    <glyph glyph-name="at" unicode="@" horiz-adv-x="722" 
d="M315 -100q-94 0 -156 56q-61 55 -61 149q0 107 64 198q79 111 216 133q14 2 26.5 3t25.5 1q85 0 150 -44q58 -41 83 -103q18 -45 18 -100q0 -93 -43 -160q-46 -75 -119 -75q-19 0 -32 4q-68 -62 -172 -62zM318 -67q93 0 149 44q-23 32 -23 94q0 80 24 129
q-5 -4 -12.5 -10.5t-18.5 -15.5q-10 -9 -23.5 -20t-30.5 -24q-49 -40 -87 -65.5t-64 -37.5q-19 -8 -28 -8q-23 0 -23 27q0 19 14 49q34 66 118 136q101 84 162 84q39 0 54 -15q23 17 48 17q5 0 5 -3q0 -2 -2 -4q-27 -30 -59 -106q-40 -90 -40 -159q0 -25 8 -51q56 59 90 157
q11 32 17.5 60.5t8.5 54.5q2 15 23 10l-4 8q-65 128 -200 128q-12 0 -24 -1t-23 -3q-127 -19 -198 -120q-59 -83 -59 -180q0 -84 57 -131q53 -44 141 -44zM249 65q17 8 47 30q16 11 35.5 26.5t43.5 34.5q46 38 75.5 64t43.5 42q-6 17 -24 17q-33 0 -110 -59
q-87 -66 -113 -114q-9 -16 -9 -30q0 -16 11 -11zM527 -17q58 0 89 76q23 61 23 139q0 27 -3 46q-10 -34 -19 -62t-19 -51q-38 -88 -90 -146q5 -1 9.5 -1.5t9.5 -0.5z" />
    <glyph glyph-name="A" unicode="A" horiz-adv-x="905" 
d="M91 -132q-115 0 -115 96q0 84 101 209q107 131 242 164q11 2 21 3.5t19 1.5q56 0 56 -38q0 -24 -10 -24l-4 6q-1 2 -2 3.5t-3 3.5l-7 10q-17 23 -44 23q-102 0 -248 -165q-78 -88 -78 -186q0 -101 97 -91q82 9 194 79t258 197l79 69q-86 -6 -259 -27q-16 0 -16 18
q0 30 25 30q55 16 90 16h1q0 -2 -11 -8q-14 -8 -10 -8q43 0 91.5 0.5t103.5 1.5q2 1 12 1l160 140q45 40 76.5 69.5t50.5 49.5q8 8 12 8q3 0 3 -4q0 -6 -6 -12q-19 -19 -43.5 -44.5t-55.5 -56.5t-67 -68t-78 -80h18h10.5t12.5 1h41q29 56 67 106l92 121q23 30 48.5 55
t51.5 47q10 10 20 10q5 0 5 -3q0 -4 -7 -10q-38 -32 -85 -90.5t-103 -145.5q-16 -25 -28.5 -47t-21.5 -42q7 1 13.5 1h11.5h20q22 0 22 -7q0 -6 -18 -8q-2 0 -4.5 0.5t-4.5 0.5q-20 0 -52 -15q-50 -114 -50 -183q0 -22 4 -30q3 -4 9 -4q9 0 35 17q32 23 36 24q14 8 31 17
t38 18q6 2 6 -3v-2q0 -3 -8 -6q-28 -10 -75 -42q-53 -38 -78 -70q-4 -6 -15 -6q-13 0 -26 10t-14 22q0 5 -0.5 9t-0.5 8q0 85 71 229q-28 -1 -57 -6.5t-60 -13.5l-91 -82q-57 -51 -114.5 -94t-116.5 -78q-158 -95 -268 -95z" />
    <glyph glyph-name="B" unicode="B" horiz-adv-x="690" 
d="M119 -78q-23 -1 -43.5 4t-39.5 15q-37 21 -37 54q0 72 171 145q8 11 33 42q12 16 28.5 36.5t36.5 45.5q34 43 64.5 79t58.5 66q-16 -7 -30.5 -12.5t-28.5 -9.5q2 2 7.5 6.5t13.5 9.5t18 12.5t23 15.5l54 36q12 12 41 12q17 0 22 -8q0 -1 0.5 -1.5t0.5 -1.5q0 -9 -17 -23
q-26 -22 -71 -66.5t-109 -111.5q-8 -8 -18 -19t-21 -25l-51 -62q31 11 63.5 20t66.5 17q2 1 10 1q11 0 11 -4q0 -7 -28 -13q-56 -12 -106 -39q-47 -24 -60 -46q-32 -44 -32 -65q0 -12 8 -12q24 0 44 17q8 5 17 5q8 2 8 -2q0 -1 -2 -3q-70 -46 -105 -46q-19 0 -19 16
q0 4 1.5 8.5t3.5 11.5q5 12 15 31.5t24 45.5q-124 -58 -124 -108q0 -23 27 -36t65 -12q38 2 84 9.5t100 21.5q87 22 130 42q203 92 203 195q0 29 -16.5 52t-43.5 32q-62 -36 -103 -51q-20 -7 -37.5 -10.5t-33.5 -3.5q-36 0 -36 19q0 28 55 50q54 21 126 21q16 0 31 -3
q120 75 120 148q0 52 -56.5 79t-158.5 27q-80 0 -178 -36q-127 -46 -155 -121q-4 -8 -4 -21q0 -23 13 -42q14 -19 31 -23q18 -4 18 -14q0 -8 -15 -5q-31 6 -55 33.5t-24 56.5q0 15 4 23q32 87 146 132q98 39 227 39q120 0 179 -37q58 -36 52 -96q-7 -74 -120 -148
q80 -27 80 -96q0 -125 -214 -222q-76 -35 -162 -54t-181 -23zM420 271q8 0 20.5 2t29.5 6q36 9 72 27q-4 0 -7 1h-7q-42 0 -80 -9q-41 -9 -41 -21q0 -3 2 -5q3 -1 11 -1z" />
    <glyph glyph-name="C" unicode="C" horiz-adv-x="780" 
d="M208 -93q-93 0 -153 48t-60 123q0 83 73 168q103 121 258 205q165 89 328 99q9 1 17.5 1h15.5q49 0 73 -12q42 42 54 42q7 0 7 -7q0 -9 -10 -16l-34 -30q23 -20 23 -62q0 -66 -66 -125q-57 -51 -100 -51q-24 0 -24 22q0 6 1 10q15 83 126 195q-27 18 -81 15
q-142 -9 -319 -113q-146 -87 -209 -167q-98 -125 -98 -204q0 -110 170 -110q85 0 170 21q10 2 24 6.5t32 9.5l40.5 13.5t49.5 15.5q34 11 73 29t84 41l72 38t72 39q7 4 12 4q8 0 8 -6q0 -10 -15 -18q-44 -25 -77.5 -44t-58.5 -32q-49 -26 -91.5 -46t-78.5 -34
q-93 -36 -141 -48q-82 -20 -167 -20zM670 324q25 0 59 43q38 47 38 89q0 29 -15 48q-71 -71 -94 -158q0 -1 -0.5 -3t0.5 -4q0 -15 12 -15z" />
    <glyph glyph-name="D" unicode="D" horiz-adv-x="737" 
d="M119 -78q-23 -1 -43.5 4t-39.5 15q-37 21 -37 54q0 72 171 145q8 11 33 42q12 16 28.5 36.5t36.5 45.5q34 43 64.5 79t58.5 66q-16 -7 -30.5 -12.5t-28.5 -9.5q2 2 7.5 6.5t13.5 9.5t18 12.5t23 15.5l54 36q12 12 41 12q17 0 22 -8q0 -1 0.5 -1.5t0.5 -1.5q0 -9 -17 -23
q-26 -22 -71 -66.5t-109 -111.5q-8 -8 -18 -19t-21 -25l-51 -62q31 11 63.5 20t66.5 17q2 1 10 1q11 0 11 -4q0 -7 -28 -13q-56 -12 -106 -39q-47 -24 -60 -46q-32 -44 -32 -65q0 -12 8 -12q24 0 44 17q8 5 17 5q8 2 8 -2q0 -1 -2 -3q-70 -46 -105 -46q-19 0 -19 16
q0 4 1.5 8.5t3.5 11.5q5 12 15 31.5t24 45.5q-124 -58 -124 -108q0 -23 27 -36t65 -12q38 2 84 9.5t100 21.5q43 11 75.5 21.5t54.5 20.5q147 68 260 185q118 121 118 219q0 158 -328 151q-83 -1 -178 -36q-127 -46 -155 -121q-4 -8 -4 -21q0 -23 13 -42q14 -19 31 -23
q18 -4 18 -14q0 -8 -15 -5q-31 6 -55 33.5t-24 56.5q0 15 4 23q32 87 146 132q45 18 97.5 28.5t111.5 10.5h31q170 0 257 -50q86 -50 86 -137q0 -104 -109 -222t-270 -190q-156 -70 -343 -77z" />
    <glyph glyph-name="E" unicode="E" horiz-adv-x="791" 
d="M245 -93q-93 0 -153 48q-59 48 -59 123t62 155l-52 -5q-15 -1 -25 8.5t-10 22.5q0 15 13 25q16 13 38.5 20.5t50.5 7.5h5q8 0 8 -3q0 -9 -28 -10q-13 -1 -28 -8.5t-15 -13.5t11 -8q14 -3 33 -3q7 0 14.5 0.5t15.5 1.5q105 114 253 190q79 42 157 64.5t156 27.5q5 1 10 1
h9h16q58 0 83 -19q27 -19 27 -66q0 -58 -26 -58q-20 0 -20 30q0 2 0.5 6t1.5 9t1 9v7q0 33 -27.5 49.5t-72.5 13.5q-135 -9 -293 -101q-122 -70 -205 -156q5 2 165 21q43 5 76 8t58 3q69 0 126 -18q48 -16 48 -50q0 -26 -27 -47q-10 -9 -18 -9t-9 10q0 14 15 21q12 6 12 15
q0 20 -34 30q-65 20 -144 20q-34 0 -108 -9q-37 -4 -83.5 -11t-102.5 -15q-91 -124 -91 -204q0 -106 155 -106q41 0 85 5.5t90 21.5l152 51q69 23 153 66l140 73q7 4 13 4q7 0 7 -6q0 -9 -15 -18q-45 -26 -78.5 -45t-56.5 -31q-49 -26 -91 -46t-79 -34q-95 -36 -142 -48
q-82 -20 -167 -20z" />
    <glyph glyph-name="F" unicode="F" horiz-adv-x="706" 
d="M203 -71q-76 0 -132 52q-57 51 -57 118q0 58 43 98q33 32 70 36h4q8 0 8 -3q0 -7 -17 -10q-25 -4 -47 -37q-11 -19 -18.5 -40.5t-7.5 -46.5q0 -57 48 -102q52 -50 122 -46q165 13 296 229q7 10 16 24.5t20 34.5q-157 1 -188 -9q-2 -1 -4 -1q-6 0 -6 10q0 25 19 26
q9 0 24.5 8.5t25.5 8.5q4 0 10 -8q5 -9 8 -9q-1 0 5.5 -0.5t22.5 -1.5l94 -6q29 49 53.5 90.5t44.5 76.5l13 21q-374 133 -505 133q-55 0 -93 -21q-43 -22 -43 -64q0 -33 19 -64l36 -49q4 -4 4 -9t-5 -5q-9 0 -16 10q-11 13 -21 25t-20 25q-22 31 -22 67q0 51 51 81
q47 26 111 26q8 0 15.5 -0.5t15.5 -1.5q97 -10 220.5 -40.5t274.5 -80.5q51 61 107 61q39 0 82 -34t43 -64q0 -53 -61 -53q-13 0 -26.5 2t-28.5 7q-17 7 -42.5 16t-60.5 21q-1 -4 -15 -27q-27 -50 -48 -87.5t-36 -63.5h18q130 0 156 8q1 1 6 1q6 0 6 -6q0 -14 -18 -16
q-28 -2 -63 -3t-78 -1h-37q-10 -17 -21 -35.5t-25 -38.5q-58 -88 -138 -150q-105 -82 -212 -82zM879 417q25 0 25 20q0 22 -35 52q-31 28 -54 28q-44 0 -85 -55l87 -30q44 -15 62 -15z" />
    <glyph glyph-name="G" unicode="G" horiz-adv-x="725" 
d="M322 -194q-80 0 -147 67q-6 6 -6 11q0 7 10 7q11 0 20 -10q10 -10 22.5 -19.5t27.5 -17.5q44 -20 79 -16q91 10 174 109q43 52 122 189q-208 -148 -429 -165q-4 0 -8.5 -0.5t-8.5 -0.5q-59 0 -106 30q-61 37 -61 97q0 125 145 242q109 86 249 140q128 48 225 48
q168 0 186 -110q1 -3 1 -8q0 -9 -6 -9q-9 0 -14 21q-6 27 -48 43q-46 18 -122 18q-206 0 -448 -180q-55 -41 -95 -96q-49 -64 -49 -114q0 -86 125 -86h14.5t15.5 1q314 23 489 213q12 13 37 13q23 0 23 -11l-2 -6q-45 -79 -82.5 -137t-67.5 -95q-125 -154 -246 -167
q-5 -1 -9.5 -1h-9.5z" />
    <glyph glyph-name="H" unicode="H" horiz-adv-x="958" 
d="M113 -144q-101 0 -101 155q0 98 91 192q7 7 12 7q3 0 3 -4q0 -7 -9 -16q-63 -64 -63 -181q0 -133 81 -133q70 0 182 94q108 90 232 244q-82 -8 -159 -20t-150 -29h-4q-11 0 -11 14q0 19 16 22q47 23 114 48l-2 -3l-2 -4l-16 -16l-3 -7q59 11 116.5 18t113.5 12l11 1h5
l26 35q-44 8 -44 50q0 57 102 114l40 22l39 22q8 14 19 29t24 31q11 12 18 12q13 0 13 -27q0 -5 -0.5 -10t-1.5 -10q-8 -36 -46 -61q-13 -23 -38.5 -61t-65.5 -91q-1 -1 9 -5q9 -4 9 -8q0 -3 -3 -6t-16 -4l-14 -2l-11.5 -11.5t-14.5 -16.5q16 1 32 1h32q51 0 107.5 -2
t117.5 -6q60 85 127 173t145 179q15 18 44 26q11 3 22.5 6t22.5 5q2 1 8 1q15 0 15 -10q0 -9 -17 -9q-16 0 -62 -46q-144 -145 -267 -327l50 -4q15 -1 15 -7q0 -7 -18 -7h-26h-15.5t-17.5 1l-66 -109q-29 -49 -29 -77q0 -17 7 -17q15 0 46 24q4 4 13 4q10 0 10 -5
q0 -2 -2 -4q-71 -53 -108 -53q-21 0 -21 20q0 12 4 20q27 81 107 197h-44q-66 0 -130.5 -2.5t-126.5 -7.5q-66 -79 -130 -143t-128 -113q-134 -104 -218 -104zM610 303q14 21 60 87q16 23 27 40t17 28l-22.5 -10t-32.5 -15q-35 -22 -54 -47.5t-19 -49.5q0 -22 9 -27.5
t15 -5.5z" />
    <glyph glyph-name="I" unicode="I" horiz-adv-x="706" 
d="M242 -86q-99 0 -167 68q-67 67 -67 168q0 106 87 197q7 7 11 7q3 0 3 -3q0 -6 -9 -17q-28 -28 -45 -77q-18 -52 -18 -105q0 -90 48 -152q50 -65 132 -65q110 0 205 56q76 46 170 149q20 23 41.5 54.5t43.5 71.5q11 22 32 64.5t51 105.5l3 7t6.5 14.5t2.5 6.5
q-57 -31 -86 -49q-45 -29 -76.5 -51.5t-48.5 -39.5q-56 -54 -53 -114q2 -4 4.5 -6.5l4.5 -4.5q11 -12 21 -12q21 0 21 -5q0 -7 -30 -7q-34 0 -40 28q-3 11 -3 23q0 45 47 99.5t144 109.5l48 27q14 8 31 17t36 20q9 20 22.5 40t32.5 39q13 13 22 13q12 0 12 -20
q0 -23 -14 -40q-16 -22 -48 -40q-1 -4 -3.5 -10t-5.5 -16q-4 -10 -7 -18.5t-7 -16.5q-92 -208 -177 -310q-44 -52 -85.5 -90t-79.5 -61q-91 -55 -212 -55z" />
    <glyph glyph-name="J" unicode="J" horiz-adv-x="620" 
d="M94 -321q-30 0 -30 25q0 14 10 27q50 75 135 162q38 39 71.5 68t59.5 48l80 59q7 10 14 21.5t14 24.5q8 13 16 27.5t18 30.5q189 335 189 400q0 33 -51 33q-54 0 -160 -41q-43 -17 -79.5 -35t-65.5 -37q-103 -64 -168 -140q-51 -57 -62 -105q-7 -27 -7 -47q0 -55 56 -55
q5 0 10.5 0.5t10.5 1.5q26 4 58.5 11.5t73.5 20.5q88 28 122 49q14 8 22 8q7 0 7 -5q0 -6 -11 -12q-131 -68 -280 -90q-8 -1 -15 -1.5t-14 -0.5q-86 0 -86 84q0 32 12 57q19 44 77 108q74 83 165 138q187 112 321 112q52 0 77 -21q13 -10 13 -37q0 -63 -73 -221
q-59 -128 -107 -210q101 66 165 75q18 -1 18 -7q0 -9 -25 -13q-61 -14 -188 -102q-71 -106 -147 -196t-156 -166q-49 -49 -90 -49zM122 -274q10 0 28 18q58 57 115 123t115 144l-19 -13q-53 -36 -119 -104q-78 -80 -122 -147q-5 -8 -5 -13q0 -8 7 -8z" />
    <glyph glyph-name="K" unicode="K" horiz-adv-x="825" 
d="M947 -168q-11 0 -20.5 1.5t-19.5 3.5q-64 18 -258 282l-59 88q-17 -8 -34 -13t-34 -9q-171 -244 -253 -325q-25 -25 -56 -25q-17 0 -29 7.5t-12 15.5q0 11 11 11q2 0 10 -5q7 -4 12 -4q7 0 21 11q52 50 114 129t133 185q-53 11 -53 75q0 30 13 56q17 35 41 35
q32 0 75 -54q142 211 142 273q0 39 -60 39q-108 0 -309 -117q-55 -32 -100.5 -67t-82.5 -73q-56 -59 -73 -105q-13 -32 -13 -56q0 -46 52 -46q31 0 96 20q58 19 91 38q14 8 23 8q7 0 7 -4q0 -7 -12 -13l-64 -30q-29 -13 -62 -21.5t-68 -13.5q-8 -1 -15 -1.5t-14 -0.5
q-78 0 -78 71q0 39 19 70q13 23 35 50t54 58q84 84 179 138q206 116 327 116q101 0 101 -74q0 -75 -148 -292l23 -31q63 28 128 68q45 28 105 74.5t135 112.5q77 67 124 106.5t63 50.5q20 12 35 12q16 0 16 -11q0 -10 -17 -16q-28 -11 -194 -147q-92 -76 -156 -125.5
t-101 -72.5q-72 -46 -125 -69l2 -2l80 -103q83 -106 143.5 -163.5t97.5 -68.5q32 -9 61 -9q77 0 100 59q5 13 15 20q9 9 9 2l-2 -7q-7 -25 -24.5 -44.5t-43.5 -35.5q-50 -32 -103 -32zM490 209q0 1 2 3l43 65q-14 14 -26 20q-11 11 -21 11q-13 0 -21 -13.5t-8 -32.5
q0 -38 31 -53zM538 209q19 4 40 15l-15 21z" />
    <glyph glyph-name="L" unicode="L" horiz-adv-x="461" 
d="M759 -163q-179 0 -354 115l-140 92q-53 -50 -111 -50q-57 0 -97 55q-38 50 -38 99q0 52 42 52q41 0 208 -113q31 35 69 104q102 182 180 273q100 118 189 118q51 0 89 -53q16 -23 25.5 -46.5t9.5 -48.5v-4q0 -9 -4 -9q-8 0 -10 20q-2 36 -38 67q-38 32 -82 32
q-78 0 -193 -142q-43 -52 -81.5 -110.5t-73.5 -123.5q-32 -59 -58 -91l136 -90q81 -54 164.5 -80.5t167.5 -26.5q56 0 94 20q43 24 43 68q0 29 12 29q3 0 3 -9q0 -60 -44 -104q-43 -43 -108 -43zM154 22q46 0 87 37q-130 85 -166 85q-27 0 -27 -32t34 -63q32 -27 72 -27z
" />
    <glyph glyph-name="M" unicode="M" horiz-adv-x="1096" 
d="M961 -79q-23 0 -49 24q-25 24 -25 41q1 67 87 211q35 60 79.5 123t98.5 132q4 7 4 16q0 24 -20 24q-29 0 -69.5 -19t-92.5 -56q-144 -102 -253 -197t-187 -185q-7 -9 -23 -9q-24 0 -24 14l2 6q41 68 82 146t82 165q22 44 22 68q0 18 -17 16q-66 -10 -166 -86
q-53 -95 -113 -177t-127 -152q-43 -45 -78 -45q-28 0 -28 25q0 12 6 22q19 33 45.5 70t61.5 77q60 69 108 106l66 54q14 23 25.5 46.5t21.5 48.5l28 64q19 45 19 74q0 41 -52 41q-45 0 -132 -38q-33 -15 -62.5 -31.5t-55.5 -33.5q-19 -13 -45 -35.5t-58 -54.5
q-77 -75 -77 -100q0 -29 59 -26h5q9 0 9 -6q0 -11 -23 -11q-39 0 -64.5 15.5t-25.5 39.5q0 9 3 16q11 28 78 92q32 29 59.5 51.5t50.5 37.5q160 103 268 103q43 0 68 -19t25 -65q0 -58 -35 -133l-7 -14q49 34 87.5 52t67.5 18q45 0 45 -49q0 -30 -18 -78
q-11 -29 -33.5 -76.5t-57.5 -114.5q96 88 185.5 161.5t176.5 134.5q97 70 166 70q24 0 42.5 -22t18.5 -48q0 -16 -9 -30l-147 -201q-43 -64 -69.5 -123.5t-37.5 -115.5q0 -2 -0.5 -4t-0.5 -4q0 -17 16 -17q25 0 77 36q39 26 70 57q6 6 10 6q5 0 5 -7q0 -11 -10 -21
q-94 -100 -138 -100zM195 24q10 0 25 16q52 53 98 113.5t86 127.5q-20 -16 -51.5 -44.5t-74.5 -71.5q-26 -31 -48 -61t-39 -61q-3 -6 -3 -11q0 -8 7 -8z" />
    <glyph glyph-name="N" unicode="N" horiz-adv-x="817" 
d="M688 -116q-23 0 -49 24q-25 24 -25 41q4 217 298 593q4 7 4 16q0 24 -20 24q-31 0 -75 -18.5t-103 -53.5q-20 -12 -50.5 -33.5t-72.5 -52.5q-46 -35 -74 -59t-39 -37q-25 -43 -58.5 -92t-77.5 -105q-118 -150 -172 -150q-28 0 -28 25q0 12 6 22q19 33 45.5 70t61.5 77
q31 35 58.5 61t49.5 45l66 54q14 23 25.5 47t21.5 48l28 64q19 45 19 74q0 41 -54 41q-47 0 -132 -35q-63 -27 -117.5 -62.5t-105.5 -86.5q-72 -70 -72 -108q0 -27 58 -27h5q9 0 9 -6q0 -11 -23 -11q-39 0 -64.5 15.5t-25.5 39.5q0 9 3 16q11 29 78 95q32 32 59.5 55.5
t50.5 37.5q151 97 263 97q46 0 74 -21q24 -18 24 -68q0 -60 -25 -113q-2 -4 -5.5 -9.5t-8.5 -13.5q39 28 87.5 61t106.5 72q116 68 182 68q24 0 42.5 -22t18.5 -48q0 -16 -9 -30l-100 -135q-34 -46 -60 -90t-45 -85q-28 -58 -48 -122t-34 -135q0 -2 -0.5 -4t-0.5 -4
q0 -17 15 -17q26 0 78 37q20 14 37 28t33 29q5 5 9 5q5 0 5 -8q0 -9 -9 -20q-93 -100 -138 -100zM195 24q10 0 25 16q45 47 89.5 107.5t92.5 135.5q-37 -29 -70 -61t-62 -67q-25 -30 -45 -58t-34 -54q-3 -6 -3 -11q0 -8 7 -8z" />
    <glyph glyph-name="O" unicode="O" horiz-adv-x="774" 
d="M263 -48q-88 0 -157 39q-77 42 -77 108q0 11 3 23q16 73 71 143q-1 3 -1 21q0 106 130 173q114 56 240 56t218 -47q103 -54 112 -148q1 -5 1 -9.5v-9.5q0 -130 -176 -235q-155 -94 -333 -112q-8 -1 -15.5 -1.5t-15.5 -0.5zM269 -26q86 0 201 42q128 46 204 116
q92 84 83 178q-7 84 -94 130q-76 39 -191 39h-15q10 -10 10 -24q0 -9 -7 -10q-67 -19 -147 -63q-112 -64 -171 -147q34 -72 120 -95q14 -5 14 -10q0 -6 -14 -3q-93 24 -135 85q-40 -61 -40 -113q0 -55 58 -91q52 -34 124 -34zM131 297q112 117 272 178q-106 -13 -178 -53
q-88 -49 -94 -125z" />
    <glyph glyph-name="P" unicode="P" horiz-adv-x="565" 
d="M112 -92q-40 0 -40 51q0 83 95 214q-21 9 -25.5 18.5t-4.5 19.5q0 31 15 31t30 -35l7 -5q20 26 42.5 52t48.5 53l97 98q-5 5 -5 9q0 12 27 28q35 20 35 21q11 12 41 12q17 0 22 -8q1 -1 1 -3q0 -9 -17 -23q-78 -65 -142.5 -127.5t-116.5 -125.5q25 -7 64 -7q26 0 56 3.5
t65 10.5q51 10 104.5 31.5t99.5 52.5t74.5 69.5t28.5 81.5t-22.5 71t-60.5 43.5t-86 21.5t-99 6q-39 0 -86 -8t-93.5 -23t-85 -36.5t-62 -49t-23.5 -59.5q0 -23 13 -42q14 -19 31 -23q18 -4 18 -14q0 -8 -14 -5q-20 4 -38.5 18t-30 33.5t-11.5 38.5q0 47 32.5 82.5
t84.5 59.5t111.5 37.5t114.5 14.5q63 2 124 -4.5t110.5 -24.5t79 -49t29.5 -78q0 -50 -31.5 -93.5t-82.5 -78t-110 -58.5t-114 -35q-41 -8 -78.5 -12t-71.5 -4q-19 0 -34 1t-26 3q-111 -139 -111 -206q0 -27 24 -27q8 0 11 1q17 9 28 9q9 0 9 -6q0 -9 -30 -23q-12 -3 -21 -3
z" />
    <glyph glyph-name="Q" unicode="Q" horiz-adv-x="696" 
d="M719 -255q-180 0 -328 115l-108 84q-15 -2 -29 -3t-27 -1q-126 0 -165 76q-4 -8 -4 -24v-6.5t1 -8.5q1 -4 -5 -4q-18 0 -14 10q0 1 0.5 2t0.5 2q0 8 -1.5 13t-1.5 7q0 15 14 38q-4 13 -4 33q0 24 7 49q21 80 90 173q0 4 0.5 10.5t1.5 14.5q18 128 148 209q110 68 227 68
q113 0 180 -43q85 -51 85 -155q0 -17 -3 -37q-21 -158 -168 -277q-121 -97 -276 -135l80 -64q140 -107 308 -107q53 0 98 20q48 23 59 68q8 30 19 30q2 0 1 -10q-14 -62 -68 -104q-52 -43 -118 -43zM316 -26q145 28 262 117q141 109 164 264q3 20 3 37q0 89 -72 132
q-59 35 -158 35h-14q6 -12 6 -25q-2 -14 -9 -17q-64 -22 -143 -76q-112 -76 -180 -177q18 -88 91 -115q11 -5 11 -12q0 -6 -7 -6q-29 0 -67 39q-34 34 -46 65q-22 -36 -48 -108q-4 -11 -6.5 -21.5t-4.5 -21.5q5 1 9.5 1.5t9.5 0.5q55 0 170 -90zM175 338q123 143 277 216
q-98 -16 -170 -65q-88 -59 -107 -151zM253 -34q-115 88 -154 84q15 -90 154 -84z" />
    <glyph glyph-name="R" unicode="R" horiz-adv-x="565" 
d="M740 -168q-10 0 -20 1.5t-21 3.5q-64 17 -287 282q-22 26 -41 47t-35 36q-42 -9 -86 -9h-2q-2 -2 -4.5 -5.5t-4.5 -7.5l-14 -19q-38 -52 -55.5 -86t-17.5 -48q0 -7 6 -7q24 0 44 17q8 5 17 5q8 2 8 -2q0 -1 -2 -3q-70 -46 -105 -46q-19 0 -19 16q0 4 1.5 8.5t3.5 11.5
q8 20 23.5 48.5t40.5 64.5l44 62q-38 17 -38 43q0 23 30 39q8 5 20 5q19 0 45 -14q28 33 58 66.5t62 67.5q-16 -7 -30.5 -12.5t-28.5 -9.5q2 2 7.5 6.5t13.5 9.5t18 12.5t23 15.5l54 36q12 12 41 12q17 0 22 -8q0 -1 0.5 -1.5t0.5 -1.5q0 -9 -17 -23q-129 -108 -196 -187
q12 -8 23.5 -16.5t22.5 -18.5q24 5 47 12q272 87 290 216q1 4 1 7v7q0 49 -53 81q-60 36 -163 36q-75 0 -173 -39q-122 -48 -150 -124q-4 -8 -4 -21q0 -23 13 -42q14 -19 31 -23q18 -4 18 -14q0 -8 -15 -5q-31 6 -55 33.5t-24 56.5q0 15 4 23q32 87 146 132q98 39 227 39
q120 0 179 -37q52 -33 52 -86q0 -41 -26.5 -79.5t-77.5 -76.5q-42 -30 -93.5 -56t-113.5 -43l-43 -12q23 -20 47 -44.5t49 -52.5q187 -211 266 -232q32 -9 61 -9q79 0 94 59q6 25 19 25q2 0 2 -4t-1 -6q-13 -49 -59 -80q-47 -32 -100 -32zM227 219l31 40q-3 1 -6 1.5t-7 0.5
q-12 0 -22.5 -6.5t-10.5 -18.5q0 -9 15 -17zM262 212q14 0 57 6q-9 10 -32 26q-2 -2 -4.5 -5.5t-5.5 -7.5q-4 -4 -7.5 -9t-7.5 -10z" />
    <glyph glyph-name="S" unicode="S" horiz-adv-x="666" 
d="M50 -144q-53 0 -53 29q0 8 1 10q6 22 91 67q84 44 163 63q72 17 138 30.5t127 22.5q66 53 80 106q3 11 3 20q0 39 -54 55q-16 5 -111 18q-88 12 -122 27q-44 20 -44 57q0 14 6 32q23 71 152 146q142 83 272 83q95 0 95 -54q0 -28 -27 -70q-11 -17 -18 -17q-3 0 -3 4
q0 5 6 15q15 24 15 43q0 48 -87 48q-55 0 -106.5 -12.5t-101.5 -35.5q-106 -51 -147 -134q-9 -18 -9 -31q0 -47 131 -67q107 -15 144 -27q70 -22 67 -61q3 -67 -74 -136l7 1q4 1 10 1h14h5q9 0 9 -6q0 -10 -19 -11q-5 -1 -11 -1t-12 -1l-26 -3q-61 -48 -138 -89t-173 -75
q-135 -47 -200 -47zM44 -120q46 0 195 55q141 49 241 117q-42 -11 -98 -25.5t-129 -32.5q-35 -8 -71 -21.5t-74 -30.5q-77 -36 -77 -55v-1q0 -6 13 -6z" />
    <glyph glyph-name="T" unicode="T" horiz-adv-x="657" 
d="M219 -71q-75 0 -131 52q-57 51 -57 118q0 58 43 98q16 16 33 26t36 10h5q8 0 8 -3q0 -7 -17 -10q-25 -4 -47 -37q-11 -19 -18.5 -40.5t-7.5 -46.5q0 -57 48 -102q47 -46 109 -46q52 0 100 20.5t91 59.5q28 24 57.5 61t60.5 88l162 269q-97 38 -156.5 60.5t-81.5 29.5
q-69 22 -133 33t-126 11q-140 0 -140 -75q0 -62 55 -113q6 -4 6 -9q0 -3 -4 -3q-12 0 -19 7q-19 13 -30.5 22.5t-16.5 16.5q-20 26 -20 64q0 56 59 88q54 26 127 26q124 0 253 -37q46 -13 108 -35t141 -54q22 25 38 35q11 6 26.5 9.5t34.5 3.5q37 0 75 -29q37 -30 37 -60
q0 -53 -65 -53q-24 0 -51 9q-61 21 -86 37q-31 -55 -69.5 -122t-85.5 -147q-57 -88 -137 -150q-108 -82 -214 -82zM880 417q24 0 24 20q0 22 -26 45q-29 26 -65 26q-44 0 -66 -46q16 -8 33.5 -15.5t36.5 -14.5q44 -15 63 -15z" />
    <glyph glyph-name="U" unicode="U" horiz-adv-x="767" 
d="M679 -100q-39 0 -46 34q-6 26 -6 56q0 79 45 205q-223 -214 -342 -216q-26 0 -46 17q-21 20 -21 56q0 79 99 211q26 33 51 66l50 66q76 106 76 155q0 32 -28 32q-71 0 -207 -82q-140 -84 -197 -198q-5 -12 -5 -17q0 -25 39 -25q19 0 19 -5q0 -12 -27 -12q-61 0 -61 44
q0 15 4 27q11 40 70 100q65 65 141 111q133 79 226 79q38 0 55 -18t17 -47q0 -44 -33 -97q-17 -28 -56 -73.5t-87 -109.5q-113 -152 -113 -224q0 -37 29 -37q122 0 374 263q6 12 15.5 33t22.5 50q31 70 72 139q54 87 98 108q6 3 11 3q17 0 17 -27q0 -88 -144 -250
q-13 -16 -29 -32l-29 -31q-74 -172 -74 -276q0 -22 3 -40q4 -22 25 -22q39 0 82 43q5 5 10 5q6 0 6 -8q0 -14 -17 -26q-43 -30 -89 -30zM776 346q42 50 81 105q60 83 60 111q0 9 -9 7q-7 -2 -61 -92q-19 -31 -36.5 -63.5t-34.5 -67.5z" />
    <glyph glyph-name="V" unicode="V" horiz-adv-x="656" 
d="M278 -21q-28 0 -47.5 23.5t-19.5 65.5q0 86 82 195q26 33 51 66l50 66q76 106 76 155q0 32 -29 32q-70 0 -206 -82q-142 -85 -198 -198q-4 -7 -4 -16q0 -26 39 -26q19 0 19 -5q0 -12 -27 -12q-61 0 -61 45q0 14 4 26q10 39 74 100q32 31 67.5 58t75.5 50q140 81 224 81
q22 0 33 -8q29 -27 29 -55q0 -33 -39 -98q-17 -28 -49.5 -73.5t-81.5 -109.5q-22 -28 -38.5 -58t-29.5 -62q-23 -61 -23 -99q0 -42 24 -42q36 0 86 25t114 77q54 43 110.5 98t116.5 122q134 152 134 221q0 36 -42 36q-16 0 -46 -8q-2 -1 -7 -1q-8 0 -8 5q0 12 20 18
q27 8 44 8q62 0 62 -65q0 -94 -125 -234q-116 -131 -243 -223q-131 -96 -211 -98z" />
    <glyph glyph-name="W" unicode="W" horiz-adv-x="1017" 
d="M143 -61q-26 0 -26 21q0 6 5 18q31 55 99 112l138 102q37 63 67 123t54 115l28 64q11 23 14.5 42.5t3.5 32.5q0 40 -53 40q-47 0 -132 -35q-33 -14 -62 -29t-54 -32q-49 -32 -105 -86q-68 -68 -68 -107q0 -30 52 -30h5q9 0 9 -6q0 -11 -24 -11q-40 0 -63 16t-23 42
q0 3 0.5 6t1.5 7q8 34 76 99q59 56 110 89q151 97 263 97q46 0 74 -21t28 -61q0 -90 -126 -297q38 28 95 67.5t134 89.5q85 109 142 125q12 4 27 4q21 0 21 -13q0 -15 -29 -44q-4 -4 -14.5 -12t-27.5 -19t-40.5 -26t-53.5 -34q-40 -45 -84 -129q-46 -85 -46 -150
q0 -51 28.5 -78t71.5 -27q80 0 191 83t188 198q95 143 95 203q0 39 -42 39q-15 0 -47 -8q-2 -1 -7 -1q-9 0 -9 7q0 10 16 16q27 8 45 8q68 0 68 -79q0 -82 -80 -204q-40 -61 -91.5 -111.5t-113.5 -91.5q-60 -40 -112.5 -59t-97.5 -19q-53 0 -90 29q-42 33 -42 98
q0 67 48 161q11 20 21.5 38.5t21.5 34.5q-135 -82 -215 -144q-41 -64 -76 -111t-64 -76q-72 -76 -123 -76zM170 -16q35 0 82 50q26 27 75 105q-14 -10 -34.5 -25.5t-46.5 -36.5q-16 -14 -27 -24t-17 -16q-13 -13 -23.5 -23t-15.5 -21l-2 -4q0 -5 9 -5z" />
    <glyph glyph-name="X" unicode="X" horiz-adv-x="500" 
d="M54 -137q-40 0 -40 36q0 27 25 61q59 78 180 165q32 21 62.5 42t61.5 42q31 20 61.5 41t61.5 42q2 1 3.5 2.5t3.5 2.5q5 2 9 6q12 74 12 123q0 102 -53 102q-38 0 -91 -50q-24 -22 -44.5 -49t-37.5 -58q-13 -24 -25 -35q-10 -6 -10 3q0 4 3 10q38 80 99 138t119 58
q13 0 23 -3q59 -17 59 -116q0 -17 -1.5 -39t-5.5 -51q167 119 209 167q7 7 7 12q0 4 -7 4h-5t-6 -1q-17 -4 -30 -14t-23 -10q-8 0 -8 5q0 6 9 13q25 19 49.5 29.5t47.5 10.5q22 0 22 -21t-20 -38q-39 -33 -248 -176q-1 -4 -1 -8t-1 -9l-3 -24q-5 -34 -12.5 -72t-18.5 -80
q-11 -46 -21 -78t-20 -51q-13 -26 -39 -49q-25 -24 -25 -13q0 2 3 8q43 82 85 309l6 35q-335 -232 -418 -342q-19 -25 -19 -43q0 -11 10 -11q6 0 8 1q3 1 9 1q9 0 12 -8q0 -1 0.5 -2t0.5 -2q0 -16 -28 -16z" />
    <glyph glyph-name="Y" unicode="Y" horiz-adv-x="549" 
d="M299 50q-2 0 -2 2q0 5 15 21q16 16 16 64q0 14 -3 51q-1 18 -3.5 41.5t-6.5 52.5q-12 101 -68 193q-70 113 -166 113q-108 0 -108 -125q0 -145 40 -175q15 -10 15 -19q0 -3 -3 -3q-5 0 -13 6q-75 56 -75 165q0 168 146 168q109 0 192 -117q65 -92 83 -193q15 -82 15 -111
q0 -11 -1 -21.5t-3 -18.5q-7 -36 -35 -67q-24 -27 -35 -27zM222 -256q-49 0 -49 47q0 19 7 34q23 57 96 153q75 96 132 146q25 22 63.5 58.5t91.5 88.5q86 84 117 141q3 5 3 9q0 5 -7 5q-23 0 -42 -22q-10 -12 -24 -12q-8 0 -8 6q0 2 5 10q17 18 44 35q31 19 52 19
q29 0 29 -28q0 -12 -9 -23q-23 -28 -57.5 -65t-82.5 -85q-47 -48 -87 -86t-75 -68q-25 -22 -57 -59t-70 -91q-89 -122 -89 -169q0 -22 16 -22q5 0 11 3q8 4 15 4t10 -5q3 -3 3 -7q0 -17 -38 -17z" />
    <glyph glyph-name="Z" unicode="Z" horiz-adv-x="592" 
d="M479 -119q-4 0 -4 4q0 15 22 25q7 4 12.5 8t10.5 8q25 20 32 33t7 25q0 32 -72 41q-31 3 -155 3q-147 0 -268 -53q-40 -17 -51 -17q-8 0 -8 6q0 10 23 33q147 146 309 267.5t339 216.5q-105 46 -203 46h-15h-7t-7 -1q-88 -7 -138 -36q-43 -25 -43 -59v-4q0 -19 -17 -19
q-9 0 -9 14q0 44 43 77q54 42 164 50q11 1 23 1.5t24 0.5q151 0 242 -52q9 -4 9 -12q0 -9 -14 -17q-81 -43 -150 -84.5t-128 -81.5q-82 -56 -162 -121.5t-161 -141.5q78 21 213 21q247 0 247 -76q0 -14 -9 -32q-16 -30 -91 -70q-4 -3 -8 -3z" />
    <glyph glyph-name="bracketleft" unicode="[" horiz-adv-x="485" 
d="M261 -17q-58 0 -78 3q-55 7 -55 33q0 116 132 371q133 256 228 313q26 15 64 15q103 0 101 -21l-1 -13q-2 -1 -14 -1t-32.5 2t-31.5 2q-53 0 -63 -7q-82 -57 -213 -288q-131 -236 -131 -332q0 -56 77 -56q5 0 20.5 1.5t31.5 2.5t20 1q32 0 32 -12q0 -14 -87 -14z" />
    <glyph glyph-name="backslash" unicode="\" horiz-adv-x="551" 
d="M497 -96q0 189 -243 516q-51 68 -112 140.5t-132 148.5q0 6 14 6q26 0 48 -19q11 -9 34 -35.5t58 -70.5q61 -76 116 -156.5t106 -165.5q137 -233 137 -352q0 -32 -26 -32v20z" />
    <glyph glyph-name="bracketright" unicode="]" horiz-adv-x="485" 
d="M68 -17q-12 0 -21 0.5t-15 1.5q23 20 39 23h45q97 0 143 55q77 92 157 276q83 196 83 304q0 7 -1 16t-3 21q-13 9 -40 9q-9 0 -21 -0.5t-28 -1.5q-37 -3 -50 -3q22 22 60 29q20 3 69 3q31 0 38 -4q15 -7 15 -33q0 -146 -84 -346q-82 -196 -186 -306q-28 -31 -94 -40
q-14 -2 -41 -3t-65 -1z" />
    <glyph glyph-name="asciicircum" unicode="^" horiz-adv-x="459" 
d="M427 362q-4 1 -17 11q-12 9 -29 26q-35 34 -48 34q-27 0 -105 -63q-7 -6 -13 -6q-9 0 -5 12q8 14 30 29q89 59 120 81q1 1 4 1q9 0 49 -49t61 -43q-1 -10 -20 -23q-18 -13 -27 -10z" />
    <glyph glyph-name="underscore" unicode="_" horiz-adv-x="376" 
d="M52 -57q-9 0 -9 6q0 14 23 29q44 3 82 3q33 0 63 -2t56 -6l28 -4q9 -1 9 -7q0 -7 -11 -7h-11h-9t-12 1q-55 1 -106.5 -2t-102.5 -11z" />
    <glyph glyph-name="grave" unicode="`" horiz-adv-x="500" 
d="M262 365q-5 0 -20.5 9.5t-33 21.5t-29.5 20q-7 6 -21.5 16t-14.5 16q0 8 9.5 14t16.5 6q8 0 13 -4t9 -10q7 -8 18.5 -22.5t23.5 -27.5t18 -19q14 -10 14 -17q0 -3 -3 -3z" />
    <glyph glyph-name="a" unicode="a" horiz-adv-x="367" 
d="M42 1q-23 0 -23 27q0 19 14 49q36 67 119 138q101 84 164 84q39 0 54 -15q23 17 49 17q5 0 5 -3q0 -2 -2 -4q-14 -16 -31.5 -43t-37.5 -67q-47 -92 -47 -135q0 -10 1 -12v-1q0 -6 -6 -14.5t-12 -8.5q-12 0 -12 40q0 68 31 130l-85 -71q-48 -40 -86.5 -65.5t-66.5 -38.5
q-14 -7 -28 -7zM87 47q6 0 13 4q13 5 45 26t69 52q46 38 76.5 69.5t44.5 47.5q-6 17 -24 17q-35 0 -112 -60q-87 -70 -114 -115q-9 -16 -9 -30q0 -11 11 -11z" />
    <glyph glyph-name="b" unicode="b" horiz-adv-x="305" 
d="M18 -19q-26 0 -26 25q0 14 7 27t19.5 33.5t29.5 48.5t40.5 64t52.5 79q29 44 53.5 79t43.5 63q20 28 34.5 47.5t24.5 31.5q6 7 41 21q35 15 46 15q12 0 12 -8q0 -9 -19 -12q-28 -4 -63 -44q-34 -40 -114 -162q-20 -32 -20 -41q0 -1 2 -7q23 16 58 28.5t84 20.5q4 1 11 1
q21 0 21 -22q0 -32 -45 -92q-23 -31 -50 -57.5t-59 -49.5q-122 -89 -184 -89zM63 38q37 0 72.5 16t69.5 45q67 55 85 128q1 3 1 9q0 21 -16 19q-26 -4 -55 -17t-54.5 -31.5t-41.5 -40.5t-34.5 -49.5t-38.5 -60.5q-2 -3 -2 -7q0 -11 14 -11z" />
    <glyph glyph-name="c" unicode="c" horiz-adv-x="272" 
d="M73 0q-64 0 -64 52q0 14 6 32q18 55 85 113q62 57 136 92q44 21 87 21q23 0 23 -12q0 -8 -14 -22q-13 -12 -18 -9q-18 9 -35 9q-18 0 -36 -9q-64 -33 -115 -84q-51 -53 -68 -103q-5 -17 -5 -25q0 -30 25 -30q29 0 85.5 25.5t139.5 74.5q3 1 4 -3v-3q0 -11 -7 -18
q-12 -10 -34.5 -23t-55.5 -30q-82 -42 -119 -47q-5 -1 -10 -1h-10z" />
    <glyph glyph-name="d" unicode="d" horiz-adv-x="367" 
d="M290 -14q-12 0 -20 12q-11 17 -11 46q0 53 38 146q-157 -144 -237 -180q-21 -9 -36 -9q-29 0 -29 28q0 15 10 34q37 68 119 138q102 87 163 87q26 0 46 -11l69 116q24 41 46 67.5t38 40.5q7 7 25 7q16 0 16 -10q0 -8 -9 -19q-25 -33 -165 -237q-8 -16 -16.5 -37.5
t-18.5 -48.5q-27 -76 -27 -115q0 -27 14 -33q6 -1 6 -7q0 -15 -21 -15zM65 46q2 0 5 1.5t7 2.5q17 8 44.5 27t64.5 48q26 20 55 48.5t63 63.5q-10 21 -25 21q-44 0 -117 -61q-67 -55 -95 -101q-13 -19 -13 -34q0 -16 11 -16z" />
    <glyph glyph-name="e" unicode="e" horiz-adv-x="256" 
d="M82 -5q-31 0 -53.5 16t-22.5 38q0 8 5 25q29 83 152 194l50 18q48 16 52 15q37 -6 37 -31q0 -48 -77 -95q-69 -42 -121 -42q-5 0 -10 0.5t-10 1.5q-10 -14 -18 -26t-13 -23q-8 -19 -8 -32q0 -33 27 -33t87 24q58 22 79 39q8 5 14 5t6 -5q-1 -6 -10 -13
q-15 -11 -34.5 -22.5t-43.5 -24.5q-61 -29 -88 -29zM135 155q36 0 76 39q38 38 38 63q0 14 -13 15q-43 7 -129 -107q10 -10 28 -10z" />
    <glyph glyph-name="f" unicode="f" horiz-adv-x="239" 
d="M-17 -112q-8 0 -8 11q0 4 -4 16t-4 23q0 15 6 28q19 47 60 117t105 164q-10 0 -23 13q-14 14 -14 21q0 4 6 4l34 3q8 1 14.5 1t13.5 1q37 52 73 91t71 67q81 63 160 63q30 0 60 -14q5 -2 5 -6q0 -11 -34 -30q-28 25 -61 25q-40 0 -101 -46q-62 -46 -135 -149h37
q70 0 106 -6q14 -2 14 -9q0 -9 -19 -9q-30 0 -62 -1t-66 -3q-31 -2 -47 -28q-50 -75 -87.5 -138.5t-63.5 -116.5q-17 -37 -17 -70q0 -8 -6.5 -15t-12.5 -7z" />
    <glyph glyph-name="g" unicode="g" horiz-adv-x="404" 
d="M-9 -312q-52 0 -88 40q-36 41 -36 94q0 40 21 74q63 32 164.5 78.5t244.5 106.5q4 15 9 36.5t11 50.5l-118 -75q-42 -27 -71.5 -40t-45.5 -13q-37 0 -37 38q0 17 7 31q23 55 128 123q110 71 179 71q31 0 31 -9t-31 -25q-9 4 -26 4q-53 0 -145 -66q-94 -69 -94 -115
q0 -15 15 -15q10 0 22 6q35 17 83 45.5t109 70.5q4 25 26 36q4 2 15.5 5t30.5 7l-20 -64q-10 -34 -24 -78q8 2 16.5 5t18.5 6q9 3 19 6t20 5q1 0 2 0.5t2 0.5q5 0 10 -4t5 -6l-3 -3q-92 -21 -106 -65q-22 -73 -51.5 -133.5t-66.5 -107.5q-97 -121 -226 -121zM-20 -293
q115 0 206 124q35 48 61 104t43 120q-45 -20 -88 -39t-88 -38q-98 -46 -160 -108q-40 -40 -40 -83q0 -31 20.5 -55.5t45.5 -24.5z" />
    <glyph glyph-name="h" unicode="h" horiz-adv-x="429" 
d="M-4 -7q-7 0 -4 6q37 69 83.5 142.5t104.5 152.5q98 132 177 228q4 7 45 22q38 16 52 16t14 -10q0 -9 -16 -9q-17 0 -63 -46q-35 -33 -167 -197q-37 -46 -67.5 -89.5t-54.5 -85.5q241 166 268 166q17 0 33 -30q-64 -64 -103 -150q-14 -31 -14 -45q0 -18 18 -18q22 0 77 28
l76 39q4 1 4 -4t-3 -12t-7 -9l-67 -42q-45 -28 -87 -37q-62 24 -62 54q0 2 0.5 4.5t1.5 5.5q8 20 23.5 46.5t37.5 59.5q35 53 31 57q-1 1 -4 1q-18 0 -92 -50q-61 -43 -84 -63q-68 -62 -92 -111q-48 -20 -59 -20z" />
    <glyph glyph-name="i" unicode="i" horiz-adv-x="201" 
d="M-1 -1q-10 0 -10 6q0 3 3 7q8 13 18.5 28t21.5 31q11 17 24.5 35.5t27.5 39.5q18 25 23 43q1 4 1 8.5t1 8.5l3 17q2 9 39 25q27 13 42 13q8 0 6 -6q-7 -24 -32 -58l-49 -67q-9 -13 -23.5 -30.5t-33.5 -42.5q2 1 8.5 3.5t17.5 6.5t27 9.5t38 12.5q14 5 35 11.5t50 13.5
q6 0 6 -6v-2q0 -4 -6 -6q-139 -37 -214 -93q-11 -8 -24 -8zM209 388q-5 0 -10 8.5t-5 13.5q0 8 9 15.5t20.5 12.5t17.5 5t6 -3q0 -5 -2.5 -10.5t-7.5 -13.5q-5 -6 -8.5 -17t-19.5 -11z" />
    <glyph glyph-name="j" unicode="j" horiz-adv-x="300" 
d="M-249 -318q-81 0 -81 61q0 34 28 77q54 88 200 168q112 62 247 105q43 77 81 173q5 12 18.5 22t24.5 10q9 0 10 -7v-56q0 -4 -5.5 -9.5l-14.5 -14.5l-17 -16q-8 -8 -9 -11l-45 -78q57 17 138 33q3 1 7 1q8 0 8 -6q0 -8 -17 -13q-145 -29 -191 -106q-59 -96 -115.5 -164
t-111.5 -111q-73 -58 -155 -58zM-238 -301q60 0 130 61q131 110 240 311q-56 -20 -111 -47.5t-111 -61.5q-135 -81 -181 -157q-20 -35 -20 -59q0 -47 53 -47zM278 388q-5 0 -10 8.5t-5 13.5q0 8 9 15.5t20.5 12.5t17.5 5t6 -3q0 -5 -2.5 -10.5t-7.5 -13.5q-5 -6 -8.5 -17
t-19.5 -11z" />
    <glyph glyph-name="k" unicode="k" horiz-adv-x="374" 
d="M-2 -9q-7 0 -7 4q0 3 1 4q179 344 335 491q67 64 154 64q38 0 66 -15q5 -2 5 -6q0 -11 -34 -30q-28 24 -63 24q-60 0 -127 -64q-75 -69 -228 -340q-1 -6 3 -6q6 0 90 66q4 2 8 6q2 2 4.5 4t6.5 4q0 51 34 51q21 0 21 -15q26 16 61 34.5t81 40.5q5 -13 5 -22
q0 -31 -41 -57q-10 -7 -27 -16t-44 -18l-44 -15q-6 -40 -6 -75q0 -15 1 -29t4 -26q4 -25 20 -25q6 0 8 1q15 5 31.5 13t33.5 17l57 30q0 -6 -5 -23q-8 -4 -15.5 -8t-15.5 -9q-7 -4 -15 -8.5t-16 -9.5q-41 -23 -74 -30q-9 -3 -22 4.5t-23.5 21t-13.5 29.5q-1 11 -1.5 23
t-0.5 26t0.5 30t1.5 33q-99 -73 -150 -141q-9 -11 -28 -22t-31 -11z" />
    <glyph glyph-name="l" unicode="l" horiz-adv-x="202" 
d="M85 -2q-13 -3 -33 11q-23 17 -26 44q20 59 103 176t228 293q4 7 45 22q38 16 52 16t14 -10q0 -9 -16 -9q-17 0 -63 -46q-56 -54 -176 -212q-138 -181 -138 -226q0 -10 5 -21t16 -11q6 0 23.5 7t38.5 17t40 20.5t28 16.5q0 -20 -5 -23q-8 -4 -15.5 -8t-15.5 -9
q-7 -4 -15 -8.5t-16 -9.5q-41 -23 -74 -30z" />
    <glyph glyph-name="m" unicode="m" horiz-adv-x="527" 
d="M372 -24q-6 0 -18 6.5t-10 11.5l115 199q6 11 6 15t-4 4q-18 0 -94 -64q-71 -59 -88 -81q-4 -7 -21 -17.5t-27 -10.5q-8 0 -8 10q0 5 1.5 9.5t2.5 8.5l16 40q6 15 14.5 35.5t19.5 45.5q3 8 3 13q0 8 -7 8q-24 0 -110 -69q-80 -64 -96 -88q-4 -6 -28 -25q-22 -19 -30 -19
h-2q-8 0 -8 9q0 12 9 25q4 7 10.5 17t16.5 23q20 27 48 69q20 28 34.5 50.5t22.5 41.5q6 13 67 32q5 3 6 3q5 0 1 -10q-4 -9 -15 -17q-43 -54 -66 -84q-25 -31 -29 -38l186 126q14 8 21 8q22 0 22 -30q0 -9 -3 -18l-28 -87l103 81q45 35 77 51t50 16q20 0 23 -21
q-2 -5 -12.5 -21t-28.5 -42q-18 -27 -43.5 -65.5t-58.5 -88.5q-1 -1 -1 -5q0 -6 6 -8q3 -1 10 1q15 5 31.5 13t33.5 17l57 30q0 -6 -5 -23q-28 -16 -69.5 -37t-98.5 -49q-1 -1 -4 -1z" />
    <glyph glyph-name="n" unicode="n" horiz-adv-x="367" 
d="M5 -1q-12 0 -12 9t12 25q8 9 93 141q2 3 0 6q-3 3 -2 6l36 37q13 19 45 19q8 0 8 -4l-3 -5q-13 -14 -27.5 -31t-30.5 -38q-43 -55 -43 -74q0 -3 1 -4l194 141q24 18 52 18q16 0 16 -12q0 -13 -21 -39q-11 -12 -21 -46q-10 -31 -10 -60q0 -37 24 -31q26 7 48.5 16t40.5 22
q9 6 18 6q5 0 5 -4q0 -3 -9 -14q-13 -16 -66 -37q-54 -20 -77 -20q-39 0 -39 41q0 33 34 105q4 7 4 14t-7 7q-10 0 -23 -10q-40 -28 -71.5 -53t-53.5 -46l-71 -69q-12 -10 -33 -15q-3 -1 -6 -1h-5z" />
    <glyph glyph-name="o" unicode="o" horiz-adv-x="327" 
d="M45 -1q-36 0 -36 38q0 59 57 125q11 14 26.5 33.5t35.5 42.5q2 0 -18 7q-13 4 -13 14q0 12 17 12q16 0 53 9q6 4 12.5 8t13.5 8q11 7 22 7q6 0 12.5 -2.5t14.5 -6.5q11 -6 19.5 -10.5t13.5 -6.5l106 1q17 0 17 -8t-17 -10q-21 -3 -38 -3q1 -4 1.5 -7.5t0.5 -5.5
q0 -32 -38 -82q-31 -41 -70 -71q-88 -67 -158 -86q-19 -6 -34 -6zM55 23q2 0 4.5 0.5t6.5 1.5q66 19 149 82q15 11 29.5 26t28.5 32q33 42 33 68q0 12 -7 19h-45q-22 0 -37.5 -3.5t-26.5 -8.5q-29 -22 -86 -88q-20 -24 -39 -55q-25 -41 -25 -55v-2q0 -17 15 -17z" />
    <glyph glyph-name="p" unicode="p" horiz-adv-x="357" 
d="M-156 -282q-5 0 -5 10q2 60 174 339l24 39q10 16 23 37t30 48q-8 -2 -11 -2q-11 0 -11 10q0 11 12 17l43 20l72 110q23 33 40 54.5t30 31.5q17 12 43 12q13 0 13 -4q0 -2 -4 -5q-13 -10 -37 -39.5t-60 -79.5l-44 -65q65 28 104 28q79 0 79 -63q0 -5 -0.5 -10.5
t-1.5 -10.5q-4 -28 -24 -57q18 1 44 6t57 9q11 2 11 -2q0 -11 -25 -14l-124 -32q-40 -31 -96 -53q-60 -25 -107 -25q-24 0 -24 10q0 13 26 24q28 12 58 23t64 22q11 4 25 8.5t33 9.5q39 35 39 94q0 34 -32 34q-42 0 -74 -13q-4 -1 -9 -3.5l-13 -6.5q-7 -4 -17 -9t-21 -12
q-54 -80 -105 -157t-99 -153q-70 -111 -80 -154q-6 -26 -20 -26z" />
    <glyph glyph-name="q" unicode="q" horiz-adv-x="367" 
d="M69 -245q-17 5 -17 25q0 50 135 230l-17 17q-3 3 -3 8q0 10 11.5 19t31.5 9h17l31 51q19 28 19 40q0 6 -4 7l-16 -14q-7 -5 -15 -12.5t-19 -16.5q-97 -79 -153 -104q-19 -8 -28 -8q-23 0 -23 28q0 19 14 49q36 67 119 138q101 84 164 84q39 0 54 -15q26 18 47 18
q7 0 7 -4l-2 -4q-10 -16 -19.5 -29t-17.5 -22q-8 -10 -15.5 -19t-12.5 -18q-15 -25 -39.5 -62.5t-58.5 -88.5q96 11 148 39q7 4 10 4q6 0 3 -7q-4 -7 -14 -12q-80 -44 -164 -51q19 -15 19 -43q0 -35 -32 -88q-15 -22 -34.5 -46t-44.5 -50q-59 -59 -81 -52zM89 58q6 0 13 4
q18 8 46 27.5t66 49.5q33 26 63 54.5t58 58.5q-10 27 -27 27q-59 0 -138 -76q-46 -44 -78 -98q-13 -19 -13 -33t10 -14zM92 -213q10 -4 50 50q16 21 30.5 42t27.5 41q15 24 15 42q0 13 -14 33q-11 -17 -25.5 -40t-31.5 -52q-54 -94 -54 -111q0 -3 2 -5z" />
    <glyph glyph-name="r" unicode="r" horiz-adv-x="280" 
d="M5 4q-6 0 -6 5l2 7q2 4 5.5 9t7.5 10l16 24q3 4 8 10.5t11 16.5l31 50q17 23 36 66q1 6 2 14.5t2 19.5q2 5 36 20q32 16 45 16q5 0 5 -3q0 -2 -3 -7q-17 -23 -35.5 -51.5t-38.5 -61.5l66 55q12 10 19.5 15.5t9.5 7.5q74 51 130 51q7 0 7 -14t-6.5 -30.5t-14.5 -16.5
q-2 0 -4 2v2q0 2 0.5 4t0.5 6v3q0 7 -4 7q-85 0 -204 -110q-11 -11 -26 -31t-34 -48l-10 -22l-27 -15q-20 -11 -27 -11z" />
    <glyph glyph-name="s" unicode="s" horiz-adv-x="271" 
d="M75 9q-42 0 -63.5 2t-23.5 3q-6 5 -6 9q0 12 33 12q59 0 131 21q4 1 4 6q0 11 -31 45t-31 50q0 59 58 102q77 57 171 57q45 0 45 -20q0 -19 -32 -24q-4 0 -11 1.5t-16 3.5q-16 4 -28 4q-52 0 -93 -26q-49 -31 -49 -84q0 -17 23 -52q7 -11 12.5 -20t9.5 -15q8 -13 9 -15
q8 0 20 3q6 3 10 3q7 0 7 -6q0 -9 -12 -14q-9 -3 -14 -14.5t-11 -13.5q-28 -18 -112 -18z" />
    <glyph glyph-name="t" unicode="t" horiz-adv-x="206" 
d="M78 3q-15 0 -39 9q-36 14 -36 40q0 10 8 29q8 17 20.5 40t30.5 52l40 65q2 5 2 9.5v8.5q0 12 -6 15q-22 10 -22 18q0 4 11 7q13 3 29.5 5t37.5 3q35 44 69 84q35 43 54 53q29 18 58 18q8 0 8 -2q0 -4 -4 -5q-38 -25 -68 -54l-64 -73q-6 -7 -6 -13q0 -8 12 -10q5 0 10 0.5
t11 0.5q11 0 25 -0.5t29 -1.5q9 -1 9 -5q0 -9 -33 -11q-22 0 -75 -6q-13 -2 -31 -14q-34 -44 -58 -89t-40 -90q-11 -31 -11 -41q0 -17 17 -17q14 0 29 7q6 2 17 9q6 4 14 8.5t18 11.5q38 23 42 23q10 0 10 -8q0 -7 -8 -13l-37 -28q-14 -10 -29.5 -18t-31.5 -15q-6 -2 -12 -2
z" />
    <glyph glyph-name="u" unicode="u" horiz-adv-x="381" 
d="M233 -2q-22 0 -22 19l2 8q20 31 40 68t42 80q-10 -7 -21.5 -15t-24.5 -18t-27.5 -21t-31.5 -22l-76 -50q-34 -22 -58 -32t-38 -10q-18 0 -18 30q0 25 23 63q8 14 17 27.5t18 26.5t19.5 30t22.5 37l2 8t2 9q1 8 6 22q2 5 26 12q14 5 26 9.5t20 8.5q7 4 12 4q11 0 11 -10
q0 -1 -2 -7q-27 -32 -54 -65t-54 -68q-48 -61 -48 -89q0 -8 8 -8q15 0 65 32l42 28t41 28q48 32 88.5 64t73.5 63q11 8 20 8q14 0 14 -9q0 -5 -4 -9q-23 -28 -39.5 -50.5t-26.5 -41.5l-52 -104q26 11 64 26.5t90 35.5q3 1 5.5 1.5t3.5 0.5q8 0 8 -6q0 -8 -15 -13
q-40 -11 -77 -30q-17 -9 -33 -18t-33 -19q-1 -1 -3 -2l-6 -3t-8.5 -6t-11.5 -9q-20 -14 -28 -14z" />
    <glyph glyph-name="v" unicode="v" horiz-adv-x="330" 
d="M40 -10q-18 0 -23 8l-7.5 10.5t-3.5 4.5q-2 2 -2 5q0 7 11 32q34 69 90 154q2 3 -2 7q-4 5 -3 6q4 4 8.5 8t9.5 8t10.5 9t10.5 10q5 6 10 6q8 0 14.5 -7.5t6.5 -16.5q0 -5 -3 -10q-45 -64 -46 -64q-14 -23 -27.5 -46t-24.5 -47q-7 -13 -7 -28q0 -17 14 -15q17 3 106 77
q23 19 39 33.5t27 24.5q17 17 33.5 36.5t30.5 41.5q1 2 1 3.5t1 3.5l6 19q8 26 35 34q3 1 5.5 1.5t4.5 0.5q24 0 24 -15q0 -5 -6 -11q-9 -9 -10 -11t-6 -10q0 -12 1 -13q3 -7 21 -7h8q5 0 8 1h6q8 0 8 -4q0 -12 -23 -14q-11 -1 -26.5 -2t-34.5 -3q-66 -74 -185 -165
q-11 -8 -25.5 -17t-31.5 -18q-38 -20 -53 -20z" />
    <glyph glyph-name="w" unicode="w" horiz-adv-x="467" 
d="M266 24q-25 0 -37.5 24.5t-9.5 63.5q2 25 4.5 44.5t6.5 33.5l-31 -36q-24 -28 -54 -54.5t-67 -52.5q-20 -14 -38 -14q-34 0 -34 31q0 6 3 12q8 17 19 36.5t26 38.5l53 70q-1 5 -1.5 11.5t0.5 14.5q8 8 22 18t20 20q4 7 11 7q17 0 17 -19q0 -6 -4 -10q-20 -23 -47.5 -63
t-62.5 -100q-10 -18 -10 -25t8 -7q10 0 58 42q10 10 18.5 17.5t15.5 14.5l21 21l52 56q28 31 51 74q10 19 41 19q12 0 12 -7q0 -6 -4 -10q-53 -85 -62 -185q-2 -22 5.5 -40t21.5 -18q22 0 46 14.5t51 41.5q53 54 66 117l-19 20q-6 6 -6 16q0 16 19 16q13 0 26 -7t17 -17
q14 -3 26 -3h6.5t6.5 1t9 1q9 0 9 -7q0 -11 -17 -13q-4 0 -17 -4q-10 -3 -23 -3q-14 -72 -92 -137q-75 -64 -132 -64z" />
    <glyph glyph-name="x" unicode="x" horiz-adv-x="286" 
d="M-183 -149q-7 0 -7 9q0 8 7 15q69 82 151.5 156t179.5 140q7 24 7 45q0 29 -15 24q-31 -10 -53 -32q-8 -8 -15 -8t-7 6q0 5 7 12q14 14 98 49q15 6 24 6q14 0 14 -16q0 -7 -11 -53l132 81q7 4 12 4q6 0 6 -5q0 -8 -10 -14q-23 -16 -58.5 -40t-86.5 -58l-17 -78
q-2 -10 -5.5 -24.5t-8.5 -33.5q8 4 34 13t72 25q14 5 35 11.5t50 13.5q5 0 6 -6v-2q0 -4 -6 -6q-139 -37 -214 -93q-11 -8 -23 -8q-11 0 -11 6q0 4 3 8q2 2 4.5 9.5t6.5 18.5q7 21 18 65q2 12 5.5 27t7.5 32q-94 -66 -174 -138.5t-147 -153.5q-7 -7 -11 -7z" />
    <glyph glyph-name="y" unicode="y" horiz-adv-x="430" 
d="M-45 -358q-53 0 -92 27.5t-39 70.5q0 30 20 62q8 12 34.5 35t71.5 57t86.5 61.5t81.5 50.5q43 25 92 49t104 47l21 87q-23 -11 -69 -38.5t-117 -70.5q-88 -55 -131 -55q-12 0 -12 8q0 5 6 15q8 11 18 25.5t21 30.5q11 17 24 35.5t28 39.5q5 7 5 15v11q0 8 2 10q8 9 41 21
t50 12q8 0 8 -4q0 -1 -0.5 -2l-1.5 -3q-22 -21 -72 -72q-8 -8 -18.5 -23l-24.5 -35q-12 -18 -12 -25q0 -5 7 -5q20 0 127 62q38 22 69 42t57 37l5 21q5 17 34 27q11 4 23 4q15 0 15 -11q0 -13 -23 -39q-1 -4 -2 -8.5t-3 -9.5l-8 -29l-13 -50q62 24 85 24q16 0 16 -6
q0 -4 -11 -7q-6 -2 -17 -6t-27 -10q-50 -18 -62 -57q-14 -46 -31.5 -89.5t-38.5 -84.5q-126 -247 -327 -247zM-43 -337q107 0 187 80q51 51 103 157q30 62 60 177q-72 -34 -177 -93q-81 -44 -161 -108q-76 -58 -93 -86q-17 -29 -17 -51q0 -34 29 -55t69 -21z" />
    <glyph glyph-name="z" unicode="z" horiz-adv-x="307" 
d="M-2 6q-12 0 -12 10q0 7 7 13l120 117q39 38 72 66t61 46q-5 1 -10.5 1.5t-10.5 0.5q-65 0 -108 -34l-6 -2q-6 0 -6 8q0 12 17 24q26 17 90 26q42 6 70 6q46 0 46 -16q0 -5 -8 -8q-27 -11 -57.5 -31.5t-64.5 -51.5q-16 -14 -43.5 -41t-67.5 -69q57 19 100 28.5t73 9.5
q28 0 28 -21q0 -30 -36 -68q-7 -7 -13 -7q-2 0 -2 2t5 10q18 26 18 36q0 11 -38 11q-99 0 -212 -62q-4 -4 -12 -4z" />
    <glyph glyph-name="braceleft" unicode="{" horiz-adv-x="370" 
d="M332 -134q-66 0 -94 16q-40 22 -40 79q0 20 5 50.5t15 71.5q20 85 20 122q0 95 -117 96l5 8q86 9 117 37q42 35 58 143q9 61 19.5 101t21.5 60q46 76 175 76l6 -2l-8 -3q-81 0 -119 -42q-28 -31 -42 -103l-18 -91q-4 -16 -6 -25.5t-3 -11.5q-18 -59 -60 -100
q-46 -45 -105 -43q46 -4 76.5 -32.5t30.5 -73.5q0 -21 -4.5 -51.5t-14.5 -70.5t-14.5 -70.5t-4.5 -50.5q0 -37 15.5 -55.5t44.5 -23.5l50 -6l3 -2q0 -3 -12 -3z" />
    <glyph glyph-name="bar" unicode="|" horiz-adv-x="250" 
d="M169 -60q-9 0 -12 3q-9 9 -12.5 30.5t-3.5 52.5q0 40 5 89.5t13.5 101t18 97.5t18.5 79q18 74 35 116.5t27 48.5q3 2 6.5 3.5t6.5 1.5q6 0 6 -5q-22 -59 -42 -128t-36 -139.5t-25 -135t-9 -115.5q0 -22 2 -41t6 -34q2 -9 4.5 -13.5t2.5 -6.5q0 -5 -11 -5z" />
    <glyph glyph-name="braceright" unicode="}" horiz-adv-x="395" 
d="M-9 -131q-6 0 -6 2q2 2 50 7q49 4 71 23q39 32 75 157q38 128 79 168q63 60 141 68q-45 3 -75 24q-36 24 -36 66q0 43 29 133t29 131q0 47 -33 57q-17 3 -34.5 6t-34.5 5q-2 0 -2 2q3 3 7 4q64 0 88 -10q45 -16 45 -64q0 -44 -32 -137q-31 -86 -31 -135q0 -69 110 -80
l-7 -9q-126 -2 -171 -110l-63 -201q-53 -107 -199 -107z" />
    <glyph glyph-name="asciitilde" unicode="~" horiz-adv-x="367" 
d="M345 279q-10 0 -22.5 5.5t-27.5 15.5q-30 22 -47 30q-18 8 -29 8q-22 0 -53 -31q-8 -8 -13 -8q-3 0 -3 3q0 5 9 14q4 4 7 8.5t7 8.5l15 16q20 21 42 21q12 0 25 -6q22 -8 55 -33q28 -19 47 -24q3 -1 8 -1q13 0 24 14q8 12 14 14q7 1 7 -4q0 -6 -4 -10q-5 -7 -11.5 -14
t-16.5 -14q-17 -13 -33 -13z" />
    <glyph glyph-name="uni00A0" unicode="&#xa0;" horiz-adv-x="171" 
 />
    <glyph glyph-name="exclamdown" unicode="&#xa1;" horiz-adv-x="260" 
d="M244 270q-30 0 -30 12q0 3 4 6q20 13 40 36q8 9 27 9q21 0 21 -8q0 -2 -3 -7l-35 -41q-7 -7 -24 -7zM-150 -241q-15 0 -15 10q0 9 18 9q15 0 61 46q23 23 65 72t102 126q5 5 11.5 14.5t15.5 22.5t20 30t24 38q40 64 48 64q3 0 3 -5q1 -10 -5 -27t-20 -41l-54 -92
q-18 -31 -43 -66t-57 -73q-20 -22 -39 -44.5t-38 -44.5q-2 -2 -13.5 -8t-32.5 -14q-43 -17 -51 -17z" />
    <glyph glyph-name="cent" unicode="&#xa2;" horiz-adv-x="382" 
d="M80 -16q-6 0 -6 3t2 5q48 53 71 100q-55 4 -55 51q0 15 6 33q18 54 84 114q64 57 137 91q10 9 20 20.5t20 24.5q13 18 20.5 28.5t10.5 13.5q29 32 51 32q6 0 6 -4q0 -2 -3 -5q-22 -25 -39 -47.5t-28 -44.5q9 1 16.5 1.5t12.5 0.5q11 0 17 -2q7 -4 7 -12q0 -10 -8.5 -20
t-17.5 -10q-1 0 -7 2q-18 9 -35 9q-18 0 -36 -9q-64 -33 -115 -84q-51 -53 -68 -103q-5 -17 -5 -25q0 -33 33 -29t83.5 26t117.5 62q8 5 14 5q8 0 8 -5t-9 -13q-10 -8 -29.5 -19t-48.5 -27q-37 -20 -65 -32.5t-47 -17.5q-7 -13 -15.5 -25.5t-19.5 -23.5l-30 -32
q-27 -32 -50 -32z" />
    <glyph glyph-name="sterling" unicode="&#xa3;" horiz-adv-x="576" 
d="M149 142q-4 2 -11 10t-8 14l2 2q17 2 34.5 3.5t35.5 1.5q18 49 39 97.5t49 89t67 64.5t92 24q37 0 55 -16t18 -43q0 -28 -20 -63.5t-60 -73.5q-20 -19 -40 -28.5t-32 -9.5q-6 0 -7 1t-1 3t21.5 15.5t41.5 35.5q33 38 49 70t16 54q0 40 -45 40q-32 0 -62.5 -26t-58 -67
t-50 -85.5t-37.5 -81.5q19 0 43.5 -2t38.5 -9q3 -1 3 -4q0 -5 -6 -5q-22 0 -44 -1t-45 -3q-5 -14 -9 -26q-6 -18 -12 -32t-16 -31q57 -13 112 -28.5t113 -15.5q29 0 58.5 5t49.5 18t20 36q0 22 -20 49v4q0 5 6.5 8t10.5 -2q21 -21 21 -46q0 -26 -20.5 -49t-55 -37.5
t-75.5 -14.5q-37 0 -78 8t-81.5 19t-75.5 19q-8 -13 -25 -22.5t-36 -9.5q-37 0 -60 17t-23 37q0 12 13 19.5t24 7.5q23 0 46.5 -5t44.5 -11q9 18 17 38.5t16 42.5l-22 -2t-21 -3zM107 12q14 0 27 9.5t14 19.5q-17 6 -36.5 11.5t-37.5 5.5q-14 0 -14 -12q0 -10 13 -22t34 -12
z" />
    <glyph glyph-name="currency" unicode="&#xa4;" horiz-adv-x="473" 
d="M169 200q-12 0 -21.5 4t-7.5 11q15 14 37 33t38 33q-7 19 -7 41q0 5 0.5 10t1.5 9q3 24 14 46q8 15 19 28q-10 10 -20 18.5t-19 16.5q-5 10 -5 20q0 8 3.5 16t10.5 12q14 -14 29 -28t29 -29q28 19 59 19q45 0 77 -26q29 20 54.5 36.5t40.5 21.5q1 1 4 1q4 0 5.5 -3.5
t1.5 -7.5q0 -8 -3 -10q-18 -14 -37 -34t-40 -39q7 -16 7 -35q0 -22 -10 -47q-7 -17 -19 -31q18 -23 33 -42t26 -32q6 -7 6 -11q0 -8 -13 -8q-6 0 -12.5 2t-9.5 6q-13 15 -29 29.5t-30 28.5q-43 -30 -92 -30q-32 0 -54 20q-12 -11 -26.5 -24t-21.5 -22q-7 -3 -19 -3zM297 249
q16 0 35.5 10t36.5 26t23 33q7 17 7 38q0 35 -19 58.5t-51 23.5q-33 0 -54 -30.5t-26 -65.5q-1 -4 -1.5 -9.5t-0.5 -10.5q0 -25 12.5 -49t37.5 -24z" />
    <glyph glyph-name="yen" unicode="&#xa5;" horiz-adv-x="465" 
d="M244 -20q-4 0 -4 3l2 13q2 12 6 33q2 10 4 20.5t4 21.5l9 48q-7 -1 -14 -1h-13h-21q-3 0 -9.5 6.5t-6.5 11.5q0 1 1 2q4 1 23 3q8 1 20 1t26 1l2 10q2 11 4 19.5t3 14.5q2 11 3 15q-42 -3 -66 -3q-3 0 -9.5 7t-6.5 12l1 1q6 2 24 3q8 1 20 1t26 1q-9 14 -25.5 38
t-40.5 57q-38 53 -65 78q-25 23 -32 27q-8 5 -8 10q0 8 11 19.5t18 11.5q3 0 4 -1v-1q14 -7 57 -66q44 -58 120 -168q26 34 51 65t50 60q11 14 28.5 33t42.5 44q32 29 59 29q6 0 8 -2l-0.5 -1t-0.5 -2v-10q-18 -8 -41 -27t-46 -42.5t-43.5 -46t-34.5 -38.5q-27 -30 -56 -68
q26 -1 46.5 -3.5t27.5 -5.5l2 -2q0 -5 -5 -5q-13 0 -32 -1t-45 -3v-1l-11 -60q76 -1 91 -9q2 0 2 -3q0 -4 -5 -4q-14 0 -35.5 -1t-50.5 -3h-3q-1 -1 -3 -1l-19 -105q0 -9 -4 -18q-2 -8 -16.5 -13t-23.5 -5z" />
    <glyph glyph-name="brokenbar" unicode="&#xa6;" horiz-adv-x="250" 
d="M174 299q5 23 10.5 46.5t11.5 47.5q36 146 72 168q2 2 5 3t4 -1v-3q-28 -76 -47.5 -140.5t-31.5 -120.5h-24zM169 -60q-9 0 -12 3q-9 9 -12.5 32t-3.5 51q0 23 1.5 47t3.5 44q3 29 7 59t9 59h23q-7 -45 -12.5 -100.5t-5.5 -101.5q0 -45 6 -68q3 -9 5 -13.5t2 -6.5
q0 -5 -11 -5z" />
    <glyph glyph-name="section" unicode="&#xa7;" horiz-adv-x="481" 
d="M213 -37q-93 0 -94 31l7 5q2 0 9 -1.5t18 -3.5q13 -4 26 -4q36 0 72 11q48 15 48 44q0 12 -38 48q-25 23 -42.5 41.5t-28.5 31.5q-38 50 -38 98q0 77 76 131q4 79 90 130q74 45 159 45q43 0 69 -13q38 -18 38 -54q0 -33 -43 -88q-44 -54 -75 -55l-4 2q2 6 15.5 22.5
t36.5 43.5q41 50 41 81q0 40 -59 40q-82 0 -159 -56q-84 -61 -84 -141q0 -36 80 -110q81 -73 81 -109q0 -45 -108 -59q32 -38 32 -61q0 -26 -51 -40q-33 -10 -74 -10zM289 91q96 11 96 54q0 8 -69 83q-73 79 -85 128q-32 -27 -44 -56q-10 -23 -10 -69q0 -29 44 -76z" />
    <glyph glyph-name="dieresis" unicode="&#xa8;" horiz-adv-x="500" 
d="M290 388q-5 0 -10 8.5t-5 13.5q0 8 9 15.5t20.5 12.5t17.5 5t6 -3q0 -5 -2.5 -10.5t-7.5 -13.5q-5 -6 -8.5 -17t-19.5 -11zM199 388q-5 0 -10 8.5t-5 13.5q0 8 9 15.5t20.5 12.5t17.5 5t6 -3q0 -5 -2.5 -10.5t-7.5 -13.5q-5 -6 -8.5 -17t-19.5 -11z" />
    <glyph glyph-name="copyright" unicode="&#xa9;" horiz-adv-x="628" 
d="M287 -11q-71 0 -122 42q-54 44 -54 114q0 118 127 229q123 108 242 108q71 0 121 -44t50 -114q0 -116 -123 -226q-121 -109 -241 -109zM301 10q106 0 209 100t103 206q0 64 -40 105t-103 41q-112 0 -218 -103q-105 -103 -105 -215q0 -60 48 -98q44 -36 106 -36zM285 75
q-34 0 -57 15q-27 17 -27 49q0 93 100 183q97 88 191 88q49 0 49 -40q0 -32 -18 -32l-5 4q0 3 3 12q1 4 1.5 7t0.5 5q0 35 -36 35q-78 0 -165 -94q-87 -93 -87 -172q0 -48 47 -48q33 0 87 23q18 8 37.5 18t41.5 23q38 23 35 23q3 0 3 -3q0 -34 -85 -67q-76 -29 -116 -29z
" />
    <glyph glyph-name="ordfeminine" unicode="&#xaa;" horiz-adv-x="220" 
d="M115 226q-16 0 -16 19q0 7 2.5 15t6.5 15q23 42 72 84q60 50 100 50q21 0 32 -8q6 4 13.5 6.5t15.5 2.5q5 0 5 -3t-2 -4q-7 -9 -17.5 -25.5t-22.5 -40.5q-28 -53 -28 -80v-8q0 -4 -4 -9.5t-9 -5.5q-9 0 -9 26q0 36 15 70l-16 -13q-6 -5 -13 -11t-15 -13q-29 -24 -52 -39
t-40 -23q-12 -5 -18 -5zM141 258q5 2 12 6.5t17 11.5q6 5 13.5 10t14.5 12q5 3 9.5 7t9.5 8q27 23 45 38t27 24q-4 9 -12 9q-20 0 -67 -36q-51 -41 -67 -68q-5 -7 -5 -17q0 -6 3 -5z" />
    <glyph glyph-name="guillemotleft" unicode="&#xab;" horiz-adv-x="451" 
d="M158 21l-8 3q-11 30 -21 77q-5 20 -9 39t-8 39q209 129 213 128l7 -3l1 -7q-11 -17 -77 -67l-85 -60l-1 -136l-5 -10zM303 21l-8 3q-7 15 -21 75l-8 40t-9 40q209 129 213 128l6 -3l1 -7q-6 -11 -25 -27q-10 -8 -22.5 -18.5t-28.5 -21.5l-85 -60l-1 -136l-5 -10z" />
    <glyph glyph-name="logicalnot" unicode="&#xac;" horiz-adv-x="529" 
d="M125 213q-4 0 -14.5 10t-10.5 15q0 1 0.5 1.5l0.5 0.5q5 2 24 3.5t43.5 2.5t48 1.5t36.5 0.5q21 0 49 -1t55 -2.5t45 -4.5q10 10 14 9q3 0 4 -13l2 -1q7 0 7 -5q0 -3 -8 -5q-1 -10 -4.5 -33.5t-7.5 -45t-7 -26.5q-6 -12 -10 -12q-5 0 -5 14t1 35t2 40t2 27
q-27 -1 -61.5 -1.5t-52.5 -1.5q-50 -2 -90 -5t-63 -3z" />
    <glyph glyph-name="uni00AD" unicode="&#xad;" horiz-adv-x="375" 
d="M142 213q-9 0 -9 6q0 14 23 29q44 3 82 3q33 0 63 -2t56 -6l28 -4q9 -1 9 -7q0 -7 -11 -7h-11h-9t-12 1q-55 1 -106.5 -2t-102.5 -11z" />
    <glyph glyph-name="registered" unicode="&#xae;" horiz-adv-x="628" 
d="M287 -11q-71 0 -122 42q-54 44 -54 114q0 118 127 229q123 108 242 108q71 0 121 -44t50 -114q0 -116 -123 -226q-121 -109 -241 -109zM478 83q135 108 135 233q0 64 -40 105t-103 41q-107 0 -214 -98q93 35 169 35q47 0 84 -15q50 -20 50 -61q0 -50 -71 -79
q-58 -23 -114 -23q13 -47 36 -85q32 -52 68 -53zM301 10q79 0 158 58q-36 9 -72 65q-30 45 -43 91q-12 0 -12 3q8 5 11 4l7 5l9 -3q175 25 175 97q0 57 -113 57q-38 0 -99 -19q-58 -16 -96 -36q-79 -94 -79 -188q0 -60 48 -98q44 -36 106 -36zM220 36q-11 0 -11 36
q0 42 80 161q35 51 64 88t53 60q20 -8 22 -11q0 -1 -51 -66q-61 -78 -96 -132q-52 -82 -57 -125q0 -11 -4 -11z" />
    <glyph glyph-name="macron" unicode="&#xaf;" horiz-adv-x="500" 
d="M159 380q-7 0 -7 6q0 14 19 29q36 3 68 3q28 0 52 -2t46 -6l23 -4q8 -2 8 -7q0 -7 -9 -7h-9h-7.5t-10.5 1q-45 1 -87.5 -2t-85.5 -11z" />
    <glyph glyph-name="degree" unicode="&#xb0;" horiz-adv-x="312" 
d="M298 368q-27 0 -46.5 19t-19.5 45t19.5 45t46.5 19q28 0 47.5 -19t19.5 -45t-19.5 -45t-47.5 -19zM297 389q19 0 31.5 12.5t12.5 30.5q0 17 -12.5 29.5t-31.5 12.5q-18 0 -30.5 -12.5t-12.5 -29.5q0 -18 12.5 -30.5t30.5 -12.5z" />
    <glyph glyph-name="plusminus" unicode="&#xb1;" horiz-adv-x="478" 
d="M309 78q-10 4 -10 152q-18 0 -69 -3q-22 -1 -39.5 -1.5t-30.5 -0.5q-6 0 -12 7.5t-7 13.5l5 5q16 1 55 3q19 1 43.5 1h54.5q0 20 -3 69q-3 44 -3 69q0 6 8 12t14 6l5 -5q2 -19 3 -44.5t1 -58.5v-48q140 0 154 -7q6 -1 6 -6v-4l-9 -6h-75q-13 -1 -24 -1h-20h-32
q0 -133 -7 -147q-4 -6 -8 -6zM213 5q-4 0 -12.5 9.5t-8.5 14.5q1 1 2 1q17 7 97 7q87 0 106 -12q3 -1 3 -3q0 -5 -6 -5q-30 0 -92 -6q-60 -6 -89 -6z" />
    <glyph glyph-name="uni00B2" unicode="&#xb2;" horiz-adv-x="286" 
d="M14 199q-9 0 -9 8q0 22 74 78q27 20 56 40t62 40q32 20 46.5 37t14.5 31q0 32 -39 32q-36 0 -73 -30q-1 -4 -7 -11.5t-17 -18.5q-3 -5 -8 -5q-9 0 -9 13q0 22 45 45q35 19 63 22q7 0 10 1h7q61 0 56 -51q-2 -33 -92 -90q-27 -16 -44 -27t-25 -18q-15 -10 -29.5 -23.5
t-28.5 -29.5l20 5t26 5q39 6 69 6q32 0 45 -6q12 -5 12 -22q0 -16 -21 -29q-3 -2 -9 -2q-8 0 -8 6q0 2 3 5l3 3q5 4 5 9q0 11 -11.5 15t-27.5 4q-12 0 -27.5 -2.5t-35.5 -8.5q-7 -2 -20.5 -6.5t-33.5 -12.5q-33 -12 -42 -12z" />
    <glyph glyph-name="uni00B3" unicode="&#xb3;" horiz-adv-x="296" 
d="M-13 150q-7 0 -7 6q0 8 13 11q36 8 71.5 23t71.5 35q96 53 96 104q0 17 -11.5 31t-28.5 15l-21 2q-25 -11 -44 -11q-20 0 -20 14q0 11 16.5 16t41.5 4q51 22 51 39q0 15 -29 15q-11 0 -21.5 -2t-19.5 -5q-13 -5 -19 -11q-4 -7 -8 -7q-8 0 -8 9q0 4 4 10q9 9 27 16
q26 9 53 9q53 0 53 -32q0 -23 -42 -46q23 -6 36.5 -24.5t13.5 -41.5q0 -59 -106 -117q-37 -19 -76.5 -34.5t-81.5 -26.5q-2 -1 -5 -1z" />
    <glyph glyph-name="acute" unicode="&#xb4;" horiz-adv-x="500" 
d="M238 365q-3 0 -3 2q0 4 4.5 8.5t6.5 5.5q8 8 20 22t24.5 28.5t19.5 22.5q5 6 10 10t12 4q6 0 15.5 -6t9.5 -14q0 -6 -13.5 -16t-21.5 -16l-30 -20t-33 -21.5t-21 -9.5z" />
    <glyph glyph-name="uni00B5" unicode="&#xb5;" horiz-adv-x="381" 
d="M-127 -362q-29 0 -29 47q0 32 10.5 78.5t36.5 107.5t70.5 137.5t112.5 168.5q6 9 12.5 19.5t13.5 22.5l2 8t2 9q1 8 6 22q2 5 26 12q14 5 26 9.5t20 8.5q7 4 12 4q11 0 11 -10q0 -1 -2 -7q-27 -32 -54 -65t-54 -68q-48 -61 -48 -89q0 -8 8 -8q15 0 65 32l42 28t41 28
q48 32 88.5 64t73.5 63q11 8 20 8q14 0 14 -9q0 -5 -4 -9q-23 -28 -39.5 -50.5t-26.5 -41.5l-52 -104q26 11 64 26.5t90 35.5q3 1 5.5 1.5t3.5 0.5q8 0 8 -6q0 -8 -15 -13q-40 -11 -77 -30q-17 -9 -33 -18t-33 -19q-1 -1 -3 -2l-6 -3t-8.5 -6t-11.5 -9q-20 -14 -28 -14
q-22 0 -22 19l2 8q20 31 40 68t42 80q-10 -7 -21.5 -15t-24.5 -18t-27.5 -21t-31.5 -22l-76 -50q-67 -40 -95 -42h-2q-10 0 -14 10q-63 -101 -99 -179.5t-36 -150.5q0 -8 0.5 -15.5t1.5 -16.5q0 -2 1 -3t3 -7q2 -5 -1 -5z" />
    <glyph glyph-name="paragraph" unicode="&#xb6;" horiz-adv-x="558" 
d="M64 -177q-16 0 -16 9q3 6 10 6q88 0 178 182q16 33 42 99t62 166q-154 13 -154 113q0 87 97 151q89 57 178 57q9 0 22.5 0.5t31.5 1.5t31.5 1.5t22.5 0.5q28 0 39 -4q42 42 85 42q31 0 32 -13q-4 -4 -19 -5q-58 -3 -142 -182l-69 -165q-17 -41 -35 -82.5t-35 -82.5
q-78 -177 -121 -177q-6 0 -6 4q2 8 14 16q27 24 69 117q16 35 28.5 68t22.5 62q67 195 67 200q47 120 99 184h-10q-104 0 -259 -440q-34 -101 -102 -199q-88 -130 -163 -130z" />
    <glyph glyph-name="periodcentered" unicode="&#xb7;" horiz-adv-x="221" 
d="M121 144q-35 0 -23 15q4 4 8 9l8 10t9 10.5t10 11.5q16 13 34 13q12 0 12 -10q0 -8 -7 -21q-11 -19 -19 -28.5t-32 -9.5z" />
    <glyph glyph-name="cedilla" unicode="&#xb8;" horiz-adv-x="500" 
d="M123 -171q-5 0 -5 6q2 6 7 6q26 3 47 13t21 37q0 11 -6.5 23.5t-6.5 25.5q0 20 20 41.5t51 21.5q7 0 6 -4q-16 -3 -28 -17.5t-12 -25.5q0 -14 8.5 -25t8.5 -29q0 -25 -20 -41.5t-46.5 -24t-44.5 -7.5z" />
    <glyph glyph-name="uni00B9" unicode="&#xb9;" horiz-adv-x="306" 
d="M56 201q-16 0 -16 11q0 3 1 4q10 13 30 20l18 6q5 2 9 3.5t8 2.5q5 9 13.5 24.5t19.5 35.5l58 105q3 3 6 9l4 6t4 7q-5 -4 -16.5 -11.5t-30.5 -18.5q-2 -1 -4 -1t-2 2q0 9 11 14q3 2 7.5 5.5t11.5 8.5l33 28q27 25 45 23q0 -4 -15 -24q-10 -16 -19 -30.5t-17 -27.5
q-14 -24 -34 -60t-47 -86q18 5 33.5 8.5t27.5 3.5h14q10 0 10 -8q0 -7 -10 -7h-14q-14 0 -38 -9l-20 -8q-4 -1 -9 -3l-10 -4q-29 -29 -62 -29z" />
    <glyph glyph-name="ordmasculine" unicode="&#xba;" horiz-adv-x="196" 
d="M129 225q-24 0 -24 25q0 36 35 76q14 19 36 44q-3 2 -9 3q-9 3 -9 10q0 10 12 10q5 0 13 1t18 4l16 10q7 4 16 4q5 -1 8.5 -2.5t6.5 -3.5l16 -8q1 -1 2 -1.5l1 -0.5l64 1q12 0 12 -7q0 -6 -12 -8q-6 -1 -11 -1.5t-10 -0.5q0 -2 1 -2v-4q0 -18 -23 -50q-9 -13 -20.5 -24
t-22.5 -19q-53 -40 -95 -52q-5 -1 -11 -2.5t-10 -1.5zM135 244q4 0 6 1q39 12 89 49q9 6 17.5 15t16.5 19q20 26 20 40q0 5 -4 9h-26q-13 0 -22 -2t-15 -5q-9 -6 -21.5 -19t-29.5 -33q-5 -7 -11 -15t-12 -18q-7 -11 -10.5 -19t-4.5 -13v-3q0 -6 7 -6z" />
    <glyph glyph-name="guillemotright" unicode="&#xbb;" horiz-adv-x="451" 
d="M36 21l-8 2l-1 4q0 13 80 72l82 59l1 136l5 9l8 4l9 -4q12 -28 21 -76l15 -77l-205 -128zM180 21l-7 2v9q7 10 26 26.5t50 39.5l85 60v45q-2 38 0 61q1 32 5 39l8 4l8 -4q5 -5 38 -153l-205 -128z" />
    <glyph glyph-name="onequarter" unicode="&#xbc;" horiz-adv-x="695" 
d="M181 -78q-4 0 -9.5 2.5t-7.5 6.5q-2 6 -2 11q0 41 63 153q35 61 73.5 118.5t84.5 113.5q92 118 134 124q9 2 9 -2l-1 -3q-107 -110 -171 -196.5t-104 -161.5q-10 -18 -21.5 -39.5t-20 -40.5t-11.5 -28q-5 -15 -7 -32.5t-2 -19.5q2 -2 0 -4t-5 -2h-2zM56 201q-16 0 -16 11
q0 3 1 4q10 13 30 20l18 6q5 2 9 3.5t8 2.5q5 9 13.5 24.5t19.5 35.5l58 105q3 3 6 9l4 6t4 7q-5 -4 -16.5 -11.5t-30.5 -18.5q-2 -1 -4 -1t-2 2q0 9 11 14q3 2 7.5 5.5t11.5 8.5l33 28q27 25 45 23q0 -4 -15 -24q-10 -16 -19 -30.5t-17 -27.5q-14 -24 -34 -60t-47 -86
q18 5 33.5 8.5t27.5 3.5h14q10 0 10 -8q0 -7 -10 -7h-14q-14 0 -38 -9l-20 -8q-4 -1 -9 -3l-10 -4q-29 -29 -62 -29zM451 -36q-16 0 -16 16q0 2 0.5 3.5t0.5 3.5t1 3q4 17 16 41t31 57q-13 -3 -66 -18q-58 -16 -68 -13q-5 2 -6 7q0 8 5 10q67 47 121 90t94 83q2 1 4 1
q9 0 9 -9q0 -2 -1 -3q-18 -17 -40.5 -37.5t-50.5 -43.5l-79 -66l90 18q10 14 22 30.5t28 35.5q20 23 33.5 39t18.5 24q2 3 7.5 7.5t16.5 11.5q19 12 27 12q6 0 6 -3q0 -5 -18 -16q-32 -22 -72 -77l-14 -21q-3 -4 -6.5 -9.5t-7.5 -12.5q-3 -4 -6.5 -9t-6.5 -11q37 4 55.5 5.5
t22.5 1.5h14t14 -2q19 -3 19 -10q0 -8 -13 -6q-17 4 -43 4q-16 0 -35.5 -1.5t-42.5 -6.5l-25 -43q-19 -34 -19 -52q0 -11 3 -11q6 0 25 15q3 1 5 1.5t3 0.5q9 0 9 -5q0 -1 -1 -2t-1 -2q-40 -31 -63 -31z" />
    <glyph glyph-name="onehalf" unicode="&#xbd;" horiz-adv-x="698" 
d="M181 -78q-4 0 -9.5 2.5t-7.5 6.5q-2 6 -2 11q0 41 63 153q35 61 73.5 118.5t84.5 113.5q92 118 134 124q9 2 9 -2l-1 -3q-107 -110 -171 -196.5t-104 -161.5q-10 -18 -21.5 -39.5t-20 -40.5t-11.5 -28q-5 -15 -7 -32.5t-2 -19.5q2 -2 0 -4t-5 -2h-2zM56 201q-16 0 -16 11
q0 3 1 4q10 13 30 20l18 6q5 2 9 3.5t8 2.5q5 9 13.5 24.5t19.5 35.5l58 105q3 3 6 9l4 6t4 7q-5 -4 -16.5 -11.5t-30.5 -18.5q-2 -1 -4 -1t-2 2q0 9 11 14q3 2 7.5 5.5t11.5 8.5l33 28q27 25 45 23q0 -4 -15 -24q-10 -16 -19 -30.5t-17 -27.5q-14 -24 -34 -60t-47 -86
q18 5 33.5 8.5t27.5 3.5h14q10 0 10 -8q0 -7 -10 -7h-14q-14 0 -38 -9l-20 -8q-4 -1 -9 -3l-10 -4q-29 -29 -62 -29zM386 -30q-9 0 -9 8q0 22 74 78q27 20 56 40t62 40q32 20 46.5 37t14.5 31q0 32 -39 32q-36 0 -73 -30q-1 -4 -7 -11.5t-17 -18.5q-3 -5 -8 -5q-9 0 -9 13
q0 22 45 45q35 19 63 22q7 0 10 1h7q61 0 56 -51q-2 -33 -92 -90q-27 -16 -44 -27t-25 -18q-15 -10 -29.5 -23.5t-28.5 -29.5l20 5t26 5q39 6 69 6q32 0 45 -6q12 -5 12 -22q0 -16 -21 -29q-3 -2 -9 -2q-8 0 -8 6q0 2 3 5l3 3q5 4 5 9q0 11 -11.5 15t-27.5 4
q-12 0 -27.5 -2.5t-35.5 -8.5q-7 -2 -20.5 -6.5t-33.5 -12.5q-33 -12 -42 -12z" />
    <glyph glyph-name="threequarters" unicode="&#xbe;" horiz-adv-x="695" 
d="M181 -78q-4 0 -9.5 2.5t-7.5 6.5q-2 6 -2 11q0 41 63 153q35 61 73.5 118.5t84.5 113.5q92 118 134 124q9 2 9 -2l-1 -3q-107 -110 -171 -196.5t-104 -161.5q-10 -18 -21.5 -39.5t-20 -40.5t-11.5 -28q-5 -15 -7 -32.5t-2 -19.5q2 -2 0 -4t-5 -2h-2zM451 -36
q-16 0 -16 16q0 2 0.5 3.5t0.5 3.5t1 3q4 17 16 41t31 57q-13 -3 -66 -18q-58 -16 -68 -13q-5 2 -6 7q0 8 5 10q67 47 121 90t94 83q2 1 4 1q9 0 9 -9q0 -2 -1 -3q-18 -17 -40.5 -37.5t-50.5 -43.5l-79 -66l90 18q10 14 22 30.5t28 35.5q20 23 33.5 39t18.5 24q2 3 7.5 7.5
t16.5 11.5q19 12 27 12q6 0 6 -3q0 -5 -18 -16q-32 -22 -72 -77l-14 -21q-3 -4 -6.5 -9.5t-7.5 -12.5q-3 -4 -6.5 -9t-6.5 -11q37 4 55.5 5.5t22.5 1.5h14t14 -2q19 -3 19 -10q0 -8 -13 -6q-17 4 -43 4q-16 0 -35.5 -1.5t-42.5 -6.5l-25 -43q-19 -34 -19 -52q0 -11 3 -11
q6 0 25 15q3 1 5 1.5t3 0.5q9 0 9 -5q0 -1 -1 -2t-1 -2q-40 -31 -63 -31zM-13 150q-7 0 -7 6q0 8 13 11q36 8 71.5 23t71.5 35q96 53 96 104q0 17 -11.5 31t-28.5 15l-21 2q-25 -11 -44 -11q-20 0 -20 14q0 11 16.5 16t41.5 4q51 22 51 39q0 15 -29 15q-11 0 -21.5 -2
t-19.5 -5q-13 -5 -19 -11q-4 -7 -8 -7q-8 0 -8 9q0 4 4 10q9 9 27 16q26 9 53 9q53 0 53 -32q0 -23 -42 -46q23 -6 36.5 -24.5t13.5 -41.5q0 -59 -106 -117q-37 -19 -76.5 -34.5t-81.5 -26.5q-2 -1 -5 -1z" />
    <glyph glyph-name="questiondown" unicode="&#xbf;" horiz-adv-x="480" 
d="M399 271q-31 0 -31 12q0 3 4 6q10 7 20 16t20 20q8 8 27 8q30 0 18 -14q-7 -9 -15.5 -19.5t-19.5 -22.5q-7 -6 -23 -6zM192 -236q-70 0 -117 36.5t-47 95.5q0 75 77 115l137 52q83 32 106 80q9 18 19 18q5 0 5 -8q0 -6 -3 -15q-14 -47 -92 -79l-137 -54q-40 -21 -59 -48
t-19 -62q0 -41 26 -71q32 -39 96 -39q69 0 106 21q36 20 56 76q4 9 4 28q0 50 -20 58q-6 2 -6 7q0 8 13 4q17 -7 29.5 -27.5t12.5 -44.5q0 -15 -4 -26q-19 -62 -83 -94q-46 -23 -100 -23z" />
    <glyph glyph-name="Agrave" unicode="&#xc0;" horiz-adv-x="905" 
d="M91 -132q-115 0 -115 96q0 84 101 209q107 131 242 164q11 2 21 3.5t19 1.5q56 0 56 -38q0 -24 -10 -24l-4 6q-1 2 -2 3.5t-3 3.5l-7 10q-17 23 -44 23q-102 0 -248 -165q-78 -88 -78 -186q0 -101 97 -91q82 9 194 79t258 197l79 69q-86 -6 -259 -27q-16 0 -16 18
q0 30 25 30q55 16 90 16h1q0 -2 -11 -8q-14 -8 -10 -8q43 0 91.5 0.5t103.5 1.5q2 1 12 1l160 140q45 40 76.5 69.5t50.5 49.5q8 8 12 8q3 0 3 -4q0 -6 -6 -12q-19 -19 -43.5 -44.5t-55.5 -56.5t-67 -68t-78 -80h18h10.5t12.5 1h41q29 56 67 106l92 121q23 30 48.5 55
t51.5 47q10 10 20 10q5 0 5 -3q0 -4 -7 -10q-38 -32 -85 -90.5t-103 -145.5q-16 -25 -28.5 -47t-21.5 -42q7 1 13.5 1h11.5h20q22 0 22 -7q0 -6 -18 -8q-2 0 -4.5 0.5t-4.5 0.5q-20 0 -52 -15q-50 -114 -50 -183q0 -22 4 -30q3 -4 9 -4q9 0 35 17q32 23 36 24q14 8 31 17
t38 18q6 2 6 -3v-2q0 -3 -8 -6q-28 -10 -75 -42q-53 -38 -78 -70q-4 -6 -15 -6q-13 0 -26 10t-14 22q0 5 -0.5 9t-0.5 8q0 85 71 229q-28 -1 -57 -6.5t-60 -13.5l-91 -82q-57 -51 -114.5 -94t-116.5 -78q-158 -95 -268 -95zM1126 685q-7 0 -26 8.5t-40 20t-36 18.5
q-9 5 -26.5 14t-17.5 15q0 7 12 12.5t20 5.5q9 0 15 -3.5t11 -9.5q9 -7 23.5 -20t30 -25.5t23.5 -18.5q4 -3 8.5 -7.5t4.5 -7.5q0 -2 -2 -2z" />
    <glyph glyph-name="Aacute" unicode="&#xc1;" horiz-adv-x="905" 
d="M91 -132q-115 0 -115 96q0 84 101 209q107 131 242 164q11 2 21 3.5t19 1.5q56 0 56 -38q0 -24 -10 -24l-4 6q-1 2 -2 3.5t-3 3.5l-7 10q-17 23 -44 23q-102 0 -248 -165q-78 -88 -78 -186q0 -101 97 -91q82 9 194 79t258 197l79 69q-86 -6 -259 -27q-16 0 -16 18
q0 30 25 30q55 16 90 16h1q0 -2 -11 -8q-14 -8 -10 -8q43 0 91.5 0.5t103.5 1.5q2 1 12 1l160 140q45 40 76.5 69.5t50.5 49.5q8 8 12 8q3 0 3 -4q0 -6 -6 -12q-19 -19 -43.5 -44.5t-55.5 -56.5t-67 -68t-78 -80h18h10.5t12.5 1h41q29 56 67 106l92 121q23 30 48.5 55
t51.5 47q10 10 20 10q5 0 5 -3q0 -4 -7 -10q-38 -32 -85 -90.5t-103 -145.5q-16 -25 -28.5 -47t-21.5 -42q7 1 13.5 1h11.5h20q22 0 22 -7q0 -6 -18 -8q-2 0 -4.5 0.5t-4.5 0.5q-20 0 -52 -15q-50 -114 -50 -183q0 -22 4 -30q3 -4 9 -4q9 0 35 17q32 23 36 24q14 8 31 17
t38 18q6 2 6 -3v-2q0 -3 -8 -6q-28 -10 -75 -42q-53 -38 -78 -70q-4 -6 -15 -6q-13 0 -26 10t-14 22q0 5 -0.5 9t-0.5 8q0 85 71 229q-28 -1 -57 -6.5t-60 -13.5l-91 -82q-57 -51 -114.5 -94t-116.5 -78q-158 -95 -268 -95zM1100 685q-2 0 -2 2q0 3 4.5 7.5t8.5 7.5
q9 6 23.5 18.5t30 25.5t23.5 20q5 6 11 9.5t15 3.5q8 0 20 -5.5t12 -12.5q0 -6 -17.5 -15t-26.5 -14q-14 -7 -35.5 -18.5t-40.5 -20t-26 -8.5z" />
    <glyph glyph-name="Acircumflex" unicode="&#xc2;" horiz-adv-x="905" 
d="M91 -132q-115 0 -115 96q0 84 101 209q107 131 242 164q11 2 21 3.5t19 1.5q56 0 56 -38q0 -24 -10 -24l-4 6q-1 2 -2 3.5t-3 3.5l-7 10q-17 23 -44 23q-102 0 -248 -165q-78 -88 -78 -186q0 -101 97 -91q82 9 194 79t258 197l79 69q-86 -6 -259 -27q-16 0 -16 18
q0 30 25 30q55 16 90 16h1q0 -2 -11 -8q-14 -8 -10 -8q43 0 91.5 0.5t103.5 1.5q2 1 12 1l160 140q45 40 76.5 69.5t50.5 49.5q8 8 12 8q3 0 3 -4q0 -6 -6 -12q-19 -19 -43.5 -44.5t-55.5 -56.5t-67 -68t-78 -80h18h10.5t12.5 1h41q29 56 67 106l92 121q23 30 48.5 55
t51.5 47q10 10 20 10q5 0 5 -3q0 -4 -7 -10q-38 -32 -85 -90.5t-103 -145.5q-16 -25 -28.5 -47t-21.5 -42q7 1 13.5 1h11.5h20q22 0 22 -7q0 -6 -18 -8q-2 0 -4.5 0.5t-4.5 0.5q-20 0 -52 -15q-50 -114 -50 -183q0 -22 4 -30q3 -4 9 -4q9 0 35 17q32 23 36 24q14 8 31 17
t38 18q6 2 6 -3v-2q0 -3 -8 -6q-28 -10 -75 -42q-53 -38 -78 -70q-4 -6 -15 -6q-13 0 -26 10t-14 22q0 5 -0.5 9t-0.5 8q0 85 71 229q-28 -1 -57 -6.5t-60 -13.5l-91 -82q-57 -51 -114.5 -94t-116.5 -78q-158 -95 -268 -95zM1002 686q-3 0 -3 2t15 11.5t37 22t43 25t34 20.5
q14 9 23 14t15 5q10 0 16 -19q5 -16 10.5 -32.5t11.5 -28.5t6 -17q0 -4 -3 -4q-5 0 -14 6q-10 6 -26 17.5t-26 26.5q-32 -13 -67.5 -25.5t-58.5 -20.5q-7 -3 -13 -3z" />
    <glyph glyph-name="Atilde" unicode="&#xc3;" horiz-adv-x="905" 
d="M91 -132q-115 0 -115 96q0 84 101 209q107 131 242 164q11 2 21 3.5t19 1.5q56 0 56 -38q0 -24 -10 -24l-4 6q-1 2 -2 3.5t-3 3.5l-7 10q-17 23 -44 23q-102 0 -248 -165q-78 -88 -78 -186q0 -101 97 -91q82 9 194 79t258 197l79 69q-86 -6 -259 -27q-16 0 -16 18
q0 30 25 30q55 16 90 16h1q0 -2 -11 -8q-14 -8 -10 -8q43 0 91.5 0.5t103.5 1.5q2 1 12 1l160 140q45 40 76.5 69.5t50.5 49.5q8 8 12 8q3 0 3 -4q0 -6 -6 -12q-19 -19 -43.5 -44.5t-55.5 -56.5t-67 -68t-78 -80h18h10.5t12.5 1h41q29 56 67 106l92 121q23 30 48.5 55
t51.5 47q10 10 20 10q5 0 5 -3q0 -4 -7 -10q-38 -32 -85 -90.5t-103 -145.5q-16 -25 -28.5 -47t-21.5 -42q7 1 13.5 1h11.5h20q22 0 22 -7q0 -6 -18 -8q-2 0 -4.5 0.5t-4.5 0.5q-20 0 -52 -15q-50 -114 -50 -183q0 -22 4 -30q3 -4 9 -4q9 0 35 17q32 23 36 24q14 8 31 17
t38 18q6 2 6 -3v-2q0 -3 -8 -6q-28 -10 -75 -42q-53 -38 -78 -70q-4 -6 -15 -6q-13 0 -26 10t-14 22q0 5 -0.5 9t-0.5 8q0 85 71 229q-28 -1 -57 -6.5t-60 -13.5l-91 -82q-57 -51 -114.5 -94t-116.5 -78q-158 -95 -268 -95zM1175 700q-16 0 -38.5 7.5t-44.5 15t-37 7.5
q-16 0 -28 -12t-17 -12q-3 0 -3 4q0 6 6.5 18.5t18 23t26.5 10.5t36 -6.5t44 -13.5t43 -7q14 0 22.5 9.5t11.5 10.5q4 0 4 -11q-5 -14 -16 -29t-28 -15z" />
    <glyph glyph-name="Adieresis" unicode="&#xc4;" horiz-adv-x="905" 
d="M91 -132q-115 0 -115 96q0 84 101 209q107 131 242 164q11 2 21 3.5t19 1.5q56 0 56 -38q0 -24 -10 -24l-4 6q-1 2 -2 3.5t-3 3.5l-7 10q-17 23 -44 23q-102 0 -248 -165q-78 -88 -78 -186q0 -101 97 -91q82 9 194 79t258 197l79 69q-86 -6 -259 -27q-16 0 -16 18
q0 30 25 30q55 16 90 16h1q0 -2 -11 -8q-14 -8 -10 -8q43 0 91.5 0.5t103.5 1.5q2 1 12 1l160 140q45 40 76.5 69.5t50.5 49.5q8 8 12 8q3 0 3 -4q0 -6 -6 -12q-19 -19 -43.5 -44.5t-55.5 -56.5t-67 -68t-78 -80h18h10.5t12.5 1h41q29 56 67 106l92 121q23 30 48.5 55
t51.5 47q10 10 20 10q5 0 5 -3q0 -4 -7 -10q-38 -32 -85 -90.5t-103 -145.5q-16 -25 -28.5 -47t-21.5 -42q7 1 13.5 1h11.5h20q22 0 22 -7q0 -6 -18 -8q-2 0 -4.5 0.5t-4.5 0.5q-20 0 -52 -15q-50 -114 -50 -183q0 -22 4 -30q3 -4 9 -4q9 0 35 17q32 23 36 24q14 8 31 17
t38 18q6 2 6 -3v-2q0 -3 -8 -6q-28 -10 -75 -42q-53 -38 -78 -70q-4 -6 -15 -6q-13 0 -26 10t-14 22q0 5 -0.5 9t-0.5 8q0 85 71 229q-28 -1 -57 -6.5t-60 -13.5l-91 -82q-57 -51 -114.5 -94t-116.5 -78q-158 -95 -268 -95zM1166 705q-6 0 -11.5 9.5t-5.5 14.5q0 9 10 17.5
t22.5 14t19.5 5.5t7 -4q0 -5 -3 -11.5t-8 -14.5q-6 -7 -10 -19t-21 -12zM1035 705q-6 0 -11.5 9.5t-5.5 14.5q0 9 10 17.5t22.5 14t19.5 5.5t7 -4q0 -5 -3 -11.5t-8 -14.5q-6 -7 -10 -19t-21 -12z" />
    <glyph glyph-name="Aring" unicode="&#xc5;" horiz-adv-x="905" 
d="M91 -132q-115 0 -115 96q0 84 101 209q107 131 242 164q11 2 21 3.5t19 1.5q56 0 56 -38q0 -24 -10 -24l-4 6q-1 2 -2 3.5t-3 3.5l-7 10q-17 23 -44 23q-102 0 -248 -165q-78 -88 -78 -186q0 -101 97 -91q82 9 194 79t258 197l79 69q-86 -6 -259 -27q-16 0 -16 18
q0 30 25 30q55 16 90 16h1q0 -2 -11 -8q-14 -8 -10 -8q43 0 91.5 0.5t103.5 1.5q2 1 12 1l160 140q45 40 76.5 69.5t50.5 49.5q8 8 12 8q3 0 3 -4q0 -6 -6 -12q-19 -19 -43.5 -44.5t-55.5 -56.5t-67 -68t-78 -80h18h10.5t12.5 1h41q29 56 67 106l92 121q23 30 48.5 55
t51.5 47q10 10 20 10q5 0 5 -3q0 -4 -7 -10q-38 -32 -85 -90.5t-103 -145.5q-16 -25 -28.5 -47t-21.5 -42q7 1 13.5 1h11.5h20q22 0 22 -7q0 -6 -18 -8q-2 0 -4.5 0.5t-4.5 0.5q-20 0 -52 -15q-50 -114 -50 -183q0 -22 4 -30q3 -4 9 -4q9 0 35 17q32 23 36 24q14 8 31 17
t38 18q6 2 6 -3v-2q0 -3 -8 -6q-28 -10 -75 -42q-53 -38 -78 -70q-4 -6 -15 -6q-13 0 -26 10t-14 22q0 5 -0.5 9t-0.5 8q0 85 71 229q-28 -1 -57 -6.5t-60 -13.5l-91 -82q-57 -51 -114.5 -94t-116.5 -78q-158 -95 -268 -95zM1112 686q-18 0 -31 10t-13 29q0 32 25 57t57 25
q23 0 34.5 -13.5t11.5 -33.5q0 -28 -25.5 -51t-58.5 -23zM1118 706q24 0 38 16.5t14 34.5q0 10 -8 21.5t-21 11.5q-16 0 -30 -17.5t-14 -39.5q0 -12 4.5 -19.5t16.5 -7.5z" />
    <glyph glyph-name="AE" unicode="&#xc6;" horiz-adv-x="1481" 
d="M91 -132q-115 0 -115 96q0 84 101 209q107 131 242 164q11 2 21 3.5t19 1.5q56 0 56 -38q0 -24 -10 -24l-4 6q-1 2 -2 3.5t-3 3.5l-7 10q-17 23 -44 23q-102 0 -248 -165q-78 -88 -78 -186q0 -101 97 -91q82 9 194 79t258 197l79 69q-86 -6 -259 -27q-16 0 -16 18
q0 30 25 30q55 16 90 16h1q0 -2 -11 -8q-14 -8 -10 -8q43 0 91.5 0.5t103.5 1.5q2 1 12 1l160 140q45 40 76.5 69.5t50.5 49.5q8 8 12 8q3 0 3 -4q0 -6 -6 -12q-19 -19 -43.5 -44.5t-55.5 -56.5t-67 -68t-78 -80h16h10t10 1h35l26 28q13 22 26 41.5t26 36.5q46 60 92 119
t100 104q10 10 20 10q5 0 5 -3q0 -4 -7 -10q-37 -31 -82 -87t-99 -139q52 42 108.5 75t119.5 59q125 53 243 60q5 1 10 1h9h16q58 0 83 -19q27 -19 27 -66q0 -58 -26 -58q-20 0 -20 30q0 2 0.5 6t1.5 9t1 9v7q0 33 -27.5 49.5t-72.5 13.5q-135 -9 -293 -101
q-122 -70 -205 -156q5 2 165 21q43 5 76 8t58 3q69 0 126 -18q48 -16 48 -50q0 -26 -27 -47q-10 -9 -18 -9t-9 10q0 14 15 21q12 6 12 15q0 20 -34 30q-66 20 -145 20q-39 0 -97 -6t-136 -19q2 -2 2 -4q0 -6 -19 -7h-6.5t-9.5 -1l-31 -3q-87 -121 -87 -199q0 -106 155 -106
q41 0 85 5.5t90 21.5l152 51q69 23 153 66l140 73q7 4 13 4q7 0 7 -6q0 -9 -15 -18q-45 -26 -78.5 -45t-56.5 -31q-49 -26 -91 -46t-79 -34q-95 -36 -142 -48q-82 -20 -167 -20q-93 0 -153 48t-60 123q0 74 62 154q-76 -10 -96 -15l-91 -82q-57 -51 -114.5 -94t-116.5 -78
q-158 -95 -268 -95z" />
    <glyph glyph-name="Ccedilla" unicode="&#xc7;" horiz-adv-x="780" 
d="M208 -93q-93 0 -153 48t-60 123q0 83 73 168q103 121 258 205q165 89 328 99q9 1 17.5 1h15.5q49 0 73 -12q42 42 54 42q7 0 7 -7q0 -9 -10 -16l-34 -30q23 -20 23 -62q0 -66 -66 -125q-57 -51 -100 -51q-24 0 -24 22q0 6 1 10q15 83 126 195q-27 18 -81 15
q-142 -9 -319 -113q-146 -87 -209 -167q-98 -125 -98 -204q0 -110 170 -110q85 0 170 21q10 2 24 6.5t32 9.5l40.5 13.5t49.5 15.5q34 11 73 29t84 41l72 38t72 39q7 4 12 4q8 0 8 -6q0 -10 -15 -18q-44 -25 -77.5 -44t-58.5 -32q-49 -26 -91.5 -46t-78.5 -34
q-93 -36 -141 -48q-82 -20 -167 -20zM670 324q25 0 59 43q38 47 38 89q0 29 -15 48q-71 -71 -94 -158q0 -1 -0.5 -3t0.5 -4q0 -15 12 -15zM36 -290q-3 0 -4 3t-1 4q1 4 3.5 4.5t3.5 0.5q29 4 54 16.5t25 43.5q0 14 -7.5 27.5t-7.5 29.5t9.5 32.5t27 28.5t39.5 12q8 0 7 -5
q-25 -4 -35 -20.5t-10 -28.5q0 -16 9.5 -29t9.5 -34q0 -29 -22.5 -48t-51.5 -28t-49 -9z" />
    <glyph glyph-name="Egrave" unicode="&#xc8;" horiz-adv-x="791" 
d="M245 -93q-93 0 -153 48q-59 48 -59 123t62 155l-52 -5q-15 -1 -25 8.5t-10 22.5q0 15 13 25q16 13 38.5 20.5t50.5 7.5h5q8 0 8 -3q0 -9 -28 -10q-13 -1 -28 -8.5t-15 -13.5t11 -8q14 -3 33 -3q7 0 14.5 0.5t15.5 1.5q105 114 253 190q79 42 157 64.5t156 27.5q5 1 10 1
h9h16q58 0 83 -19q27 -19 27 -66q0 -58 -26 -58q-20 0 -20 30q0 2 0.5 6t1.5 9t1 9v7q0 33 -27.5 49.5t-72.5 13.5q-135 -9 -293 -101q-122 -70 -205 -156q5 2 165 21q43 5 76 8t58 3q69 0 126 -18q48 -16 48 -50q0 -26 -27 -47q-10 -9 -18 -9t-9 10q0 14 15 21q12 6 12 15
q0 20 -34 30q-65 20 -144 20q-34 0 -108 -9q-37 -4 -83.5 -11t-102.5 -15q-91 -124 -91 -204q0 -106 155 -106q41 0 85 5.5t90 21.5l152 51q69 23 153 66l140 73q7 4 13 4q7 0 7 -6q0 -9 -15 -18q-45 -26 -78.5 -45t-56.5 -31q-49 -26 -91 -46t-79 -34q-95 -36 -142 -48
q-82 -20 -167 -20zM779 655q-7 0 -26 8.5t-40 20t-36 18.5q-9 5 -26.5 14t-17.5 15q0 7 12 12.5t20 5.5q9 0 15 -3.5t11 -9.5q9 -7 23.5 -20t30 -25.5t23.5 -18.5q4 -3 8.5 -7.5t4.5 -7.5q0 -2 -2 -2z" />
    <glyph glyph-name="Eacute" unicode="&#xc9;" horiz-adv-x="791" 
d="M245 -93q-93 0 -153 48q-59 48 -59 123t62 155l-52 -5q-15 -1 -25 8.5t-10 22.5q0 15 13 25q16 13 38.5 20.5t50.5 7.5h5q8 0 8 -3q0 -9 -28 -10q-13 -1 -28 -8.5t-15 -13.5t11 -8q14 -3 33 -3q7 0 14.5 0.5t15.5 1.5q105 114 253 190q79 42 157 64.5t156 27.5q5 1 10 1
h9h16q58 0 83 -19q27 -19 27 -66q0 -58 -26 -58q-20 0 -20 30q0 2 0.5 6t1.5 9t1 9v7q0 33 -27.5 49.5t-72.5 13.5q-135 -9 -293 -101q-122 -70 -205 -156q5 2 165 21q43 5 76 8t58 3q69 0 126 -18q48 -16 48 -50q0 -26 -27 -47q-10 -9 -18 -9t-9 10q0 14 15 21q12 6 12 15
q0 20 -34 30q-65 20 -144 20q-34 0 -108 -9q-37 -4 -83.5 -11t-102.5 -15q-91 -124 -91 -204q0 -106 155 -106q41 0 85 5.5t90 21.5l152 51q69 23 153 66l140 73q7 4 13 4q7 0 7 -6q0 -9 -15 -18q-45 -26 -78.5 -45t-56.5 -31q-49 -26 -91 -46t-79 -34q-95 -36 -142 -48
q-82 -20 -167 -20zM753 655q-2 0 -2 2q0 3 4.5 7.5t8.5 7.5q9 6 23.5 18.5t30 25.5t23.5 20q5 6 11 9.5t15 3.5q8 0 20 -5.5t12 -12.5q0 -6 -17.5 -15t-26.5 -14q-14 -7 -35.5 -18.5t-40.5 -20t-26 -8.5z" />
    <glyph glyph-name="Ecircumflex" unicode="&#xca;" horiz-adv-x="791" 
d="M245 -93q-93 0 -153 48q-59 48 -59 123t62 155l-52 -5q-15 -1 -25 8.5t-10 22.5q0 15 13 25q16 13 38.5 20.5t50.5 7.5h5q8 0 8 -3q0 -9 -28 -10q-13 -1 -28 -8.5t-15 -13.5t11 -8q14 -3 33 -3q7 0 14.5 0.5t15.5 1.5q105 114 253 190q79 42 157 64.5t156 27.5q5 1 10 1
h9h16q58 0 83 -19q27 -19 27 -66q0 -58 -26 -58q-20 0 -20 30q0 2 0.5 6t1.5 9t1 9v7q0 33 -27.5 49.5t-72.5 13.5q-135 -9 -293 -101q-122 -70 -205 -156q5 2 165 21q43 5 76 8t58 3q69 0 126 -18q48 -16 48 -50q0 -26 -27 -47q-10 -9 -18 -9t-9 10q0 14 15 21q12 6 12 15
q0 20 -34 30q-65 20 -144 20q-34 0 -108 -9q-37 -4 -83.5 -11t-102.5 -15q-91 -124 -91 -204q0 -106 155 -106q41 0 85 5.5t90 21.5l152 51q69 23 153 66l140 73q7 4 13 4q7 0 7 -6q0 -9 -15 -18q-45 -26 -78.5 -45t-56.5 -31q-49 -26 -91 -46t-79 -34q-95 -36 -142 -48
q-82 -20 -167 -20zM655 656q-3 0 -3 2t15 11.5t37 22t43 25t34 20.5q14 9 23 14t15 5q10 0 16 -19q5 -16 10.5 -32.5t11.5 -28.5t6 -17q0 -4 -3 -4q-5 0 -14 6q-10 6 -26 17.5t-26 26.5q-32 -13 -67.5 -25.5t-58.5 -20.5q-7 -3 -13 -3z" />
    <glyph glyph-name="Edieresis" unicode="&#xcb;" horiz-adv-x="791" 
d="M245 -93q-93 0 -153 48q-59 48 -59 123t62 155l-52 -5q-15 -1 -25 8.5t-10 22.5q0 15 13 25q16 13 38.5 20.5t50.5 7.5h5q8 0 8 -3q0 -9 -28 -10q-13 -1 -28 -8.5t-15 -13.5t11 -8q14 -3 33 -3q7 0 14.5 0.5t15.5 1.5q105 114 253 190q79 42 157 64.5t156 27.5q5 1 10 1
h9h16q58 0 83 -19q27 -19 27 -66q0 -58 -26 -58q-20 0 -20 30q0 2 0.5 6t1.5 9t1 9v7q0 33 -27.5 49.5t-72.5 13.5q-135 -9 -293 -101q-122 -70 -205 -156q5 2 165 21q43 5 76 8t58 3q69 0 126 -18q48 -16 48 -50q0 -26 -27 -47q-10 -9 -18 -9t-9 10q0 14 15 21q12 6 12 15
q0 20 -34 30q-65 20 -144 20q-34 0 -108 -9q-37 -4 -83.5 -11t-102.5 -15q-91 -124 -91 -204q0 -106 155 -106q41 0 85 5.5t90 21.5l152 51q69 23 153 66l140 73q7 4 13 4q7 0 7 -6q0 -9 -15 -18q-45 -26 -78.5 -45t-56.5 -31q-49 -26 -91 -46t-79 -34q-95 -36 -142 -48
q-82 -20 -167 -20zM819 675q-6 0 -11.5 9.5t-5.5 14.5q0 9 10 17.5t22.5 14t19.5 5.5t7 -4q0 -5 -3 -11.5t-8 -14.5q-6 -7 -10 -19t-21 -12zM688 675q-6 0 -11.5 9.5t-5.5 14.5q0 9 10 17.5t22.5 14t19.5 5.5t7 -4q0 -5 -3 -11.5t-8 -14.5q-6 -7 -10 -19t-21 -12z" />
    <glyph glyph-name="Igrave" unicode="&#xcc;" horiz-adv-x="706" 
d="M242 -86q-99 0 -167 68q-67 67 -67 168q0 106 87 197q7 7 11 7q3 0 3 -3q0 -6 -9 -17q-28 -28 -45 -77q-18 -52 -18 -105q0 -90 48 -152q50 -65 132 -65q110 0 205 56q76 46 170 149q20 23 41.5 54.5t43.5 71.5q11 22 32 64.5t51 105.5l3 7t6.5 14.5t2.5 6.5
q-57 -31 -86 -49q-45 -29 -76.5 -51.5t-48.5 -39.5q-56 -54 -53 -114q2 -4 4.5 -6.5l4.5 -4.5q11 -12 21 -12q21 0 21 -5q0 -7 -30 -7q-34 0 -40 28q-3 11 -3 23q0 45 47 99.5t144 109.5l48 27q14 8 31 17t36 20q9 20 22.5 40t32.5 39q13 13 22 13q12 0 12 -20
q0 -23 -14 -40q-16 -22 -48 -40q-1 -4 -3.5 -10t-5.5 -16q-4 -10 -7 -18.5t-7 -16.5q-92 -208 -177 -310q-44 -52 -85.5 -90t-79.5 -61q-91 -55 -212 -55zM895 685q-7 0 -26 8.5t-40 20t-36 18.5q-9 5 -26.5 14t-17.5 15q0 7 12 12.5t20 5.5q9 0 15 -3.5t11 -9.5
q9 -7 23.5 -20t30 -25.5t23.5 -18.5q4 -3 8.5 -7.5t4.5 -7.5q0 -2 -2 -2z" />
    <glyph glyph-name="Iacute" unicode="&#xcd;" horiz-adv-x="706" 
d="M242 -86q-99 0 -167 68q-67 67 -67 168q0 106 87 197q7 7 11 7q3 0 3 -3q0 -6 -9 -17q-28 -28 -45 -77q-18 -52 -18 -105q0 -90 48 -152q50 -65 132 -65q110 0 205 56q76 46 170 149q20 23 41.5 54.5t43.5 71.5q11 22 32 64.5t51 105.5l3 7t6.5 14.5t2.5 6.5
q-57 -31 -86 -49q-45 -29 -76.5 -51.5t-48.5 -39.5q-56 -54 -53 -114q2 -4 4.5 -6.5l4.5 -4.5q11 -12 21 -12q21 0 21 -5q0 -7 -30 -7q-34 0 -40 28q-3 11 -3 23q0 45 47 99.5t144 109.5l48 27q14 8 31 17t36 20q9 20 22.5 40t32.5 39q13 13 22 13q12 0 12 -20
q0 -23 -14 -40q-16 -22 -48 -40q-1 -4 -3.5 -10t-5.5 -16q-4 -10 -7 -18.5t-7 -16.5q-92 -208 -177 -310q-44 -52 -85.5 -90t-79.5 -61q-91 -55 -212 -55zM869 685q-2 0 -2 2q0 3 4.5 7.5t8.5 7.5q9 6 23.5 18.5t30 25.5t23.5 20q5 6 11 9.5t15 3.5q8 0 20 -5.5t12 -12.5
q0 -6 -17.5 -15t-26.5 -14q-14 -7 -35.5 -18.5t-40.5 -20t-26 -8.5z" />
    <glyph glyph-name="Icircumflex" unicode="&#xce;" horiz-adv-x="706" 
d="M242 -86q-99 0 -167 68q-67 67 -67 168q0 106 87 197q7 7 11 7q3 0 3 -3q0 -6 -9 -17q-28 -28 -45 -77q-18 -52 -18 -105q0 -90 48 -152q50 -65 132 -65q110 0 205 56q76 46 170 149q20 23 41.5 54.5t43.5 71.5q11 22 32 64.5t51 105.5l3 7t6.5 14.5t2.5 6.5
q-57 -31 -86 -49q-45 -29 -76.5 -51.5t-48.5 -39.5q-56 -54 -53 -114q2 -4 4.5 -6.5l4.5 -4.5q11 -12 21 -12q21 0 21 -5q0 -7 -30 -7q-34 0 -40 28q-3 11 -3 23q0 45 47 99.5t144 109.5l48 27q14 8 31 17t36 20q9 20 22.5 40t32.5 39q13 13 22 13q12 0 12 -20
q0 -23 -14 -40q-16 -22 -48 -40q-1 -4 -3.5 -10t-5.5 -16q-4 -10 -7 -18.5t-7 -16.5q-92 -208 -177 -310q-44 -52 -85.5 -90t-79.5 -61q-91 -55 -212 -55zM771 686q-3 0 -3 2t15 11.5t37 22t43 25t34 20.5q14 9 23 14t15 5q10 0 16 -19q5 -16 10.5 -32.5t11.5 -28.5t6 -17
q0 -4 -3 -4q-5 0 -14 6q-10 6 -26 17.5t-26 26.5q-32 -13 -67.5 -25.5t-58.5 -20.5q-7 -3 -13 -3z" />
    <glyph glyph-name="Idieresis" unicode="&#xcf;" horiz-adv-x="706" 
d="M242 -86q-99 0 -167 68q-67 67 -67 168q0 106 87 197q7 7 11 7q3 0 3 -3q0 -6 -9 -17q-28 -28 -45 -77q-18 -52 -18 -105q0 -90 48 -152q50 -65 132 -65q110 0 205 56q76 46 170 149q20 23 41.5 54.5t43.5 71.5q11 22 32 64.5t51 105.5l3 7t6.5 14.5t2.5 6.5
q-57 -31 -86 -49q-45 -29 -76.5 -51.5t-48.5 -39.5q-56 -54 -53 -114q2 -4 4.5 -6.5l4.5 -4.5q11 -12 21 -12q21 0 21 -5q0 -7 -30 -7q-34 0 -40 28q-3 11 -3 23q0 45 47 99.5t144 109.5l48 27q14 8 31 17t36 20q9 20 22.5 40t32.5 39q13 13 22 13q12 0 12 -20
q0 -23 -14 -40q-16 -22 -48 -40q-1 -4 -3.5 -10t-5.5 -16q-4 -10 -7 -18.5t-7 -16.5q-92 -208 -177 -310q-44 -52 -85.5 -90t-79.5 -61q-91 -55 -212 -55zM935 705q-6 0 -11.5 9.5t-5.5 14.5q0 9 10 17.5t22.5 14t19.5 5.5t7 -4q0 -5 -3 -11.5t-8 -14.5q-6 -7 -10 -19
t-21 -12zM804 705q-6 0 -11.5 9.5t-5.5 14.5q0 9 10 17.5t22.5 14t19.5 5.5t7 -4q0 -5 -3 -11.5t-8 -14.5q-6 -7 -10 -19t-21 -12z" />
    <glyph glyph-name="Eth" unicode="&#xd0;" horiz-adv-x="737" 
d="M119 -78q-23 -1 -43.5 4t-39.5 15q-37 21 -37 54q0 72 171 145q8 11 33 42q6 8 13 17t15 19q-43 -8 -83 -20q-9 -1 -10 5q-2 13 19 31q43 9 81 13q9 2 18 2q7 8 12 15q34 43 64.5 79t58.5 66q-16 -7 -30.5 -12.5t-28.5 -9.5q2 2 7.5 6.5t13.5 9.5t18 12.5t23 15.5l54 36
q12 12 41 12q17 0 22 -8q0 -1 0.5 -1.5t0.5 -1.5q0 -9 -17 -23q-26 -22 -71 -66.5t-109 -111.5q-6 -6 -13 -14q28 1 55 1l29 -1q9 0 9 -5q1 -7 -10 -9l-11 -1q-3 -1 -8.5 -1.5t-12.5 -0.5q-39 -4 -74 -9l-3 -4l-51 -62q31 11 63.5 20t66.5 17q2 1 10 1q11 0 11 -4
q0 -7 -28 -13q-56 -12 -106 -39q-47 -24 -60 -46q-32 -44 -32 -65q0 -12 8 -12q24 0 44 17q8 5 17 5q8 2 8 -2q0 -1 -2 -3q-70 -46 -105 -46q-19 0 -19 16q0 4 1.5 8.5t3.5 11.5q5 12 15 31.5t24 45.5q-124 -58 -124 -108q0 -23 27 -36t65 -12q38 2 84 9.5t100 21.5
q43 11 75.5 21.5t54.5 20.5q147 68 260 185q118 121 118 219q0 158 -328 151q-83 -1 -178 -36q-127 -46 -155 -121q-4 -8 -4 -21q0 -23 13 -42q14 -19 31 -23q18 -4 18 -14q0 -8 -15 -5q-31 6 -55 33.5t-24 56.5q0 15 4 23q32 87 146 132q45 18 97.5 28.5t111.5 10.5h31
q170 0 257 -50q86 -50 86 -137q0 -104 -109 -222t-270 -190q-156 -70 -343 -77z" />
    <glyph glyph-name="Ntilde" unicode="&#xd1;" horiz-adv-x="817" 
d="M688 -116q-23 0 -49 24q-25 24 -25 41q4 217 298 593q4 7 4 16q0 24 -20 24q-31 0 -75 -18.5t-103 -53.5q-20 -12 -50.5 -33.5t-72.5 -52.5q-46 -35 -74 -59t-39 -37q-25 -43 -58.5 -92t-77.5 -105q-118 -150 -172 -150q-28 0 -28 25q0 12 6 22q19 33 45.5 70t61.5 77
q31 35 58.5 61t49.5 45l66 54q14 23 25.5 47t21.5 48l28 64q19 45 19 74q0 41 -54 41q-47 0 -132 -35q-63 -27 -117.5 -62.5t-105.5 -86.5q-72 -70 -72 -108q0 -27 58 -27h5q9 0 9 -6q0 -11 -23 -11q-39 0 -64.5 15.5t-25.5 39.5q0 9 3 16q11 29 78 95q32 32 59.5 55.5
t50.5 37.5q151 97 263 97q46 0 74 -21q24 -18 24 -68q0 -60 -25 -113q-2 -4 -5.5 -9.5t-8.5 -13.5q39 28 87.5 61t106.5 72q116 68 182 68q24 0 42.5 -22t18.5 -48q0 -16 -9 -30l-100 -135q-34 -46 -60 -90t-45 -85q-28 -58 -48 -122t-34 -135q0 -2 -0.5 -4t-0.5 -4
q0 -17 15 -17q26 0 78 37q20 14 37 28t33 29q5 5 9 5q5 0 5 -8q0 -9 -9 -20q-93 -100 -138 -100zM195 24q10 0 25 16q45 47 89.5 107.5t92.5 135.5q-37 -29 -70 -61t-62 -67q-25 -30 -45 -58t-34 -54q-3 -6 -3 -11q0 -8 7 -8zM831 700q-16 0 -38.5 7.5t-44.5 15t-37 7.5
q-16 0 -28 -12t-17 -12q-3 0 -3 4q0 6 6.5 18.5t18 23t26.5 10.5t36 -6.5t44 -13.5t43 -7q14 0 22.5 9.5t11.5 10.5q4 0 4 -11q-5 -14 -16 -29t-28 -15z" />
    <glyph glyph-name="Ograve" unicode="&#xd2;" horiz-adv-x="774" 
d="M263 -48q-88 0 -157 39q-77 42 -77 108q0 11 3 23q16 73 71 143q-1 3 -1 21q0 106 130 173q114 56 240 56t218 -47q103 -54 112 -148q1 -5 1 -9.5v-9.5q0 -130 -176 -235q-155 -94 -333 -112q-8 -1 -15.5 -1.5t-15.5 -0.5zM269 -26q86 0 201 42q128 46 204 116
q92 84 83 178q-7 84 -94 130q-76 39 -191 39h-15q10 -10 10 -24q0 -9 -7 -10q-67 -19 -147 -63q-112 -64 -171 -147q34 -72 120 -95q14 -5 14 -10q0 -6 -14 -3q-93 24 -135 85q-40 -61 -40 -113q0 -55 58 -91q52 -34 124 -34zM131 297q112 117 272 178q-106 -13 -178 -53
q-88 -49 -94 -125zM640 601q-7 0 -26 8.5t-40 20t-36 18.5q-9 5 -26.5 14t-17.5 15q0 7 12 12.5t20 5.5q9 0 15 -3.5t11 -9.5q9 -7 23.5 -20t30 -25.5t23.5 -18.5q4 -3 8.5 -7.5t4.5 -7.5q0 -2 -2 -2z" />
    <glyph glyph-name="Oacute" unicode="&#xd3;" horiz-adv-x="774" 
d="M263 -48q-88 0 -157 39q-77 42 -77 108q0 11 3 23q16 73 71 143q-1 3 -1 21q0 106 130 173q114 56 240 56t218 -47q103 -54 112 -148q1 -5 1 -9.5v-9.5q0 -130 -176 -235q-155 -94 -333 -112q-8 -1 -15.5 -1.5t-15.5 -0.5zM269 -26q86 0 201 42q128 46 204 116
q92 84 83 178q-7 84 -94 130q-76 39 -191 39h-15q10 -10 10 -24q0 -9 -7 -10q-67 -19 -147 -63q-112 -64 -171 -147q34 -72 120 -95q14 -5 14 -10q0 -6 -14 -3q-93 24 -135 85q-40 -61 -40 -113q0 -55 58 -91q52 -34 124 -34zM131 297q112 117 272 178q-106 -13 -178 -53
q-88 -49 -94 -125zM614 601q-2 0 -2 2q0 3 4.5 7.5t8.5 7.5q9 6 23.5 18.5t30 25.5t23.5 20q5 6 11 9.5t15 3.5q8 0 20 -5.5t12 -12.5q0 -6 -17.5 -15t-26.5 -14q-14 -7 -35.5 -18.5t-40.5 -20t-26 -8.5z" />
    <glyph glyph-name="Ocircumflex" unicode="&#xd4;" horiz-adv-x="774" 
d="M263 -48q-88 0 -157 39q-77 42 -77 108q0 11 3 23q16 73 71 143q-1 3 -1 21q0 106 130 173q114 56 240 56t218 -47q103 -54 112 -148q1 -5 1 -9.5v-9.5q0 -130 -176 -235q-155 -94 -333 -112q-8 -1 -15.5 -1.5t-15.5 -0.5zM269 -26q86 0 201 42q128 46 204 116
q92 84 83 178q-7 84 -94 130q-76 39 -191 39h-15q10 -10 10 -24q0 -9 -7 -10q-67 -19 -147 -63q-112 -64 -171 -147q34 -72 120 -95q14 -5 14 -10q0 -6 -14 -3q-93 24 -135 85q-40 -61 -40 -113q0 -55 58 -91q52 -34 124 -34zM131 297q112 117 272 178q-106 -13 -178 -53
q-88 -49 -94 -125zM516 602q-3 0 -3 2t15 11.5t37 22t43 25t34 20.5q14 9 23 14t15 5q10 0 16 -19q5 -16 10.5 -32.5t11.5 -28.5t6 -17q0 -4 -3 -4q-5 0 -14 6q-10 6 -26 17.5t-26 26.5q-32 -13 -67.5 -25.5t-58.5 -20.5q-7 -3 -13 -3z" />
    <glyph glyph-name="Otilde" unicode="&#xd5;" horiz-adv-x="774" 
d="M263 -48q-88 0 -157 39q-77 42 -77 108q0 11 3 23q16 73 71 143q-1 3 -1 21q0 106 130 173q114 56 240 56t218 -47q103 -54 112 -148q1 -5 1 -9.5v-9.5q0 -130 -176 -235q-155 -94 -333 -112q-8 -1 -15.5 -1.5t-15.5 -0.5zM269 -26q86 0 201 42q128 46 204 116
q92 84 83 178q-7 84 -94 130q-76 39 -191 39h-15q10 -10 10 -24q0 -9 -7 -10q-67 -19 -147 -63q-112 -64 -171 -147q34 -72 120 -95q14 -5 14 -10q0 -6 -14 -3q-93 24 -135 85q-40 -61 -40 -113q0 -55 58 -91q52 -34 124 -34zM131 297q112 117 272 178q-106 -13 -178 -53
q-88 -49 -94 -125zM689 616q-16 0 -38.5 7.5t-44.5 15t-37 7.5q-16 0 -28 -12t-17 -12q-3 0 -3 4q0 6 6.5 18.5t18 23t26.5 10.5t36 -6.5t44 -13.5t43 -7q14 0 22.5 9.5t11.5 10.5q4 0 4 -11q-5 -14 -16 -29t-28 -15z" />
    <glyph glyph-name="Odieresis" unicode="&#xd6;" horiz-adv-x="774" 
d="M263 -48q-88 0 -157 39q-77 42 -77 108q0 11 3 23q16 73 71 143q-1 3 -1 21q0 106 130 173q114 56 240 56t218 -47q103 -54 112 -148q1 -5 1 -9.5v-9.5q0 -130 -176 -235q-155 -94 -333 -112q-8 -1 -15.5 -1.5t-15.5 -0.5zM269 -26q86 0 201 42q128 46 204 116
q92 84 83 178q-7 84 -94 130q-76 39 -191 39h-15q10 -10 10 -24q0 -9 -7 -10q-67 -19 -147 -63q-112 -64 -171 -147q34 -72 120 -95q14 -5 14 -10q0 -6 -14 -3q-93 24 -135 85q-40 -61 -40 -113q0 -55 58 -91q52 -34 124 -34zM131 297q112 117 272 178q-106 -13 -178 -53
q-88 -49 -94 -125zM680 621q-6 0 -11.5 9.5t-5.5 14.5q0 9 10 17.5t22.5 14t19.5 5.5t7 -4q0 -5 -3 -11.5t-8 -14.5q-6 -7 -10 -19t-21 -12zM549 621q-6 0 -11.5 9.5t-5.5 14.5q0 9 10 17.5t22.5 14t19.5 5.5t7 -4q0 -5 -3 -11.5t-8 -14.5q-6 -7 -10 -19t-21 -12z" />
    <glyph glyph-name="multiply" unicode="&#xd7;" horiz-adv-x="439" 
d="M168 72q-5 -3 -8 1v1q0 5 7 17q11 10 28 28.5t34.5 38.5t31.5 34q-30 25 -53.5 44t-38.5 34q-2 2 -4.5 12t-3 20.5t0.5 14.5q1 2 1.5 2h0.5q5 -1 19.5 -12t33 -26.5t35 -30.5t26.5 -24q4 -3 7 -7q32 36 56 63.5t40 43.5q2 2 8 2q7 0 15 -2.5t9 -7.5q1 -1 1 -4
q-3 -6 -15.5 -21t-29 -33t-32.5 -35.5t-27 -28.5q20 -20 40 -41.5t35 -39t18 -26.5q5 -5 3 -11q0 -1 -3 -1q-4 0 -11 4q-11 11 -32.5 29t-42.5 35t-31 27q-22 -21 -46.5 -44t-44.5 -39t-27 -17z" />
    <glyph glyph-name="Oslash" unicode="&#xd8;" horiz-adv-x="634" 
d="M-23 -248q-6 0 -13.5 6.5t-7.5 12.5q0 29 46 105q17 28 33 53t33 47q-42 27 -42 96q0 165 241 373q-79 -29 -169 -104q-6 -6 -12 -6h-1l-1 2q0 7 6 14q50 68 147 113q90 43 181 43q68 0 118 -26l71 62q24 21 44.5 30.5t35.5 9.5q12 0 13 -4l-34 -29q-17 -14 -43 -36
t-60 -51q52 -45 52 -121q0 -91 -84 -186q-75 -84 -189 -141q-112 -57 -203 -57q-30 0 -53 9q-58 -82 -84 -141q-7 -14 -11 -25.5t-6 -19.5l-6 -22q-1 -2 -1 -5q0 -1 -1 -2zM79 -9q171 228 443 476q-36 16 -91 16q-65 0 -127 -21q8 1 13.5 1.5t9.5 0.5q38 0 41 -14l-13 -8
q-93 -31 -198 -154q-108 -127 -108 -222q0 -54 30 -75zM134 -24q83 0 193 62q108 62 180 150q79 97 79 184q0 51 -37 79q-149 -131 -261.5 -247t-190.5 -222q17 -6 37 -6z" />
    <glyph glyph-name="Ugrave" unicode="&#xd9;" horiz-adv-x="767" 
d="M679 -100q-39 0 -46 34q-6 26 -6 56q0 79 45 205q-223 -214 -342 -216q-26 0 -46 17q-21 20 -21 56q0 79 99 211q26 33 51 66l50 66q76 106 76 155q0 32 -28 32q-71 0 -207 -82q-140 -84 -197 -198q-5 -12 -5 -17q0 -25 39 -25q19 0 19 -5q0 -12 -27 -12q-61 0 -61 44
q0 15 4 27q11 40 70 100q65 65 141 111q133 79 226 79q38 0 55 -18t17 -47q0 -44 -33 -97q-17 -28 -56 -73.5t-87 -109.5q-113 -152 -113 -224q0 -37 29 -37q122 0 374 263q6 12 15.5 33t22.5 50q31 70 72 139q54 87 98 108q6 3 11 3q17 0 17 -27q0 -88 -144 -250
q-13 -16 -29 -32l-29 -31q-74 -172 -74 -276q0 -22 3 -40q4 -22 25 -22q39 0 82 43q5 5 10 5q6 0 6 -8q0 -14 -17 -26q-43 -30 -89 -30zM776 346q42 50 81 105q60 83 60 111q0 9 -9 7q-7 -2 -61 -92q-19 -31 -36.5 -63.5t-34.5 -67.5zM797 685q-7 0 -26 8.5t-40 20t-36 18.5
q-9 5 -26.5 14t-17.5 15q0 7 12 12.5t20 5.5q9 0 15 -3.5t11 -9.5q9 -7 23.5 -20t30 -25.5t23.5 -18.5q4 -3 8.5 -7.5t4.5 -7.5q0 -2 -2 -2z" />
    <glyph glyph-name="Uacute" unicode="&#xda;" horiz-adv-x="767" 
d="M679 -100q-39 0 -46 34q-6 26 -6 56q0 79 45 205q-223 -214 -342 -216q-26 0 -46 17q-21 20 -21 56q0 79 99 211q26 33 51 66l50 66q76 106 76 155q0 32 -28 32q-71 0 -207 -82q-140 -84 -197 -198q-5 -12 -5 -17q0 -25 39 -25q19 0 19 -5q0 -12 -27 -12q-61 0 -61 44
q0 15 4 27q11 40 70 100q65 65 141 111q133 79 226 79q38 0 55 -18t17 -47q0 -44 -33 -97q-17 -28 -56 -73.5t-87 -109.5q-113 -152 -113 -224q0 -37 29 -37q122 0 374 263q6 12 15.5 33t22.5 50q31 70 72 139q54 87 98 108q6 3 11 3q17 0 17 -27q0 -88 -144 -250
q-13 -16 -29 -32l-29 -31q-74 -172 -74 -276q0 -22 3 -40q4 -22 25 -22q39 0 82 43q5 5 10 5q6 0 6 -8q0 -14 -17 -26q-43 -30 -89 -30zM776 346q42 50 81 105q60 83 60 111q0 9 -9 7q-7 -2 -61 -92q-19 -31 -36.5 -63.5t-34.5 -67.5zM771 685q-2 0 -2 2q0 3 4.5 7.5
t8.5 7.5q9 6 23.5 18.5t30 25.5t23.5 20q5 6 11 9.5t15 3.5q8 0 20 -5.5t12 -12.5q0 -6 -17.5 -15t-26.5 -14q-14 -7 -35.5 -18.5t-40.5 -20t-26 -8.5z" />
    <glyph glyph-name="Ucircumflex" unicode="&#xdb;" horiz-adv-x="767" 
d="M679 -100q-39 0 -46 34q-6 26 -6 56q0 79 45 205q-223 -214 -342 -216q-26 0 -46 17q-21 20 -21 56q0 79 99 211q26 33 51 66l50 66q76 106 76 155q0 32 -28 32q-71 0 -207 -82q-140 -84 -197 -198q-5 -12 -5 -17q0 -25 39 -25q19 0 19 -5q0 -12 -27 -12q-61 0 -61 44
q0 15 4 27q11 40 70 100q65 65 141 111q133 79 226 79q38 0 55 -18t17 -47q0 -44 -33 -97q-17 -28 -56 -73.5t-87 -109.5q-113 -152 -113 -224q0 -37 29 -37q122 0 374 263q6 12 15.5 33t22.5 50q31 70 72 139q54 87 98 108q6 3 11 3q17 0 17 -27q0 -88 -144 -250
q-13 -16 -29 -32l-29 -31q-74 -172 -74 -276q0 -22 3 -40q4 -22 25 -22q39 0 82 43q5 5 10 5q6 0 6 -8q0 -14 -17 -26q-43 -30 -89 -30zM776 346q42 50 81 105q60 83 60 111q0 9 -9 7q-7 -2 -61 -92q-19 -31 -36.5 -63.5t-34.5 -67.5zM673 686q-3 0 -3 2t15 11.5t37 22
t43 25t34 20.5q14 9 23 14t15 5q10 0 16 -19q5 -16 10.5 -32.5t11.5 -28.5t6 -17q0 -4 -3 -4q-5 0 -14 6q-10 6 -26 17.5t-26 26.5q-32 -13 -67.5 -25.5t-58.5 -20.5q-7 -3 -13 -3z" />
    <glyph glyph-name="Udieresis" unicode="&#xdc;" horiz-adv-x="767" 
d="M679 -100q-39 0 -46 34q-6 26 -6 56q0 79 45 205q-223 -214 -342 -216q-26 0 -46 17q-21 20 -21 56q0 79 99 211q26 33 51 66l50 66q76 106 76 155q0 32 -28 32q-71 0 -207 -82q-140 -84 -197 -198q-5 -12 -5 -17q0 -25 39 -25q19 0 19 -5q0 -12 -27 -12q-61 0 -61 44
q0 15 4 27q11 40 70 100q65 65 141 111q133 79 226 79q38 0 55 -18t17 -47q0 -44 -33 -97q-17 -28 -56 -73.5t-87 -109.5q-113 -152 -113 -224q0 -37 29 -37q122 0 374 263q6 12 15.5 33t22.5 50q31 70 72 139q54 87 98 108q6 3 11 3q17 0 17 -27q0 -88 -144 -250
q-13 -16 -29 -32l-29 -31q-74 -172 -74 -276q0 -22 3 -40q4 -22 25 -22q39 0 82 43q5 5 10 5q6 0 6 -8q0 -14 -17 -26q-43 -30 -89 -30zM776 346q42 50 81 105q60 83 60 111q0 9 -9 7q-7 -2 -61 -92q-19 -31 -36.5 -63.5t-34.5 -67.5zM837 705q-6 0 -11.5 9.5t-5.5 14.5
q0 9 10 17.5t22.5 14t19.5 5.5t7 -4q0 -5 -3 -11.5t-8 -14.5q-6 -7 -10 -19t-21 -12zM706 705q-6 0 -11.5 9.5t-5.5 14.5q0 9 10 17.5t22.5 14t19.5 5.5t7 -4q0 -5 -3 -11.5t-8 -14.5q-6 -7 -10 -19t-21 -12z" />
    <glyph glyph-name="Yacute" unicode="&#xdd;" horiz-adv-x="549" 
d="M299 50q-2 0 -2 2q0 5 15 21q16 16 16 64q0 14 -3 51q-1 18 -3.5 41.5t-6.5 52.5q-12 101 -68 193q-70 113 -166 113q-108 0 -108 -125q0 -145 40 -175q15 -10 15 -19q0 -3 -3 -3q-5 0 -13 6q-75 56 -75 165q0 168 146 168q109 0 192 -117q65 -92 83 -193q15 -82 15 -111
q0 -11 -1 -21.5t-3 -18.5q-7 -36 -35 -67q-24 -27 -35 -27zM222 -256q-49 0 -49 47q0 19 7 34q23 57 96 153q75 96 132 146q25 22 63.5 58.5t91.5 88.5q86 84 117 141q3 5 3 9q0 5 -7 5q-23 0 -42 -22q-10 -12 -24 -12q-8 0 -8 6q0 2 5 10q17 18 44 35q31 19 52 19
q29 0 29 -28q0 -12 -9 -23q-23 -28 -57.5 -65t-82.5 -85q-47 -48 -87 -86t-75 -68q-25 -22 -57 -59t-70 -91q-89 -122 -89 -169q0 -22 16 -22q5 0 11 3q8 4 15 4t10 -5q3 -3 3 -7q0 -17 -38 -17zM531 565q-2 0 -2 2q0 3 4.5 7.5t8.5 7.5q9 6 23.5 18.5t30 25.5t23.5 20
q5 6 11 9.5t15 3.5q8 0 20 -5.5t12 -12.5q0 -6 -17.5 -15t-26.5 -14q-14 -7 -35.5 -18.5t-40.5 -20t-26 -8.5z" />
    <glyph glyph-name="Thorn" unicode="&#xde;" horiz-adv-x="565" 
d="M85 -156q-40 0 -40 51q0 27 12 63t32.5 76t43.5 79q-25 5 -42.5 14t-17.5 21t15 12q8 0 23.5 -7t37.5 -15q25 38 49 70q56 74 113 145t108 128h-12q-35 0 -78 -6.5t-85 -19.5t-77 -31.5t-56.5 -41.5t-21.5 -51q0 -18 12 -35t28 -20q16 -4 16 -12q0 -7 -12 -4
q-28 5 -50.5 28t-22.5 48q0 40 29.5 70t76.5 51t101.5 32.5t104.5 12.5q34 1 66 -1q25 28 47 49q-5 5 -5 9q0 12 27 28q35 20 35 21q11 12 41 12q17 0 22 -8q1 -1 1 -3q0 -9 -17 -23q-21 -18 -45 -40.5t-50 -48.5q52 -7 95 -22.5t68.5 -41t25.5 -64.5q0 -43 -31.5 -82.5
t-82.5 -72.5t-110 -56.5t-114 -34.5q-41 -8 -78.5 -12t-71.5 -4q-10 0 -20 1q-50 -72 -80.5 -129t-30.5 -86q0 -27 24 -27q8 0 11 1q17 9 28 9q9 0 9 -6q0 -9 -30 -23q-12 -3 -21 -3zM650 362q-1 39 -24.5 63t-62.5 36.5t-86 16.5q-48 -50 -98.5 -109t-98.5 -120t-89 -119
q12 -1 28 -1q26 0 56 3.5t65 10.5q51 10 105 31.5t100.5 51t75.5 64.5t29 72z" />
    <glyph glyph-name="germandbls" unicode="&#xdf;" horiz-adv-x="421" 
d="M-268 -314q-35 0 -52 23q-12 15 -12 35q0 9 3 21q12 42 28 42q5 0 5 -11q0 -3 -0.5 -7t-1.5 -9l-5 -31q2 -19 9.5 -31t21.5 -12q32 0 82 41q29 24 76 82.5t102 141.5q23 34 44.5 72t39.5 72q14 27 31.5 60t34.5 62q-12 -1 -22 -2t-18 -2q-17 -2 -25 0q-9 2 -9 5
q0 9 28 17q13 4 30 8t39 8q38 60 84 129.5t109 139.5q34 33 67 45t63 12q18 0 31.5 -5.5t24.5 -15.5q11 -13 11 -37q0 -25 -12 -73q-4 -16 -13 -37.5t-17.5 -41t-13.5 -32.5q-4 -9 -10.5 -19t-21.5 -13q-46 -7 -75 -17t-57 -35q-22 -19 -35 -41t-13 -48q0 -8 8 -27t19 -36
q7 -11 12.5 -20t9.5 -15q8 -13 9 -15q8 0 20 3q6 3 10 3q7 0 7 -6q0 -9 -12 -14q-9 -3 -14 -14.5t-11 -13.5q-28 -18 -115 -18q-40 0 -61 2t-23 3q-6 5 -6 9q0 12 31 12q60 0 133 21q4 1 4 6q0 11 -31 45q-16 17 -25.5 35.5t-9.5 35.5q0 20 15.5 43t40.5 48q66 68 168 81
q15 2 22 38q3 12 8 38t9 57t4 56q0 18 -3.5 30t-11.5 12q-22 0 -57 -23q-67 -47 -125 -122.5t-112.5 -170t-112.5 -199.5q-13 -24 -28.5 -50.5t-29 -49.5t-21.5 -37q-21 -39 -49 -81t-61.5 -79t-74 -60t-87.5 -23z" />
    <glyph glyph-name="agrave" unicode="&#xe0;" horiz-adv-x="367" 
d="M42 1q-23 0 -23 27q0 19 14 49q36 67 119 138q101 84 164 84q39 0 54 -15q23 17 49 17q5 0 5 -3q0 -2 -2 -4q-14 -16 -31.5 -43t-37.5 -67q-47 -92 -47 -135q0 -10 1 -12v-1q0 -6 -6 -14.5t-12 -8.5q-12 0 -12 40q0 68 31 130l-85 -71q-48 -40 -86.5 -65.5t-66.5 -38.5
q-14 -7 -28 -7zM87 47q6 0 13 4q13 5 45 26t69 52q46 38 76.5 69.5t44.5 47.5q-6 17 -24 17q-35 0 -112 -60q-87 -70 -114 -115q-9 -16 -9 -30q0 -11 11 -11zM368 354q-5 0 -20.5 9.5t-33 21.5t-29.5 20q-7 6 -21.5 16t-14.5 16q0 8 9.5 14t16.5 6q8 0 13 -4t9 -10
q7 -8 18.5 -22.5t23.5 -27.5t18 -19q14 -10 14 -17q0 -3 -3 -3z" />
    <glyph glyph-name="aacute" unicode="&#xe1;" horiz-adv-x="367" 
d="M42 1q-23 0 -23 27q0 19 14 49q36 67 119 138q101 84 164 84q39 0 54 -15q23 17 49 17q5 0 5 -3q0 -2 -2 -4q-14 -16 -31.5 -43t-37.5 -67q-47 -92 -47 -135q0 -10 1 -12v-1q0 -6 -6 -14.5t-12 -8.5q-12 0 -12 40q0 68 31 130l-85 -71q-48 -40 -86.5 -65.5t-66.5 -38.5
q-14 -7 -28 -7zM87 47q6 0 13 4q13 5 45 26t69 52q46 38 76.5 69.5t44.5 47.5q-6 17 -24 17q-35 0 -112 -60q-87 -70 -114 -115q-9 -16 -9 -30q0 -11 11 -11zM344 354q-3 0 -3 2q0 4 4.5 8.5t6.5 5.5q8 8 20 22t24.5 28.5t19.5 22.5q5 6 10 10t12 4q6 0 15.5 -6t9.5 -14
q0 -6 -13.5 -16t-21.5 -16l-30 -20t-33 -21.5t-21 -9.5z" />
    <glyph glyph-name="acircumflex" unicode="&#xe2;" horiz-adv-x="367" 
d="M42 1q-23 0 -23 27q0 19 14 49q36 67 119 138q101 84 164 84q39 0 54 -15q23 17 49 17q5 0 5 -3q0 -2 -2 -4q-14 -16 -31.5 -43t-37.5 -67q-47 -92 -47 -135q0 -10 1 -12v-1q0 -6 -6 -14.5t-12 -8.5q-12 0 -12 40q0 68 31 130l-85 -71q-48 -40 -86.5 -65.5t-66.5 -38.5
q-14 -7 -28 -7zM87 47q6 0 13 4q13 5 45 26t69 52q46 38 76.5 69.5t44.5 47.5q-6 17 -24 17q-35 0 -112 -60q-87 -70 -114 -115q-9 -16 -9 -30q0 -11 11 -11zM264 355q-3 0 -3 2q0 1 12.5 11l30 24t35.5 28t28 23q23 20 31 20q9 0 13 -20q4 -18 8.5 -35.5t9.5 -30.5
q5 -15 5 -19t-3 -4t-11 6q-8 7 -21.5 22.5t-21.5 31.5q-26 -14 -55 -31t-48 -25q-6 -3 -10 -3z" />
    <glyph glyph-name="atilde" unicode="&#xe3;" horiz-adv-x="367" 
d="M42 1q-23 0 -23 27q0 19 14 49q36 67 119 138q101 84 164 84q39 0 54 -15q23 17 49 17q5 0 5 -3q0 -2 -2 -4q-14 -16 -31.5 -43t-37.5 -67q-47 -92 -47 -135q0 -10 1 -12v-1q0 -6 -6 -14.5t-12 -8.5q-12 0 -12 40q0 68 31 130l-85 -71q-48 -40 -86.5 -65.5t-66.5 -38.5
q-14 -7 -28 -7zM87 47q6 0 13 4q13 5 45 26t69 52q46 38 76.5 69.5t44.5 47.5q-6 17 -24 17q-35 0 -112 -60q-87 -70 -114 -115q-9 -16 -9 -30q0 -11 11 -11zM398 372q-16 0 -28.5 7t-24.5 13.5t-27 6.5q-16 0 -28 -12t-17 -12q-3 0 -3 4q0 6 6.5 17.5t18 21.5t26.5 10
t26 -6t24 -12t33 -6q14 0 22.5 9.5t11.5 10.5q4 0 4 -11q-5 -14 -16 -27.5t-28 -13.5z" />
    <glyph glyph-name="adieresis" unicode="&#xe4;" horiz-adv-x="367" 
d="M42 1q-23 0 -23 27q0 19 14 49q36 67 119 138q101 84 164 84q39 0 54 -15q23 17 49 17q5 0 5 -3q0 -2 -2 -4q-14 -16 -31.5 -43t-37.5 -67q-47 -92 -47 -135q0 -10 1 -12v-1q0 -6 -6 -14.5t-12 -8.5q-12 0 -12 40q0 68 31 130l-85 -71q-48 -40 -86.5 -65.5t-66.5 -38.5
q-14 -7 -28 -7zM87 47q6 0 13 4q13 5 45 26t69 52q46 38 76.5 69.5t44.5 47.5q-6 17 -24 17q-35 0 -112 -60q-87 -70 -114 -115q-9 -16 -9 -30q0 -11 11 -11zM396 377q-5 0 -10 8.5t-5 13.5q0 8 9 15.5t20.5 12.5t17.5 5t6 -3q0 -5 -2.5 -10.5t-7.5 -13.5q-5 -6 -8.5 -17
t-19.5 -11zM305 377q-5 0 -10 8.5t-5 13.5q0 8 9 15.5t20.5 12.5t17.5 5t6 -3q0 -5 -2.5 -10.5t-7.5 -13.5q-5 -6 -8.5 -17t-19.5 -11z" />
    <glyph glyph-name="aring" unicode="&#xe5;" horiz-adv-x="367" 
d="M42 1q-23 0 -23 27q0 19 14 49q36 67 119 138q101 84 164 84q39 0 54 -15q23 17 49 17q5 0 5 -3q0 -2 -2 -4q-14 -16 -31.5 -43t-37.5 -67q-47 -92 -47 -135q0 -10 1 -12v-1q0 -6 -6 -14.5t-12 -8.5q-12 0 -12 40q0 68 31 130l-85 -71q-48 -40 -86.5 -65.5t-66.5 -38.5
q-14 -7 -28 -7zM87 47q6 0 13 4q13 5 45 26t69 52q46 38 76.5 69.5t44.5 47.5q-6 17 -24 17q-35 0 -112 -60q-87 -70 -114 -115q-9 -16 -9 -30q0 -11 11 -11zM357 355q-16 0 -28 9t-12 26q0 29 22.5 52t51.5 23q17 0 28.5 -10.5t13.5 -23.5v-9q0 -25 -23 -46t-53 -21z
M362 375q22 0 34.5 14t12.5 30q0 9 -7 18.5t-19 9.5q-15 0 -27.5 -14.5t-12.5 -34.5q0 -23 19 -23z" />
    <glyph glyph-name="ae" unicode="&#xe6;" horiz-adv-x="573" 
d="M365 -5q-31 0 -56 16t-30 38q-2 11 0 25q6 37 25 71q0 6 1 15.5t3 22.5l-85 -71q-48 -40 -86.5 -65.5t-66.5 -38.5q-14 -7 -28 -7q-23 0 -23 27q0 19 14 49q36 67 119 138q101 84 164 84q39 0 54 -15q23 17 49 17q5 0 5 -3q0 -2 -2 -4l-9 -10q-3 -3 -6 -6.5t-6 -7.5
l40 16q23 9 35 12.5t14 2.5q39 -6 43 -31q1 -4 1 -11q0 -42 -60 -84t-113 -42q-5 0 -10 0.5t-10 1.5q-17 -29 -22 -49q-3 -10 -3 -20q0 -45 34 -45q28 0 83 24q53 23 72 39q8 5 13 5t7 -5q-1 -6 -8 -13q-13 -11 -30 -22.5t-39 -24.5q-56 -29 -83 -29zM388 155q36 0 69 39
q26 32 26 57q0 19 -16 21q-44 8 -109 -107q13 -10 30 -10zM87 47q17 8 48 30q16 11 35.5 27t43.5 35q46 38 76.5 64.5t44.5 42.5q-6 17 -24 17q-35 0 -112 -60q-87 -70 -114 -115q-9 -16 -9 -30q0 -16 11 -11z" />
    <glyph glyph-name="ccedilla" unicode="&#xe7;" horiz-adv-x="272" 
d="M73 0q-64 0 -64 52q0 14 6 32q18 55 85 113q62 57 136 92q44 21 87 21q23 0 23 -12q0 -8 -14 -22q-13 -12 -18 -9q-18 9 -35 9q-18 0 -36 -9q-64 -33 -115 -84q-51 -53 -68 -103q-5 -17 -5 -25q0 -30 25 -30q29 0 85.5 25.5t139.5 74.5q3 1 4 -3v-3q0 -11 -7 -18
q-12 -10 -34.5 -23t-55.5 -30q-82 -42 -119 -47q-5 -1 -10 -1h-10zM-41 -161q-5 0 -5 6q2 6 7 6q26 3 47 13t21 37q0 11 -6.5 23.5t-6.5 25.5q0 20 20 41.5t51 21.5q7 0 6 -4q-16 -3 -28 -17.5t-12 -25.5q0 -14 8.5 -25t8.5 -29q0 -25 -20 -41.5t-46.5 -24t-44.5 -7.5z" />
    <glyph glyph-name="egrave" unicode="&#xe8;" horiz-adv-x="256" 
d="M82 -5q-31 0 -53.5 16t-22.5 38q0 8 5 25q29 83 152 194l50 18q48 16 52 15q37 -6 37 -31q0 -48 -77 -95q-69 -42 -121 -42q-5 0 -10 0.5t-10 1.5q-10 -14 -18 -26t-13 -23q-8 -19 -8 -32q0 -33 27 -33t87 24q58 22 79 39q8 5 14 5t6 -5q-1 -6 -10 -13
q-15 -11 -34.5 -22.5t-43.5 -24.5q-61 -29 -88 -29zM135 155q36 0 76 39q38 38 38 63q0 14 -13 15q-43 7 -129 -107q10 -10 28 -10zM282 353q-5 0 -20.5 9.5t-33 21.5t-29.5 20q-7 6 -21.5 16t-14.5 16q0 8 9.5 14t16.5 6q8 0 13 -4t9 -10q7 -8 18.5 -22.5t23.5 -27.5
t18 -19q14 -10 14 -17q0 -3 -3 -3z" />
    <glyph glyph-name="eacute" unicode="&#xe9;" horiz-adv-x="256" 
d="M82 -5q-31 0 -53.5 16t-22.5 38q0 8 5 25q29 83 152 194l50 18q48 16 52 15q37 -6 37 -31q0 -48 -77 -95q-69 -42 -121 -42q-5 0 -10 0.5t-10 1.5q-10 -14 -18 -26t-13 -23q-8 -19 -8 -32q0 -33 27 -33t87 24q58 22 79 39q8 5 14 5t6 -5q-1 -6 -10 -13
q-15 -11 -34.5 -22.5t-43.5 -24.5q-61 -29 -88 -29zM135 155q36 0 76 39q38 38 38 63q0 14 -13 15q-43 7 -129 -107q10 -10 28 -10zM258 353q-3 0 -3 2q0 4 4.5 8.5t6.5 5.5q8 8 20 22t24.5 28.5t19.5 22.5q5 6 10 10t12 4q6 0 15.5 -6t9.5 -14q0 -6 -13.5 -16t-21.5 -16
l-30 -20t-33 -21.5t-21 -9.5z" />
    <glyph glyph-name="ecircumflex" unicode="&#xea;" horiz-adv-x="256" 
d="M82 -5q-31 0 -53.5 16t-22.5 38q0 8 5 25q29 83 152 194l50 18q48 16 52 15q37 -6 37 -31q0 -48 -77 -95q-69 -42 -121 -42q-5 0 -10 0.5t-10 1.5q-10 -14 -18 -26t-13 -23q-8 -19 -8 -32q0 -33 27 -33t87 24q58 22 79 39q8 5 14 5t6 -5q-1 -6 -10 -13
q-15 -11 -34.5 -22.5t-43.5 -24.5q-61 -29 -88 -29zM135 155q36 0 76 39q38 38 38 63q0 14 -13 15q-43 7 -129 -107q10 -10 28 -10zM178 354q-3 0 -3 2q0 1 12.5 11l30 24t35.5 28t28 23q23 20 31 20q9 0 13 -20q4 -18 8.5 -35.5t9.5 -30.5q5 -15 5 -19t-3 -4t-11 6
q-8 7 -21.5 22.5t-21.5 31.5q-26 -14 -55 -31t-48 -25q-6 -3 -10 -3z" />
    <glyph glyph-name="edieresis" unicode="&#xeb;" horiz-adv-x="256" 
d="M82 -5q-31 0 -53.5 16t-22.5 38q0 8 5 25q29 83 152 194l50 18q48 16 52 15q37 -6 37 -31q0 -48 -77 -95q-69 -42 -121 -42q-5 0 -10 0.5t-10 1.5q-10 -14 -18 -26t-13 -23q-8 -19 -8 -32q0 -33 27 -33t87 24q58 22 79 39q8 5 14 5t6 -5q-1 -6 -10 -13
q-15 -11 -34.5 -22.5t-43.5 -24.5q-61 -29 -88 -29zM135 155q36 0 76 39q38 38 38 63q0 14 -13 15q-43 7 -129 -107q10 -10 28 -10zM310 376q-5 0 -10 8.5t-5 13.5q0 8 9 15.5t20.5 12.5t17.5 5t6 -3q0 -5 -2.5 -10.5t-7.5 -13.5q-5 -6 -8.5 -17t-19.5 -11zM219 376
q-5 0 -10 8.5t-5 13.5q0 8 9 15.5t20.5 12.5t17.5 5t6 -3q0 -5 -2.5 -10.5t-7.5 -13.5q-5 -6 -8.5 -17t-19.5 -11z" />
    <glyph glyph-name="igrave" unicode="&#xec;" horiz-adv-x="201" 
d="M-1 -1q-10 0 -10 6q0 3 3 7q8 13 18.5 28t21.5 31q11 17 24.5 35.5t27.5 39.5q18 25 23 43q1 4 1 8.5t1 8.5l3 17q2 9 39 25q27 13 42 13q8 0 6 -6q-7 -24 -32 -58l-49 -67q-9 -13 -23.5 -30.5t-33.5 -42.5q2 1 8.5 3.5t17.5 6.5t27 9.5t38 12.5q14 5 35 11.5t50 13.5
q6 0 6 -6v-2q0 -4 -6 -6q-139 -37 -214 -93q-11 -8 -24 -8zM233 365q-5 0 -20.5 9.5t-33 21.5t-29.5 20q-7 6 -21.5 16t-14.5 16q0 8 9.5 14t16.5 6q8 0 13 -4t9 -10q7 -8 18.5 -22.5t23.5 -27.5t18 -19q14 -10 14 -17q0 -3 -3 -3z" />
    <glyph glyph-name="iacute" unicode="&#xed;" horiz-adv-x="201" 
d="M-1 -1q-10 0 -10 6q0 3 3 7q8 13 18.5 28t21.5 31q11 17 24.5 35.5t27.5 39.5q18 25 23 43q1 4 1 8.5t1 8.5l3 17q2 9 39 25q27 13 42 13q8 0 6 -6q-7 -24 -32 -58l-49 -67q-9 -13 -23.5 -30.5t-33.5 -42.5q2 1 8.5 3.5t17.5 6.5t27 9.5t38 12.5q14 5 35 11.5t50 13.5
q6 0 6 -6v-2q0 -4 -6 -6q-139 -37 -214 -93q-11 -8 -24 -8zM209 365q-3 0 -3 2q0 4 4.5 8.5t6.5 5.5q8 8 20 22t24.5 28.5t19.5 22.5q5 6 10 10t12 4q6 0 15.5 -6t9.5 -14q0 -6 -13.5 -16t-21.5 -16l-30 -20t-33 -21.5t-21 -9.5z" />
    <glyph glyph-name="icircumflex" unicode="&#xee;" horiz-adv-x="201" 
d="M-1 -1q-10 0 -10 6q0 3 3 7q8 13 18.5 28t21.5 31q11 17 24.5 35.5t27.5 39.5q18 25 23 43q1 4 1 8.5t1 8.5l3 17q2 9 39 25q27 13 42 13q8 0 6 -6q-7 -24 -32 -58l-49 -67q-9 -13 -23.5 -30.5t-33.5 -42.5q2 1 8.5 3.5t17.5 6.5t27 9.5t38 12.5q14 5 35 11.5t50 13.5
q6 0 6 -6v-2q0 -4 -6 -6q-139 -37 -214 -93q-11 -8 -24 -8zM129 366q-3 0 -3 2q0 1 12.5 11l30 24t35.5 28t28 23q23 20 31 20q9 0 13 -20q4 -18 8.5 -35.5t9.5 -30.5q5 -15 5 -19t-3 -4t-11 6q-8 7 -21.5 22.5t-21.5 31.5q-26 -14 -55 -31t-48 -25q-6 -3 -10 -3z" />
    <glyph glyph-name="idieresis" unicode="&#xef;" horiz-adv-x="201" 
d="M-1 -1q-10 0 -10 6q0 3 3 7q8 13 18.5 28t21.5 31q11 17 24.5 35.5t27.5 39.5q18 25 23 43q1 4 1 8.5t1 8.5l3 17q2 9 39 25q27 13 42 13q8 0 6 -6q-7 -24 -32 -58l-49 -67q-9 -13 -23.5 -30.5t-33.5 -42.5q2 1 8.5 3.5t17.5 6.5t27 9.5t38 12.5q14 5 35 11.5t50 13.5
q6 0 6 -6v-2q0 -4 -6 -6q-139 -37 -214 -93q-11 -8 -24 -8zM261 388q-5 0 -10 8.5t-5 13.5q0 8 9 15.5t20.5 12.5t17.5 5t6 -3q0 -5 -2.5 -10.5t-7.5 -13.5q-5 -6 -8.5 -17t-19.5 -11zM170 388q-5 0 -10 8.5t-5 13.5q0 8 9 15.5t20.5 12.5t17.5 5t6 -3q0 -5 -2.5 -10.5
t-7.5 -13.5q-5 -6 -8.5 -17t-19.5 -11z" />
    <glyph glyph-name="eth" unicode="&#xf0;" horiz-adv-x="339" 
d="M74 -19q-34 0 -49 14.5t-15 36.5q0 23 12 51t32 56.5t43 52.5q31 32 64.5 56t63 37.5t47.5 13.5q9 0 9 -11q0 -10 -13 -19.5t-50 -29.5q-20 -10 -47 -32.5t-53.5 -51t-46 -60t-23.5 -61.5q0 -2 -0.5 -4.5t-0.5 -4.5q0 -25 23 -25q43 0 83.5 29t76 77.5t62 107t41.5 119.5
t15 113q0 24 -3 45q-22 -13 -44.5 -27t-43.5 -30q-8 -4 -11 3q-1 3 -1.5 5.5t-0.5 6.5q0 13 9 31q22 13 43 24t40 20q-11 31 -33.5 49t-59.5 18q-11 0 -26.5 -4t-32.5 -14q-16 -10 -26 -21t-18 -21q-4 0 -7.5 3t-2.5 10q2 12 13 26t47 25q20 7 31 13.5t30 6.5q92 0 128 -73
q14 5 28 9.5t27 8.5l27 7q2 1 4 1q6 0 8 -5q0 -1 0.5 -1.5t0.5 -1.5q0 -6 -8 -9l-9 -5q-4 -1 -8.5 -3.5t-11.5 -4.5q-12 -5 -24 -11t-23 -12q9 -30 9 -67q0 -13 -1 -26.5t-3 -27.5q-6 -43 -28 -97t-55 -109.5t-72.5 -102.5t-82 -75.5t-83.5 -28.5z" />
    <glyph glyph-name="ntilde" unicode="&#xf1;" horiz-adv-x="367" 
d="M5 -1q-12 0 -12 9t12 25q8 9 93 141q2 3 0 6q-3 3 -2 6l36 37q13 19 45 19q8 0 8 -4l-3 -5q-13 -14 -27.5 -31t-30.5 -38q-43 -55 -43 -74q0 -3 1 -4l194 141q24 18 52 18q16 0 16 -12q0 -13 -21 -39q-11 -12 -21 -46q-10 -31 -10 -60q0 -37 24 -31q26 7 48.5 16t40.5 22
q9 6 18 6q5 0 5 -4q0 -3 -9 -14q-13 -16 -66 -37q-54 -20 -77 -20q-39 0 -39 41q0 33 34 105q4 7 4 14t-7 7q-10 0 -23 -10q-40 -28 -71.5 -53t-53.5 -46l-71 -69q-12 -10 -33 -15q-3 -1 -6 -1h-5zM314 328q-16 0 -28.5 7t-24.5 13.5t-27 6.5q-16 0 -28 -12t-17 -12
q-3 0 -3 4q0 6 6.5 17.5t18 21.5t26.5 10t26 -6t24 -12t33 -6q14 0 22.5 9.5t11.5 10.5q4 0 4 -11q-5 -14 -16 -27.5t-28 -13.5z" />
    <glyph glyph-name="ograve" unicode="&#xf2;" horiz-adv-x="327" 
d="M45 -1q-36 0 -36 38q0 59 57 125q11 14 26.5 33.5t35.5 42.5q2 0 -18 7q-13 4 -13 14q0 12 17 12q16 0 53 9q6 4 12.5 8t13.5 8q11 7 22 7q6 0 12.5 -2.5t14.5 -6.5q11 -6 19.5 -10.5t13.5 -6.5l106 1q17 0 17 -8t-17 -10q-21 -3 -38 -3q1 -4 1.5 -7.5t0.5 -5.5
q0 -32 -38 -82q-31 -41 -70 -71q-88 -67 -158 -86q-19 -6 -34 -6zM55 23q2 0 4.5 0.5t6.5 1.5q66 19 149 82q15 11 29.5 26t28.5 32q33 42 33 68q0 12 -7 19h-45q-22 0 -37.5 -3.5t-26.5 -8.5q-29 -22 -86 -88q-20 -24 -39 -55q-25 -41 -25 -55v-2q0 -17 15 -17zM313 358
q-5 0 -20.5 9.5t-33 21.5t-29.5 20q-7 6 -21.5 16t-14.5 16q0 8 9.5 14t16.5 6q8 0 13 -4t9 -10q7 -8 18.5 -22.5t23.5 -27.5t18 -19q14 -10 14 -17q0 -3 -3 -3z" />
    <glyph glyph-name="oacute" unicode="&#xf3;" horiz-adv-x="327" 
d="M45 -1q-36 0 -36 38q0 59 57 125q11 14 26.5 33.5t35.5 42.5q2 0 -18 7q-13 4 -13 14q0 12 17 12q16 0 53 9q6 4 12.5 8t13.5 8q11 7 22 7q6 0 12.5 -2.5t14.5 -6.5q11 -6 19.5 -10.5t13.5 -6.5l106 1q17 0 17 -8t-17 -10q-21 -3 -38 -3q1 -4 1.5 -7.5t0.5 -5.5
q0 -32 -38 -82q-31 -41 -70 -71q-88 -67 -158 -86q-19 -6 -34 -6zM55 23q2 0 4.5 0.5t6.5 1.5q66 19 149 82q15 11 29.5 26t28.5 32q33 42 33 68q0 12 -7 19h-45q-22 0 -37.5 -3.5t-26.5 -8.5q-29 -22 -86 -88q-20 -24 -39 -55q-25 -41 -25 -55v-2q0 -17 15 -17zM289 358
q-3 0 -3 2q0 4 4.5 8.5t6.5 5.5q8 8 20 22t24.5 28.5t19.5 22.5q5 6 10 10t12 4q6 0 15.5 -6t9.5 -14q0 -6 -13.5 -16t-21.5 -16l-30 -20t-33 -21.5t-21 -9.5z" />
    <glyph glyph-name="ocircumflex" unicode="&#xf4;" horiz-adv-x="327" 
d="M45 -1q-36 0 -36 38q0 59 57 125q11 14 26.5 33.5t35.5 42.5q2 0 -18 7q-13 4 -13 14q0 12 17 12q16 0 53 9q6 4 12.5 8t13.5 8q11 7 22 7q6 0 12.5 -2.5t14.5 -6.5q11 -6 19.5 -10.5t13.5 -6.5l106 1q17 0 17 -8t-17 -10q-21 -3 -38 -3q1 -4 1.5 -7.5t0.5 -5.5
q0 -32 -38 -82q-31 -41 -70 -71q-88 -67 -158 -86q-19 -6 -34 -6zM55 23q2 0 4.5 0.5t6.5 1.5q66 19 149 82q15 11 29.5 26t28.5 32q33 42 33 68q0 12 -7 19h-45q-22 0 -37.5 -3.5t-26.5 -8.5q-29 -22 -86 -88q-20 -24 -39 -55q-25 -41 -25 -55v-2q0 -17 15 -17zM209 359
q-3 0 -3 2q0 1 12.5 11l30 24t35.5 28t28 23q23 20 31 20q9 0 13 -20q4 -18 8.5 -35.5t9.5 -30.5q5 -15 5 -19t-3 -4t-11 6q-8 7 -21.5 22.5t-21.5 31.5q-26 -14 -55 -31t-48 -25q-6 -3 -10 -3z" />
    <glyph glyph-name="otilde" unicode="&#xf5;" horiz-adv-x="327" 
d="M45 -1q-36 0 -36 38q0 59 57 125q11 14 26.5 33.5t35.5 42.5q2 0 -18 7q-13 4 -13 14q0 12 17 12q16 0 53 9q6 4 12.5 8t13.5 8q11 7 22 7q6 0 12.5 -2.5t14.5 -6.5q11 -6 19.5 -10.5t13.5 -6.5l106 1q17 0 17 -8t-17 -10q-21 -3 -38 -3q1 -4 1.5 -7.5t0.5 -5.5
q0 -32 -38 -82q-31 -41 -70 -71q-88 -67 -158 -86q-19 -6 -34 -6zM55 23q2 0 4.5 0.5t6.5 1.5q66 19 149 82q15 11 29.5 26t28.5 32q33 42 33 68q0 12 -7 19h-45q-22 0 -37.5 -3.5t-26.5 -8.5q-29 -22 -86 -88q-20 -24 -39 -55q-25 -41 -25 -55v-2q0 -17 15 -17zM343 376
q-16 0 -28.5 7t-24.5 13.5t-27 6.5q-16 0 -28 -12t-17 -12q-3 0 -3 4q0 6 6.5 17.5t18 21.5t26.5 10t26 -6t24 -12t33 -6q14 0 22.5 9.5t11.5 10.5q4 0 4 -11q-5 -14 -16 -27.5t-28 -13.5z" />
    <glyph glyph-name="odieresis" unicode="&#xf6;" horiz-adv-x="327" 
d="M45 -1q-36 0 -36 38q0 59 57 125q11 14 26.5 33.5t35.5 42.5q2 0 -18 7q-13 4 -13 14q0 12 17 12q16 0 53 9q6 4 12.5 8t13.5 8q11 7 22 7q6 0 12.5 -2.5t14.5 -6.5q11 -6 19.5 -10.5t13.5 -6.5l106 1q17 0 17 -8t-17 -10q-21 -3 -38 -3q1 -4 1.5 -7.5t0.5 -5.5
q0 -32 -38 -82q-31 -41 -70 -71q-88 -67 -158 -86q-19 -6 -34 -6zM55 23q2 0 4.5 0.5t6.5 1.5q66 19 149 82q15 11 29.5 26t28.5 32q33 42 33 68q0 12 -7 19h-45q-22 0 -37.5 -3.5t-26.5 -8.5q-29 -22 -86 -88q-20 -24 -39 -55q-25 -41 -25 -55v-2q0 -17 15 -17zM341 381
q-5 0 -10 8.5t-5 13.5q0 8 9 15.5t20.5 12.5t17.5 5t6 -3q0 -5 -2.5 -10.5t-7.5 -13.5q-5 -6 -8.5 -17t-19.5 -11zM250 381q-5 0 -10 8.5t-5 13.5q0 8 9 15.5t20.5 12.5t17.5 5t6 -3q0 -5 -2.5 -10.5t-7.5 -13.5q-5 -6 -8.5 -17t-19.5 -11z" />
    <glyph glyph-name="divide" unicode="&#xf7;" horiz-adv-x="503" 
d="M345 248q-7 0 -12 3t-5 13q0 17 6 24q9 11 41 11q35 0 33 -21q-1 -7 -13 -11q-16 -4 -19 -7q-16 -12 -31 -12zM149 167q-6 0 -12.5 9.5t-6.5 15.5l40 3q54 3 147 3q169 0 193 -11q3 -1 3 -3q0 -6 -6 -6q-50 0 -241 -6q-13 0 -58 -3q-19 -1 -33.5 -1.5t-25.5 -0.5zM267 65
q-7 0 -12 3t-5 13q0 17 6 24q9 11 41 11q35 0 33 -21q-1 -7 -13 -11q-16 -4 -19 -7q-16 -12 -31 -12z" />
    <glyph glyph-name="oslash" unicode="&#xf8;" horiz-adv-x="327" 
d="M-56 -157q-5 0 -5 5q2 13 10 30.5t22 39.5q11 17 26.5 37.5t35.5 44.5q-24 6 -24 37q0 59 57 125q11 14 26.5 33.5t35.5 42.5q2 0 -18 7q-13 4 -13 14q0 12 17 12q16 0 53 9q6 4 12.5 8t13.5 8q11 7 22 7q6 0 12.5 -2.5t14.5 -6.5q11 -6 19.5 -10.5t13.5 -6.5h7l85 93
q36 41 60 41q7 0 4 -5q-7 -9 -38 -41l-83 -88l71 1q17 0 17 -8t-17 -10q-21 -3 -38 -3q1 -4 1.5 -7.5t0.5 -5.5q0 -32 -38 -82q-31 -41 -70 -71q-88 -67 -158 -86l-11 -3q-2 -1 -5 -1t-5 -1q-14 -17 -25.5 -33.5t-21.5 -32.5q-27 -43 -30 -65q0 -7 -14 -16q-13 -10 -23 -10z
M52 23l50 56q13 15 27.5 31.5t30.5 33.5l99 108h-5q-22 0 -37.5 -3.5t-26.5 -8.5q-29 -22 -86 -88q-20 -24 -39 -55q-25 -41 -25 -55v-2q0 -15 12 -17zM83 30q30 11 63 30t69 47q15 11 29.5 26t28.5 32q33 42 33 68q0 12 -7 19h-13l-73 -76q-38 -40 -70.5 -76.5t-59.5 -69.5
z" />
    <glyph glyph-name="ugrave" unicode="&#xf9;" horiz-adv-x="381" 
d="M233 -2q-22 0 -22 19l2 8q20 31 40 68t42 80q-10 -7 -21.5 -15t-24.5 -18t-27.5 -21t-31.5 -22l-76 -50q-34 -22 -58 -32t-38 -10q-18 0 -18 30q0 25 23 63q8 14 17 27.5t18 26.5t19.5 30t22.5 37l2 8t2 9q1 8 6 22q2 5 26 12q14 5 26 9.5t20 8.5q7 4 12 4q11 0 11 -10
q0 -1 -2 -7q-27 -32 -54 -65t-54 -68q-48 -61 -48 -89q0 -8 8 -8q15 0 65 32l42 28t41 28q48 32 88.5 64t73.5 63q11 8 20 8q14 0 14 -9q0 -5 -4 -9q-23 -28 -39.5 -50.5t-26.5 -41.5l-52 -104q26 11 64 26.5t90 35.5q3 1 5.5 1.5t3.5 0.5q8 0 8 -6q0 -8 -15 -13
q-40 -11 -77 -30q-17 -9 -33 -18t-33 -19q-1 -1 -3 -2l-6 -3t-8.5 -6t-11.5 -9q-20 -14 -28 -14zM331 345q-5 0 -20.5 9.5t-33 21.5t-29.5 20q-7 6 -21.5 16t-14.5 16q0 8 9.5 14t16.5 6q8 0 13 -4t9 -10q7 -8 18.5 -22.5t23.5 -27.5t18 -19q14 -10 14 -17q0 -3 -3 -3z" />
    <glyph glyph-name="uacute" unicode="&#xfa;" horiz-adv-x="381" 
d="M233 -2q-22 0 -22 19l2 8q20 31 40 68t42 80q-10 -7 -21.5 -15t-24.5 -18t-27.5 -21t-31.5 -22l-76 -50q-34 -22 -58 -32t-38 -10q-18 0 -18 30q0 25 23 63q8 14 17 27.5t18 26.5t19.5 30t22.5 37l2 8t2 9q1 8 6 22q2 5 26 12q14 5 26 9.5t20 8.5q7 4 12 4q11 0 11 -10
q0 -1 -2 -7q-27 -32 -54 -65t-54 -68q-48 -61 -48 -89q0 -8 8 -8q15 0 65 32l42 28t41 28q48 32 88.5 64t73.5 63q11 8 20 8q14 0 14 -9q0 -5 -4 -9q-23 -28 -39.5 -50.5t-26.5 -41.5l-52 -104q26 11 64 26.5t90 35.5q3 1 5.5 1.5t3.5 0.5q8 0 8 -6q0 -8 -15 -13
q-40 -11 -77 -30q-17 -9 -33 -18t-33 -19q-1 -1 -3 -2l-6 -3t-8.5 -6t-11.5 -9q-20 -14 -28 -14zM307 345q-3 0 -3 2q0 4 4.5 8.5t6.5 5.5q8 8 20 22t24.5 28.5t19.5 22.5q5 6 10 10t12 4q6 0 15.5 -6t9.5 -14q0 -6 -13.5 -16t-21.5 -16l-30 -20t-33 -21.5t-21 -9.5z" />
    <glyph glyph-name="ucircumflex" unicode="&#xfb;" horiz-adv-x="381" 
d="M233 -2q-22 0 -22 19l2 8q20 31 40 68t42 80q-10 -7 -21.5 -15t-24.5 -18t-27.5 -21t-31.5 -22l-76 -50q-34 -22 -58 -32t-38 -10q-18 0 -18 30q0 25 23 63q8 14 17 27.5t18 26.5t19.5 30t22.5 37l2 8t2 9q1 8 6 22q2 5 26 12q14 5 26 9.5t20 8.5q7 4 12 4q11 0 11 -10
q0 -1 -2 -7q-27 -32 -54 -65t-54 -68q-48 -61 -48 -89q0 -8 8 -8q15 0 65 32l42 28t41 28q48 32 88.5 64t73.5 63q11 8 20 8q14 0 14 -9q0 -5 -4 -9q-23 -28 -39.5 -50.5t-26.5 -41.5l-52 -104q26 11 64 26.5t90 35.5q3 1 5.5 1.5t3.5 0.5q8 0 8 -6q0 -8 -15 -13
q-40 -11 -77 -30q-17 -9 -33 -18t-33 -19q-1 -1 -3 -2l-6 -3t-8.5 -6t-11.5 -9q-20 -14 -28 -14zM227 346q-3 0 -3 2q0 1 12.5 11l30 24t35.5 28t28 23q23 20 31 20q9 0 13 -20q4 -18 8.5 -35.5t9.5 -30.5q5 -15 5 -19t-3 -4t-11 6q-8 7 -21.5 22.5t-21.5 31.5
q-26 -14 -55 -31t-48 -25q-6 -3 -10 -3z" />
    <glyph glyph-name="udieresis" unicode="&#xfc;" horiz-adv-x="381" 
d="M233 -2q-22 0 -22 19l2 8q20 31 40 68t42 80q-10 -7 -21.5 -15t-24.5 -18t-27.5 -21t-31.5 -22l-76 -50q-34 -22 -58 -32t-38 -10q-18 0 -18 30q0 25 23 63q8 14 17 27.5t18 26.5t19.5 30t22.5 37l2 8t2 9q1 8 6 22q2 5 26 12q14 5 26 9.5t20 8.5q7 4 12 4q11 0 11 -10
q0 -1 -2 -7q-27 -32 -54 -65t-54 -68q-48 -61 -48 -89q0 -8 8 -8q15 0 65 32l42 28t41 28q48 32 88.5 64t73.5 63q11 8 20 8q14 0 14 -9q0 -5 -4 -9q-23 -28 -39.5 -50.5t-26.5 -41.5l-52 -104q26 11 64 26.5t90 35.5q3 1 5.5 1.5t3.5 0.5q8 0 8 -6q0 -8 -15 -13
q-40 -11 -77 -30q-17 -9 -33 -18t-33 -19q-1 -1 -3 -2l-6 -3t-8.5 -6t-11.5 -9q-20 -14 -28 -14zM359 368q-5 0 -10 8.5t-5 13.5q0 8 9 15.5t20.5 12.5t17.5 5t6 -3q0 -5 -2.5 -10.5t-7.5 -13.5q-5 -6 -8.5 -17t-19.5 -11zM268 368q-5 0 -10 8.5t-5 13.5q0 8 9 15.5
t20.5 12.5t17.5 5t6 -3q0 -5 -2.5 -10.5t-7.5 -13.5q-5 -6 -8.5 -17t-19.5 -11z" />
    <glyph glyph-name="yacute" unicode="&#xfd;" horiz-adv-x="430" 
d="M-45 -358q-53 0 -92 27.5t-39 70.5q0 30 20 62q8 12 34.5 35t71.5 57t86.5 61.5t81.5 50.5q43 25 92 49t104 47l21 87q-23 -11 -69 -38.5t-117 -70.5q-88 -55 -131 -55q-12 0 -12 8q0 5 6 15q8 11 18 25.5t21 30.5q11 17 24 35.5t28 39.5q5 7 5 15v11q0 8 2 10q8 9 41 21
t50 12q8 0 8 -4q0 -1 -0.5 -2l-1.5 -3q-22 -21 -72 -72q-8 -8 -18.5 -23l-24.5 -35q-12 -18 -12 -25q0 -5 7 -5q20 0 127 62q38 22 69 42t57 37l5 21q5 17 34 27q11 4 23 4q15 0 15 -11q0 -13 -23 -39q-1 -4 -2 -8.5t-3 -9.5l-8 -29l-13 -50q62 24 85 24q16 0 16 -6
q0 -4 -11 -7q-6 -2 -17 -6t-27 -10q-50 -18 -62 -57q-14 -46 -31.5 -89.5t-38.5 -84.5q-126 -247 -327 -247zM-43 -337q107 0 187 80q51 51 103 157q30 62 60 177q-72 -34 -177 -93q-81 -44 -161 -108q-76 -58 -93 -86q-17 -29 -17 -51q0 -34 29 -55t69 -21zM293 335
q-3 0 -3 2q0 4 4.5 8.5t6.5 5.5q8 8 20 22t24.5 28.5t19.5 22.5q5 6 10 10t12 4q6 0 15.5 -6t9.5 -14q0 -6 -13.5 -16t-21.5 -16l-30 -20t-33 -21.5t-21 -9.5z" />
    <glyph glyph-name="thorn" unicode="&#xfe;" horiz-adv-x="305" 
d="M-147 -282q-5 0 -5 10q2 56 147 296q2 6 4 9q7 13 19.5 33.5t29.5 48.5t40.5 64t52.5 79q29 44 53.5 79t43.5 63q20 28 34.5 47.5t24.5 31.5q6 7 41 21q35 15 46 15q12 0 12 -8q0 -9 -19 -12q-28 -4 -63 -44q-34 -40 -114 -162q-20 -32 -20 -41q0 -1 2 -7q23 16 58 28.5
t84 20.5q4 1 10 1q22 0 22 -22q0 -32 -45 -92q-23 -31 -50 -57.5t-59 -49.5q-122 -89 -184 -89q-7 0 -11 1q-15 -24 -28 -44l-26 -40q-70 -111 -80 -154q-6 -26 -20 -26zM66 38q72 5 139 61q67 55 85 128q1 3 1 9q0 21 -16 19q-26 -4 -55 -17t-54.5 -31.5t-41.5 -40.5
t-34.5 -49.5t-38.5 -60.5q-4 -7 -1 -12q4 -7 16 -6z" />
    <glyph glyph-name="ydieresis" unicode="&#xff;" horiz-adv-x="430" 
d="M-45 -358q-53 0 -92 27.5t-39 70.5q0 30 20 62q8 12 34.5 35t71.5 57t86.5 61.5t81.5 50.5q43 25 92 49t104 47l21 87q-23 -11 -69 -38.5t-117 -70.5q-88 -55 -131 -55q-12 0 -12 8q0 5 6 15q8 11 18 25.5t21 30.5q11 17 24 35.5t28 39.5q5 7 5 15v11q0 8 2 10q8 9 41 21
t50 12q8 0 8 -4q0 -1 -0.5 -2l-1.5 -3q-22 -21 -72 -72q-8 -8 -18.5 -23l-24.5 -35q-12 -18 -12 -25q0 -5 7 -5q20 0 127 62q38 22 69 42t57 37l5 21q5 17 34 27q11 4 23 4q15 0 15 -11q0 -13 -23 -39q-1 -4 -2 -8.5t-3 -9.5l-8 -29l-13 -50q62 24 85 24q16 0 16 -6
q0 -4 -11 -7q-6 -2 -17 -6t-27 -10q-50 -18 -62 -57q-14 -46 -31.5 -89.5t-38.5 -84.5q-126 -247 -327 -247zM-43 -337q107 0 187 80q51 51 103 157q30 62 60 177q-72 -34 -177 -93q-81 -44 -161 -108q-76 -58 -93 -86q-17 -29 -17 -51q0 -34 29 -55t69 -21zM345 358
q-5 0 -10 8.5t-5 13.5q0 8 9 15.5t20.5 12.5t17.5 5t6 -3q0 -5 -2.5 -10.5t-7.5 -13.5q-5 -6 -8.5 -17t-19.5 -11zM254 358q-5 0 -10 8.5t-5 13.5q0 8 9 15.5t20.5 12.5t17.5 5t6 -3q0 -5 -2.5 -10.5t-7.5 -13.5q-5 -6 -8.5 -17t-19.5 -11z" />
    <glyph glyph-name="Amacron" unicode="&#x100;" horiz-adv-x="905" 
d="M91 -132q-115 0 -115 96q0 84 101 209q107 131 242 164q11 2 21 3.5t19 1.5q56 0 56 -38q0 -24 -10 -24l-4 6q-1 2 -2 3.5t-3 3.5l-7 10q-17 23 -44 23q-102 0 -248 -165q-78 -88 -78 -186q0 -101 97 -91q82 9 194 79t258 197l79 69q-86 -6 -259 -27q-16 0 -16 18
q0 30 25 30q55 16 90 16h1q0 -2 -11 -8q-14 -8 -10 -8q43 0 91.5 0.5t103.5 1.5q2 1 12 1l160 140q45 40 76.5 69.5t50.5 49.5q8 8 12 8q3 0 3 -4q0 -6 -6 -12q-19 -19 -43.5 -44.5t-55.5 -56.5t-67 -68t-78 -80h18h10.5t12.5 1h41q29 56 67 106l92 121q23 30 48.5 55
t51.5 47q10 10 20 10q5 0 5 -3q0 -4 -7 -10q-38 -32 -85 -90.5t-103 -145.5q-16 -25 -28.5 -47t-21.5 -42q7 1 13.5 1h11.5h20q22 0 22 -7q0 -6 -18 -8q-2 0 -4.5 0.5t-4.5 0.5q-20 0 -52 -15q-50 -114 -50 -183q0 -22 4 -30q3 -4 9 -4q9 0 35 17q32 23 36 24q14 8 31 17
t38 18q6 2 6 -3v-2q0 -3 -8 -6q-28 -10 -75 -42q-53 -38 -78 -70q-4 -6 -15 -6q-13 0 -26 10t-14 22q0 5 -0.5 9t-0.5 8q0 85 71 229q-28 -1 -57 -6.5t-60 -13.5l-91 -82q-57 -51 -114.5 -94t-116.5 -78q-158 -95 -268 -95zM997 700q-7 0 -7 6q0 14 19 29q36 3 68 3
q19 0 43.5 -1t48 -2.5t37.5 -4.5l23 -4q8 -2 8 -7q0 -7 -9 -7h-9h-7.5t-10.5 1q-30 1 -66.5 -0.5t-72.5 -4t-65 -8.5z" />
    <glyph glyph-name="amacron" unicode="&#x101;" horiz-adv-x="367" 
d="M42 1q-23 0 -23 27q0 19 14 49q36 67 119 138q101 84 164 84q39 0 54 -15q23 17 49 17q5 0 5 -3q0 -2 -2 -4q-14 -16 -31.5 -43t-37.5 -67q-47 -92 -47 -135q0 -10 1 -12v-1q0 -6 -6 -14.5t-12 -8.5q-12 0 -12 40q0 68 31 130l-85 -71q-48 -40 -86.5 -65.5t-66.5 -38.5
q-14 -7 -28 -7zM87 47q6 0 13 4q13 5 45 26t69 52q46 38 76.5 69.5t44.5 47.5q-6 17 -24 17q-35 0 -112 -60q-87 -70 -114 -115q-9 -16 -9 -30q0 -11 11 -11zM265 369q-7 0 -7 6q0 14 19 29q36 3 68 3q28 0 52 -2t46 -6l23 -4q8 -2 8 -7q0 -7 -9 -7h-9h-7.5t-10.5 1
q-45 1 -87.5 -2t-85.5 -11z" />
    <glyph glyph-name="Abreve" unicode="&#x102;" horiz-adv-x="905" 
d="M91 -132q-115 0 -115 96q0 84 101 209q107 131 242 164q11 2 21 3.5t19 1.5q56 0 56 -38q0 -24 -10 -24l-4 6q-1 2 -2 3.5t-3 3.5l-7 10q-17 23 -44 23q-102 0 -248 -165q-78 -88 -78 -186q0 -101 97 -91q82 9 194 79t258 197l79 69q-86 -6 -259 -27q-16 0 -16 18
q0 30 25 30q55 16 90 16h1q0 -2 -11 -8q-14 -8 -10 -8q43 0 91.5 0.5t103.5 1.5q2 1 12 1l160 140q45 40 76.5 69.5t50.5 49.5q8 8 12 8q3 0 3 -4q0 -6 -6 -12q-19 -19 -43.5 -44.5t-55.5 -56.5t-67 -68t-78 -80h18h10.5t12.5 1h41q29 56 67 106l92 121q23 30 48.5 55
t51.5 47q10 10 20 10q5 0 5 -3q0 -4 -7 -10q-38 -32 -85 -90.5t-103 -145.5q-16 -25 -28.5 -47t-21.5 -42q7 1 13.5 1h11.5h20q22 0 22 -7q0 -6 -18 -8q-2 0 -4.5 0.5t-4.5 0.5q-20 0 -52 -15q-50 -114 -50 -183q0 -22 4 -30q3 -4 9 -4q9 0 35 17q32 23 36 24q14 8 31 17
t38 18q6 2 6 -3v-2q0 -3 -8 -6q-28 -10 -75 -42q-53 -38 -78 -70q-4 -6 -15 -6q-13 0 -26 10t-14 22q0 5 -0.5 9t-0.5 8q0 85 71 229q-28 -1 -57 -6.5t-60 -13.5l-91 -82q-57 -51 -114.5 -94t-116.5 -78q-158 -95 -268 -95zM1114 685q-46 0 -65.5 17.5t-19.5 41.5q0 22 8 22
q5 0 6 -10q3 -15 19.5 -27t58.5 -12q60 0 88 39q6 8 9.5 7t2.5 -6q-2 -26 -30 -49t-77 -23z" />
    <glyph glyph-name="abreve" unicode="&#x103;" horiz-adv-x="367" 
d="M42 1q-23 0 -23 27q0 19 14 49q36 67 119 138q101 84 164 84q39 0 54 -15q23 17 49 17q5 0 5 -3q0 -2 -2 -4q-14 -16 -31.5 -43t-37.5 -67q-47 -92 -47 -135q0 -10 1 -12v-1q0 -6 -6 -14.5t-12 -8.5q-12 0 -12 40q0 68 31 130l-85 -71q-48 -40 -86.5 -65.5t-66.5 -38.5
q-14 -7 -28 -7zM87 47q6 0 13 4q13 5 45 26t69 52q46 38 76.5 69.5t44.5 47.5q-6 17 -24 17q-35 0 -112 -60q-87 -70 -114 -115q-9 -16 -9 -30q0 -11 11 -11zM357 354q-34 0 -52 17.5t-18 41.5q0 22 8 22q5 0 6 -10q3 -15 17.5 -27t45.5 -12q21 0 40 9t34 30q6 8 9.5 7
t2.5 -6q-2 -26 -28.5 -49t-64.5 -23z" />
    <glyph glyph-name="Aogonek" unicode="&#x104;" horiz-adv-x="905" 
d="M91 -132q-115 0 -115 96q0 84 101 209q107 131 242 164q11 2 21 3.5t19 1.5q56 0 56 -38q0 -24 -10 -24l-4 6q-1 2 -2 3.5t-3 3.5l-7 10q-17 23 -44 23q-102 0 -248 -165q-78 -88 -78 -186q0 -101 97 -91q82 9 194 79t258 197l79 69q-86 -6 -259 -27q-16 0 -16 18
q0 30 25 30q55 16 90 16h1q0 -2 -11 -8q-14 -8 -10 -8q43 0 91.5 0.5t103.5 1.5q2 1 12 1l160 140q45 40 76.5 69.5t50.5 49.5q8 8 12 8q3 0 3 -4q0 -6 -6 -12q-19 -19 -43.5 -44.5t-55.5 -56.5t-67 -68t-78 -80h18h10.5t12.5 1h41q29 56 67 106l92 121q23 30 48.5 55
t51.5 47q10 10 20 10q5 0 5 -3q0 -4 -7 -10q-38 -32 -85 -90.5t-103 -145.5q-16 -25 -28.5 -47t-21.5 -42q7 1 13.5 1h11.5h20q22 0 22 -7q0 -6 -18 -8q-2 0 -4.5 0.5t-4.5 0.5q-20 0 -52 -15q-50 -114 -50 -183q0 -22 4 -30q3 -4 9 -4q9 0 35 17q32 23 36 24q14 8 31 17
t38 18q6 2 6 -3v-2q0 -3 -8 -6q-28 -10 -75 -42q-53 -38 -78 -70q-4 -6 -15 -6q-13 0 -26 10t-14 22q0 5 -0.5 9t-0.5 8q0 85 71 229q-28 -1 -57 -6.5t-60 -13.5l-91 -82q-57 -51 -114.5 -94t-116.5 -78q-158 -95 -268 -95zM798 -157q-32 0 -51.5 17.5t-19.5 43.5
q0 28 21.5 53.5t55.5 40.5l4 -5q-20 -19 -29.5 -40.5t-9.5 -38.5t11 -30t33 -13q30 0 46 11.5t23 11.5q2 0 2 -3q0 -4 -11 -15.5t-30 -22t-45 -10.5z" />
    <glyph glyph-name="aogonek" unicode="&#x105;" horiz-adv-x="367" 
d="M42 1q-23 0 -23 27q0 19 14 49q36 67 119 138q101 84 164 84q39 0 54 -15q23 17 49 17q5 0 5 -3q0 -2 -2 -4q-14 -16 -31.5 -43t-37.5 -67q-47 -92 -47 -135q0 -10 1 -12v-1q0 -6 -6 -14.5t-12 -8.5q-12 0 -12 40q0 68 31 130l-85 -71q-48 -40 -86.5 -65.5t-66.5 -38.5
q-14 -7 -28 -7zM87 47q6 0 13 4q13 5 45 26t69 52q46 38 76.5 69.5t44.5 47.5q-6 17 -24 17q-35 0 -112 -60q-87 -70 -114 -115q-9 -16 -9 -30q0 -11 11 -11zM291 -109q-28 0 -44.5 15t-16.5 37q0 24 19 46t47 35l4 -4q-17 -17 -25 -35t-8 -33q0 -14 9 -24.5t28 -10.5
q26 0 39.5 9t19.5 9q2 0 2 -3t-9.5 -13t-26 -19t-38.5 -9z" />
    <glyph glyph-name="Cacute" unicode="&#x106;" horiz-adv-x="780" 
d="M208 -93q-93 0 -153 48t-60 123q0 83 73 168q103 121 258 205q165 89 328 99q9 1 17.5 1h15.5q49 0 73 -12q42 42 54 42q7 0 7 -7q0 -9 -10 -16l-34 -30q23 -20 23 -62q0 -66 -66 -125q-57 -51 -100 -51q-24 0 -24 22q0 6 1 10q15 83 126 195q-27 18 -81 15
q-142 -9 -319 -113q-146 -87 -209 -167q-98 -125 -98 -204q0 -110 170 -110q85 0 170 21q10 2 24 6.5t32 9.5l40.5 13.5t49.5 15.5q34 11 73 29t84 41l72 38t72 39q7 4 12 4q8 0 8 -6q0 -10 -15 -18q-44 -25 -77.5 -44t-58.5 -32q-49 -26 -91.5 -46t-78.5 -34
q-93 -36 -141 -48q-82 -20 -167 -20zM670 324q25 0 59 43q38 47 38 89q0 29 -15 48q-71 -71 -94 -158q0 -1 -0.5 -3t0.5 -4q0 -15 12 -15zM777 685q-2 0 -2 2q0 3 4.5 7.5t8.5 7.5q9 6 23.5 18.5t30 25.5t23.5 20q5 6 11 9.5t15 3.5q8 0 20 -5.5t12 -12.5q0 -6 -17.5 -15
t-26.5 -14q-14 -7 -35.5 -18.5t-40.5 -20t-26 -8.5z" />
    <glyph glyph-name="cacute" unicode="&#x107;" horiz-adv-x="272" 
d="M73 0q-64 0 -64 52q0 14 6 32q18 55 85 113q62 57 136 92q44 21 87 21q23 0 23 -12q0 -8 -14 -22q-13 -12 -18 -9q-18 9 -35 9q-18 0 -36 -9q-64 -33 -115 -84q-51 -53 -68 -103q-5 -17 -5 -25q0 -30 25 -30q29 0 85.5 25.5t139.5 74.5q3 1 4 -3v-3q0 -11 -7 -18
q-12 -10 -34.5 -23t-55.5 -30q-82 -42 -119 -47q-5 -1 -10 -1h-10zM325 365q-3 0 -3 2q0 4 4.5 8.5t6.5 5.5q8 8 20 22t24.5 28.5t19.5 22.5q5 6 10 10t12 4q6 0 15.5 -6t9.5 -14q0 -6 -13.5 -16t-21.5 -16l-30 -20t-33 -21.5t-21 -9.5z" />
    <glyph glyph-name="Ccircumflex" unicode="&#x108;" horiz-adv-x="780" 
d="M208 -93q-93 0 -153 48t-60 123q0 83 73 168q103 121 258 205q165 89 328 99q9 1 17.5 1h15.5q49 0 73 -12q42 42 54 42q7 0 7 -7q0 -9 -10 -16l-34 -30q23 -20 23 -62q0 -66 -66 -125q-57 -51 -100 -51q-24 0 -24 22q0 6 1 10q15 83 126 195q-27 18 -81 15
q-142 -9 -319 -113q-146 -87 -209 -167q-98 -125 -98 -204q0 -110 170 -110q85 0 170 21q10 2 24 6.5t32 9.5l40.5 13.5t49.5 15.5q34 11 73 29t84 41l72 38t72 39q7 4 12 4q8 0 8 -6q0 -10 -15 -18q-44 -25 -77.5 -44t-58.5 -32q-49 -26 -91.5 -46t-78.5 -34
q-93 -36 -141 -48q-82 -20 -167 -20zM670 324q25 0 59 43q38 47 38 89q0 29 -15 48q-71 -71 -94 -158q0 -1 -0.5 -3t0.5 -4q0 -15 12 -15zM679 686q-3 0 -3 2t15 11.5t37 22t43 25t34 20.5q14 9 23 14t15 5q10 0 16 -19q5 -16 10.5 -32.5t11.5 -28.5t6 -17q0 -4 -3 -4
q-5 0 -14 6q-10 6 -26 17.5t-26 26.5q-32 -13 -67.5 -25.5t-58.5 -20.5q-7 -3 -13 -3z" />
    <glyph glyph-name="ccircumflex" unicode="&#x109;" horiz-adv-x="272" 
d="M73 0q-64 0 -64 52q0 14 6 32q18 55 85 113q62 57 136 92q44 21 87 21q23 0 23 -12q0 -8 -14 -22q-13 -12 -18 -9q-18 9 -35 9q-18 0 -36 -9q-64 -33 -115 -84q-51 -53 -68 -103q-5 -17 -5 -25q0 -30 25 -30q29 0 85.5 25.5t139.5 74.5q3 1 4 -3v-3q0 -11 -7 -18
q-12 -10 -34.5 -23t-55.5 -30q-82 -42 -119 -47q-5 -1 -10 -1h-10zM245 366q-3 0 -3 2q0 1 12.5 11l30 24t35.5 28t28 23q23 20 31 20q9 0 13 -20q4 -18 8.5 -35.5t9.5 -30.5q5 -15 5 -19t-3 -4t-11 6q-8 7 -21.5 22.5t-21.5 31.5q-26 -14 -55 -31t-48 -25q-6 -3 -10 -3z
" />
    <glyph glyph-name="Cdotaccent" unicode="&#x10a;" horiz-adv-x="780" 
d="M208 -93q-93 0 -153 48t-60 123q0 83 73 168q103 121 258 205q165 89 328 99q9 1 17.5 1h15.5q49 0 73 -12q42 42 54 42q7 0 7 -7q0 -9 -10 -16l-34 -30q23 -20 23 -62q0 -66 -66 -125q-57 -51 -100 -51q-24 0 -24 22q0 6 1 10q15 83 126 195q-27 18 -81 15
q-142 -9 -319 -113q-146 -87 -209 -167q-98 -125 -98 -204q0 -110 170 -110q85 0 170 21q10 2 24 6.5t32 9.5l40.5 13.5t49.5 15.5q34 11 73 29t84 41l72 38t72 39q7 4 12 4q8 0 8 -6q0 -10 -15 -18q-44 -25 -77.5 -44t-58.5 -32q-49 -26 -91.5 -46t-78.5 -34
q-93 -36 -141 -48q-82 -20 -167 -20zM670 324q25 0 59 43q38 47 38 89q0 29 -15 48q-71 -71 -94 -158q0 -1 -0.5 -3t0.5 -4q0 -15 12 -15zM777 705q-6 0 -11.5 9.5t-5.5 14.5q0 9 10 17.5t22.5 14t19.5 5.5t7 -4q0 -5 -3 -11.5t-8 -14.5q-6 -7 -10 -19t-21 -12z" />
    <glyph glyph-name="cdotaccent" unicode="&#x10b;" horiz-adv-x="272" 
d="M73 0q-64 0 -64 52q0 14 6 32q18 55 85 113q62 57 136 92q44 21 87 21q23 0 23 -12q0 -8 -14 -22q-13 -12 -18 -9q-18 9 -35 9q-18 0 -36 -9q-64 -33 -115 -84q-51 -53 -68 -103q-5 -17 -5 -25q0 -30 25 -30q29 0 85.5 25.5t139.5 74.5q3 1 4 -3v-3q0 -11 -7 -18
q-12 -10 -34.5 -23t-55.5 -30q-82 -42 -119 -47q-5 -1 -10 -1h-10zM325 388q-5 0 -10 8.5t-5 13.5q0 8 9 15.5t20.5 12.5t17.5 5t6 -3q0 -5 -2.5 -10.5t-7.5 -13.5q-5 -6 -8.5 -17t-19.5 -11z" />
    <glyph glyph-name="Ccaron" unicode="&#x10c;" horiz-adv-x="780" 
d="M208 -93q-93 0 -153 48t-60 123q0 83 73 168q103 121 258 205q165 89 328 99q9 1 17.5 1h15.5q49 0 73 -12q42 42 54 42q7 0 7 -7q0 -9 -10 -16l-34 -30q23 -20 23 -62q0 -66 -66 -125q-57 -51 -100 -51q-24 0 -24 22q0 6 1 10q15 83 126 195q-27 18 -81 15
q-142 -9 -319 -113q-146 -87 -209 -167q-98 -125 -98 -204q0 -110 170 -110q85 0 170 21q10 2 24 6.5t32 9.5l40.5 13.5t49.5 15.5q34 11 73 29t84 41l72 38t72 39q7 4 12 4q8 0 8 -6q0 -10 -15 -18q-44 -25 -77.5 -44t-58.5 -32q-49 -26 -91.5 -46t-78.5 -34
q-93 -36 -141 -48q-82 -20 -167 -20zM670 324q25 0 59 43q38 47 38 89q0 29 -15 48q-71 -71 -94 -158q0 -1 -0.5 -3t0.5 -4q0 -15 12 -15zM953 785q3 0 3 -2t-15 -11.5t-37 -22t-43 -25t-34 -20.5q-14 -9 -23 -14t-15 -5q-10 0 -16 19q-4 17 -10 33t-12 28t-6 17q0 4 3 4
q5 0 14 -6q10 -6 26 -17.5t26 -26.5q32 13 68 26t58 20q8 3 13 3z" />
    <glyph glyph-name="ccaron" unicode="&#x10d;" horiz-adv-x="272" 
d="M73 0q-64 0 -64 52q0 14 6 32q18 55 85 113q62 57 136 92q44 21 87 21q23 0 23 -12q0 -8 -14 -22q-13 -12 -18 -9q-18 9 -35 9q-18 0 -36 -9q-64 -33 -115 -84q-51 -53 -68 -103q-5 -17 -5 -25q0 -30 25 -30q29 0 85.5 25.5t139.5 74.5q3 1 4 -3v-3q0 -11 -7 -18
q-12 -10 -34.5 -23t-55.5 -30q-82 -42 -119 -47q-5 -1 -10 -1h-10zM470 471q3 0 3 -2q0 -1 -12.5 -11l-30 -24l-35 -28t-28.5 -23q-23 -20 -31 -20q-9 0 -13 20q-4 18 -8.5 35.5t-9.5 30.5q-5 15 -5 19t3 4q4 0 11 -6q8 -7 21.5 -22t21.5 -32q26 14 55 31t48 25q6 3 10 3z
" />
    <glyph glyph-name="Dcaron" unicode="&#x10e;" horiz-adv-x="737" 
d="M119 -78q-23 -1 -43.5 4t-39.5 15q-37 21 -37 54q0 72 171 145q8 11 33 42q12 16 28.5 36.5t36.5 45.5q34 43 64.5 79t58.5 66q-16 -7 -30.5 -12.5t-28.5 -9.5q2 2 7.5 6.5t13.5 9.5t18 12.5t23 15.5l54 36q12 12 41 12q17 0 22 -8q0 -1 0.5 -1.5t0.5 -1.5q0 -9 -17 -23
q-26 -22 -71 -66.5t-109 -111.5q-8 -8 -18 -19t-21 -25l-51 -62q31 11 63.5 20t66.5 17q2 1 10 1q11 0 11 -4q0 -7 -28 -13q-56 -12 -106 -39q-47 -24 -60 -46q-32 -44 -32 -65q0 -12 8 -12q24 0 44 17q8 5 17 5q8 2 8 -2q0 -1 -2 -3q-70 -46 -105 -46q-19 0 -19 16
q0 4 1.5 8.5t3.5 11.5q5 12 15 31.5t24 45.5q-124 -58 -124 -108q0 -23 27 -36t65 -12q38 2 84 9.5t100 21.5q43 11 75.5 21.5t54.5 20.5q147 68 260 185q118 121 118 219q0 158 -328 151q-83 -1 -178 -36q-127 -46 -155 -121q-4 -8 -4 -21q0 -23 13 -42q14 -19 31 -23
q18 -4 18 -14q0 -8 -15 -5q-31 6 -55 33.5t-24 56.5q0 15 4 23q32 87 146 132q45 18 97.5 28.5t111.5 10.5h31q170 0 257 -50q86 -50 86 -137q0 -104 -109 -222t-270 -190q-156 -70 -343 -77zM812 785q3 0 3 -2t-15 -11.5t-37 -22t-43 -25t-34 -20.5q-14 -9 -23 -14t-15 -5
q-10 0 -16 19q-4 17 -10 33t-12 28t-6 17q0 4 3 4q5 0 14 -6q10 -6 26 -17.5t26 -26.5q32 13 68 26t58 20q8 3 13 3z" />
    <glyph glyph-name="dcaron" unicode="&#x10f;" horiz-adv-x="367" 
d="M290 -14q-12 0 -20 12q-11 17 -11 46q0 53 38 146q-157 -144 -237 -180q-21 -9 -36 -9q-29 0 -29 28q0 15 10 34q37 68 119 138q102 87 163 87q26 0 46 -11l69 116q24 41 46 67.5t38 40.5q7 7 25 7q16 0 16 -10q0 -8 -9 -19q-25 -33 -165 -237q-8 -16 -16.5 -37.5
t-18.5 -48.5q-27 -76 -27 -115q0 -27 14 -33q6 -1 6 -7q0 -15 -21 -15zM65 46q2 0 5 1.5t7 2.5q17 8 44.5 27t64.5 48q26 20 55 48.5t63 63.5q-10 21 -25 21q-44 0 -117 -61q-67 -55 -95 -101q-13 -19 -13 -34q0 -16 11 -16zM513 377q-1 0 -2 2q0 6 11 25t21.5 44t10.5 45
v11q3 3 10 4q5 0 16 -5t11 -12q0 -2 -1 -3q-7 -23 -26 -50.5t-36 -45.5q-1 -2 -6.5 -7.5l-7.5 -7.5h-1z" />
    <glyph glyph-name="Dcroat" unicode="&#x110;" horiz-adv-x="737" 
d="M119 -78q-23 -1 -43.5 4t-39.5 15q-37 21 -37 54q0 72 171 145q8 11 33 42q6 8 13 17t15 19q-43 -8 -83 -20q-9 -1 -10 5q-2 13 19 31q43 9 81 13q9 2 18 2q7 8 12 15q34 43 64.5 79t58.5 66q-16 -7 -30.5 -12.5t-28.5 -9.5q2 2 7.5 6.5t13.5 9.5t18 12.5t23 15.5l54 36
q12 12 41 12q17 0 22 -8q0 -1 0.5 -1.5t0.5 -1.5q0 -9 -17 -23q-26 -22 -71 -66.5t-109 -111.5q-6 -6 -13 -14q28 1 55 1l29 -1q9 0 9 -5q1 -7 -10 -9l-11 -1q-3 -1 -8.5 -1.5t-12.5 -0.5q-39 -4 -74 -9l-3 -4l-51 -62q31 11 63.5 20t66.5 17q2 1 10 1q11 0 11 -4
q0 -7 -28 -13q-56 -12 -106 -39q-47 -24 -60 -46q-32 -44 -32 -65q0 -12 8 -12q24 0 44 17q8 5 17 5q8 2 8 -2q0 -1 -2 -3q-70 -46 -105 -46q-19 0 -19 16q0 4 1.5 8.5t3.5 11.5q5 12 15 31.5t24 45.5q-124 -58 -124 -108q0 -23 27 -36t65 -12q38 2 84 9.5t100 21.5
q43 11 75.5 21.5t54.5 20.5q147 68 260 185q118 121 118 219q0 158 -328 151q-83 -1 -178 -36q-127 -46 -155 -121q-4 -8 -4 -21q0 -23 13 -42q14 -19 31 -23q18 -4 18 -14q0 -8 -15 -5q-31 6 -55 33.5t-24 56.5q0 15 4 23q32 87 146 132q45 18 97.5 28.5t111.5 10.5h31
q170 0 257 -50q86 -50 86 -137q0 -104 -109 -222t-270 -190q-156 -70 -343 -77z" />
    <glyph glyph-name="dcroat" unicode="&#x111;" horiz-adv-x="367" 
d="M290 -14q-12 0 -20 12q-11 17 -11 46q0 53 38 146q-157 -144 -237 -180q-21 -9 -36 -9q-29 0 -29 28q0 15 10 34q37 68 119 138q102 87 163 87q26 0 46 -11l69 116q24 41 46 67.5t38 40.5q7 7 25 7q16 0 16 -10q0 -8 -9 -19q-25 -33 -165 -237q-8 -16 -16.5 -37.5
t-18.5 -48.5q-27 -76 -27 -115q0 -27 14 -33q6 -1 6 -7q0 -15 -21 -15zM65 46q2 0 5 1.5t7 2.5q17 8 44.5 27t64.5 48q26 20 55 48.5t63 63.5q-10 21 -25 21q-44 0 -117 -61q-67 -55 -95 -101q-13 -19 -13 -34q0 -16 11 -16zM331 386q-7 0 -7 6q0 14 19 19q18 2 39 2.5
t29 0.5q35 0 60.5 -2t47.5 -6l23 -4q8 -2 8 -7q0 -7 -9 -7h-9h-7.5t-10.5 1q-45 1 -91 0.5t-92 -3.5z" />
    <glyph glyph-name="Emacron" unicode="&#x112;" horiz-adv-x="791" 
d="M245 -93q-93 0 -153 48q-59 48 -59 123t62 155l-52 -5q-15 -1 -25 8.5t-10 22.5q0 15 13 25q16 13 38.5 20.5t50.5 7.5h5q8 0 8 -3q0 -9 -28 -10q-13 -1 -28 -8.5t-15 -13.5t11 -8q14 -3 33 -3q7 0 14.5 0.5t15.5 1.5q105 114 253 190q79 42 157 64.5t156 27.5q5 1 10 1
h9h16q58 0 83 -19q27 -19 27 -66q0 -58 -26 -58q-20 0 -20 30q0 2 0.5 6t1.5 9t1 9v7q0 33 -27.5 49.5t-72.5 13.5q-135 -9 -293 -101q-122 -70 -205 -156q5 2 165 21q43 5 76 8t58 3q69 0 126 -18q48 -16 48 -50q0 -26 -27 -47q-10 -9 -18 -9t-9 10q0 14 15 21q12 6 12 15
q0 20 -34 30q-65 20 -144 20q-34 0 -108 -9q-37 -4 -83.5 -11t-102.5 -15q-91 -124 -91 -204q0 -106 155 -106q41 0 85 5.5t90 21.5l152 51q69 23 153 66l140 73q7 4 13 4q7 0 7 -6q0 -9 -15 -18q-45 -26 -78.5 -45t-56.5 -31q-49 -26 -91 -46t-79 -34q-95 -36 -142 -48
q-82 -20 -167 -20zM650 670q-7 0 -7 6q0 14 19 29q36 3 68 3q19 0 43.5 -1t48 -2.5t37.5 -4.5l23 -4q8 -2 8 -7q0 -7 -9 -7h-9h-7.5t-10.5 1q-30 1 -66.5 -0.5t-72.5 -4t-65 -8.5z" />
    <glyph glyph-name="emacron" unicode="&#x113;" horiz-adv-x="256" 
d="M82 -5q-31 0 -53.5 16t-22.5 38q0 8 5 25q29 83 152 194l50 18q48 16 52 15q37 -6 37 -31q0 -48 -77 -95q-69 -42 -121 -42q-5 0 -10 0.5t-10 1.5q-10 -14 -18 -26t-13 -23q-8 -19 -8 -32q0 -33 27 -33t87 24q58 22 79 39q8 5 14 5t6 -5q-1 -6 -10 -13
q-15 -11 -34.5 -22.5t-43.5 -24.5q-61 -29 -88 -29zM135 155q36 0 76 39q38 38 38 63q0 14 -13 15q-43 7 -129 -107q10 -10 28 -10zM179 368q-7 0 -7 6q0 14 19 29q36 3 68 3q28 0 52 -2t46 -6l23 -4q8 -2 8 -7q0 -7 -9 -7h-9h-7.5t-10.5 1q-45 1 -87.5 -2t-85.5 -11z" />
    <glyph glyph-name="Ebreve" unicode="&#x114;" horiz-adv-x="791" 
d="M245 -93q-93 0 -153 48q-59 48 -59 123t62 155l-52 -5q-15 -1 -25 8.5t-10 22.5q0 15 13 25q16 13 38.5 20.5t50.5 7.5h5q8 0 8 -3q0 -9 -28 -10q-13 -1 -28 -8.5t-15 -13.5t11 -8q14 -3 33 -3q7 0 14.5 0.5t15.5 1.5q105 114 253 190q79 42 157 64.5t156 27.5q5 1 10 1
h9h16q58 0 83 -19q27 -19 27 -66q0 -58 -26 -58q-20 0 -20 30q0 2 0.5 6t1.5 9t1 9v7q0 33 -27.5 49.5t-72.5 13.5q-135 -9 -293 -101q-122 -70 -205 -156q5 2 165 21q43 5 76 8t58 3q69 0 126 -18q48 -16 48 -50q0 -26 -27 -47q-10 -9 -18 -9t-9 10q0 14 15 21q12 6 12 15
q0 20 -34 30q-65 20 -144 20q-34 0 -108 -9q-37 -4 -83.5 -11t-102.5 -15q-91 -124 -91 -204q0 -106 155 -106q41 0 85 5.5t90 21.5l152 51q69 23 153 66l140 73q7 4 13 4q7 0 7 -6q0 -9 -15 -18q-45 -26 -78.5 -45t-56.5 -31q-49 -26 -91 -46t-79 -34q-95 -36 -142 -48
q-82 -20 -167 -20zM767 655q-46 0 -65.5 17.5t-19.5 41.5q0 22 8 22q5 0 6 -10q3 -15 19.5 -27t58.5 -12q60 0 88 39q6 8 9.5 7t2.5 -6q-2 -26 -30 -49t-77 -23z" />
    <glyph glyph-name="ebreve" unicode="&#x115;" horiz-adv-x="256" 
d="M82 -5q-31 0 -53.5 16t-22.5 38q0 8 5 25q29 83 152 194l50 18q48 16 52 15q37 -6 37 -31q0 -48 -77 -95q-69 -42 -121 -42q-5 0 -10 0.5t-10 1.5q-10 -14 -18 -26t-13 -23q-8 -19 -8 -32q0 -33 27 -33t87 24q58 22 79 39q8 5 14 5t6 -5q-1 -6 -10 -13
q-15 -11 -34.5 -22.5t-43.5 -24.5q-61 -29 -88 -29zM135 155q36 0 76 39q38 38 38 63q0 14 -13 15q-43 7 -129 -107q10 -10 28 -10zM271 353q-34 0 -52 17.5t-18 41.5q0 22 8 22q5 0 6 -10q3 -15 17.5 -27t45.5 -12q21 0 40 9t34 30q6 8 9.5 7t2.5 -6q-2 -26 -28.5 -49
t-64.5 -23z" />
    <glyph glyph-name="Edotaccent" unicode="&#x116;" horiz-adv-x="791" 
d="M245 -93q-93 0 -153 48q-59 48 -59 123t62 155l-52 -5q-15 -1 -25 8.5t-10 22.5q0 15 13 25q16 13 38.5 20.5t50.5 7.5h5q8 0 8 -3q0 -9 -28 -10q-13 -1 -28 -8.5t-15 -13.5t11 -8q14 -3 33 -3q7 0 14.5 0.5t15.5 1.5q105 114 253 190q79 42 157 64.5t156 27.5q5 1 10 1
h9h16q58 0 83 -19q27 -19 27 -66q0 -58 -26 -58q-20 0 -20 30q0 2 0.5 6t1.5 9t1 9v7q0 33 -27.5 49.5t-72.5 13.5q-135 -9 -293 -101q-122 -70 -205 -156q5 2 165 21q43 5 76 8t58 3q69 0 126 -18q48 -16 48 -50q0 -26 -27 -47q-10 -9 -18 -9t-9 10q0 14 15 21q12 6 12 15
q0 20 -34 30q-65 20 -144 20q-34 0 -108 -9q-37 -4 -83.5 -11t-102.5 -15q-91 -124 -91 -204q0 -106 155 -106q41 0 85 5.5t90 21.5l152 51q69 23 153 66l140 73q7 4 13 4q7 0 7 -6q0 -9 -15 -18q-45 -26 -78.5 -45t-56.5 -31q-49 -26 -91 -46t-79 -34q-95 -36 -142 -48
q-82 -20 -167 -20zM753 675q-6 0 -11.5 9.5t-5.5 14.5q0 9 10 17.5t22.5 14t19.5 5.5t7 -4q0 -5 -3 -11.5t-8 -14.5q-6 -7 -10 -19t-21 -12z" />
    <glyph glyph-name="edotaccent" unicode="&#x117;" horiz-adv-x="256" 
d="M82 -5q-31 0 -53.5 16t-22.5 38q0 8 5 25q29 83 152 194l50 18q48 16 52 15q37 -6 37 -31q0 -48 -77 -95q-69 -42 -121 -42q-5 0 -10 0.5t-10 1.5q-10 -14 -18 -26t-13 -23q-8 -19 -8 -32q0 -33 27 -33t87 24q58 22 79 39q8 5 14 5t6 -5q-1 -6 -10 -13
q-15 -11 -34.5 -22.5t-43.5 -24.5q-61 -29 -88 -29zM135 155q36 0 76 39q38 38 38 63q0 14 -13 15q-43 7 -129 -107q10 -10 28 -10zM258 376q-5 0 -10 8.5t-5 13.5q0 8 9 15.5t20.5 12.5t17.5 5t6 -3q0 -5 -2.5 -10.5t-7.5 -13.5q-5 -6 -8.5 -17t-19.5 -11z" />
    <glyph glyph-name="Eogonek" unicode="&#x118;" horiz-adv-x="791" 
d="M245 -93q-93 0 -153 48q-59 48 -59 123t62 155l-52 -5q-15 -1 -25 8.5t-10 22.5q0 15 13 25q16 13 38.5 20.5t50.5 7.5h5q8 0 8 -3q0 -9 -28 -10q-13 -1 -28 -8.5t-15 -13.5t11 -8q14 -3 33 -3q7 0 14.5 0.5t15.5 1.5q105 114 253 190q79 42 157 64.5t156 27.5q5 1 10 1
h9h16q58 0 83 -19q27 -19 27 -66q0 -58 -26 -58q-20 0 -20 30q0 2 0.5 6t1.5 9t1 9v7q0 33 -27.5 49.5t-72.5 13.5q-135 -9 -293 -101q-122 -70 -205 -156q5 2 165 21q43 5 76 8t58 3q69 0 126 -18q48 -16 48 -50q0 -26 -27 -47q-10 -9 -18 -9t-9 10q0 14 15 21q12 6 12 15
q0 20 -34 30q-65 20 -144 20q-34 0 -108 -9q-37 -4 -83.5 -11t-102.5 -15q-91 -124 -91 -204q0 -106 155 -106q41 0 85 5.5t90 21.5l152 51q69 23 153 66l140 73q7 4 13 4q7 0 7 -6q0 -9 -15 -18q-45 -26 -78.5 -45t-56.5 -31q-49 -26 -91 -46t-79 -34q-95 -36 -142 -48
q-82 -20 -167 -20zM603 -149q-32 0 -51.5 17.5t-19.5 43.5q0 28 21.5 53.5t55.5 40.5l4 -5q-20 -19 -29.5 -40.5t-9.5 -38.5t11 -30t33 -13q30 0 46 11.5t23 11.5q2 0 2 -3q0 -4 -11 -15.5t-30 -22t-45 -10.5z" />
    <glyph glyph-name="eogonek" unicode="&#x119;" horiz-adv-x="256" 
d="M82 -5q-31 0 -53.5 16t-22.5 38q0 8 5 25q29 83 152 194l50 18q48 16 52 15q37 -6 37 -31q0 -48 -77 -95q-69 -42 -121 -42q-5 0 -10 0.5t-10 1.5q-10 -14 -18 -26t-13 -23q-8 -19 -8 -32q0 -33 27 -33t87 24q58 22 79 39q8 5 14 5t6 -5q-1 -6 -10 -13
q-15 -11 -34.5 -22.5t-43.5 -24.5q-61 -29 -88 -29zM135 155q36 0 76 39q38 38 38 63q0 14 -13 15q-43 7 -129 -107q10 -10 28 -10zM205 -80q-28 0 -44.5 15t-16.5 37q0 24 19 46t47 35l4 -4q-17 -17 -25 -35t-8 -33q0 -14 9 -24.5t28 -10.5q26 0 39.5 9t19.5 9q2 0 2 -3
t-9.5 -13t-26 -19t-38.5 -9z" />
    <glyph glyph-name="Ecaron" unicode="&#x11a;" horiz-adv-x="791" 
d="M245 -93q-93 0 -153 48q-59 48 -59 123t62 155l-52 -5q-15 -1 -25 8.5t-10 22.5q0 15 13 25q16 13 38.5 20.5t50.5 7.5h5q8 0 8 -3q0 -9 -28 -10q-13 -1 -28 -8.5t-15 -13.5t11 -8q14 -3 33 -3q7 0 14.5 0.5t15.5 1.5q105 114 253 190q79 42 157 64.5t156 27.5q5 1 10 1
h9h16q58 0 83 -19q27 -19 27 -66q0 -58 -26 -58q-20 0 -20 30q0 2 0.5 6t1.5 9t1 9v7q0 33 -27.5 49.5t-72.5 13.5q-135 -9 -293 -101q-122 -70 -205 -156q5 2 165 21q43 5 76 8t58 3q69 0 126 -18q48 -16 48 -50q0 -26 -27 -47q-10 -9 -18 -9t-9 10q0 14 15 21q12 6 12 15
q0 20 -34 30q-65 20 -144 20q-34 0 -108 -9q-37 -4 -83.5 -11t-102.5 -15q-91 -124 -91 -204q0 -106 155 -106q41 0 85 5.5t90 21.5l152 51q69 23 153 66l140 73q7 4 13 4q7 0 7 -6q0 -9 -15 -18q-45 -26 -78.5 -45t-56.5 -31q-49 -26 -91 -46t-79 -34q-95 -36 -142 -48
q-82 -20 -167 -20zM929 755q3 0 3 -2t-15 -11.5t-37 -22t-43 -25t-34 -20.5q-14 -9 -23 -14t-15 -5q-10 0 -16 19q-4 17 -10 33t-12 28t-6 17q0 4 3 4q5 0 14 -6q10 -6 26 -17.5t26 -26.5q32 13 68 26t58 20q8 3 13 3z" />
    <glyph glyph-name="ecaron" unicode="&#x11b;" horiz-adv-x="256" 
d="M82 -5q-31 0 -53.5 16t-22.5 38q0 8 5 25q29 83 152 194l50 18q48 16 52 15q37 -6 37 -31q0 -48 -77 -95q-69 -42 -121 -42q-5 0 -10 0.5t-10 1.5q-10 -14 -18 -26t-13 -23q-8 -19 -8 -32q0 -33 27 -33t87 24q58 22 79 39q8 5 14 5t6 -5q-1 -6 -10 -13
q-15 -11 -34.5 -22.5t-43.5 -24.5q-61 -29 -88 -29zM135 155q36 0 76 39q38 38 38 63q0 14 -13 15q-43 7 -129 -107q10 -10 28 -10zM403 459q3 0 3 -2q0 -1 -12.5 -11l-30 -24l-35 -28t-28.5 -23q-23 -20 -31 -20q-9 0 -13 20q-4 18 -8.5 35.5t-9.5 30.5q-5 15 -5 19t3 4
q4 0 11 -6q8 -7 21.5 -22t21.5 -32q26 14 55 31t48 25q6 3 10 3z" />
    <glyph glyph-name="Gcircumflex" unicode="&#x11c;" horiz-adv-x="725" 
d="M322 -194q-80 0 -147 67q-6 6 -6 11q0 7 10 7q11 0 20 -10q10 -10 22.5 -19.5t27.5 -17.5q44 -20 79 -16q91 10 174 109q43 52 122 189q-208 -148 -429 -165q-4 0 -8.5 -0.5t-8.5 -0.5q-59 0 -106 30q-61 37 -61 97q0 125 145 242q109 86 249 140q128 48 225 48
q168 0 186 -110q1 -3 1 -8q0 -9 -6 -9q-9 0 -14 21q-6 27 -48 43q-46 18 -122 18q-206 0 -448 -180q-55 -41 -95 -96q-49 -64 -49 -114q0 -86 125 -86h14.5t15.5 1q314 23 489 213q12 13 37 13q23 0 23 -11l-2 -6q-45 -79 -82.5 -137t-67.5 -95q-125 -154 -246 -167
q-5 -1 -9.5 -1h-9.5zM602 626q-3 0 -3 2t15 11.5t37 22t43 25t34 20.5q14 9 23 14t15 5q10 0 16 -19q5 -16 10.5 -32.5t11.5 -28.5t6 -17q0 -4 -3 -4q-5 0 -14 6q-10 6 -26 17.5t-26 26.5q-32 -13 -67.5 -25.5t-58.5 -20.5q-7 -3 -13 -3z" />
    <glyph glyph-name="gcircumflex" unicode="&#x11d;" horiz-adv-x="404" 
d="M-9 -312q-52 0 -88 40q-36 41 -36 94q0 40 21 74q63 32 164.5 78.5t244.5 106.5q4 15 9 36.5t11 50.5l-118 -75q-42 -27 -71.5 -40t-45.5 -13q-37 0 -37 38q0 17 7 31q23 55 128 123q110 71 179 71q31 0 31 -9t-31 -25q-9 4 -26 4q-53 0 -145 -66q-94 -69 -94 -115
q0 -15 15 -15q10 0 22 6q35 17 83 45.5t109 70.5q4 25 26 36q4 2 15.5 5t30.5 7l-20 -64q-10 -34 -24 -78q8 2 16.5 5t18.5 6q9 3 19 6t20 5q1 0 2 0.5t2 0.5q5 0 10 -4t5 -6l-3 -3q-92 -21 -106 -65q-22 -73 -51.5 -133.5t-66.5 -107.5q-97 -121 -226 -121zM-20 -293
q115 0 206 124q35 48 61 104t43 120q-45 -20 -88 -39t-88 -38q-98 -46 -160 -108q-40 -40 -40 -83q0 -31 20.5 -55.5t45.5 -24.5zM291 359q-3 0 -3 2q0 1 12.5 11l30 24t35.5 28t28 23q23 20 31 20q9 0 13 -20q4 -18 8.5 -35.5t9.5 -30.5q5 -15 5 -19t-3 -4t-11 6
q-8 7 -21.5 22.5t-21.5 31.5q-26 -14 -55 -31t-48 -25q-6 -3 -10 -3z" />
    <glyph glyph-name="Gbreve" unicode="&#x11e;" horiz-adv-x="725" 
d="M322 -194q-80 0 -147 67q-6 6 -6 11q0 7 10 7q11 0 20 -10q10 -10 22.5 -19.5t27.5 -17.5q44 -20 79 -16q91 10 174 109q43 52 122 189q-208 -148 -429 -165q-4 0 -8.5 -0.5t-8.5 -0.5q-59 0 -106 30q-61 37 -61 97q0 125 145 242q109 86 249 140q128 48 225 48
q168 0 186 -110q1 -3 1 -8q0 -9 -6 -9q-9 0 -14 21q-6 27 -48 43q-46 18 -122 18q-206 0 -448 -180q-55 -41 -95 -96q-49 -64 -49 -114q0 -86 125 -86h14.5t15.5 1q314 23 489 213q12 13 37 13q23 0 23 -11l-2 -6q-45 -79 -82.5 -137t-67.5 -95q-125 -154 -246 -167
q-5 -1 -9.5 -1h-9.5zM714 625q-46 0 -65.5 17.5t-19.5 41.5q0 22 8 22q5 0 6 -10q3 -15 19.5 -27t58.5 -12q60 0 88 39q6 8 9.5 7t2.5 -6q-2 -26 -30 -49t-77 -23z" />
    <glyph glyph-name="gbreve" unicode="&#x11f;" horiz-adv-x="404" 
d="M-9 -312q-52 0 -88 40q-36 41 -36 94q0 40 21 74q63 32 164.5 78.5t244.5 106.5q4 15 9 36.5t11 50.5l-118 -75q-42 -27 -71.5 -40t-45.5 -13q-37 0 -37 38q0 17 7 31q23 55 128 123q110 71 179 71q31 0 31 -9t-31 -25q-9 4 -26 4q-53 0 -145 -66q-94 -69 -94 -115
q0 -15 15 -15q10 0 22 6q35 17 83 45.5t109 70.5q4 25 26 36q4 2 15.5 5t30.5 7l-20 -64q-10 -34 -24 -78q8 2 16.5 5t18.5 6q9 3 19 6t20 5q1 0 2 0.5t2 0.5q5 0 10 -4t5 -6l-3 -3q-92 -21 -106 -65q-22 -73 -51.5 -133.5t-66.5 -107.5q-97 -121 -226 -121zM-20 -293
q115 0 206 124q35 48 61 104t43 120q-45 -20 -88 -39t-88 -38q-98 -46 -160 -108q-40 -40 -40 -83q0 -31 20.5 -55.5t45.5 -24.5zM384 358q-34 0 -52 17.5t-18 41.5q0 22 8 22q5 0 6 -10q3 -15 17.5 -27t45.5 -12q21 0 40 9t34 30q6 8 9.5 7t2.5 -6q-2 -26 -28.5 -49
t-64.5 -23z" />
    <glyph glyph-name="Gdotaccent" unicode="&#x120;" horiz-adv-x="725" 
d="M322 -194q-80 0 -147 67q-6 6 -6 11q0 7 10 7q11 0 20 -10q10 -10 22.5 -19.5t27.5 -17.5q44 -20 79 -16q91 10 174 109q43 52 122 189q-208 -148 -429 -165q-4 0 -8.5 -0.5t-8.5 -0.5q-59 0 -106 30q-61 37 -61 97q0 125 145 242q109 86 249 140q128 48 225 48
q168 0 186 -110q1 -3 1 -8q0 -9 -6 -9q-9 0 -14 21q-6 27 -48 43q-46 18 -122 18q-206 0 -448 -180q-55 -41 -95 -96q-49 -64 -49 -114q0 -86 125 -86h14.5t15.5 1q314 23 489 213q12 13 37 13q23 0 23 -11l-2 -6q-45 -79 -82.5 -137t-67.5 -95q-125 -154 -246 -167
q-5 -1 -9.5 -1h-9.5zM700 645q-6 0 -11.5 9.5t-5.5 14.5q0 9 10 17.5t22.5 14t19.5 5.5t7 -4q0 -5 -3 -11.5t-8 -14.5q-6 -7 -10 -19t-21 -12z" />
    <glyph glyph-name="gdotaccent" unicode="&#x121;" horiz-adv-x="404" 
d="M-9 -312q-52 0 -88 40q-36 41 -36 94q0 40 21 74q63 32 164.5 78.5t244.5 106.5q4 15 9 36.5t11 50.5l-118 -75q-42 -27 -71.5 -40t-45.5 -13q-37 0 -37 38q0 17 7 31q23 55 128 123q110 71 179 71q31 0 31 -9t-31 -25q-9 4 -26 4q-53 0 -145 -66q-94 -69 -94 -115
q0 -15 15 -15q10 0 22 6q35 17 83 45.5t109 70.5q4 25 26 36q4 2 15.5 5t30.5 7l-20 -64q-10 -34 -24 -78q8 2 16.5 5t18.5 6q9 3 19 6t20 5q1 0 2 0.5t2 0.5q5 0 10 -4t5 -6l-3 -3q-92 -21 -106 -65q-22 -73 -51.5 -133.5t-66.5 -107.5q-97 -121 -226 -121zM-20 -293
q115 0 206 124q35 48 61 104t43 120q-45 -20 -88 -39t-88 -38q-98 -46 -160 -108q-40 -40 -40 -83q0 -31 20.5 -55.5t45.5 -24.5zM371 381q-5 0 -10 8.5t-5 13.5q0 8 9 15.5t20.5 12.5t17.5 5t6 -3q0 -5 -2.5 -10.5t-7.5 -13.5q-5 -6 -8.5 -17t-19.5 -11z" />
    <glyph glyph-name="uni0122" unicode="&#x122;" horiz-adv-x="725" 
d="M322 -194q-80 0 -147 67q-6 6 -6 11q0 7 10 7q11 0 20 -10q10 -10 22.5 -19.5t27.5 -17.5q44 -20 79 -16q91 10 174 109q43 52 122 189q-208 -148 -429 -165q-4 0 -8.5 -0.5t-8.5 -0.5q-59 0 -106 30q-61 37 -61 97q0 125 145 242q109 86 249 140q128 48 225 48
q168 0 186 -110q1 -3 1 -8q0 -9 -6 -9q-9 0 -14 21q-6 27 -48 43q-46 18 -122 18q-206 0 -448 -180q-55 -41 -95 -96q-49 -64 -49 -114q0 -86 125 -86h14.5t15.5 1q314 23 489 213q12 13 37 13q23 0 23 -11l-2 -6q-45 -79 -82.5 -137t-67.5 -95q-125 -154 -246 -167
q-5 -1 -9.5 -1h-9.5zM209 -407q-4 0 -5.5 3.5t-1.5 6.5q7 10 12.5 17t12.5 17q12 16 18.5 34.5t6.5 31.5q-1 7 -4.5 12.5t-4.5 12.5q0 6 7.5 13.5t23.5 7.5q18 0 23 -6.5t5 -17.5q0 -16 -11.5 -35t-26.5 -37t-28 -32q-3 -3 -10.5 -12t-15.5 -16h-1z" />
    <glyph glyph-name="uni0123" unicode="&#x123;" horiz-adv-x="404" 
d="M-9 -312q-52 0 -88 40q-36 41 -36 94q0 40 21 74q63 32 164.5 78.5t244.5 106.5q4 15 9 36.5t11 50.5l-118 -75q-42 -27 -71.5 -40t-45.5 -13q-37 0 -37 38q0 17 7 31q23 55 128 123q110 71 179 71q31 0 31 -9t-31 -25q-9 4 -26 4q-53 0 -145 -66q-94 -69 -94 -115
q0 -15 15 -15q10 0 22 6q35 17 83 45.5t109 70.5q4 25 26 36q4 2 15.5 5t30.5 7l-20 -64q-10 -34 -24 -78q8 2 16.5 5t18.5 6q9 3 19 6t20 5q1 0 2 0.5t2 0.5q5 0 10 -4t5 -6l-3 -3q-92 -21 -106 -65q-22 -73 -51.5 -133.5t-66.5 -107.5q-97 -121 -226 -121zM-20 -293
q115 0 206 124q35 48 61 104t43 120q-45 -20 -88 -39t-88 -38q-98 -46 -160 -108q-40 -40 -40 -83q0 -31 20.5 -55.5t45.5 -24.5zM383 359q-16 0 -21 6.5t-5 16.5q0 17 11.5 36t27 36.5t28.5 30.5l11.5 11.5t16.5 15.5q5 0 6 -4t1 -7q-7 -8 -12.5 -15t-13.5 -17
q-13 -15 -22.5 -33.5t-9.5 -31.5q0 -7 3.5 -12.5t3.5 -12.5q0 -6 -6.5 -13t-18.5 -7z" />
    <glyph glyph-name="Hcircumflex" unicode="&#x124;" horiz-adv-x="958" 
d="M113 -144q-101 0 -101 155q0 98 91 192q7 7 12 7q3 0 3 -4q0 -7 -9 -16q-63 -64 -63 -181q0 -133 81 -133q70 0 182 94q108 90 232 244q-82 -8 -159 -20t-150 -29h-4q-11 0 -11 14q0 19 16 22q47 23 114 48l-2 -3l-2 -4l-16 -16l-3 -7q59 11 116.5 18t113.5 12l11 1h5
l26 35q-44 8 -44 50q0 57 102 114l40 22l39 22q8 14 19 29t24 31q11 12 18 12q13 0 13 -27q0 -5 -0.5 -10t-1.5 -10q-8 -36 -46 -61q-13 -23 -38.5 -61t-65.5 -91q-1 -1 9 -5q9 -4 9 -8q0 -3 -3 -6t-16 -4l-14 -2l-11.5 -11.5t-14.5 -16.5q16 1 32 1h32q51 0 107.5 -2
t117.5 -6q60 85 127 173t145 179q15 18 44 26q11 3 22.5 6t22.5 5q2 1 8 1q15 0 15 -10q0 -9 -17 -9q-16 0 -62 -46q-144 -145 -267 -327l50 -4q15 -1 15 -7q0 -7 -18 -7h-26h-15.5t-17.5 1l-66 -109q-29 -49 -29 -77q0 -17 7 -17q15 0 46 24q4 4 13 4q10 0 10 -5
q0 -2 -2 -4q-71 -53 -108 -53q-21 0 -21 20q0 12 4 20q27 81 107 197h-44q-66 0 -130.5 -2.5t-126.5 -7.5q-66 -79 -130 -143t-128 -113q-134 -104 -218 -104zM610 303q14 21 60 87q16 23 27 40t17 28l-22.5 -10t-32.5 -15q-35 -22 -54 -47.5t-19 -49.5q0 -22 9 -27.5
t15 -5.5zM948 686q-3 0 -3 2t15 11.5t37 22t43 25t34 20.5q14 9 23 14t15 5q10 0 16 -19q5 -16 10.5 -32.5t11.5 -28.5t6 -17q0 -4 -3 -4q-5 0 -14 6q-10 6 -26 17.5t-26 26.5q-32 -13 -67.5 -25.5t-58.5 -20.5q-7 -3 -13 -3z" />
    <glyph glyph-name="hcircumflex" unicode="&#x125;" horiz-adv-x="429" 
d="M-4 -7q-7 0 -4 6q37 69 83.5 142.5t104.5 152.5q98 132 177 228q4 7 45 22q38 16 52 16t14 -10q0 -9 -16 -9q-17 0 -63 -46q-35 -33 -167 -197q-37 -46 -67.5 -89.5t-54.5 -85.5q241 166 268 166q17 0 33 -30q-64 -64 -103 -150q-14 -31 -14 -45q0 -18 18 -18q22 0 77 28
l76 39q4 1 4 -4t-3 -12t-7 -9l-67 -42q-45 -28 -87 -37q-62 24 -62 54q0 2 0.5 4.5t1.5 5.5q8 20 23.5 46.5t37.5 59.5q35 53 31 57q-1 1 -4 1q-18 0 -92 -50q-61 -43 -84 -63q-68 -62 -92 -111q-48 -20 -59 -20zM334 610q-3 0 -3 2t15 11.5t37 22t43 25t34 20.5q14 9 23 14
t15 5q10 0 16 -19q5 -16 10.5 -32.5t11.5 -28.5t6 -17q0 -4 -3 -4q-5 0 -14 6q-10 6 -26 17.5t-26 26.5q-32 -13 -67.5 -25.5t-58.5 -20.5q-7 -3 -13 -3z" />
    <glyph glyph-name="Hbar" unicode="&#x126;" horiz-adv-x="958" 
d="M113 -144q-101 0 -101 155q0 98 91 192q7 7 12 7q3 0 3 -4q0 -7 -9 -16q-63 -64 -63 -181q0 -133 81 -133q70 0 182 94q108 90 232 244q-82 -8 -159 -20t-150 -29h-4q-11 0 -11 14q0 19 16 22q47 23 114 48l-2 -3l-2 -4l-16 -16l-3 -7q59 11 116.5 18t113.5 12l11 1h5
l26 35q-44 8 -44 50q0 57 102 114l40 22l39 22q8 14 19 29t24 31q11 12 18 12q13 0 13 -27q0 -5 -0.5 -10t-1.5 -10q-8 -36 -46 -61q-11 -21 -33 -52q99 2 184 2q30 0 57.5 -0.5t53.5 -0.5q36 47 74 95t80 96q15 18 44 26q11 3 22.5 6t22.5 5q2 1 8 1q15 0 15 -10
q0 -9 -17 -9q-16 0 -62 -46q-77 -78 -147 -165q55 -2 100 -6l56 -4q16 -1 16 -7q0 -7 -20 -7h-21h-19.5t-23.5 1h-70h-37q-52 -67 -101 -139l50 -4q15 -1 15 -7q0 -7 -18 -7h-26h-15.5t-17.5 1l-66 -109q-29 -49 -29 -77q0 -17 7 -17q15 0 46 24q4 4 13 4q10 0 10 -5
q0 -2 -2 -4q-71 -53 -108 -53q-21 0 -21 20q0 12 4 20q27 81 107 197h-44q-66 0 -130.5 -2.5t-126.5 -7.5q-66 -79 -130 -143t-128 -113q-134 -104 -218 -104zM610 303q12 18 49 71v1q0 7 11 14v1q16 23 27 40t17 28l-22.5 -10t-32.5 -15q-35 -22 -54 -47.5t-19 -49.5
q0 -22 9 -27.5t15 -5.5zM678 253q51 0 107.5 -2t117.5 -6q24 34 48.5 68t50.5 69q-81 -1 -156 -3.5t-143 -7.5q-21 -30 -48 -66q-1 -1 9 -5q9 -4 9 -8q0 -3 -3 -6t-16 -4l-14 -2l-11.5 -11.5t-14.5 -16.5q16 1 32 1h32z" />
    <glyph glyph-name="hbar" unicode="&#x127;" horiz-adv-x="429" 
d="M-4 -7q-7 0 -4 6q37 69 83.5 142.5t104.5 152.5q98 132 177 228q4 7 45 22q38 16 52 16t14 -10q0 -9 -16 -9q-17 0 -63 -46q-35 -33 -167 -197q-37 -46 -67.5 -89.5t-54.5 -85.5q241 166 268 166q17 0 33 -30q-64 -64 -103 -150q-14 -31 -14 -45q0 -18 18 -18q22 0 77 28
l76 39q4 1 4 -4t-3 -12t-7 -9l-67 -42q-45 -28 -87 -37q-62 24 -62 54q0 2 0.5 4.5t1.5 5.5q8 20 23.5 46.5t37.5 59.5q35 53 31 57q-1 1 -4 1q-18 0 -92 -50q-61 -43 -84 -63q-68 -62 -92 -111q-48 -20 -59 -20zM199 386q-7 0 -7 6q0 14 19 19q18 2 39 2.5t29 0.5
q35 0 60.5 -2t47.5 -6l23 -4q8 -2 8 -7q0 -7 -9 -7h-9h-7.5t-10.5 1q-45 1 -91 0.5t-92 -3.5z" />
    <glyph glyph-name="Itilde" unicode="&#x128;" horiz-adv-x="706" 
d="M242 -86q-99 0 -167 68q-67 67 -67 168q0 106 87 197q7 7 11 7q3 0 3 -3q0 -6 -9 -17q-28 -28 -45 -77q-18 -52 -18 -105q0 -90 48 -152q50 -65 132 -65q110 0 205 56q76 46 170 149q20 23 41.5 54.5t43.5 71.5q11 22 32 64.5t51 105.5l3 7t6.5 14.5t2.5 6.5
q-57 -31 -86 -49q-45 -29 -76.5 -51.5t-48.5 -39.5q-56 -54 -53 -114q2 -4 4.5 -6.5l4.5 -4.5q11 -12 21 -12q21 0 21 -5q0 -7 -30 -7q-34 0 -40 28q-3 11 -3 23q0 45 47 99.5t144 109.5l48 27q14 8 31 17t36 20q9 20 22.5 40t32.5 39q13 13 22 13q12 0 12 -20
q0 -23 -14 -40q-16 -22 -48 -40q-1 -4 -3.5 -10t-5.5 -16q-4 -10 -7 -18.5t-7 -16.5q-92 -208 -177 -310q-44 -52 -85.5 -90t-79.5 -61q-91 -55 -212 -55zM944 700q-16 0 -38.5 7.5t-44.5 15t-37 7.5q-16 0 -28 -12t-17 -12q-3 0 -3 4q0 6 6.5 18.5t18 23t26.5 10.5t36 -6.5
t44 -13.5t43 -7q14 0 22.5 9.5t11.5 10.5q4 0 4 -11q-5 -14 -16 -29t-28 -15z" />
    <glyph glyph-name="itilde" unicode="&#x129;" horiz-adv-x="201" 
d="M-1 -1q-10 0 -10 6q0 3 3 7q8 13 18.5 28t21.5 31q11 17 24.5 35.5t27.5 39.5q18 25 23 43q1 4 1 8.5t1 8.5l3 17q2 9 39 25q27 13 42 13q8 0 6 -6q-7 -24 -32 -58l-49 -67q-9 -13 -23.5 -30.5t-33.5 -42.5q2 1 8.5 3.5t17.5 6.5t27 9.5t38 12.5q14 5 35 11.5t50 13.5
q6 0 6 -6v-2q0 -4 -6 -6q-139 -37 -214 -93q-11 -8 -24 -8zM263 383q-16 0 -28.5 7t-24.5 13.5t-27 6.5q-16 0 -28 -12t-17 -12q-3 0 -3 4q0 6 6.5 17.5t18 21.5t26.5 10t26 -6t24 -12t33 -6q14 0 22.5 9.5t11.5 10.5q4 0 4 -11q-5 -14 -16 -27.5t-28 -13.5z" />
    <glyph glyph-name="Imacron" unicode="&#x12a;" horiz-adv-x="706" 
d="M242 -86q-99 0 -167 68q-67 67 -67 168q0 106 87 197q7 7 11 7q3 0 3 -3q0 -6 -9 -17q-28 -28 -45 -77q-18 -52 -18 -105q0 -90 48 -152q50 -65 132 -65q110 0 205 56q76 46 170 149q20 23 41.5 54.5t43.5 71.5q11 22 32 64.5t51 105.5l3 7t6.5 14.5t2.5 6.5
q-57 -31 -86 -49q-45 -29 -76.5 -51.5t-48.5 -39.5q-56 -54 -53 -114q2 -4 4.5 -6.5l4.5 -4.5q11 -12 21 -12q21 0 21 -5q0 -7 -30 -7q-34 0 -40 28q-3 11 -3 23q0 45 47 99.5t144 109.5l48 27q14 8 31 17t36 20q9 20 22.5 40t32.5 39q13 13 22 13q12 0 12 -20
q0 -23 -14 -40q-16 -22 -48 -40q-1 -4 -3.5 -10t-5.5 -16q-4 -10 -7 -18.5t-7 -16.5q-92 -208 -177 -310q-44 -52 -85.5 -90t-79.5 -61q-91 -55 -212 -55zM766 700q-7 0 -7 6q0 14 19 29q36 3 68 3q19 0 43.5 -1t48 -2.5t37.5 -4.5l23 -4q8 -2 8 -7q0 -7 -9 -7h-9h-7.5
t-10.5 1q-30 1 -66.5 -0.5t-72.5 -4t-65 -8.5z" />
    <glyph glyph-name="imacron" unicode="&#x12b;" horiz-adv-x="201" 
d="M-1 -1q-10 0 -10 6q0 3 3 7q8 13 18.5 28t21.5 31q11 17 24.5 35.5t27.5 39.5q18 25 23 43q1 4 1 8.5t1 8.5l3 17q2 9 39 25q27 13 42 13q8 0 6 -6q-7 -24 -32 -58l-49 -67q-9 -13 -23.5 -30.5t-33.5 -42.5q2 1 8.5 3.5t17.5 6.5t27 9.5t38 12.5q14 5 35 11.5t50 13.5
q6 0 6 -6v-2q0 -4 -6 -6q-139 -37 -214 -93q-11 -8 -24 -8zM130 380q-7 0 -7 6q0 14 19 29q36 3 68 3q28 0 52 -2t46 -6l23 -4q8 -2 8 -7q0 -7 -9 -7h-9h-7.5t-10.5 1q-45 1 -87.5 -2t-85.5 -11z" />
    <glyph glyph-name="Ibreve" unicode="&#x12c;" horiz-adv-x="706" 
d="M242 -86q-99 0 -167 68q-67 67 -67 168q0 106 87 197q7 7 11 7q3 0 3 -3q0 -6 -9 -17q-28 -28 -45 -77q-18 -52 -18 -105q0 -90 48 -152q50 -65 132 -65q110 0 205 56q76 46 170 149q20 23 41.5 54.5t43.5 71.5q11 22 32 64.5t51 105.5l3 7t6.5 14.5t2.5 6.5
q-57 -31 -86 -49q-45 -29 -76.5 -51.5t-48.5 -39.5q-56 -54 -53 -114q2 -4 4.5 -6.5l4.5 -4.5q11 -12 21 -12q21 0 21 -5q0 -7 -30 -7q-34 0 -40 28q-3 11 -3 23q0 45 47 99.5t144 109.5l48 27q14 8 31 17t36 20q9 20 22.5 40t32.5 39q13 13 22 13q12 0 12 -20
q0 -23 -14 -40q-16 -22 -48 -40q-1 -4 -3.5 -10t-5.5 -16q-4 -10 -7 -18.5t-7 -16.5q-92 -208 -177 -310q-44 -52 -85.5 -90t-79.5 -61q-91 -55 -212 -55zM883 685q-46 0 -65.5 17.5t-19.5 41.5q0 22 8 22q5 0 6 -10q3 -15 19.5 -27t58.5 -12q60 0 88 39q6 8 9.5 7t2.5 -6
q-2 -26 -30 -49t-77 -23z" />
    <glyph glyph-name="ibreve" unicode="&#x12d;" horiz-adv-x="201" 
d="M-1 -1q-10 0 -10 6q0 3 3 7q8 13 18.5 28t21.5 31q11 17 24.5 35.5t27.5 39.5q18 25 23 43q1 4 1 8.5t1 8.5l3 17q2 9 39 25q27 13 42 13q8 0 6 -6q-7 -24 -32 -58l-49 -67q-9 -13 -23.5 -30.5t-33.5 -42.5q2 1 8.5 3.5t17.5 6.5t27 9.5t38 12.5q14 5 35 11.5t50 13.5
q6 0 6 -6v-2q0 -4 -6 -6q-139 -37 -214 -93q-11 -8 -24 -8zM222 365q-34 0 -52 17.5t-18 41.5q0 22 8 22q5 0 6 -10q3 -15 17.5 -27t45.5 -12q21 0 40 9t34 30q6 8 9.5 7t2.5 -6q-2 -26 -28.5 -49t-64.5 -23z" />
    <glyph glyph-name="Iogonek" unicode="&#x12e;" horiz-adv-x="706" 
d="M242 -86q-99 0 -167 68q-67 67 -67 168q0 106 87 197q7 7 11 7q3 0 3 -3q0 -6 -9 -17q-28 -28 -45 -77q-18 -52 -18 -105q0 -90 48 -152q50 -65 132 -65q110 0 205 56q76 46 170 149q20 23 41.5 54.5t43.5 71.5q11 22 32 64.5t51 105.5l3 7t6.5 14.5t2.5 6.5
q-57 -31 -86 -49q-45 -29 -76.5 -51.5t-48.5 -39.5q-56 -54 -53 -114q2 -4 4.5 -6.5l4.5 -4.5q11 -12 21 -12q21 0 21 -5q0 -7 -30 -7q-34 0 -40 28q-3 11 -3 23q0 45 47 99.5t144 109.5l48 27q14 8 31 17t36 20q9 20 22.5 40t32.5 39q13 13 22 13q12 0 12 -20
q0 -23 -14 -40q-16 -22 -48 -40q-1 -4 -3.5 -10t-5.5 -16q-4 -10 -7 -18.5t-7 -16.5q-92 -208 -177 -310q-44 -52 -85.5 -90t-79.5 -61q-91 -55 -212 -55zM445 -179q-32 0 -51.5 17.5t-19.5 43.5q0 28 21.5 53.5t55.5 40.5l4 -5q-20 -19 -29.5 -40.5t-9.5 -38.5t11 -30
t33 -13q30 0 46 11.5t23 11.5q2 0 2 -3q0 -4 -11 -15.5t-30 -22t-45 -10.5z" />
    <glyph glyph-name="iogonek" unicode="&#x12f;" horiz-adv-x="201" 
d="M-1 -1q-10 0 -10 6q0 3 3 7q8 13 18.5 28t21.5 31q11 17 24.5 35.5t27.5 39.5q18 25 23 43q1 4 1 8.5t1 8.5l3 17q2 9 39 25q27 13 42 13q8 0 6 -6q-7 -24 -32 -58l-49 -67q-9 -13 -23.5 -30.5t-33.5 -42.5q2 1 8.5 3.5t17.5 6.5t27 9.5t38 12.5q14 5 35 11.5t50 13.5
q6 0 6 -6v-2q0 -4 -6 -6q-139 -37 -214 -93q-11 -8 -24 -8zM209 388q-5 0 -10 8.5t-5 13.5q0 8 9 15.5t20.5 12.5t17.5 5t6 -3q0 -5 -2.5 -10.5t-7.5 -13.5q-5 -6 -8.5 -17t-19.5 -11zM17 -119q-28 0 -44.5 15t-16.5 37q0 24 19 46t47 35l4 -4q-17 -17 -25 -35t-8 -33
q0 -14 9 -24.5t28 -10.5q26 0 39.5 9t19.5 9q2 0 2 -3t-9.5 -13t-26 -19t-38.5 -9z" />
    <glyph glyph-name="Idotaccent" unicode="&#x130;" horiz-adv-x="706" 
d="M242 -86q-99 0 -167 68q-67 67 -67 168q0 106 87 197q7 7 11 7q3 0 3 -3q0 -6 -9 -17q-28 -28 -45 -77q-18 -52 -18 -105q0 -90 48 -152q50 -65 132 -65q110 0 205 56q76 46 170 149q20 23 41.5 54.5t43.5 71.5q11 22 32 64.5t51 105.5l3 7t6.5 14.5t2.5 6.5
q-57 -31 -86 -49q-45 -29 -76.5 -51.5t-48.5 -39.5q-56 -54 -53 -114q2 -4 4.5 -6.5l4.5 -4.5q11 -12 21 -12q21 0 21 -5q0 -7 -30 -7q-34 0 -40 28q-3 11 -3 23q0 45 47 99.5t144 109.5l48 27q14 8 31 17t36 20q9 20 22.5 40t32.5 39q13 13 22 13q12 0 12 -20
q0 -23 -14 -40q-16 -22 -48 -40q-1 -4 -3.5 -10t-5.5 -16q-4 -10 -7 -18.5t-7 -16.5q-92 -208 -177 -310q-44 -52 -85.5 -90t-79.5 -61q-91 -55 -212 -55zM869 705q-6 0 -11.5 9.5t-5.5 14.5q0 9 10 17.5t22.5 14t19.5 5.5t7 -4q0 -5 -3 -11.5t-8 -14.5q-6 -7 -10 -19
t-21 -12z" />
    <glyph glyph-name="dotlessi" unicode="&#x131;" horiz-adv-x="201" 
d="M-1 -1q-10 0 -10 6q0 3 3 7q8 13 18.5 28t21.5 31q11 17 24.5 35.5t27.5 39.5q18 25 23 43q1 4 1 8.5t1 8.5l3 17q2 9 39 25q27 13 42 13q8 0 6 -6q-7 -24 -32 -58l-49 -67q-9 -13 -23.5 -30.5t-33.5 -42.5q2 1 8.5 3.5t17.5 6.5t27 9.5t38 12.5q14 5 35 11.5t50 13.5
q6 0 6 -6v-2q0 -4 -6 -6q-139 -37 -214 -93q-11 -8 -24 -8z" />
    <glyph glyph-name="Jcircumflex" unicode="&#x134;" horiz-adv-x="620" 
d="M94 -321q-30 0 -30 25q0 14 10 27q50 75 135 162q38 39 71.5 68t59.5 48l80 59q7 10 14 21.5t14 24.5q8 13 16 27.5t18 30.5q189 335 189 400q0 33 -51 33q-54 0 -160 -41q-43 -17 -79.5 -35t-65.5 -37q-103 -64 -168 -140q-51 -57 -62 -105q-7 -27 -7 -47q0 -55 56 -55
q5 0 10.5 0.5t10.5 1.5q26 4 58.5 11.5t73.5 20.5q88 28 122 49q14 8 22 8q7 0 7 -5q0 -6 -11 -12q-131 -68 -280 -90q-8 -1 -15 -1.5t-14 -0.5q-86 0 -86 84q0 32 12 57q19 44 77 108q74 83 165 138q187 112 321 112q52 0 77 -21q13 -10 13 -37q0 -63 -73 -221
q-59 -128 -107 -210q101 66 165 75q18 -1 18 -7q0 -9 -25 -13q-61 -14 -188 -102q-71 -106 -147 -196t-156 -166q-49 -49 -90 -49zM122 -274q10 0 28 18q58 57 115 123t115 144l-19 -13q-53 -36 -119 -104q-78 -80 -122 -147q-5 -8 -5 -13q0 -8 7 -8zM529 706q-3 0 -3 2
t15 11.5t37 22t43 25t34 20.5q14 9 23 14t15 5q10 0 16 -19q5 -16 10.5 -32.5t11.5 -28.5t6 -17q0 -4 -3 -4q-5 0 -14 6q-10 6 -26 17.5t-26 26.5q-32 -13 -67.5 -25.5t-58.5 -20.5q-7 -3 -13 -3z" />
    <glyph glyph-name="jcircumflex" unicode="&#x135;" horiz-adv-x="300" 
d="M-249 -318q-81 0 -81 61q0 34 28 77q54 88 200 168q112 62 247 105q43 77 81 173q5 12 18.5 22t24.5 10q9 0 10 -7v-56q0 -4 -5.5 -9.5l-14.5 -14.5l-17 -16q-8 -8 -9 -11l-45 -78q57 17 138 33q3 1 7 1q8 0 8 -6q0 -8 -17 -13q-145 -29 -191 -106q-59 -96 -115.5 -164
t-111.5 -111q-73 -58 -155 -58zM-238 -301q60 0 130 61q131 110 240 311q-56 -20 -111 -47.5t-111 -61.5q-135 -81 -181 -157q-20 -35 -20 -59q0 -47 53 -47zM198 366q-3 0 -3 2q0 1 12.5 11l30 24t35.5 28t28 23q23 20 31 20q9 0 13 -20q4 -18 8.5 -35.5t9.5 -30.5
q5 -15 5 -19t-3 -4t-11 6q-8 7 -21.5 22.5t-21.5 31.5q-26 -14 -55 -31t-48 -25q-6 -3 -10 -3z" />
    <glyph glyph-name="uni0136" unicode="&#x136;" horiz-adv-x="825" 
d="M947 -168q-11 0 -20.5 1.5t-19.5 3.5q-64 18 -258 282l-59 88q-17 -8 -34 -13t-34 -9q-171 -244 -253 -325q-25 -25 -56 -25q-17 0 -29 7.5t-12 15.5q0 11 11 11q2 0 10 -5q7 -4 12 -4q7 0 21 11q52 50 114 129t133 185q-53 11 -53 75q0 30 13 56q17 35 41 35
q32 0 75 -54q142 211 142 273q0 39 -60 39q-108 0 -309 -117q-55 -32 -100.5 -67t-82.5 -73q-56 -59 -73 -105q-13 -32 -13 -56q0 -46 52 -46q31 0 96 20q58 19 91 38q14 8 23 8q7 0 7 -4q0 -7 -12 -13l-64 -30q-29 -13 -62 -21.5t-68 -13.5q-8 -1 -15 -1.5t-14 -0.5
q-78 0 -78 71q0 39 19 70q13 23 35 50t54 58q84 84 179 138q206 116 327 116q101 0 101 -74q0 -75 -148 -292l23 -31q63 28 128 68q45 28 105 74.5t135 112.5q77 67 124 106.5t63 50.5q20 12 35 12q16 0 16 -11q0 -10 -17 -16q-28 -11 -194 -147q-92 -76 -156 -125.5
t-101 -72.5q-72 -46 -125 -69l2 -2l80 -103q83 -106 143.5 -163.5t97.5 -68.5q32 -9 61 -9q77 0 100 59q5 13 15 20q9 9 9 2l-2 -7q-7 -25 -24.5 -44.5t-43.5 -35.5q-50 -32 -103 -32zM490 209q0 1 2 3l43 65q-14 14 -26 20q-11 11 -21 11q-13 0 -21 -13.5t-8 -32.5
q0 -38 31 -53zM538 209q19 4 40 15l-15 21zM488 -213q-4 0 -5.5 3.5t-1.5 6.5q7 10 12.5 17t12.5 17q12 16 18.5 34.5t6.5 31.5q-1 7 -4.5 12.5t-4.5 12.5q0 6 7.5 13.5t23.5 7.5q18 0 23 -6.5t5 -17.5q0 -16 -11.5 -35t-26.5 -37t-28 -32q-3 -3 -10.5 -12t-15.5 -16h-1z
" />
    <glyph glyph-name="uni0137" unicode="&#x137;" horiz-adv-x="374" 
d="M-2 -9q-7 0 -7 4q0 3 1 4q179 344 335 491q67 64 154 64q38 0 66 -15q5 -2 5 -6q0 -11 -34 -30q-28 24 -63 24q-60 0 -127 -64q-75 -69 -228 -340q-1 -6 3 -6q6 0 90 66q4 2 8 6q2 2 4.5 4t6.5 4q0 51 34 51q21 0 21 -15q26 16 61 34.5t81 40.5q5 -13 5 -22
q0 -31 -41 -57q-10 -7 -27 -16t-44 -18l-44 -15q-6 -40 -6 -75q0 -15 1 -29t4 -26q4 -25 20 -25q6 0 8 1q15 5 31.5 13t33.5 17l57 30q0 -6 -5 -23q-8 -4 -15.5 -8t-15.5 -9q-7 -4 -15 -8.5t-16 -9.5q-41 -23 -74 -30q-9 -3 -22 4.5t-23.5 21t-13.5 29.5q-1 11 -1.5 23
t-0.5 26t0.5 30t1.5 33q-99 -73 -150 -141q-9 -11 -28 -22t-31 -11zM61 -213q-4 0 -5.5 3.5t-1.5 6.5q7 10 12.5 17t12.5 17q12 16 20.5 34.5t8.5 31.5q-1 7 -4.5 12.5t-4.5 12.5q0 6 7 13.5t20 7.5q15 0 19.5 -6.5t4.5 -17.5q0 -16 -10.5 -35t-24.5 -37t-27 -32
q-3 -3 -10.5 -12t-15.5 -16h-1z" />
    <glyph glyph-name="kgreenlandic" unicode="&#x138;" horiz-adv-x="374" 
d="M-2 -9q-7 0 -7 4q0 3 1 4q60 115 114.5 207.5t97 158t66.5 98.5q18 0 34.5 -7t8.5 -19q-32 -28 -84.5 -104t-128.5 -210q-1 -3 0 -5t3 -1q45 34 76 56.5t56.5 39t53 30t66.5 28.5q5 -13 5 -22q0 -19 -15.5 -32t-39 -19.5t-47.5 -6.5q-3 -13 -4.5 -32t-1.5 -39
q0 -42 5 -70q4 -25 20 -25q6 0 8 1q15 5 31.5 13t33.5 17l57 30q0 -6 -5 -23q-8 -4 -15.5 -8t-15.5 -9q-7 -4 -15 -8.5t-16 -9.5q-41 -23 -74 -30q-9 -3 -22 4.5t-23.5 21t-13.5 29.5q-1 11 -1.5 23t-0.5 26t0.5 30t1.5 33q-99 -73 -150 -141q-9 -11 -28 -22t-31 -11z" />
    <glyph glyph-name="Lacute" unicode="&#x139;" horiz-adv-x="461" 
d="M759 -163q-179 0 -354 115l-140 92q-53 -50 -111 -50q-57 0 -97 55q-38 50 -38 99q0 52 42 52q41 0 208 -113q31 35 69 104q102 182 180 273q100 118 189 118q51 0 89 -53q16 -23 25.5 -46.5t9.5 -48.5v-4q0 -9 -4 -9q-8 0 -10 20q-2 36 -38 67q-38 32 -82 32
q-78 0 -193 -142q-43 -52 -81.5 -110.5t-73.5 -123.5q-32 -59 -58 -91l136 -90q81 -54 164.5 -80.5t167.5 -26.5q56 0 94 20q43 24 43 68q0 29 12 29q3 0 3 -9q0 -60 -44 -104q-43 -43 -108 -43zM154 22q46 0 87 37q-130 85 -166 85q-27 0 -27 -32t34 -63q32 -27 72 -27z
M801 686q-2 0 -2 2q0 3 4.5 7.5t8.5 7.5q9 6 23.5 18.5t30 25.5t23.5 20q5 6 11 9.5t15 3.5q8 0 20 -5.5t12 -12.5q0 -6 -17.5 -15t-26.5 -14q-14 -7 -35.5 -18.5t-40.5 -20t-26 -8.5z" />
    <glyph glyph-name="lacute" unicode="&#x13a;" horiz-adv-x="202" 
d="M85 -2q-13 -3 -33 11q-23 17 -26 44q20 59 103 176t228 293q4 7 45 22q38 16 52 16t14 -10q0 -9 -16 -9q-17 0 -63 -46q-56 -54 -176 -212q-138 -181 -138 -226q0 -10 5 -21t16 -11q6 0 23.5 7t38.5 17t40 20.5t28 16.5q0 -20 -5 -23q-8 -4 -15.5 -8t-15.5 -9
q-7 -4 -15 -8.5t-16 -9.5q-41 -23 -74 -30zM448 619q-2 0 -2 2q0 3 4.5 7.5t8.5 7.5q9 6 23.5 18.5t30 25.5t23.5 20q5 6 11 9.5t15 3.5q8 0 20 -5.5t12 -12.5q0 -6 -17.5 -15t-26.5 -14q-14 -7 -35.5 -18.5t-40.5 -20t-26 -8.5z" />
    <glyph glyph-name="uni013B" unicode="&#x13b;" horiz-adv-x="461" 
d="M759 -163q-179 0 -354 115l-140 92q-53 -50 -111 -50q-57 0 -97 55q-38 50 -38 99q0 52 42 52q41 0 208 -113q31 35 69 104q102 182 180 273q100 118 189 118q51 0 89 -53q16 -23 25.5 -46.5t9.5 -48.5v-4q0 -9 -4 -9q-8 0 -10 20q-2 36 -38 67q-38 32 -82 32
q-78 0 -193 -142q-43 -52 -81.5 -110.5t-73.5 -123.5q-32 -59 -58 -91l136 -90q81 -54 164.5 -80.5t167.5 -26.5q56 0 94 20q43 24 43 68q0 29 12 29q3 0 3 -9q0 -60 -44 -104q-43 -43 -108 -43zM154 22q46 0 87 37q-130 85 -166 85q-27 0 -27 -32t34 -63q32 -27 72 -27z
M196 -213q-4 0 -5.5 3.5t-1.5 6.5q7 10 12.5 17t12.5 17q12 16 18.5 34.5t6.5 31.5q-1 7 -4.5 12.5t-4.5 12.5q0 6 7.5 13.5t23.5 7.5q18 0 23 -6.5t5 -17.5q0 -16 -11.5 -35t-26.5 -37t-28 -32q-3 -3 -10.5 -12t-15.5 -16h-1z" />
    <glyph glyph-name="uni013C" unicode="&#x13c;" horiz-adv-x="202" 
d="M85 -2q-13 -3 -33 11q-23 17 -26 44q20 59 103 176t228 293q4 7 45 22q38 16 52 16t14 -10q0 -9 -16 -9q-17 0 -63 -46q-56 -54 -176 -212q-138 -181 -138 -226q0 -10 5 -21t16 -11q6 0 23.5 7t38.5 17t40 20.5t28 16.5q0 -20 -5 -23q-8 -4 -15.5 -8t-15.5 -9
q-7 -4 -15 -8.5t-16 -9.5q-41 -23 -74 -30zM-24 -213q-4 0 -5.5 3.5t-1.5 6.5q7 10 12.5 17t12.5 17q12 16 20.5 34.5t8.5 31.5q-1 7 -4.5 12.5t-4.5 12.5q0 6 7 13.5t20 7.5q15 0 19.5 -6.5t4.5 -17.5q0 -16 -10.5 -35t-24.5 -37t-27 -32q-3 -3 -10.5 -12t-15.5 -16h-1z
" />
    <glyph glyph-name="Lcaron" unicode="&#x13d;" horiz-adv-x="461" 
d="M759 -163q-179 0 -354 115l-140 92q-53 -50 -111 -50q-57 0 -97 55q-38 50 -38 99q0 52 42 52q41 0 208 -113q31 35 69 104q102 182 180 273q100 118 189 118q51 0 89 -53q16 -23 25.5 -46.5t9.5 -48.5v-4q0 -9 -4 -9q-8 0 -10 20q-2 36 -38 67q-38 32 -82 32
q-78 0 -193 -142q-43 -52 -81.5 -110.5t-73.5 -123.5q-32 -59 -58 -91l136 -90q81 -54 164.5 -80.5t167.5 -26.5q56 0 94 20q43 24 43 68q0 29 12 29q3 0 3 -9q0 -60 -44 -104q-43 -43 -108 -43zM154 22q46 0 87 37q-130 85 -166 85q-27 0 -27 -32t34 -63q32 -27 72 -27z
M843 479q-1 0 -2 2q0 6 11 26t21.5 49t10.5 59v11q0 4 10 4q11 0 20 -5t9 -12q0 -18 -11 -41t-26 -43.5t-28 -34.5q-1 -2 -6.5 -7.5l-7.5 -7.5h-1z" />
    <glyph glyph-name="lcaron" unicode="&#x13e;" horiz-adv-x="202" 
d="M85 -2q-13 -3 -33 11q-23 17 -26 44q20 59 103 176t228 293q4 7 45 22q38 16 52 16t14 -10q0 -9 -16 -9q-17 0 -63 -46q-56 -54 -176 -212q-138 -181 -138 -226q0 -10 5 -21t16 -11q6 0 23.5 7t38.5 17t40 20.5t28 16.5q0 -20 -5 -23q-8 -4 -15.5 -8t-15.5 -9
q-7 -4 -15 -8.5t-16 -9.5q-41 -23 -74 -30zM443 433q-1 0 -2 2q0 6 11 25t21.5 44t10.5 45v11q3 3 10 4q5 0 16 -5t11 -12q0 -2 -1 -3q-7 -23 -26 -50.5t-36 -45.5q-1 -2 -6.5 -7.5l-7.5 -7.5h-1z" />
    <glyph glyph-name="Ldot" unicode="&#x13f;" horiz-adv-x="461" 
d="M759 -163q-179 0 -354 115l-140 92q-53 -50 -111 -50q-57 0 -97 55q-38 50 -38 99q0 52 42 52q41 0 208 -113q31 35 69 104q102 182 180 273q100 118 189 118q51 0 89 -53q16 -23 25.5 -46.5t9.5 -48.5v-4q0 -9 -4 -9q-8 0 -10 20q-2 36 -38 67q-38 32 -82 32
q-78 0 -193 -142q-43 -52 -81.5 -110.5t-73.5 -123.5q-32 -59 -58 -91l136 -90q81 -54 164.5 -80.5t167.5 -26.5q56 0 94 20q43 24 43 68q0 29 12 29q3 0 3 -9q0 -60 -44 -104q-43 -43 -108 -43zM628 261q-35 0 -23 15q4 4 8 9l8 10t9 10.5t10 11.5q16 13 34 13q12 0 12 -10
q0 -8 -7 -21q-11 -19 -19 -28.5t-32 -9.5zM154 22q46 0 87 37q-130 85 -166 85q-27 0 -27 -32t34 -63q32 -27 72 -27z" />
    <glyph glyph-name="ldot" unicode="&#x140;" horiz-adv-x="202" 
d="M85 -2q-13 -3 -33 11q-23 17 -26 44q20 59 103 176t228 293q4 7 45 22q38 16 52 16t14 -10q0 -9 -16 -9q-17 0 -63 -46q-56 -54 -176 -212q-138 -181 -138 -226q0 -10 5 -21t16 -11q6 0 23.5 7t38.5 17t40 20.5t28 16.5q0 -20 -5 -23q-8 -4 -15.5 -8t-15.5 -9
q-7 -4 -15 -8.5t-16 -9.5q-41 -23 -74 -30zM121 144q-35 0 -23 15q4 4 8 9l8 10t9 10.5t10 11.5q16 13 34 13q12 0 12 -10q0 -8 -7 -21q-11 -19 -19 -28.5t-32 -9.5z" />
    <glyph glyph-name="Lslash" unicode="&#x141;" horiz-adv-x="461" 
d="M253 159q-9 -1 -10 5q-2 13 18 32q43 10 81 16q4 0 8 1q95 165 168 251q100 118 189 118q51 0 89 -53q32 -47 35 -95v-4q0 -9 -4 -9q-8 0 -10 20q-2 36 -38 67q-38 32 -82 32q-78 0 -193 -142q-34 -41 -65 -86.5t-60 -94.5q42 5 82 5l28 1q9 0 10 -6q1 -7 -10 -8l-11 -2
q-3 -1 -8.5 -1.5t-12.5 -0.5l-48 -8t-47 -9q-6 -12 -13 -24q-32 -59 -58 -91l136 -90q164 -107 332 -107q56 0 94 20q43 24 43 68q0 29 12 29q3 0 3 -9q0 -60 -44 -104q-43 -43 -108 -43q-179 0 -354 115l-140 92q-53 -50 -111 -50q-57 0 -97 55q-38 50 -38 99q0 52 42 52
q41 0 208 -113q29 33 64 94q-42 -9 -80 -22zM154 22q46 0 87 37q-130 85 -166 85q-27 0 -27 -32t34 -63q32 -27 72 -27z" />
    <glyph glyph-name="lslash" unicode="&#x142;" horiz-adv-x="202" 
d="M85 -2q-13 -3 -33 11q-23 17 -26 44q24 69 139 225q-22 -5 -43 -11t-42 -13q-8 -1 -10 5q-2 14 18 32q22 5 42 9t39 7q10 2 20 3q69 92 168 212q4 7 45 22q38 16 52 16t14 -10q0 -9 -16 -9q-17 0 -63 -46q-50 -49 -151 -180q25 2 50 2l28 1q8 0 10 -6q1 -6 -10 -8l-11 -2
q-4 -1 -9 -1.5t-12 -0.5q-17 -3 -33.5 -5.5t-33.5 -5.5l-4 -6q-138 -181 -138 -226q0 -10 5 -21t16 -11q6 0 23.5 7t38.5 17t40 20.5t28 16.5q0 -20 -5 -23q-8 -4 -15.5 -8t-15.5 -9q-7 -4 -15 -8.5t-16 -9.5q-41 -23 -74 -30z" />
    <glyph glyph-name="Nacute" unicode="&#x143;" horiz-adv-x="817" 
d="M688 -116q-23 0 -49 24q-25 24 -25 41q4 217 298 593q4 7 4 16q0 24 -20 24q-31 0 -75 -18.5t-103 -53.5q-20 -12 -50.5 -33.5t-72.5 -52.5q-46 -35 -74 -59t-39 -37q-25 -43 -58.5 -92t-77.5 -105q-118 -150 -172 -150q-28 0 -28 25q0 12 6 22q19 33 45.5 70t61.5 77
q31 35 58.5 61t49.5 45l66 54q14 23 25.5 47t21.5 48l28 64q19 45 19 74q0 41 -54 41q-47 0 -132 -35q-63 -27 -117.5 -62.5t-105.5 -86.5q-72 -70 -72 -108q0 -27 58 -27h5q9 0 9 -6q0 -11 -23 -11q-39 0 -64.5 15.5t-25.5 39.5q0 9 3 16q11 29 78 95q32 32 59.5 55.5
t50.5 37.5q151 97 263 97q46 0 74 -21q24 -18 24 -68q0 -60 -25 -113q-2 -4 -5.5 -9.5t-8.5 -13.5q39 28 87.5 61t106.5 72q116 68 182 68q24 0 42.5 -22t18.5 -48q0 -16 -9 -30l-100 -135q-34 -46 -60 -90t-45 -85q-28 -58 -48 -122t-34 -135q0 -2 -0.5 -4t-0.5 -4
q0 -17 15 -17q26 0 78 37q20 14 37 28t33 29q5 5 9 5q5 0 5 -8q0 -9 -9 -20q-93 -100 -138 -100zM195 24q10 0 25 16q45 47 89.5 107.5t92.5 135.5q-37 -29 -70 -61t-62 -67q-25 -30 -45 -58t-34 -54q-3 -6 -3 -11q0 -8 7 -8zM756 685q-2 0 -2 2q0 3 4.5 7.5t8.5 7.5
q9 6 23.5 18.5t30 25.5t23.5 20q5 6 11 9.5t15 3.5q8 0 20 -5.5t12 -12.5q0 -6 -17.5 -15t-26.5 -14q-14 -7 -35.5 -18.5t-40.5 -20t-26 -8.5z" />
    <glyph glyph-name="nacute" unicode="&#x144;" horiz-adv-x="367" 
d="M5 -1q-12 0 -12 9t12 25q8 9 93 141q2 3 0 6q-3 3 -2 6l36 37q13 19 45 19q8 0 8 -4l-3 -5q-13 -14 -27.5 -31t-30.5 -38q-43 -55 -43 -74q0 -3 1 -4l194 141q24 18 52 18q16 0 16 -12q0 -13 -21 -39q-11 -12 -21 -46q-10 -31 -10 -60q0 -37 24 -31q26 7 48.5 16t40.5 22
q9 6 18 6q5 0 5 -4q0 -3 -9 -14q-13 -16 -66 -37q-54 -20 -77 -20q-39 0 -39 41q0 33 34 105q4 7 4 14t-7 7q-10 0 -23 -10q-40 -28 -71.5 -53t-53.5 -46l-71 -69q-12 -10 -33 -15q-3 -1 -6 -1h-5zM260 310q-3 0 -3 2q0 4 4.5 8.5t6.5 5.5q8 8 20 22t24.5 28.5t19.5 22.5
q5 6 10 10t12 4q6 0 15.5 -6t9.5 -14q0 -6 -13.5 -16t-21.5 -16l-30 -20t-33 -21.5t-21 -9.5z" />
    <glyph glyph-name="uni0145" unicode="&#x145;" horiz-adv-x="817" 
d="M688 -116q-23 0 -49 24q-25 24 -25 41q4 217 298 593q4 7 4 16q0 24 -20 24q-31 0 -75 -18.5t-103 -53.5q-20 -12 -50.5 -33.5t-72.5 -52.5q-46 -35 -74 -59t-39 -37q-25 -43 -58.5 -92t-77.5 -105q-118 -150 -172 -150q-28 0 -28 25q0 12 6 22q19 33 45.5 70t61.5 77
q31 35 58.5 61t49.5 45l66 54q14 23 25.5 47t21.5 48l28 64q19 45 19 74q0 41 -54 41q-47 0 -132 -35q-63 -27 -117.5 -62.5t-105.5 -86.5q-72 -70 -72 -108q0 -27 58 -27h5q9 0 9 -6q0 -11 -23 -11q-39 0 -64.5 15.5t-25.5 39.5q0 9 3 16q11 29 78 95q32 32 59.5 55.5
t50.5 37.5q151 97 263 97q46 0 74 -21q24 -18 24 -68q0 -60 -25 -113q-2 -4 -5.5 -9.5t-8.5 -13.5q39 28 87.5 61t106.5 72q116 68 182 68q24 0 42.5 -22t18.5 -48q0 -16 -9 -30l-100 -135q-34 -46 -60 -90t-45 -85q-28 -58 -48 -122t-34 -135q0 -2 -0.5 -4t-0.5 -4
q0 -17 15 -17q26 0 78 37q20 14 37 28t33 29q5 5 9 5q5 0 5 -8q0 -9 -9 -20q-93 -100 -138 -100zM195 24q10 0 25 16q45 47 89.5 107.5t92.5 135.5q-37 -29 -70 -61t-62 -67q-25 -30 -45 -58t-34 -54q-3 -6 -3 -11q0 -8 7 -8zM354 -213q-4 0 -5.5 3.5t-1.5 6.5q7 10 12.5 17
t12.5 17q12 16 18.5 34.5t6.5 31.5q-1 7 -4.5 12.5t-4.5 12.5q0 6 7.5 13.5t23.5 7.5q18 0 23 -6.5t5 -17.5q0 -16 -11.5 -35t-26.5 -37t-28 -32q-3 -3 -10.5 -12t-15.5 -16h-1z" />
    <glyph glyph-name="uni0146" unicode="&#x146;" horiz-adv-x="367" 
d="M5 -1q-12 0 -12 9t12 25q8 9 93 141q2 3 0 6q-3 3 -2 6l36 37q13 19 45 19q8 0 8 -4l-3 -5q-13 -14 -27.5 -31t-30.5 -38q-43 -55 -43 -74q0 -3 1 -4l194 141q24 18 52 18q16 0 16 -12q0 -13 -21 -39q-11 -12 -21 -46q-10 -31 -10 -60q0 -37 24 -31q26 7 48.5 16t40.5 22
q9 6 18 6q5 0 5 -4q0 -3 -9 -14q-13 -16 -66 -37q-54 -20 -77 -20q-39 0 -39 41q0 33 34 105q4 7 4 14t-7 7q-10 0 -23 -10q-40 -28 -71.5 -53t-53.5 -46l-71 -69q-12 -10 -33 -15q-3 -1 -6 -1h-5zM49 -213q-4 0 -5.5 3.5t-1.5 6.5q7 10 12.5 17t12.5 17q12 16 20.5 34.5
t8.5 31.5q-1 7 -4.5 12.5t-4.5 12.5q0 6 7 13.5t20 7.5q15 0 19.5 -6.5t4.5 -17.5q0 -16 -10.5 -35t-24.5 -37t-27 -32q-3 -3 -10.5 -12t-15.5 -16h-1z" />
    <glyph glyph-name="Ncaron" unicode="&#x147;" horiz-adv-x="817" 
d="M688 -116q-23 0 -49 24q-25 24 -25 41q4 217 298 593q4 7 4 16q0 24 -20 24q-31 0 -75 -18.5t-103 -53.5q-20 -12 -50.5 -33.5t-72.5 -52.5q-46 -35 -74 -59t-39 -37q-25 -43 -58.5 -92t-77.5 -105q-118 -150 -172 -150q-28 0 -28 25q0 12 6 22q19 33 45.5 70t61.5 77
q31 35 58.5 61t49.5 45l66 54q14 23 25.5 47t21.5 48l28 64q19 45 19 74q0 41 -54 41q-47 0 -132 -35q-63 -27 -117.5 -62.5t-105.5 -86.5q-72 -70 -72 -108q0 -27 58 -27h5q9 0 9 -6q0 -11 -23 -11q-39 0 -64.5 15.5t-25.5 39.5q0 9 3 16q11 29 78 95q32 32 59.5 55.5
t50.5 37.5q151 97 263 97q46 0 74 -21q24 -18 24 -68q0 -60 -25 -113q-2 -4 -5.5 -9.5t-8.5 -13.5q39 28 87.5 61t106.5 72q116 68 182 68q24 0 42.5 -22t18.5 -48q0 -16 -9 -30l-100 -135q-34 -46 -60 -90t-45 -85q-28 -58 -48 -122t-34 -135q0 -2 -0.5 -4t-0.5 -4
q0 -17 15 -17q26 0 78 37q20 14 37 28t33 29q5 5 9 5q5 0 5 -8q0 -9 -9 -20q-93 -100 -138 -100zM195 24q10 0 25 16q45 47 89.5 107.5t92.5 135.5q-37 -29 -70 -61t-62 -67q-25 -30 -45 -58t-34 -54q-3 -6 -3 -11q0 -8 7 -8zM932 785q3 0 3 -2t-15 -11.5t-37 -22t-43 -25
t-34 -20.5q-14 -9 -23 -14t-15 -5q-10 0 -16 19q-4 17 -10 33t-12 28t-6 17q0 4 3 4q5 0 14 -6q10 -6 26 -17.5t26 -26.5q32 13 68 26t58 20q8 3 13 3z" />
    <glyph glyph-name="ncaron" unicode="&#x148;" horiz-adv-x="367" 
d="M5 -1q-12 0 -12 9t12 25q8 9 93 141q2 3 0 6q-3 3 -2 6l36 37q13 19 45 19q8 0 8 -4l-3 -5q-13 -14 -27.5 -31t-30.5 -38q-43 -55 -43 -74q0 -3 1 -4l194 141q24 18 52 18q16 0 16 -12q0 -13 -21 -39q-11 -12 -21 -46q-10 -31 -10 -60q0 -37 24 -31q26 7 48.5 16t40.5 22
q9 6 18 6q5 0 5 -4q0 -3 -9 -14q-13 -16 -66 -37q-54 -20 -77 -20q-39 0 -39 41q0 33 34 105q4 7 4 14t-7 7q-10 0 -23 -10q-40 -28 -71.5 -53t-53.5 -46l-71 -69q-12 -10 -33 -15q-3 -1 -6 -1h-5zM405 416q3 0 3 -2q0 -1 -12.5 -11l-30 -24l-35 -28t-28.5 -23
q-23 -20 -31 -20q-9 0 -13 20q-4 18 -8.5 35.5t-9.5 30.5q-5 15 -5 19t3 4q4 0 11 -6q8 -7 21.5 -22t21.5 -32q26 14 55 31t48 25q6 3 10 3z" />
    <glyph glyph-name="Eng" unicode="&#x14a;" horiz-adv-x="817" 
d="M372 -318q-5 0 -10.5 0.5t-11.5 1.5q-32 6 -44 26q-7 11 -7 34q0 46 31 136q4 13 13 19q9 5 9 1q2 -4 1 -11q-12 -42 -18 -90q-3 -25 -3 -44q0 -30 7 -41q3 -4 9 -4q8 0 25 10.5t48 39.5q30 27 67.5 77t88 128t118.5 189q34 55 67.5 117t65 120t56.5 102q16 27 22.5 40
t8 18.5t1.5 11.5t-4.5 12.5t-15.5 6.5q-31 0 -75 -18.5t-103 -53.5q-20 -12 -50.5 -33.5t-72.5 -52.5q-46 -35 -74 -59t-39 -37q-25 -43 -58.5 -92t-77.5 -105q-118 -150 -172 -150q-28 0 -28 25q0 12 6 22q19 33 45.5 70t61.5 77q31 35 58.5 61t49.5 45l66 54
q14 23 25.5 47t21.5 48l28 64q19 45 19 74q0 41 -54 41q-47 0 -132 -35q-63 -27 -117.5 -62.5t-105.5 -86.5q-72 -70 -72 -108q0 -30 58 -27h4q10 0 10 -6q0 -11 -22 -11q-39 0 -65 15.5t-26 39.5q0 9 3 16q11 29 78 95q32 32 59.5 55.5t50.5 37.5q151 97 263 97
q46 0 74 -21q24 -18 24 -68q0 -60 -25 -113q-2 -4 -5.5 -9.5t-8.5 -13.5q39 28 87.5 61t106.5 72q116 68 182 68q16 0 30 -9.5t22.5 -22.5t8.5 -22v-7.5t-1 -6.5l1 -1l-3 -6q-4 -14 -15.5 -35t-34.5 -61l-62 -110t-63 -110q-49 -85 -99.5 -168.5t-100 -156t-95 -125
t-83.5 -76.5q-9 -6 -27 -6zM195 24q10 0 25 16q45 47 89.5 107.5t92.5 135.5q-37 -29 -70 -61t-62 -67q-25 -30 -45 -58t-34 -54q-3 -6 -3 -11q0 -8 7 -8z" />
    <glyph glyph-name="eng" unicode="&#x14b;" horiz-adv-x="367" 
d="M-61 -318q-5 0 -11 0.5t-13 1.5q-32 6 -44 26q-7 11 -7 34q0 46 31 136q4 13 13 19q9 5 9 1q2 -4 1 -11q-12 -42 -18 -90q-3 -25 -3 -44q0 -30 7 -41q5 -6 10 -6q8 0 19 10q47 36 88 81.5t74.5 91.5t55.5 81q39 63 62 102t36.5 62t21.5 36q4 7 4 14t-7 7q-10 0 -23 -10
q-40 -28 -71.5 -53t-53.5 -46l-71 -69q-12 -10 -33 -15q-3 -1 -6 -1h-5q-12 0 -12 9t12 25q8 9 93 141q2 3 0 6q-3 3 -2 6l36 37q13 19 45 19q8 0 8 -4l-3 -5q-13 -14 -27.5 -31t-30.5 -38q-43 -55 -43 -74q0 -3 1 -4l194 141q24 18 52 18q16 0 16 -12q0 -7 -4.5 -16
l-11.5 -23q-4 -9 -11 -21.5t-19.5 -34.5t-35.5 -63q-18 -31 -44.5 -73.5t-57.5 -88.5t-65 -89.5t-67.5 -79t-63.5 -56.5q-9 -6 -25 -6z" />
    <glyph glyph-name="Omacron" unicode="&#x14c;" horiz-adv-x="774" 
d="M263 -48q-88 0 -157 39q-77 42 -77 108q0 11 3 23q16 73 71 143q-1 3 -1 21q0 106 130 173q114 56 240 56t218 -47q103 -54 112 -148q1 -5 1 -9.5v-9.5q0 -130 -176 -235q-155 -94 -333 -112q-8 -1 -15.5 -1.5t-15.5 -0.5zM269 -26q86 0 201 42q128 46 204 116
q92 84 83 178q-7 84 -94 130q-76 39 -191 39h-15q10 -10 10 -24q0 -9 -7 -10q-67 -19 -147 -63q-112 -64 -171 -147q34 -72 120 -95q14 -5 14 -10q0 -6 -14 -3q-93 24 -135 85q-40 -61 -40 -113q0 -55 58 -91q52 -34 124 -34zM131 297q112 117 272 178q-106 -13 -178 -53
q-88 -49 -94 -125zM511 616q-7 0 -7 6q0 14 19 29q36 3 68 3q19 0 43.5 -1t48 -2.5t37.5 -4.5l23 -4q8 -2 8 -7q0 -7 -9 -7h-9h-7.5t-10.5 1q-30 1 -66.5 -0.5t-72.5 -4t-65 -8.5z" />
    <glyph glyph-name="omacron" unicode="&#x14d;" horiz-adv-x="327" 
d="M45 -1q-36 0 -36 38q0 59 57 125q11 14 26.5 33.5t35.5 42.5q2 0 -18 7q-13 4 -13 14q0 12 17 12q16 0 53 9q6 4 12.5 8t13.5 8q11 7 22 7q6 0 12.5 -2.5t14.5 -6.5q11 -6 19.5 -10.5t13.5 -6.5l106 1q17 0 17 -8t-17 -10q-21 -3 -38 -3q1 -4 1.5 -7.5t0.5 -5.5
q0 -32 -38 -82q-31 -41 -70 -71q-88 -67 -158 -86q-19 -6 -34 -6zM55 23q2 0 4.5 0.5t6.5 1.5q66 19 149 82q15 11 29.5 26t28.5 32q33 42 33 68q0 12 -7 19h-45q-22 0 -37.5 -3.5t-26.5 -8.5q-29 -22 -86 -88q-20 -24 -39 -55q-25 -41 -25 -55v-2q0 -17 15 -17zM210 373
q-7 0 -7 6q0 14 19 29q36 3 68 3q28 0 52 -2t46 -6l23 -4q8 -2 8 -7q0 -7 -9 -7h-9h-7.5t-10.5 1q-45 1 -87.5 -2t-85.5 -11z" />
    <glyph glyph-name="Obreve" unicode="&#x14e;" horiz-adv-x="774" 
d="M263 -48q-88 0 -157 39q-77 42 -77 108q0 11 3 23q16 73 71 143q-1 3 -1 21q0 106 130 173q114 56 240 56t218 -47q103 -54 112 -148q1 -5 1 -9.5v-9.5q0 -130 -176 -235q-155 -94 -333 -112q-8 -1 -15.5 -1.5t-15.5 -0.5zM269 -26q86 0 201 42q128 46 204 116
q92 84 83 178q-7 84 -94 130q-76 39 -191 39h-15q10 -10 10 -24q0 -9 -7 -10q-67 -19 -147 -63q-112 -64 -171 -147q34 -72 120 -95q14 -5 14 -10q0 -6 -14 -3q-93 24 -135 85q-40 -61 -40 -113q0 -55 58 -91q52 -34 124 -34zM131 297q112 117 272 178q-106 -13 -178 -53
q-88 -49 -94 -125zM628 601q-46 0 -65.5 17.5t-19.5 41.5q0 22 8 22q5 0 6 -10q3 -15 19.5 -27t58.5 -12q60 0 88 39q6 8 9.5 7t2.5 -6q-2 -26 -30 -49t-77 -23z" />
    <glyph glyph-name="obreve" unicode="&#x14f;" horiz-adv-x="327" 
d="M45 -1q-36 0 -36 38q0 59 57 125q11 14 26.5 33.5t35.5 42.5q2 0 -18 7q-13 4 -13 14q0 12 17 12q16 0 53 9q6 4 12.5 8t13.5 8q11 7 22 7q6 0 12.5 -2.5t14.5 -6.5q11 -6 19.5 -10.5t13.5 -6.5l106 1q17 0 17 -8t-17 -10q-21 -3 -38 -3q1 -4 1.5 -7.5t0.5 -5.5
q0 -32 -38 -82q-31 -41 -70 -71q-88 -67 -158 -86q-19 -6 -34 -6zM55 23q2 0 4.5 0.5t6.5 1.5q66 19 149 82q15 11 29.5 26t28.5 32q33 42 33 68q0 12 -7 19h-45q-22 0 -37.5 -3.5t-26.5 -8.5q-29 -22 -86 -88q-20 -24 -39 -55q-25 -41 -25 -55v-2q0 -17 15 -17zM302 358
q-34 0 -52 17.5t-18 41.5q0 22 8 22q5 0 6 -10q3 -15 17.5 -27t45.5 -12q21 0 40 9t34 30q6 8 9.5 7t2.5 -6q-2 -26 -28.5 -49t-64.5 -23z" />
    <glyph glyph-name="Ohungarumlaut" unicode="&#x150;" horiz-adv-x="774" 
d="M263 -48q-88 0 -157 39q-77 42 -77 108q0 11 3 23q16 73 71 143q-1 3 -1 21q0 106 130 173q114 56 240 56t218 -47q103 -54 112 -148q1 -5 1 -9.5v-9.5q0 -130 -176 -235q-155 -94 -333 -112q-8 -1 -15.5 -1.5t-15.5 -0.5zM269 -26q86 0 201 42q128 46 204 116
q92 84 83 178q-7 84 -94 130q-76 39 -191 39h-15q10 -10 10 -24q0 -9 -7 -10q-67 -19 -147 -63q-112 -64 -171 -147q34 -72 120 -95q14 -5 14 -10q0 -6 -14 -3q-93 24 -135 85q-40 -61 -40 -113q0 -55 58 -91q52 -34 124 -34zM131 297q112 117 272 178q-106 -13 -178 -53
q-88 -49 -94 -125zM669 601q-3 0 -3 2v2q0 4 1.5 7.5t1.5 4.5q5 14 12.5 39.5t11.5 41.5q2 6 4.5 11t8.5 5q5 0 14 -5t9 -12t-6.5 -17.5t-9.5 -16.5q-7 -9 -15.5 -23.5t-16.5 -25.5t-12 -13zM585 601q-2 0 -2 2v2q0 4 1 7.5t2 4.5q5 14 12.5 39.5t11.5 41.5q2 6 4.5 11
t8.5 5q5 0 14 -5t9 -12t-6.5 -17.5t-10.5 -16.5q-6 -9 -15 -23.5t-17 -25.5t-12 -13z" />
    <glyph glyph-name="ohungarumlaut" unicode="&#x151;" horiz-adv-x="327" 
d="M45 -1q-36 0 -36 38q0 59 57 125q11 14 26.5 33.5t35.5 42.5q2 0 -18 7q-13 4 -13 14q0 12 17 12q16 0 53 9q6 4 12.5 8t13.5 8q11 7 22 7q6 0 12.5 -2.5t14.5 -6.5q11 -6 19.5 -10.5t13.5 -6.5l106 1q17 0 17 -8t-17 -10q-21 -3 -38 -3q1 -4 1.5 -7.5t0.5 -5.5
q0 -32 -38 -82q-31 -41 -70 -71q-88 -67 -158 -86q-19 -6 -34 -6zM55 23q2 0 4.5 0.5t6.5 1.5q66 19 149 82q15 11 29.5 26t28.5 32q33 42 33 68q0 12 -7 19h-45q-22 0 -37.5 -3.5t-26.5 -8.5q-29 -22 -86 -88q-20 -24 -39 -55q-25 -41 -25 -55v-2q0 -17 15 -17zM340 358
q-3 0 -3 2v2q0 4 1.5 8t1.5 5q4 14 11 40.5t11 42.5q2 7 4.5 12t7.5 5t13 -5t8 -13q0 -7 -6 -18t-8 -17q-6 -10 -14.5 -24.5t-15.5 -26t-11 -13.5zM262 358q-2 0 -2 2v2q0 4 1 8t2 5q4 14 11 40.5t11 42.5q2 7 4.5 12t7.5 5t13 -5t8 -13q0 -7 -6 -18t-9 -17
q-6 -10 -14.5 -24.5t-15.5 -26t-11 -13.5z" />
    <glyph glyph-name="OE" unicode="&#x152;" horiz-adv-x="1253" 
d="M707 -93q-93 0 -153 48q-28 24 -43 52q-108 -41 -217 -53q-8 -1 -15.5 -1.5t-15.5 -0.5q-88 0 -157 39q-77 42 -77 108q0 11 3 23q16 73 71 143q-1 3 -1 21q0 106 130 173q114 56 240 56t218 -47q46 -24 73 -55q38 24 78 45q79 42 157 64.5t156 27.5q5 1 10 1h9h16
q58 0 83 -19q27 -19 27 -66q0 -58 -26 -58q-20 0 -20 30q0 2 0.5 6t1.5 9t1 9v7q0 33 -27.5 49.5t-72.5 13.5q-135 -9 -293 -101q-122 -70 -205 -156q5 2 165 21q43 5 76 8t58 3q69 0 126 -18q48 -16 48 -50q0 -26 -27 -47q-10 -9 -18 -9t-9 10q0 14 15 21q12 6 12 15
q0 20 -34 30q-65 20 -144 20q-34 0 -108 -9q-37 -4 -83.5 -11t-102.5 -15q-91 -124 -91 -204q0 -106 155 -106q82 0 175 27l152 51q69 23 153 66l140 73q7 4 13 4q7 0 7 -6q0 -9 -15 -18q-45 -26 -78.5 -45t-56.5 -31q-49 -26 -91 -46t-79 -34q-95 -36 -142 -48
q-82 -20 -167 -20zM269 -26q86 0 201 42q17 6 32 13q-7 20 -7 49q0 75 62 155l-52 -5q-15 -1 -25 8.5t-10 22.5q0 15 13 25q31 25 89 28h5q8 0 8 -3q0 -9 -28 -10q-13 -1 -28 -8.5t-15 -13.5t11 -8q14 -3 33 -3q7 0 14.5 0.5t15.5 1.5q31 33 65.5 63.5t72.5 57.5
q-11 15 -27 27.5t-36 23.5q-76 39 -191 39h-15q10 -10 10 -24q0 -9 -7 -10q-67 -19 -147 -63q-112 -64 -171 -147q34 -72 120 -95q14 -5 14 -10q0 -6 -14 -3q-93 24 -135 85q-40 -61 -40 -113q0 -55 58 -91q52 -34 124 -34zM131 297q112 117 272 178q-106 -13 -178 -53
q-88 -49 -94 -125z" />
    <glyph glyph-name="oe" unicode="&#x153;" horiz-adv-x="463" 
d="M289 -5q-31 0 -53.5 16t-22.5 38q0 8 5 25q0 1 1 2v2q-38 -27 -72.5 -45.5t-67.5 -27.5q-19 -6 -34 -6q-36 0 -36 38q0 59 57 125q11 14 26.5 33.5t35.5 42.5q2 0 -18 7q-13 4 -13 14q0 12 17 12q16 0 53 9q6 4 12.5 8t13.5 8q11 7 22 7q6 0 12.5 -2.5t14.5 -6.5
q11 -6 19.5 -10.5t13.5 -6.5q32 2 49 -9.5t21 -22.5l25 23l50 18q48 16 52 15q37 -6 37 -31q0 -48 -77 -95q-69 -42 -121 -42q-5 0 -10 0.5t-10 1.5q-10 -14 -18 -26t-13 -23q-8 -19 -8 -32q0 -33 27 -33t87 24q58 22 79 39q8 5 14 5t6 -5q-1 -6 -10 -13
q-15 -11 -34.5 -22.5t-43.5 -24.5q-61 -29 -88 -29zM342 155q36 0 76 39q38 38 38 63q0 14 -13 15q-43 7 -129 -107q10 -10 28 -10zM55 23q2 0 4.5 0.5t6.5 1.5q66 19 149 82q21 15 41 38q7 10 14.5 19.5t16.5 19.5q19 28 19 49q0 12 -7 19h-45q-43 -1 -64 -12
q-29 -22 -86 -88q-20 -24 -39 -55q-23 -38 -25 -55v-2q0 -17 15 -17z" />
    <glyph glyph-name="Racute" unicode="&#x154;" horiz-adv-x="565" 
d="M740 -168q-10 0 -20 1.5t-21 3.5q-64 17 -287 282q-22 26 -41 47t-35 36q-42 -9 -86 -9h-2q-2 -2 -4.5 -5.5t-4.5 -7.5l-14 -19q-38 -52 -55.5 -86t-17.5 -48q0 -7 6 -7q24 0 44 17q8 5 17 5q8 2 8 -2q0 -1 -2 -3q-70 -46 -105 -46q-19 0 -19 16q0 4 1.5 8.5t3.5 11.5
q8 20 23.5 48.5t40.5 64.5l44 62q-38 17 -38 43q0 23 30 39q8 5 20 5q19 0 45 -14q28 33 58 66.5t62 67.5q-16 -7 -30.5 -12.5t-28.5 -9.5q2 2 7.5 6.5t13.5 9.5t18 12.5t23 15.5l54 36q12 12 41 12q17 0 22 -8q0 -1 0.5 -1.5t0.5 -1.5q0 -9 -17 -23q-129 -108 -196 -187
q12 -8 23.5 -16.5t22.5 -18.5q24 5 47 12q272 87 290 216q1 4 1 7v7q0 49 -53 81q-60 36 -163 36q-75 0 -173 -39q-122 -48 -150 -124q-4 -8 -4 -21q0 -23 13 -42q14 -19 31 -23q18 -4 18 -14q0 -8 -15 -5q-31 6 -55 33.5t-24 56.5q0 15 4 23q32 87 146 132q98 39 227 39
q120 0 179 -37q52 -33 52 -86q0 -41 -26.5 -79.5t-77.5 -76.5q-42 -30 -93.5 -56t-113.5 -43l-43 -12q23 -20 47 -44.5t49 -52.5q187 -211 266 -232q32 -9 61 -9q79 0 94 59q6 25 19 25q2 0 2 -4t-1 -6q-13 -49 -59 -80q-47 -32 -100 -32zM227 219l31 40q-3 1 -6 1.5t-7 0.5
q-12 0 -22.5 -6.5t-10.5 -18.5q0 -9 15 -17zM262 212q14 0 57 6q-9 10 -32 26q-2 -2 -4.5 -5.5t-5.5 -7.5q-4 -4 -7.5 -9t-7.5 -10zM570 685q-2 0 -2 2q0 3 4.5 7.5t8.5 7.5q9 6 23.5 18.5t30 25.5t23.5 20q5 6 11 9.5t15 3.5q8 0 20 -5.5t12 -12.5q0 -6 -17.5 -15
t-26.5 -14q-14 -7 -35.5 -18.5t-40.5 -20t-26 -8.5z" />
    <glyph glyph-name="racute" unicode="&#x155;" horiz-adv-x="280" 
d="M5 4q-6 0 -6 5l2 7q2 4 5.5 9t7.5 10l16 24q3 4 8 10.5t11 16.5l31 50q17 23 36 66q1 6 2 14.5t2 19.5q2 5 36 20q32 16 45 16q5 0 5 -3q0 -2 -3 -7q-17 -23 -35.5 -51.5t-38.5 -61.5l66 55q12 10 19.5 15.5t9.5 7.5q74 51 130 51q7 0 7 -14t-6.5 -30.5t-14.5 -16.5
q-2 0 -4 2v2q0 2 0.5 4t0.5 6v3q0 7 -4 7q-85 0 -204 -110q-11 -11 -26 -31t-34 -48l-10 -22l-27 -15q-20 -11 -27 -11zM276 333q-3 0 -3 2q0 4 4.5 8.5t6.5 5.5q8 8 20 22t24.5 28.5t19.5 22.5q5 6 10 10t12 4q6 0 15.5 -6t9.5 -14q0 -6 -13.5 -16t-21.5 -16l-30 -20
t-33 -21.5t-21 -9.5z" />
    <glyph glyph-name="uni0156" unicode="&#x156;" horiz-adv-x="565" 
d="M740 -168q-10 0 -20 1.5t-21 3.5q-64 17 -287 282q-22 26 -41 47t-35 36q-42 -9 -86 -9h-2q-2 -2 -4.5 -5.5t-4.5 -7.5l-14 -19q-38 -52 -55.5 -86t-17.5 -48q0 -7 6 -7q24 0 44 17q8 5 17 5q8 2 8 -2q0 -1 -2 -3q-70 -46 -105 -46q-19 0 -19 16q0 4 1.5 8.5t3.5 11.5
q8 20 23.5 48.5t40.5 64.5l44 62q-38 17 -38 43q0 23 30 39q8 5 20 5q19 0 45 -14q28 33 58 66.5t62 67.5q-16 -7 -30.5 -12.5t-28.5 -9.5q2 2 7.5 6.5t13.5 9.5t18 12.5t23 15.5l54 36q12 12 41 12q17 0 22 -8q0 -1 0.5 -1.5t0.5 -1.5q0 -9 -17 -23q-129 -108 -196 -187
q12 -8 23.5 -16.5t22.5 -18.5q24 5 47 12q272 87 290 216q1 4 1 7v7q0 49 -53 81q-60 36 -163 36q-75 0 -173 -39q-122 -48 -150 -124q-4 -8 -4 -21q0 -23 13 -42q14 -19 31 -23q18 -4 18 -14q0 -8 -15 -5q-31 6 -55 33.5t-24 56.5q0 15 4 23q32 87 146 132q98 39 227 39
q120 0 179 -37q52 -33 52 -86q0 -41 -26.5 -79.5t-77.5 -76.5q-42 -30 -93.5 -56t-113.5 -43l-43 -12q23 -20 47 -44.5t49 -52.5q187 -211 266 -232q32 -9 61 -9q79 0 94 59q6 25 19 25q2 0 2 -4t-1 -6q-13 -49 -59 -80q-47 -32 -100 -32zM227 219l31 40q-3 1 -6 1.5t-7 0.5
q-12 0 -22.5 -6.5t-10.5 -18.5q0 -9 15 -17zM262 212q14 0 57 6q-9 10 -32 26q-2 -2 -4.5 -5.5t-5.5 -7.5q-4 -4 -7.5 -9t-7.5 -10zM248 -213q-4 0 -5.5 3.5t-1.5 6.5q7 10 12.5 17t12.5 17q12 16 18.5 34.5t6.5 31.5q-1 7 -4.5 12.5t-4.5 12.5q0 6 7.5 13.5t23.5 7.5
q18 0 23 -6.5t5 -17.5q0 -16 -11.5 -35t-26.5 -37t-28 -32q-3 -3 -10.5 -12t-15.5 -16h-1z" />
    <glyph glyph-name="uni0157" unicode="&#x157;" horiz-adv-x="280" 
d="M5 4q-6 0 -6 5l2 7q2 4 5.5 9t7.5 10l16 24q3 4 8 10.5t11 16.5l31 50q17 23 36 66q1 6 2 14.5t2 19.5q2 5 36 20q32 16 45 16q5 0 5 -3q0 -2 -3 -7q-17 -23 -35.5 -51.5t-38.5 -61.5l66 55q12 10 19.5 15.5t9.5 7.5q74 51 130 51q7 0 7 -14t-6.5 -30.5t-14.5 -16.5
q-2 0 -4 2v2q0 2 0.5 4t0.5 6v3q0 7 -4 7q-85 0 -204 -110q-11 -11 -26 -31t-34 -48l-10 -22l-27 -15q-20 -11 -27 -11zM-45 -213q-4 0 -5.5 3.5t-1.5 6.5q7 10 12.5 17t12.5 17q12 16 20.5 34.5t8.5 31.5q-1 7 -4.5 12.5t-4.5 12.5q0 6 7 13.5t20 7.5q15 0 19.5 -6.5
t4.5 -17.5q0 -16 -10.5 -35t-24.5 -37t-27 -32q-3 -3 -10.5 -12t-15.5 -16h-1z" />
    </font>
</defs>
</svg>
