<?xml version="1.0" encoding="UTF-8"?>
<svg version="1.1" xmlns="http://www.w3.org/2000/svg" width="200" height="200">
<path d="M0 0 C3.16115776 1.36983503 3.9927092 1.9890638 6 5 C6.45703125 6.83984375 6.45703125 6.83984375 6.8125 8.9375 C9.02754264 19.33636431 13.16513962 27.71859554 21 35 C21.66 35.33 22.32 35.66 23 36 C23.33 35.01 23.66 34.02 24 33 C25.65 33 27.3 33 29 33 C30.17663659 26.18531308 29.72684787 19.97813708 29 13.125 C28.78643672 11.06563982 28.57784162 9.00575636 28.375 6.9453125 C28.27960938 6.04312988 28.18421875 5.14094727 28.0859375 4.21142578 C28 2 28 2 29 0 C31.31 0 33.62 0 36 0 C36.91511773 3.70054908 36.94994997 6.60984125 36.4375 10.375 C35.91950542 15.24021488 36.2908746 18.44233227 38 23 C38.495 24.485 38.495 24.485 39 26 C41.33165034 26.33498301 41.33165034 26.33498301 44 26 C44.60328125 25.38382813 45.2065625 24.76765625 45.828125 24.1328125 C48.2820559 21.72301705 50.28536627 20.79957771 53.5 19.625 C54.4384375 19.26664063 55.376875 18.90828125 56.34375 18.5390625 C59 18 59 18 61.34375 18.8984375 C61.8903125 19.26195313 62.436875 19.62546875 63 20 C63.7013076 26.59229145 61.49602186 30.49376557 58 36 C58.99 36.33 59.98 36.66 61 37 C61 37.66 61 38.32 61 39 C61.61875 39.28875 62.2375 39.5775 62.875 39.875 C65 41 65 41 67 43 C68.96053978 42.98546079 68.96053978 42.98546079 71.0625 42.5625 C72.361875 42.376875 73.66125 42.19125 75 42 C76 43 76 43 76.0625 45.5625 C76.041875 46.366875 76.02125 47.17125 76 48 C81.22327336 46.3583998 84.04472653 43.18088195 87.625 39.1875 C89 38 89 38 92 38 C90.49387553 43.33989586 88.01822198 49.98177802 84 54 C83.63239269 56.32817964 83.29758419 58.6618385 83 61 C83.804375 61.144375 84.60875 61.28875 85.4375 61.4375 C88 62 88 62 89 63 C91.0279979 63.2253331 93.05674874 63.44767185 95.08984375 63.62109375 C97 64 97 64 99 66 C98.69253971 69.89449703 97.38362882 71.99455496 95 75 C95 75.66 95 76.32 95 77 C96.65 77.33 98.3 77.66 100 78 C100.625 79.875 100.625 79.875 101 82 C100.34 82.66 99.68 83.32 99 84 C99.66 84.66 100.32 85.32 101 86 C101.61488281 85.79503906 102.22976562 85.59007813 102.86328125 85.37890625 C113.375 81.875 113.375 81.875 117.1875 81.9375 C118.445625 81.958125 119.70375 81.97875 121 82 C121.1875 84.375 121.1875 84.375 121 87 C117.13209648 89.57860235 114.23386085 89.01114505 109.8125 88.625 C109.06291016 88.56828125 108.31332031 88.5115625 107.54101562 88.453125 C105.69323441 88.31189331 103.846488 88.15723833 102 88 C102 89.32 102 90.64 102 92 C102.9590625 92.37125 102.9590625 92.37125 103.9375 92.75 C106 94 106 94 107.0625 95.8125 C107 98 107 98 104.875 100.5625 C102.33745715 102.71389502 99.91594136 104.41706041 97 106 C97.66 106.66 98.32 107.32 99 108 C99.04384447 109.66608987 99.0396713 111.33380554 99 113 C99.2475 113.66 99.495 114.32 99.75 115 C99.8325 115.66 99.915 116.32 100 117 C98.68678142 118.6825613 97.35386936 120.34997172 96 122 C96.33 122.99 96.66 123.98 97 125 C98.175625 125.4640625 98.175625 125.4640625 99.375 125.9375 C102.43417548 127.17573769 103.43601275 128.11897085 105 131 C105.1875 133.75 105.1875 133.75 105 136 C99.78020872 136.1799928 95.92737019 135.97094808 91 134 C91.804375 134.804375 92.60875 135.60875 93.4375 136.4375 C97 140 97 140 97.0625 142.5625 C97.041875 143.366875 97.02125 144.17125 97 145 C93 145 93 145 90 143 C90 142.34 90 141.68 90 141 C89.34 141.33 88.68 141.66 88 142 C88.66708984 143.12148438 88.66708984 143.12148438 89.34765625 144.265625 C89.91355469 145.25046875 90.47945312 146.2353125 91.0625 147.25 C91.63097656 148.22453125 92.19945312 149.1990625 92.78515625 150.203125 C94 153 94 153 93.87109375 155.296875 C93 157 93 157 90 158 C87.49609129 157.15113701 86.30275458 156.47620772 84.875 154.23046875 C84.441875 153.21919922 84.441875 153.21919922 84 152.1875 C82.39757861 148.69651054 80.54501148 145.90858454 78 143 C77.67 146.3 77.34 149.6 77 153 C75.02 153 73.04 153 71 153 C71.71799279 164.12888824 75.29972697 171.692426 82.29296875 180.359375 C84.2244734 183.34724032 84.75815781 185.46910397 85 189 C83.9375 191.875 83.9375 191.875 82 194 C79.0625 194.6875 79.0625 194.6875 76 194 C72.40358405 190.40358405 71.71412373 186.98620107 70.75 182.0625 C69.58672993 176.508205 67.74918423 171.86058591 65.125 166.875 C64.79725586 166.23570557 64.46951172 165.59641113 64.13183594 164.93774414 C61.9965927 161.04661296 60.06722627 158.82006733 56 157 C53.29046449 156.74803871 53.29046449 156.74803871 51 157 C49.96472495 161.57019445 50.16151845 164.59127931 51.5 169.0625 C52.72830402 173.17625958 53.16233345 175.83242283 52 180 C49.1875 181.125 49.1875 181.125 46 182 C44.515 181.01 44.515 181.01 43 180 C42.85315853 177.2158857 42.83190939 174.5302175 42.875 171.75 C42.80435502 165.71048842 42.80435502 165.71048842 40.1171875 160.47265625 C37.67834468 158.76224668 35.91787956 157.62593223 33 157 C30.39085893 157.83423061 30.39085893 157.83423061 28 159 C27.01 159 26.02 159 25 159 C21.89632027 163.70557894 20.60831668 167.08634588 20.2109375 172.6875 C19.99976118 175.00261818 19.55571843 177.11991073 19 179.375 C17.94722967 183.7718643 17.60058649 188.10970703 17.34375 192.6171875 C17 195 17 195 15 198 C12 198.375 12 198.375 9 198 C6.81275865 194.71913798 6.78992775 194.21028535 7.171875 190.5078125 C7.25953125 189.63769531 7.3471875 188.76757812 7.4375 187.87109375 C7.540625 186.96488281 7.64375 186.05867187 7.75 185.125 C7.83765625 184.22652344 7.9253125 183.32804688 8.015625 182.40234375 C8.49501074 177.89478618 9.2031686 174.1875308 11 170 C11.32059199 166.09946406 11.16369075 162.3957842 8.58984375 159.30859375 C6.78488869 157.760018 6.78488869 157.760018 4 156 C3.93941406 156.61488281 3.87882812 157.22976562 3.81640625 157.86328125 C3.69072266 159.07564453 3.69072266 159.07564453 3.5625 160.3125 C3.44068359 161.51326172 3.44068359 161.51326172 3.31640625 162.73828125 C3 165 3 165 2 168 C0.02 168 -1.96 168 -4 168 C-6.46616467 163.6479447 -5.88637032 160.15004567 -5.19140625 155.40234375 C-4.99895419 152.98687397 -5.27408002 151.29433102 -6 149 C-6.53625 149.66 -7.0725 150.32 -7.625 151 C-10 153 -10 153 -13.0625 153.4375 C-16.32365591 152.95179593 -16.89263037 152.35750253 -19 150 C-19.42667969 150.49628906 -19.85335937 150.99257812 -20.29296875 151.50390625 C-25.28109115 156.92398976 -30.41414796 160.09467018 -37.046875 163.26171875 C-43.72828997 167.19456222 -45.25090505 173.01146693 -47.55859375 180.0390625 C-49.23643031 183.48567528 -50.51633312 184.49703124 -54 186 C-57.16714007 185.8733144 -59.193838 185.51056927 -61.875 183.8125 C-63.60204255 181.03004256 -63.44201941 179.2204271 -63 176 C-60.58999909 171.62629465 -57.54846322 168.46781633 -54 165 C-51.97182257 162.67629971 -49.96068494 160.33981691 -47.96484375 157.98828125 C-46.02792634 156.02825946 -44.46919743 155.14041283 -42 154 C-41.2575 153.236875 -40.515 152.47375 -39.75 151.6875 C-36.93029432 148.93187854 -34.19386994 147.20081914 -30.76953125 145.30859375 C-28.6920322 143.77225339 -27.97440197 142.36354939 -27 140 C-27.66 139.67 -28.32 139.34 -29 139 C-29.625 136.9375 -29.625 136.9375 -30 135 C-30.66 135 -31.32 135 -32 135 C-32.79953138 131.71303767 -33.09658936 130.28976808 -32 127 C-34.64911516 126.21090187 -36.28687827 125.77515566 -39 126 C-41.21815918 127.2548531 -41.21815918 127.2548531 -43.375 128.9375 C-47.35585802 131.85679588 -50.10770692 132.83816233 -55.04296875 132.44921875 C-57 132 -57 132 -59.625 130.4375 C-61 128 -61 128 -61.0625 124.5 C-59.7806409 120.27740531 -58.84152444 119.12509863 -55 117 C-49.35127227 115.79617278 -44.675213 116.0879122 -39 117 C-38.71125 116.38125 -38.4225 115.7625 -38.125 115.125 C-37 113 -37 113 -35 111 C-37.32558438 109.97674287 -39.65722106 108.98214659 -42 108 C-42.886875 107.608125 -43.77375 107.21625 -44.6875 106.8125 C-51.71377995 105.08907284 -58.93986226 105.73279579 -66 107 C-66.99 106.67 -67.98 106.34 -69 106 C-69.3125 102.6875 -69.3125 102.6875 -69 99 C-66.9375 96.9375 -66.9375 96.9375 -64 96 C-61.64315944 96.57809297 -59.30988315 97.25613932 -57 98 C-53.52001135 98.3584258 -50.20076634 98.60038317 -47 97 C-44.70961976 95.85480988 -43.46931463 95.92648088 -40.9375 96 C-36.94510779 96.364022 -36.94510779 96.364022 -34 94 C-34.33 90.37 -34.66 86.74 -35 83 C-34.01 82.67 -33.02 82.34 -32 82 C-32.66 81.01 -33.32 80.02 -34 79 C-34.22497818 76.97519638 -34.44817247 74.95002857 -34.640625 72.921875 C-34.88559604 70.80539962 -34.88559604 70.80539962 -36.6875 68.8125 C-37.120625 68.214375 -37.55375 67.61625 -38 67 C-37.34 65.35 -36.68 63.7 -36 62 C-32.04 62 -28.08 62 -24 62 C-23.82968021 56.07926218 -23.82968021 56.07926218 -26.671875 51.20703125 C-28.72893688 49.70290142 -30.83738183 48.34645768 -33 47 C-33.78375 46.29875 -34.5675 45.5975 -35.375 44.875 C-37.94655447 43.03817538 -40.04911576 42.18697014 -43 41.125 C-47.92340625 39.24100598 -50.33722347 37.59099401 -53 33 C-53 29.72753458 -52.7551598 27.92668577 -50.67578125 25.375 C-48.24157557 23.37770303 -45.89000809 23.16788976 -42.80859375 23.25390625 C-34.14845167 25.55444469 -26.23648458 32.97208648 -21 40 C-21 40.66 -21 41.32 -21 42 C-20.071875 41.938125 -19.14375 41.87625 -18.1875 41.8125 C-15 42 -15 42 -13.1875 43.125 C-11.57771731 45.66676215 -11.32890991 48.0398108 -11 51 C-8.03 51.495 -8.03 51.495 -5 52 C-5.495 48.04 -5.495 48.04 -6 44 C-1.25 43 -1.25 43 1 43 C-0.8916289 37.6700574 -2.85470186 32.99138329 -6.25 28.4375 C-9.54087887 23.80711767 -9.53131022 20.57875731 -9 15 C-6.8125 14.25 -6.8125 14.25 -4 14 C0.57253638 16.61287793 2.50355941 20.0912936 4 25 C4.51313748 27.38821126 4.98269027 29.76861726 5.375 32.1796875 C5.58125 32.78039063 5.7875 33.38109375 6 34 C7.485 34.495 7.485 34.495 9 35 C8.6120095 29.56813301 7.6386131 25.78133238 5.04296875 21.01171875 C3.66974227 18.36298602 2.72323299 15.62076126 1.73046875 12.8125 C0.97792198 10.77716965 0.97792198 10.77716965 -0.75 8.3125 C-2 6 -2 6 -1.75 3.25 C-1 1 -1 1 0 0 Z M36 35 C35.34 35.66 34.68 36.32 34 37 C34 37.99 34 38.98 34 40 C34.99 40 35.98 40 37 40 C37.33 38.35 37.66 36.7 38 35 C37.34 35 36.68 35 36 35 Z M56 41 C55.67 42.32 55.34 43.64 55 45 C55.99 45.33 56.98 45.66 58 46 C58 44.35 58 42.7 58 41 C57.34 41 56.68 41 56 41 Z M12.8046875 52.44140625 C8.89985335 57.97748064 6.55192922 63.97654839 7 70.8125 C7.71930054 74.90810917 9.33059239 77.78100847 12 81 C16.25778219 83.83852146 20.0036077 83.51245049 25 83 C30.18254008 80.85938562 33.07599933 76.9451335 35.44921875 71.94921875 C38.88930478 62.88779341 41.25393 56.40546149 37.984375 46.98046875 C36.89704828 44.79287095 35.927453 43.50118936 34 42 C24.34173267 40.87320214 18.82499089 45.30840087 12.8046875 52.44140625 Z M47 53 C41.72111829 61.43364197 37.90001639 70.9168169 39 81 C40.45444253 85.37985534 42.34178841 88.3724029 45.6875 91.5625 C50.15610541 93.50170612 53.37994092 93.51055845 58 92 C62.35098312 89.48498085 65.84957099 85.99181001 67.56640625 81.171875 C69.51960502 71.38828477 68.31472128 60.93632915 62.9375 52.4375 C61.23227072 49.94034271 61.23227072 49.94034271 59 49 C54.00011211 48.43183092 50.42178455 49.26954932 47 53 Z M-3 62 C-3.66 62.66 -4.32 63.32 -5 64 C-4.6814823 66.10820797 -4.6814823 66.10820797 -4 68 C-2.62437146 66.71034824 -1.29233607 65.37310707 0 64 C0 63.34 0 62.68 0 62 C-0.99 62 -1.98 62 -3 62 Z M-15.953125 79.609375 C-19.18270219 83.0270829 -20.9754389 86.19732695 -21.234375 90.94140625 C-20.79445312 94.80538678 -19.31277156 97.90147913 -17 101 C-12.80761134 103.95933317 -6.95032238 103.64156178 -2 103 C1.48313228 101.32063265 3.32458734 100.07452014 5.375 96.8125 C6.93453379 89.79459795 6.40397911 83.38967265 3 77 C1.16658535 74.49479421 1.16658535 74.49479421 -1 73 C-6.56053815 73 -11.72137163 76.12241022 -15.953125 79.609375 Z M74 84 C74 85.98 74 87.96 74 90 C74.99 89.67 75.98 89.34 77 89 C77 87.35 77 85.7 77 84 C76.01 84 75.02 84 74 84 Z M9 102 C9 102.66 9 103.32 9 104 C8.28714844 104.08636719 7.57429688 104.17273438 6.83984375 104.26171875 C0.53528963 105.18661296 -4.54506255 106.21731511 -9 111 C-12.63136666 116.08613434 -14.24681941 121.76220033 -14 128 C-13.12378569 131.56327151 -12.4209775 133.91821501 -9.43310547 136.19287109 C-3.51493243 139.40040704 1.34234236 139.23255943 7.9375 138.8125 C19.76836165 138.4111236 19.76836165 138.4111236 24.5 142.25 C25.69409587 143.4738244 26.86437337 144.72173427 28 146 C33.74742854 150.35567455 38.82522338 151.90947873 46 151 C50.34647117 148.4488104 53.09883277 144.9996895 54.55859375 140.140625 C55.93191221 133.48063814 55.53720925 127.63167153 52.1484375 121.6953125 C50.6476147 119.47981217 49.0914097 117.67312776 47 116 C46.34 116 45.68 116 45 116 C45.0825 115.030625 45.165 114.06125 45.25 113.0625 C45.23488 105.59321939 41.0594172 99.18590263 36 94 C25.86748941 87.90793268 15.82725244 94.1486597 9 102 Z M58.2109375 98.5078125 C54.21491191 102.74005635 52.14518717 107.13029018 52 113 C52.74574568 116.9417986 54.24429482 119.43322112 57.5 121.875 C61.98402044 123.8928092 66.10787397 124.8230609 71 124 C74.27788255 122.2714011 76.44081709 119.87524282 78.4375 116.75 C79.91108157 109.54582343 77.91381245 103.08357514 74 97 C72.04283243 94.5366901 72.04283243 94.5366901 70 93 C65.61566486 93 61.47824343 95.75414418 58.2109375 98.5078125 Z " fill="#FED10B" transform="translate(74,2)"/>
<path d="M0 0 C3.16115776 1.36983503 3.9927092 1.9890638 6 5 C6.45703125 6.83984375 6.45703125 6.83984375 6.8125 8.9375 C9.02754264 19.33636431 13.16513962 27.71859554 21 35 C21.66 35.33 22.32 35.66 23 36 C23.33 35.01 23.66 34.02 24 33 C25.65 33 27.3 33 29 33 C30.17663659 26.18531308 29.72684787 19.97813708 29 13.125 C28.78643672 11.06563982 28.57784162 9.00575636 28.375 6.9453125 C28.27960938 6.04312988 28.18421875 5.14094727 28.0859375 4.21142578 C28 2 28 2 29 0 C31.31 0 33.62 0 36 0 C36.91511773 3.70054908 36.94994997 6.60984125 36.4375 10.375 C35.91950542 15.24021488 36.2908746 18.44233227 38 23 C38.495 24.485 38.495 24.485 39 26 C41.33165034 26.33498301 41.33165034 26.33498301 44 26 C44.60328125 25.38382813 45.2065625 24.76765625 45.828125 24.1328125 C48.2820559 21.72301705 50.28536627 20.79957771 53.5 19.625 C54.4384375 19.26664063 55.376875 18.90828125 56.34375 18.5390625 C59 18 59 18 61.34375 18.8984375 C61.8903125 19.26195313 62.436875 19.62546875 63 20 C63.47109092 25.88863652 62.32730115 28.24671264 59 33 C58.52501105 34.44655724 58.08980982 35.90656915 57.6875 37.375 C56.09766557 42.57729156 53.0570734 46.41217847 49 50 C48.34 50 47.68 50 47 50 C47 50.66 47 51.32 47 52 C45.25 53.5078125 45.25 53.5078125 43 55.125 C42.2575 55.66382813 41.515 56.20265625 40.75 56.7578125 C40.1725 57.16773438 39.595 57.57765625 39 58 C38.97421875 57.41992188 38.9484375 56.83984375 38.921875 56.2421875 C38.53359838 50.89455949 37.95103979 46.95103979 34 43 C28.79711977 42.14706882 25.25851419 42.65152723 20.7265625 45.62109375 C13.98849857 51.0023982 9.65462751 57.46073354 8 66 C8.15630738 68.93552887 8.53701341 71.76595566 8.96875 74.671875 C9 77 9 77 6.5625 79.6875 C5.716875 80.120625 4.87125 80.55375 4 81 C3.4225 80.030625 2.845 79.06125 2.25 78.0625 C0.37998259 74.98922591 0.37998259 74.98922591 -1.83203125 74.1796875 C-6.84613705 73.76410396 -11.94244925 77.34278718 -15.7265625 80.390625 C-18.71899742 83.57555573 -19.85547716 86.72289994 -20.1328125 90.97265625 C-19.89388159 94.61986631 -18.8936119 96.84398017 -17 100 C-13.11067918 102.44471594 -8.49570739 102.54280942 -4 103 C-4 103.66 -4 104.32 -4 105 C-4.79664062 105.35191406 -5.59328125 105.70382813 -6.4140625 106.06640625 C-13.17254338 109.2154308 -17.62984819 111.93034471 -22 118 C-22.99 117.67 -23.98 117.34 -25 117 C-25.53625 117.61875 -26.0725 118.2375 -26.625 118.875 C-29 121 -29 121 -31.625 121.8125 C-36.70609229 123.60029173 -40.67648166 126.84479901 -45 130 C-49.026761 132.68450733 -52.27163759 132.67304618 -57 132 C-59.625 130.4375 -59.625 130.4375 -61 128 C-61.07433579 123.83719577 -60.68467649 121.78841535 -57.9375 118.625 C-51.73193977 115.19213689 -45.73590851 115.91744328 -39 117 C-38.71125 116.38125 -38.4225 115.7625 -38.125 115.125 C-37 113 -37 113 -35 111 C-37.32558438 109.97674287 -39.65722106 108.98214659 -42 108 C-42.886875 107.608125 -43.77375 107.21625 -44.6875 106.8125 C-51.71377995 105.08907284 -58.93986226 105.73279579 -66 107 C-66.99 106.67 -67.98 106.34 -69 106 C-69.3125 102.6875 -69.3125 102.6875 -69 99 C-66.9375 96.9375 -66.9375 96.9375 -64 96 C-61.64315944 96.57809297 -59.30988315 97.25613932 -57 98 C-53.52001135 98.3584258 -50.20076634 98.60038317 -47 97 C-44.70961976 95.85480988 -43.46931463 95.92648088 -40.9375 96 C-36.94510779 96.364022 -36.94510779 96.364022 -34 94 C-34.33 90.37 -34.66 86.74 -35 83 C-34.01 82.67 -33.02 82.34 -32 82 C-32.66 81.01 -33.32 80.02 -34 79 C-34.22497818 76.97519638 -34.44817247 74.95002857 -34.640625 72.921875 C-34.88559604 70.80539962 -34.88559604 70.80539962 -36.6875 68.8125 C-37.120625 68.214375 -37.55375 67.61625 -38 67 C-37.34 65.35 -36.68 63.7 -36 62 C-32.04 62 -28.08 62 -24 62 C-23.82968021 56.07926218 -23.82968021 56.07926218 -26.671875 51.20703125 C-28.72893688 49.70290142 -30.83738183 48.34645768 -33 47 C-33.78375 46.29875 -34.5675 45.5975 -35.375 44.875 C-37.94655447 43.03817538 -40.04911576 42.18697014 -43 41.125 C-47.92340625 39.24100598 -50.33722347 37.59099401 -53 33 C-53 29.72753458 -52.7551598 27.92668577 -50.67578125 25.375 C-48.24157557 23.37770303 -45.89000809 23.16788976 -42.80859375 23.25390625 C-34.14845167 25.55444469 -26.23648458 32.97208648 -21 40 C-21 40.66 -21 41.32 -21 42 C-20.071875 41.938125 -19.14375 41.87625 -18.1875 41.8125 C-15 42 -15 42 -13.1875 43.125 C-11.57771731 45.66676215 -11.32890991 48.0398108 -11 51 C-8.03 51.495 -8.03 51.495 -5 52 C-5.495 48.04 -5.495 48.04 -6 44 C-1.25 43 -1.25 43 1 43 C-0.8916289 37.6700574 -2.85470186 32.99138329 -6.25 28.4375 C-9.54087887 23.80711767 -9.53131022 20.57875731 -9 15 C-6.8125 14.25 -6.8125 14.25 -4 14 C0.57253638 16.61287793 2.50355941 20.0912936 4 25 C4.51313748 27.38821126 4.98269027 29.76861726 5.375 32.1796875 C5.58125 32.78039063 5.7875 33.38109375 6 34 C7.485 34.495 7.485 34.495 9 35 C8.6120095 29.56813301 7.6386131 25.78133238 5.04296875 21.01171875 C3.66974227 18.36298602 2.72323299 15.62076126 1.73046875 12.8125 C0.97792198 10.77716965 0.97792198 10.77716965 -0.75 8.3125 C-2 6 -2 6 -1.75 3.25 C-1 1 -1 1 0 0 Z M36 35 C35.34 35.66 34.68 36.32 34 37 C34 37.99 34 38.98 34 40 C34.99 40 35.98 40 37 40 C37.33 38.35 37.66 36.7 38 35 C37.34 35 36.68 35 36 35 Z M-3 62 C-3.66 62.66 -4.32 63.32 -5 64 C-4.6814823 66.10820797 -4.6814823 66.10820797 -4 68 C-2.62437146 66.71034824 -1.29233607 65.37310707 0 64 C0 63.34 0 62.68 0 62 C-0.99 62 -1.98 62 -3 62 Z M-22 112 C-22.66 113.32 -23.32 114.64 -24 116 C-23.01 115.34 -22.02 114.68 -21 114 C-21.33 113.34 -21.66 112.68 -22 112 Z " fill="#FE6C07" transform="translate(74,2)"/>
<path d="M0 0 C0.99 0.99 0.99 0.99 2 2 C1.91015625 4.41796875 1.91015625 4.41796875 1 7 C-1.06640625 8.80078125 -1.06640625 8.80078125 -3.5625 10.3125 C-4.38878906 10.82425781 -5.21507812 11.33601563 -6.06640625 11.86328125 C-6.70449219 12.23839844 -7.34257812 12.61351563 -8 13 C-7.01 13.99 -7.01 13.99 -6 15 C-5.95615553 16.66608987 -5.9603287 18.33380554 -6 20 C-5.7525 20.66 -5.505 21.32 -5.25 22 C-5.1675 22.66 -5.085 23.32 -5 24 C-6.31321858 25.6825613 -7.64613064 27.34997172 -9 29 C-8.505 30.485 -8.505 30.485 -8 32 C-7.21625 32.309375 -6.4325 32.61875 -5.625 32.9375 C-2.56582452 34.17573769 -1.56398725 35.11897085 0 38 C0.1875 40.75 0.1875 40.75 0 43 C-5.21979128 43.1799928 -9.07262981 42.97094808 -14 41 C-13.195625 41.804375 -12.39125 42.60875 -11.5625 43.4375 C-8 47 -8 47 -7.9375 49.5625 C-7.958125 50.366875 -7.97875 51.17125 -8 52 C-12 52 -12 52 -15 50 C-15 49.34 -15 48.68 -15 48 C-15.99 48.495 -15.99 48.495 -17 49 C-16.55527344 49.74765625 -16.11054688 50.4953125 -15.65234375 51.265625 C-15.08644531 52.25046875 -14.52054687 53.2353125 -13.9375 54.25 C-13.36902344 55.22453125 -12.80054688 56.1990625 -12.21484375 57.203125 C-11 60 -11 60 -11.12890625 62.296875 C-12 64 -12 64 -15 65 C-17.50390871 64.15113701 -18.69724542 63.47620772 -20.125 61.23046875 C-20.41375 60.55628906 -20.7025 59.88210937 -21 59.1875 C-22.60242139 55.69651054 -24.45498852 52.90858454 -27 50 C-27.495 54.95 -27.495 54.95 -28 60 C-29.98 60 -31.96 60 -34 60 C-33.28200721 71.12888824 -29.70027303 78.692426 -22.70703125 87.359375 C-20.7755266 90.34724032 -20.24184219 92.46910397 -20 96 C-21.0625 98.875 -21.0625 98.875 -23 101 C-25.9375 101.6875 -25.9375 101.6875 -29 101 C-32.59641595 97.40358405 -33.28587627 93.98620107 -34.25 89.0625 C-35.41327007 83.508205 -37.25081577 78.86058591 -39.875 73.875 C-40.20274414 73.23570557 -40.53048828 72.59641113 -40.86816406 71.93774414 C-43.0034073 68.04661296 -44.93277373 65.82006733 -49 64 C-51.70953551 63.74803871 -51.70953551 63.74803871 -54 64 C-55.03527505 68.57019445 -54.83848155 71.59127931 -53.5 76.0625 C-52.27169598 80.17625958 -51.83766655 82.83242283 -53 87 C-55.8125 88.125 -55.8125 88.125 -59 89 C-59.99 88.34 -60.98 87.68 -62 87 C-62.14684147 84.2158857 -62.16809061 81.5302175 -62.125 78.75 C-62.19564498 72.71048842 -62.19564498 72.71048842 -64.8828125 67.47265625 C-67.32165532 65.76224668 -69.08212044 64.62593223 -72 64 C-74.60914107 64.83423061 -74.60914107 64.83423061 -77 66 C-77.99 66 -78.98 66 -80 66 C-83.10367973 70.70557894 -84.39168332 74.08634588 -84.7890625 79.6875 C-85.00023882 82.00261818 -85.44428157 84.11991073 -86 86.375 C-87.05277033 90.7718643 -87.39941351 95.10970703 -87.65625 99.6171875 C-88 102 -88 102 -90 105 C-93 105.375 -93 105.375 -96 105 C-98.18724135 101.71913798 -98.21007225 101.21028535 -97.828125 97.5078125 C-97.74046875 96.63769531 -97.6528125 95.76757812 -97.5625 94.87109375 C-97.459375 93.96488281 -97.35625 93.05867188 -97.25 92.125 C-97.16234375 91.22652344 -97.0746875 90.32804687 -96.984375 89.40234375 C-96.50376446 84.88326967 -95.75549116 81.21013898 -94 77 C-93.93070984 74.58615664 -93.93070984 74.58615664 -94.3125 72.25 C-94.41175781 71.47140625 -94.51101562 70.6928125 -94.61328125 69.890625 C-94.81980821 67.99650461 -94.81980821 67.99650461 -96 67 C-96.16796875 65.00390625 -96.16796875 65.00390625 -96.1875 62.5625 C-96.20167969 61.75941406 -96.21585937 60.95632812 -96.23046875 60.12890625 C-96 58 -96 58 -94 56 C-93.30959426 54.34302621 -92.6469365 52.6744239 -92 51 C-91.01517978 48.99248185 -90.01847486 46.99065541 -89 45 C-85.70677379 45.60741728 -83.73644951 46.74116957 -81.125 48.8125 C-74.67668738 53.80784087 -69.66476416 57.46324331 -61.21875 57.33984375 C-58.72105644 57.12878343 -58.72105644 57.12878343 -56.125 54.9375 C-51.51985333 48.57156195 -49.88555953 42.75262934 -51 35 C-52.27377961 31.30354153 -53.8151661 28.13453435 -56.65625 25.4140625 C-57.0996875 24.94742188 -57.543125 24.48078125 -58 24 C-57.6875 21.8125 -57.6875 21.8125 -57 20 C-55.35 20 -53.7 20 -52 20 C-51.649375 21.093125 -51.29875 22.18625 -50.9375 23.3125 C-49.54834352 26.5192444 -49.0036755 26.99776587 -45.8125 28.9375 C-41.37435904 30.17435895 -38.5808866 30.51719687 -34 30 C-31.03212957 28.2579891 -29.48230906 26.74538673 -27.625 23.875 C-26.96593501 20.84330106 -27.25092913 19.08868426 -27.75 16.0625 C-28.32466875 11.59211171 -28.32466875 11.59211171 -26.9140625 9.01953125 C-24.39880973 6.33191345 -22.82430233 5.1075177 -19.125 4.625 C-18.42375 4.74875 -17.7225 4.8725 -17 5 C-17 4.34 -17 3.68 -17 3 C-14.92085336 2.29994051 -12.83648414 1.61537756 -10.75 0.9375 C-9.58984375 0.55464844 -8.4296875 0.17179687 -7.234375 -0.22265625 C-4.17818406 -0.95717557 -2.82580441 -1.23790973 0 0 Z " fill="#25DEC7" transform="translate(179,95)"/>
<path d="M0 0 C3.875 0.875 3.875 0.875 5 2 C7.0279979 2.2253331 9.05674874 2.44767185 11.08984375 2.62109375 C13 3 13 3 15 5 C14.69253971 8.89449703 13.38362882 10.99455496 11 14 C11 14.66 11 15.32 11 16 C12.65 16.33 14.3 16.66 16 17 C16.625 18.875 16.625 18.875 17 21 C16.34 21.66 15.68 22.32 15 23 C15.99 23.99 15.99 23.99 17 25 C17.61488281 24.79503906 18.22976562 24.59007813 18.86328125 24.37890625 C29.375 20.875 29.375 20.875 33.1875 20.9375 C35.0746875 20.9684375 35.0746875 20.9684375 37 21 C37.1875 23.375 37.1875 23.375 37 26 C33.13209648 28.57860235 30.23386085 28.01114505 25.8125 27.625 C25.06291016 27.56828125 24.31332031 27.5115625 23.54101562 27.453125 C21.69323441 27.31189331 19.846488 27.15723833 18 27 C17.505 29.475 17.505 29.475 17 32 C12.71 32.99 8.42 33.98 4 35 C4 35.66 4 36.32 4 37 C3.113125 37.2475 2.22625 37.495 1.3125 37.75 C-2.10427135 39.03934768 -4.2797748 40.59980129 -7 43 C-7.31453125 42.44570312 -7.6290625 41.89140625 -7.953125 41.3203125 C-8.59507812 40.23363281 -8.59507812 40.23363281 -9.25 39.125 C-9.66765625 38.40570313 -10.0853125 37.68640625 -10.515625 36.9453125 C-12.21164839 34.72262922 -13.33438032 33.8333199 -16 33 C-21.72139602 34.36494537 -25.83100765 38.20124016 -29 43 C-29.83333761 45.36636436 -30.53679189 47.70665351 -31.12890625 50.14453125 C-31.56009766 51.06298828 -31.56009766 51.06298828 -32 52 C-34.02734375 52.63671875 -34.02734375 52.63671875 -36 53 C-36.33 53.66 -36.66 54.32 -37 55 C-37.66 55 -38.32 55 -39 55 C-39.09796875 54.3709375 -39.1959375 53.741875 -39.296875 53.09375 C-40.57015385 45.80532624 -42.1475334 39.59315145 -47.75 34.5 C-48.4925 34.005 -49.235 33.51 -50 33 C-49.45925627 29.21479387 -47.92427254 27.40822445 -45 25 C-42 25 -42 25 -39.4375 27.4375 C-38.633125 28.283125 -37.82875 29.12875 -37 30 C-33.47247307 31.76376347 -29.73685706 30.90590474 -26 30 C-20.80825186 26.73112154 -19.27764333 23.54556637 -17 18 C-14.5 15.3125 -14.5 15.3125 -12 13 C-10.9739266 11.68662604 -9.97272675 10.35335895 -9 9 C-5.37113402 4.12371134 -5.37113402 4.12371134 -2 3 C-1.34 2.01 -0.68 1.02 0 0 Z M-10 23 C-10 24.98 -10 26.96 -10 29 C-9.01 28.67 -8.02 28.34 -7 28 C-7 26.35 -7 24.7 -7 23 C-7.99 23 -8.98 23 -10 23 Z " fill="#88ED0A" transform="translate(158,63)"/>
<path d="M0 0 C2 3 2 3 2.6875 5 C4.69895044 8.06506734 7.59222445 9.0259049 11 10 C14.32574669 10.33874943 17.59915399 10.28650798 20.9375 10.1875 C21.81212891 10.17396484 22.68675781 10.16042969 23.58789062 10.14648438 C25.72553086 10.11144109 27.86284984 10.05764541 30 10 C26.65909091 20.34090909 26.65909091 20.34090909 24 23 C23.76924918 24.34747084 23.58846937 25.70377565 23.4375 27.0625 C23.293125 28.361875 23.14875 29.66125 23 31 C21.35 30.01 19.7 29.02 18 28 C17.93941406 28.61488281 17.87882812 29.22976562 17.81640625 29.86328125 C17.69072266 31.07564453 17.69072266 31.07564453 17.5625 32.3125 C17.44068359 33.51326172 17.44068359 33.51326172 17.31640625 34.73828125 C17 37 17 37 16 40 C14.02 40 12.04 40 10 40 C7.53383533 35.6479447 8.11362968 32.15004567 8.80859375 27.40234375 C9.00104581 24.98687397 8.72591998 23.29433102 8 21 C7.46375 21.66 6.9275 22.32 6.375 23 C4 25 4 25 0.9375 25.4375 C-2.32365591 24.95179593 -2.89263037 24.35750253 -5 22 C-5.42667969 22.49628906 -5.85335937 22.99257812 -6.29296875 23.50390625 C-11.28109115 28.92398976 -16.41414796 32.09467018 -23.046875 35.26171875 C-29.72828997 39.19456222 -31.25090505 45.01146693 -33.55859375 52.0390625 C-35.23643031 55.48567528 -36.51633312 56.49703124 -40 58 C-43.16714007 57.8733144 -45.193838 57.51056927 -47.875 55.8125 C-49.60204255 53.03004256 -49.44201941 51.2204271 -49 48 C-46.58999909 43.62629465 -43.54846322 40.46781633 -40 37 C-37.97182257 34.67629971 -35.96068494 32.33981691 -33.96484375 29.98828125 C-32.02792634 28.02825946 -30.46919743 27.14041283 -28 26 C-27.2575 25.236875 -26.515 24.47375 -25.75 23.6875 C-23.46813156 21.4574922 -21.82028587 20.22766335 -19.125 18.6875 C-15.11543931 16.30894705 -12.5342795 13.36395679 -9.59765625 9.78515625 C-7.66614381 7.62696264 -5.48644471 6.45042608 -3 5 C-1.19203897 2.43389334 -1.19203897 2.43389334 0 0 Z " fill="#FBDF0D" transform="translate(60,130)"/>
<path d="M0 0 C6.41459227 1.45236052 6.41459227 1.45236052 8.9375 3.8125 C10.18689961 6.38479331 10.23546771 8.17438742 10 11 C4.78020872 11.1799928 0.92737019 10.97094808 -4 9 C-3.195625 9.804375 -2.39125 10.60875 -1.5625 11.4375 C2 15 2 15 2.0625 17.5625 C2.041875 18.366875 2.02125 19.17125 2 20 C-2 20 -2 20 -5 18 C-5 17.34 -5 16.68 -5 16 C-5.99 16.495 -5.99 16.495 -7 17 C-6.55527344 17.74765625 -6.11054688 18.4953125 -5.65234375 19.265625 C-5.08644531 20.25046875 -4.52054688 21.2353125 -3.9375 22.25 C-3.36902344 23.22453125 -2.80054688 24.1990625 -2.21484375 25.203125 C-1 28 -1 28 -1.12890625 30.296875 C-2 32 -2 32 -5 33 C-7.50390871 32.15113701 -8.69724542 31.47620772 -10.125 29.23046875 C-10.41375 28.55628906 -10.7025 27.88210937 -11 27.1875 C-12.60242139 23.69651054 -14.45498852 20.90858454 -17 18 C-17.33 21.3 -17.66 24.6 -18 28 C-19.98 28 -21.96 28 -24 28 C-23.28200721 39.12888824 -19.70027303 46.692426 -12.70703125 55.359375 C-10.7755266 58.34724032 -10.24184219 60.46910397 -10 64 C-11.0625 66.875 -11.0625 66.875 -13 69 C-15.9375 69.6875 -15.9375 69.6875 -19 69 C-22.59641595 65.40358405 -23.28587627 61.98620107 -24.25 57.0625 C-25.41327007 51.508205 -27.25081577 46.86058591 -29.875 41.875 C-30.20274414 41.23570557 -30.53048828 40.59641113 -30.86816406 39.93774414 C-33.0034073 36.04661296 -34.93277373 33.82006733 -39 32 C-41.70953551 31.74803871 -41.70953551 31.74803871 -44 32 C-45.03527505 36.57019445 -44.83848155 39.59127931 -43.5 44.0625 C-42.27169598 48.17625958 -41.83766655 50.83242283 -43 55 C-45.8125 56.125 -45.8125 56.125 -49 57 C-49.99 56.34 -50.98 55.68 -52 55 C-54.87801299 40.10554103 -54.87801299 40.10554103 -51.6015625 34.6875 C-49.75 33.25 -49.75 33.25 -47.78515625 32.09375 C-45.03225869 30.40707316 -44.24495081 27.88304398 -43 25 C-40.42942689 22.42942689 -39.37039484 22.80888929 -35.8125 22.75 C-30.70599383 22.37471871 -28.05848373 21.22059613 -24.33984375 17.765625 C-22.85906701 15.99013922 -22.85906701 15.99013922 -22.0625 13.48828125 C-19.83212038 8.26492897 -14.03341495 5.83557754 -8.99609375 3.765625 C-7.06889014 3.07213322 -5.13299309 2.40211023 -3.1875 1.76171875 C-1.05038857 1.19547164 -1.05038857 1.19547164 0 0 Z " fill="#8A3FDE" transform="translate(169,127)"/>
<path d="M0 0 C3.29322621 0.60741728 5.26355049 1.74116957 7.875 3.8125 C8.57882813 4.35003906 9.28265625 4.88757813 10.0078125 5.44140625 C11.60461067 6.69066599 13.18086684 7.96616378 14.75 9.25 C20.89909385 12.56105054 28.08100158 13.15234492 35 13 C33.73569073 17.94229987 32.03993846 20.82576264 28 24 C25.2023666 24 23.8326697 22.89796933 21.4375 21.4375 C18.28416631 19.57784167 16.19750495 19.996409 12.5625 20.0625 C8.76436926 20.68091815 8.76436926 20.68091815 6.625 24 C4.92999087 27.51929861 4.48518397 30.82193069 4.2109375 34.6875 C3.99976118 37.00261818 3.55571843 39.11991073 3 41.375 C1.94722967 45.7718643 1.60058649 50.10970703 1.34375 54.6171875 C1 57 1 57 -1 60 C-4 60.375 -4 60.375 -7 60 C-9.18724135 56.71913798 -9.21007225 56.21028535 -8.828125 52.5078125 C-8.74046875 51.63769531 -8.6528125 50.76757812 -8.5625 49.87109375 C-8.459375 48.96488281 -8.35625 48.05867188 -8.25 47.125 C-8.16234375 46.22652344 -8.0746875 45.32804687 -7.984375 44.40234375 C-7.50376446 39.88326967 -6.75549116 36.21013898 -5 32 C-4.93070984 29.58615664 -4.93070984 29.58615664 -5.3125 27.25 C-5.41175781 26.47140625 -5.51101562 25.6928125 -5.61328125 24.890625 C-5.81980821 22.99650461 -5.81980821 22.99650461 -7 22 C-7.16796875 20.00390625 -7.16796875 20.00390625 -7.1875 17.5625 C-7.20167969 16.75941406 -7.21585937 15.95632812 -7.23046875 15.12890625 C-7 13 -7 13 -5 11 C-4.30959426 9.34302621 -3.6469365 7.6744239 -3 6 C-2.01517978 3.99248185 -1.01847486 1.99065541 0 0 Z " fill="#1EE4CD" transform="translate(90,140)"/>
<path d="M0 0 C8.66014208 2.30053844 16.57210917 9.71818023 21.80859375 16.74609375 C21.80859375 17.40609375 21.80859375 18.06609375 21.80859375 18.74609375 C22.73671875 18.68421875 23.66484375 18.62234375 24.62109375 18.55859375 C27.80859375 18.74609375 27.80859375 18.74609375 29.62109375 19.93359375 C31.2399506 22.40448052 31.74556113 23.75414557 31.80859375 26.74609375 C29.90671742 29.12194866 28.14711559 31.02086615 25.93359375 33.05859375 C25.36511719 33.60837891 24.79664063 34.15816406 24.2109375 34.72460938 C20.00461471 38.74609375 20.00461471 38.74609375 18.80859375 38.74609375 C18.82921875 38.16601562 18.84984375 37.5859375 18.87109375 36.98828125 C18.74115646 32.01960922 18.74115646 32.01960922 16.13671875 27.953125 C14.07965687 26.44899517 11.97121192 25.09255143 9.80859375 23.74609375 C8.63296875 22.69421875 8.63296875 22.69421875 7.43359375 21.62109375 C4.86203928 19.78426913 2.75947799 18.93306389 -0.19140625 17.87109375 C-5.1148125 15.98709973 -7.52862972 14.33708776 -10.19140625 9.74609375 C-10.19140625 6.47362833 -9.94656605 4.67277952 -7.8671875 2.12109375 C-5.43298182 0.12379678 -3.08141434 -0.08601649 0 0 Z M6.80859375 38.74609375 C9.62890625 38.453125 9.62890625 38.453125 12.93359375 38.55859375 C14.57714844 38.59919922 14.57714844 38.59919922 16.25390625 38.640625 C17.09695312 38.67542969 17.94 38.71023437 18.80859375 38.74609375 C16.30287979 41.41885531 14.22106836 42.41439634 10.80859375 43.74609375 C9.44494092 44.70433628 8.10065206 45.6933055 6.80859375 46.74609375 C5.68359375 44.43359375 5.68359375 44.43359375 4.80859375 41.74609375 C5.46859375 40.75609375 6.12859375 39.76609375 6.80859375 38.74609375 Z " fill="#FE0D03" transform="translate(31.19140625,25.25390625)"/>
<path d="M0 0 C0.47109092 5.88863652 -0.67269885 8.24671264 -4 13 C-4.47498895 14.44655724 -4.91019018 15.90656915 -5.3125 17.375 C-6.90233443 22.57729156 -9.9429266 26.41217847 -14 30 C-14.66 30 -15.32 30 -16 30 C-16 30.66 -16 31.32 -16 32 C-17.75 33.5078125 -17.75 33.5078125 -20 35.125 C-20.7425 35.66382813 -21.485 36.20265625 -22.25 36.7578125 C-22.8275 37.16773438 -23.405 37.57765625 -24 38 C-24.02578125 37.41992188 -24.0515625 36.83984375 -24.078125 36.2421875 C-24.46818403 30.87001082 -25.08934268 27.01093058 -29 23 C-31.76881127 22.20588587 -34.08310083 22.09722997 -37 22 C-33.84554667 18.12452876 -30.68847454 14.38940904 -27 11 C-26.34 11 -25.68 11 -25 11 C-24.34 9.35 -23.68 7.7 -23 6 C-21.68 6 -20.36 6 -19 6 C-18.46375 5.4225 -17.9275 4.845 -17.375 4.25 C-12.36763503 -0.49381944 -6.39775952 -3.22749228 0 0 Z M-27 15 C-27.66 15.66 -28.32 16.32 -29 17 C-29 17.99 -29 18.98 -29 20 C-28.01 20 -27.02 20 -26 20 C-25.67 18.35 -25.34 16.7 -25 15 C-25.66 15 -26.32 15 -27 15 Z " fill="#FE9904" transform="translate(137,22)"/>
<path d="M0 0 C0.99 0.33 1.98 0.66 3 1 C3 1.66 3 2.32 3 3 C3.61875 3.28875 4.2375 3.5775 4.875 3.875 C7 5 7 5 9 7 C10.96053978 6.98546079 10.96053978 6.98546079 13.0625 6.5625 C15.0115625 6.2840625 15.0115625 6.2840625 17 6 C18 7 18 7 18.0625 9.5625 C18.041875 10.366875 18.02125 11.17125 18 12 C23.22327336 10.3583998 26.04472653 7.18088195 29.625 3.1875 C31 2 31 2 34 2 C32.49387553 7.33989586 30.01822198 13.98177802 26 18 C26.03222338 19.99784929 26.06809043 21.99620053 26.16015625 23.9921875 C26 26 26 26 24 29 C23.195625 29.474375 22.39125 29.94875 21.5625 30.4375 C18.82138345 32.10891253 17.7640292 33.35395619 16 36 C15.13008405 37.25354348 14.25471707 38.50331524 13.375 39.75 C12.94960937 40.36359375 12.52421875 40.9771875 12.0859375 41.609375 C11.54839844 42.29773438 11.54839844 42.29773438 11 43 C10.67 43 10.34 43 10 43 C9.96261719 42.17757812 9.92523438 41.35515625 9.88671875 40.5078125 C9.35169332 31.42287096 8.5861239 23.38054918 3 16 C3 15.34 3 14.68 3 14 C0.36 13.67 -2.28 13.34 -5 13 C-4.34 12.01 -3.68 11.02 -3 10 C-2.01 10 -1.02 10 0 10 C-0.185625 8.72125 -0.37125 7.4425 -0.5625 6.125 C-1.125 2.25 -1.125 2.25 0 0 Z " fill="#FDE209" transform="translate(132,38)"/>
<path d="M0 0 C1.33867559 0.31118573 2.67133573 0.64851721 4 1 C5.51395696 1.07818636 7.03093507 1.10789909 8.546875 1.09765625 C9.39121094 1.09443359 10.23554687 1.09121094 11.10546875 1.08789062 C12.41451172 1.07532227 12.41451172 1.07532227 13.75 1.0625 C14.63816406 1.05798828 15.52632812 1.05347656 16.44140625 1.04882812 C18.62767329 1.037074 20.81380179 1.02064249 23 1 C19.65909091 11.34090909 19.65909091 11.34090909 17 14 C16.76924918 15.34747084 16.58846937 16.70377565 16.4375 18.0625 C16.293125 19.361875 16.14875 20.66125 16 22 C14.35 21.01 12.7 20.02 11 19 C10.90912109 19.92232422 10.90912109 19.92232422 10.81640625 20.86328125 C10.73261719 21.67152344 10.64882812 22.47976562 10.5625 23.3125 C10.48128906 24.11300781 10.40007812 24.91351563 10.31640625 25.73828125 C10 28 10 28 9 31 C7.02 31 5.04 31 3 31 C0.53383533 26.6479447 1.11362968 23.15004567 1.80859375 18.40234375 C2.00104581 15.98687397 1.72591998 14.29433102 1 12 C0.46375 12.66 -0.0725 13.32 -0.625 14 C-3 16 -3 16 -6.25 16.25 C-7.1575 16.1675 -8.065 16.085 -9 16 C-9 11.69482643 -8.54199271 10.8231574 -6.1875 7.4375 C-5.66542969 6.67308594 -5.14335938 5.90867188 -4.60546875 5.12109375 C-1.68133984 1.25782854 -1.68133984 1.25782854 0 0 Z " fill="#96EF07" transform="translate(67,139)"/>
<path d="M0 0 C-0.99446887 3.58008792 -1.6683906 4.7909419 -4.875 6.8125 C-10.69610779 10.88727545 -11.94957468 16.4670373 -13.4375 23.1875 C-15.02823891 29.950267 -17.89531039 32.78649168 -23.6875 36.375 C-24.780625 36.91125 -25.87375 37.4475 -27 38 C-27.66 37.67 -28.32 37.34 -29 37 C-29.625 34.9375 -29.625 34.9375 -30 33 C-30.66 33 -31.32 33 -32 33 C-32.79953138 29.71303767 -33.09658936 28.28976808 -32 25 C-33.65 24.67 -35.3 24.34 -37 24 C-36.4375 22.1875 -36.4375 22.1875 -35 20 C-32.69631264 18.93347808 -30.35981813 17.93578995 -28 17 C-27.2575 16.443125 -26.515 15.88625 -25.75 15.3125 C-24 14 -24 14 -21 14 C-20.319375 13.113125 -19.63875 12.22625 -18.9375 11.3125 C-15.60996929 7.01529009 -10.96269442 4.98507777 -6 3 C-5.34 3 -4.68 3 -4 3 C-4 2.34 -4 1.68 -4 1 C-2 0 -2 0 0 0 Z M-22 10 C-22 10.99 -22 11.98 -22 13 C-22.99 13.495 -22.99 13.495 -24 14 C-23.34 12.68 -22.68 11.36 -22 10 Z " fill="#FDBA10" transform="translate(74,104)"/>
<path d="M0 0 C0.18433594 0.78761719 0.36867187 1.57523438 0.55859375 2.38671875 C2.76820093 10.68502127 5.86691162 16.28596905 11.07421875 23.02734375 C13.12385964 26.19119105 13.78103929 28.26202784 14 32 C12.9375 34.875 12.9375 34.875 11 37 C8.0625 37.6875 8.0625 37.6875 5 37 C1.40081061 33.40081061 0.68554771 29.92410284 -0.3125 25 C-1.70029488 18.22475421 -4.33051633 12.83823151 -7.57421875 6.80078125 C-9 4 -9 4 -9 2 C-2.25 0 -2.25 0 0 0 Z " fill="#9B21E4" transform="translate(145,159)"/>
<path d="M0 0 C0.1875 2.375 0.1875 2.375 0 5 C-3.86790352 7.57860235 -6.76613915 7.01114505 -11.1875 6.625 C-11.93708984 6.56828125 -12.68667969 6.5115625 -13.45898438 6.453125 C-15.30676559 6.31189331 -17.153512 6.15723833 -19 6 C-19.33 7.65 -19.66 9.3 -20 11 C-24.29 11.99 -28.58 12.98 -33 14 C-33 14.66 -33 15.32 -33 16 C-33.886875 16.2475 -34.77375 16.495 -35.6875 16.75 C-39.10427135 18.03934768 -41.2797748 19.59980129 -44 22 C-47 16.375 -47 16.375 -47 13 C-43.13380711 11.16567491 -40.48569875 10.91383343 -36.25 11.25 C-30.37173341 11.39514238 -27.29638329 9.91581975 -22.7421875 6.3125 C-21 5 -21 5 -19 5 C-19 4.34 -19 3.68 -19 3 C-12.49577707 0.99134292 -6.8218683 -0.38614349 0 0 Z " fill="#68F11E" transform="translate(195,84)"/>
<path d="M0 0 C-0.14566406 0.80050781 -0.29132813 1.60101563 -0.44140625 2.42578125 C-0.85939942 5.10035293 -1.19740284 7.72803082 -1.46484375 10.41796875 C-1.54283203 11.19720703 -1.62082031 11.97644531 -1.70117188 12.77929688 C-1.85982651 14.39600067 -2.0134046 16.01321005 -2.16210938 17.63085938 C-2.28102539 18.79391602 -2.28102539 18.79391602 -2.40234375 19.98046875 C-2.46929443 20.68067139 -2.53624512 21.38087402 -2.60522461 22.10229492 C-3 24 -3 24 -5 27 C-8 27.375 -8 27.375 -11 27 C-13.62416633 23.06375051 -12.8258757 21.57985616 -12 17 C-11.979375 15.72125 -11.95875 14.4425 -11.9375 13.125 C-11.27134674 7.36672608 -6.00578329 0 0 0 Z " fill="#8341E2" transform="translate(94,173)"/>
<path d="M0 0 C3.58734854 0.15943771 5.47172331 0.53209779 8.1875 2.9375 C11.62803722 8.75082151 13.12297426 15.3346044 14 22 C13.401875 22.12375 12.80375 22.2475 12.1875 22.375 C9.73768652 22.95475985 9.73768652 22.95475985 7 25 C6.608125 24.01 6.21625 23.02 5.8125 22 C4.59841153 19.09319203 3.12792767 16.69341755 1.3125 14.125 C-1.46332626 9.86539874 -1.76280048 5.97999741 -1 1 C-0.67 0.67 -0.34 0.34 0 0 Z " fill="#FE0A03" transform="translate(66,16)"/>
<path d="M0 0 C6.86214442 5.0940919 6.86214442 5.0940919 7.4375 8.875 C7.293125 9.57625 7.14875 10.2775 7 11 C3 11 3 11 0 9 C0 8.34 0 7.68 0 7 C-0.99 7.495 -0.99 7.495 -2 8 C-1.55527344 8.74765625 -1.11054688 9.4953125 -0.65234375 10.265625 C-0.08644531 11.25046875 0.47945312 12.2353125 1.0625 13.25 C1.63097656 14.22453125 2.19945312 15.1990625 2.78515625 16.203125 C4 19 4 19 3.87109375 21.296875 C3 23 3 23 0 24 C-2.52736756 23.14310205 -3.7198471 22.41089092 -5.23046875 20.1953125 C-5.54628906 19.51210937 -5.86210937 18.82890625 -6.1875 18.125 C-6.51105469 17.44695312 -6.83460938 16.76890625 -7.16796875 16.0703125 C-8.65115649 12.37975145 -9.28813742 10.78437408 -7.875 6.9375 C-5.86045689 3.78138247 -4.30256049 2.65128025 -1 1 C-0.67 0.67 -0.34 0.34 0 0 Z " fill="#9E0CED" transform="translate(164,136)"/>
<path d="M0 0 C1.25 7.625 1.25 7.625 -1 11 C-1.804375 11.474375 -2.60875 11.94875 -3.4375 12.4375 C-6.17861655 14.10891253 -7.2359708 15.35395619 -9 18 C-9.86991595 19.25354348 -10.74528293 20.50331524 -11.625 21.75 C-12.26308594 22.67039062 -12.26308594 22.67039062 -12.9140625 23.609375 C-13.27242187 24.06828125 -13.63078125 24.5271875 -14 25 C-14.33 25 -14.66 25 -15 25 C-15.24878997 22.56305726 -15.47463404 20.12761611 -15.6875 17.6875 C-15.79674805 16.65206055 -15.79674805 16.65206055 -15.90820312 15.59570312 C-16.32767738 10.48798723 -16.32767738 10.48798723 -14.73046875 8.109375 C-13 7 -13 7 -9.625 5.5625 C-7.01254472 4.43644169 -2.55515781 0 0 0 Z " fill="#D7E50B" transform="translate(157,56)"/>
<path d="M0 0 C3.99455527 0.61454696 6.74466336 2.70646737 10 5 C9.16207611 8.14221458 8.53440843 10.44650556 6.25 12.8125 C4 14 4 14 0.875 14.375 C-0.07375 14.58125 -1.0225 14.7875 -2 15 C-3.33903214 17.34754398 -3.33903214 17.34754398 -4 20 C-4.66 20.99 -5.32 21.98 -6 23 C-7.58894072 21.41105928 -7.16998411 19.75198576 -7.1875 17.5625 C-7.20167969 16.75941406 -7.21585937 15.95632812 -7.23046875 15.12890625 C-7 13 -7 13 -5 11 C-4.30959426 9.34302621 -3.6469365 7.6744239 -3 6 C-2.01517978 3.99248185 -1.01847486 1.99065541 0 0 Z " fill="#41EF7D" transform="translate(90,140)"/>
<path d="M0 0 C0.66 0.33 1.32 0.66 2 1 C-0.89205852 4.25779894 -3.1660418 5.66482471 -7.3125 6.9375 C-12.36144286 8.66548044 -15.96974918 10.48424928 -20 14 C-20.68132451 15.66072849 -21.34742127 17.327767 -22 19 C-24.83266082 22.67889597 -27.5258198 24.71657459 -32.12890625 25.6015625 C-35.09577945 25.84675863 -38.02365283 25.99022546 -41 26 C-40.505 24.515 -40.505 24.515 -40 23 C-36.71694623 21.41927041 -33.45463072 20.15154357 -30 19 C-30 18.34 -30 17.68 -30 17 C-24.32597591 11.52735046 -18.28865484 7.8316551 -11 5 C-9.35068329 4.27874708 -7.70475955 3.54968041 -6.0625 2.8125 C-5.33160156 2.48894531 -4.60070312 2.16539063 -3.84765625 1.83203125 C-2.55241071 1.24876 -1.27054834 0.63527417 0 0 Z " fill="#3DAED9" transform="translate(168,125)"/>
<path d="M0 0 C4.07008939 0.35060695 8.09181075 0.30272975 12 -1 C11.505 -0.236875 11.01 0.52625 10.5 1.3125 C8.75631692 3.92363751 8.75631692 3.92363751 9 7 C8.20335938 7.06058594 7.40671875 7.12117188 6.5859375 7.18359375 C-0.01340151 7.69571462 -0.01340151 7.69571462 -6.5625 8.625 C-9 9 -9 9 -12 8 C-12.3125 4.6875 -12.3125 4.6875 -12 1 C-7.91718094 -3.08281906 -5.08132853 -1.63636004 0 0 Z " fill="#FE1306" transform="translate(17,100)"/>
<path d="M0 0 C0.26554688 0.89203125 0.53109375 1.7840625 0.8046875 2.703125 C1.15789062 3.87359375 1.51109375 5.0440625 1.875 6.25 C2.39707031 7.99023438 2.39707031 7.99023438 2.9296875 9.765625 C3.78532389 12.35127072 4.6937546 14.62286874 6 17 C3.79038253 19.54106009 2.26011642 20.30621489 -1 21 C-2.33957921 18.21128823 -3.67058435 15.41856938 -5 12.625 C-5.3815625 11.8309375 -5.763125 11.036875 -6.15625 10.21875 C-6.5171875 9.45820313 -6.878125 8.69765625 -7.25 7.9140625 C-7.58515625 7.2123291 -7.9203125 6.5105957 -8.265625 5.78759766 C-9 4 -9 4 -9 2 C-2.25 0 -2.25 0 0 0 Z " fill="#9F0DEC" transform="translate(145,159)"/>
<path d="M0 0 C1.47919922 0.33064453 1.47919922 0.33064453 2.98828125 0.66796875 C3.98214844 0.88066406 4.97601563 1.09335938 6 1.3125 C7.13888672 1.58126953 7.13888672 1.58126953 8.30078125 1.85546875 C4.97931399 5.27758654 1.53905549 8.40056527 -2.1484375 11.42578125 C-3.9460365 12.97028682 -3.9460365 12.97028682 -5.69921875 15.85546875 C-8.82421875 16.04296875 -8.82421875 16.04296875 -11.69921875 15.85546875 C-11.69921875 11.55029518 -11.24121146 10.67862615 -8.88671875 7.29296875 C-8.36464844 6.52855469 -7.84257813 5.76414063 -7.3046875 4.9765625 C-6.77488281 4.27660156 -6.24507812 3.57664063 -5.69921875 2.85546875 C-5.25578125 2.2521875 -4.81234375 1.64890625 -4.35546875 1.02734375 C-2.69921875 -0.14453125 -2.69921875 -0.14453125 0 0 Z " fill="#B7EE06" transform="translate(69.69921875,139.14453125)"/>
<path d="M0 0 C0.99 0.66 1.98 1.32 3 2 C1.66023187 6.01930438 -0.33931015 9.02069758 -2.87890625 12.3515625 C-4.19132292 14.12060315 -4.19132292 14.12060315 -5 17 C-7.06640625 18.38671875 -7.06640625 18.38671875 -9.5625 19.6875 C-10.80193359 20.34298828 -10.80193359 20.34298828 -12.06640625 21.01171875 C-13.02353516 21.50091797 -13.02353516 21.50091797 -14 22 C-15.41000664 19.17998673 -15.24548451 17.12992745 -15 14 C-13.89481001 10.90546804 -12.87920471 9.42896021 -9.90234375 7.9765625 C-8.30349264 7.32662302 -6.701911 6.68335981 -5.09765625 6.046875 C-2.27041027 4.63588445 -1.19804457 2.87530697 0 0 Z " fill="#31EE9E" transform="translate(100,146)"/>
<path d="M0 0 C3.16115776 1.36983503 3.9927092 1.9890638 6 5 C6.4921875 6.91015625 6.4921875 6.91015625 6.875 9.0625 C7.78970885 13.60629761 9.39778314 17.61697307 11.29296875 21.8359375 C12 24 12 24 11 27 C9.19140625 26.953125 9.19140625 26.953125 7 26 C5.78202597 23.55809609 4.83075719 21.30697881 3.9375 18.75 C3.45079023 17.40993437 2.95997214 16.071353 2.46484375 14.734375 C2.22781738 14.09338867 1.99079102 13.45240234 1.74658203 12.79199219 C0.95669363 10.77139086 0.95669363 10.77139086 -0.69921875 8.1875 C-2 6 -2 6 -1.75 3.25 C-1 1 -1 1 0 0 Z " fill="#FF0902" transform="translate(74,2)"/>
<path d="M0 0 C1.70993434 1.6222454 3.37347684 3.29413425 5 5 C6.32 5.99 7.64 6.98 9 8 C6.36 10.64 3.72 13.28 1 16 C-0.11375 14.8553125 -0.11375 14.8553125 -1.25 13.6875 C-3.4263323 11.5606298 -5.52167796 9.7440044 -8 8 C-7.32253522 3.25774652 -4.9532836 0 0 0 Z " fill="#AAEA0A" transform="translate(116,88)"/>
<path d="M0 0 C0.1875 2.375 0.1875 2.375 0 5 C-3.86790352 7.57860235 -6.76613915 7.01114505 -11.1875 6.625 C-11.93708984 6.56828125 -12.68667969 6.5115625 -13.45898438 6.453125 C-15.30676559 6.31189331 -17.153512 6.15723833 -19 6 C-19 5.01 -19 4.02 -19 3 C-12.49577707 0.99134292 -6.8218683 -0.38614349 0 0 Z " fill="#71E933" transform="translate(195,84)"/>
<path d="M0 0 C6.86214442 5.0940919 6.86214442 5.0940919 7.4375 8.875 C7.293125 9.57625 7.14875 10.2775 7 11 C3 11 3 11 0 9 C0 8.34 0 7.68 0 7 C-2.24071094 8.00445663 -3.87754985 8.87754985 -5.625 10.625 C-6.07875 11.07875 -6.5325 11.5325 -7 12 C-7.66 12 -8.32 12 -9 12 C-7.10015431 6.17380656 -6.34623342 4.07408422 -1 1 C-0.67 0.67 -0.34 0.34 0 0 Z " fill="#9E0FEC" transform="translate(164,136)"/>
<path d="M0 0 C3.51865145 0.3015987 5.00757452 1.00605962 7.8125 3.25 C10 6 10 6 10.5 8.625 C9.92725125 11.34555656 9.15153737 12.29669958 7 14 C5.1875 13.5 5.1875 13.5 3 12 C0.87426403 7.96199109 0 4.57422506 0 0 Z " fill="#9D25E0" transform="translate(161,171)"/>
<path d="M0 0 C3.01802393 0.32627286 4.59691281 0.61081236 6.8125 2.75 C8.19608294 5.37152557 8.24360427 7.07674878 8 10 C0.61538462 10.36923077 0.61538462 10.36923077 -2.5 8.5 C-2.995 8.005 -3.49 7.51 -4 7 C-3.525625 6.21625 -3.05125 5.4325 -2.5625 4.625 C-1.66101977 3.11051322 -0.78820515 1.5764103 0 0 Z " fill="#A00EEA" transform="translate(171,128)"/>
<path d="M0 0 C3.01802393 0.32627286 4.59691281 0.61081236 6.8125 2.75 C8.19608294 5.37152557 8.24360427 7.07674878 8 10 C1.25 11.125 1.25 11.125 -1 10 C-1.86159454 6.76902047 -2.30597523 4.77513726 -1.0625 1.625 C-0.5365625 0.820625 -0.5365625 0.820625 0 0 Z " fill="#FF0D04" transform="translate(18,62)"/>
<path d="M0 0 C2.31 0 4.62 0 7 0 C7.95024979 3.69541586 7.95024979 6.30458414 7 10 C4.69 10.66 2.38 11.32 0 12 C-0.19477739 10.37585622 -0.38059458 8.75063577 -0.5625 7.125 C-0.66691406 6.22007813 -0.77132812 5.31515625 -0.87890625 4.3828125 C-1 2 -1 2 0 0 Z " fill="#FF0702" transform="translate(103,2)"/>
<path d="M0 0 C0.66 0.33 1.32 0.66 2 1 C2.73828125 3.8359375 2.73828125 3.8359375 3.3125 7.375 C3.51488281 8.53773438 3.71726562 9.70046875 3.92578125 10.8984375 C4 14 4 14 2.79296875 15.8515625 C1 17 1 17 -3 18 C-2.67 13.05 -2.34 8.1 -2 3 C-1.34 3 -0.68 3 0 3 C0 2.01 0 1.02 0 0 Z " fill="#9E0EEC" transform="translate(123,166)"/>
<path d="M0 0 C-1.26430927 4.94229987 -2.96006154 7.82576264 -7 11 C-10.45502189 11 -13.14460196 8.82428208 -16 7 C-15.46375 6.87625 -14.9275 6.7525 -14.375 6.625 C-11.5051136 5.86976674 -8.7589879 5.10359516 -6 4 C-5.67 3.01 -5.34 2.02 -5 1 C-3 0 -3 0 0 0 Z " fill="#41A3DB" transform="translate(125,153)"/>
<path d="M0 0 C-0.48578543 3.12290635 -0.9986012 5.99580359 -2 9 C-4.06640625 10.16796875 -4.06640625 10.16796875 -6.5625 11.1875 C-7.38878906 11.53167969 -8.21507813 11.87585938 -9.06640625 12.23046875 C-9.70449219 12.48441406 -10.34257813 12.73835937 -11 13 C-10.47164489 8.92309777 -9.35324283 6.74382266 -6.625 3.6875 C-6.01914063 2.99011719 -5.41328125 2.29273438 -4.7890625 1.57421875 C-3 0 -3 0 0 0 Z " fill="#5D7BDE" transform="translate(94,173)"/>
<path d="M0 0 C-0.15481795 2.70931419 -0.48172081 4.46584039 -2.40234375 6.4453125 C-3.89771708 7.67679642 -5.4462924 8.8429837 -7 10 C-7.99 9.34 -8.98 8.68 -10 8 C-10.1875 5.375 -10.1875 5.375 -10 3 C-9.01 3 -8.02 3 -7 3 C-6.67 2.01 -6.34 1.02 -6 0 C-3.50907189 -1.24546405 -2.58919267 -0.7767578 0 0 Z " fill="#FDBA18" transform="translate(40,138)"/>
<path d="M0 0 C0 3.60456167 -0.88680402 4.6048998 -2.9375 7.5 C-4.76048843 10.0857992 -5.99291644 11.97874931 -7 15 C-9.06640625 16.38671875 -9.06640625 16.38671875 -11.5625 17.6875 C-12.80193359 18.34298828 -12.80193359 18.34298828 -14.06640625 19.01171875 C-15.02353516 19.50091797 -15.02353516 19.50091797 -16 20 C-16.33 18.68 -16.66 17.36 -17 16 C-15.02 15.67 -13.04 15.34 -11 15 C-10.773125 14.113125 -10.54625 13.22625 -10.3125 12.3125 C-8.80273551 8.50214199 -7.01791547 6.73049494 -4 4 C-3.236875 3.236875 -2.47375 2.47375 -1.6875 1.6875 C-1.130625 1.130625 -0.57375 0.57375 0 0 Z " fill="#2BEDAE" transform="translate(102,148)"/>
<path d="M0 0 C1.32 0.33 2.64 0.66 4 1 C2.97648478 3.20449433 1.9690037 5.03843541 0.4375 6.9375 C-1.20628942 9.29598047 -1.60798393 11.17748429 -2 14 C-2.66 14 -3.32 14 -4 14 C-4.66 16.64 -5.32 19.28 -6 22 C-6.33 22 -6.66 22 -7 22 C-7.05399736 20.54207116 -7.09279177 19.08357288 -7.125 17.625 C-7.15980469 16.40683594 -7.15980469 16.40683594 -7.1953125 15.1640625 C-7 13 -7 13 -5 11 C-4.30959426 9.34302621 -3.6469365 7.6744239 -3 6 C-2.01517978 3.99248185 -1.01847486 1.99065541 0 0 Z " fill="#62F03F" transform="translate(90,140)"/>
<path d="M0 0 C1.75 1.8125 1.75 1.8125 3 4 C2.67 4.99 2.34 5.98 2 7 C0.67696283 7.3721042 -0.65737935 7.70630173 -2 8 C-2.33 8.66 -2.66 9.32 -3 10 C-5.475 9.01 -5.475 9.01 -8 8 C-7.32253522 3.25774652 -4.9532836 0 0 0 Z " fill="#D8EA07" transform="translate(116,88)"/>
<path d="M0 0 C0.66 0.99 1.32 1.98 2 3 C-2.75 5.875 -2.75 5.875 -5 7 C-5.556875 6.2265625 -5.556875 6.2265625 -6.125 5.4375 C-6.74375 4.963125 -7.3625 4.48875 -8 4 C-10.00636471 4.29259485 -12.00714063 4.62633887 -14 5 C-14.99 4.34 -15.98 3.68 -17 3 C-14.92085336 2.29994051 -12.83648414 1.61537756 -10.75 0.9375 C-9.58984375 0.55464844 -8.4296875 0.17179687 -7.234375 -0.22265625 C-2.74273319 -1.3021692 -2.74273319 -1.3021692 0 0 Z " fill="#40E7A1" transform="translate(179,95)"/>
<path d="M0 0 C2.97 0.495 2.97 0.495 6 1 C6.33 2.65 6.66 4.3 7 6 C1.25 9 1.25 9 -1 9 C-2.25541557 5.23375329 -1.37061958 3.62811066 0 0 Z " fill="#FE6809" transform="translate(121,12)"/>
<path d="M0 0 C0.99 0.33 1.98 0.66 3 1 C2.01 1.66 1.02 2.32 0 3 C-0.2475 3.7425 -0.495 4.485 -0.75 5.25 C-2.5697963 9.25355185 -5.18791954 11.81008144 -9 14 C-11.86994967 14.4858379 -14.06678163 14.30875983 -17 14 C-14.64031256 11.90250005 -13.45383006 11.03094296 -10.25 10.8125 C-9.5075 10.874375 -8.765 10.93625 -8 11 C-7.73445312 10.41734375 -7.46890625 9.8346875 -7.1953125 9.234375 C-5.96697004 6.93825772 -4.59685061 5.19643982 -2.875 3.25 C-2.33617187 2.63640625 -1.79734375 2.0228125 -1.2421875 1.390625 C-0.83226562 0.93171875 -0.42234375 0.4728125 0 0 Z " fill="#5982DD" transform="translate(148,136)"/>
<path d="M0 0 C0.928125 0.0825 1.85625 0.165 2.8125 0.25 C-3.41009874 8.0549778 -3.41009874 8.0549778 -8.1875 10.25 C-9.1775 10.25 -10.1675 10.25 -11.1875 10.25 C-11.1875 9.26 -11.1875 8.27 -11.1875 7.25 C-9.53678604 6.22388051 -7.86779994 5.22691857 -6.1875 4.25 C-5.713125 3.528125 -5.23875 2.80625 -4.75 2.0625 C-3.1875 0.25 -3.1875 0.25 0 0 Z " fill="#25EDB5" transform="translate(164.1875,105.75)"/>
<path d="M0 0 C0.66 0.66 1.32 1.32 2 2 C0 5 0 5 -2.4375 6.4375 C-5.17861655 8.10891253 -6.2359708 9.35395619 -8 12 C-8.86991595 13.25354348 -9.74528293 14.50331524 -10.625 15.75 C-11.26308594 16.67039062 -11.26308594 16.67039062 -11.9140625 17.609375 C-12.27242187 18.06828125 -12.63078125 18.5271875 -13 19 C-13.33 19 -13.66 19 -14 19 C-14.3125 16.8125 -14.3125 16.8125 -14 14 C-11.8125 11.5625 -11.8125 11.5625 -9 9 C-8.13020346 7.9713484 -7.27584588 6.92944124 -6.4375 5.875 C-4.39372652 3.46439539 -2.60712305 1.73808203 0 0 Z " fill="#B1E30F" transform="translate(156,62)"/>
<path d="M0 0 C1.98 0.99 1.98 0.99 4 2 C4.99 1.34 5.98 0.68 7 0 C7.99 0 8.98 0 10 0 C9.125 5.875 9.125 5.875 8 7 C5.0625 7.25 5.0625 7.25 2 7 C0 4 0 4 0 0 Z " fill="#9821E5" transform="translate(81,193)"/>
<path d="M0 0 C0.66 0.33 1.32 0.66 2 1 C-0.93932305 4.32150454 -3.3595681 5.76405062 -7.5625 7.125 C-10.82095446 8.19494027 -13.1208553 9.0805702 -16 11 C-16.99 10.67 -17.98 10.34 -19 10 C-16.77997089 7.2576111 -14.28047334 6.12289129 -11.04296875 4.83203125 C-7.94469986 3.57021237 -4.93921602 2.10709745 -1.91796875 0.671875 C-1.28503906 0.45015625 -0.65210938 0.2284375 0 0 Z " fill="#48A5D5" transform="translate(168,125)"/>
<path d="M0 0 C-1.05271441 2.67963668 -1.94896798 3.96030843 -4.25 5.75 C-7.37614838 8.30775776 -9.38362298 11.08766595 -11.66796875 14.390625 C-12.10753906 14.92171875 -12.54710937 15.4528125 -13 16 C-13.66 16 -14.32 16 -15 16 C-14.41374187 12.59970284 -13.39090089 11.39090089 -11 9 C-10.35837795 7.82139812 -9.73498822 6.63278056 -9.125 5.4375 C-7.6604366 2.76748827 -7.15442488 2.084566 -4.375 0.5625 C-2 0 -2 0 0 0 Z " fill="#C6E20F" transform="translate(157,60)"/>
<path d="M0 0 C2.97 0.495 2.97 0.495 6 1 C6.33 2.65 6.66 4.3 7 6 C5.35 6.66 3.7 7.32 2 8 C0.4375 6.8125 0.4375 6.8125 -1 5 C-0.6875 2.3125 -0.6875 2.3125 0 0 Z " fill="#A00DEB" transform="translate(180,139)"/>
<path d="M0 0 C1.670625 0.061875 1.670625 0.061875 3.375 0.125 C3.25 1.9375 3.25 1.9375 2.375 4.125 C-2.50819518 7.271948 -2.50819518 7.271948 -6 6.8125 C-6.53625 6.585625 -7.0725 6.35875 -7.625 6.125 C-4.84462617 0.16705607 -4.84462617 0.16705607 0 0 Z " fill="#27CCD7" transform="translate(116.625,152.875)"/>
<path d="M0 0 C0.66 0.66 1.32 1.32 2 2 C1.2575 2.825 0.515 3.65 -0.25 4.5 C-3.22452873 8.04231626 -5.05293532 11.81741662 -7 16 C-7.99 15.67 -8.98 15.34 -10 15 C-7.2916328 9.35756833 -4.70832983 4.20386592 0 0 Z " fill="#D9EB06" transform="translate(67,139)"/>
<path d="M0 0 C1.65 0 3.3 0 5 0 C5.99 2.97 6.98 5.94 8 9 C6.68 9.33 5.36 9.66 4 10 C0.38860104 6.12435233 0.38860104 6.12435233 -1 4 C-0.8125 1.625 -0.8125 1.625 0 0 Z " fill="#44F06C" transform="translate(122,115)"/>
<path d="M0 0 C1.32 0.66 2.64 1.32 4 2 C0.04 6.29 -3.92 10.58 -8 15 C-8 8.77285477 -3.91837399 4.44788399 0 0 Z " fill="#C8ED06" transform="translate(69,140)"/>
<path d="M0 0 C-4.72576582 4.10936158 -10.92670053 6.64731057 -17 8 C-16.34 7.67 -15.68 7.34 -15 7 C-14.82210937 6.05060547 -14.82210937 6.05060547 -14.640625 5.08203125 C-14 3 -14 3 -12.109375 1.69921875 C-4.28159979 -1.65739347 -4.28159979 -1.65739347 0 0 Z " fill="#2ECAD3" transform="translate(170,124)"/>
<path d="M0 0 C0.625 1.875 0.625 1.875 1 4 C0.34 4.66 -0.32 5.32 -1 6 C-1.45811675 7.97235333 -1.45811675 7.97235333 -1.625 10.125 C-1.810625 12.043125 -1.810625 12.043125 -2 14 C-3.65 13.01 -5.3 12.02 -7 11 C-6.42676569 7.13066838 -4.61046448 4.84777943 -2 2 C-1.34 2 -0.68 2 0 2 C0 1.34 0 0.68 0 0 Z " fill="#76F01B" transform="translate(85,147)"/>
<path d="M0 0 C-0.34069235 3.15140423 -0.58076841 4.60781561 -2.9375 6.8125 C-5 8 -5 8 -7 8 C-7.66 6.02 -8.32 4.04 -9 2 C-2.25 0 -2.25 0 0 0 Z " fill="#9719EA" transform="translate(145,159)"/>
<path d="M0 0 C1.65 0.33 3.3 0.66 5 1 C4.8125 3.375 4.8125 3.375 4 6 C1.4375 7.3125 1.4375 7.3125 -1 8 C-1.93065133 5.39417629 -2.14917407 4.35801776 -1.0625 1.75 C-0.711875 1.1725 -0.36125 0.595 0 0 Z " fill="#FFE508" transform="translate(167,32)"/>
<path d="M0 0 C0.375 2.1875 0.375 2.1875 0 5 C-1.83961648 6.99022836 -3.79186148 8.38989899 -6 10 C-6.33 7.36 -6.66 4.72 -7 2 C-4.35261084 0.5393715 -3.10551666 0 0 0 Z " fill="#FE3308" transform="translate(110,12)"/>
<path d="M0 0 C0 0.66 0 1.32 0 2 C-1.0828125 2.61875 -1.0828125 2.61875 -2.1875 3.25 C-5.65177566 5.4055493 -7.46065011 7.82581263 -10 11 C-10.33 11 -10.66 11 -11 11 C-11.3125 8.8125 -11.3125 8.8125 -11 6 C-7.62481966 1.98627203 -5.36488237 0 0 0 Z " fill="#31BED7" transform="translate(94,171)"/>
<path d="M0 0 C-1.125 2.5 -1.125 2.5 -3 5 C-6.0625 5.5 -6.0625 5.5 -9 5 C-9.66 4.01 -10.32 3.02 -11 2 C-9.73392393 1.46770674 -8.46189588 0.94955456 -7.1875 0.4375 C-6.47980469 0.14746094 -5.77210938 -0.14257812 -5.04296875 -0.44140625 C-3 -1 -3 -1 0 0 Z " fill="#A00FEA" transform="translate(159,191)"/>
<path d="M0 0 C0.90105469 0.01804687 1.80210937 0.03609375 2.73046875 0.0546875 C3.41753906 0.07789062 4.10460937 0.10109375 4.8125 0.125 C1.8125 2.125 1.8125 2.125 -0.125 3.0625 C-2.34926109 4.20833147 -4.22328254 5.58168628 -6.1875 7.125 C-6.8475 5.475 -7.5075 3.825 -8.1875 2.125 C-4.87379 -0.08414 -3.8428979 -0.09981553 0 0 Z " fill="#3FF079" transform="translate(157.1875,98.875)"/>
<path d="M0 0 C0.99 0.33 1.98 0.66 3 1 C3.125 3.375 3.125 3.375 3 6 C2.34 6.66 1.68 7.32 1 8 C-0.32 8 -1.64 8 -3 8 C-2.45276317 4.62537285 -1.9451 2.91765 0 0 Z " fill="#8E3FDC" transform="translate(103,171)"/>
<path d="M0 0 C0.33 0.99 0.66 1.98 1 3 C0.071875 3.61875 0.071875 3.61875 -0.875 4.25 C-3.09473022 5.83001439 -3.09473022 5.83001439 -4 8.0625 C-5.25346936 10.49109689 -6.51150574 11.0046023 -9 12 C-7.10015431 6.17380656 -6.34623342 4.07408422 -1 1 C-0.67 0.67 -0.34 0.34 0 0 Z " fill="#9327E5" transform="translate(164,136)"/>
<path d="M0 0 C0.66 0.33 1.32 0.66 2 1 C1.36191406 1.61488281 0.72382812 2.22976562 0.06640625 2.86328125 C-1.17302734 4.07564453 -1.17302734 4.07564453 -2.4375 5.3125 C-3.26121094 6.11300781 -4.08492187 6.91351563 -4.93359375 7.73828125 C-7.19403477 9.90470808 -7.19403477 9.90470808 -8 13 C-8.99 12.67 -9.98 12.34 -11 12 C-11 11.34 -11 10.68 -11 10 C-9.35546875 8.37890625 -9.35546875 8.37890625 -7.1875 6.5625 C-4.68897282 4.45536324 -2.2757944 2.34758602 0 0 Z " fill="#FE3709" transform="translate(51,69)"/>
<path d="M0 0 C1.65 0 3.3 0 5 0 C5.33 1.65 5.66 3.3 6 5 C4.34385343 5.38218767 2.67542976 5.71395102 1 6 C0 5 0 5 -0.0625 2.4375 C-0.041875 1.633125 -0.02125 0.82875 0 0 Z " fill="#FD9616" transform="translate(5,159)"/>
<path d="M0 0 C0.6875 1.8125 0.6875 1.8125 1 4 C-0.3125 5.5625 -0.3125 5.5625 -2 7 C-2.66 7.99 -3.32 8.98 -4 10 C-4.6875 6.6875 -4.6875 6.6875 -5 3 C-3.42599605 0.67647035 -2.82844233 0 0 0 Z " fill="#FEA20D" transform="translate(84,79)"/>
<path d="M0 0 C2.125 0.9375 2.125 0.9375 4 2 C3.34 3.32 2.68 4.64 2 6 C0.35 6 -1.3 6 -3 6 C-2.625 3.5625 -2.625 3.5625 -2 1 C-1.34 0.67 -0.68 0.34 0 0 Z " fill="#97EB0B" transform="translate(173,59)"/>
<path d="M0 0 C-0.66 0 -1.32 0 -2 0 C-2.4021875 0.8353125 -2.4021875 0.8353125 -2.8125 1.6875 C-4.10899496 4.21225334 -5.42476323 6.63714484 -7 9 C-7.66 9 -8.32 9 -9 9 C-8.5020163 5.26512223 -8.12508244 3.18762365 -6 0 C-3 -1 -3 -1 0 0 Z " fill="#38EF8E" transform="translate(94,155)"/>
<path d="M0 0 C0.99 0.33 1.98 0.66 3 1 C3 1.66 3 2.32 3 3 C2.13375 3.309375 2.13375 3.309375 1.25 3.625 C-1.81410544 5.49750888 -3.15539968 7.96958519 -5 11 C-5.68359375 9.234375 -5.68359375 9.234375 -6 7 C-4.78515625 5.078125 -4.78515625 5.078125 -3.0625 3.25 C-2.49660156 2.63640625 -1.93070312 2.0228125 -1.34765625 1.390625 C-0.90292969 0.93171875 -0.45820312 0.4728125 0 0 Z " fill="#4AF06C" transform="translate(94,142)"/>
<path d="M0 0 C1.63001953 0.01353516 1.63001953 0.01353516 3.29296875 0.02734375 C4.12441406 0.03894531 4.95585937 0.05054687 5.8125 0.0625 C3.35917367 2.51582633 2.32451372 2.41613688 -1.0625 2.6875 C-2.35800781 2.79964844 -2.35800781 2.79964844 -3.6796875 2.9140625 C-5.84573154 3.04227071 -8.01766495 3.0625 -10.1875 3.0625 C-8.19010785 -0.9322843 -3.93646808 -0.04232761 0 0 Z " fill="#56F146" transform="translate(158.1875,96.9375)"/>
<path d="M0 0 C-1.49097658 3.7952131 -3.75700849 5.61042731 -7 8 C-7.66 7.01 -8.32 6.02 -9 5 C-6.6475912 1.47138681 -4.32053307 0 0 0 Z " fill="#C2EA08" transform="translate(121,93)"/>
<path d="M0 0 C-0.66 2.64 -1.32 5.28 -2 8 C-3.65 8 -5.3 8 -7 8 C-4.18918919 0 -4.18918919 0 0 0 Z " fill="#6BF029" transform="translate(78,162)"/>
<path d="M0 0 C0 0.66 0 1.32 0 2 C-1.33333333 3.33333333 -2.66666667 4.66666667 -4 6 C-5.23512079 8.13309192 -5.23512079 8.13309192 -6 10 C-6.66 9.67 -7.32 9.34 -8 9 C-8 7.35 -8 5.7 -8 4 C-7.01 4 -6.02 4 -5 4 C-4.67 3.01 -4.34 2.02 -4 1 C-2 0 -2 0 0 0 Z " fill="#FD9F14" transform="translate(38,137)"/>
<path d="M0 0 C0 0.99 0 1.98 0 3 C-1.2065625 3.4021875 -1.2065625 3.4021875 -2.4375 3.8125 C-3.283125 4.204375 -4.12875 4.59625 -5 5 C-5.33 5.99 -5.66 6.98 -6 8 C-8.5625 9.6875 -8.5625 9.6875 -11 11 C-9.65319085 8.08728356 -8.12551255 5.70671723 -6.0625 3.25 C-5.55847656 2.63640625 -5.05445312 2.0228125 -4.53515625 1.390625 C-3 0 -3 0 0 0 Z " fill="#4A97DB" transform="translate(94,173)"/>
<path d="M0 0 C0.66 0.99 1.32 1.98 2 3 C1.67 3.99 1.34 4.98 1 6 C0.34 6 -0.32 6 -1 6 C-1.33 6.99 -1.66 7.98 -2 9 C-2.99 7.35 -3.98 5.7 -5 4 C-3.35 2.68 -1.7 1.36 0 0 Z " fill="#8A33E6" transform="translate(122,163)"/>
<path d="M0 0 C0.6875 1.6875 0.6875 1.6875 1 4 C-0.82302283 8.1524409 -3.00802406 9.95006641 -7 12 C-7.33 11.01 -7.66 10.02 -8 9 C-7.50628906 8.60167969 -7.01257813 8.20335937 -6.50390625 7.79296875 C-5.86324219 7.26316406 -5.22257812 6.73335937 -4.5625 6.1875 C-3.92441406 5.66542969 -3.28632812 5.14335937 -2.62890625 4.60546875 C-0.7451725 2.99165589 -0.7451725 2.99165589 0 0 Z " fill="#6F5DE2" transform="translate(124,155)"/>
<path d="M0 0 C0.598125 0.350625 1.19625 0.70125 1.8125 1.0625 C0.53187515 2.7699998 -0.80517557 4.43623596 -2.1875 6.0625 C-2.8475 6.0625 -3.5075 6.0625 -4.1875 6.0625 C-4.5175 4.0825 -4.8475 2.1025 -5.1875 0.0625 C-2.1875 -0.9375 -2.1875 -0.9375 0 0 Z " fill="#2BEAAE" transform="translate(132.1875,123.9375)"/>
<path d="M0 0 C0.99 0 1.98 0 3 0 C3 0.99 3 1.98 3 3 C0.03 4.65 -2.94 6.3 -6 8 C-6.33 6.68 -6.66 5.36 -7 4 C-5.02 3.67 -3.04 3.34 -1 3 C-0.67 2.01 -0.34 1.02 0 0 Z " fill="#25EBB9" transform="translate(92,160)"/>
<path d="M0 0 C0.66 0.33 1.32 0.66 2 1 C1.505 1.598125 1.01 2.19625 0.5 2.8125 C-1.28276418 4.97029994 -1.28276418 4.97029994 -1 8 C-2.98 8 -4.96 8 -7 8 C-6.67 7.34 -6.34 6.68 -6 6 C-5.34 6 -4.68 6 -4 6 C-4 4.68 -4 3.36 -4 2 C-2.125 0.9375 -2.125 0.9375 0 0 Z " fill="#FE380A" transform="translate(27,99)"/>
<path d="M0 0 C0.99 0.33 1.98 0.66 3 1 C2.01 1.66 1.02 2.32 0 3 C-0.28875 3.845625 -0.5775 4.69125 -0.875 5.5625 C-1.24625 6.366875 -1.6175 7.17125 -2 8 C-4.625 8.8125 -4.625 8.8125 -7 9 C-6.02180976 7.68677212 -5.0424189 6.37443848 -4.0625 5.0625 C-3.51722656 4.33160156 -2.97195312 3.60070312 -2.41015625 2.84765625 C-1 1 -1 1 0 0 Z " fill="#518FDB" transform="translate(148,136)"/>
<path d="M0 0 C1.65 0 3.3 0 5 0 C4.67 1.32 4.34 2.64 4 4 C2.35 4.33 0.7 4.66 -1 5 C-0.67 3.35 -0.34 1.7 0 0 Z " fill="#FF0E04" transform="translate(29,59)"/>
<path d="M0 0 C0 0.99 0 1.98 0 3 C-0.99 3.495 -0.99 3.495 -2 4 C-1.34 2.68 -0.68 1.36 0 0 Z M-3 4 C-2.34 4.66 -1.68 5.32 -1 6 C-3.3125 8.0625 -3.3125 8.0625 -6 10 C-6.99 9.67 -7.98 9.34 -9 9 C-7.02 7.35 -5.04 5.7 -3 4 Z " fill="#FE9D0C" transform="translate(52,114)"/>
<path d="M0 0 C2.475 0.99 2.475 0.99 5 2 C4.67 3.65 4.34 5.3 4 7 C3.01 7.33 2.02 7.66 1 8 C0.67 5.36 0.34 2.72 0 0 Z " fill="#FE7A08" transform="translate(123,12)"/>
<path d="M0 0 C0.66 0.33 1.32 0.66 2 1 C0.56771184 2.31818554 -0.87102484 3.62936704 -2.3125 4.9375 C-3.11300781 5.66839844 -3.91351563 6.39929688 -4.73828125 7.15234375 C-7 9 -7 9 -10 10 C-10 9.34 -10 8.68 -10 8 C-8.38542921 6.56418526 -6.70780925 5.19855217 -5 3.875 C-4.071875 3.15054688 -3.14375 2.42609375 -2.1875 1.6796875 C-1.465625 1.12539062 -0.74375 0.57109375 0 0 Z " fill="#33BED7" transform="translate(148,134)"/>
<path d="M0 0 C0.33 1.32 0.66 2.64 1 4 C-1.30368736 5.06652192 -3.64018187 6.06421005 -6 7 C-6.66 6.67 -7.32 6.34 -8 6 C-5.36 4.02 -2.72 2.04 0 0 Z " fill="#E6DF0F" transform="translate(156,56)"/>
<path d="M0 0 C2.125 0.9375 2.125 0.9375 4 2 C2.3545622 3.68762851 0.68711423 5.3540349 -1 7 C-1.33 7 -1.66 7 -2 7 C-2 5.02 -2 3.04 -2 1 C-1.34 0.67 -0.68 0.34 0 0 Z " fill="#FE390A" transform="translate(85,28)"/>
<path d="M0 0 C1.32 0 2.64 0 4 0 C2.55746343 3.36591866 0.66735273 5.51047079 -2 8 C-2.66 7.67 -3.32 7.34 -4 7 C-3.525625 6.21625 -3.05125 5.4325 -2.5625 4.625 C-1.66101977 3.11051322 -0.78820515 1.5764103 0 0 Z " fill="#9821E5" transform="translate(171,128)"/>
<path d="M0 0 C-0.8125 2.4375 -0.8125 2.4375 -2 5 C-2.99 5.33 -3.98 5.66 -5 6 C-5.66 5.34 -6.32 4.68 -7 4 C-3.375 0 -3.375 0 0 0 Z " fill="#36E7B1" transform="translate(181,98)"/>
<path d="M0 0 C0 2 0 2 -2.3125 4.4375 C-3.199375 5.283125 -4.08625 6.12875 -5 7 C-5.8971875 7.8971875 -5.8971875 7.8971875 -6.8125 8.8125 C-7.204375 9.204375 -7.59625 9.59625 -8 10 C-8 6 -8 6 -6.7578125 4.296875 C-6.21898438 3.78640625 -5.68015625 3.2759375 -5.125 2.75 C-4.59132813 2.22921875 -4.05765625 1.7084375 -3.5078125 1.171875 C-2 0 -2 0 0 0 Z " fill="#7BF112" transform="translate(78,160)"/>
<path d="M0 0 C1.37478516 0.01740234 1.37478516 0.01740234 2.77734375 0.03515625 C3.69644531 0.04417969 4.61554688 0.05320313 5.5625 0.0625 C6.27277344 0.07410156 6.98304688 0.08570313 7.71484375 0.09765625 C7.71484375 0.42765625 7.71484375 0.75765625 7.71484375 1.09765625 C7.1115625 1.21882812 6.50828125 1.34 5.88671875 1.46484375 C5.0875 1.63242188 4.28828125 1.8 3.46484375 1.97265625 C2.6759375 2.13507813 1.88703125 2.2975 1.07421875 2.46484375 C-1.25346769 3.089157 -3.17547577 3.94604167 -5.28515625 5.09765625 C-2.87806166 0.12299409 -2.87806166 0.12299409 0 0 Z " fill="#715DE0" transform="translate(130.28515625,149.90234375)"/>
<path d="M0 0 C0.33 0.66 0.66 1.32 1 2 C-2.96 2 -6.92 2 -11 2 C-4.03846154 -1.48076923 -4.03846154 -1.48076923 0 0 Z " fill="#55E776" transform="translate(179,95)"/>
<path d="M0 0 C-1.36944102 2.94956528 -2.87830409 5.52468811 -5 8 C-5.66 8 -6.32 8 -7 8 C-6.44414399 4.1090079 -4.34122117 0 0 0 Z " fill="#EAE906" transform="translate(115,88)"/>
<path d="M0 0 C-0.33 1.65 -0.66 3.3 -1 5 C-2.32 4.67 -3.64 4.34 -5 4 C-5 3.01 -5 2.02 -5 1 C-3 0 -3 0 0 0 Z " fill="#98EA0B" transform="translate(183,60)"/>
<path d="M0 0 C0 0.99 0 1.98 0 3 C-0.7425 3.103125 -1.485 3.20625 -2.25 3.3125 C-5.17014018 4.04253504 -6.73187554 5.06789398 -9 7 C-8.8125 5.1875 -8.8125 5.1875 -8 3 C-5.09303401 0.85802506 -3.64478912 0 0 0 Z " fill="#7457E1" transform="translate(92,182)"/>
<path d="M0 0 C0.66 0.33 1.32 0.66 2 1 C-0.3125 3.5 -0.3125 3.5 -3 6 C-3.99 6 -4.98 6 -6 6 C-4.98545548 3.4636387 -4.3146444 2.20648539 -2 0.6875 C-1.34 0.460625 -0.68 0.23375 0 0 Z " fill="#5486DF" transform="translate(121,158)"/>
<path d="M0 0 C0.66 0.33 1.32 0.66 2 1 C0.02 3.31 -1.96 5.62 -4 8 C-4.33 6.68 -4.66 5.36 -5 4 C-3.35 2.68 -1.7 1.36 0 0 Z " fill="#7957DE" transform="translate(152,135)"/>
<path d="M0 0 C0.66 0.33 1.32 0.66 2 1 C0.35830472 3.02054804 -1.30911778 5.02043058 -3 7 C-3.33 7 -3.66 7 -4 7 C-4 5.35 -4 3.7 -4 2 C-2.125 0.9375 -2.125 0.9375 0 0 Z " fill="#A6E70D" transform="translate(146,74)"/>
<path d="M0 0 C2.97 0 5.94 0 9 0 C7.60203108 2.79593783 5.86525011 2.95173777 3 4 C2.01 4.495 2.01 4.495 1 5 C0.67 3.35 0.34 1.7 0 0 Z " fill="#EFE608" transform="translate(140,61)"/>
<path d="M0 0 C0.66 0.33 1.32 0.66 2 1 C1.21302675 4.41021743 0.12880057 7.68885166 -1 11 C-1.33 11 -1.66 11 -2 11 C-2 8.36 -2 5.72 -2 3 C-1.34 3 -0.68 3 0 3 C0 2.01 0 1.02 0 0 Z " fill="#961CEA" transform="translate(123,166)"/>
<path d="M0 0 C0.66 0.33 1.32 0.66 2 1 C-0.25 3.0625 -0.25 3.0625 -3 5 C-5.25 4.875 -5.25 4.875 -7 4 C-7.33 3.34 -7.66 2.68 -8 2 C-6.8553125 2.061875 -6.8553125 2.061875 -5.6875 2.125 C-2.77281584 2.22080824 -2.77281584 2.22080824 0 0 Z " fill="#36B6DA" transform="translate(117,157)"/>
<path d="M0 0 C0.66 1.32 1.32 2.64 2 4 C1.401875 4.12375 0.80375 4.2475 0.1875 4.375 C-2.26231348 4.95475985 -2.26231348 4.95475985 -5 7 C-4.60196439 4.11424181 -4.20990931 3.17810487 -1.9375 1.25 C-1.298125 0.8375 -0.65875 0.425 0 0 Z " fill="#FE3009" transform="translate(78,34)"/>
<path d="M0 0 C1.65 0.33 3.3 0.66 5 1 C2.37801226 3.15377564 0.35595828 4.40072174 -3 5 C-2.01 3.35 -1.02 1.7 0 0 Z " fill="#39BED1" transform="translate(165,123)"/>
<path d="M0 0 C-0.33 0.99 -0.66 1.98 -1 3 C-3.31 3.33 -5.62 3.66 -8 4 C-4.5 0 -4.5 0 0 0 Z " fill="#67ED33" transform="translate(176,92)"/>
<path d="M0 0 C1.98 0.495 1.98 0.495 4 1 C2.625 3 2.625 3 1 5 C0.34 5 -0.32 5 -1 5 C-0.67 3.35 -0.34 1.7 0 0 Z " fill="#FE430B" transform="translate(69,45)"/>
<path d="M0 0 C-2.39223697 2.39223697 -3.67759676 2.6758631 -7 3 C-7.99 2.34 -8.98 1.68 -10 1 C-6.78548731 -0.60725635 -3.56387464 -0.05748185 0 0 Z " fill="#37ED95" transform="translate(172,97)"/>
<path d="" fill="#31E9B9" transform="translate(0,0)"/>
</svg>
